<svg width="50" height="40" viewBox="0 0 50 40" fill="none" xmlns="http://www.w3.org/2000/svg">
<g clip-path="url(#clip0_160_1834)">
<path d="M38.196 16.535C41.2383 16.535 44.2816 16.5426 47.3239 16.5254C47.7139 16.5235 47.8233 16.6134 47.8224 17.0151C47.809 22.4639 47.8205 27.9127 47.8005 33.3615C47.7986 33.8388 47.9308 33.967 48.376 33.9153C48.7042 33.8771 49.041 33.9086 49.374 33.9086C49.7412 33.9077 49.9371 34.1018 49.9514 34.4605C49.9666 34.8584 49.9638 35.2572 49.9524 35.6551C49.9409 36.0415 49.7316 36.2299 49.3435 36.2251C48.9478 36.2194 48.5501 36.2423 48.1553 36.2194C47.8737 36.2031 47.81 36.3112 47.8128 36.5742C47.8252 37.5938 47.8062 38.6133 47.8252 39.6329C47.8309 39.9351 47.7367 40.0126 47.4494 40.0011C46.912 39.9781 46.3716 39.9791 45.8332 39.9992C45.5592 40.0097 45.484 39.9217 45.4888 39.651C45.504 38.6477 45.4812 37.6435 45.5031 36.6402C45.5107 36.3035 45.4098 36.2136 45.0788 36.2174C43.336 36.2337 41.5922 36.2327 39.8494 36.2184C39.5421 36.2155 39.4404 36.2911 39.447 36.6134C39.467 37.6167 39.4442 38.621 39.4613 39.6243C39.466 39.9112 39.4014 40.0164 39.0969 40.0021C38.5594 39.9753 38.0191 39.9753 37.4816 40.0021C37.1753 40.0174 37.1125 39.9083 37.1173 39.6233C37.1334 38.6363 37.1134 37.6473 37.1296 36.6603C37.1344 36.3513 37.0859 36.2165 36.7253 36.2174C33.4604 36.2328 30.1965 36.2299 26.9316 36.2194C26.6357 36.2184 26.5548 36.3007 26.5596 36.5924C26.5758 37.5957 26.551 38.5999 26.5739 39.6032C26.5815 39.9227 26.494 40.0174 26.18 40.003C25.6425 39.9781 25.1022 39.9772 24.5647 40.003C24.2565 40.0174 24.1994 39.9035 24.2041 39.6204C24.2203 38.6171 24.1975 37.6129 24.2175 36.6096C24.2241 36.2882 24.1233 36.1983 23.817 36.2203C23.4383 36.2471 23.0569 36.2232 22.6763 36.228C22.3377 36.2327 22.1845 36.0654 22.1864 35.7316C22.1893 35.3174 22.1988 34.9024 22.1836 34.4892C22.1674 34.055 22.3595 33.9029 22.7848 33.9057C24.5599 33.9191 26.3351 33.8981 28.1093 33.921C28.5069 33.9258 28.6002 33.8187 28.5992 33.4247C28.5859 27.9759 28.5944 22.527 28.5802 17.0782C28.5792 16.6536 28.6677 16.5226 29.1158 16.5264C32.1419 16.5455 35.169 16.535 38.196 16.535ZM35.716 30.5573C35.716 29.554 35.7245 28.5516 35.7131 27.5483C35.7055 26.8501 35.2793 26.4016 34.5991 26.3824C33.9189 26.3633 33.2368 26.3633 32.5567 26.3824C31.866 26.4025 31.4455 26.8425 31.4427 27.5416C31.4351 29.5473 31.4436 31.5539 31.4341 33.5595C31.4332 33.8178 31.4855 33.9182 31.768 33.9144C32.9714 33.8981 34.1748 33.899 35.3783 33.9134C35.6522 33.9172 35.7255 33.835 35.7217 33.5662C35.7074 32.5629 35.716 31.5596 35.716 30.5573ZM42.144 23.6901C42.8727 23.6901 43.6014 23.6805 44.3291 23.6939C44.6583 23.6996 44.7801 23.5638 44.7772 23.2396C44.7677 22.1885 44.7648 21.1373 44.7782 20.0872C44.7829 19.718 44.6393 19.5745 44.274 19.5774C42.8489 19.5879 41.4229 19.5898 39.9978 19.5764C39.5878 19.5726 39.4308 19.7333 39.4375 20.1427C39.4527 21.146 39.4556 22.1493 39.4375 23.1516C39.4299 23.5743 39.603 23.7102 40.0064 23.6968C40.718 23.6738 41.4314 23.6901 42.144 23.6901Z" fill="#96644D"/>
<path d="M0.866645 17.8088C0.636428 16.2068 0.553663 14.7406 0.995072 13.2897C1.56491 11.4179 2.99283 10.3104 4.94206 10.1946C6.16165 10.1219 7.33747 10.3161 8.49236 10.6862C8.62364 10.7283 8.74636 10.823 8.94328 10.7503C8.1946 9.98804 7.29656 9.56147 6.29483 9.34245C4.36652 8.91971 2.48863 9.22577 0.631671 9.77667C0.453776 9.82928 0.277783 9.88666 0 9.97274C0.925626 8.18899 1.94638 6.62331 3.76815 5.8113C5.19892 5.17335 6.55264 5.50619 7.83025 6.29716C8.56181 6.74956 9.1754 7.34255 9.80802 8.06465C9.68435 6.59844 9.38184 5.26421 9.04793 3.93955C8.71497 2.61967 8.33159 1.31414 7.97009 0C10.5929 0.593946 12.3357 3.1811 12.9483 7.41619C13.4468 7.03075 13.9244 6.64722 14.4752 6.37081C16.1447 5.53489 17.7163 5.68313 19.1775 6.8452C20.3248 7.75668 21.1248 8.93884 21.7993 10.3314C19.7711 9.65138 17.7943 9.29654 15.7509 9.64564C14.9052 9.79006 14.1194 10.1124 13.4164 10.6202C13.6704 10.6853 13.6704 10.6853 13.9177 10.6126C14.9261 10.3151 15.9487 10.1459 17.0066 10.1851C19.3563 10.2731 20.926 11.6149 21.355 13.941C21.5853 15.1891 21.5329 16.4373 21.3237 17.6873C21.1372 17.6998 21.1248 17.5381 21.0573 17.4492C19.8729 15.8692 18.5316 14.467 16.7145 13.6129C15.298 12.9473 13.8587 12.865 12.3908 13.457C12.0541 13.5928 11.9333 13.7258 12.0179 14.1457C12.6306 17.19 12.7048 20.2802 12.6838 23.3705C12.6667 25.9509 12.5725 28.5304 12.3414 31.1023C12.3128 31.4227 12.4213 31.5269 12.7057 31.6283C16.0677 32.8239 18.4174 35.9992 18.5268 39.4347C18.5392 39.8135 18.4469 39.9091 18.0702 39.9082C12.4441 39.8957 6.81805 39.8948 1.19199 39.9101C0.771514 39.911 0.706825 39.7752 0.727754 39.3974C0.921821 35.7898 3.41045 32.5704 6.86657 31.5356C7.28039 31.4112 7.44497 31.2085 7.5401 30.8154C8.05285 28.7102 8.34776 26.5688 8.61698 24.4235C9.01083 21.2797 9.2791 18.1244 9.53405 14.9672C9.56068 14.6334 9.52549 14.2863 9.6073 13.9687C9.73858 13.458 9.50075 13.3174 9.06886 13.2122C7.81312 12.9061 6.61732 13.0697 5.46433 13.6129C3.64923 14.4689 2.30217 15.8653 1.1273 17.454C1.06262 17.5401 0.999829 17.6261 0.866645 17.8088Z" fill="#96644D"/>
<path d="M38.1991 14.2182C34.5232 14.2182 30.8474 14.2182 27.1715 14.2182C26.5389 14.2182 26.4999 14.1331 26.4409 13.5095C26.3781 12.8438 26.6159 12.4928 27.2324 12.2087C30.7465 10.5885 34.2407 8.92528 37.7358 7.26491C38.0697 7.10614 38.3466 7.11188 38.6767 7.26874C42.2574 8.97119 45.8429 10.6622 49.4274 12.357C49.9088 12.5846 50.1742 13.5812 49.8727 14.025C49.7233 14.245 49.4959 14.2191 49.2743 14.2191C45.5822 14.2182 41.8902 14.2182 38.1991 14.2182ZM39.4377 10.9988C39.4377 10.315 38.8907 9.74877 38.2181 9.73729C37.5408 9.72582 36.95 10.3245 36.9605 11.0132C36.971 11.6989 37.5218 12.2365 38.2086 12.2326C38.9021 12.2278 39.4377 11.6913 39.4377 10.9988Z" fill="#96644D"/>
</g>
<defs>
<clipPath id="clip0_160_1834">
<rect width="50" height="40" fill="white"/>
</clipPath>
</defs>
</svg>
