<svg width="449" height="266" viewBox="0 0 449 266" fill="none" xmlns="http://www.w3.org/2000/svg">
<g clip-path="url(#clip0_160_1885)">
<path d="M64.9475 25.2654C64.065 24.3499 62.5316 23.5154 59.8716 23.4469C53.8944 23.3037 55.4967 27.5073 53.8944 28.5224C52.2922 29.5375 51.8541 27.9433 50.2518 28.9584C48.6496 29.9735 49.3756 32.0037 48.0675 32.2964C46.7532 32.5891 45.0069 30.9886 43.3984 32.0037C41.7962 33.0188 41.7962 33.8906 41.0639 33.8906C40.3379 33.8906 38.8796 33.3115 38.0034 33.8906C37.1271 34.4698 36.1069 35.1984 36.1069 35.1984H51.7602" stroke="#263238" stroke-miterlimit="10" stroke-linecap="round" stroke-linejoin="round"/>
<path d="M66.5934 27.8625C66.4494 27.794 66.2992 27.7255 66.1427 27.657C66.1427 27.657 66.0927 26.9595 65.6045 26.125" stroke="#263238" stroke-miterlimit="10" stroke-linecap="round" stroke-linejoin="round"/>
<path d="M53.7632 35.1985H72.9965C72.9965 35.1985 73.4346 33.8907 71.8323 33.0251C70.2301 32.1532 69.4978 32.8819 68.9157 32.1532C68.3963 31.5056 70.0736 29.9424 67.3573 28.2734" stroke="#263238" stroke-miterlimit="10" stroke-linecap="round" stroke-linejoin="round"/>
<path d="M245.52 71.9973C244.638 71.0881 243.104 70.2474 240.444 70.1789C234.467 70.0356 236.069 74.2393 234.467 75.2544C232.865 76.2695 232.427 74.6752 230.825 75.6903C229.222 76.7054 229.948 78.7356 228.64 79.0283C227.326 79.321 225.58 77.7205 223.971 78.7356C222.369 79.7507 222.369 80.6226 221.637 80.6226C220.911 80.6226 219.452 80.0434 218.576 80.6226C217.7 81.2017 216.68 81.9304 216.68 81.9304H232.339" stroke="#263238" stroke-miterlimit="10" stroke-linecap="round" stroke-linejoin="round"/>
<path d="M247.166 74.5944C247.022 74.5259 246.872 74.4574 246.716 74.3889C246.716 74.3889 246.665 73.6914 246.177 72.8569" stroke="#263238" stroke-miterlimit="10" stroke-linecap="round" stroke-linejoin="round"/>
<path d="M234.336 81.9368H253.569C253.569 81.9368 254.007 80.629 252.405 79.7634C250.803 78.8915 250.071 79.6202 249.488 78.8915C248.969 78.2439 250.646 76.6807 247.93 75.0117" stroke="#263238" stroke-miterlimit="10" stroke-linecap="round" stroke-linejoin="round"/>
<path d="M372.956 7.44834C371.36 5.80425 368.6 4.29094 363.805 4.17262C353.028 3.91106 355.919 11.4963 353.028 13.3272C350.136 15.1581 349.347 12.281 346.456 14.1119C343.564 15.9428 344.879 19.6046 342.513 20.1278C340.147 20.6509 336.993 17.7737 334.101 19.6046C331.209 21.4356 331.209 23.0049 329.895 23.0049C328.581 23.0049 325.952 21.9587 324.375 23.0049C322.798 24.0512 320.958 25.359 320.958 25.359H349.178" stroke="#263238" stroke-miterlimit="10" stroke-linecap="round" stroke-linejoin="round"/>
<path d="M375.922 12.1252C375.666 12.0006 375.39 11.8761 375.109 11.7515C375.109 11.7515 375.021 10.4873 374.139 8.99268" stroke="#263238" stroke-miterlimit="10" stroke-linecap="round" stroke-linejoin="round"/>
<path d="M352.802 25.3526H387.463C387.463 25.3526 388.252 22.9985 385.361 21.4292C382.469 19.8598 381.155 21.1676 380.103 19.8598C379.164 18.6953 382.194 15.8741 377.299 12.8662" stroke="#263238" stroke-miterlimit="10" stroke-linecap="round" stroke-linejoin="round"/>
<path d="M163.83 35.2297H201.959C201.959 35.2297 203.261 31.3499 198.492 28.7655C193.729 26.181 191.563 28.3358 189.83 26.181C188.096 24.0263 194.592 18.4214 181.599 12.8228C181.599 12.8228 180.735 0.759891 162.979 0.323958C155.319 0.13713 151.845 2.36039 149.999 5.18772" stroke="#263238" stroke-miterlimit="10" stroke-linecap="round" stroke-linejoin="round"/>
<path d="M152.195 35.2295H158.542" stroke="#263238" stroke-miterlimit="10" stroke-linecap="round" stroke-linejoin="round"/>
<path d="M147.689 11.1353C147.144 12.9724 146.556 14.5604 145.223 15.4012C140.46 18.4153 139.158 13.6761 134.395 16.6965C129.632 19.7107 131.798 25.7452 127.899 26.6109C123.999 27.4703 118.805 22.7311 114.042 25.7515C109.279 28.7656 109.279 31.3563 107.113 31.3563C104.948 31.3563 100.617 29.6313 98.0191 31.3563C95.4217 33.0814 92.3862 35.2361 92.3862 35.2361H141.086" stroke="#263238" stroke-miterlimit="10" stroke-linecap="round" stroke-linejoin="round"/>
<path d="M246.884 26.1622C251.341 15.9676 261.549 8.84326 273.428 8.84326C289.407 8.84326 302.363 21.7344 302.363 37.6335C302.363 53.5388 289.407 66.4238 273.428 66.4238C257.449 66.4238 244.494 53.5388 244.494 37.6335C244.494 34.0526 245.151 30.6274 246.352 27.4638" stroke="#263238" stroke-miterlimit="10"/>
<path d="M246.559 26.044C251.072 15.7249 261.417 8.49463 273.428 8.49463C289.576 8.49463 302.713 21.5664 302.713 37.6336C302.713 53.7071 289.576 66.7789 273.428 66.7789C257.28 66.7789 244.143 53.7071 244.143 37.6336C244.143 34.0154 244.813 30.5466 246.027 27.3456" stroke="#263238" stroke-width="0.5" stroke-miterlimit="10"/>
<path d="M254.158 28.8962C257.493 21.6224 264.866 16.5718 273.428 16.5718C285.12 16.5718 294.602 26.0004 294.602 37.6336C294.602 49.273 285.12 58.7016 273.428 58.7016C261.737 58.7016 252.255 49.273 252.255 37.6336C252.255 35.0117 252.737 32.502 253.619 30.1916" stroke="#263238" stroke-miterlimit="10"/>
<path d="M253.832 28.7717C257.231 21.3733 264.735 16.2168 273.428 16.2168C285.295 16.2168 294.952 25.826 294.952 37.6336C294.952 49.4473 285.295 59.0503 273.428 59.0503C261.562 59.0503 251.904 49.4473 251.904 37.6336C251.904 34.9681 252.392 32.421 253.294 30.067" stroke="#263238" stroke-width="0.5" stroke-miterlimit="10"/>
<path d="M263.433 32.4086C263.433 32.4023 263.439 32.3899 263.445 32.3837C265.342 28.8277 269.097 26.3989 273.428 26.3989C279.662 26.3989 284.719 31.4308 284.719 37.6335C284.719 43.8425 279.662 48.8682 273.428 48.8682C267.194 48.8682 262.137 43.8425 262.137 37.6335C262.137 36.2323 262.394 34.8934 262.863 33.6603C262.869 33.6416 262.882 33.623 262.888 33.6043" stroke="#263238" stroke-miterlimit="10"/>
<path d="M262.982 32.5208C263.026 32.4336 263.07 32.3464 263.114 32.2592H263.12C265.066 28.5725 268.959 26.0503 273.428 26.0503C279.85 26.0503 285.069 31.2503 285.069 37.6337C285.069 44.0232 279.85 49.2232 273.428 49.2232C267.006 49.2232 261.787 44.0232 261.787 37.6337C261.787 36.1951 262.049 34.8188 262.538 33.5421" stroke="#263238" stroke-width="0.5" stroke-miterlimit="10"/>
<path d="M263.621 32.446C263.589 32.4335 263.558 32.4273 263.527 32.4148L263.445 32.3837L263.12 32.2592H263.114L254.157 28.8963L253.832 28.7717L246.885 26.1623L246.559 26.044L235.368 21.8404L235.919 17.7301C235.938 17.5745 235.857 17.425 235.713 17.3627L226.863 13.4144C226.731 13.3584 226.581 13.3833 226.481 13.4767C226.374 13.5701 226.337 13.7133 226.381 13.8503L228.177 19.1438L226.856 18.6456C226.487 18.5086 226.08 18.6954 225.943 19.0566C225.805 19.4178 225.993 19.8226 226.356 19.9596L227.733 20.4765L223.602 23.6339C223.489 23.7211 223.439 23.8643 223.477 24.0013C223.508 24.1321 223.621 24.238 223.765 24.2567L233.685 25.7762C233.704 25.7824 233.722 25.7824 233.735 25.7824C233.879 25.7824 234.01 25.6953 234.067 25.5582L234.999 23.2042L246.027 27.3456L246.353 27.4639L253.294 30.067L253.619 30.1916L262.538 33.542L262.863 33.6604L263.126 33.76" stroke="#263238" stroke-miterlimit="10"/>
<path d="M263.433 32.4085C263.464 32.4085 263.495 32.4147 263.527 32.4147C263.558 32.4272 263.589 32.4334 263.62 32.4459L269.998 34.8435L270.699 32.751C270.793 32.4645 271.062 32.2715 271.363 32.2715C271.369 32.2715 271.369 32.2715 271.375 32.2715C271.682 32.2777 271.951 32.477 272.039 32.7697L273.315 36.8924C273.415 37.2162 273.265 37.5712 272.959 37.7269L269.767 39.3087C269.666 39.3585 269.56 39.3834 269.454 39.3834C269.285 39.3834 269.122 39.3274 268.991 39.2153C268.778 39.0284 268.696 38.7295 268.784 38.4617L269.548 36.1762L263.126 33.7599C263.032 33.7225 262.951 33.6727 262.888 33.6042" stroke="#263238" stroke-miterlimit="10"/>
<path d="M85.1321 106.473L90.7587 107.75L92.0606 102.07L86.6592 100.844C86.6655 100.682 86.6843 100.526 86.6843 100.364C86.6843 98.583 86.3213 96.8891 85.6641 95.3446L90.0452 91.8696L86.3964 87.3172L82.203 90.6428C80.7509 89.391 79.0235 88.4631 77.1146 87.9525V82.522H71.2626V87.7407C69.2911 88.1206 67.4885 88.9551 65.9489 90.1134L61.7117 86.7505L58.0628 91.3029L62.1998 94.5849C61.3486 96.2601 60.8542 98.1471 60.8229 100.146L55.4341 101.373L56.7359 107.053L62.0559 105.844C62.8695 107.557 64.0337 109.064 65.4795 110.266L63.0072 115.379L68.2834 117.907L70.7181 112.875C71.6944 113.112 72.7084 113.249 73.7536 113.249C74.5923 113.249 75.4122 113.162 76.207 113.012L78.7293 118.225L84.0055 115.696L81.5521 110.627C83.0104 109.506 84.2433 108.099 85.1321 106.473ZM67.9955 100.364C67.9955 97.2067 70.5679 94.6471 73.7411 94.6471C76.9143 94.6471 79.4866 97.2067 79.4866 100.364C79.4866 103.521 76.9143 106.081 73.7411 106.081C70.5679 106.075 67.9955 103.521 67.9955 100.364Z" stroke="#263238" stroke-miterlimit="10" stroke-linecap="round" stroke-linejoin="round"/>
<path d="M426.7 164.471L430.511 165.337L431.394 161.488L427.732 160.654C427.739 160.548 427.751 160.436 427.751 160.33C427.751 159.122 427.507 157.97 427.056 156.93L430.029 154.576L427.557 151.487L424.716 153.741C423.733 152.894 422.563 152.265 421.267 151.916V148.236H417.299V151.773C415.966 152.028 414.745 152.595 413.7 153.38L410.827 151.101L408.355 154.189L411.159 156.413C410.583 157.552 410.245 158.829 410.226 160.18L406.571 161.009L407.454 164.857L411.059 164.042C411.61 165.2 412.398 166.227 413.381 167.037L411.704 170.5L415.277 172.212L416.93 168.799C417.593 168.955 418.275 169.049 418.989 169.049C419.558 169.049 420.115 168.992 420.654 168.887L422.362 172.418L425.936 170.705L424.271 167.274C425.26 166.526 426.099 165.574 426.7 164.471ZM415.083 160.33C415.083 158.194 416.823 156.456 418.976 156.456C421.123 156.456 422.869 158.188 422.869 160.33C422.869 162.466 421.129 164.203 418.976 164.203C416.829 164.203 415.083 162.472 415.083 160.33Z" stroke="#263238" stroke-miterlimit="10" stroke-linecap="round" stroke-linejoin="round"/>
<path d="M95.9158 78.5612L100.529 79.6074L101.599 74.9492L97.1676 73.9403C97.1738 73.8095 97.1863 73.6788 97.1863 73.548C97.1863 72.0845 96.8859 70.6957 96.3477 69.4315L99.9402 66.5793L96.9485 62.8427L93.5124 65.5704C92.3233 64.5428 90.9025 63.7831 89.3378 63.3658V58.9131H84.5373V63.1915C82.9225 63.5028 81.4455 64.1879 80.1812 65.1407L76.7075 62.3819L73.7158 66.1184L77.1081 68.8088C76.4134 70.1851 76.0066 71.7295 75.9753 73.3674L71.5503 74.37L72.6205 79.0283L76.9829 78.0381C77.6464 79.4455 78.604 80.6848 79.7931 81.6626L77.7653 85.8537L82.0901 87.9275L84.0867 83.7986C84.8878 83.9917 85.7202 84.1038 86.5777 84.1038C87.2661 84.1038 87.9421 84.0353 88.593 83.9107L90.6647 88.1891L94.9895 86.1153L92.9804 81.9615C94.1759 81.046 95.1898 79.8939 95.9158 78.5612ZM81.8585 73.548C81.8585 70.9573 83.9678 68.8586 86.5714 68.8586C89.1751 68.8586 91.2843 70.9573 91.2843 73.548C91.2843 76.1387 89.1751 78.2374 86.5714 78.2374C83.9678 78.2374 81.8585 76.1387 81.8585 73.548Z" stroke="#263238" stroke-miterlimit="10" stroke-linecap="round" stroke-linejoin="round"/>
<path d="M401.809 142.924L424.134 98.0536L430.837 101.354L429.241 76.5684L408.462 90.3314L415.165 93.632L392.833 138.502" stroke="#263238" stroke-miterlimit="10" stroke-linecap="round" stroke-linejoin="round"/>
<path d="M390.918 74.7935L404.994 46.5139L409.213 48.5939L408.211 32.9751L395.112 41.6502L399.336 43.7302L385.267 72.0035" stroke="#263238" stroke-miterlimit="10" stroke-linecap="round" stroke-linejoin="round"/>
<path d="M346.349 237.932C346.349 237.932 342.469 240.405 341.693 241.021C340.917 241.638 337.343 242.41 337.812 243.493C338.275 244.577 342.782 245.194 344.027 245.194C345.273 245.194 350.086 242.721 351.325 242.41C352.571 242.098 352.571 240.71 352.101 239.626C351.638 238.542 350.236 236.998 350.236 236.998L346.975 237.926H346.349V237.932Z" fill="white" stroke="#263238" stroke-miterlimit="10" stroke-linecap="round" stroke-linejoin="round"/>
<path d="M390.462 237.503C390.462 237.503 387.507 241.058 387.044 241.831C386.581 242.603 383.94 243.842 383.94 245.075C383.94 246.315 388.446 245.692 389.842 245.536C391.238 245.38 393.103 244.297 393.879 242.752C394.655 241.208 395.275 237.963 394.342 236.724C393.41 235.497 390.462 237.503 390.462 237.503Z" fill="white" stroke="#263238" stroke-miterlimit="10" stroke-linecap="round" stroke-linejoin="round"/>
<path d="M353.184 169.042L353.065 169.976L352.101 177.387C352.101 177.387 343.464 189.519 340.304 195.84C338.689 199.066 336.436 202.896 336.749 203.979C337.062 205.063 346.356 237.932 346.356 237.932C346.356 237.932 347.601 238.549 348.684 238.549C349.773 238.549 350.856 238.088 350.856 238.088L350.412 206.663L363.749 192.072L365.458 194.233C365.458 194.233 369.883 209.846 371.748 212.318C373.613 214.79 389.686 237.963 389.686 237.963C389.686 237.963 390.931 238.58 392.327 238.58C393.723 238.58 394.348 236.724 394.348 236.724C394.348 236.724 382.776 208.295 382.469 207.367C382.156 206.439 382.394 183.714 382.394 183.714L380.529 172.741L378.357 165.785C378.357 165.785 374.32 166.869 367.486 166.557C360.651 166.246 354.129 165.785 354.129 165.785L353.184 169.042Z" fill="#263238" stroke="#263238" stroke-miterlimit="10" stroke-linecap="round" stroke-linejoin="round"/>
<path d="M334.852 94.5539C334.852 94.5539 332.68 97.7985 332.367 99.81C332.054 101.822 333.456 103.522 333.456 103.522L332.211 106.15C332.211 106.15 336.404 114.65 338.889 118.512C341.374 122.373 345.411 128.868 347.895 130.101C350.38 131.34 355.193 136.435 355.193 136.435L357.991 130.406C357.991 130.406 349.761 120.205 344.635 113.1C339.509 105.988 336.091 99.6543 336.091 99.6543C336.091 99.6543 336.091 97.0263 336.404 95.6375C336.717 94.2488 336.717 92.0815 336.717 92.0815L334.852 94.5539Z" fill="#263238" stroke="#263238" stroke-miterlimit="10" stroke-linecap="round" stroke-linejoin="round"/>
<path d="M360.019 128.089C360.019 128.089 353.653 135.662 352.408 140.607C351.162 145.552 352.721 160.853 352.721 163.014C352.721 165.175 351.475 167.498 353.184 169.042C354.893 170.587 360.019 169.814 361.884 169.659C363.749 169.503 372.599 169.659 375.24 168.887C377.881 168.114 379.12 167.031 379.12 165.175C379.12 163.319 375.86 148.641 375.39 146.168C374.927 143.696 376.636 135.195 374.301 131.178C371.979 127.162 364.519 126.539 360.019 128.089Z" fill="white" stroke="#263238" stroke-miterlimit="10" stroke-linecap="round" stroke-linejoin="round"/>
<path d="M358.93 129.167C358.93 129.167 351.163 137.051 350.074 141.224C348.985 145.396 345.104 153.43 343.859 156.986C342.613 160.542 340.128 165.175 340.128 165.175L341.524 170.736L345.098 166.875C345.098 166.875 348.672 154.669 350.537 149.569C352.402 144.468 352.709 139.679 353.022 138.284C353.334 136.889 358.93 129.167 358.93 129.167Z" fill="#263238" stroke="#263238" stroke-miterlimit="10" stroke-linecap="round" stroke-linejoin="round"/>
<path d="M360.019 128.706C360.019 128.706 355.362 141.379 355.512 142.307C355.669 143.235 357.841 177.543 357.841 177.543C357.841 177.543 360.012 182.799 369.801 182.027C379.584 181.254 387.194 179.866 387.194 179.866C387.194 179.866 384.246 168.276 381.605 163.02C378.964 157.764 377.568 154.675 377.568 152.203C377.568 149.73 376.479 133.196 375.86 130.568C375.24 127.94 374.464 126.707 374.464 126.707L373.531 125.935L360.019 128.706Z" fill="#96644D" stroke="#263238" stroke-miterlimit="10" stroke-linecap="round" stroke-linejoin="round"/>
<path d="M356.289 154.98L363.899 173.526C363.899 173.526 360.795 174.765 359.706 175.842C358.617 176.926 357.841 177.543 357.841 177.543L356.289 154.98Z" fill="#96644D" stroke="#263238" stroke-miterlimit="10" stroke-linecap="round" stroke-linejoin="round"/>
<path d="M366.384 103.821C366.384 103.821 361.571 107.682 361.571 108.765C361.571 109.849 360.326 111.393 360.326 111.393C360.326 111.393 357.841 111.705 357.684 112.633C357.528 113.561 358.46 115.416 358.46 115.416C358.46 115.416 356.908 120.673 357.528 121.906C358.148 123.145 362.654 123.294 362.654 123.294L362.81 126.695L373.525 124.995L373.369 122.366C373.369 122.366 379.115 116.182 381.912 113.554C384.71 110.926 381.136 106.293 377.719 102.737C374.301 99.1811 366.228 99.1811 365.602 101.037C364.988 102.899 366.384 103.821 366.384 103.821Z" fill="white" stroke="#263238" stroke-miterlimit="10" stroke-linecap="round" stroke-linejoin="round"/>
<path d="M362.347 109.388C362.347 109.388 363.593 108.771 364.519 109.544" stroke="#263238" stroke-miterlimit="10" stroke-linecap="round" stroke-linejoin="round"/>
<path d="M362.51 111.618C362.391 112.116 362.466 112.558 362.672 112.608C362.879 112.658 363.148 112.29 363.267 111.792C363.386 111.294 363.311 110.852 363.104 110.802C362.898 110.752 362.629 111.119 362.51 111.618Z" fill="#263238"/>
<path d="M377.725 102.743C374.308 99.1874 366.234 99.1874 365.608 101.043C364.988 102.899 366.384 103.827 366.384 103.827C366.384 103.827 371.666 104.444 370.89 105.839C370.114 107.227 367.473 107.227 368.093 108.155C368.712 109.083 370.89 111.088 370.114 111.555C369.338 112.016 368.869 112.944 369.338 113.256C369.801 113.567 370.584 112.795 372.442 113.1C374.308 113.411 373.838 117.733 372.129 118.356C370.421 118.973 369.645 118.2 372.749 120.984C373.118 121.314 373.538 121.557 373.982 121.719C375.534 120.062 379.671 115.672 381.912 113.567C384.71 110.933 381.142 106.299 377.725 102.743Z" fill="#263238" stroke="#263238" stroke-miterlimit="10" stroke-linecap="round" stroke-linejoin="round"/>
<path d="M370.89 118.817L368.093 118.194L366.228 119.589" stroke="#263238" stroke-miterlimit="10" stroke-linecap="round" stroke-linejoin="round"/>
<path d="M374.151 123.139L359.862 127.006L358.93 129.939L375.86 126.85L374.151 123.139Z" fill="#96644D" stroke="#263238" stroke-miterlimit="10" stroke-linecap="round" stroke-linejoin="round"/>
<path d="M338.119 99.1871L337.656 95.9425C337.656 95.9425 339.052 91.4587 339.052 90.3813C339.052 89.3039 337.963 86.8253 337.963 86.2088C337.963 85.5923 337.03 84.6643 336.717 85.8974C336.404 87.1367 335.785 91.77 335.785 91.77C335.785 91.77 333.763 95.1703 333.92 96.8705C334.076 98.5706 335.628 102.127 335.628 102.127L338.426 100.426L338.119 99.1871Z" fill="white" stroke="#263238" stroke-miterlimit="10" stroke-linecap="round" stroke-linejoin="round"/>
<path d="M340.135 101.659L338.119 99.187L334.389 102.126L336.561 105.832L340.135 101.659Z" fill="white" stroke="#263238" stroke-miterlimit="10" stroke-linecap="round" stroke-linejoin="round"/>
<path d="M373.995 133.495C373.995 133.495 372.599 129.478 368.556 127.467C364.519 125.455 360.326 124.378 360.326 124.378L339.202 100.426L335.009 104.599C335.009 104.599 343.865 122.989 345.567 126.078C347.276 129.167 367.004 150.341 367.004 150.341" fill="#96644D"/>
<path d="M373.995 133.495C373.995 133.495 372.599 129.478 368.556 127.467C364.519 125.455 360.326 124.378 360.326 124.378L339.202 100.426L335.009 104.599C335.009 104.599 343.865 122.989 345.567 126.078C347.276 129.167 367.004 150.341 367.004 150.341" stroke="#263238" stroke-miterlimit="10" stroke-linecap="round" stroke-linejoin="round"/>
<path d="M189.842 234.75C189.842 234.75 186.869 238.954 186.243 241.289C185.617 243.624 185.774 246.738 187.339 246.427C188.903 246.115 192.502 242.223 192.815 241.133C193.128 240.043 194.223 235.061 194.223 235.061L190.468 234.75H189.842Z" fill="white" stroke="#263238" stroke-miterlimit="10" stroke-linecap="round" stroke-linejoin="round"/>
<path d="M243.511 237.397C243.511 237.397 243.511 241.756 244.45 242.379C245.389 243.002 251.804 245.648 253.682 245.804C255.559 245.96 256.185 245.648 255.09 243.469C253.995 241.289 247.736 237.085 247.736 237.085L243.511 237.397Z" fill="white" stroke="#263238" stroke-miterlimit="10" stroke-linecap="round" stroke-linejoin="round"/>
<path d="M205.02 163.755L201.421 178.857L199.543 207.193C199.543 207.193 192.658 219.025 192.033 223.385C191.407 227.744 189.373 236.618 189.373 236.618C189.373 236.618 192.189 237.864 192.658 237.864C193.128 237.864 198.761 229.768 201.89 226.654C205.02 223.54 212.061 210.151 212.374 209.528C212.687 208.906 217.694 189.133 218.007 188.51C218.32 187.887 220.197 187.109 220.197 187.109C220.197 187.109 229.623 200.592 230.762 201.725C232.583 203.537 235.531 208.127 235.531 208.127C235.531 208.127 241.946 233.505 242.416 234.75C242.885 235.996 243.042 238.331 243.042 238.331L248.831 239.577C248.831 239.577 249.301 222.606 248.988 218.558C248.675 214.51 247.423 205.792 247.423 205.792C247.423 205.792 237.878 179.791 237.409 179.169C236.939 178.546 234.123 172.318 234.123 172.318L233.184 166.402C233.184 166.402 225.674 168.893 216.285 167.025C206.897 165.157 205.02 163.755 205.02 163.755Z" fill="#263238" stroke="#263238" stroke-miterlimit="10" stroke-linecap="round" stroke-linejoin="round"/>
<path d="M213.863 121.538C213.863 121.538 208.099 125.349 203.298 127.635C198.498 129.921 197.353 132.2 197.353 133.346C197.353 134.492 193.178 153.38 193.491 154.414C193.804 155.454 196.62 157.011 198.392 157.422C200.163 157.839 202.666 157.316 203.192 156.905C203.711 156.488 205.383 149.432 205.383 149.432C205.383 149.432 204.444 162.198 204.024 163.861C203.605 165.524 207.467 169.777 211.222 170.506C214.977 171.235 225.098 171.234 227.701 170.4C230.311 169.572 232.083 169.36 232.915 167.803C233.747 166.246 234.273 155.142 234.373 154.414C234.48 153.685 235.312 147.046 235.312 147.046L238.022 156.182L239.067 158.051C239.067 158.051 239.587 156.911 242.823 155.043C246.059 153.174 247.097 152.969 247.097 152.969C247.097 152.969 245.22 146.847 244.074 143.316C242.929 139.785 241.778 133.352 240.319 130.755C238.861 128.158 236.251 127.018 232.702 124.839C229.154 122.659 223.94 121.414 223.314 121.102C222.688 120.791 217.124 120.318 213.863 121.538Z" fill="white" stroke="#263238" stroke-miterlimit="10" stroke-linecap="round" stroke-linejoin="round"/>
<path d="M205.383 149.432L207.586 141.84" stroke="#263238" stroke-miterlimit="10" stroke-linecap="round" stroke-linejoin="round"/>
<path d="M236.852 139.959L237.227 138.234" stroke="#263238" stroke-miterlimit="10" stroke-linecap="round" stroke-linejoin="round"/>
<path d="M235.325 147.047L236.52 141.51" stroke="#263238" stroke-miterlimit="10" stroke-linecap="round" stroke-linejoin="round"/>
<path d="M216.598 133.551L218.789 136.665L220.04 139.468L216.911 165.312L221.292 169.36L224.735 164.845L221.605 139.779L223.483 136.198L225.98 132.125L221.449 129.503L216.598 133.551Z" fill="#96644D" stroke="#263238" stroke-miterlimit="10" stroke-linecap="round" stroke-linejoin="round"/>
<path d="M215.058 120.423C215.058 120.423 212.88 120.99 212.411 122.304C211.935 123.624 212.599 131.533 213.262 133.227C213.926 134.921 215.121 136.92 215.121 136.92C215.121 136.92 220.929 133.227 221.968 133.04C223.007 132.854 228.972 135.961 228.972 135.961C228.972 135.961 229.159 132.287 227.082 127.112C224.997 121.937 220.172 119.016 218.094 118.829C216.01 118.636 215.058 120.423 215.058 120.423Z" fill="white" stroke="#263238" stroke-miterlimit="10" stroke-linecap="round" stroke-linejoin="round"/>
<path d="M214.208 119.763C214.208 119.763 214.489 123.058 214.777 125.318C215.059 127.579 218.564 135.015 219.79 136.048C221.023 137.082 223.577 133.694 224.428 132.187C225.279 130.68 225.661 130.213 225.661 130.213C225.661 130.213 219.603 127.292 217.712 123.905C215.822 120.517 216.01 118.916 215.159 118.823C214.301 118.729 214.208 119.763 214.208 119.763Z" fill="white" stroke="#263238" stroke-miterlimit="10" stroke-linecap="round" stroke-linejoin="round"/>
<path d="M217.262 127.859L221.912 135.326C221.912 135.326 224.053 133.358 224.428 132.187C224.804 131.023 217.262 127.859 217.262 127.859Z" fill="#263238" stroke="#263238" stroke-miterlimit="10" stroke-linecap="round" stroke-linejoin="round"/>
<path d="M212.386 114.476C212.386 114.476 211.798 115.802 211.942 117.857C212.092 119.919 213.275 121.388 213.863 121.532C214.451 121.681 215.49 121.681 215.49 121.681C215.49 121.681 215.641 125.355 217.262 127.859C218.889 130.356 224.359 133.887 225.98 132.125C227.607 130.362 229.673 123.3 230.411 119.919C231.15 116.537 231.444 113.299 231.444 113.299C231.444 113.299 222.425 111.237 220.504 110.802C218.582 110.359 215.328 109.625 215.328 109.625L212.386 114.476Z" fill="white" stroke="#263238" stroke-miterlimit="10" stroke-linecap="round" stroke-linejoin="round"/>
<path d="M218.739 113.006C218.739 113.006 219.327 114.918 218.15 116.095C216.967 117.272 216.523 117.272 216.523 117.272C216.523 117.272 216.817 119.184 216.373 119.184C215.929 119.184 214.896 118.891 214.896 117.714C214.896 116.537 214.157 115.51 214.157 115.51L212.386 114.482C212.386 114.482 211.647 111.393 212.536 108.012C213.425 104.63 219.778 103.304 225.098 103.453C230.418 103.603 231.751 110.366 231.751 110.366C231.751 110.366 234.561 111.692 235.005 112.128C235.45 112.57 235.894 113.598 233.378 114.924C230.868 116.251 226.431 116.687 223.771 115.659C221.105 114.626 218.739 113.006 218.739 113.006Z" fill="#263238" stroke="#263238" stroke-miterlimit="10" stroke-linecap="round" stroke-linejoin="round"/>
<path d="M222.325 120.859C222.156 121.407 221.793 121.781 221.518 121.694C221.242 121.607 221.161 121.096 221.33 120.554C221.499 120.006 221.862 119.632 222.137 119.72C222.407 119.801 222.494 120.311 222.325 120.859Z" fill="#263238"/>
<path d="M228.471 121.327C228.302 121.875 227.939 122.248 227.664 122.161C227.388 122.074 227.307 121.563 227.476 121.021C227.645 120.473 228.008 120.1 228.283 120.187C228.559 120.274 228.646 120.785 228.471 121.327Z" fill="#263238"/>
<path d="M220.078 119.01C220.078 119.01 221.023 117.596 223.201 118.163" stroke="#263238" stroke-miterlimit="10" stroke-linecap="round" stroke-linejoin="round"/>
<path d="M226.794 118.823C226.794 118.823 228.121 117.502 229.635 119.01" stroke="#263238" stroke-miterlimit="10" stroke-linecap="round" stroke-linejoin="round"/>
<path d="M223.858 125.599C223.858 125.599 222.625 125.599 221.211 126.072C219.79 126.545 217.712 125.979 218.657 127.199C219.602 128.426 221.398 128.8 223.295 128.8C225.191 128.8 226.887 128.706 227.457 127.859C228.027 127.012 228.878 126.165 228.214 126.072C227.551 125.979 224.997 125.792 224.716 125.792C224.428 125.792 223.858 125.599 223.858 125.599Z" fill="#263238" stroke="#263238" stroke-miterlimit="10" stroke-linecap="round" stroke-linejoin="round"/>
<path d="M226.318 120.143C226.318 120.143 226.13 125.318 225.942 126.265C225.755 127.205 224.522 127.865 223.67 126.832C222.819 125.798 222.156 124.291 222.156 124.291" fill="white"/>
<path d="M226.318 120.143C226.318 120.143 226.13 125.318 225.942 126.265C225.755 127.205 224.522 127.865 223.67 126.832C222.819 125.798 222.156 124.291 222.156 124.291" stroke="#263238" stroke-miterlimit="10" stroke-linecap="round" stroke-linejoin="round"/>
<path d="M246.484 150.677C246.484 150.677 241.978 151.412 240.1 152.658C238.223 153.903 237.566 154.987 238.035 156.182C238.504 157.378 238.817 158.312 239.6 159.558C240.382 160.803 241.79 159.869 241.79 159.869C241.79 159.869 240.851 158.935 241.947 157.845C243.042 156.755 247.11 155.198 247.11 155.198C247.11 155.198 247.893 155.198 248.519 155.198C249.144 155.198 248.519 153.486 248.049 152.707C247.58 151.929 247.58 150.366 246.484 150.677Z" fill="white" stroke="#263238" stroke-miterlimit="10" stroke-linecap="round" stroke-linejoin="round"/>
<path d="M193.441 158.15C193.441 158.15 193.441 162.665 193.754 167.18C194.067 171.695 197.822 184.306 197.822 184.306L201.577 183.372C201.577 183.372 201.421 171.54 201.421 167.803C201.421 164.067 201.264 159.552 201.264 159.552L193.441 158.15Z" fill="white" stroke="#263238" stroke-miterlimit="10" stroke-linecap="round" stroke-linejoin="round"/>
<path d="M192.758 155.005C192.852 154.146 193.835 153.735 194.548 154.227C195.293 154.744 196.389 155.255 197.978 155.504C200 155.827 201.521 155.771 202.516 155.647C203.173 155.566 203.699 156.176 203.511 156.805C203.123 158.101 202.528 159.85 202.047 160.33C201.264 161.108 197.509 161.108 195.631 160.486C193.754 159.863 193.284 159.396 192.815 157.839C192.602 157.135 192.646 156.021 192.758 155.005Z" fill="white" stroke="#263238" stroke-miterlimit="10" stroke-linecap="round" stroke-linejoin="round"/>
<path d="M265.73 170.294C265.73 170.294 266.199 168.581 267.608 167.336C269.016 166.09 269.642 165.779 268.233 165.623C266.825 165.468 265.104 167.647 265.104 167.647L265.73 170.294Z" fill="white" stroke="#263238" stroke-miterlimit="10" stroke-linecap="round" stroke-linejoin="round"/>
<path d="M241.79 159.863C241.79 159.863 242.729 160.953 245.076 162.198C247.423 163.444 259.158 169.827 259.158 169.827L263.383 167.336C263.383 167.336 256.811 164.378 253.838 161.264C250.865 158.151 248.518 155.192 248.518 155.192C248.518 155.192 240.695 155.659 241.79 159.863Z" fill="white" stroke="#263238" stroke-miterlimit="10" stroke-linecap="round" stroke-linejoin="round"/>
<path d="M257.124 168.114C257.124 168.114 257.75 171.384 258.845 171.54C259.94 171.695 265.26 171.228 265.73 170.294C266.199 169.36 266.512 166.09 265.73 165.935C264.948 165.779 257.124 168.114 257.124 168.114Z" fill="white" stroke="#263238" stroke-miterlimit="10" stroke-linecap="round" stroke-linejoin="round"/>
<path d="M198.297 188.086C198.297 188.086 197.252 186.648 195.494 185.981C193.735 185.315 193.04 185.24 194.298 184.599C195.562 183.957 197.947 185.39 197.947 185.39L198.297 188.086Z" fill="white" stroke="#263238" stroke-miterlimit="10" stroke-linecap="round" stroke-linejoin="round"/>
<path d="M205.577 183.023C205.577 183.023 206.152 186.299 205.182 186.835C204.212 187.364 199.067 188.796 198.298 188.086C197.528 187.377 196.076 184.431 196.752 184.007C197.428 183.59 205.577 183.023 205.577 183.023Z" fill="white" stroke="#263238" stroke-miterlimit="10" stroke-linecap="round" stroke-linejoin="round"/>
<path d="M47.3662 207.635C47.3912 207.653 47.9045 205.673 47.9232 205.548C48.1298 204.06 47.6541 201.071 46.1332 200.336C45.0379 199.806 43.8112 200.442 43.4169 201.531C43.0101 202.646 43.5233 204.016 44.1367 204.957C44.8502 206.059 47.36 207.635 47.3662 207.635Z" fill="#263238"/>
<path d="M17.3805 206.987C18.5948 207.516 21.5552 207.448 21.5614 207.448C21.5927 207.448 20.923 205.517 20.8667 205.399C20.2158 204.048 18.1566 201.812 16.4855 202.036C15.2776 202.198 14.6079 203.4 14.8833 204.527C15.1587 205.679 16.3478 206.532 17.3805 206.987Z" fill="#263238"/>
<path d="M18.4072 215.525C19.6652 215.706 22.3126 214.946 22.5192 214.884C22.9385 216.36 23.483 217.836 24.1214 219.299C24.4844 220.14 24.8787 220.968 25.2793 221.803C25.0352 221.454 24.8224 221.136 24.7849 221.099C23.796 219.965 21.2236 218.346 19.6652 219.006C18.5448 219.48 18.2194 220.812 18.7827 221.834C19.3585 222.874 20.7292 223.384 21.8432 223.546C22.9761 223.708 25.2418 223.104 25.8426 222.936C25.9991 223.254 26.1555 223.571 26.3183 223.889C27.0818 225.408 27.8579 226.915 28.5652 228.423C28.8155 228.952 29.0409 229.481 29.2724 230.017C29.0596 229.705 28.8719 229.444 28.8406 229.407C27.8517 228.273 25.2793 226.654 23.7209 227.314C22.6005 227.787 22.2751 229.12 22.8384 230.141C23.4142 231.181 24.7849 231.692 25.8989 231.854C26.9754 232.01 29.0784 231.468 29.7856 231.275C30.0047 231.823 30.2238 232.377 30.4115 232.919C30.5304 233.293 30.6681 233.648 30.7683 234.027C30.8747 234.401 30.9811 234.775 31.0812 235.148C31.2565 235.865 31.438 236.606 31.5882 237.309C31.6946 237.801 31.7947 238.268 31.8886 238.735C31.6445 238.206 31.1438 237.172 31.0937 237.091C30.2926 235.821 27.9894 233.834 26.3558 234.252C25.1792 234.551 24.6472 235.821 25.0477 236.911C25.4546 238.026 26.7376 238.742 27.8141 239.066C28.997 239.427 31.6257 239.097 31.9512 239.053C32.1077 239.832 32.2516 240.598 32.3768 241.314C32.6459 242.815 32.8462 244.172 33.0027 245.337H34.1042C33.9165 244.135 33.6724 242.715 33.3532 241.133C33.1967 240.342 33.0152 239.495 32.8149 238.63C33.0152 238.549 34.1293 238.1 35.1244 237.552C35.9881 238.486 38.2037 239.576 38.4916 239.713C38.1912 240.448 37.8908 241.164 37.5966 241.837C37.0208 243.151 36.4763 244.328 35.9819 245.343H37.171C37.5904 244.415 38.041 243.375 38.5167 242.223C38.8234 241.476 39.1426 240.672 39.4555 239.838C39.7747 239.906 42.3721 240.429 43.5863 240.155C44.6878 239.906 46.0147 239.29 46.5092 238.212C46.9911 237.154 46.5592 235.852 45.4076 235.466C43.8054 234.93 41.3644 236.743 40.4694 237.945C40.4193 238.013 39.9312 238.854 39.6307 239.383C39.7559 239.041 39.8874 238.717 40.0125 238.362C40.2691 237.671 40.5007 236.967 40.7573 236.22C40.87 235.852 40.9764 235.485 41.089 235.105C41.208 234.737 41.2893 234.333 41.3895 233.94C41.6085 233.031 41.7838 232.097 41.9402 231.156C42.5536 231.381 44.7317 232.134 45.8582 232.053C46.9786 231.972 48.3931 231.561 49.044 230.571C49.6824 229.6 49.4508 228.242 48.3743 227.688C46.8722 226.915 44.1809 228.335 43.1169 229.394C43.048 229.463 42.3721 230.303 42.0028 230.777C42.0904 230.21 42.1843 229.643 42.2594 229.064C42.466 227.395 42.6224 225.707 42.7914 224.02C42.8415 223.503 42.8978 222.986 42.9542 222.475C43.1732 222.556 45.7393 223.509 47.0036 223.422C48.1302 223.341 49.5384 222.93 50.1893 221.94C50.8277 220.968 50.5962 219.61 49.5196 219.056C48.0175 218.284 45.3262 219.704 44.2623 220.763C44.1809 220.844 43.2045 222.058 42.9729 222.382C43.0919 221.248 43.2233 220.115 43.3985 219.006C43.6364 217.474 43.9556 215.986 44.3749 214.566C44.475 214.603 47.1538 215.612 48.4494 215.519C49.576 215.438 50.9842 215.027 51.6351 214.037C52.2735 213.065 52.0419 211.708 50.9654 211.153C49.4633 210.381 46.772 211.801 45.708 212.86C45.6392 212.928 44.8944 213.856 44.5502 214.305C44.5001 214.28 44.5126 214.286 44.4625 214.261C44.9257 212.748 45.5703 211.334 46.2338 210.045C46.6156 209.298 47.0286 208.606 47.4417 207.94C47.9236 208.177 50.1267 209.242 51.2971 209.291C52.4237 209.335 53.8695 209.08 54.6268 208.164C55.3654 207.267 55.2903 205.897 54.2763 205.225C52.8681 204.297 50.0391 205.412 48.8562 206.346C48.7936 206.395 48.199 206.987 47.7734 207.423C47.9675 207.124 48.1552 206.813 48.343 206.533C49.0502 205.474 49.7637 204.546 50.4021 203.73C50.7714 203.269 51.1094 202.858 51.4286 202.478C52.0232 202.466 54.414 202.397 55.453 201.905C56.4732 201.432 57.6373 200.542 57.8877 199.377C58.1317 198.244 57.4245 197.06 56.2166 196.93C54.5392 196.749 52.5426 199.041 51.9293 200.411C51.8792 200.529 51.2596 202.478 51.2909 202.478C51.2909 202.478 51.3222 202.478 51.3284 202.478C51.0092 202.84 50.6713 203.226 50.3145 203.655C49.6573 204.459 48.9251 205.374 48.1928 206.42C47.4605 207.467 46.6907 208.619 45.9897 209.908C45.2887 211.197 44.6127 212.592 44.1058 214.124C44.0995 214.143 44.0933 214.161 44.0933 214.18C44.0995 213.688 44.0807 212.312 44.0682 212.206C43.8742 210.717 42.6224 207.959 40.9576 207.647C39.7622 207.429 38.7482 208.357 38.6544 209.516C38.5542 210.699 39.4179 211.882 40.2566 212.629C41.2017 213.47 43.8304 214.286 44.0432 214.348C43.5738 215.805 43.2108 217.337 42.9354 218.913C42.7727 219.81 42.6412 220.725 42.516 221.634C42.5098 221.211 42.5035 220.831 42.491 220.775C42.297 219.287 41.0452 216.528 39.3804 216.223C38.185 216.005 37.171 216.933 37.0772 218.091C36.977 219.274 37.8407 220.457 38.6794 221.205C39.5306 221.965 41.7587 222.699 42.3533 222.892C42.3095 223.241 42.2594 223.596 42.2219 223.945C42.0216 225.633 41.8276 227.314 41.5835 228.958C41.4959 229.537 41.3957 230.104 41.2893 230.677C41.2831 230.297 41.2768 229.979 41.2705 229.93C41.0765 228.441 39.8248 225.682 38.1599 225.377C36.9645 225.159 35.9506 226.087 35.8567 227.246C35.7565 228.429 36.6203 229.612 37.4589 230.359C38.2726 231.082 40.3255 231.785 41.0265 232.01C40.9013 232.589 40.7824 233.168 40.6321 233.722C40.5257 234.102 40.4444 234.47 40.3192 234.843C40.2003 235.217 40.0814 235.584 39.9625 235.946C39.7058 236.637 39.4492 237.359 39.1864 238.026C39.0049 238.493 38.8234 238.935 38.6418 239.383C38.7357 238.804 38.8859 237.677 38.8922 237.577C38.9172 236.581 38.5605 234.962 37.8532 233.822C37.8595 233.672 37.847 233.529 37.8282 233.38C37.6404 232.234 36.5577 231.381 35.3873 231.692C33.7537 232.122 32.721 234.974 32.6459 236.475C32.6397 236.562 32.7022 237.527 32.7461 238.138C32.6647 237.783 32.5896 237.44 32.502 237.079C32.333 236.363 32.139 235.647 31.9324 234.881C31.8198 234.513 31.7071 234.146 31.5944 233.772C31.488 233.398 31.3316 233.019 31.2001 232.639C30.8747 231.761 30.5054 230.889 30.1174 230.017C30.7495 229.867 32.9839 229.301 33.8789 228.616C34.7739 227.931 35.719 226.816 35.7127 225.633C35.7065 224.474 34.7614 223.465 33.5534 223.596C31.8761 223.777 30.4178 226.436 30.1111 227.906C30.0923 227.999 29.9922 229.076 29.9484 229.668C29.7105 229.145 29.4727 228.622 29.2098 228.099C28.4588 226.598 27.6514 225.097 26.8565 223.596C26.6124 223.135 26.3746 222.674 26.1305 222.22C26.3558 222.17 29.0283 221.553 30.036 220.781C30.931 220.096 31.8761 218.981 31.8698 217.798C31.8636 216.634 30.9185 215.631 29.7105 215.762C28.0332 215.942 26.5749 218.602 26.2682 220.071C26.2432 220.183 26.1055 221.734 26.0867 222.133C25.561 221.118 25.0415 220.102 24.5721 219.087C23.9212 217.68 23.3641 216.266 22.926 214.853C23.0324 214.828 25.8238 214.199 26.8503 213.414C27.7453 212.729 28.6904 211.614 28.6841 210.431C28.6778 209.273 27.7328 208.264 26.5248 208.395C24.8475 208.575 23.3892 211.234 23.0825 212.704C23.0637 212.804 22.951 213.987 22.9135 214.547C22.8634 214.554 22.8697 214.554 22.8196 214.56C22.369 213.04 22.1186 211.515 21.9621 210.07C21.8683 209.235 21.8245 208.432 21.7994 207.647C22.3314 207.585 24.7598 207.261 25.7675 206.657C26.7314 206.078 27.7954 205.069 27.9205 203.892C28.0394 202.734 27.2195 201.638 25.9991 201.631C24.3092 201.631 22.5693 204.116 22.1061 205.542C22.0811 205.617 21.9121 206.439 21.7994 207.037C21.7932 206.682 21.7806 206.321 21.7806 205.978C21.7806 204.708 21.862 203.543 21.9434 202.516C21.9934 201.93 22.0498 201.401 22.1061 200.909C22.5943 200.573 24.547 199.203 25.1479 198.225C25.7362 197.266 26.2119 195.89 25.7738 194.781C25.3419 193.704 24.1027 193.1 23.0199 193.654C21.5178 194.426 21.1235 197.428 21.3738 198.91C21.3926 199.041 21.9622 201.002 21.9872 200.984C21.9872 200.984 22.0122 200.965 22.0185 200.965C21.9496 201.438 21.887 201.949 21.8245 202.503C21.7243 203.531 21.6179 204.695 21.5866 205.972C21.5553 207.249 21.5553 208.631 21.6868 210.095C21.8182 211.558 22.031 213.09 22.4566 214.641C22.4629 214.66 22.4691 214.678 22.4754 214.691C22.2125 214.273 21.4302 213.14 21.355 213.059C20.3662 211.926 17.7938 210.306 16.2353 210.967C15.115 211.44 14.7896 212.773 15.3529 213.794C15.9162 214.853 17.2931 215.363 18.4072 215.525Z" fill="#263238"/>
<path opacity="0.3" d="M17.3805 206.987C18.5948 207.516 21.5552 207.448 21.5614 207.448C21.5927 207.448 20.923 205.517 20.8667 205.399C20.2158 204.048 18.1566 201.812 16.4855 202.036C15.2776 202.198 14.6079 203.4 14.8833 204.527C15.1587 205.679 16.3478 206.532 17.3805 206.987Z" fill="#263238"/>
<path opacity="0.3" d="M47.3662 207.635C47.3912 207.653 47.9045 205.673 47.9232 205.548C48.1298 204.06 47.6541 201.071 46.1332 200.336C45.0379 199.806 43.8112 200.442 43.4169 201.531C43.0101 202.646 43.5233 204.016 44.1367 204.957C44.8502 206.059 47.36 207.635 47.3662 207.635Z" fill="#263238"/>
<path opacity="0.3" d="M18.4072 215.525C19.6652 215.706 22.3126 214.946 22.5192 214.884C22.9385 216.36 23.483 217.836 24.1214 219.299C24.4844 220.14 24.8787 220.968 25.2793 221.803C25.0352 221.454 24.8224 221.136 24.7849 221.099C23.796 219.965 21.2236 218.346 19.6652 219.006C18.5448 219.48 18.2194 220.812 18.7827 221.834C19.3585 222.874 20.7292 223.384 21.8432 223.546C22.9761 223.708 25.2418 223.104 25.8426 222.936C25.9991 223.254 26.1555 223.571 26.3183 223.889C27.0818 225.408 27.8579 226.915 28.5652 228.423C28.8155 228.952 29.0409 229.481 29.2724 230.017C29.0596 229.705 28.8719 229.444 28.8406 229.407C27.8517 228.273 25.2793 226.654 23.7209 227.314C22.6005 227.787 22.2751 229.12 22.8384 230.141C23.4142 231.181 24.7849 231.692 25.8989 231.854C26.9754 232.01 29.0784 231.468 29.7856 231.275C30.0047 231.823 30.2238 232.377 30.4115 232.919C30.5304 233.293 30.6681 233.648 30.7683 234.027C30.8747 234.401 30.9811 234.775 31.0812 235.148C31.2565 235.865 31.438 236.606 31.5882 237.309C31.6946 237.801 31.7947 238.268 31.8886 238.735C31.6445 238.206 31.1438 237.172 31.0937 237.091C30.2926 235.821 27.9894 233.834 26.3558 234.252C25.1792 234.551 24.6472 235.821 25.0477 236.911C25.4546 238.026 26.7376 238.742 27.8141 239.066C28.997 239.427 31.6257 239.097 31.9512 239.053C32.1077 239.832 32.2516 240.598 32.3768 241.314C32.6459 242.815 32.8462 244.172 33.0027 245.337H34.1042C33.9165 244.135 33.6724 242.715 33.3532 241.133C33.1967 240.342 33.0152 239.495 32.8149 238.63C33.0152 238.549 34.1293 238.1 35.1244 237.552C35.9881 238.486 38.2037 239.576 38.4916 239.713C38.1912 240.448 37.8908 241.164 37.5966 241.837C37.0208 243.151 36.4763 244.328 35.9819 245.343H37.171C37.5904 244.415 38.041 243.375 38.5167 242.223C38.8234 241.476 39.1426 240.672 39.4555 239.838C39.7747 239.906 42.3721 240.429 43.5863 240.155C44.6878 239.906 46.0147 239.29 46.5092 238.212C46.9911 237.154 46.5592 235.852 45.4076 235.466C43.8054 234.93 41.3644 236.743 40.4694 237.945C40.4193 238.013 39.9312 238.854 39.6307 239.383C39.7559 239.041 39.8874 238.717 40.0125 238.362C40.2691 237.671 40.5007 236.967 40.7573 236.22C40.87 235.852 40.9764 235.485 41.089 235.105C41.208 234.737 41.2893 234.333 41.3895 233.94C41.6085 233.031 41.7838 232.097 41.9402 231.156C42.5536 231.381 44.7317 232.134 45.8582 232.053C46.9786 231.972 48.3931 231.561 49.044 230.571C49.6824 229.6 49.4508 228.242 48.3743 227.688C46.8722 226.915 44.1809 228.335 43.1169 229.394C43.048 229.463 42.3721 230.303 42.0028 230.777C42.0904 230.21 42.1843 229.643 42.2594 229.064C42.466 227.395 42.6224 225.707 42.7914 224.02C42.8415 223.503 42.8978 222.986 42.9542 222.475C43.1732 222.556 45.7393 223.509 47.0036 223.422C48.1302 223.341 49.5384 222.93 50.1893 221.94C50.8277 220.968 50.5962 219.61 49.5196 219.056C48.0175 218.284 45.3262 219.704 44.2623 220.763C44.1809 220.844 43.2045 222.058 42.9729 222.382C43.0919 221.248 43.2233 220.115 43.3985 219.006C43.6364 217.474 43.9556 215.986 44.3749 214.566C44.475 214.603 47.1538 215.612 48.4494 215.519C49.576 215.438 50.9842 215.027 51.6351 214.037C52.2735 213.065 52.0419 211.708 50.9654 211.153C49.4633 210.381 46.772 211.801 45.708 212.86C45.6392 212.928 44.8944 213.856 44.5502 214.305C44.5001 214.28 44.5126 214.286 44.4625 214.261C44.9257 212.748 45.5703 211.334 46.2338 210.045C46.6156 209.298 47.0286 208.606 47.4417 207.94C47.9236 208.177 50.1267 209.242 51.2971 209.291C52.4237 209.335 53.8695 209.08 54.6268 208.164C55.3654 207.267 55.2903 205.897 54.2763 205.225C52.8681 204.297 50.0391 205.412 48.8562 206.346C48.7936 206.395 48.199 206.987 47.7734 207.423C47.9675 207.124 48.1552 206.813 48.343 206.533C49.0502 205.474 49.7637 204.546 50.4021 203.73C50.7714 203.269 51.1094 202.858 51.4286 202.478C52.0232 202.466 54.414 202.397 55.453 201.905C56.4732 201.432 57.6373 200.542 57.8877 199.377C58.1317 198.244 57.4245 197.06 56.2166 196.93C54.5392 196.749 52.5426 199.041 51.9293 200.411C51.8792 200.529 51.2596 202.478 51.2909 202.478C51.2909 202.478 51.3222 202.478 51.3284 202.478C51.0092 202.84 50.6713 203.226 50.3145 203.655C49.6573 204.459 48.9251 205.374 48.1928 206.42C47.4605 207.467 46.6907 208.619 45.9897 209.908C45.2887 211.197 44.6127 212.592 44.1058 214.124C44.0995 214.143 44.0933 214.161 44.0933 214.18C44.0995 213.688 44.0807 212.312 44.0682 212.206C43.8742 210.717 42.6224 207.959 40.9576 207.647C39.7622 207.429 38.7482 208.357 38.6544 209.516C38.5542 210.699 39.4179 211.882 40.2566 212.629C41.2017 213.47 43.8304 214.286 44.0432 214.348C43.5738 215.805 43.2108 217.337 42.9354 218.913C42.7727 219.81 42.6412 220.725 42.516 221.634C42.5098 221.211 42.5035 220.831 42.491 220.775C42.297 219.287 41.0452 216.528 39.3804 216.223C38.185 216.005 37.171 216.933 37.0772 218.091C36.977 219.274 37.8407 220.457 38.6794 221.205C39.5306 221.965 41.7587 222.699 42.3533 222.892C42.3095 223.241 42.2594 223.596 42.2219 223.945C42.0216 225.633 41.8276 227.314 41.5835 228.958C41.4959 229.537 41.3957 230.104 41.2893 230.677C41.2831 230.297 41.2768 229.979 41.2705 229.93C41.0765 228.441 39.8248 225.682 38.1599 225.377C36.9645 225.159 35.9506 226.087 35.8567 227.246C35.7565 228.429 36.6203 229.612 37.4589 230.359C38.2726 231.082 40.3255 231.785 41.0265 232.01C40.9013 232.589 40.7824 233.168 40.6321 233.722C40.5257 234.102 40.4444 234.47 40.3192 234.843C40.2003 235.217 40.0814 235.584 39.9625 235.946C39.7058 236.637 39.4492 237.359 39.1864 238.026C39.0049 238.493 38.8234 238.935 38.6418 239.383C38.7357 238.804 38.8859 237.677 38.8922 237.577C38.9172 236.581 38.5605 234.962 37.8532 233.822C37.8595 233.672 37.847 233.529 37.8282 233.38C37.6404 232.234 36.5577 231.381 35.3873 231.692C33.7537 232.122 32.721 234.974 32.6459 236.475C32.6397 236.562 32.7022 237.527 32.7461 238.138C32.6647 237.783 32.5896 237.44 32.502 237.079C32.333 236.363 32.139 235.647 31.9324 234.881C31.8198 234.513 31.7071 234.146 31.5944 233.772C31.488 233.398 31.3316 233.019 31.2001 232.639C30.8747 231.761 30.5054 230.889 30.1174 230.017C30.7495 229.867 32.9839 229.301 33.8789 228.616C34.7739 227.931 35.719 226.816 35.7127 225.633C35.7065 224.474 34.7614 223.465 33.5534 223.596C31.8761 223.777 30.4178 226.436 30.1111 227.906C30.0923 227.999 29.9922 229.076 29.9484 229.668C29.7105 229.145 29.4727 228.622 29.2098 228.099C28.4588 226.598 27.6514 225.097 26.8565 223.596C26.6124 223.135 26.3746 222.674 26.1305 222.22C26.3558 222.17 29.0283 221.553 30.036 220.781C30.931 220.096 31.8761 218.981 31.8698 217.798C31.8636 216.634 30.9185 215.631 29.7105 215.762C28.0332 215.942 26.5749 218.602 26.2682 220.071C26.2432 220.183 26.1055 221.734 26.0867 222.133C25.561 221.118 25.0415 220.102 24.5721 219.087C23.9212 217.68 23.3641 216.266 22.926 214.853C23.0324 214.828 25.8238 214.199 26.8503 213.414C27.7453 212.729 28.6904 211.614 28.6841 210.431C28.6778 209.273 27.7328 208.264 26.5248 208.395C24.8475 208.575 23.3892 211.234 23.0825 212.704C23.0637 212.804 22.951 213.987 22.9135 214.547C22.8634 214.554 22.8697 214.554 22.8196 214.56C22.369 213.04 22.1186 211.515 21.9621 210.07C21.8683 209.235 21.8245 208.432 21.7994 207.647C22.3314 207.585 24.7598 207.261 25.7675 206.657C26.7314 206.078 27.7954 205.069 27.9205 203.892C28.0394 202.734 27.2195 201.638 25.9991 201.631C24.3092 201.631 22.5693 204.116 22.1061 205.542C22.0811 205.617 21.9121 206.439 21.7994 207.037C21.7932 206.682 21.7806 206.321 21.7806 205.978C21.7806 204.708 21.862 203.543 21.9434 202.516C21.9934 201.93 22.0498 201.401 22.1061 200.909C22.5943 200.573 24.547 199.203 25.1479 198.225C25.7362 197.266 26.2119 195.89 25.7738 194.781C25.3419 193.704 24.1027 193.1 23.0199 193.654C21.5178 194.426 21.1235 197.428 21.3738 198.91C21.3926 199.041 21.9622 201.002 21.9872 200.984C21.9872 200.984 22.0122 200.965 22.0185 200.965C21.9496 201.438 21.887 201.949 21.8245 202.503C21.7243 203.531 21.6179 204.695 21.5866 205.972C21.5553 207.249 21.5553 208.631 21.6868 210.095C21.8182 211.558 22.031 213.09 22.4566 214.641C22.4629 214.66 22.4691 214.678 22.4754 214.691C22.2125 214.273 21.4302 213.14 21.355 213.059C20.3662 211.926 17.7938 210.306 16.2353 210.967C15.115 211.44 14.7896 212.773 15.3529 213.794C15.9162 214.853 17.2931 215.363 18.4072 215.525Z" fill="#263238"/>
<path d="M427.445 207.635C427.47 207.653 427.983 205.673 428.002 205.548C428.208 204.06 427.733 201.071 426.212 200.336C425.117 199.806 423.89 200.442 423.496 201.531C423.089 202.646 423.602 204.016 424.215 204.957C424.929 206.059 427.439 207.635 427.445 207.635Z" fill="#263238"/>
<path d="M397.459 206.987C398.673 207.516 401.633 207.448 401.64 207.448C401.671 207.448 401.001 205.517 400.945 205.399C400.294 204.048 398.235 201.812 396.564 202.036C395.356 202.198 394.686 203.4 394.961 204.527C395.237 205.679 396.426 206.532 397.459 206.987Z" fill="#263238"/>
<path d="M398.485 215.525C399.743 215.706 402.384 214.946 402.597 214.884C403.016 216.36 403.561 217.836 404.199 219.299C404.562 220.14 404.957 220.968 405.357 221.803C405.113 221.454 404.9 221.136 404.863 221.099C403.874 219.965 401.301 218.346 399.743 219.006C398.623 219.48 398.297 220.812 398.861 221.834C399.436 222.874 400.807 223.384 401.921 223.546C403.054 223.708 405.32 223.104 405.92 222.936C406.077 223.254 406.233 223.571 406.396 223.889C407.16 225.408 407.936 226.915 408.643 228.423C408.893 228.952 409.119 229.481 409.35 230.017C409.137 229.705 408.95 229.444 408.918 229.407C407.929 228.273 405.357 226.654 403.799 227.314C402.678 227.787 402.353 229.12 402.916 230.141C403.492 231.181 404.863 231.692 405.977 231.854C407.053 232.01 409.156 231.468 409.863 231.275C410.083 231.823 410.302 232.377 410.489 232.919C410.608 233.293 410.746 233.648 410.846 234.027C410.952 234.401 411.059 234.775 411.159 235.148C411.334 235.865 411.516 236.606 411.666 237.309C411.772 237.801 411.873 238.268 411.966 238.735C411.722 238.206 411.228 237.172 411.172 237.091C410.37 235.821 408.067 233.834 406.434 234.252C405.257 234.551 404.725 235.821 405.126 236.911C405.532 238.026 406.815 238.742 407.892 239.066C409.075 239.427 411.704 239.097 412.029 239.053C412.185 239.832 412.329 240.598 412.455 241.314C412.724 242.815 412.924 244.172 413.08 245.337H414.182C413.994 244.135 413.75 242.715 413.431 241.133C413.275 240.342 413.093 239.495 412.893 238.63C413.093 238.549 414.207 238.1 415.202 237.552C416.066 238.486 418.282 239.576 418.569 239.713C418.269 240.448 417.969 241.164 417.674 241.837C417.099 243.151 416.554 244.328 416.06 245.343H417.249C417.668 244.415 418.119 243.375 418.594 242.223C418.901 241.476 419.22 240.672 419.533 239.838C419.853 239.906 422.45 240.429 423.664 240.155C424.766 239.906 426.093 239.29 426.587 238.212C427.069 237.154 426.637 235.852 425.485 235.466C423.883 234.93 421.442 236.743 420.547 237.945C420.497 238.013 420.009 238.854 419.709 239.383C419.834 239.041 419.965 238.717 420.09 238.362C420.347 237.671 420.579 236.967 420.835 236.22C420.948 235.852 421.054 235.485 421.167 235.105C421.286 234.737 421.367 234.333 421.467 233.94C421.686 233.031 421.862 232.097 422.018 231.156C422.631 231.381 424.809 232.134 425.936 232.053C427.056 231.972 428.471 231.561 429.122 230.571C429.76 229.6 429.529 228.242 428.452 227.688C426.95 226.915 424.259 228.335 423.195 229.394C423.126 229.463 422.45 230.303 422.081 230.777C422.168 230.21 422.262 229.643 422.337 229.064C422.544 227.395 422.707 225.707 422.869 224.02C422.919 223.503 422.976 222.986 423.032 222.475C423.251 222.556 425.817 223.509 427.081 223.422C428.208 223.341 429.616 222.93 430.267 221.94C430.906 220.968 430.674 219.61 429.597 219.056C428.095 218.284 425.404 219.704 424.34 220.763C424.259 220.844 423.282 222.058 423.044 222.382C423.163 221.248 423.295 220.115 423.47 219.006C423.708 217.474 424.027 215.986 424.446 214.566C424.547 214.603 427.225 215.612 428.521 215.519C429.648 215.438 431.056 215.027 431.707 214.037C432.345 213.065 432.113 211.708 431.037 211.153C429.535 210.381 426.844 211.801 425.78 212.86C425.711 212.928 424.966 213.856 424.622 214.305C424.572 214.28 424.584 214.286 424.534 214.261C424.997 212.748 425.642 211.334 426.305 210.045C426.687 209.298 427.1 208.606 427.513 207.94C427.995 208.177 430.198 209.242 431.369 209.291C432.495 209.335 433.941 209.08 434.698 208.164C435.437 207.267 435.362 205.897 434.348 205.225C432.94 204.297 430.111 205.412 428.934 206.346C428.871 206.395 428.277 206.987 427.851 207.423C428.045 207.124 428.233 206.813 428.421 206.533C429.128 205.474 429.842 204.546 430.48 203.73C430.849 203.269 431.187 202.858 431.506 202.478C432.101 202.466 434.492 202.397 435.531 201.905C436.551 201.432 437.715 200.542 437.965 199.377C438.21 198.244 437.502 197.06 436.294 196.93C434.617 196.749 432.62 199.041 432.007 200.411C431.957 200.529 431.337 202.478 431.369 202.478C431.369 202.478 431.4 202.478 431.406 202.478C431.087 202.84 430.749 203.226 430.392 203.655C429.735 204.459 429.003 205.374 428.271 206.42C427.538 207.467 426.768 208.619 426.067 209.908C425.367 211.197 424.691 212.592 424.184 214.124C424.177 214.143 424.171 214.161 424.171 214.18C424.177 213.688 424.159 212.312 424.146 212.206C423.952 210.717 422.7 207.959 421.035 207.647C419.84 207.429 418.826 208.357 418.732 209.516C418.632 210.699 419.496 211.882 420.334 212.629C421.28 213.47 423.908 214.286 424.121 214.348C423.652 215.805 423.289 217.337 423.013 218.913C422.85 219.81 422.719 220.725 422.594 221.634C422.588 221.211 422.581 220.831 422.569 220.775C422.375 219.287 421.123 216.528 419.458 216.223C418.263 216.005 417.249 216.933 417.155 218.091C417.055 219.274 417.919 220.457 418.757 221.205C419.608 221.965 421.837 222.699 422.431 222.892C422.387 223.241 422.337 223.596 422.3 223.945C422.099 225.633 421.905 227.314 421.661 228.958C421.574 229.537 421.474 230.104 421.367 230.677C421.361 230.297 421.355 229.979 421.348 229.93C421.154 228.441 419.903 225.682 418.238 225.377C417.042 225.159 416.028 226.087 415.935 227.246C415.834 228.429 416.698 229.612 417.537 230.359C418.35 231.082 420.403 231.785 421.104 232.01C420.979 232.589 420.86 233.168 420.71 233.722C420.604 234.102 420.522 234.47 420.397 234.843C420.278 235.217 420.159 235.584 420.04 235.946C419.784 236.637 419.527 237.359 419.264 238.026C419.083 238.493 418.901 238.935 418.72 239.383C418.814 238.804 418.964 237.677 418.97 237.577C418.995 236.581 418.638 234.962 417.931 233.822C417.937 233.672 417.925 233.529 417.906 233.38C417.718 232.234 416.635 231.381 415.465 231.692C413.832 232.122 412.799 234.974 412.724 236.475C412.717 236.562 412.78 237.527 412.824 238.138C412.743 237.783 412.667 237.44 412.58 237.079C412.411 236.363 412.217 235.647 412.01 234.881C411.898 234.513 411.785 234.146 411.672 233.772C411.566 233.398 411.409 233.019 411.278 232.639C410.952 231.761 410.583 230.889 410.195 230.017C410.827 229.867 413.062 229.301 413.963 228.616C414.858 227.931 415.803 226.816 415.797 225.633C415.791 224.474 414.845 223.465 413.638 223.596C411.96 223.777 410.502 226.436 410.195 227.906C410.176 227.999 410.076 229.076 410.032 229.668C409.795 229.145 409.557 228.622 409.294 228.099C408.543 226.598 407.735 225.097 406.941 223.596C406.697 223.135 406.459 222.674 406.215 222.22C406.44 222.17 409.112 221.553 410.12 220.781C411.015 220.096 411.96 218.981 411.954 217.798C411.948 216.634 411.003 215.631 409.795 215.762C408.117 215.942 406.659 218.602 406.352 220.071C406.327 220.183 406.19 221.734 406.171 222.133C405.645 221.118 405.126 220.102 404.656 219.087C404.005 217.68 403.448 216.266 403.01 214.853C403.116 214.828 405.908 214.199 406.934 213.414C407.829 212.729 408.774 211.614 408.768 210.431C408.762 209.273 407.817 208.264 406.609 208.395C404.932 208.575 403.473 211.234 403.167 212.704C403.148 212.804 403.035 213.987 402.998 214.547C402.948 214.554 402.954 214.554 402.904 214.56C402.453 213.04 402.203 211.515 402.046 210.07C401.952 209.235 401.909 208.432 401.883 207.647C402.415 207.585 404.844 207.261 405.852 206.657C406.815 206.078 407.879 205.069 408.005 203.892C408.124 202.734 407.304 201.638 406.083 201.631C404.393 201.631 402.653 204.116 402.19 205.542C402.165 205.617 401.996 206.439 401.883 207.037C401.877 206.682 401.865 206.321 401.865 205.978C401.865 204.708 401.946 203.543 402.027 202.516C402.078 201.93 402.134 201.401 402.196 200.909C402.685 200.573 404.637 199.203 405.238 198.225C405.827 197.266 406.302 195.89 405.864 194.781C405.432 193.704 404.193 193.1 403.11 193.654C401.608 194.426 401.214 197.428 401.464 198.91C401.483 199.041 402.052 201.002 402.078 200.984C402.078 200.984 402.103 200.965 402.109 200.965C402.04 201.438 401.977 201.949 401.915 202.503C401.815 203.531 401.708 204.695 401.677 205.972C401.646 207.249 401.646 208.631 401.777 210.095C401.909 211.558 402.121 213.09 402.547 214.641C402.553 214.66 402.559 214.678 402.566 214.691C402.303 214.273 401.52 213.14 401.445 213.059C400.456 211.926 397.884 210.306 396.326 210.967C395.205 211.44 394.88 212.773 395.437 213.794C395.994 214.853 397.371 215.363 398.485 215.525Z" fill="#263238"/>
<path opacity="0.3" d="M397.459 206.987C398.673 207.516 401.633 207.448 401.64 207.448C401.671 207.448 401.001 205.517 400.945 205.399C400.294 204.048 398.235 201.812 396.564 202.036C395.356 202.198 394.686 203.4 394.961 204.527C395.237 205.679 396.426 206.532 397.459 206.987Z" fill="#263238"/>
<path opacity="0.3" d="M427.445 207.635C427.47 207.653 427.983 205.673 428.002 205.548C428.208 204.06 427.733 201.071 426.212 200.336C425.117 199.806 423.89 200.442 423.496 201.531C423.089 202.646 423.602 204.016 424.215 204.957C424.929 206.059 427.439 207.635 427.445 207.635Z" fill="#263238"/>
<path opacity="0.3" d="M398.485 215.525C399.743 215.706 402.384 214.946 402.597 214.884C403.016 216.36 403.561 217.836 404.199 219.299C404.562 220.14 404.957 220.968 405.357 221.803C405.113 221.454 404.9 221.136 404.863 221.099C403.874 219.965 401.301 218.346 399.743 219.006C398.623 219.48 398.297 220.812 398.861 221.834C399.436 222.874 400.807 223.384 401.921 223.546C403.054 223.708 405.32 223.104 405.92 222.936C406.077 223.254 406.233 223.571 406.396 223.889C407.16 225.408 407.936 226.915 408.643 228.423C408.893 228.952 409.119 229.481 409.35 230.017C409.137 229.705 408.95 229.444 408.918 229.407C407.929 228.273 405.357 226.654 403.799 227.314C402.678 227.787 402.353 229.12 402.916 230.141C403.492 231.181 404.863 231.692 405.977 231.854C407.053 232.01 409.156 231.468 409.863 231.275C410.083 231.823 410.302 232.377 410.489 232.919C410.608 233.293 410.746 233.648 410.846 234.027C410.952 234.401 411.059 234.775 411.159 235.148C411.334 235.865 411.516 236.606 411.666 237.309C411.772 237.801 411.873 238.268 411.966 238.735C411.722 238.206 411.228 237.172 411.172 237.091C410.37 235.821 408.067 233.834 406.434 234.252C405.257 234.551 404.725 235.821 405.126 236.911C405.532 238.026 406.815 238.742 407.892 239.066C409.075 239.427 411.704 239.097 412.029 239.053C412.185 239.832 412.329 240.598 412.455 241.314C412.724 242.815 412.924 244.172 413.08 245.337H414.182C413.994 244.135 413.75 242.715 413.431 241.133C413.275 240.342 413.093 239.495 412.893 238.63C413.093 238.549 414.207 238.1 415.202 237.552C416.066 238.486 418.282 239.576 418.569 239.713C418.269 240.448 417.969 241.164 417.674 241.837C417.099 243.151 416.554 244.328 416.06 245.343H417.249C417.668 244.415 418.119 243.375 418.594 242.223C418.901 241.476 419.22 240.672 419.533 239.838C419.853 239.906 422.45 240.429 423.664 240.155C424.766 239.906 426.093 239.29 426.587 238.212C427.069 237.154 426.637 235.852 425.485 235.466C423.883 234.93 421.442 236.743 420.547 237.945C420.497 238.013 420.009 238.854 419.709 239.383C419.834 239.041 419.965 238.717 420.09 238.362C420.347 237.671 420.579 236.967 420.835 236.22C420.948 235.852 421.054 235.485 421.167 235.105C421.286 234.737 421.367 234.333 421.467 233.94C421.686 233.031 421.862 232.097 422.018 231.156C422.631 231.381 424.809 232.134 425.936 232.053C427.056 231.972 428.471 231.561 429.122 230.571C429.76 229.6 429.529 228.242 428.452 227.688C426.95 226.915 424.259 228.335 423.195 229.394C423.126 229.463 422.45 230.303 422.081 230.777C422.168 230.21 422.262 229.643 422.337 229.064C422.544 227.395 422.707 225.707 422.869 224.02C422.919 223.503 422.976 222.986 423.032 222.475C423.251 222.556 425.817 223.509 427.081 223.422C428.208 223.341 429.616 222.93 430.267 221.94C430.906 220.968 430.674 219.61 429.597 219.056C428.095 218.284 425.404 219.704 424.34 220.763C424.259 220.844 423.282 222.058 423.044 222.382C423.163 221.248 423.295 220.115 423.47 219.006C423.708 217.474 424.027 215.986 424.446 214.566C424.547 214.603 427.225 215.612 428.521 215.519C429.648 215.438 431.056 215.027 431.707 214.037C432.345 213.065 432.113 211.708 431.037 211.153C429.535 210.381 426.844 211.801 425.78 212.86C425.711 212.928 424.966 213.856 424.622 214.305C424.572 214.28 424.584 214.286 424.534 214.261C424.997 212.748 425.642 211.334 426.305 210.045C426.687 209.298 427.1 208.606 427.513 207.94C427.995 208.177 430.198 209.242 431.369 209.291C432.495 209.335 433.941 209.08 434.698 208.164C435.437 207.267 435.362 205.897 434.348 205.225C432.94 204.297 430.111 205.412 428.934 206.346C428.871 206.395 428.277 206.987 427.851 207.423C428.045 207.124 428.233 206.813 428.421 206.533C429.128 205.474 429.842 204.546 430.48 203.73C430.849 203.269 431.187 202.858 431.506 202.478C432.101 202.466 434.492 202.397 435.531 201.905C436.551 201.432 437.715 200.542 437.965 199.377C438.21 198.244 437.502 197.06 436.294 196.93C434.617 196.749 432.62 199.041 432.007 200.411C431.957 200.529 431.337 202.478 431.369 202.478C431.369 202.478 431.4 202.478 431.406 202.478C431.087 202.84 430.749 203.226 430.392 203.655C429.735 204.459 429.003 205.374 428.271 206.42C427.538 207.467 426.768 208.619 426.067 209.908C425.367 211.197 424.691 212.592 424.184 214.124C424.177 214.143 424.171 214.161 424.171 214.18C424.177 213.688 424.159 212.312 424.146 212.206C423.952 210.717 422.7 207.959 421.035 207.647C419.84 207.429 418.826 208.357 418.732 209.516C418.632 210.699 419.496 211.882 420.334 212.629C421.28 213.47 423.908 214.286 424.121 214.348C423.652 215.805 423.289 217.337 423.013 218.913C422.85 219.81 422.719 220.725 422.594 221.634C422.588 221.211 422.581 220.831 422.569 220.775C422.375 219.287 421.123 216.528 419.458 216.223C418.263 216.005 417.249 216.933 417.155 218.091C417.055 219.274 417.919 220.457 418.757 221.205C419.608 221.965 421.837 222.699 422.431 222.892C422.387 223.241 422.337 223.596 422.3 223.945C422.099 225.633 421.905 227.314 421.661 228.958C421.574 229.537 421.474 230.104 421.367 230.677C421.361 230.297 421.355 229.979 421.348 229.93C421.154 228.441 419.903 225.682 418.238 225.377C417.042 225.159 416.028 226.087 415.935 227.246C415.834 228.429 416.698 229.612 417.537 230.359C418.35 231.082 420.403 231.785 421.104 232.01C420.979 232.589 420.86 233.168 420.71 233.722C420.604 234.102 420.522 234.47 420.397 234.843C420.278 235.217 420.159 235.584 420.04 235.946C419.784 236.637 419.527 237.359 419.264 238.026C419.083 238.493 418.901 238.935 418.72 239.383C418.814 238.804 418.964 237.677 418.97 237.577C418.995 236.581 418.638 234.962 417.931 233.822C417.937 233.672 417.925 233.529 417.906 233.38C417.718 232.234 416.635 231.381 415.465 231.692C413.832 232.122 412.799 234.974 412.724 236.475C412.717 236.562 412.78 237.527 412.824 238.138C412.743 237.783 412.667 237.44 412.58 237.079C412.411 236.363 412.217 235.647 412.01 234.881C411.898 234.513 411.785 234.146 411.672 233.772C411.566 233.398 411.409 233.019 411.278 232.639C410.952 231.761 410.583 230.889 410.195 230.017C410.827 229.867 413.062 229.301 413.963 228.616C414.858 227.931 415.803 226.816 415.797 225.633C415.791 224.474 414.845 223.465 413.638 223.596C411.96 223.777 410.502 226.436 410.195 227.906C410.176 227.999 410.076 229.076 410.032 229.668C409.795 229.145 409.557 228.622 409.294 228.099C408.543 226.598 407.735 225.097 406.941 223.596C406.697 223.135 406.459 222.674 406.215 222.22C406.44 222.17 409.112 221.553 410.12 220.781C411.015 220.096 411.96 218.981 411.954 217.798C411.948 216.634 411.003 215.631 409.795 215.762C408.117 215.942 406.659 218.602 406.352 220.071C406.327 220.183 406.19 221.734 406.171 222.133C405.645 221.118 405.126 220.102 404.656 219.087C404.005 217.68 403.448 216.266 403.01 214.853C403.116 214.828 405.908 214.199 406.934 213.414C407.829 212.729 408.774 211.614 408.768 210.431C408.762 209.273 407.817 208.264 406.609 208.395C404.932 208.575 403.473 211.234 403.167 212.704C403.148 212.804 403.035 213.987 402.998 214.547C402.948 214.554 402.954 214.554 402.904 214.56C402.453 213.04 402.203 211.515 402.046 210.07C401.952 209.235 401.909 208.432 401.883 207.647C402.415 207.585 404.844 207.261 405.852 206.657C406.815 206.078 407.879 205.069 408.005 203.892C408.124 202.734 407.304 201.638 406.083 201.631C404.393 201.631 402.653 204.116 402.19 205.542C402.165 205.617 401.996 206.439 401.883 207.037C401.877 206.682 401.865 206.321 401.865 205.978C401.865 204.708 401.946 203.543 402.027 202.516C402.078 201.93 402.134 201.401 402.196 200.909C402.685 200.573 404.637 199.203 405.238 198.225C405.827 197.266 406.302 195.89 405.864 194.781C405.432 193.704 404.193 193.1 403.11 193.654C401.608 194.426 401.214 197.428 401.464 198.91C401.483 199.041 402.052 201.002 402.078 200.984C402.078 200.984 402.103 200.965 402.109 200.965C402.04 201.438 401.977 201.949 401.915 202.503C401.815 203.531 401.708 204.695 401.677 205.972C401.646 207.249 401.646 208.631 401.777 210.095C401.909 211.558 402.121 213.09 402.547 214.641C402.553 214.66 402.559 214.678 402.566 214.691C402.303 214.273 401.52 213.14 401.445 213.059C400.456 211.926 397.884 210.306 396.326 210.967C395.205 211.44 394.88 212.773 395.437 213.794C395.994 214.853 397.371 215.363 398.485 215.525Z" fill="#263238"/>
<path d="M101.124 189.288C101.124 189.288 101.906 189.132 108.321 187.264C114.736 185.396 119.274 180.725 119.274 180.725L117.24 167.958L104.253 169.827L101.124 189.288Z" fill="#96644D" stroke="#263238" stroke-miterlimit="10" stroke-linecap="round" stroke-linejoin="round"/>
<path d="M69.2034 232.57C69.2034 232.57 67.0129 236.93 66.6999 240.978C66.387 245.026 68.734 246.427 69.5164 245.337C70.2987 244.247 71.5505 240.355 71.707 238.642C71.8634 236.93 72.1764 233.504 72.1764 233.504L69.2034 232.57Z" fill="white" stroke="#263238" stroke-miterlimit="10" stroke-linecap="round" stroke-linejoin="round"/>
<path d="M126.797 235.366C126.797 235.366 126.165 240.971 126.002 243.618C125.84 246.265 129.126 248.762 129.595 248.918C130.064 249.073 130.534 248.918 131.316 247.049C132.098 245.181 132.105 240.666 131.642 239.265C131.172 237.863 130.24 235.684 130.24 235.684L126.797 235.366Z" fill="white" stroke="#263238" stroke-miterlimit="10" stroke-linecap="round" stroke-linejoin="round"/>
<path d="M104.879 153.324C104.879 153.324 98.5638 160.816 96.3732 167.043C94.1827 173.271 92.4365 180.981 90.9531 185.085C89.0504 190.353 87.8237 195.827 87.8237 195.827C87.8237 195.827 83.7555 199.875 82.6602 203.456C81.5649 207.037 68.7344 233.504 68.7344 233.504C68.7344 233.504 69.5167 234.594 70.1426 234.75C70.7685 234.905 72.1767 234.127 72.1767 234.127C72.1767 234.127 94.8649 204.546 96.2731 202.366C97.6813 200.187 102.125 195.136 102.594 194.357C103.064 193.579 106.6 182.749 107.852 181.192C109.104 179.635 110.28 177.244 110.28 177.244L111.219 177.867L112.314 178.022C112.314 178.022 117.24 187.887 118.492 191.935C119.744 195.983 123.342 218.091 124.281 222.139C125.22 226.187 126.472 236.774 126.472 236.774C126.472 236.774 127.411 237.085 128.193 237.241C128.975 237.397 131.009 236.774 131.009 236.774C131.009 236.774 134.608 220.582 134.765 214.977C134.921 209.372 133.826 196.917 133.826 195.049C133.826 193.18 131.009 167.492 129.601 164.066C128.193 160.641 123.499 154.569 123.499 154.569L104.879 153.324Z" fill="#263238" stroke="#263238" stroke-miterlimit="10" stroke-linecap="round" stroke-linejoin="round"/>
<path d="M114.111 123.898L104.723 126.857C104.723 126.857 104.723 144.917 104.879 147.252C105.035 149.587 103.784 153.48 104.566 154.414C105.348 155.348 109.104 159.084 115.988 159.24C122.873 159.396 124.751 157.216 124.751 157.216L126.159 151.144C126.159 151.144 130.697 139 130.697 137.132C130.697 135.264 126.159 129.815 123.499 127.635C120.839 125.455 114.111 123.898 114.111 123.898Z" fill="white" stroke="#263238" stroke-miterlimit="10" stroke-linecap="round" stroke-linejoin="round"/>
<path d="M89.8579 145.228C89.8579 145.228 87.6674 146.785 83.5991 148.809C79.5309 150.833 71.0815 155.037 71.0815 155.037L72.4898 157.995C72.4898 157.995 77.6533 157.06 81.7215 156.905C85.7897 156.749 92.6744 154.102 93.1438 153.324C93.6132 152.545 95.1779 148.342 95.1779 148.342L89.8579 145.228Z" fill="white" stroke="#263238" stroke-miterlimit="10" stroke-linecap="round" stroke-linejoin="round"/>
<path d="M112.859 124.054C112.859 124.054 106.131 142.426 105.818 145.072C105.505 147.719 102.845 154.414 102.688 155.348C102.532 156.282 98.1508 165.779 98.1508 165.779C98.1508 165.779 102.845 151.144 103.314 148.186C103.784 145.228 102.688 142.581 102.688 142.581C102.688 142.581 99.5152 149.276 99.0458 149.743C98.5764 150.21 95.3907 155.56 95.3907 155.56L89.8579 145.228C89.8579 145.228 95.9602 134.641 97.212 132.929C98.4638 131.216 101.124 126.545 103.001 125.611C104.879 124.677 112.859 124.054 112.859 124.054Z" fill="#96644D" stroke="#263238" stroke-miterlimit="10" stroke-linecap="round" stroke-linejoin="round"/>
<path d="M122.091 126.389C122.091 126.389 117.24 146.629 117.24 149.898C117.24 153.168 116.771 163.288 116.301 168.893C115.832 174.497 114.893 192.402 114.893 192.402C114.893 192.402 119.587 193.18 123.968 192.713C128.349 192.246 135.86 189.288 135.86 189.288C135.86 189.288 131.948 169.671 130.384 165C128.819 160.33 127.098 153.168 127.098 152.701C127.098 152.234 131.322 138.533 131.322 136.665C131.322 134.796 123.812 126.856 122.091 126.389Z" fill="#96644D" stroke="#263238" stroke-miterlimit="10" stroke-linecap="round" stroke-linejoin="round"/>
<path d="M66.9129 156.207C66.9129 156.207 67.107 154.445 66.2558 152.769C65.4046 151.094 64.9414 150.577 66.3058 150.945C67.6703 151.312 68.4714 153.971 68.4714 153.971L66.9129 156.207Z" fill="white" stroke="#263238" stroke-miterlimit="10" stroke-linecap="round" stroke-linejoin="round"/>
<path d="M75.7189 157.328C75.7189 157.328 73.9289 160.143 72.8524 159.887C71.7759 159.632 67.0004 157.253 66.9065 156.213C66.8127 155.173 67.7327 152.016 68.5151 152.159C69.3037 152.296 75.7189 157.328 75.7189 157.328Z" fill="white" stroke="#263238" stroke-miterlimit="10" stroke-linecap="round" stroke-linejoin="round"/>
<path d="M128.681 107.289C128.681 107.289 129.601 110.142 129.601 110.995C129.601 111.848 129.175 113.262 129.175 113.262C129.175 113.262 131.735 115.528 131.879 116.089C132.023 116.656 130.458 117.503 130.458 117.503C130.458 117.503 130.602 123.444 130.602 123.867C130.602 124.291 123.636 124.577 123.636 124.577L116.382 133.065L112.971 124.714L114.536 120.044C114.536 120.044 109.842 117.353 111.551 113.249C113.259 109.145 117.096 106.885 120.939 106.318C124.775 105.751 128.418 106.598 128.418 106.598L128.681 107.289Z" fill="white" stroke="#263238" stroke-miterlimit="10" stroke-linecap="round" stroke-linejoin="round"/>
<path d="M123.624 124.577L120.056 123.898L119.85 128.675L123.624 124.577Z" fill="#263238" stroke="#263238" stroke-miterlimit="10" stroke-linecap="round" stroke-linejoin="round"/>
<path d="M127.711 113.804C127.711 114.296 127.523 114.694 127.298 114.694C127.066 114.694 126.885 114.296 126.885 113.804C126.885 113.312 127.073 112.913 127.298 112.913C127.529 112.913 127.711 113.312 127.711 113.804Z" fill="#263238"/>
<path d="M126.334 112.365C126.334 112.365 126.747 111.543 128.262 111.954" stroke="#263238" stroke-miterlimit="10" stroke-linecap="round" stroke-linejoin="round"/>
<path d="M129.783 118.947C129.783 118.947 127.993 119.221 127.298 118.262" stroke="#263238" stroke-miterlimit="10" stroke-linecap="round" stroke-linejoin="round"/>
<path d="M129.025 109.008C129.025 109.008 124.331 107.875 123.48 109.575C122.629 111.275 123.336 112.122 122.629 113.679C121.915 115.236 119.218 117.216 119.218 117.216C119.218 117.216 116.658 114.389 115.807 115.802C114.955 117.216 115.237 119.34 116.088 120.05C116.939 120.76 119.362 120.33 119.362 120.33L115.663 122.03C115.663 122.03 115.807 124.154 112.389 125.001C108.978 125.848 104.854 123.587 105.423 120.753C105.993 117.926 110.687 116.226 110.687 116.226C110.687 116.226 105.711 110.141 109.836 105.614C113.96 101.087 122.065 103.21 122.065 103.21C122.065 103.21 123.204 101.94 126.472 101.653C129.745 101.373 131.166 104.624 131.166 106.467C131.159 108.304 129.025 109.008 129.025 109.008Z" fill="#263238" stroke="#263238" stroke-miterlimit="10" stroke-linecap="round" stroke-linejoin="round"/>
<path d="M365.195 61.9833L363.524 29.8613L335.772 44.8699L336.398 47.3609L346.894 52.6918L297.506 148.983L140.761 191.387L32.402 117.808C30.4054 116.45 27.6766 116.961 26.3122 118.954C24.9478 120.94 25.461 123.655 27.4638 125.013L137.493 199.726C138.226 200.224 139.09 200.485 139.966 200.485C140.348 200.485 140.736 200.436 141.117 200.33L301.674 156.886C302.863 156.562 303.865 155.753 304.428 154.663L354.699 56.6525L365.195 61.9833Z" fill="#263238" stroke="#263238" stroke-miterlimit="10" stroke-linecap="round" stroke-linejoin="round"/>
<path d="M364.569 59.4921L362.898 27.3701L335.772 44.8697L346.268 50.2005L296.88 146.492L140.135 188.896L31.776 115.316C29.7795 113.959 27.0506 114.469 25.6862 116.462C24.3218 118.449 24.835 121.164 26.8378 122.522L136.868 197.234C137.6 197.733 138.464 197.994 139.34 197.994C139.722 197.994 140.11 197.944 140.491 197.839L301.048 154.395C302.238 154.071 303.239 153.261 303.802 152.171L354.073 54.1613L364.569 59.4921Z" fill="#96644D" stroke="#263238" stroke-miterlimit="10" stroke-linecap="round" stroke-linejoin="round"/>
<path d="M360.056 32.9189L342.025 44.5521L350.48 48.8429L299.039 149.139L139.565 192.284L30.0109 117.888C29.7981 117.745 29.5603 117.671 29.3099 117.671C28.8906 117.671 28.5088 117.876 28.271 118.212C27.8829 118.779 28.0269 119.557 28.5964 119.944L138.626 194.656C138.833 194.8 139.077 194.874 139.333 194.874C139.446 194.874 139.552 194.862 139.659 194.831L300.228 151.393C300.566 151.3 300.854 151.069 301.017 150.758L352.715 49.9764L361.17 54.2734L360.056 32.9189Z" fill="white"/>
<path d="M125.458 160.193L124.6 163.499C124.6 163.499 123.305 166.09 121.233 168.818C119.168 171.545 111.745 179.137 111.745 179.137L109.648 181.709L109.404 183.963L111.106 184.617C111.106 184.617 111.957 184.947 112.652 185.302C113.347 185.657 115.149 185.981 115.713 185.564C116.276 185.147 117.597 181.765 117.597 181.765L118.097 179.149C118.097 179.149 126.91 172.268 128.931 170.182C130.953 168.095 132.693 166.221 133.275 165.013C133.857 163.805 133.375 160.099 133.375 160.099L125.458 160.193Z" fill="white" stroke="#263238" stroke-miterlimit="10" stroke-linecap="round" stroke-linejoin="round"/>
<path d="M125.238 144.275L123.661 160.815C123.661 160.815 125.695 161.569 128.167 162.098C130.64 162.621 135.803 161.264 135.803 161.264C135.803 161.264 135.008 147.501 133.976 142.463C132.943 137.424 130.07 133.657 128.211 133.021" fill="#96644D"/>
<path d="M125.238 144.275L123.661 160.815C123.661 160.815 125.695 161.569 128.167 162.098C130.64 162.621 135.803 161.264 135.803 161.264C135.803 161.264 135.008 147.501 133.976 142.463C132.943 137.424 130.07 133.657 128.211 133.021" stroke="#263238" stroke-miterlimit="10" stroke-linecap="round" stroke-linejoin="round"/>
<path d="M323.467 245.337H436.752" stroke="#263238" stroke-miterlimit="10" stroke-linecap="round" stroke-linejoin="round"/>
<path d="M309.698 245.337H317.834" stroke="#263238" stroke-miterlimit="10" stroke-linecap="round" stroke-linejoin="round"/>
<path d="M105.035 245.337H302.813" stroke="#263238" stroke-miterlimit="10" stroke-linecap="round" stroke-linejoin="round"/>
<path d="M10.5273 245.337H99.4023" stroke="#263238" stroke-miterlimit="10" stroke-linecap="round" stroke-linejoin="round"/>
</g>
<defs>
<clipPath id="clip0_160_1885">
<rect width="449" height="266" fill="white"/>
</clipPath>
</defs>
</svg>
