<svg width="60" height="60" viewBox="0 0 60 60" fill="none" xmlns="http://www.w3.org/2000/svg">
<g clip-path="url(#clip0_160_578)">
<path d="M0 57.5996C0 39.1999 0 20.7995 0 2.39981C0.0780133 2.3788 0.0594101 2.30739 0.0744127 2.25458C0.389466 1.11619 1.11559 0.390066 2.25518 0.0768131C2.30799 0.0624106 2.3794 0.0774132 2.39981 0C20.7599 0 39.1201 0 57.4802 0C57.5006 0.0180031 57.5192 0.0480082 57.542 0.0516088C58.6564 0.23524 59.3891 0.88395 59.8194 1.90772C59.895 2.08775 59.8854 2.29419 60 2.45982C60 20.8397 60 39.2197 60 57.5996C59.895 57.6572 59.9172 57.7724 59.8914 57.8606C59.6141 58.7914 59.0218 59.4353 58.1277 59.8002C57.923 59.8836 57.7034 59.9304 57.491 59.994C57.401 59.9958 57.3109 59.9994 57.2209 59.9994C39.1441 59.9994 21.0666 59.9994 2.98971 59.9988C2.78987 59.9988 2.59004 59.9958 2.39021 59.9946C2.3782 59.9262 2.31879 59.9394 2.27439 59.928C1.12459 59.6201 0.393067 58.8916 0.0744127 57.746C0.0600102 57.6926 0.0786134 57.6206 0 57.5996ZM45.4973 38.4287C45.4973 34.1806 45.4973 29.9319 45.4973 25.6838C45.4973 25.0927 45.2555 24.8526 44.6584 24.8526C42.7393 24.852 40.8201 24.852 38.9004 24.8526C38.3075 24.8526 38.0531 25.1029 38.0525 25.6832C38.0519 34.1596 38.0519 42.6366 38.0525 51.1131C38.0525 51.7096 38.3075 51.9598 38.9148 51.9598C40.8141 51.9604 42.7135 51.9598 44.6128 51.9598C45.2747 51.9598 45.4973 51.739 45.4973 51.0831C45.4973 46.8656 45.4973 42.6474 45.4973 38.4287ZM35.5674 42.7513C35.5674 39.9626 35.5674 37.1733 35.5674 34.3846C35.5674 33.7677 35.3298 33.5253 34.7255 33.5253C32.7962 33.5247 30.8668 33.5247 28.9375 33.5253C28.3488 33.5253 28.0932 33.7761 28.0932 34.3564C28.0926 39.9446 28.0926 45.5321 28.0932 51.1203C28.0932 51.6892 28.3674 51.9604 28.9393 51.961C30.8584 51.9616 32.7782 51.961 34.6973 51.961C35.316 51.961 35.5674 51.7096 35.5674 51.0891C35.5674 48.3094 35.5674 45.5303 35.5674 42.7513ZM8.2154 40.9858C8.207 41.3812 8.51245 41.6327 8.97032 41.5763C9.72405 41.4827 10.4646 41.3158 11.1997 41.1274C14.6587 40.241 17.9208 38.8602 21.0552 37.1673C26.8516 34.036 31.956 29.9925 36.608 25.3537C38.2727 23.6938 39.8606 21.9631 41.3824 20.1718C41.5061 20.0266 41.5811 19.9948 41.7245 20.1418C41.8985 20.3201 42.0996 20.4713 42.2862 20.6375C42.5016 20.8295 42.8503 21.0018 42.8893 21.2262C42.9289 21.4512 42.6607 21.7321 42.5232 21.9865C42.0744 22.8171 42.0389 22.5896 42.7471 23.2708C42.9415 23.458 43.0999 23.4316 43.286 23.2522C44.0907 22.4738 44.9014 21.7015 45.7146 20.931C45.8406 20.8115 45.891 20.6825 45.8928 20.5091C45.8994 19.9096 45.9234 19.3101 45.9336 18.71C45.9366 18.5462 45.9996 18.4375 46.1322 18.3391C46.6465 17.9581 47.1398 17.5518 47.6133 17.1203C49.1928 15.6813 50.4872 14.0448 51.1917 11.9924C51.2679 11.7704 51.2445 11.6366 51.0687 11.477C50.1649 10.6584 49.2696 9.82907 48.3802 8.99493C48.2362 8.85991 48.1264 8.8323 47.938 8.91391C46.9772 9.32919 46.1022 9.87888 45.3005 10.548C43.9659 11.6606 42.9073 13.0084 41.9777 14.4637C41.8775 14.6203 41.7737 14.7037 41.5811 14.7193C41.0236 14.7649 40.4691 14.8411 39.9116 14.8897C39.6673 14.9113 39.4915 14.999 39.3349 15.1988C38.7672 15.9219 38.1779 16.6276 37.6 17.3429C36.9927 18.0949 36.9657 17.9238 37.7314 18.6356C37.8808 18.7742 38.0237 18.7742 38.1881 18.6608C38.4677 18.4681 38.7636 18.2983 39.0336 18.0937C39.1903 17.9749 39.2809 18.0043 39.4117 18.1243C39.7424 18.4291 40.0784 18.7286 40.4295 19.01C40.6059 19.1517 40.6239 19.2381 40.4673 19.4193C39.3025 20.7653 38.1161 22.091 36.8799 23.3716C32.2393 28.1778 27.136 32.4019 21.2844 35.6671C17.3465 37.864 13.2509 39.6691 8.75369 40.3959C8.42543 40.4505 8.222 40.6839 8.2154 40.9858ZM18.1633 45.7596C18.1633 47.5485 18.1627 49.3374 18.1633 51.1263C18.1633 51.7114 18.4147 51.961 19.0022 51.961C20.931 51.9616 22.8597 51.961 24.7884 51.961C25.3489 51.961 25.6196 51.6964 25.6196 51.1449C25.6202 47.5671 25.6202 43.9893 25.6202 40.4115C25.6202 39.8618 25.3621 39.5989 24.8214 39.5989C22.8729 39.5983 20.9238 39.5983 18.9752 39.5989C18.4009 39.5989 18.1633 39.8408 18.1627 40.4235C18.1627 42.2016 18.1633 43.9803 18.1633 45.7596ZM15.6771 47.249C15.6771 45.9498 15.6783 44.6506 15.6765 43.3514C15.6759 42.8311 15.4058 42.5574 14.8831 42.5568C12.9244 42.5544 10.9651 42.5544 9.00633 42.558C8.47884 42.5592 8.2196 42.8269 8.2196 43.3532C8.219 45.9516 8.219 48.5507 8.2196 51.1491C8.2196 51.6928 8.48304 51.9598 9.02253 51.9604C10.9717 51.9622 12.9208 51.9622 14.8693 51.9604C15.4052 51.9598 15.6759 51.6862 15.6765 51.1473C15.6777 49.8475 15.6765 48.5483 15.6771 47.249ZM48.5429 8.69368C49.5084 9.58423 50.4338 10.4376 51.3873 11.3173C51.5878 10.3278 51.7168 9.3898 51.781 8.44404C51.802 8.13438 51.682 8.00896 51.4059 8.05397C50.4626 8.2088 49.5264 8.40023 48.5429 8.69368Z" fill="#96644D"/>
<path d="M47.3252 13.9848C46.7017 13.9908 46.2 13.4945 46.2012 12.8722C46.2024 12.2649 46.6927 11.771 47.3024 11.762C47.9079 11.753 48.4125 12.2427 48.424 12.8494C48.4348 13.4765 47.9493 13.9788 47.3252 13.9848Z" fill="#689F4E"/>
</g>
<defs>
<clipPath id="clip0_160_578">
<rect width="60" height="60" fill="white"/>
</clipPath>
</defs>
</svg>
