<svg width="54" height="60" viewBox="0 0 54 60" fill="none" xmlns="http://www.w3.org/2000/svg">
<g clip-path="url(#clip0_160_529)">
<path d="M25.5871 37.7208C24.6622 39.2846 23.9726 40.8321 23.6062 42.5031C23.4945 43.011 23.1266 42.8442 22.8452 42.8442C17.8186 42.8531 12.792 42.8695 7.76548 42.8308C6.99697 42.8248 6.76463 43.0303 6.84655 43.7735C6.91059 44.3603 6.89867 44.9635 6.84804 45.5533C6.79889 46.1401 6.99399 46.3009 7.58527 46.298C12.4882 46.2741 17.3912 46.3009 22.2941 46.2652C23.0135 46.2592 23.1639 46.4469 23.1907 47.1484C23.2905 49.6282 23.9786 51.9605 25.1894 54.1349C25.3041 54.342 25.4947 54.5222 25.4873 54.8394C25.2624 54.8394 25.0449 54.8394 24.829 54.8394C17.8454 54.8394 10.8633 54.8409 3.87976 54.8394C1.34339 54.8394 0.00148935 53.4886 0.00148935 50.9358C0 35.2604 0 19.5865 0 3.91401C0 1.39403 1.38063 0.0119148 3.90061 0.0119148C15.242 0.0104255 26.5834 0.0134042 37.9248 0C38.388 0 38.6993 0.139999 39.018 0.461699C41.2818 2.74934 43.5635 5.0206 45.8422 7.29484C46.0865 7.5391 46.298 7.75952 46.2965 8.1676C46.2816 15.9167 46.2861 23.6658 46.2861 31.47C45.4237 31.1736 44.6076 30.8325 43.7601 30.6121C38.3076 29.1928 33.3793 30.28 29.0081 33.8202C28.5672 34.1761 28.1562 34.3072 27.6111 34.3057C20.9492 34.2908 14.2888 34.3042 7.62697 34.2834C7.03123 34.2819 6.78697 34.3966 6.84357 35.04C6.90314 35.7027 6.89719 36.3789 6.84506 37.0431C6.80038 37.6121 6.99399 37.7372 7.54505 37.7342C12.1754 37.7104 16.8058 37.7208 21.4362 37.7208C22.7737 37.7208 24.1111 37.7208 25.5871 37.7208ZM23.07 20.5962C24.2586 20.5962 25.4456 20.5962 26.6341 20.5962C30.6672 20.5962 34.7019 20.5843 38.735 20.6096C39.295 20.6126 39.4753 20.4682 39.4321 19.9096C39.3829 19.2707 39.368 18.6184 39.435 17.9824C39.5095 17.275 39.2325 17.1469 38.5787 17.1484C28.3096 17.1692 18.0405 17.1633 7.76995 17.1633C7.64633 17.1633 7.52122 17.1767 7.3991 17.1603C6.98655 17.1082 6.82719 17.2586 6.84804 17.6935C6.88229 18.4099 6.90165 19.1322 6.84357 19.8441C6.79144 20.483 7.02825 20.6126 7.62995 20.6096C12.7757 20.5858 17.9229 20.5962 23.07 20.5962ZM23.1535 29.1421C23.3262 29.1421 23.5005 29.1421 23.6732 29.1421C28.6968 29.1421 33.7219 29.1317 38.7455 29.157C39.3084 29.16 39.4738 29.0155 39.4306 28.4615C39.3799 27.7972 39.374 27.1226 39.4306 26.4583C39.4857 25.8194 39.2459 25.7002 38.6457 25.7002C28.3007 25.7196 17.9541 25.7136 7.6091 25.7136C7.5108 25.7136 7.40952 25.7241 7.31271 25.7122C6.94931 25.666 6.84059 25.8328 6.84953 26.1798C6.86889 26.8977 6.89719 27.6185 6.84208 28.3319C6.79442 28.9604 6.94633 29.1645 7.63441 29.16C12.8084 29.1257 17.9809 29.1421 23.1535 29.1421ZM19.6937 12.022C23.7254 12.022 27.757 12.0101 31.7887 12.0354C32.3755 12.0399 32.6376 11.9446 32.5691 11.2908C32.5051 10.6786 32.514 10.0516 32.5662 9.43802C32.6198 8.7976 32.4634 8.57271 31.7515 8.58015C27.547 8.62036 23.3411 8.59951 19.1367 8.59951C15.2778 8.59951 11.4189 8.61441 7.56144 8.58313C6.95378 8.57866 6.80336 8.76334 6.84506 9.32781C6.89272 9.96674 6.90016 10.6176 6.84357 11.255C6.78995 11.8627 6.96867 12.0414 7.59867 12.0369C11.6303 12.0071 15.662 12.022 19.6937 12.022ZM36.8406 1.97637C36.8406 3.75316 36.8287 5.5806 36.8465 7.40803C36.8525 8.06633 36.5576 8.92866 36.9731 9.3293C37.3872 9.72844 38.2436 9.44249 38.9048 9.44695C40.7233 9.46185 42.5433 9.45291 44.3127 9.45291C41.8165 6.95378 39.3323 4.46954 36.8406 1.97637Z" fill="#96644D"/>
<path d="M39.429 60C31.872 60.003 25.6853 53.8058 25.7046 46.2518C25.7225 38.7142 31.8765 32.5721 39.4141 32.5676C46.9785 32.5632 53.1623 38.7544 53.1415 46.3099C53.1176 53.846 46.9562 59.9985 39.429 60ZM49.564 41.5886C49.4419 41.4546 49.3481 41.3459 49.2483 41.2446C48.7062 40.701 48.1372 40.1827 47.6309 39.6093C47.2898 39.2235 47.0977 39.225 46.7268 39.6003C43.6305 42.7325 40.4969 45.8303 37.4065 48.9684C36.9626 49.4196 36.7541 49.375 36.3431 48.9505C34.6541 47.2109 32.9146 45.519 31.2182 43.7869C30.898 43.4607 30.7208 43.4533 30.4169 43.7914C29.9046 44.3603 29.3565 44.9009 28.7921 45.4192C28.4778 45.7082 28.4182 45.8794 28.7638 46.2205C31.3523 48.7762 33.9214 51.3528 36.4846 53.9339C36.7601 54.2109 36.9165 54.2868 37.2367 53.9636C41.2326 49.9439 45.2434 45.942 49.2513 41.9342C49.3481 41.8344 49.4404 41.7242 49.564 41.5886Z" fill="#689F4E"/>
</g>
<defs>
<clipPath id="clip0_160_529">
<rect width="53.14" height="60" fill="white"/>
</clipPath>
</defs>
</svg>
