<svg width="407" height="20" viewBox="0 0 407 20" fill="none" xmlns="http://www.w3.org/2000/svg">
<g clip-path="url(#clip0_160_334)">
<path d="M368.872 0.891536C369.115 1.09339 369.518 0.925178 369.793 0.555119C369.793 0.555119 369.793 0.555119 369.825 0.605581C370.165 1.05974 370.455 0.420552 370.585 0.538298C371.037 0.941998 371.36 0.908357 371.861 0.555119C371.99 0.471015 372.604 0.97564 373.04 1.05974C373.364 1.12703 373.364 1.12703 373.364 1.12703C373.767 0.992461 374.365 0.908357 374.688 0.97564C375.011 1.04292 376.336 1.27842 376.934 1.41298C376.934 1.41298 376.934 1.41298 377.403 1.00928C377.451 0.958819 377.613 0.958819 377.709 0.97564C378.259 1.16067 378.808 1.51391 379.357 1.51391C379.794 1.51391 379.794 1.51391 379.794 1.51391C380.214 1.21113 380.521 1.4298 380.456 2.03535C380.456 2.03535 380.456 2.03535 381.312 1.3457C382.023 0.77379 382.023 0.77379 382.023 0.77379C382.718 1.04292 383.671 1.12703 384.14 0.97564C384.608 0.824252 386.014 1.56437 386.514 1.53073C387.015 1.49709 388.695 2.03535 389.196 2.13628C389.196 2.13628 389.196 2.13628 389.164 1.49709C389.164 1.46344 389.471 1.3457 389.536 1.37934C390.182 1.81668 390.182 1.81668 390.182 1.81668C390.973 1.68212 391.862 1.76622 392.137 2.00171C392.428 2.2372 393.445 1.73258 393.704 1.85032C393.962 1.96807 394.932 2.1531 395.271 1.96807C395.61 1.78304 397.468 1.85032 398.534 1.88397C398.534 1.88397 398.534 1.88397 399.455 2.28767C399.746 2.42223 400.328 2.01853 400.78 1.96807C401.119 1.93443 401.119 1.93443 401.119 1.93443C401.507 2.03535 401.96 2.05218 402.137 1.93443C402.137 1.93443 402.137 1.93443 402.153 1.95125C402.993 2.6409 402.993 2.6409 402.993 2.6409C403.995 2.27085 404.932 2.35495 405.078 2.80911C405.223 3.2801 406.031 4.37345 406.225 4.33981C406.419 4.30617 406.968 4.32299 407 4.45756C407.032 4.59212 406.79 5.06311 406.467 5.24814C406.144 5.43317 406.112 6.89658 405.578 7.67034C405.578 7.67034 405.578 7.67034 405.756 8.62913C405.805 8.8478 405.805 8.8478 405.805 8.8478C405.788 9.18422 405.659 9.38607 405.53 9.28514C405.401 9.18422 405.029 9.1674 404.9 9.41971C404.9 9.41971 404.9 9.41971 404.916 9.41971C405.837 9.80659 404.755 10.4458 405.191 10.8831C405.239 10.9336 405.239 11.085 405.191 11.1354C404.496 11.7746 404.496 11.7746 404.496 11.7746C404.464 12.2624 403.721 12.8007 402.832 12.9689C402.832 12.9689 402.832 12.9689 402.04 12.3465C401.911 12.2456 401.911 12.2456 401.911 12.2456C401.394 12.4643 400.57 12.6661 400.069 12.683C399.568 12.6998 397.888 12.5652 397.436 12.6661C397.436 12.6661 397.436 12.6661 397 12.6661C396.58 12.6661 396.58 12.6661 396.58 12.6661C396.127 12.582 395.594 12.5147 395.4 12.4979C395.206 12.4811 394.447 12.4475 394.205 12.5316C393.962 12.5989 392.379 12.6661 391.216 12.6661C390.053 12.6661 386.45 12.6325 385.771 12.5484C385.109 12.4643 383.316 13.053 383.154 13.053C383.154 13.053 383.154 13.053 383.009 13.0698C382.136 13.1371 382.136 13.1371 382.136 13.1371C381.199 12.9689 380.068 12.9353 379.616 13.053C379.18 13.1708 377.758 12.8007 377.386 12.8512C377.015 12.9016 375.722 13.0026 375.286 12.9016C374.85 12.8007 372.717 13.0362 371.699 13.053C371.699 13.053 371.699 13.053 370.746 13.053C369.793 13.053 368.856 13.053 367.903 13.053C367.321 13.053 366.4 13.238 366.223 13.0194C365.786 12.4811 365.221 13.238 364.898 12.7671C364.833 12.683 364.494 12.6661 364.3 12.6998C363.864 12.7671 363.218 13.0698 363.04 12.9353C362.41 12.4475 362.41 12.4475 362.41 12.4475C361.941 12.8007 361.295 12.9689 360.972 12.8343C360.649 12.6998 359.954 12.6325 359.583 12.5147C359.211 12.397 358.048 12.8512 357.725 12.6661C357.401 12.4811 356.254 13.1035 355.883 13.1708C355.527 13.238 354.154 12.6493 353.476 12.5316C353.476 12.5316 353.476 12.5316 352.749 12.9857C352.232 13.3053 352.232 13.3053 352.232 13.3053C351.23 13.1539 350.228 12.9521 350.018 12.8512C349.808 12.7502 348.855 12.6157 348.338 12.5316C347.821 12.4475 345.834 13.2549 344.929 13.6081C344.929 13.6081 344.929 13.6081 344.283 12.683C344.218 12.5989 343.782 12.582 343.669 12.683C342.974 13.2549 342.166 12.2961 341.456 12.8175C341.229 12.9857 340.793 13.053 340.486 13.0194C339.888 12.9521 339.291 12.6998 338.693 12.6998C338.176 12.6998 338.176 12.6998 338.176 12.6998C337.611 12.868 336.883 12.9689 336.56 12.9353C336.237 12.9016 335.074 12.868 334.799 12.7334C334.525 12.5989 333.458 13.1035 333.103 13.238C332.748 13.3726 331.794 12.8007 331.455 12.9353C331.116 13.0698 329.565 12.9689 328.951 12.868C328.951 12.868 328.951 12.868 328.385 12.868C327.836 12.868 327.287 13.0362 326.738 13.0362C325.72 13.0194 325.72 13.0194 325.72 13.0194C324.605 12.8848 322.796 12.7839 321.697 12.8175C321.697 12.8175 321.697 12.8175 320.776 13.0867C319.968 13.3221 319.968 13.3221 319.968 13.3221C319.144 13.1539 317.706 13.0362 316.753 13.0698C316.753 13.0698 316.753 13.0698 315.881 13.0698C315.008 13.0698 314.136 13.0698 313.263 13.0698C312.391 13.0698 311.519 13.0698 310.646 13.0698C309.774 13.0698 308.901 13.0698 308.029 13.0698C307.157 13.0698 306.284 13.0362 305.412 13.0867C304.862 13.1035 304.862 13.1035 304.862 13.1035C304.265 13.238 303.699 13.3558 303.586 13.3894C303.473 13.4231 302.665 13.3053 302.003 13.1876C301.34 13.0698 297.641 13.3558 297.366 13.2717C297.108 13.1876 296.364 13.2044 296.09 13.1708C295.815 13.1371 294.474 13.4231 293.763 13.4567C293.763 13.4567 293.763 13.4567 293.101 13.4567C292.439 13.4567 291.792 13.4567 291.13 13.4567C290.403 13.4567 289.676 13.4567 288.949 13.4567C288.286 13.4567 287.64 13.4567 286.978 13.4567C286.315 13.4567 285.669 13.4567 285.007 13.4567C284.344 13.4567 283.698 13.4567 283.036 13.4567C282.373 13.4567 282.373 13.4567 282.373 13.4567C281.663 13.4735 279.514 13.524 277.624 13.5913C275.733 13.6586 270.16 14.0623 269.449 14.3146C269.449 14.3146 269.449 14.3146 269.239 14.1464C268.689 13.7258 268.689 13.7258 268.689 13.7258C268.318 13.995 267.575 13.9782 267.041 13.709C267.041 13.709 267.041 13.709 266.363 14.1464C266.007 14.3819 265.232 14.1968 264.65 14.1968C263.697 14.1968 263.697 14.1968 263.697 14.1968C262.663 14.18 261.451 14.2641 260.999 14.365C260.547 14.466 258.98 14.0623 258.511 13.7763C258.511 13.7763 258.511 13.7763 258.172 14.2137C257.687 14.8528 257.687 14.8528 257.687 14.8528C257.299 14.4996 256.556 14.2641 256.023 14.3314C255.49 14.4155 253.761 14.5164 253.341 14.4996C252.937 14.466 251.306 14.7351 250.546 14.6174C250.546 14.6174 250.546 14.6174 249.852 14.5669C249.124 14.5164 249.124 14.5164 249.124 14.5164C248.317 14.5501 247.315 14.651 246.895 14.7687C246.475 14.8865 245.231 14.9538 244.585 15.2229C244.585 15.2229 244.585 15.2229 243.825 14.9706C243.195 14.7687 242.387 14.9201 241.66 14.9201C240.933 14.9201 240.933 14.9201 240.933 14.9201C240.126 14.937 239.14 15.0883 238.72 15.2565C238.72 15.2565 238.72 15.2565 238.348 15.2565C237.977 15.2565 237.977 15.2565 237.977 15.2565C237.573 15.0883 235.812 14.9874 234.083 15.0211C232.355 15.0715 227.556 15.5593 227.266 15.9462C227.266 15.9462 227.266 15.9462 226.749 15.4079C226.635 15.2902 225.925 15.593 225.488 15.6434C225.052 15.6939 225.052 15.6939 225.052 15.6939C224.568 15.6939 223.84 15.4584 223.42 15.1893C223 14.9201 221.498 15.6434 221.029 15.6434C220.545 15.6434 218.897 15.6434 218.412 15.6434C217.927 15.6434 216.215 15.7612 215.666 15.8789C215.666 15.8789 215.666 15.8789 215.165 15.8789C214.696 15.8789 214.212 15.6602 213.759 15.6771C212.854 15.7275 212.854 15.7275 212.854 15.7275C211.869 15.6939 210.35 15.6771 209.494 15.6939C208.638 15.7107 206.069 16.0976 205.536 15.9798C205.536 15.9798 205.536 15.9798 205.051 15.963C204.373 15.8957 204.373 15.8957 204.373 15.8957C203.613 15.9798 202.66 15.9798 202.272 15.8957C201.885 15.8116 200.56 16.3667 200.043 16.4172C199.526 16.4845 197.603 16.4004 197.005 16.4172C196.408 16.434 193.807 16.434 192.563 16.5181C191.319 16.6022 186.973 16.7368 185.68 16.7536C184.404 16.7704 180.801 16.8209 180.543 16.9555C180.284 17.09 179.089 16.7368 178.749 16.7031C178.41 16.6527 177.134 17.1405 176.52 17.1741C175.906 17.2078 173.45 17.1573 172.448 17.1741C171.447 17.1909 168.022 17.1573 167.052 17.2751C166.083 17.3928 161.947 17.4769 160.025 17.4769C160.025 17.4769 160.025 17.4769 158.28 17.4769C156.454 17.4769 156.454 17.4769 156.454 17.4769C154.451 17.4769 152.383 17.4769 151.85 17.4937C151.85 17.4937 151.85 17.4937 151.462 17.8301C151.09 18.1497 150.767 17.1237 150.25 17.7629C150.153 17.8974 150.153 17.8974 150.153 17.8974C149.685 17.8133 149.006 17.8638 148.651 17.9983C148.295 18.1329 146.922 17.6451 146.114 17.8301C146.114 17.8301 146.114 17.8301 145.371 17.8301C139.684 17.847 139.684 17.847 139.684 17.847C133.432 17.847 127.664 17.7124 126.873 17.561C126.873 17.561 126.873 17.561 126.259 18.1329C126.162 18.217 126.162 18.217 126.162 18.217C125.903 18.1834 125.322 18.0993 124.853 18.032C124.401 17.9647 123.06 17.9815 122.914 18.1161C122.753 18.2507 122.058 17.9479 121.864 18.032C121.67 18.1161 120.75 18.1666 120.297 18.1329C120.297 18.1329 120.297 18.1329 119.877 18.0825L117.89 18.2002C117.454 18.217 117.454 18.217 117.454 18.217C116.985 18.217 116.517 18.0993 116.42 17.9479C116.323 17.7965 115.434 18.0993 115.014 18.1161C115.014 18.1161 115.014 18.1161 114.626 18.0656C114.433 18.0488 114.19 17.8301 114.093 17.8638C112.607 18.5534 112.607 18.5534 112.607 18.5534C110.878 18.3516 108.019 18.2002 106.258 18.217C106.258 18.217 106.258 18.217 104.658 18.217C103.64 18.217 102.623 18.217 101.605 18.217C100.652 18.217 100.652 18.217 100.652 18.217C99.6176 18.2507 98.3736 18.2002 97.8728 18.1161C97.3719 18.032 95.6109 18.7889 94.8354 19.0581C94.8354 19.0581 94.8354 19.0581 94.3185 18.3011C94.2538 18.217 93.8499 18.1666 93.7207 18.2338C92.9937 18.6712 92.9937 18.6712 92.9937 18.6712C92.1697 18.4862 90.8288 18.4189 89.9887 18.5198C89.9887 18.5198 89.9887 18.5198 89.2293 18.5871C88.3569 18.6544 87.4845 18.6039 86.6121 18.6039C85.8043 18.6039 85.0126 18.6039 84.2048 18.6039C83.3324 18.6039 82.46 18.6039 81.5876 18.6039C80.7798 18.6039 79.9881 18.6039 79.1803 18.6039C78.3079 18.6039 77.4355 18.6039 76.5631 18.6039C75.7553 18.6039 75.7553 18.6039 75.7553 18.6039C74.8829 18.6207 73.6066 18.5366 72.9442 18.4357C72.2818 18.3348 70.3915 18.873 70.1492 18.7721C69.9068 18.6712 68.4205 18.5703 67.3865 18.5198C66.3525 18.4693 63.3637 18.9067 63.0083 18.8899C62.6528 18.873 61.5058 18.8562 61.2473 18.688C60.9888 18.5198 59.7932 18.9403 59.4378 18.9908C59.0824 19.0412 57.9676 18.6712 57.5153 18.7889C57.079 18.9067 55.5442 18.9908 55.1242 19.0412C54.7041 19.0917 53.3309 18.7216 53.0239 18.7889C52.7169 18.8562 51.2144 18.9235 50.4067 18.9235C49.5989 18.9235 46.3354 18.8394 44.9298 18.7048C44.9298 18.7048 44.9298 18.7048 43.7343 19.3104C43.5242 19.4113 43.5242 19.4113 43.5242 19.4113C43.185 19.344 42.3287 19.3104 41.6178 19.344C41.6178 19.344 41.6178 19.344 41.1655 19.1085C40.4223 18.7216 40.4223 18.7216 40.4223 18.7216C39.8891 19.0244 39.049 19.1926 38.5805 19.1253C38.5805 19.1253 38.5805 19.1253 38.0474 19.2936C37.4658 19.4618 37.4658 19.4618 37.4658 19.4618C36.7064 19.3777 35.834 19.3608 35.5109 19.4281C35.1878 19.4786 32.8452 18.9571 30.8418 18.8226C30.8418 18.8226 30.8418 18.8226 29.1778 19.6468C28.58 19.9496 28.58 19.9496 28.58 19.9496C27.9176 19.815 27.0129 19.6973 26.5767 19.7141C26.1405 19.7141 24.6218 19.7309 24.1856 19.7645C23.7494 19.7982 22.7316 19.5963 22.5538 19.6468C22.3761 19.7141 21.3745 19.7309 20.809 19.7141C20.2435 19.6973 18.3856 19.6636 17.9332 19.63C17.4809 19.5963 16.0915 19.6973 15.7037 19.5963C15.316 19.4954 14.4113 20 14.2982 19.8991C14.1851 19.7982 13.6519 19.5459 13.5065 19.6804C13.3611 19.815 12.4564 20.0673 11.9879 20.0673C11.9879 20.0673 11.9879 20.0673 11.5517 20.0673C10.7439 20.0673 9.95222 20.0673 9.14442 20.0673C8.70821 20.0673 8.70821 20.0673 8.70821 20.0673C8.51434 19.7645 8.27201 19.529 8.20738 19.529C8.1266 19.529 7.90042 19.6636 7.86811 19.815C7.83579 19.9832 6.70488 19.9664 5.94555 19.8655C5.94555 19.8655 5.94555 19.8655 5.25085 19.8655C4.7177 19.8655 4.7177 19.8655 4.7177 19.8655C4.08762 19.8486 3.66757 19.815 3.78066 19.7645C3.89375 19.7309 4.13609 19.4281 3.94222 19.2094C3.7645 18.9908 3.65141 18.1497 3.73219 17.8806C3.81297 17.6115 3.87759 16.8041 3.6191 16.8041C3.3606 16.8041 2.77899 16.8882 2.82746 16.9891C2.87593 17.09 2.90824 17.3928 2.77899 17.4264C2.64974 17.4601 2.24585 17.2582 2.01966 17.0732C1.79348 16.8882 0.614098 16.5013 0.387915 16.2826C0.161732 16.0639 -0.242166 15.1556 0.194044 15.0547C0.630253 14.9538 1.1634 16.1312 1.45421 16.3667C1.45421 16.3667 1.45421 16.3667 1.82579 16.3667C1.95504 16.3667 2.1166 16.1817 2.19738 16.0471C2.24585 15.9798 2.24585 15.9798 2.24585 15.9798C2.16507 15.8453 2.00351 15.7612 1.89042 15.8116C1.77732 15.8453 1.40574 15.8453 1.40574 15.6771C1.40574 15.5089 1.77732 14.9538 2.22969 14.8528C2.68206 14.7183 3.95837 14.2137 3.95837 13.9782C3.95837 13.7595 4.11993 13.053 4.3138 13.3053C4.50768 13.5576 5.28316 13.9613 5.59012 13.6586C5.59012 13.6586 5.59012 13.6586 5.68706 13.3726C5.83246 13.0026 5.91324 13.0867 6.20405 13.2549C6.41407 13.3726 6.41407 13.3726 6.41407 13.3726C6.73719 13.3894 7.60961 13.4063 8.33663 13.4063C9.06364 13.4063 10.8246 12.8007 10.6631 12.7334C10.5015 12.6661 11.0508 12.2456 12.2464 11.9428C12.2464 11.9428 12.2464 11.9428 13.5388 12.4306C13.7812 12.5316 14.0397 12.6157 14.2982 12.6493C14.492 12.6661 14.492 12.6661 14.492 12.6661C14.8152 12.582 14.9121 12.3129 14.7344 12.0942C14.5405 11.8924 14.2174 11.2532 14.4436 11.1859C14.4436 11.1859 14.4436 11.1859 14.6374 11.2027C14.8636 11.2364 15.1383 11.4719 15.2514 11.4046C15.9784 11.0345 15.9784 11.0345 15.9784 11.0345C16.4307 11.4719 16.9316 11.8419 17.1093 11.8587C17.287 11.8756 17.9979 11.8419 17.8363 11.6737C17.6586 11.5055 17.8363 11.1186 18.1917 10.8327C18.5472 10.5467 19.8881 10.4962 20.1305 10.5131C20.3728 10.5467 21.3906 10.4794 21.746 10.5299C22.1176 10.5803 23.2001 10.4962 23.7009 10.6308C24.2341 10.8158 25.2519 9.85705 25.5265 9.89069C25.8012 9.92434 26.3182 10.4626 26.3666 10.5299C26.4151 10.5972 26.6251 10.6813 26.7059 10.5635C26.7059 10.5635 26.7059 10.5635 26.7059 10.4626C26.7221 9.45335 26.7221 9.45335 26.7221 9.45335C27.5622 9.60474 28.7092 9.92434 29.2424 10.1766C29.2424 10.1766 29.2424 10.1766 29.9209 9.84023C30.5349 9.53746 30.5349 9.53746 30.5349 9.53746C31.3911 9.43653 32.3605 9.2515 32.7159 9.10011C33.0713 8.96555 33.9115 9.5711 34.073 9.50381C34.073 9.50381 34.073 9.50381 34.1215 9.41971C34.2184 9.2515 34.2184 9.2515 34.2184 9.2515C34.4123 9.20104 34.9131 9.23468 35.3655 9.35243C35.3655 9.35243 35.3655 9.35243 35.7694 9.35243C36.3672 9.35243 36.3672 9.35243 36.3672 9.35243C36.9972 9.21786 37.7081 9.06647 37.9666 9.01601C38.2251 8.96555 39.356 8.91508 39.8407 8.86462C40.3254 8.81416 42.0379 8.71323 42.5549 8.78052C43.0719 8.86462 44.7359 8.32635 45.2529 8.27589C45.7537 8.22543 47.2239 8.47774 47.4663 8.32635C47.7086 8.17497 48.6295 8.47774 48.8557 8.32635C49.0819 8.17497 49.8735 8.47774 50.0189 8.36C50.1643 8.24225 50.6813 8.02358 50.859 8.15815C51.0206 8.29271 51.683 8.56185 51.9738 8.47774C52.2646 8.39364 53.4116 8.32635 53.8802 8.36C54.3487 8.39364 55.7058 8.25907 56.0451 8.27589C56.3843 8.30953 57.4668 8.17497 57.7253 8.07404C57.9838 7.97312 59.0016 7.83855 59.4701 7.75445C59.9386 7.65352 61.3442 8.30953 61.635 8.41046C61.9258 8.51138 62.2813 7.7208 62.4428 7.65352C62.4428 7.65352 62.4428 7.65352 62.5236 7.68716C63.2021 8.00676 63.2021 8.00676 63.2021 8.00676C63.8968 7.77127 64.5269 7.5526 64.5916 7.51895C64.5916 7.51895 64.5915 7.51895 64.64 7.53577C65.0278 7.65352 65.4478 7.93948 65.7548 7.85537C66.1264 7.77127 66.1264 7.77127 66.1264 7.77127C66.4495 7.83855 66.8695 7.80491 67.0634 7.67034C67.2573 7.5526 68.1782 7.65352 68.5982 7.80491C68.5982 7.80491 68.5982 7.80491 68.986 7.87219C69.2445 7.92265 69.2445 7.92265 69.2445 7.92265C69.5514 7.87219 70.1492 7.78809 70.5692 7.75445C70.9893 7.7208 72.508 7.75445 73.0573 8.0404C73.0573 8.0404 73.0573 8.0404 73.7035 7.5526C74.0751 7.26664 74.8344 7.73763 75.3191 7.28346C75.3675 7.233 75.7068 7.45167 75.933 7.51895C76.9024 7.75445 76.9024 7.75445 76.9024 7.75445C77.9687 7.61988 79.0511 7.38439 79.2934 7.21618C79.5358 7.04797 80.4244 7.35074 80.6182 7.14889C80.8121 6.94704 81.5876 7.45167 81.7007 7.50213C81.8138 7.5526 82.4115 7.58624 82.8477 7.67034C83.284 7.75445 84.8995 7.35075 85.675 7.28346C85.675 7.28346 85.675 7.28346 86.2405 7.77127C86.3213 7.83855 86.3213 7.83855 86.3213 7.83855C86.5636 7.88901 86.919 7.75445 87.1129 7.56942C87.3068 7.36757 87.8399 7.21618 88.163 7.16572C88.4862 7.11525 90.0856 7.24982 90.9419 7.40121C90.9419 7.40121 90.9419 7.40121 91.6204 6.79566C91.7981 6.64427 92.3797 6.86294 92.6705 6.74519C93.3491 6.47606 93.3491 6.47606 93.3491 6.47606C93.9307 6.76201 94.6093 7.01433 94.8354 7.04797C95.0616 7.08161 95.9663 6.89658 96.2895 6.99751C96.2895 6.99751 96.2895 6.99751 96.5803 7.13207C96.9519 7.3171 97.1296 6.4256 97.6143 6.99751C97.6627 7.04797 98.1474 6.77884 98.4382 6.76201C98.8421 6.76201 98.8421 6.76201 98.8421 6.76201C99.2783 6.86294 99.7791 6.99751 99.9246 7.03115C100.07 7.06479 101.039 6.96387 101.621 6.99751C102.203 7.03115 103.721 6.45924 103.883 6.52652C104.044 6.59381 104.82 6.98069 105.224 7.26664C105.224 7.26664 105.224 7.26664 105.628 6.69473C106.242 5.82005 106.242 5.82005 106.242 5.82005C107.146 6.19011 108.293 6.56016 108.81 6.67791C109.376 6.79566 111.072 6.37513 111.476 6.22375C111.864 6.07236 112.946 6.05554 113.334 5.97143C113.334 5.97143 113.334 5.97143 113.592 6.12282C113.867 6.29103 113.867 6.29103 113.867 6.29103C114.109 6.56016 114.562 6.56016 114.885 6.29103C114.885 6.29103 114.885 6.29103 115.143 6.07236C115.192 6.03872 115.192 6.03872 115.192 6.03872C115.353 5.98826 115.628 6.05554 115.822 6.19011C116.016 6.32467 116.711 6.57699 116.904 6.4256C117.098 6.27421 118.762 6.27421 119.085 6.35831C119.409 6.44242 120.184 6.39196 120.491 6.45924C120.798 6.52652 121.525 6.35831 121.784 6.37513C122.042 6.39196 122.995 6.27421 123.334 6.106C123.674 5.93779 125.095 6.44242 125.774 6.54334C125.774 6.54334 125.774 6.54334 126.21 6.00508C126.259 5.95461 126.485 5.98826 126.63 6.00508C127.519 6.12282 127.519 6.12282 127.519 6.12282C128.488 6.24057 129.668 6.15646 130.12 5.93779C130.572 5.71912 132.269 6.32467 132.834 6.30785C132.834 6.30785 132.834 6.30785 133.303 6.20693C133.739 6.106 133.739 6.106 133.739 6.106C134.224 6.08918 134.999 5.98826 135.468 5.88733C135.936 5.78641 137.196 6.37513 137.358 6.40878C137.358 6.40878 137.358 6.40878 137.471 6.35831C138.747 5.87051 138.747 5.87051 138.747 5.87051C140.234 5.93779 141.752 5.98826 142.124 5.98826C142.495 5.97143 143.885 6.08918 144.466 6.45924C144.466 6.45924 144.466 6.45924 144.967 5.68548C145.193 5.34906 145.193 5.34906 145.193 5.34906C145.807 5.51727 146.47 5.80323 146.647 5.98826C146.825 6.17328 147.762 5.68548 148.021 5.63502C148.279 5.58455 149.071 5.97143 149.329 6.00508C149.329 6.00508 149.329 6.00508 149.442 5.92097C150.056 5.44999 150.056 5.44999 150.056 5.44999C150.654 5.71912 151.478 6.00508 151.898 6.07236C152.318 6.13964 153.514 5.85369 153.805 5.71912C154.095 5.58455 155.097 5.87051 155.259 5.82005C155.404 5.76958 155.953 5.51727 156.131 5.36588C156.309 5.2145 156.939 5.46681 157.1 5.28178C157.1 5.28178 157.1 5.28178 157.585 5.48363C158.134 5.71912 158.134 5.71912 158.134 5.71912C158.942 5.58455 160.025 5.3827 160.542 5.26496C161.059 5.14721 162.416 5.44999 162.658 5.39953C162.884 5.34906 163.837 5.46681 164.257 5.58455C164.257 5.58455 164.257 5.58455 164.661 5.6182C164.807 5.63502 164.807 5.63502 164.807 5.63502C165.033 5.41635 165.259 5.39953 165.308 5.6182C165.356 5.83687 165.792 6.37513 166.099 6.20693C166.406 6.03872 167.424 5.55091 167.682 5.43317C167.941 5.31542 169.767 5.2986 170.09 5.36588C170.413 5.43317 171.447 4.979 171.851 4.92854C172.255 4.8949 173.612 4.94536 173.967 5.07993C174.323 5.2145 176.067 5.02947 176.972 5.01265C176.972 5.01265 176.972 5.01265 177.538 4.70987C178.038 4.44074 178.038 4.44074 178.038 4.44074C178.362 4.65941 178.733 4.94536 178.895 5.06311C179.056 5.18085 180.413 4.96218 181.108 4.76033C181.803 4.5753 183.952 4.62577 184.242 4.70987C184.533 4.79397 185.616 4.8108 186.019 4.74351C186.423 4.67623 187.845 4.5753 188.265 4.60895C188.685 4.64259 189.816 4.35663 190.042 4.25571C190.268 4.15478 190.931 4.52484 191.012 4.55848C191.012 4.55848 191.012 4.55848 191.06 4.54166C191.448 4.42392 191.803 4.22207 192.191 4.18842C192.53 4.15478 192.918 4.42392 193.241 4.37345C193.742 4.30617 193.742 4.30617 193.742 4.30617C194.307 4.25571 195.051 4.1716 195.406 4.0875C195.761 4.00339 196.602 4.39027 196.682 4.23889C196.682 4.23889 196.682 4.23889 196.795 4.12114C196.876 4.03704 196.876 4.03704 196.876 4.03704C197.022 3.98657 197.603 4.03704 198.153 4.13796C198.702 4.23889 201.158 3.95293 201.578 4.05386C201.578 4.05386 201.578 4.05386 201.917 4.20524C202.337 4.39027 202.337 4.39027 202.337 4.39027C202.676 4.18842 203.29 4.13796 203.678 4.25571C203.678 4.25571 203.678 4.25571 203.953 4.1716C204.453 4.02022 204.453 4.02022 204.453 4.02022C204.938 3.71744 205.584 3.54923 205.859 3.65016C206.134 3.75108 207.216 3.71744 207.571 3.59969C207.927 3.48195 208.654 3.51559 208.945 3.46513C209.236 3.41466 210.076 3.54923 210.334 3.63334C210.593 3.71744 211.352 3.54923 211.449 3.66698C211.546 3.78472 212.192 3.98657 212.644 3.86883C213.097 3.73426 215.746 3.80154 216.651 3.7679C217.556 3.73426 219.268 3.26328 219.608 3.17917C219.608 3.17917 219.608 3.17917 220.06 3.2801C220.9 3.44831 220.9 3.44831 220.9 3.44831C221.934 3.43149 223.113 3.41466 223.501 3.41466C223.501 3.41466 223.501 3.41466 223.889 3.26328C224.39 3.06143 224.39 3.06143 224.39 3.06143C225.052 3.04461 225.876 3.09507 226.199 3.17917C226.522 3.26328 227.669 3.09507 227.96 3.14553C227.96 3.14553 227.96 3.14553 228.219 3.19599C228.461 3.24646 228.461 3.24646 228.461 3.24646C228.72 3.29692 229.624 3.24646 230.464 3.14553C230.464 3.14553 230.464 3.14553 231.208 3.02778C231.838 2.92686 231.838 2.92686 231.838 2.92686C232.549 2.84276 233.179 2.75865 233.243 2.75865C233.308 2.75865 233.744 2.85958 234.132 2.92686C234.52 2.99414 235.764 3.06143 236.087 3.16235C236.41 3.26328 237.218 3.58287 237.331 3.41466C237.444 3.24646 238.009 3.04461 238.235 3.04461C238.462 3.04461 239.334 2.6409 239.819 2.60726C240.303 2.57362 242.258 2.5568 243.034 2.50634C243.809 2.4727 246.152 2.67455 246.507 2.74183C246.863 2.80911 247.88 2.38859 248.123 2.45588C248.365 2.52316 248.801 2.52316 248.963 2.5568C249.125 2.60726 250.239 2.40541 251.176 2.20356C251.176 2.20356 251.176 2.20356 252.033 2.28767C252.663 2.35495 252.663 2.35495 252.663 2.35495C253.18 2.11946 254.004 2.069 254.504 2.22038C254.504 2.22038 254.504 2.22038 254.957 2.25403C255.425 2.28767 255.425 2.28767 255.425 2.28767C255.942 2.13628 256.637 2.18674 256.976 2.42223C257.316 2.65773 258.786 1.8335 259.561 1.69894C259.561 1.69894 259.561 1.69894 260.207 2.13628C260.256 2.16992 260.498 2.08582 260.579 2.00171C260.692 1.86715 260.692 1.86715 260.692 1.86715C260.757 1.68212 261.031 1.48027 261.29 1.39616C261.548 1.31206 262.453 1.6653 262.792 1.76622C263.132 1.85032 264.392 1.81668 264.715 1.90079C265.038 1.98489 265.749 1.85032 266.007 1.81668C266.25 1.78304 267.381 1.91761 267.833 2.00171C268.285 2.08582 269.917 1.73258 270.434 1.8335C270.434 1.8335 270.434 1.8335 270.644 1.68212C271.307 1.17749 271.533 2.03535 271.937 1.90079C272.373 1.76622 272.373 1.76622 272.373 1.76622C272.777 1.46344 273.407 1.17749 273.762 1.11021C274.118 1.04292 275.475 1.19431 275.814 1.26159C276.17 1.32888 277.414 1.29524 277.753 1.19431C278.092 1.09339 279.304 1.29524 279.627 1.4298C279.95 1.56437 281.194 1.4298 281.84 1.29524C281.84 1.29524 281.84 1.29524 282.519 1.53073C282.987 1.69894 283.682 1.68212 284.054 1.14385L285.443 0.925178C286.897 1.41298 288.4 1.31206 289.821 0.992461C290.371 0.874715 290.871 1.6653 291.421 0.908357C291.582 0.672865 292.503 0.790611 293.069 0.824252C293.392 0.841073 293.392 0.841073 293.392 0.841073C293.731 0.992461 294.135 1.05974 294.296 1.00928C294.458 0.941999 294.862 0.77379 295.185 0.588761C295.508 0.403731 296.397 1.07657 296.688 1.0261C296.995 0.992461 297.721 0.672865 297.867 0.639223C298.012 0.605581 298.675 0.941998 298.998 1.12703C298.998 1.12703 298.998 1.12703 299.305 1.12703C299.612 1.12703 299.903 0.874715 300.226 0.790611C300.759 0.656044 300.759 0.656044 300.759 0.656044C301.308 0.841073 301.89 1.0261 302.051 1.05974C302.213 1.11021 302.617 0.958819 302.811 0.857894C303.004 0.756969 303.699 0.992461 303.861 0.958819C303.861 0.958819 303.861 0.958819 303.99 0.874715C304.168 0.77379 304.313 0.504656 304.459 0.504656C304.83 0.538298 305.202 0.77379 305.557 0.756969C306.01 0.723327 306.446 0.471014 306.914 0.420552C307.318 0.370089 307.318 0.370089 307.318 0.370089C307.754 0.454194 308.417 0.403731 308.756 0.269164C308.756 0.269164 308.756 0.269164 309.111 0.521477C309.338 0.689686 309.338 0.689686 309.338 0.689686C309.725 0.723327 310.517 0.77379 311.066 0.824252C311.616 0.874715 313.328 0.521477 313.7 0.689686C314.071 0.857894 316.123 0.622402 317.432 0.874715C317.432 0.874715 317.432 0.874715 318.66 0.403731C319.015 0.269164 319.597 0.252343 319.936 0.403731C320.534 0.656044 320.534 0.656044 320.534 0.656044C321.099 0.504656 321.826 0.218702 322.165 0.0168514C322.165 0.0168514 322.165 0.0168514 322.472 0.0168514C322.779 0.0168514 323.086 0.235523 323.377 0.38691C323.539 0.471014 323.539 0.471014 323.539 0.471014C323.7 0.58876 324.686 0.740148 325.752 0.824252C326.818 0.908357 329.484 0.0673139 329.549 0.100956C329.613 0.134597 329.743 0.285985 329.839 0.353269C329.936 0.420552 330.76 0.336448 331.229 0.269164C331.697 0.201881 333.345 0.0673139 333.798 0.117777C334.25 0.168239 335.688 0.622402 336.06 0.77379C336.431 0.925178 337.594 0.538298 337.885 0.740148C338.176 0.941998 339.485 0.252343 340.066 3.05176e-05C340.066 3.05176e-05 340.066 3.05677e-05 340.729 0.538298C341.019 0.77379 341.019 0.77379 341.019 0.77379C341.892 0.555119 343.265 0.353269 344.073 0.336448C344.073 0.336448 344.073 0.336448 344.8 0.370089C345.559 0.403731 345.559 0.403731 345.559 0.403731C346.367 0.57194 347.466 0.454194 347.999 0.134597C347.999 0.134597 347.999 0.134597 348.693 0.639223C349.243 1.0261 349.857 -0.0840737 350.584 0.454194C351.198 0.908357 351.715 0.807432 352.248 0.353269C352.28 0.319627 352.393 0.336448 352.458 0.353269C352.959 0.538298 352.959 0.538298 352.959 0.538298C353.508 0.605581 354.122 0.706506 354.332 0.756969C354.542 0.824252 355.527 0.471014 355.996 0.353269C355.996 0.353269 355.996 0.353269 356.4 0.370089C357.24 0.403731 357.24 0.403731 357.24 0.403731C358.161 0.38691 359.679 0.353269 360.633 0.319627C360.633 0.319627 360.633 0.319627 361.505 0.353269C362.054 0.370089 362.054 0.370089 362.054 0.370089C362.652 0.521477 363.379 0.672865 363.686 0.723327C363.993 0.77379 364.736 0.538298 364.962 0.471014C365.205 0.403731 365.948 0.723327 366.158 0.756969C366.158 0.756969 366.158 0.756969 366.19 0.706506C366.643 0.0168514 366.643 0.0168514 366.643 0.0168514C367.127 0.504656 368.646 0.689686 368.872 0.891536Z" fill="#E5D6BF"/>
</g>
<defs>
<clipPath id="clip0_160_334">
<rect width="407" height="20" fill="white"/>
</clipPath>
</defs>
</svg>
