<svg width="60" height="60" viewBox="0 0 60 60" fill="none" xmlns="http://www.w3.org/2000/svg">
<g clip-path="url(#clip0_160_532)">
<path d="M30.9334 0.0590612C31.0391 0.0728386 31.1447 0.0872721 31.2503 0.101049C31.2713 0.105642 31.2923 0.110234 31.3139 0.114171C31.375 0.158127 31.4412 0.168624 31.5134 0.149598C31.5829 0.164032 31.6525 0.178465 31.7214 0.192243C31.7778 0.245384 31.846 0.254569 31.9195 0.243416C32.1255 0.309679 32.3341 0.370037 32.5382 0.442205C34.4709 1.12189 36.0245 2.34414 37.3911 3.83407C38.078 4.58265 38.6645 5.40864 39.2596 6.22938C39.253 6.2694 39.2714 6.29039 39.3088 6.29826C40.1171 7.58678 40.8355 8.92385 41.4876 10.2977C41.5584 10.5535 41.6628 10.7949 41.8032 11.0206C42.0079 11.5599 42.2086 12.1005 42.4205 12.6372C42.4947 12.8248 42.4796 12.9062 42.2506 12.9272C41.9586 12.9534 41.6706 13.0216 41.3813 13.0781C38.8587 13.5681 36.3125 13.8588 33.7493 14.0162C32.9876 14.0628 32.2252 14.1022 31.4629 14.1448C31.3966 14.1022 31.329 14.1081 31.2602 14.1376C31.1519 14.1094 31.0443 14.1094 30.9361 14.1376C30.7583 14.1028 30.5811 14.0917 30.4046 14.1442C29.4442 14.1297 28.4837 14.116 27.5232 14.1015C27.4143 14.0996 27.3054 14.0976 27.1965 14.0956C26.2314 14.0215 25.2663 13.9395 24.3006 13.8739C23.0068 13.7866 21.7275 13.5786 20.4423 13.4245C19.9384 13.3418 19.4339 13.2598 18.93 13.1771C18.8493 13.1194 18.7568 13.1233 18.6643 13.126C18.6204 13.1148 18.5764 13.1043 18.5324 13.0932C18.2346 13.0341 17.9394 12.9547 17.6382 12.9239C17.4224 12.9016 17.4145 12.8242 17.4814 12.6569C17.692 12.1333 17.8915 11.6052 18.1027 11.0823C18.56 9.95256 19.1262 8.8753 19.6845 7.7941C20.3025 6.75882 20.9704 5.7557 21.6855 4.78472C21.9611 4.4698 22.2412 4.15752 22.5115 3.83801C22.6873 3.63004 22.9222 3.47127 23.0337 3.21015C23.4812 2.9392 23.8053 2.52391 24.212 2.20571H24.2133C25.1036 1.53521 26.0326 0.932287 27.0876 0.547175C28.279 0.112203 29.4986 -0.114141 30.7707 0.0584051C30.8245 0.0649658 30.8796 0.0590612 30.9334 0.0590612Z" fill="#689F4E"/>
<path d="M21.8315 55.397C20.4433 53.6053 19.303 51.6653 18.3865 49.5935C18.3078 49.4157 18.2244 49.2405 18.1431 49.064C18.1359 48.9649 18.0932 48.881 18.0322 48.8049C17.8912 48.4316 17.7435 48.0609 17.611 47.685C17.5448 47.498 17.4155 47.3261 17.4523 47.1096C17.5795 47.1175 17.7022 47.0984 17.8157 47.0374C19.7301 46.6871 21.6544 46.4056 23.5871 46.178C24.8763 46.0874 26.1655 45.9969 27.4547 45.9064C28.2629 45.8906 29.0712 45.8742 29.8801 45.8585C30.2764 45.867 30.6727 45.8762 31.0689 45.8847C31.5492 45.8945 32.0288 45.9044 32.509 45.9149C32.6186 45.9529 32.7294 45.9431 32.8403 45.9241C32.9013 45.9582 32.965 45.9667 33.0319 45.9431C33.5357 45.9733 34.0403 46.0034 34.5441 46.0336C35.5282 46.1242 36.5117 46.2147 37.4958 46.3052C37.5738 46.3669 37.665 46.3604 37.7556 46.3544C38.2804 46.424 38.8059 46.4935 39.3308 46.5631C39.5663 46.5998 39.8018 46.6359 40.0367 46.6726C40.0866 46.6779 40.1358 46.6831 40.1856 46.6884C40.265 46.7455 40.3536 46.7599 40.4481 46.7474C40.513 46.7533 40.578 46.7599 40.6429 46.7658C40.6541 46.7875 40.6718 46.796 40.6954 46.792C41.2918 46.9167 41.8993 46.9849 42.4852 47.1581C42.1302 48.2256 41.6618 49.2464 41.2144 50.2751C41.0976 50.445 41.0228 50.6346 40.9605 50.8295C40.9086 50.9115 40.8489 50.9902 40.8056 51.0768C40.206 52.2787 39.5158 53.4255 38.7318 54.5166C38.2817 55.1431 37.7733 55.7224 37.2832 56.3162C37.1507 56.4126 37.0339 56.5241 36.944 56.6619C36.5248 57.0411 36.1062 57.4203 35.687 57.8002C35.256 58.0974 34.8315 58.4058 34.3913 58.6892C33.5672 59.2199 32.652 59.5401 31.7198 59.8189C31.6765 59.8235 31.6332 59.8281 31.5892 59.8327C30.9633 59.9652 30.3263 59.9685 29.6912 60.0007C29.6256 59.9967 29.5593 59.9928 29.4937 59.9888C29.3179 59.977 29.1421 59.9652 28.9656 59.9534C28.9229 59.9462 28.8809 59.9383 28.8383 59.9305C26.1852 59.485 24.1632 57.9937 22.4108 56.0531C22.2888 55.9179 22.1996 55.7461 22.0172 55.6726C21.9555 55.5807 21.9529 55.4489 21.8315 55.397Z" fill="#689F4E"/>
<path d="M59.5112 24.9988C59.5223 25.0395 59.5328 25.0801 59.544 25.1208C59.5604 25.5453 59.6096 25.9658 59.7054 26.3798C59.7146 26.4408 59.7238 26.5018 59.7329 26.5629C59.7821 27.1966 59.8307 27.8304 59.8799 28.4641C59.876 28.6465 59.872 28.8289 59.8681 29.0106C57.5627 29.008 55.2572 29.0028 52.9518 29.0041C51.1601 29.0047 49.3684 29.0126 47.5773 29.0179C47.5196 29.0185 47.4625 29.0185 47.4048 29.0192C47.3798 29.0198 47.3549 29.0205 47.33 29.0205C47.3169 29.0061 47.3018 29.0047 47.2867 29.0166C47.1699 28.741 47.2217 28.4497 47.2139 28.165C47.2021 27.7353 47.1883 27.3068 47.0767 26.8883C47.0826 26.8483 47.0886 26.8089 47.0945 26.7689C47.2021 26.4212 47.1227 26.0708 47.0977 25.7238C46.996 24.3021 46.8242 22.8876 46.6234 21.477C46.4568 20.3053 46.2704 19.1349 45.9739 17.9861L45.9673 17.9703C45.9142 17.5675 45.8282 17.1719 45.6951 16.7875C45.7056 16.7133 45.7069 16.6412 45.6413 16.5874C45.6439 16.5303 45.6419 16.4752 45.5724 16.4555C45.5711 16.4135 45.5704 16.3715 45.5691 16.3295C45.5284 16.2173 45.4884 16.1045 45.4477 15.9923C45.4392 15.951 45.4307 15.9096 45.4221 15.869C45.4792 15.4169 45.226 15.0331 45.1295 14.6159C45.0672 14.3449 45.1459 14.2885 45.3664 14.2347C46.6864 13.9106 47.9946 13.5445 49.2883 13.1292C50.2895 12.8077 51.2972 12.506 52.2636 12.0854C52.7156 11.9752 53.1395 11.7863 53.5653 11.6045C53.9425 11.9089 54.136 12.3629 54.4641 12.708C54.5592 12.9121 54.6957 13.0879 54.8393 13.2585C55.2199 13.8686 55.6004 14.4788 55.9809 15.0889C56.3621 15.823 56.7426 16.5578 57.1238 17.292C57.3586 17.8503 57.606 18.404 57.8244 18.9689C58.0816 19.6361 58.3132 20.3132 58.556 20.9863C58.5455 21.0394 58.5533 21.0854 58.6039 21.1162C58.613 21.1601 58.6216 21.2041 58.6307 21.2481C58.6216 21.3032 58.6373 21.3478 58.6839 21.3806C58.8774 22.1711 59.0775 22.9611 59.2632 23.7536C59.359 24.1656 59.4292 24.5835 59.5112 24.9988Z" fill="#96644D"/>
<path d="M0.285389 25.7087C0.439565 24.8788 0.593741 24.0482 0.747261 23.2182C0.751853 23.1743 0.756446 23.131 0.761038 23.087C0.998535 22.2774 1.22357 21.4646 1.47746 20.6602C1.67297 20.0416 1.90391 19.4347 2.11975 18.8226C2.1788 18.6415 2.3192 18.4952 2.33888 18.2977C2.41105 18.2289 2.41958 18.1331 2.44385 18.0445C2.52389 17.9448 2.56785 17.8293 2.5954 17.7066C2.84865 17.1923 3.09336 16.6727 3.3571 16.1636C3.98823 14.9479 4.72106 13.7938 5.4821 12.6569C5.74453 12.3065 6.00695 11.9562 6.27004 11.6065C6.99434 11.8427 7.68583 12.1714 8.42194 12.3761C8.80443 12.5552 9.20397 12.6864 9.61336 12.7881C9.78394 12.8478 9.95517 12.9075 10.1257 12.9678L10.1297 12.9692C10.5653 13.1069 10.9996 13.2486 11.4366 13.3818C12.4876 13.7026 13.5458 13.9985 14.6172 14.2446C14.7819 14.2826 14.8796 14.3213 14.8068 14.5463C14.4683 15.5928 14.2078 16.6615 13.9696 17.7342C13.6344 19.2451 13.3739 20.7691 13.162 22.3024C12.9901 23.5437 12.8734 24.7882 12.8169 26.0393C12.7828 26.101 12.7881 26.164 12.8117 26.2276C12.7664 26.2906 12.7651 26.3588 12.7881 26.4297C12.7848 26.475 12.7815 26.5196 12.7789 26.5648C12.6883 27.2839 12.6962 28.0075 12.6844 28.7299C12.6188 28.8145 12.7343 28.9752 12.565 29.0172C12.4561 29.0126 12.3472 29.0041 12.2383 29.0041C10.1395 29.0035 8.04076 29.0015 5.94135 29.0034C4.10501 29.0054 2.26868 29.0126 0.432349 29.0179C0.343779 29.0179 0.254554 29.0179 0.165985 29.0179C0.144991 29.0074 0.124653 29.0074 0.104315 29.0192C0.0695432 29.0139 0.0347716 29.008 0 29.0028C0.00984101 28.7804 0.019026 28.558 0.028867 28.3349C0.114156 27.4597 0.200101 26.5845 0.285389 25.7087Z" fill="#96644D"/>
<path d="M59.7888 33.054C59.6215 34.1057 59.4535 35.1567 59.2862 36.2084C59.2469 36.3836 59.2075 36.5581 59.1688 36.7332C59.1629 36.7759 59.1563 36.8185 59.1504 36.8618C59.0953 36.9176 59.0789 36.9852 59.092 37.0613C59.0684 37.1682 59.0448 37.2758 59.0212 37.3827C59.0094 37.3965 59.0081 37.4116 59.0159 37.428C58.9812 37.4982 58.9372 37.5651 58.951 37.6491C58.9444 37.6911 58.9379 37.7331 58.9313 37.7751C58.7292 38.3832 58.5101 38.9855 58.3638 39.6107C58.0981 40.3127 57.8324 41.0147 57.5673 41.7167C56.9638 43.0302 56.3254 44.3259 55.5913 45.5724C54.9601 46.4962 54.3296 47.4193 53.6985 48.343C53.5804 48.4539 53.4781 48.3522 53.3737 48.3148C52.8482 48.1245 52.3247 47.9303 51.7998 47.7375C51.3229 47.5524 50.8492 47.3596 50.3512 47.2356C49.1034 46.7921 47.8359 46.4122 46.552 46.0888C46.4759 46.0304 46.384 46.0369 46.2961 46.0264C45.9024 45.9044 45.5068 45.7916 45.1007 45.7207C45.0942 45.6603 45.0876 45.6 45.0811 45.5396C45.1171 45.4045 45.1526 45.2693 45.1887 45.1342C45.2418 45.1001 45.2379 45.0489 45.2287 44.9964C45.2379 44.9551 45.2464 44.9131 45.2549 44.8718C45.329 44.8002 45.3238 44.7064 45.3264 44.6146C45.724 43.3425 46.0153 42.0448 46.2351 40.7313C46.2803 40.6723 46.2882 40.606 46.2738 40.5358C46.2771 40.5142 46.2803 40.4932 46.283 40.4715C46.2974 40.4269 46.3112 40.3829 46.3256 40.3383C46.3355 40.2517 46.3453 40.1651 46.3545 40.0792C46.4385 39.8456 46.468 39.6022 46.4791 39.3562C46.6766 38.3813 46.8091 37.3972 46.8747 36.4045C46.8826 36.3422 46.8898 36.2799 46.8977 36.2169C46.9456 35.5786 47.0788 34.9481 47.0709 34.3045C47.1359 34.2008 47.1175 34.0867 47.1116 33.9745C47.1726 33.1229 47.2179 32.2707 47.2159 31.4165C47.2868 31.2734 47.1936 31.1068 47.2808 30.9657C51.4725 30.9644 55.6647 30.9638 59.8563 30.9625C59.8708 31.0058 59.8852 31.0497 59.8997 31.093C59.8655 31.7045 59.8308 32.3159 59.7966 32.9274C59.7934 32.9687 59.7914 33.0114 59.7888 33.054Z" fill="#96644D"/>
<path d="M0.334592 34.624C0.203378 33.4968 0.0373931 32.3743 0.0144308 31.2367C0.0098383 31.0136 0.0623237 30.9657 0.277514 30.9657C4.31889 30.9716 8.35961 30.9723 12.401 30.9631C12.6385 30.9625 12.6549 31.0491 12.6634 31.2446C12.7093 32.3343 12.7697 33.4234 12.8287 34.5118C12.8346 34.6194 12.8648 34.7257 12.8839 34.8326C12.8865 34.8746 12.8898 34.9166 12.8924 34.9586C12.893 35.0675 12.8871 35.1764 12.8963 35.2846C12.9895 36.4577 13.1391 37.6235 13.3195 38.7861C13.4376 39.5484 13.538 40.3134 13.742 41.06C13.7381 41.1964 13.7361 41.3323 13.8161 41.453C13.8509 41.9936 14.0451 42.5007 14.1533 43.0256C14.2078 43.246 14.2622 43.4664 14.3174 43.6875C14.4755 44.2839 14.6244 44.8835 14.7969 45.476C14.8468 45.6466 14.8271 45.6951 14.65 45.7377C14.049 45.8821 13.4494 46.0363 12.8563 46.2108C11.8361 46.5106 10.8021 46.7678 9.80886 47.1562C9.66387 47.1575 9.53594 47.21 9.41522 47.2848C8.65615 47.5032 7.91545 47.7735 7.18853 48.0819C7.08684 48.0806 7.00024 48.1226 6.91823 48.177C6.81588 48.2131 6.70304 48.2315 6.61316 48.2879C6.36385 48.4447 6.21755 48.3568 6.06731 48.1311C5.84425 47.7965 5.58707 47.4842 5.34498 47.1621C5.23017 46.9193 5.06878 46.7081 4.90017 46.5014C4.48816 45.8211 4.0768 45.1401 3.66479 44.4597C3.66151 44.4086 3.65495 44.3587 3.60246 44.3318C3.5795 44.2872 3.55588 44.2419 3.53292 44.1973C3.51061 44.1553 3.48765 44.1133 3.46535 44.0707C3.3958 43.9408 3.32626 43.8115 3.25737 43.6816C3.25803 43.6259 3.24425 43.5773 3.18914 43.5504C3.16684 43.5065 3.14453 43.4632 3.12222 43.4192C3.10976 43.3536 3.12288 43.2703 3.01856 43.2677L3.01135 43.2604C3.05006 43.2224 3.03956 43.1896 3.00019 43.1607C2.61771 42.2645 2.23522 41.3677 1.85273 40.4715C1.81796 40.3331 1.79303 40.1914 1.69528 40.0785C1.69134 40.0464 1.69331 40.0116 1.68281 39.9821C1.11859 38.4036 0.732825 36.7785 0.410696 35.137C0.397574 35.078 0.383797 35.0189 0.370675 34.9605C0.362803 34.8733 0.35493 34.786 0.347713 34.6988C0.350993 34.6902 0.358866 34.6797 0.356898 34.6725C0.35165 34.6561 0.342465 34.6404 0.334592 34.624Z" fill="#96644D"/>
<path d="M17.8396 2.54161C18.0955 2.42418 18.3829 2.37628 18.6086 2.19324C19.1262 2.05416 19.6209 1.85143 20.1109 1.63821C20.1549 1.63034 20.1982 1.62246 20.2422 1.61459C21.0071 1.37972 21.7715 1.14485 22.5364 0.909973C22.5994 0.923751 22.7188 0.911285 22.6132 1.02413C22.5069 1.13697 22.3829 1.23341 22.2668 1.33707C21.3424 2.16044 20.5177 3.07303 19.8092 4.08862C19.7363 4.12995 19.6878 4.189 19.672 4.27298C19.3132 4.68761 19.0206 5.14883 18.7437 5.62054C18.583 5.82982 18.434 6.04567 18.3304 6.29038C17.1783 8.1733 16.2815 10.175 15.5611 12.2586C15.5067 12.3262 15.4955 12.4325 15.3886 12.4535C15.1583 12.3492 14.9149 12.2927 14.6649 12.2632C14.6347 12.2048 14.5836 12.2101 14.5311 12.218C13.9065 12.052 13.2826 11.8866 12.658 11.7207C12.5504 11.6478 12.4238 11.6432 12.3011 11.6249C12.2578 11.6196 12.2145 11.6137 12.1712 11.6085C12.145 11.5507 12.0938 11.5442 12.0393 11.5442C11.9619 11.5094 11.8871 11.4635 11.8064 11.4405C10.3985 11.0344 9.0234 10.5319 7.64697 10.0326C8.02487 9.49724 8.50773 9.05768 8.97289 8.60499C9.57188 8.02109 10.1965 7.46343 10.8099 6.89462C11.1261 6.67221 11.4345 6.43865 11.7166 6.1736C11.7389 6.15655 11.7618 6.14014 11.7841 6.12309C11.8589 6.06798 11.9337 6.01221 12.0092 5.9571L12.0295 5.94201C12.1102 5.88165 12.1902 5.82129 12.2709 5.76094L12.2716 5.76159C13.5562 4.85294 14.8906 4.02498 16.2874 3.30003C16.7998 3.03235 17.3227 2.79289 17.8396 2.54161Z" fill="#96644D"/>
<path d="M38.2824 1.16714C38.9798 1.39807 39.6772 1.62967 40.3746 1.8606C40.4783 1.91571 40.5819 1.97279 40.7046 1.97082C41.3817 2.26146 42.0581 2.55144 42.7352 2.84208C43.6556 3.33675 44.5761 3.83208 45.4959 4.32676C45.5746 4.38384 45.6507 4.44551 45.7334 4.49668C47.5736 5.64086 49.2716 6.96546 50.8179 8.48557C51.1984 8.85953 51.5455 9.26301 51.9214 9.63894C52.3046 10.0221 52.3249 10.0011 51.8387 10.1868C50.8848 10.522 49.9309 10.8566 48.977 11.1918C48.3524 11.3388 47.7468 11.5474 47.138 11.7469C46.9792 11.7679 46.8211 11.7928 46.6821 11.882C46.6092 11.8768 46.539 11.882 46.4806 11.9339C46.4288 11.9221 46.3868 11.9385 46.3527 11.9778C46.1716 11.9831 46.0063 12.0434 45.8443 12.1169L45.8265 12.1182C45.4349 12.1609 45.0589 12.279 44.6824 12.3846C44.4862 12.4397 44.4147 12.4174 44.3386 12.2061C43.9784 11.2142 43.6176 10.2209 43.1334 9.28007C43.1393 9.25973 43.134 9.24333 43.117 9.23021C43.0966 9.18625 43.077 9.14229 43.0566 9.09834C42.9884 8.89102 42.8959 8.69551 42.7739 8.51509C42.7443 8.46064 42.7148 8.40553 42.6859 8.35108L42.6774 8.3268C41.6336 6.14275 40.3208 4.13847 38.6846 2.34937C38.2385 1.86126 37.7444 1.42235 37.2373 0.957197C37.4479 0.879781 37.5876 1.05364 37.7549 1.02608C37.9308 1.07201 38.1066 1.1199 38.2824 1.16714Z" fill="#96644D"/>
<path d="M17.3342 57.236C16.2746 56.7085 15.2348 56.1436 14.2093 55.5518C12.5206 54.4746 10.9369 53.2609 9.4594 51.9087C8.93783 51.3845 8.41626 50.8597 7.89468 50.3355C7.88615 50.1832 7.42625 50.0711 7.85466 49.8801C7.92683 49.8887 7.99244 49.8795 8.03574 49.8113C8.24371 49.7594 8.45496 49.7188 8.63079 49.5829L8.65047 49.5902C8.70952 49.5685 8.76856 49.5469 8.82761 49.5252C9.55584 49.3002 10.2847 49.0771 10.9926 48.793C11.8009 48.5529 12.6098 48.3128 13.4181 48.0733C13.5841 48.0556 13.7488 48.032 13.8944 47.9388C13.9161 47.9342 13.9377 47.9297 13.9594 47.9251C14.0657 47.9388 14.1628 47.9133 14.252 47.8542C14.58 47.7768 14.9113 47.7079 15.2361 47.618C15.4513 47.5583 15.5116 47.658 15.5779 47.8398C16.2792 49.7785 17.1203 51.6528 18.1549 53.44C19.3286 55.4672 20.7241 57.3154 22.4797 58.8775C22.5178 58.9116 22.5571 58.945 22.5788 59.0113C22.1038 59.0113 21.6767 58.8335 21.2411 58.7069C20.7917 58.5763 20.3501 58.4182 19.9092 58.2621C19.4782 58.1092 19.0491 57.9491 18.6247 57.7792C18.191 57.606 17.7639 57.4177 17.3342 57.236Z" fill="#96644D"/>
<path d="M43.9521 48.814C44.0335 48.5916 44.1148 48.3699 44.1962 48.1475C44.2336 48.0707 44.2926 47.9966 44.3038 47.9165C44.349 47.5839 44.5321 47.5655 44.8057 47.6515C45.051 47.7289 45.3082 47.7676 45.5601 47.8234C45.6625 47.8588 45.7635 47.9014 45.8678 47.9283C46.8473 48.1783 47.8118 48.4781 48.7801 48.7694C49.8101 49.0791 50.806 49.4845 51.8328 49.8001C51.9489 49.9169 52.1484 49.8828 52.2573 50.0166C52.1799 50.1183 52.1103 50.2095 52.0408 50.3007C51.88 50.4365 51.7193 50.5723 51.615 50.7606C51.5677 50.7704 51.5336 50.794 51.5258 50.8452C51.1111 51.2546 50.6971 51.6633 50.2825 52.0727C49.4237 52.8108 48.5518 53.5331 47.6589 54.2292C47.5953 54.2706 47.531 54.3099 47.4686 54.3532C46.2228 55.2317 44.9329 56.036 43.5709 56.7256C42.8237 57.1041 42.058 57.4407 41.3003 57.7943C41.2439 57.7851 41.2019 57.8094 41.1678 57.852C41.1212 57.8678 41.0739 57.8842 41.0274 57.8999C40.6068 58.0547 40.1863 58.2096 39.7657 58.3644C39.0966 58.5691 38.4274 58.7738 37.7582 58.9791C37.6001 59.0566 37.4439 59.1458 37.2222 59.0579C37.6729 58.6806 38.0882 58.2745 38.489 57.8546C39.2855 57.0208 40.0275 56.143 40.6429 55.1635C41.3665 54.163 41.9878 53.1014 42.5258 51.9907C42.5258 51.9907 42.5265 51.9855 42.5258 51.9855C42.8237 51.4718 43.0815 50.939 43.2855 50.3801C43.5578 49.8801 43.7599 49.3494 43.9521 48.814Z" fill="#96644D"/>
<path d="M14.9548 36.2123C14.8846 35.4873 14.8151 34.7617 14.7449 34.0368C14.7416 33.9731 14.7377 33.9095 14.7344 33.8452C14.7049 33.0173 14.6872 32.188 14.6386 31.3607C14.6222 31.0832 14.636 30.9605 14.9785 30.9605C24.9658 30.971 34.9524 30.971 44.9398 30.9638C45.2009 30.9638 45.2737 31.0274 45.2593 31.2872C45.2291 31.8317 45.2324 32.3776 45.2219 32.9234C45.1792 32.9621 45.1851 33.01 45.1956 33.0592C45.1274 33.9718 45.0743 34.8857 44.987 35.7964C44.8171 37.5631 44.5245 39.3135 44.2082 41.0593C44.1977 41.1033 44.1872 41.1472 44.1767 41.1912C44.1682 41.2404 44.1597 41.2896 44.1518 41.3388C44.1072 41.3933 44.0895 41.4543 44.102 41.5245C44.0908 41.5901 44.0797 41.6557 44.0685 41.7206C43.894 42.42 43.7195 43.1194 43.545 43.8181C43.4249 44.2354 43.3081 44.6539 43.1815 45.0686C43.1546 45.1558 43.1585 45.2713 42.9761 45.2345C42.1324 45.0626 41.2868 44.8999 40.4372 44.7622C39.7437 44.65 39.0509 44.5253 38.3476 44.4873C38.3089 44.4702 38.2702 44.4532 38.2321 44.4361C38.1114 44.4302 37.9907 44.4236 37.87 44.4177C37.87 44.4177 37.87 44.4177 37.87 44.4184C37.8352 44.3961 37.8024 44.3574 37.7663 44.3541C37.1719 44.3036 36.5769 44.2583 35.9818 44.2117C35.8578 44.1396 35.7233 44.1632 35.5908 44.1704C35.5481 44.1684 35.5055 44.1671 35.4629 44.1651C35.3959 44.1599 35.329 44.1547 35.2621 44.1501C34.4361 44.0254 33.6016 43.9972 32.7704 43.9637C30.9419 43.8903 29.1115 43.883 27.2824 43.9559C27.098 43.9631 26.915 43.9637 26.7378 44.0241C26.6932 44.0234 26.6492 44.0234 26.6046 44.0228C26.3868 44.0234 26.169 44.0241 25.9505 44.0248C25.9059 44.0293 25.8613 44.0333 25.8167 44.0379C25.0668 44.0864 24.3156 44.1166 23.5729 44.2386C23.5356 44.2439 23.4975 44.2498 23.4601 44.255C22.0259 44.3456 20.6101 44.5824 19.1944 44.814C19.1228 44.8009 19.0559 44.8107 18.9942 44.8514C18.31 44.9531 17.627 45.0633 16.9598 45.2536C16.7853 45.3113 16.738 45.1958 16.7019 45.064C16.6357 44.8212 16.5694 44.5791 16.5032 44.3364C16.1331 42.9258 15.7959 41.5081 15.5132 40.0772C15.4836 39.8338 15.4626 39.5884 15.3813 39.3542C15.3314 38.8234 15.252 38.2979 15.1326 37.7777C15.1523 37.5979 15.1202 37.4247 15.0611 37.2554C15.0578 37.1898 15.0546 37.1249 15.0513 37.0593C15.067 36.9917 15.0664 36.9261 15.025 36.8657C15.0165 36.8205 15.0073 36.7752 14.9988 36.7293C14.9962 36.6853 14.9929 36.642 14.9903 36.5981C14.9824 36.4839 14.9745 36.3691 14.9673 36.2549C14.9778 36.2372 14.9745 36.2228 14.9548 36.2123Z" fill="#689F4E"/>
<path d="M45.239 29.008C37.5696 29.0074 29.9008 29.0067 22.2314 29.0061C19.8059 29.0061 17.3811 28.9988 14.9556 29.0107C14.6663 29.012 14.6013 28.9286 14.6427 28.661C14.6722 28.4694 14.6472 28.27 14.6466 28.0744C14.6499 28.0298 14.6538 27.9852 14.6571 27.9406C14.6617 27.7221 14.6656 27.5037 14.6702 27.2852C14.6702 27.2419 14.6702 27.1986 14.6702 27.1553C14.7594 26.6764 14.7411 26.1889 14.7765 25.706C14.8185 25.6457 14.8126 25.582 14.7916 25.5171C14.8099 25.2743 14.829 25.0316 14.8473 24.7895C14.8834 24.6832 14.9143 24.5763 14.8854 24.4621C14.9458 23.9327 15.0107 23.4032 15.0645 22.8731C15.1085 22.4421 15.2436 22.0196 15.1846 21.5794C15.1878 21.5361 15.1911 21.4928 15.1951 21.4495C15.3263 21.3583 15.239 21.231 15.2502 21.1201C15.2574 21.0788 15.2646 21.0368 15.2712 20.9955C15.3499 20.9686 15.3177 20.9095 15.3105 20.8584C15.3158 20.7967 15.321 20.7357 15.3263 20.674C15.3807 20.6399 15.4463 20.6077 15.3473 20.548C15.3656 20.5284 15.384 20.5087 15.4024 20.4883C15.5067 19.955 15.6104 19.4222 15.7147 18.8888C15.8649 18.2328 16.0151 17.5761 16.1654 16.92C16.3471 16.2711 16.5334 15.6236 16.7066 14.9728C16.7526 14.7989 16.8287 14.7438 17.0065 14.7838C18.2464 15.062 19.4976 15.2936 20.7552 15.4615C22.6112 15.7089 24.4725 15.9326 26.3476 15.9884C26.4538 16.0363 26.5627 16.0225 26.6716 16.0035C27.001 16.0205 27.3297 16.0376 27.659 16.0553C27.9641 16.0796 28.2685 16.1229 28.5756 16.0737C29.536 16.1327 30.4965 16.1366 31.457 16.0769C31.7194 16.096 31.9812 16.0828 32.2423 16.0494C32.3302 16.0422 32.4181 16.0343 32.5061 16.0271C32.552 16.0546 32.5979 16.054 32.6445 16.0284C32.8616 16.0199 33.0795 16.012 33.2966 16.0035C33.4062 16.0284 33.5151 16.0422 33.6194 15.9838C34.5635 15.9562 35.503 15.8617 36.4431 15.7797C36.7069 15.7469 36.9758 15.7555 37.2337 15.678C37.3052 15.6682 37.3767 15.6584 37.4476 15.6492C37.5506 15.6387 37.6536 15.6288 37.7566 15.6183C38.3313 15.5436 38.906 15.4694 39.4807 15.3946C39.5463 15.4051 39.6073 15.3986 39.6592 15.352C39.795 15.3454 39.9327 15.3572 40.0613 15.2975C40.0804 15.2929 40.0994 15.2877 40.1191 15.2831C40.3126 15.2562 40.5068 15.2345 40.6997 15.2011C41.5112 15.0587 42.3228 14.9131 43.1337 14.7687C43.1685 14.9911 43.2551 15.2004 43.2971 15.4228C43.3141 15.5153 43.2242 15.7095 43.4224 15.7509C43.566 16.3092 43.7189 16.8655 43.8514 17.4265C44.3022 19.3363 44.644 21.2651 44.8723 23.215C45.0639 24.8518 45.2062 26.4907 45.2325 28.1394C45.134 28.2063 45.1334 28.2726 45.2338 28.3382C45.2528 28.5337 45.2718 28.7299 45.2908 28.9254C45.2718 28.9509 45.2554 28.9792 45.239 29.008Z" fill="#689F4E"/>
</g>
<defs>
<clipPath id="clip0_160_532">
<rect width="59.899" height="60" fill="white"/>
</clipPath>
</defs>
</svg>
