<svg width="47" height="60" viewBox="0 0 47 60" fill="none" xmlns="http://www.w3.org/2000/svg">
<g clip-path="url(#clip0_160_568)">
<path d="M46.9687 2.9257C46.9687 0.25738 46.708 0 43.9628 0C29.9993 0.00168774 16.0367 0.0084387 2.07315 0.00168774C0.751648 0.00084387 0.0250757 0.52995 0.0512357 1.92149C0.0681131 2.84131 0.125496 3.77126 0.023388 4.68095C-0.116694 5.92059 0.355029 6.22692 1.56008 6.21848C8.81651 6.16363 16.073 6.19147 23.3294 6.19147C30.0981 6.19232 36.8676 6.19063 43.6371 6.19316C46.9696 6.19401 46.9696 6.19738 46.9687 2.9257ZM7.28067 2.97295C7.27729 2.98392 7.27476 2.99489 7.27223 3.00586C7.21232 3.25481 7.24438 3.52991 7.19544 3.78223C7.19459 3.78644 7.19375 3.78982 7.19291 3.79404C7.18194 3.84889 7.16675 3.90205 7.14565 3.95437C6.80051 5.0109 5.80643 5.77376 4.63514 5.77376C3.17777 5.77376 1.99551 4.59234 1.99551 3.13413C1.99551 1.67677 3.17777 0.494508 4.63514 0.494508C6.02499 0.494508 7.16422 1.56875 7.26801 2.93076C7.27307 2.94426 7.27645 2.95861 7.28067 2.97211C7.29839 2.96789 7.31611 2.96451 7.33299 2.96198C7.31611 2.96536 7.29839 2.96873 7.28067 2.97295ZM11.0123 5.77376C9.55406 5.77376 8.37264 4.59234 8.37264 3.13413C8.37264 1.67677 9.55406 0.494508 11.0123 0.494508C12.4705 0.494508 13.6519 1.67677 13.6519 3.13413C13.6519 4.59234 12.4705 5.77376 11.0123 5.77376ZM17.4493 5.77376C17.3987 5.77376 17.3489 5.77207 17.2991 5.76954H17.2966C17.2645 5.77207 17.2324 5.77376 17.2012 5.77376C17.0983 5.77376 16.9911 5.75266 16.8797 5.71216C16.8797 5.71216 16.8797 5.71216 16.8788 5.71131C15.6949 5.4514 14.8097 4.39656 14.8097 3.13413C14.8097 1.67677 15.9911 0.494508 17.4493 0.494508C18.9075 0.494508 20.0889 1.67677 20.0889 3.13413C20.0889 4.59234 18.9075 5.77376 17.4493 5.77376Z" fill="#96644D"/>
<path d="M46.9976 9.34245C47.0052 7.99817 46.5521 7.75935 45.3369 7.76273C30.7548 7.8007 16.1727 7.79986 1.58982 7.76442C0.428651 7.76104 0.00587261 7.98973 0.0117797 9.26398C0.0649435 19.9448 0.0379397 30.6274 0.0472222 41.3083C0.04891 43.1285 0.520633 43.5859 2.38559 43.596C5.80073 43.6145 9.21587 43.5934 12.631 43.6086C13.7196 43.6129 14.7171 43.569 15.7044 42.8838C16.7677 42.1454 17.9719 42.3698 19.0402 43.1462C19.4081 43.4145 19.6486 43.9369 20.3431 43.8095C20.3431 40.6247 20.3339 37.4349 20.3457 34.2442C20.355 31.7118 20.3609 31.8181 17.7077 31.6898C15.3187 31.5742 12.8631 32.332 10.5399 31.2206C10.5407 31.2223 10.5407 31.2248 10.5407 31.2265C9.54329 30.0502 8.93655 28.7532 9.68084 27.2384C10.4218 25.7321 11.7753 25.4106 13.3584 25.4199C20.2292 25.4612 27.1 25.4713 33.9708 25.4224C36.2357 25.4064 37.348 26.5296 37.5378 28.5118C37.6889 30.0941 35.8189 31.7438 33.9919 31.7675C31.7759 31.7961 29.5582 31.7691 27.3414 31.7658C26.8544 31.7649 26.3051 31.6468 26.4857 32.4831C26.8443 34.1421 26.6021 35.8256 26.63 37.4973C26.6426 38.2745 26.7591 38.6366 27.7194 38.5344C29.2603 38.3707 30.4392 39.0458 31.0451 40.5597C31.17 40.8737 31.2012 41.3623 31.781 41.1791C32.9143 40.8213 33.8788 41.3597 34.8653 41.7766C34.9649 41.8669 35.0644 41.9563 35.164 42.0466C35.3978 42.6618 35.6737 43.0441 36.4855 42.7732C37.0197 42.5951 37.8155 42.4981 38.2264 42.7698C40.2272 44.0913 42.4272 43.5116 44.5453 43.5833C46.5141 43.6491 46.9571 43.1597 46.9588 41.2247C46.9664 30.597 46.9377 19.9702 46.9976 9.34245ZM9.52219 13.7382L9.60152 13.8107C17.5693 13.7812 25.5363 13.7508 33.5041 13.7221C34.4796 13.7188 35.456 13.7078 36.4315 13.7289C36.9151 13.739 37.4737 13.734 37.5176 14.4209C37.5648 15.1812 37.002 15.2816 36.4332 15.3111C35.9463 15.3365 35.4577 15.323 34.9699 15.323C27.0553 15.323 19.1398 15.3238 11.2251 15.3213C10.2226 15.3204 9.08507 15.4487 9.59814 13.8099V13.8091L9.52219 13.7382ZM36.3995 21.1625C36.0206 21.1786 35.6408 21.1718 35.2611 21.1718H23.3878C19.3752 21.171 15.3635 21.1735 11.3509 21.1676C10.9196 21.1668 10.4842 21.1499 10.0589 21.0832C9.71038 21.0284 9.48844 20.782 9.4665 20.4115C9.4395 19.9533 9.69434 19.6942 10.1213 19.636C10.4952 19.5853 10.8774 19.5837 11.2555 19.5828C19.3887 19.5811 27.5211 19.582 35.6543 19.5828C35.9252 19.5828 36.1969 19.5744 36.467 19.587C36.9733 19.6098 37.5091 19.6689 37.5302 20.322C37.5539 21.0765 36.9648 21.1398 36.3995 21.1625Z" fill="#96644D"/>
<path d="M37.2937 44.2534C36.5511 44.2846 36.027 44.6188 35.9333 45.3774C35.854 46.0187 35.8869 46.6744 35.8726 47.3234C35.8625 47.7951 35.7426 48.2229 35.1924 48.255C34.5865 48.2904 34.3215 47.9006 34.3106 47.3352C34.2895 46.3065 34.303 45.277 34.2709 44.2491C34.2405 43.2787 33.6861 42.693 32.7452 42.7158C31.8127 42.7386 31.2777 43.3217 31.2828 44.3091C31.2887 45.4964 31.2878 46.6829 31.2895 47.8702C30.2617 48.6795 29.7064 48.4145 29.6853 47.1149C29.6583 45.3833 29.6811 43.6508 29.6718 41.9184C29.6668 40.9327 29.2516 40.1462 28.2128 40.1159C27.0854 40.083 26.6314 40.8374 26.6499 41.9378C26.6761 43.5074 26.6871 45.0787 26.6364 46.6466C26.6153 47.2896 26.7934 48.2761 25.7419 48.2103C24.8229 48.1537 25.0618 47.2457 25.0592 46.6449C25.0424 42.4762 25.039 38.3083 25.0694 34.1396C25.0778 32.9641 24.9622 31.7767 23.536 31.7641C22.1386 31.7514 21.9243 32.8839 21.9352 34.0915C21.969 37.8805 21.9403 41.6703 21.9513 45.4601C21.9538 46.2516 21.9884 47.0213 20.9234 47.1402C20.8011 47.0668 20.6787 46.9926 20.5572 46.9191C19.931 46.255 19.3108 45.585 18.6762 44.9285C17.8914 44.1166 16.9345 43.5487 16.04 44.5639C15.1615 45.5614 15.5792 46.5537 16.6197 47.2812C18.1125 49.0432 19.6053 50.8052 21.0998 52.5663C21.099 52.5672 21.0736 52.6195 21.0736 52.6195C21.369 53.3705 21.6998 54.1098 21.9504 54.8752C22.3352 56.0498 22.5369 57.3089 23.6407 58.1046C23.639 58.1055 23.6947 58.162 23.6947 58.162C24.6263 59.351 25.8997 59.8945 27.3579 59.9358C29.4136 59.9932 31.4777 60.0455 33.5283 59.9282C35.5469 59.8126 37.2759 58.9873 38.119 57.0025C39.7527 53.1511 38.8059 49.1191 38.7957 45.1614C38.7941 44.4263 38.0067 44.223 37.2937 44.2534Z" fill="#689F4E"/>
<path d="M35.6085 27.6392C35.3258 27.1 34.8718 27.0283 34.4009 27.0283C34.2296 27.0283 34.0566 27.0376 33.8878 27.0376C27.0086 27.03 20.1302 27.03 13.251 27.0418C12.6763 27.0426 12.0366 26.8899 11.6004 27.4688C10.8974 27.938 10.8012 28.5608 11.1194 29.3025C11.494 30.1734 12.2712 30.1928 13.0307 30.1936C19.0872 30.2038 25.1445 30.2012 31.2009 30.2012C32.2288 30.2012 33.2608 30.2561 34.2827 30.181C35.8515 30.0645 36.303 29.1498 35.6085 27.6392Z" fill="#96644D"/>
<path d="M7.27597 3.13413C7.27597 3.35775 7.24812 3.57463 7.1958 3.78222C7.24475 3.5299 7.21268 3.2548 7.27259 3.00586C7.27512 3.04805 7.27597 3.09109 7.27597 3.13413Z" fill="#96644D"/>
<path d="M4.66469 3.78221C5.02263 3.78221 5.31279 3.49205 5.31279 3.13412C5.31279 2.77618 5.02263 2.48602 4.66469 2.48602C4.30676 2.48602 4.0166 2.77618 4.0166 3.13412C4.0166 3.49205 4.30676 3.78221 4.66469 3.78221Z" fill="#96644D"/>
<path d="M11.0573 3.78221C11.4152 3.78221 11.7054 3.49205 11.7054 3.13412C11.7054 2.77618 11.4152 2.48602 11.0573 2.48602C10.6993 2.48602 10.4092 2.77618 10.4092 3.13412C10.4092 3.49205 10.6993 3.78221 11.0573 3.78221Z" fill="#96644D"/>
<path d="M17.4494 3.78221C17.8073 3.78221 18.0975 3.49205 18.0975 3.13412C18.0975 2.77618 17.8073 2.48602 17.4494 2.48602C17.0914 2.48602 16.8013 2.77618 16.8013 3.13412C16.8013 3.49205 17.0914 3.78221 17.4494 3.78221Z" fill="#96644D"/>
</g>
<defs>
<clipPath id="clip0_160_568">
<rect width="46.9977" height="60" fill="white"/>
</clipPath>
</defs>
</svg>
