<svg width="41" height="41" viewBox="0 0 41 41" fill="none" xmlns="http://www.w3.org/2000/svg">
<g clip-path="url(#clip0_160_1822)">
<path d="M0.000187588 8.80782C0.146826 8.80354 0.293465 8.79391 0.439034 8.79391C11.849 8.79284 23.259 8.79605 34.668 8.7832C35.0726 8.7832 35.171 8.87846 35.1625 9.27984C35.1346 10.6274 35.1475 11.9749 35.156 13.3225C35.1571 13.5462 35.1068 13.665 34.8788 13.7656C34.3768 13.9861 33.9733 14.3714 33.5248 14.6818C33.3814 14.7803 33.2776 14.8295 33.1031 14.7246C32.0809 14.1145 30.9902 13.6596 29.8364 13.3642C29.6384 13.3139 29.5666 13.2122 29.542 13.0078C29.4874 12.5583 29.4082 12.1119 29.3151 11.6688C29.1546 10.9014 28.5584 10.3994 27.7781 10.3234C26.8319 10.2314 25.8878 10.2303 24.9416 10.3223C24.1464 10.3994 23.5395 10.9196 23.3875 11.6998C23.3008 12.144 23.2173 12.5904 23.1638 13.0399C23.1402 13.2347 23.0621 13.3171 22.8876 13.361C21.7327 13.6532 20.6431 14.1092 19.6209 14.7203C19.4464 14.8252 19.3394 14.7888 19.1992 14.6839C18.8567 14.4292 18.5109 14.1798 18.1588 13.94C17.4202 13.437 16.671 13.4723 15.9902 14.0407C15.2924 14.6229 14.6469 15.2598 14.0647 15.9587C13.4653 16.6769 13.4289 17.425 13.9619 18.1946C14.1974 18.5339 14.4382 18.87 14.6865 19.1996C14.7936 19.342 14.8225 19.4501 14.7208 19.6214C14.1118 20.6446 13.6569 21.7342 13.3647 22.8901C13.3197 23.0667 13.2341 23.1438 13.0435 23.1673C12.6079 23.2209 12.1744 23.3011 11.742 23.3814C10.9349 23.5302 10.403 24.1349 10.3248 24.9441C10.2339 25.8903 10.2328 26.8343 10.3248 27.7805C10.4008 28.5618 10.8953 29.1505 11.6703 29.3153C12.1134 29.4095 12.5608 29.4844 13.0093 29.5422C13.2095 29.5679 13.3176 29.6343 13.3679 29.8366C13.659 30.9914 14.1193 32.0789 14.7219 33.1064C14.7936 33.2284 14.8246 33.3216 14.7294 33.4628C14.374 33.9916 13.9159 34.4529 13.6793 35.0598C13.6269 35.1946 13.4985 35.1475 13.4 35.1475C9.65052 35.1486 5.89999 35.1614 2.15053 35.1379C1.19899 35.1315 0.524662 34.6209 0.145756 33.7358C0.107223 33.6459 0.123279 33.5174 -0.00195312 33.4735C0.000187588 25.2513 0.000187588 17.029 0.000187588 8.80782Z" fill="#96644D"/>
<path d="M24.9875 40.9999C24.661 40.499 24.7338 39.9018 24.5957 39.3548C24.5476 39.1622 24.5358 38.9599 24.5016 38.7629C24.4416 38.4162 24.2586 38.1796 23.9 38.1004C22.4304 37.774 21.0593 37.2131 19.7952 36.3932C19.4912 36.1963 19.1904 36.2359 18.9014 36.4435C18.4037 36.8021 17.8985 37.1489 17.4083 37.5171C17.1985 37.6744 17.0529 37.6637 16.8549 37.4882C16.2962 36.9905 15.7696 36.4649 15.2644 35.9116C15.0321 35.6568 15.0492 35.4824 15.2472 35.2287C15.593 34.7888 15.9012 34.32 16.2341 33.8705C16.4857 33.5301 16.506 33.1983 16.2737 32.8365C15.4891 31.6153 14.9358 30.2977 14.6404 28.8742C14.5569 28.4728 14.3032 28.2566 13.9018 28.1967C13.3356 28.111 12.7704 28.0126 12.2032 27.9334C11.9088 27.8927 11.7782 27.776 11.759 27.4485C11.7161 26.7003 11.7129 25.9565 11.7665 25.2094C11.7846 24.9546 11.8617 24.8262 12.1304 24.7898C12.7244 24.7085 13.3131 24.5918 13.9061 24.504C14.3128 24.4441 14.5579 24.2225 14.6414 23.8254C14.9401 22.403 15.4924 21.0854 16.2791 19.8652C16.5124 19.5045 16.4846 19.1706 16.233 18.8313C15.8755 18.3496 15.5362 17.8551 15.1777 17.3746C15.0428 17.1937 15.0439 17.0599 15.1948 16.8844C15.7193 16.2764 16.2908 15.7188 16.8913 15.1879C17.0647 15.0348 17.2028 15.0359 17.3826 15.1697C17.875 15.5347 18.3791 15.8847 18.8736 16.2464C19.2044 16.4883 19.5287 16.4937 19.8733 16.2721C21.0828 15.4951 22.3855 14.9406 23.7951 14.6442C24.2243 14.5532 24.4598 14.3081 24.5187 13.8607C24.5968 13.2666 24.7199 12.679 24.8087 12.0861C24.8398 11.8806 24.9233 11.7864 25.1373 11.7671C25.9508 11.6954 26.7621 11.7018 27.5756 11.7639C27.8486 11.7853 27.901 11.9469 27.9342 12.1546C28.023 12.7069 28.1108 13.2592 28.1975 13.8125C28.2842 14.3616 28.449 14.5307 28.9992 14.6559C30.335 14.9578 31.583 15.4726 32.7422 16.2047C33.2635 16.5344 33.4647 16.5247 33.9721 16.1619C34.4163 15.844 34.868 15.5347 35.3004 15.2007C35.5252 15.0263 35.6782 15.0498 35.8848 15.235C36.4521 15.7434 36.9937 16.2743 37.4946 16.849C37.6659 17.0449 37.6851 17.1948 37.5267 17.4056C37.166 17.8851 36.8299 18.3817 36.4735 18.8645C36.2294 19.1941 36.2145 19.5152 36.4382 19.8609C37.2292 21.079 37.7761 22.4008 38.0822 23.8201C38.1732 24.2397 38.4215 24.4526 38.8475 24.5104C39.4277 24.5897 40.0025 24.7159 40.5826 24.793C40.8534 24.8294 40.9251 24.9514 40.9486 25.2062C41.0193 25.98 41.0129 26.7496 40.9476 27.5234C40.924 27.7974 40.8041 27.8938 40.5622 27.9291C40.0089 28.0115 39.4566 28.1057 38.9032 28.1892C38.3734 28.2694 38.1786 28.43 38.064 28.9502C37.759 30.3437 37.2185 31.6378 36.4435 32.8333C36.2102 33.194 36.2252 33.5226 36.4799 33.8651C36.8299 34.335 37.1542 34.8252 37.5107 35.2908C37.6841 35.5166 37.6616 35.674 37.4786 35.8795C36.9723 36.4489 36.436 36.9851 35.8645 37.4892C35.6686 37.6626 35.5166 37.6766 35.3068 37.5181C34.8391 37.1649 34.3499 36.8406 33.8822 36.4874C33.5257 36.2188 33.1886 36.2102 32.8161 36.4532C31.6226 37.2324 30.3254 37.7707 28.9296 38.064C28.4951 38.155 28.2585 38.4044 28.1975 38.8432C28.1236 39.3709 28.023 39.8953 27.9513 40.423C27.9149 40.6938 27.8625 40.9325 27.5489 40.9989C26.6958 40.9999 25.8416 40.9999 24.9875 40.9999ZM26.3404 36.6019C32.0005 36.6105 36.5944 32.0338 36.6062 26.3739C36.6169 20.7161 32.0401 16.1191 26.3779 16.103C20.7371 16.087 16.1174 20.6883 16.1057 26.3386C16.0928 31.9878 20.6847 36.5923 26.3404 36.6019Z" fill="#96644D"/>
<path d="M0 4.56279C0.137006 4.51249 0.122021 4.37228 0.170187 4.27059C0.558726 3.455 1.18917 2.97871 2.10218 2.94339C2.78186 2.91663 3.4626 2.94446 4.14335 2.93054C4.36812 2.92519 4.40666 3.01617 4.40238 3.21204C4.39702 3.50424 4.38418 3.805 4.44091 4.08864C4.66461 5.21034 5.6579 5.93496 6.81068 5.84398C7.8714 5.76049 8.71591 4.86142 8.7887 3.73115C8.80475 3.48069 8.71484 3.13926 8.84435 3.00119C9.01989 2.81495 9.37097 2.94339 9.64498 2.93911C10.2455 2.9284 10.8459 2.94446 11.4464 2.93054C11.6605 2.92519 11.7258 2.99155 11.7118 3.20134C11.6894 3.54812 11.7022 3.89705 11.79 4.23527C12.0608 5.27991 13.1065 5.97242 14.2015 5.8397C15.244 5.7134 16.066 4.80576 16.1014 3.74292C16.1281 2.9359 16.1281 2.9359 16.9491 2.9359C17.5356 2.9359 18.1233 2.94767 18.7098 2.93054C18.9656 2.92305 19.0663 2.98513 19.0502 3.2602C19.0288 3.61769 19.0277 3.97839 19.1412 4.32946C19.458 5.31309 20.401 5.93067 21.4628 5.84398C22.4422 5.7637 23.2685 4.96203 23.4012 3.96234C23.4119 3.88314 23.4205 3.80393 23.4301 3.72366C23.4601 3.47534 23.3252 3.1414 23.49 2.99476C23.6848 2.82137 24.0241 2.94339 24.3003 2.93911C24.8601 2.9284 25.422 2.95944 25.9808 2.92733C26.3136 2.90807 26.3875 3.03115 26.3597 3.32764C26.3286 3.66051 26.3597 3.99552 26.4592 4.31662C26.7728 5.32701 27.7875 5.97028 28.8515 5.83863C29.8918 5.70912 30.7117 4.80255 30.7513 3.73757C30.7813 2.93589 30.7813 2.9359 31.5958 2.9359C32.0625 2.9359 32.5303 2.92519 32.9969 2.94018C34.199 2.97764 35.1098 3.87992 35.1462 5.08083C35.1666 5.73373 35.1409 6.38877 35.1569 7.04167C35.1633 7.28036 35.0734 7.34886 34.8572 7.3221C34.778 7.31247 34.6977 7.32103 34.6175 7.32103C23.2364 7.32103 11.8553 7.32103 0.474168 7.31889C0.316825 7.31889 0.154131 7.35314 0 7.28571C0 6.37807 0 5.47043 0 4.56279Z" fill="#96644D"/>
<path d="M27.8218 2.164C27.8218 1.71018 27.8111 1.25636 27.8239 0.803613C27.8389 0.3027 28.1461 -0.0119768 28.5785 0.000867116C28.996 0.0137111 29.2871 0.321966 29.2925 0.804684C29.3032 1.73801 29.3053 2.67241 29.2914 3.60573C29.285 4.07347 28.9649 4.39349 28.5571 4.39349C28.1482 4.39349 27.84 4.07668 27.825 3.60359C27.81 3.12516 27.8218 2.64458 27.8218 2.164Z" fill="#96644D"/>
<path d="M21.9592 2.17914C21.9592 2.65972 21.9678 3.13922 21.9571 3.6198C21.9474 4.08218 21.6306 4.40328 21.2185 4.39258C20.8161 4.38295 20.51 4.07255 20.5057 3.63051C20.496 2.67042 20.495 1.71034 20.5057 0.750251C20.511 0.311417 20.8236 0.00530284 21.2271 0.00102153C21.6328 -0.00325979 21.9421 0.298573 21.9539 0.739548C21.9667 1.21906 21.9571 1.69963 21.9571 2.18021C21.9582 2.17914 21.9592 2.17914 21.9592 2.17914Z" fill="#96644D"/>
<path d="M7.31796 2.21989C7.31796 2.67371 7.32653 3.12645 7.31582 3.58027C7.30512 4.07798 6.999 4.40443 6.57407 4.39265C6.16198 4.38195 5.86121 4.06085 5.85693 3.58991C5.84836 2.65658 5.84729 1.72218 5.85693 0.788857C5.86228 0.317913 6.16626 0.003236 6.58477 2.50185e-05C7.00328 -0.00318597 7.30298 0.302928 7.31582 0.779224C7.3276 1.2598 7.31796 1.74038 7.31796 2.21989Z" fill="#96644D"/>
<path d="M13.1849 2.15791C13.1849 1.70409 13.1763 1.25027 13.187 0.797521C13.1988 0.315874 13.4835 0.00654868 13.8999 0.000126714C14.3312 -0.00736559 14.6427 0.318014 14.647 0.811436C14.6556 1.73192 14.6545 2.6524 14.647 3.57181C14.6427 4.06416 14.3312 4.39704 13.9063 4.39382C13.4824 4.39061 13.1945 4.06523 13.186 3.55897C13.1785 3.09231 13.1849 2.62564 13.1849 2.15791Z" fill="#96644D"/>
<path d="M17.5708 26.3524C17.5751 21.4963 21.5386 17.5478 26.383 17.5714C31.2264 17.5949 35.1546 21.5337 35.1503 26.3631C35.145 31.2127 31.1793 35.1655 26.3349 35.1483C21.499 35.1301 17.5665 31.1838 17.5708 26.3524ZM29.4774 32.2039C30.4279 32.2178 31.1108 31.4332 30.9599 30.5416C30.824 29.741 30.6837 28.9404 30.5307 28.143C30.4847 27.9065 30.5392 27.7513 30.7191 27.5865C31.3185 27.0363 31.9007 26.468 32.4862 25.9039C32.909 25.4961 33.0482 24.9941 32.879 24.4418C32.7046 23.8713 32.2946 23.5385 31.6952 23.4507C30.8646 23.3298 30.0362 23.196 29.2034 23.0911C28.9765 23.0622 28.8545 22.9787 28.756 22.7753C28.4167 22.0678 28.056 21.3711 27.706 20.6689C27.4266 20.1102 26.9974 19.7741 26.3541 19.7763C25.7109 19.7784 25.287 20.1198 25.0087 20.6786C24.6598 21.3807 24.298 22.0775 23.9555 22.7828C23.8656 22.968 23.7639 23.0611 23.5466 23.0889C22.7278 23.1917 21.9122 23.3287 21.0944 23.4389C20.465 23.5235 20.0294 23.8424 19.84 24.4525C19.6548 25.0508 19.8507 25.5453 20.2991 25.9638C20.845 26.4733 21.3663 27.0096 21.9282 27.5019C22.1862 27.7277 22.2354 27.9504 22.1723 28.2661C22.0278 28.9832 21.9143 29.7078 21.7827 30.4282C21.6703 31.0468 21.819 31.5724 22.3457 31.9427C22.868 32.3098 23.4149 32.2788 23.9673 31.9898C24.6855 31.6141 25.4133 31.2555 26.1283 30.8724C26.3017 30.7792 26.4291 30.7792 26.6014 30.8702C27.3175 31.2513 28.0421 31.6152 28.7625 31.9876C29.0001 32.1118 29.243 32.2156 29.4774 32.2039Z" fill="#96644D"/>
<path d="M29.4733 30.6692C28.6202 30.3299 27.8292 29.8654 27.0211 29.4383C26.5608 29.1953 26.1766 29.1729 25.7174 29.4437C24.9178 29.9146 24.0851 30.3299 23.2074 30.7998C23.3647 29.8878 23.4739 29.0294 23.6709 28.1914C23.8196 27.5577 23.6944 27.1039 23.1871 26.6779C22.547 26.1406 21.9679 25.5295 21.3032 24.8937C22.0418 24.7856 22.7065 24.6882 23.3712 24.5908C25.0099 24.35 24.6845 24.5651 25.4059 23.1426C25.7067 22.5497 26.0042 21.9556 26.3039 21.3627C26.3093 21.352 26.3232 21.3455 26.3767 21.3027C26.5212 21.5842 26.6636 21.8572 26.8016 22.1312C27.0831 22.6899 27.3807 23.2411 27.6355 23.8116C27.8335 24.2526 28.1514 24.4474 28.6191 24.4998C29.4658 24.5961 30.3092 24.7267 31.1526 24.8445C31.2169 24.853 31.28 24.8755 31.2361 24.8016C30.7587 25.3486 30.3424 25.9683 29.7901 26.4232C29.0676 27.0194 28.8364 27.6476 29.1232 28.5478C29.3234 29.1771 29.3801 29.8525 29.5011 30.5076C29.5129 30.5707 29.5482 30.636 29.4668 30.6799L29.4733 30.6692Z" fill="#96644D"/>
<path d="M29.4668 30.6787C29.4839 30.6755 29.5 30.6712 29.5171 30.668C29.515 30.683 29.5118 30.699 29.5096 30.714C29.4978 30.699 29.485 30.684 29.4732 30.669L29.4668 30.6787Z" fill="#96644D"/>
</g>
<defs>
<clipPath id="clip0_160_1822">
<rect width="41" height="41" fill="white"/>
</clipPath>
</defs>
</svg>
