<svg width="68" height="60" viewBox="0 0 68 60" fill="none" xmlns="http://www.w3.org/2000/svg">
<g clip-path="url(#clip0_160_462)">
<path d="M34.4852 43.263C33.4292 44.7393 32.7026 45.9072 31.8277 46.9511C29.8421 49.3165 27.2801 49.5789 24.7907 47.7557C23.6074 46.8896 22.7337 45.7535 22.1343 44.4363C20.7096 41.3047 19.3452 38.1468 17.9314 35.0108C17.7053 34.5092 17.7492 34.0152 17.8008 33.2622C14.3256 34.9076 11.8713 32.8155 9.29837 31.1569C8.84504 30.8649 8.3456 30.5378 8.74954 29.9067C9.12604 29.3173 9.61559 29.742 10.0107 29.9111C10.8735 30.2799 11.7077 30.7157 12.6759 31.1833C12.7582 30.5378 12.835 29.944 12.9228 29.258C9.59144 29.258 6.25347 29.2591 2.9166 29.2569C2.49291 29.2569 2.06043 29.2964 1.64552 29.2305C0.885943 29.1087 -0.0470631 28.7366 0.00342904 28.0154C0.0594094 27.2185 1.05279 27.6346 1.606 27.6324C10.5168 27.6005 19.4286 27.6027 28.3394 27.6247C28.8081 27.6258 29.5918 27.2679 29.7027 27.9584C29.7982 28.5522 29.0551 28.887 28.5403 29.0999C28.1231 29.2722 27.6094 29.2492 27.1386 29.2525C24.6644 29.2657 22.1892 29.258 19.2486 29.258C20.6635 30.18 21.2145 31.4939 22.7633 31.484C23.2737 31.4807 23.3451 32.1832 23.547 32.5949C24.7841 35.1074 25.997 37.632 27.3032 40.3311C28.0189 39.1292 28.0255 37.9097 28.3482 36.7934C28.9211 34.8154 29.3064 32.7749 30.2899 30.9363C31.7915 28.1274 34.0428 27.0671 37.1634 27.5621C37.8736 27.6752 37.7968 28.0648 37.8561 28.5489C37.9998 29.7223 37.2512 31.2151 38.2084 31.9966C39.0207 32.6607 40.4081 32.6234 41.542 32.8923C44.7855 33.6596 48.0192 34.4762 51.2815 35.1568C52.2562 35.3598 52.5701 35.688 52.5646 36.6836C52.524 44.0028 52.5152 51.3219 52.5723 58.6411C52.5811 59.7772 52.1574 59.9221 51.198 59.9155C46.0533 59.8782 40.9075 59.8683 35.7628 59.921C34.6992 59.9319 34.4511 59.6103 34.4621 58.5807C34.5159 53.6105 34.4852 48.6404 34.4852 43.263ZM50.6284 55.3405C50.4187 54.4042 49.9006 53.7203 48.8194 53.7851C47.8326 53.8443 47.2454 54.5095 47.2443 55.4447C47.2432 56.4666 47.9018 57.1582 48.9424 57.1318C49.9632 57.1066 50.5438 56.4381 50.6284 55.3405ZM50.6339 47.7128C50.4505 46.7776 49.9939 46.0762 48.8908 46.0905C47.781 46.1048 47.2465 46.8216 47.2465 47.8062C47.2465 48.7622 47.882 49.3593 48.8655 49.3868C49.9423 49.4175 50.4736 48.771 50.6339 47.7128ZM48.8776 41.7032C49.9237 41.6494 50.5801 41.1116 50.5823 40.0589C50.5845 39.116 50.0532 38.486 49.0488 38.4168C47.96 38.3411 47.3102 38.9678 47.2553 39.9579C47.1993 40.9524 47.7975 41.6143 48.8776 41.7032ZM43.3992 55.4392C43.3235 54.4568 42.8087 53.7708 41.7439 53.7873C40.7067 53.8026 40.0986 54.4305 40.1095 55.5007C40.1194 56.5018 40.7473 57.1208 41.6715 57.1296C42.6363 57.1384 43.3641 56.6093 43.3992 55.4392ZM43.3992 47.6404C43.3158 46.8018 42.891 46.1388 41.8559 46.0993C40.7659 46.0576 40.1589 46.6415 40.1183 47.7139C40.0755 48.8379 40.767 49.3846 41.8032 49.3791C42.7922 49.3747 43.3399 48.7721 43.3992 47.6404ZM41.7165 41.701C42.7637 41.6296 43.3564 41.1028 43.3762 40.1028C43.397 39.0381 42.8438 38.4025 41.733 38.4113C40.722 38.419 40.1392 38.9843 40.1117 39.9788C40.0821 41.0545 40.6968 41.6154 41.7165 41.701Z" fill="#96644D"/>
<path d="M57.6195 43.6965C57.6195 48.6338 57.5679 53.4525 57.6535 58.2679C57.6765 59.5796 57.3626 60.1306 56.0213 59.9089C55.6602 59.8496 55.2727 59.8507 54.9105 59.9078C53.7722 60.0867 53.5219 59.6005 53.5285 58.5094C53.5768 51.1375 53.5208 43.7657 53.5834 36.3949C53.5944 35.0712 53.3068 34.4993 51.893 34.2183C48.004 33.4466 44.1743 32.372 40.2853 31.5982C39.0186 31.3457 38.8134 30.8254 38.8507 29.7157C38.9231 27.5281 38.8704 27.538 41.0229 27.5413C45.7966 27.5489 50.5703 27.5424 55.344 27.5435C59.3439 27.5445 61.1704 28.8661 62.4349 32.7288C63.4908 35.9526 64.2778 39.2477 64.8486 42.5879C65.7399 47.8073 66.5851 53.0354 67.1493 58.3041C67.2777 59.5028 67.0659 60.0571 65.7136 59.9199C64.4008 59.7871 62.7905 60.2975 61.8202 59.6982C60.8279 59.0857 61.0431 57.3119 60.7456 56.0463C59.9004 52.4394 59.1079 48.8193 58.2835 45.2069C58.1727 44.7185 58.1804 44.1674 57.6195 43.6965Z" fill="#96644D"/>
<path d="M37.5445 12.9929C35.4886 12.8294 33.8948 12.1357 33.3372 9.97768C32.9289 8.39376 33.1177 6.80546 34.4799 5.98441C36.6302 4.68918 36.8958 0.49504 40.7497 1.86052C41.0471 1.9659 41.3633 2.06359 41.6146 2.24251C42.2106 2.6662 42.507 2.58278 42.9505 1.92309C44.6496 -0.602615 47.6594 -0.653107 49.3838 1.84625C50.015 2.7606 50.4277 3.20405 51.6845 2.86378C53.8128 2.28861 55.1871 3.35772 55.7766 5.72975C56.0257 6.73411 56.1915 7.53101 57.4977 7.88335C58.7753 8.22802 58.9323 9.55069 58.6809 10.8108C58.3418 12.5133 57.389 13.4902 55.9149 13.6197C55.0181 13.6987 54.1619 13.4122 53.2717 13.2432C53.0423 13.983 53.8238 14.5033 53.4001 15.2343C52.3596 14.8227 51.3201 14.3507 50.2411 13.9951C46.4553 12.7482 42.7342 13.1894 39.0428 14.4715C38.528 14.6504 37.9265 15.2256 37.4402 14.7799C36.9551 14.3376 37.6707 13.7196 37.5445 12.9929Z" fill="#96644D"/>
<path d="M14.9305 26.5962C11.3236 26.5962 7.71564 26.5742 4.10874 26.6104C3.13183 26.6203 2.79266 26.4293 3.08353 25.3514C4.37657 20.569 7.2634 17.4703 12.2138 16.5098C12.9141 16.3737 13.1677 16.2793 13.0107 15.4352C12.767 14.1257 13.5266 13.3014 14.6967 13.297C15.8493 13.2937 16.7164 14.1751 16.4189 15.4056C16.1687 16.4418 16.8207 16.3221 17.3058 16.4034C22.3935 17.2562 25.2979 20.3461 26.6107 25.2175C26.963 26.5237 26.4987 26.617 25.434 26.6039C21.9336 26.56 18.432 26.5874 14.9305 26.5874C14.9305 26.5907 14.9305 26.5929 14.9305 26.5962ZM5.47093 23.7148C6.69152 21.3077 8.41814 19.5668 10.9855 18.749C11.3094 18.6459 11.8845 18.6096 11.7265 18.1442C11.5157 17.5219 11.013 17.9906 10.6552 18.0872C9.45871 18.4088 8.3863 19.0103 7.4983 19.8467C6.40943 20.8719 5.42703 22.0091 5.47093 23.7148Z" fill="#689F4E"/>
<path d="M45.3949 26.4502C40.5104 26.4052 36.6576 22.2769 36.9748 17.4593C37.0198 16.7733 37.1592 16.2936 37.8892 15.9928C42.9175 13.9172 47.8943 13.499 52.8645 16.1948C53.6164 16.6031 53.9039 17.0499 53.9171 17.9006C53.9885 22.6545 50.1884 26.4952 45.3949 26.4502Z" fill="#96644D"/>
</g>
<defs>
<clipPath id="clip0_160_462">
<rect width="67.182" height="60" fill="white"/>
</clipPath>
</defs>
</svg>
