<svg width="28" height="25" viewBox="0 0 28 25" fill="none" xmlns="http://www.w3.org/2000/svg">
<g clip-path="url(#clip0_160_756)">
<path d="M24.5111 7.98826C22.7764 8.1036 22.5526 7.18642 22.7093 5.96717C22.7429 5.69806 22.6869 5.41522 22.7205 5.14611C22.8296 4.23442 22.5274 3.75111 21.5007 3.89116C21.1342 3.94059 20.7537 3.93235 20.3844 3.89391C19.4107 3.78956 18.7645 3.95707 18.9771 5.15434C19.0694 5.67609 18.7673 6.07701 18.1993 6.04955C17.6118 6.02209 17.4327 5.56076 17.5055 5.06098C17.6454 4.07515 17.2033 3.78407 16.2633 3.88842C15.6645 3.95432 15.0518 3.94334 14.4503 3.89116C13.4879 3.80603 12.8332 3.93784 13.029 5.14611C13.1074 5.63765 12.7828 6.07976 12.2233 6.04955C11.6777 6.01935 11.398 5.57174 11.4875 5.07196C11.6945 3.90764 11.0398 3.81427 10.139 3.89391C9.585 3.94334 9.01985 3.93235 8.4659 3.89665C7.54264 3.83624 6.78724 3.87743 7.01386 5.13787C7.10619 5.65412 6.82361 6.06878 6.25007 6.05779C5.77165 6.04955 5.4611 5.69806 5.54503 5.22299C5.76886 3.97354 5.12257 3.84723 4.06222 3.88018C1.80443 3.95158 1.80443 3.8994 1.80443 6.17862C1.80443 10.9293 1.87157 15.6827 1.76526 20.4306C1.73169 21.8887 2.20171 22.2073 3.57261 22.1331C5.61498 22.0206 7.66854 22.1606 9.7137 22.0782C10.7013 22.0398 11.4763 22.3803 12.3044 22.7977C12.7717 23.0338 12.7409 23.3661 12.7101 23.6847C12.6737 24.0773 12.2764 23.9208 12.0414 23.9208C8.82961 23.9318 5.61778 23.9565 2.40595 23.9153C0.956706 23.8961 0.036242 23.0119 0.0278488 21.5839C-0.00852214 15.8694 -0.0113199 10.1576 0.0278488 4.44861C0.0390398 2.99595 0.92593 2.24079 2.43952 2.17214C2.90395 2.15017 3.37397 2.13369 3.8356 2.17214C4.76166 2.24903 5.48069 2.19411 5.29324 0.941909C5.20371 0.359748 5.65135 -0.00273055 6.24168 1.5493e-05C6.91034 0.00276154 7.31322 0.414668 7.22369 1.05999C7.07261 2.14193 7.64895 2.26001 8.51626 2.17488C9.02265 2.12545 9.54304 2.1282 10.0494 2.17488C10.8804 2.24903 11.384 2.08426 11.2888 1.09569C11.2329 0.494304 11.5462 0.0164918 12.2541 0.00550758C12.878 -0.0054766 13.278 0.398192 13.2165 0.944655C13.0766 2.20784 13.818 2.24903 14.7413 2.17214C15.1106 2.14193 15.4883 2.13918 15.8576 2.17214C16.7445 2.24903 17.4355 2.17488 17.2649 0.994084C17.1809 0.411922 17.5474 0.030222 18.1601 0.00825363C18.8484 -0.0192068 19.2709 0.417414 19.1925 1.02429C19.0386 2.23804 19.7577 2.22706 20.6082 2.17214C21.0726 2.14193 21.5398 2.15017 22.0043 2.17214C23.5374 2.23804 24.3824 3.04813 24.5027 4.55845C24.5195 4.78637 24.5083 5.0143 24.5083 5.24222C24.5139 6.15116 24.5111 7.06285 24.5111 7.98826Z" fill="#96644D"/>
<path d="M12.5898 21.2791C12.0945 21.2132 12.0806 20.5322 11.7476 20.1368C11.4371 19.7688 11.6777 19.5326 11.9798 19.2526C13.0654 18.2475 13.0234 17.8905 11.6777 17.5473C10.8216 17.3303 11.0902 16.7701 11.0426 16.2731C10.9922 15.7349 11.0482 15.3422 11.7588 15.1966C13.1157 14.9165 13.2696 14.4607 12.2848 13.5298C11.6189 12.8982 12.254 12.5714 12.4331 12.1293C12.6429 11.6048 12.9367 11.3851 13.5941 11.6103C14.7888 12.0195 15.2784 11.5966 14.8783 10.4597C14.5454 9.51507 15.3455 9.53155 15.74 9.19653C16.224 8.78462 16.5626 8.91369 16.985 9.40248C17.7628 10.3114 18.4427 10.1796 18.6413 9.05374C18.7952 8.17225 19.3491 8.39194 19.8639 8.36448C20.4235 8.33427 20.8879 8.2766 21.0334 9.10042C21.2488 10.3224 21.8839 10.5091 22.7204 9.61667C23.3443 8.94939 23.7025 9.5288 24.1417 9.71828C24.6117 9.92149 24.9978 10.1439 24.774 10.8496C24.3432 12.2034 24.6173 12.511 25.9323 12.1678C26.7884 11.9453 26.8024 12.6126 27.1157 12.9971C27.5046 13.4721 27.471 13.8126 26.9619 14.2465C25.9631 15.095 26.0778 15.6854 27.3312 15.9024C28.2712 16.0644 27.9327 16.6466 27.9718 17.1134C28.0138 17.6022 28.1005 18.1514 27.2892 18.1734C26.8667 18.1843 26.3883 18.0745 26.1757 18.7198C25.977 19.3267 26.3044 19.5821 26.6821 19.8265C27.4683 20.3317 26.8443 20.7546 26.6261 21.1885C26.4051 21.6251 26.2512 22.048 25.507 21.7926C24.2033 21.345 23.8396 21.6773 24.2005 22.9899C24.4411 23.8659 23.7025 23.8357 23.3304 24.124C22.9806 24.3931 22.6449 24.6183 22.1637 24.0993C21.1369 22.9872 20.7452 23.0696 20.3535 24.4288C20.1353 25.1813 19.6037 24.9588 19.1365 24.9835C18.6469 25.0083 18.1937 25.1099 18.023 24.3492C17.6985 22.9158 17.3124 22.8169 16.2268 23.8082C15.8491 24.1515 15.5862 24.1076 15.298 23.8384C14.9315 23.4979 14.1565 23.5556 14.2516 22.7565C14.4139 21.356 14.3971 21.3533 12.5898 21.2791ZM14.7832 16.6548C14.7524 19.2333 16.8927 21.4055 19.4918 21.4329C22.0658 21.4604 24.2256 19.3404 24.2844 16.7234C24.3432 14.1833 22.1609 11.9645 19.5786 11.9426C17.0158 11.9206 14.814 14.0845 14.7832 16.6548Z" fill="#689F4E"/>
</g>
<defs>
<clipPath id="clip0_160_756">
<rect width="28" height="25" fill="white"/>
</clipPath>
</defs>
</svg>
