<svg width="241" height="13" viewBox="0 0 241 13" fill="none" xmlns="http://www.w3.org/2000/svg">
<g clip-path="url(#clip0_160_1600)">
<path d="M237.983 2.22474C237.174 2.28071 236.372 2.33669 235.563 2.39966C231.477 2.56058 227.327 3.26726 223.332 2.7495C217.417 1.97985 211.677 2.72851 205.874 3.30224C200.388 3.84099 194.803 4.4707 189.444 3.1833C180.982 1.14724 172.837 1.25219 164.756 4.59665C162.892 5.36629 160.726 5.82108 158.974 4.75757C155.063 2.37867 151.139 2.9664 147.137 4.10687C139.196 6.38082 131.501 6.73766 124.397 1.56005C123.869 1.17522 123.117 1.09826 122.47 0.88136C122.181 1.4551 121.893 2.03583 121.598 2.60257C121.893 2.03583 122.174 1.4551 122.47 0.88136C119.839 -0.371062 117.216 -0.189146 114.606 0.951328C111.835 2.13378 109.05 3.29525 106.292 4.50569C104.506 5.28933 102.417 5.97501 100.926 4.74358C95.5591 0.321618 89.9462 1.14024 84.0732 3.27426C81.4496 4.23281 78.594 5.20536 75.9001 3.93195C70.2873 1.28717 64.8432 1.8679 59.2867 4.00892C54.8485 5.71613 50.5158 5.7791 46.1901 3.20429C42.0332 0.734428 37.4965 0.818389 32.9669 2.36468C30.8708 3.08534 28.7819 3.827 26.6718 4.49869C23.5981 5.47824 20.7002 5.3383 18.0697 3.19029C17.0849 2.38567 15.9666 1.71398 14.8342 1.11925C9.55194 -1.63748 2.70823 0.895354 0.47857 6.41581C0.133923 7.25542 -0.400632 8.17899 0.492638 8.99062C1.42811 9.83723 2.22994 8.94864 3.05288 8.65477C3.36939 8.53583 3.6226 8.25596 3.92504 8.07404C9.04552 4.99546 9.50271 5.00246 14.0957 8.69675C17.5632 11.4885 21.3614 12.594 25.8488 11.7963C29.2109 11.2016 32.4182 10.1661 35.6185 9.08158C37.8271 8.33292 40.0497 7.98308 42.0332 9.26349C49.0246 13.7694 56.1708 13.0208 63.4998 10.299C65.5607 9.53637 67.9099 8.55682 69.9848 9.60633C76.6949 12.9998 83.194 11.4115 89.7071 9.20052C91.4585 8.60579 93.1958 8.23497 94.6939 9.4524C100.954 14.5531 107.052 12.6919 113.157 9.18653C114.817 8.52183 116.484 7.85014 118.144 7.18545C120.514 7.17845 122.315 8.5918 124.207 9.6903C129.721 12.9018 135.573 13.6785 141.777 12.447C145.097 11.7893 148.424 11.1946 151.744 10.5229C152.426 10.383 153.108 9.97017 153.762 10.397C159.635 14.1752 165.417 12.1042 171.234 10.2011C175.159 8.91365 179.111 8.32592 183.268 9.41742C189.43 11.0337 195.739 11.3205 202.083 10.8168C207.443 10.397 212.838 9.33346 218.141 9.6763C224.774 10.1031 231.181 9.29848 237.638 8.29794C239.931 8.28394 241.155 7.04552 240.993 4.86252C240.867 3.25327 239.882 2.0848 237.983 2.22474Z" fill="#689F4E"/>
</g>
<defs>
<clipPath id="clip0_160_1600">
<rect width="241" height="13" fill="white"/>
</clipPath>
</defs>
</svg>
