<svg width="163" height="11" viewBox="0 0 163 11" fill="none" xmlns="http://www.w3.org/2000/svg">
<g clip-path="url(#clip0_160_719)">
<path d="M101.97 1.01098C97.4168 0.721148 92.8632 0.909873 88.4542 2.23769C87.5173 2.52078 86.5735 3.15436 86.7251 4.42152C86.8973 5.8437 87.9927 6.15375 89.1845 6.24137C91.3407 6.39639 93.5038 6.50424 95.667 6.62556C95.667 6.52446 95.6739 6.42335 95.6739 6.32225C97.6097 6.32225 99.5455 6.36943 101.474 6.30877C103.031 6.25485 104.051 5.43928 104.202 3.86882C104.354 2.27813 103.514 1.10534 101.97 1.01098Z" fill="#70A357"/>
<path d="M131.779 0.687366C130.408 0.673885 129.037 0.687366 127.191 0.687366C124.339 0.518861 121.067 0.869351 117.884 1.8332C117.278 2.01518 116.458 2.0354 116.368 2.92511C116.286 3.73393 116.775 4.07094 117.505 4.31359C122.341 5.89754 127.315 6.18063 132.337 5.74925C133.77 5.62793 134.555 4.50232 134.459 3.14754C134.349 1.65121 133.426 0.707586 131.779 0.687366Z" fill="#70A357"/>
<path d="M160.589 0.134729C156.469 -0.195541 152.35 0.0808073 148.306 0.87615C147.376 1.05814 146.191 1.56365 146.239 2.80385C146.281 4.04404 147.445 4.42149 148.437 4.56304C151.254 4.96071 154.1 5.21684 156.931 5.52689C156.938 5.4797 156.938 5.43926 156.945 5.39882C158.088 5.39882 159.239 5.45948 160.375 5.38534C161.981 5.2775 162.842 4.32713 162.986 2.79711C163.145 1.10532 162.111 0.256052 160.589 0.134729Z" fill="#70A357"/>
<path d="M15.1141 6.05234C10.6501 6.02538 6.20669 6.13996 1.86664 7.36668C0.957296 7.62281 -0.0553828 7.81153 0.00661794 8.94389C0.0617297 10.0358 1.11574 10.1841 1.99064 10.4672C4.45001 11.2693 6.98515 10.8851 8.50072 10.9862C11.3114 10.9862 13.1439 10.9592 14.9764 10.9929C16.6642 11.0199 17.5666 10.2582 17.5597 8.60688C17.5597 7.05663 16.8708 6.06582 15.1141 6.05234Z" fill="#70A357"/>
<path d="M72.5064 2.27127C68.3041 2.48695 64.0123 2.21734 59.9822 3.77433C59.2795 4.04394 58.3633 4.39443 58.4804 5.36502C58.6113 6.45019 59.6033 6.7872 60.5127 6.82764C62.4553 6.91526 64.4049 6.8546 66.3545 6.8546C66.3545 6.86134 66.3545 6.86808 66.3545 6.87482C68.3041 6.87482 70.2537 6.93548 72.1964 6.8546C73.643 6.80068 74.5317 5.98511 74.5799 4.52249C74.6213 3.17445 73.6568 2.2106 72.5064 2.27127Z" fill="#70A357"/>
<path d="M43.6551 4.20575C41.7537 4.35403 39.7835 3.94288 37.951 4.77193C35.6432 4.63712 33.4801 5.31114 31.3101 5.94472C30.5454 6.16715 29.5947 6.4772 29.6016 7.31972C29.6085 8.52622 30.5661 8.95759 31.7372 8.88345C32.4881 8.72842 33.2321 8.60036 33.8521 9.21372C34.7752 9.27438 35.6983 9.33504 36.6215 9.3957C38.9982 9.9147 41.368 9.41592 43.7378 9.30134C45.5082 9.21372 46.514 8.27009 46.3831 6.53112C46.2798 4.98087 45.2327 4.08443 43.6551 4.20575Z" fill="#70A357"/>
</g>
<defs>
<clipPath id="clip0_160_719">
<rect width="163" height="11" fill="white"/>
</clipPath>
</defs>
</svg>
