<svg width="26" height="24" viewBox="0 0 26 24" fill="none" xmlns="http://www.w3.org/2000/svg">
<g clip-path="url(#clip0_160_747)">
<path d="M25.999 10.7536C25.9978 9.68351 25.7286 9.42568 24.6106 9.42111C23.5394 9.41655 23.5476 9.41313 23.1437 8.47535C22.9423 8.00646 22.4776 7.5159 22.5478 7.10177C22.618 6.68536 23.2116 6.35794 23.5616 5.97918C23.9597 5.54908 23.9796 5.06422 23.5745 4.65351C22.8054 3.87317 22.0198 3.10767 21.2191 2.35813C20.7742 1.94172 20.2813 1.96454 19.8166 2.38323C19.5016 2.66616 19.1984 2.96392 18.9093 3.27081C18.7231 3.46817 18.5698 3.50012 18.3099 3.36778C17.7784 3.09626 17.2352 2.835 16.6311 2.73917C16.3759 2.65817 16.2893 2.49389 16.2951 2.22921C16.3068 1.74093 16.2764 1.25151 16.2647 0.762085L16.2576 0.727859C16.2284 0.41869 16.0657 0.212196 15.7589 0.116365C15.7601 0.116365 15.7578 0.110661 15.7566 0.110661C15.67 0.0752947 15.5833 0.00912553 15.4967 0.00798469C14.2956 -1.24413e-06 13.0944 -0.00684633 11.8933 0.00684384C11.5351 0.0114072 11.2822 0.215619 11.1581 0.55331C11.0715 0.707324 11.0036 0.864761 11.0797 1.04387C11.0797 1.19218 11.0797 1.34163 11.0797 1.48995C11.1312 2.07178 10.8186 2.187 10.2848 2.15506C9.58702 2.11285 8.8846 2.13338 8.1857 2.16076C7.82044 2.17559 7.60035 2.11285 7.43528 1.73751C6.98222 0.706183 5.42402 0.694775 4.78482 1.23325C4.23225 1.69872 3.99577 2.41631 4.24747 3.10995C4.4781 3.74768 4.95106 4.14812 5.65231 4.24281C6.42263 4.34663 7.12387 4.02947 7.44699 3.35523C7.61088 3.01298 7.80522 2.94567 8.15174 2.95023C9.20186 2.96392 10.252 2.93654 11.3021 2.9411C11.6931 2.94224 11.8828 2.78481 11.871 2.40034C11.8582 1.98507 11.8488 1.56866 11.8383 1.15225C11.8301 0.814564 12.0349 0.771211 12.3264 0.773493C13.3297 0.780338 14.333 0.765507 15.3363 0.759803C15.5189 0.839662 15.4499 1.02904 15.5213 1.15796C15.4815 1.65537 15.4475 2.15278 15.5412 2.64905C15.5669 3.10538 15.8374 3.33698 16.2787 3.41113C16.3431 3.42596 16.4087 3.43965 16.4731 3.45448C16.8828 3.62333 17.2984 3.77734 17.6999 3.96216C18.8203 4.47668 18.818 4.48125 19.71 3.61648C20.533 2.81789 20.533 2.81789 21.335 3.59595C21.5281 3.78305 21.7236 3.97015 21.9121 4.16067C22.2762 4.52802 22.8733 4.86571 22.9353 5.2787C23.002 5.72249 22.316 6.02139 21.966 6.39102C21.5984 6.77891 21.5457 7.17935 21.7974 7.63797C21.9718 7.95513 22.165 8.26772 22.2938 8.60199C22.9271 10.2334 22.6625 10.2574 24.7522 10.2231C24.984 10.2197 25.1877 10.2231 25.2041 10.5175C25.2041 10.6361 25.2041 10.7548 25.2053 10.8734C25.2053 11.615 25.2053 12.3577 25.2053 13.0992C25.2053 13.2167 25.2053 13.3342 25.2053 13.4517C25.1877 13.697 25.0402 13.7586 24.8096 13.7449C24.538 13.7301 24.264 13.7392 23.9913 13.7426C23.1847 13.7506 22.9587 13.9195 22.7328 14.653C22.6145 15.0341 22.549 15.4573 22.3289 15.7756C21.5995 16.8275 21.7599 17.674 22.8124 18.3927C23.0641 18.565 23.0313 18.7338 22.8135 18.9369C22.2785 19.4355 21.7634 19.9546 21.239 20.4657C20.5377 21.1479 20.5377 21.1479 19.8212 20.4577C19.223 19.8815 18.969 19.845 18.2279 20.242C17.6461 20.5546 17.0397 20.809 16.404 20.9973C15.6547 21.2186 15.5096 21.4491 15.4803 22.2351C15.4686 22.5591 15.6313 22.9208 15.3387 23.2094C15.3141 23.2288 15.2895 23.2459 15.2649 23.2619C15.2157 23.295 15.1654 23.3212 15.1162 23.344C15.1654 23.3223 15.2157 23.295 15.2649 23.2619C15.2895 23.2459 15.3141 23.2276 15.3387 23.2094C14.9406 23.2117 14.5426 23.214 14.1445 23.2162C13.6927 23.1649 13.2408 23.1649 12.79 23.2162C12.618 23.2162 12.447 23.2174 12.2749 23.2174C11.9635 23.2071 11.8254 23.0634 11.8629 22.7496C11.8851 22.5625 11.8476 22.3686 11.8687 22.1815C11.9249 21.6898 11.7189 21.4958 11.2061 21.5084C10.2133 21.5323 9.22059 21.5004 8.22784 21.5209C7.84736 21.5289 7.62025 21.4616 7.42591 21.0783C7.01149 20.2626 6.00352 19.9774 5.16881 20.355C4.33645 20.7315 3.93958 21.6692 4.25567 22.5101C4.49917 23.1569 5.15476 23.6064 5.87591 23.6212C6.69306 23.6372 7.26085 23.2128 7.6343 22.3047C8.56851 22.2944 9.50273 22.283 10.4369 22.2728C10.9193 22.2488 11.0785 22.4393 11.0598 22.9344C11.0317 23.6646 11.418 23.9783 12.1942 23.9852C12.9738 23.9909 13.7535 23.9635 14.532 23.992C15.9603 24.0445 16.4309 23.8802 16.3045 22.3036C16.2787 21.9853 16.3876 21.8324 16.7142 21.7388C17.179 21.6054 17.6309 21.4205 18.0711 21.2232C18.983 20.8148 18.9783 20.8045 19.7206 21.5027C20.2954 22.0423 20.766 22.0514 21.3385 21.5072C21.9941 20.8843 22.6379 20.25 23.2842 19.6169C24.0615 18.8559 24.0884 18.4407 23.2771 17.7276C22.7784 17.2895 22.5443 16.8994 22.9938 16.3118C23.1179 16.1498 23.2128 15.9388 23.2409 15.7391C23.379 14.7626 23.9023 14.4089 24.9243 14.5218C25.6689 14.6051 25.9943 14.1899 26.0002 13.4312C26.0025 12.539 26.0002 11.6458 25.999 10.7536ZM5.89933 3.45905C5.39358 3.45677 4.97213 3.05176 4.96745 2.56348C4.96394 2.06037 5.42988 1.61772 5.94147 1.64054C6.44838 1.66335 6.83822 2.07406 6.82886 2.57489C6.81949 3.08143 6.42029 3.46133 5.89933 3.45905ZM5.90518 22.8226C5.40646 22.8215 4.97447 22.4074 4.96628 21.9248C4.95691 21.4228 5.41466 20.987 5.93679 21.0007C6.4437 21.0144 6.84291 21.4262 6.83471 21.9259C6.82535 22.4233 6.41092 22.8238 5.90518 22.8226ZM14.5168 23.3885C14.5672 23.4022 14.6163 23.4113 14.6667 23.417C14.6163 23.4113 14.566 23.4011 14.5168 23.3885ZM14.7404 23.4216C14.7908 23.4227 14.8399 23.4193 14.8891 23.4125C14.8399 23.4204 14.7908 23.4227 14.7404 23.4216Z" fill="#96644D"/>
<path d="M11.3477 18.0048C11.4694 18.0607 11.6029 18.0995 11.734 18.1338C14.4254 18.8354 16.7832 18.257 18.6271 16.2149C20.4381 14.2092 20.8057 11.8591 19.7123 9.41655C18.5955 6.9238 16.5128 5.69282 13.7464 5.54565C12.9328 5.54794 12.1484 5.67343 11.3933 5.94951C11.151 6.0385 10.9871 6.19936 11.0831 6.47202C11.1756 6.7367 11.3898 6.7926 11.6497 6.71616C11.7422 6.68878 11.8312 6.64771 11.9248 6.62261C14.3294 5.97461 16.4016 6.51766 18.0663 8.33617C19.5894 10.0007 19.8832 12.4546 18.8671 14.4625C17.8333 16.5058 15.6816 17.7276 13.3472 17.6021C12.7595 17.5702 12.1917 17.4538 11.6392 17.2542C11.3828 17.1618 11.1697 17.2428 11.0784 17.5063C10.9941 17.7516 11.1358 17.9079 11.3477 18.0048Z" fill="#96644D"/>
<path d="M1.31726 9.16554C2.10982 9.36747 2.9258 9.05374 3.2852 8.32017C3.46198 7.95852 3.6809 7.89578 4.04264 7.8992C5.87478 7.91403 7.70692 7.89692 9.53906 7.91289C10.0132 7.91745 10.2157 7.75545 10.1982 7.282C10.1747 6.63742 10.2134 5.98942 10.1818 5.34484C10.1642 4.98547 10.2848 4.89763 10.6395 4.90448C11.7306 4.92615 12.8229 4.9079 13.914 4.91474C14.2183 4.91702 14.4958 4.85542 14.5016 4.51545C14.5075 4.17205 14.2336 4.10702 13.9257 4.10816C12.6004 4.11387 11.2752 4.11843 9.94998 4.10588C9.51916 4.10246 9.35526 4.285 9.36346 4.69C9.37634 5.37336 9.35058 6.05787 9.37633 6.74124C9.38687 7.01048 9.2979 7.12228 9.038 7.13369C8.98649 7.13369 8.93615 7.13369 8.88464 7.13369C7.29718 7.08007 5.71088 7.08349 4.12342 7.13141C4.07191 7.13141 4.0204 7.13141 3.96889 7.13141C3.63758 7.13141 3.43973 7.0082 3.27818 6.68762C2.9176 5.97117 2.07587 5.64945 1.29267 5.85024C0.527039 6.04874 -0.0126521 6.75835 0.000225606 7.55238C0.0131033 8.32131 0.541087 8.96817 1.31726 9.16554ZM1.78086 6.61004C2.28543 6.61917 2.70219 7.03558 2.694 7.52272C2.6858 8.00302 2.24562 8.43197 1.76095 8.43083C1.23999 8.42969 0.803323 7.98476 0.823225 7.4748C0.841956 6.98082 1.26341 6.59977 1.78086 6.61004Z" fill="#689F4E"/>
<path d="M8.98394 17.107C9.30003 17.1048 9.38081 17.2074 9.37261 17.4984C9.35388 18.1429 9.38666 18.7898 9.35974 19.4344C9.33983 19.9124 9.49905 20.1246 10.0247 20.1143C11.3101 20.0892 12.5967 20.104 13.8821 20.1086C14.1959 20.1098 14.5237 20.0881 14.4979 19.6956C14.4733 19.3317 14.176 19.2644 13.8458 19.3363C12.7735 19.3363 11.7023 19.3363 10.6299 19.3363C10.3174 19.3351 10.1511 19.2518 10.1781 18.8776C10.2225 18.2536 10.1687 17.6238 10.198 16.9987C10.2225 16.4784 10.0142 16.2982 9.48032 16.305C7.62945 16.3278 5.77858 16.3153 3.9277 16.3119C3.70995 16.3119 3.51328 16.3621 3.36811 16.0609C2.94549 15.1916 2.19039 14.8504 1.31939 15.0547C0.544391 15.2361 -0.0034953 15.932 1.6788e-05 16.7271C0.00352888 17.4926 0.542049 18.1772 1.29012 18.3665C2.14825 18.5833 2.94081 18.2319 3.35875 17.39C3.47816 17.1493 3.61162 17.1105 3.84107 17.1105C5.55497 17.1162 7.27004 17.1219 8.98394 17.107ZM1.76074 17.6159C1.24681 17.617 0.832382 17.2268 0.824187 16.7317C0.815992 16.2229 1.26437 15.7825 1.77948 15.7962C2.27 15.8088 2.6973 16.2411 2.69262 16.7214C2.68911 17.2086 2.26531 17.6147 1.76074 17.6159Z" fill="#689F4E"/>
<path d="M13.6937 12.3531C13.7722 12.3519 13.8506 12.3519 13.929 12.3508C14.2592 12.4341 14.4968 12.3097 14.4968 11.9846C14.4968 11.6594 14.258 11.5362 13.9279 11.6195C13.8494 11.6183 13.771 11.6183 13.6914 11.6172C12.1952 11.6047 10.7003 11.5773 9.2041 11.5898C8.74519 11.5932 8.45134 11.5237 8.19379 11.0799C7.76531 10.3417 6.96222 10.1603 6.0561 10.4775C5.26471 10.7547 4.8573 11.6195 5.05047 12.4375C5.23895 13.2372 5.9999 13.7745 6.86856 13.7301C7.77936 13.6833 8.23476 13.1129 8.54266 12.3656C8.58714 12.3599 8.63163 12.3542 8.67729 12.3485C10.349 12.4158 12.022 12.4135 13.6937 12.3531ZM6.7749 12.9383C6.26214 12.9452 5.84537 12.555 5.83367 12.0576C5.82079 11.5408 6.26097 11.105 6.7831 11.1187C7.2783 11.1312 7.71263 11.5613 7.71146 12.037C7.71029 12.5105 7.27245 12.9326 6.7749 12.9383Z" fill="#689F4E"/>
</g>
<defs>
<clipPath id="clip0_160_747">
<rect width="26" height="24" fill="white"/>
</clipPath>
</defs>
</svg>
