<svg width="64" height="60" viewBox="0 0 64 60" fill="none" xmlns="http://www.w3.org/2000/svg">
<g clip-path="url(#clip0_160_431)">
<path d="M27.0256 59.9853C18.2739 59.9853 9.52222 59.9799 0.770529 59.9973C0.205301 59.9987 -0.00132668 59.9118 6.4041e-06 59.2673C0.0226688 46.3935 0.0226688 33.5196 0.00133949 20.6458C6.40406e-06 20.0241 0.170641 19.8944 0.763863 19.8957C11.4259 19.9144 22.0879 19.9118 32.7485 19.9011C33.1938 19.9011 33.3951 19.9933 33.595 20.4626C34.1243 21.706 34.7428 22.9173 35.408 24.0965C36.0213 25.1835 37.1704 25.5338 38.3355 25.1033C38.4395 25.0645 38.5394 25.0177 38.6421 24.9749C39.7885 24.4923 40.0512 24.5645 40.8697 25.503C41.103 25.7691 40.9377 26.0098 40.887 26.2491C40.747 26.8962 40.4804 27.5179 40.6377 28.2091C40.823 29.0273 41.2563 29.6424 42.0468 29.9325C43.2932 30.3897 44.5423 30.8456 45.8128 31.2294C46.9005 31.5583 47.959 31.0596 48.5122 30.0515C48.6616 29.7801 48.8069 29.498 48.8935 29.2025C49.0508 28.661 49.3148 28.4671 49.932 28.3682C50.7945 28.2292 51.1837 28.5246 51.509 29.2252C51.9543 30.1838 52.7035 30.7681 53.7873 30.8002C54.1019 30.8095 54.1685 30.9165 54.1485 31.1866C54.1339 31.3858 54.1445 31.5877 54.1445 31.7882C54.1445 40.9653 54.1405 50.1411 54.1579 59.3181C54.1592 59.8623 54.0459 60.0053 53.4806 60.004C44.661 59.9786 35.8426 59.9853 27.0256 59.9853ZM14.156 43.9468C16.9528 43.9468 19.751 43.9388 22.5478 43.9548C22.9584 43.9575 23.1263 43.8773 23.105 43.4187C23.0623 42.4855 23.1157 41.5482 23.0757 40.615C22.9677 38.0961 21.9559 35.9904 20.1442 34.251C19.8616 33.9809 19.7323 34.021 19.479 34.2844C16.4463 37.4437 11.8538 37.4477 8.78103 34.2911C8.51708 34.021 8.3891 34.0049 8.11448 34.267C6.93337 35.3981 6.10953 36.7391 5.62429 38.3007C5.11105 39.9505 5.26435 41.6485 5.21503 43.3344C5.20036 43.8331 5.32967 43.9642 5.83225 43.9588C8.60639 43.9321 11.3805 43.9455 14.156 43.9468ZM20.0176 29.3001C20.0229 26.0606 17.3781 23.3946 14.152 23.3906C10.9819 23.3866 8.29045 26.0713 8.28245 29.2479C8.27446 32.4794 10.9699 35.2163 14.1334 35.1922C17.3967 35.1668 20.0109 32.5476 20.0176 29.3001ZM48.0257 36.5746C46.262 38.2325 44.6423 39.7433 43.0399 41.2728C42.7587 41.5415 42.628 41.4159 42.4267 41.1966C40.9003 39.5214 39.366 37.8541 37.8316 36.1869C37.181 35.4796 36.9384 35.4609 36.2279 36.0733C34.0416 37.9598 31.858 39.8489 29.6771 41.7394C29.5105 41.8838 29.3492 42.0389 29.2132 42.2114C28.9852 42.5002 29.0372 42.8063 29.2625 43.0644C29.4878 43.3211 29.7944 43.404 30.1064 43.2395C30.2997 43.1379 30.465 42.9802 30.6329 42.8358C32.5686 41.1699 34.5175 39.5187 36.4238 37.8194C36.8678 37.4236 37.0624 37.5359 37.3997 37.909C38.9047 39.5735 40.4338 41.2167 41.9615 42.8598C42.5174 43.4575 42.8133 43.4561 43.4092 42.8973C44.7529 41.6351 46.0927 40.3677 47.4378 39.1069C47.9604 38.6176 48.4922 38.1389 49.0868 37.5961C49.1081 38.0533 49.1028 38.3876 49.1428 38.7165C49.1921 39.1189 49.4387 39.385 49.8467 39.381C50.2826 39.377 50.5532 39.1082 50.5599 38.6617C50.5719 37.7057 50.5639 36.7484 50.5505 35.7925C50.5452 35.3994 50.3039 35.1534 49.928 35.1441C48.9522 35.12 47.975 35.1146 46.9992 35.1494C46.6393 35.1628 46.394 35.4128 46.3766 35.8099C46.3593 36.227 46.5673 36.5011 46.9685 36.5666C47.2458 36.6107 47.5364 36.5746 48.0257 36.5746ZM14.148 55.9957C17.3901 55.9957 20.6321 55.9957 23.8742 55.9957C25.3632 55.9957 25.3273 55.9944 25.3806 54.5331C25.4032 53.9194 25.2006 53.8245 24.6474 53.8258C17.9193 53.8445 11.1912 53.8378 4.46317 53.8378C2.93146 53.8378 2.95679 53.8378 2.92879 55.3981C2.91946 55.9128 3.0701 56.0118 3.55667 56.0078C7.08668 55.9864 10.618 55.9957 14.148 55.9957ZM14.2147 48.6249C10.9726 48.6249 7.73056 48.6249 4.48983 48.6249C2.93679 48.6249 2.96612 48.6262 2.92879 50.1584C2.91546 50.7133 3.10876 50.7922 3.59533 50.7922C10.3674 50.7775 17.1395 50.7828 23.9115 50.7828C25.3672 50.7828 25.3273 50.7815 25.3806 49.3522C25.4046 48.7051 25.174 48.6102 24.6061 48.6142C21.1427 48.6369 17.678 48.6249 14.2147 48.6249ZM35.5453 49.2961C35.5453 51.343 35.556 53.3913 35.5373 55.4382C35.5333 55.854 35.616 56.0372 36.0786 56.0064C36.7198 55.9636 37.3663 55.9757 38.0089 56.0024C38.3861 56.0184 38.5021 55.8981 38.5008 55.5144C38.4888 51.3524 38.4875 47.1903 38.4995 43.0283C38.5008 42.6339 38.4155 42.4667 37.9862 42.4908C37.3663 42.5256 36.7425 42.5229 36.1226 42.4841C35.6507 42.4547 35.528 42.6218 35.5333 43.0844C35.5573 45.1568 35.544 47.2264 35.5453 49.2961ZM49.844 49.9552C49.844 48.1543 49.828 46.3547 49.8547 44.5538C49.8613 44.0778 49.7134 43.9361 49.2521 43.9615C48.6109 43.9963 47.967 43.9829 47.3245 43.9642C47.0165 43.9548 46.8912 44.0444 46.8926 44.3733C46.9005 48.1075 46.9019 51.8417 46.8912 55.5759C46.8899 55.9035 47.0045 55.9904 47.3138 55.981C47.9777 55.961 48.6456 55.9476 49.3081 55.985C49.7573 56.0104 49.8573 55.8473 49.8533 55.4222C49.8307 53.6012 49.844 51.7775 49.844 49.9552ZM44.1411 51.8297C44.1411 50.5635 44.1277 49.2961 44.1491 48.0313C44.1557 47.6556 44.0531 47.5326 43.6731 47.5486C42.9879 47.5781 42.2987 47.5714 41.6135 47.55C41.2883 47.5393 41.2043 47.6596 41.2056 47.9711C41.2163 50.5034 41.2189 53.037 41.2069 55.5692C41.2056 55.8928 41.3056 55.9904 41.6215 55.981C42.3081 55.961 42.9959 55.9516 43.6812 55.9837C44.0717 56.0011 44.1557 55.8593 44.1491 55.4957C44.1291 54.2737 44.1424 53.0517 44.1411 51.8297ZM29.8744 51.7093C29.8744 52.9781 29.8811 54.2456 29.8704 55.5144C29.8677 55.8192 29.8864 56.0064 30.285 55.9864C30.9929 55.9489 31.7047 55.9556 32.4139 55.981C32.7459 55.993 32.8139 55.8767 32.8125 55.5665C32.8005 53.0303 32.7992 50.4927 32.8112 47.9564C32.8125 47.6275 32.7072 47.5433 32.3939 47.5526C31.7061 47.574 31.0169 47.5821 30.3303 47.5473C29.9331 47.5272 29.8597 47.6783 29.8664 48.038C29.8864 49.2613 29.8744 50.4847 29.8744 51.7093Z" fill="#96644D"/>
<path d="M53.878 29.3736C53.3261 29.403 53.0582 29.153 52.8555 28.8108C52.5503 28.2947 52.241 27.7799 51.9624 27.2491C51.7771 26.8962 51.5798 26.7224 51.1345 26.8186C50.3533 26.9884 49.5468 27.0245 48.7497 26.9644C48.3364 26.9336 48.1591 27.1034 48.0298 27.4617C47.8125 28.066 47.5779 28.6677 47.3113 29.252C47.0566 29.8108 46.626 30.0408 46.0075 29.8282C44.941 29.4619 43.8652 29.1183 42.8041 28.7359C42.0762 28.4738 41.8963 28.0955 42.0789 27.3374C42.2189 26.7545 42.3482 26.1675 42.5282 25.5966C42.6561 25.1889 42.5442 24.9509 42.1975 24.7236C41.5083 24.2744 40.8631 23.7596 40.3459 23.1125C40.1326 22.8464 39.9393 22.8719 39.666 22.9962C39.1021 23.2529 38.5262 23.4869 37.949 23.7115C37.1998 24.0043 36.7746 23.8479 36.4173 23.1473C35.9334 22.1993 35.4521 21.2487 34.9882 20.2901C34.5856 19.4585 34.7176 19.0775 35.5348 18.5948C36.1267 18.2445 36.8945 18.0226 37.2611 17.5119C37.6224 17.0065 37.0692 16.227 37.1985 15.5732C37.4464 14.3151 36.8199 13.8151 35.7201 13.4341C34.0511 12.8538 34.0217 12.6533 34.6016 10.9994C34.8736 10.2253 35.1189 9.44314 35.3922 8.66903C35.6748 7.87218 36.0454 7.67565 36.8732 7.87218C37.4118 7.9992 37.9583 8.10616 38.4769 8.29333C38.9075 8.44843 39.1608 8.37088 39.4101 7.98315C39.8553 7.29059 40.3806 6.65419 41.0124 6.12073C41.2431 5.92687 41.2591 5.74504 41.1484 5.48432C40.8791 4.85193 40.6272 4.21151 40.3779 3.56976C40.1473 2.97747 40.3246 2.51888 40.8831 2.23143C41.9283 1.6953 42.9814 1.17387 44.0332 0.648438C44.5878 0.371681 45.0303 0.530783 45.345 1.0375C45.7089 1.62177 46.0622 2.21405 46.3888 2.81971C46.5394 3.0978 46.6954 3.17802 47.0153 3.11652C47.8658 2.95474 48.7283 2.86115 49.5975 2.93469C49.9148 2.96143 50.0734 2.84912 50.1827 2.54429C50.4 1.93997 50.6586 1.34902 50.9132 0.759408C51.2199 0.0481301 51.5611 -0.135037 52.2717 0.0909138C53.3688 0.439868 54.4592 0.814224 55.5444 1.19928C56.1363 1.40918 56.3589 1.85841 56.2123 2.47075C56.0576 3.11785 55.9016 3.76763 55.7123 4.40537C55.623 4.70486 55.6604 4.88803 55.927 5.07654C56.6708 5.60064 57.408 6.14346 57.9773 6.86677C58.1732 7.11545 58.3519 7.01384 58.5571 6.92827C59.129 6.68895 59.6969 6.44294 60.2742 6.21833C61.0647 5.91082 61.4859 6.06056 61.8592 6.79323C62.3431 7.7425 62.8217 8.69443 63.2816 9.65573C63.6469 10.4191 63.5149 10.8216 62.7924 11.2655C62.4138 11.4981 62.0485 11.7655 61.6432 11.9353C60.9887 12.2107 60.7794 12.6265 60.9647 13.3204C61.1433 13.9916 61.0993 14.6922 61.0673 15.3807C61.0527 15.7163 61.142 15.8981 61.4739 16.0184C62.0965 16.2457 62.707 16.5145 63.3123 16.7886C63.9561 17.08 64.1281 17.449 63.9108 18.1269C63.5655 19.2045 63.1989 20.2754 62.8217 21.3423C62.5831 22.0175 62.2391 22.206 61.5486 22.0563C60.922 21.9213 60.2902 21.7942 59.6836 21.5924C59.3183 21.4707 59.1197 21.5349 58.9117 21.8424C58.4252 22.5603 57.8959 23.2475 57.2227 23.8051C56.9894 23.9976 57.0068 24.1995 57.1148 24.4535C57.3854 25.0859 57.6413 25.725 57.8906 26.3654C58.1106 26.9323 57.9386 27.3828 57.4107 27.6569C56.3496 28.2078 55.2764 28.7345 54.2046 29.2653C54.0687 29.3335 53.9154 29.3616 53.878 29.3736ZM57.0934 14.9382C57.0548 10.4673 53.4794 6.89886 49.0856 6.94699C44.6837 6.99512 41.1564 10.6331 41.2044 15.0759C41.2524 19.4304 44.8464 22.9842 49.1842 22.9641C53.5634 22.9427 57.1321 19.3208 57.0934 14.9382Z" fill="#689F4E"/>
<path d="M17.3741 17.4637C11.8018 17.4637 6.23083 17.4557 0.658539 17.4758C0.138637 17.4771 -0.00400331 17.3501 0.00266211 16.8233C0.0346561 14.62 0.0266576 12.4166 0.00666136 10.2119C0.00266211 9.77338 0.0773148 9.60492 0.571889 9.60626C11.4045 9.62096 22.2372 9.61963 33.0698 9.60492C33.5484 9.60492 33.5764 9.7453 33.4404 10.1344C33.2444 10.6986 33.0378 11.2681 32.9312 11.8537C32.7339 12.938 33.2551 13.89 34.2376 14.3793C34.3362 14.4288 34.4349 14.501 34.5402 14.5143C35.7146 14.6627 35.8746 15.4957 35.8639 16.4556C35.8599 16.8394 35.0241 17.441 34.4215 17.4624C33.9776 17.4771 33.5337 17.4664 33.0898 17.4664C27.8521 17.4637 22.6131 17.4637 17.3741 17.4637ZM8.01183 14.5424C9.5862 14.5424 11.1606 14.5518 12.7336 14.5371C13.3015 14.5317 14.0454 14.7871 14.392 14.4261C14.7372 14.0678 14.4426 13.3231 14.5066 12.7549C14.5626 12.2535 14.3973 12.1225 13.8947 12.1251C10.3927 12.1479 6.88937 12.1358 3.38736 12.1398C2.81547 12.1398 2.04628 11.9487 1.72234 12.2401C1.34508 12.5811 1.65435 13.3685 1.59036 13.9568C1.54104 14.4114 1.67568 14.5611 2.15826 14.5544C4.10989 14.5237 6.06153 14.5411 8.01183 14.5424ZM17.8393 14.5277C18.4605 14.529 19.0484 13.9541 19.0511 13.3418C19.0538 12.7148 18.4925 12.1479 17.8646 12.1398C17.2274 12.1332 16.6809 12.6706 16.6702 13.3151C16.6609 13.9528 17.2141 14.5264 17.8393 14.5277ZM22.6118 12.1385C21.9732 12.1519 21.452 12.7054 21.4666 13.3552C21.4813 14.0023 22.0359 14.5438 22.6677 14.5277C23.2996 14.5117 23.8289 13.9475 23.8155 13.303C23.8022 12.6639 23.2463 12.1265 22.6118 12.1385Z" fill="#96644D"/>
<path d="M52.8074 14.9462C52.8127 16.9543 51.2077 18.6069 49.2107 18.651C47.2324 18.6951 45.4994 16.9958 45.4821 14.9957C45.4634 12.9862 47.1404 11.2735 49.1321 11.2641C51.149 11.2534 52.8021 12.9086 52.8074 14.9462Z" fill="#96644D"/>
</g>
<defs>
<clipPath id="clip0_160_431">
<rect width="64" height="60" fill="white"/>
</clipPath>
</defs>
</svg>
