<svg width="63" height="91" viewBox="0 0 63 91" fill="none" xmlns="http://www.w3.org/2000/svg">
<g clip-path="url(#clip0_160_581)">
<path d="M16.3544 0.350177C16.3191 0.231338 16.2677 0.153697 16.2902 0.110916C16.3158 0.0586269 16.4025 0.0348592 16.4635 0C16.4827 0.0459508 16.5293 0.101409 16.5164 0.136268C16.4924 0.198064 16.4346 0.248768 16.3544 0.350177Z" fill="#343333"/>
<path d="M31.1881 87.5331C43.0624 87.5299 53.2199 79.8768 56.3634 68.725C56.4516 68.4112 56.4067 67.9042 56.7741 67.8662C57.1288 67.8297 57.2186 68.332 57.3935 68.6141C57.8124 69.2891 58.167 70.0037 58.6147 70.6597C59.0543 71.3046 59.0335 71.9051 58.7318 72.5928C54.1201 83.0996 46.1289 89.3569 34.6012 90.7845C18.5483 92.7731 3.68283 80.791 2.17126 64.8794C2.14879 64.6433 2.09102 64.4072 2.08942 64.1727C2.0814 63.4058 1.70912 63.1142 0.93247 63.1269C-0.169922 63.1459 -0.205224 63.0461 0.361216 62.0764C1.33524 60.4079 2.32691 58.7473 3.28969 57.0725C3.60741 56.5179 3.83848 56.4244 4.19472 57.0487C5.1896 58.7964 6.22459 60.5235 7.2291 62.2665C7.62705 62.9558 7.54682 63.0857 6.7814 63.1364C5.59718 63.214 5.47362 63.3598 5.61162 64.5371C6.99482 76.3972 15.7482 85.4447 27.6338 87.2812C28.8742 87.4729 30.1258 87.5933 31.1881 87.5331Z" fill="#96644D"/>
<path d="M31.7401 56.0124C28.9159 56.0346 26.2811 55.9269 23.6559 55.5497C22.4861 55.3818 21.7367 54.8336 21.4094 53.7228C20.6327 51.0862 20.5124 48.4115 21.188 45.7543C21.6292 44.0224 24.0683 42.4047 25.8093 42.4902C26.1319 42.5061 26.2731 42.6946 26.4175 42.926C27.552 44.745 29.1261 46.2614 30.1387 48.1659C30.1948 48.2721 30.3168 48.4084 30.4163 48.4163C30.6185 48.4305 30.6441 48.223 30.6762 48.0772C31.0132 46.4673 31.432 44.8686 30.0279 43.4663C29.5305 42.9687 29.7343 42.598 30.4419 42.5647C31.1881 42.5314 31.9391 42.5298 32.6852 42.5679C33.348 42.6027 33.4699 42.8895 33.0992 43.4473C32.8794 43.7768 32.6018 44.0731 32.4044 44.4138C31.6518 45.7036 32.2247 46.9934 32.5023 48.2562C32.6018 48.7078 32.8634 48.2864 32.9693 48.1327C33.4795 47.3911 33.9641 46.6337 34.468 45.889C35.1789 44.8369 36.1449 43.9686 36.7338 42.8277C36.9135 42.4791 37.2168 42.4585 37.5569 42.5298C40.0682 43.0559 41.9537 44.2237 42.2104 47.1835C42.3773 49.1135 42.3227 51.0323 41.9312 52.9321C41.6135 54.4659 40.8449 55.4547 39.0765 55.6195C36.5733 55.8524 34.0765 56.0552 31.7401 56.0124Z" fill="#689F4E"/>
<path d="M38.7616 34.4647C38.7536 38.3848 35.5331 41.5569 31.5535 41.5633C27.5435 41.5696 24.3118 38.3673 24.3262 34.4045C24.3423 30.3909 27.5147 27.2282 31.5343 27.2187C35.5828 27.2092 38.7696 30.4036 38.7616 34.4647Z" fill="#689F4E"/>
<path d="M57.5122 59.2607C57.0757 54.2948 55.3299 49.8265 52.2714 45.8605C49.3509 42.0735 45.6218 39.3371 41.156 37.5672C40.0905 37.1457 40.1018 37.1504 40.2863 36.0239C40.3714 35.5041 40.442 34.9749 40.442 34.4504C40.442 33.8135 40.7164 33.7533 41.2459 33.9339C43.7106 34.7753 46.0454 35.8812 48.1747 37.3628C55.601 42.5314 59.8855 49.5635 60.9188 58.4985C60.9493 58.76 61.0103 59.0214 61.0119 59.2845C61.0167 59.9721 61.3328 60.2653 62.0453 60.278C63.1397 60.297 63.2039 60.4348 62.6647 61.3649C61.7228 62.9906 60.7776 64.6148 59.8197 66.231C59.4137 66.9139 59.2645 66.9107 58.8601 66.2278C57.8636 64.5419 56.8767 62.8496 55.8931 61.1558C55.4775 60.4396 55.5497 60.3191 56.3873 60.2684C57.395 60.2114 57.5362 60.0846 57.5122 59.2607Z" fill="#96644D"/>
<path d="M22.9478 36.8621C22.9911 37.3929 22.4985 37.4642 22.1214 37.6147C18.8816 38.9077 16.0045 40.7536 13.5269 43.1779C10.2101 46.423 7.92992 50.2813 6.68311 54.7322C6.6093 54.9952 6.64781 55.4087 6.30281 55.4452C5.97065 55.4801 5.88881 55.0792 5.746 54.8431C5.26621 54.0492 4.82493 53.2348 4.33872 52.4457C4.06272 51.9973 4.04828 51.5774 4.24244 51.0957C7.51752 42.9735 13.2959 37.3453 21.5293 34.1668C22.4038 33.8293 22.5354 33.9307 22.6606 34.8466C22.7456 35.474 22.8387 36.0999 22.9269 36.7274C22.9318 36.7511 22.935 36.7765 22.9478 36.8621Z" fill="#96644D"/>
<path d="M25.8555 81.9905C24.7612 82.0031 23.6716 81.973 22.5805 81.8384C21.7236 81.7338 21.2759 81.2854 21.1716 80.4836C21.0625 79.6486 20.9887 78.8088 21.1026 77.9626C21.3224 76.3148 22.8709 75.4575 24.3969 76.1848C25.4432 76.6839 26.4493 76.638 27.473 76.1484C28.8017 75.513 30.424 76.2926 30.6679 77.7281C30.8267 78.663 30.8043 79.6169 30.6117 80.5581C30.4545 81.325 30.0148 81.7306 29.2093 81.8415C28.0924 81.9936 26.9756 81.9921 25.8555 81.9905Z" fill="#96644D"/>
<path d="M37.2872 81.9699C36.1912 81.9984 35.0985 81.9873 34.0073 81.8384C33.2387 81.7322 32.7846 81.3424 32.6353 80.6135C32.4267 79.5947 32.3947 78.5568 32.6193 77.5475C32.9097 76.2387 34.5016 75.5368 35.7211 76.1341C36.8042 76.6649 37.8633 76.6649 38.9528 76.1357C40.2189 75.5225 41.8348 76.2862 42.0707 77.6315C42.2359 78.5679 42.2055 79.5266 42.0578 80.4709C41.9279 81.2996 41.4689 81.8035 40.5687 81.8431C40.1964 81.859 39.8258 81.954 39.4535 81.9635C38.7298 81.9841 38.0077 81.9699 37.2872 81.9699Z" fill="#96644D"/>
<path d="M19.3391 70.9052C18.6074 70.9195 17.6767 70.8783 16.7476 70.7468C15.9758 70.639 15.5441 70.2366 15.4045 69.5014C15.2408 68.6426 15.1398 67.7822 15.281 66.9075C15.4864 65.6415 16.3753 64.8524 17.6783 64.7684C18.0329 64.7462 18.2784 64.93 18.556 65.0885C19.5349 65.6447 20.541 65.6859 21.5295 65.1297C22.6046 64.5244 24.3584 65.1392 24.7869 66.2975C25.2378 67.5191 25.0035 68.1514 23.8594 68.7931C23.2914 69.1116 22.7666 69.5109 22.4666 70.0718C22.0959 70.7674 21.5615 70.9702 20.8266 70.9132C20.3998 70.8783 19.9713 70.9052 19.3391 70.9052Z" fill="#96644D"/>
<path d="M43.4633 70.9068C43.1696 70.9068 42.8727 70.8815 42.5823 70.9116C41.7094 71.0019 41.0386 70.788 40.6118 69.9355C40.323 69.3587 39.7469 69.0181 39.1708 68.7218C38.7392 68.4999 38.1615 68.4397 38.1358 67.7727C38.1021 66.9091 38.1134 66.0313 38.8724 65.4577C39.6378 64.8793 40.4706 64.5498 41.4558 65.1202C42.478 65.7112 43.5451 65.6225 44.5945 65.0932C45.8911 64.4404 47.4412 65.1867 47.7493 66.6001C47.9739 67.6269 47.8776 68.6441 47.6402 69.6566C47.4877 70.2999 47.0737 70.6311 46.4142 70.7262C45.4354 70.8672 44.4533 70.9417 43.4633 70.9068Z" fill="#96644D"/>
<path d="M31.7655 70.8989C31.2488 70.8989 30.9006 70.8894 30.554 70.9005C30.0517 70.9163 29.7051 70.7167 29.434 70.2873C29.02 69.6297 28.4776 69.0751 27.7571 68.7376C27.2131 68.4841 26.6916 68.2845 26.7141 67.5239C26.7398 66.6191 26.8055 65.7477 27.7009 65.2517C28.4664 64.827 29.2254 64.6147 30.1079 65.1471C31.0595 65.7223 32.1057 65.6542 33.0893 65.1091C34.0361 64.5846 35.4482 64.9411 36.0274 65.8617C36.7239 66.9661 36.411 68.21 35.2829 68.8073C34.8288 69.0482 34.3554 69.3223 34.1291 69.7628C33.5772 70.8387 32.7026 71.0906 31.7655 70.8989Z" fill="#96644D"/>
<path d="M29.1354 72.4058C29.137 74.2565 27.7699 75.6382 25.9293 75.6461C24.1225 75.654 22.6222 74.2169 22.6157 72.4707C22.6093 70.6517 24.0952 69.1591 25.9005 69.175C27.7378 69.1892 29.1354 70.5852 29.1354 72.4058Z" fill="#96644D"/>
<path d="M23.3573 61.3934C23.3477 63.1871 21.8923 64.5862 20.0662 64.5577C18.2738 64.5308 16.812 63.0651 16.8248 61.3079C16.8376 59.5522 18.3396 58.077 20.1063 58.085C21.9516 58.0945 23.3685 59.5348 23.3573 61.3934Z" fill="#96644D"/>
<path d="M42.9661 58.085C44.7312 58.0659 46.2396 59.5316 46.2636 61.2904C46.2877 63.0476 44.8323 64.5212 43.0367 64.5577C41.2106 64.5941 39.7488 63.2013 39.7311 61.4093C39.7135 59.5443 41.1143 58.1056 42.9661 58.085Z" fill="#96644D"/>
<path d="M28.3252 61.3047C28.3316 59.4698 29.7181 58.0866 31.549 58.0897C33.3782 58.0929 34.7598 59.4778 34.7631 61.3158C34.7663 63.1982 33.3766 64.5799 31.4992 64.5593C29.6667 64.5387 28.3188 63.157 28.3252 61.3047Z" fill="#96644D"/>
<path d="M40.5428 72.4438C40.5348 74.2803 39.1612 75.6461 37.3239 75.6461C35.4802 75.6461 34.1098 74.2787 34.105 72.4359C34.1002 70.5693 35.5283 69.1464 37.3769 69.1781C39.219 69.2082 40.5509 70.5852 40.5428 72.4438Z" fill="#96644D"/>
</g>
<defs>
<clipPath id="clip0_160_581">
<rect width="63" height="91" fill="white"/>
</clipPath>
</defs>
</svg>
