<svg width="26" height="26" viewBox="0 0 26 26" fill="none" xmlns="http://www.w3.org/2000/svg">
<g clip-path="url(#clip0_160_777)">
<path d="M13.8149 21.3384C17.5771 21.3277 20.8608 19.2102 22.1732 15.9897C22.2703 15.7511 22.3645 15.7358 22.5944 15.8161C23.2702 16.0513 23.9532 16.2696 24.6387 16.4788C24.8288 16.5364 24.8571 16.5998 24.7871 16.7705C24.4559 17.5807 24.0486 18.3542 23.5242 19.0694C23.421 19.2102 23.4247 19.2996 23.526 19.4353C23.8953 19.9277 24.2453 20.4326 24.6128 20.9262C24.7123 21.0597 24.7334 21.1411 24.5898 21.2711C23.9484 21.8552 23.3166 22.4488 22.6933 23.0499C22.5636 23.1748 22.4864 23.1613 22.3476 23.0708C21.8033 22.7168 21.2464 22.381 20.7015 22.0282C20.5742 21.9456 20.4909 21.9445 20.3618 22.0276C19.5822 22.5303 18.7477 22.9374 17.8534 23.2302C17.702 23.28 17.6652 23.3597 17.661 23.4982C17.641 24.1196 17.6042 24.7404 17.5867 25.3618C17.5819 25.5263 17.5276 25.5829 17.3496 25.6072C16.4855 25.7248 15.6233 25.8548 14.7622 25.9905C14.5601 26.0222 14.4617 25.9803 14.3923 25.7853C14.1896 25.2159 13.9549 24.6562 13.7437 24.0891C13.6894 23.9443 13.6157 23.8872 13.4456 23.8821C12.5085 23.8539 11.5871 23.7233 10.688 23.4705C10.5245 23.4247 10.4316 23.4683 10.3338 23.5881C9.94344 24.0665 9.53856 24.5346 9.15178 25.0158C9.03653 25.1594 8.95446 25.195 8.76862 25.1028C7.98962 24.7155 7.20279 24.3429 6.41112 23.9783C6.24036 23.8997 6.20898 23.829 6.2651 23.6588C6.45638 23.0753 6.61809 22.4839 6.80696 21.8998C6.86187 21.7308 6.80213 21.6465 6.66817 21.5487C5.94288 21.0206 5.29664 20.4151 4.73668 19.7332C4.62385 19.5958 4.52247 19.5749 4.35956 19.6201C3.73503 19.7932 3.10569 19.9509 2.48298 20.1284C2.32187 20.1742 2.24524 20.1669 2.16197 20.0091C1.76251 19.2521 1.34798 18.5018 0.928611 17.7537C0.851376 17.6158 0.877926 17.5474 1.00404 17.4575C1.53081 17.0804 2.04611 16.6897 2.57228 16.312C2.6996 16.2204 2.74244 16.1452 2.69115 15.9852C2.42264 15.1433 2.27842 14.2794 2.25308 13.4013C2.24825 13.239 2.18731 13.1717 2.03525 13.1214C1.42219 12.9167 0.815172 12.6957 0.199701 12.4972C0.0198876 12.439 -0.0211438 12.3626 0.00902636 12.1936C0.157463 11.3585 0.30047 10.5228 0.428994 9.6849C0.455544 9.51132 0.56657 9.52885 0.682423 9.52433C1.3353 9.49888 1.98758 9.47005 2.64046 9.45478C2.81123 9.45083 2.90536 9.41125 2.96449 9.24671C3.25895 8.4331 3.67469 7.67264 4.19422 6.96588C4.32094 6.79287 4.29801 6.68375 4.18095 6.52713C3.8183 6.04202 3.47678 5.54277 3.11775 5.05539C3.02543 4.92987 2.99707 4.85298 3.13405 4.72746C3.7821 4.13661 4.4211 3.53616 5.05347 2.93005C5.17536 2.81301 5.2544 2.83167 5.3787 2.91195C5.92357 3.2642 6.4781 3.60401 7.02177 3.95795C7.15391 4.04389 7.24322 4.05576 7.38622 3.96417C8.16642 3.46266 9.00274 3.05896 9.89577 2.76495C10.046 2.71519 10.0846 2.64169 10.0883 2.50091C10.1033 1.88914 10.1395 1.27738 10.151 0.665613C10.1546 0.475073 10.2228 0.41514 10.4244 0.388001C11.2691 0.276052 12.1109 0.14714 12.9526 0.0159667C13.1572 -0.0162612 13.2615 -0.0190882 13.3038 0.233081C13.5379 1.61662 13.7998 2.9962 14.058 4.37634C14.0961 4.57932 14.0792 4.65905 13.8076 4.66018C9.4215 4.67714 5.67316 7.7484 5.06916 11.8063C4.39154 16.3566 7.66801 20.522 12.4922 21.2395C12.9586 21.3084 13.4305 21.3344 13.8149 21.3384Z" fill="#96644D"/>
<path d="M14.0444 11.4821C14.2399 11.4934 14.4764 11.5166 14.6701 11.641C14.842 11.7513 14.9368 11.7009 15.0713 11.5839C16.2202 10.5843 17.3757 9.59142 18.5331 8.60027C18.6055 8.53808 18.6688 8.38316 18.8191 8.52847C18.9729 8.6766 18.7913 8.72749 18.7298 8.79138C17.6611 9.90465 16.5889 11.0145 15.51 12.1193C15.3954 12.2364 15.364 12.3319 15.4092 12.4897C15.5601 13.0144 15.4304 13.4831 15.0007 13.854C14.5735 14.2232 14.0679 14.3193 13.52 14.1327C13.3643 14.0796 13.2642 14.0864 13.161 14.2091C13.0807 14.3046 12.9806 14.386 12.8858 14.4703C12.7857 14.559 12.6209 14.7332 12.5895 14.7145C12.4236 14.6161 12.2903 14.4697 12.1479 14.3374C12.1044 14.2967 12.1189 14.2549 12.1617 14.2175C12.2058 14.1791 12.2438 14.1339 12.2903 14.0982C12.6239 13.8404 12.7995 13.6131 12.6137 13.1274C12.3102 12.3319 13.0868 11.4878 14.0444 11.4821Z" fill="#689F4E"/>
<path d="M18.227 4.94388C17.8252 4.93709 17.5723 4.55375 17.7763 4.21112C18.1914 3.51511 18.6156 2.82419 19.0434 2.13496C19.2196 1.85056 19.4568 1.80137 19.7542 1.96478C20.0348 2.11913 20.1078 2.33455 19.9437 2.6082C19.5274 3.30365 19.1001 3.99287 18.6796 4.68549C18.5824 4.8455 18.4455 4.93822 18.227 4.94388Z" fill="#96644D"/>
<path d="M24.4542 6.71185C24.4603 6.89109 24.3679 7.01717 24.2093 7.10424C23.4653 7.51246 22.7231 7.92407 21.9749 8.32438C21.687 8.47817 21.4553 8.4041 21.2906 8.13723C21.1265 7.87149 21.1772 7.64929 21.465 7.48928C22.1975 7.08106 22.9325 6.6768 23.6722 6.28158C24.0475 6.0803 24.4494 6.30929 24.4542 6.71185Z" fill="#96644D"/>
<path d="M24.2059 13.0088C23.7847 13.0088 23.3629 13.0127 22.9418 13.0076C22.6039 13.0037 22.4409 12.8499 22.4343 12.5446C22.4271 12.2268 22.5948 12.0481 22.94 12.0442C23.7926 12.034 24.6458 12.0323 25.4984 12.0346C25.8182 12.0357 25.998 12.2172 25.9998 12.5118C26.0016 12.8047 25.8218 12.9873 25.5002 12.9941C25.0688 13.0025 24.6373 12.9963 24.2059 12.9963C24.2059 13.0003 24.2059 13.0048 24.2059 13.0088Z" fill="#96644D"/>
</g>
<defs>
<clipPath id="clip0_160_777">
<rect width="26" height="26" fill="white"/>
</clipPath>
</defs>
</svg>
