<svg width="42" height="41" viewBox="0 0 42 41" fill="none" xmlns="http://www.w3.org/2000/svg">
<g clip-path="url(#clip0_160_1838)">
<path d="M34.0821 10.0885C31.6905 10.0885 29.2989 10.0885 26.9082 10.0885C26.3712 10.0885 25.9833 9.74988 25.9516 9.20219C25.8854 8.06208 25.2961 7.30444 24.2313 6.89003C24.0719 6.82796 23.9814 6.72572 23.8807 6.61253C23.1637 5.80378 22.2733 5.50164 21.2103 5.78278C21.0127 5.83481 20.8514 5.8056 20.6751 5.76361C19.6597 5.52537 18.8085 5.80925 18.1092 6.54863C17.9609 6.70564 17.8229 6.84804 17.6094 6.93202C16.6089 7.32909 16.084 8.08308 15.9721 9.11912C15.8956 9.8302 15.6225 10.0894 14.912 10.0894C10.098 10.0894 5.28399 10.0867 0.470007 10.0977C0.122221 10.0986 -0.00458552 10.0356 0.00380609 9.66042C0.0261837 8.49293 0.00940055 8.49476 1.12642 8.03926C7.61966 5.39027 14.112 2.7422 20.6005 0.0840779C20.8803 -0.0309368 21.1012 -0.0272855 21.3791 0.0868164C28.1101 2.84169 34.8439 5.58927 41.5824 8.32771C41.8705 8.44455 42.0019 8.58056 41.9609 8.89274C41.9106 9.27978 42.1306 9.80008 41.8695 10.0246C41.6467 10.2163 41.1301 10.0867 40.7441 10.0867C38.5232 10.0904 36.3022 10.0885 34.0821 10.0885Z" fill="#96644D"/>
<path d="M20.9875 40.9911C14.152 40.9911 7.31753 40.9874 0.482098 41.0002C0.0895573 41.0011 -0.0260604 40.9053 0.00470879 40.5265C0.0410724 40.0883 0.0280188 39.6447 0.00750599 39.2047C-0.00461522 38.9464 0.0774361 38.8715 0.342238 38.8743C1.44527 38.8879 2.5483 38.8806 3.65133 38.8806C16.2499 38.8806 28.8485 38.8825 41.4471 38.8706C41.8714 38.8706 42.0084 38.971 41.9702 39.3873C41.931 39.8245 41.9516 40.269 41.9655 40.7099C41.9721 40.9244 41.9087 41.0212 41.6793 40.9938C41.5721 40.981 41.4621 40.992 41.353 40.992C34.5651 40.9911 27.7763 40.9911 20.9875 40.9911Z" fill="#96644D"/>
<path d="M20.9474 38.4535C19.6281 38.4535 18.3078 38.4471 16.9885 38.4589C16.7106 38.4617 16.5866 38.427 16.5894 38.1011C16.6071 36.1249 16.581 34.1486 16.6053 32.1733C16.622 30.8351 17.2169 29.7553 18.2668 28.9027C18.485 28.7256 18.609 28.7457 18.7992 28.9401C19.4118 29.5645 20.057 30.1596 20.6687 30.7849C20.9008 31.0232 21.0547 31.0013 21.2738 30.7776C21.8761 30.1642 22.5083 29.5791 23.1032 28.9584C23.3279 28.7238 23.478 28.7393 23.7111 28.931C24.7591 29.7918 25.3251 30.889 25.3446 32.2199C25.3726 34.1806 25.3465 36.1413 25.3586 38.102C25.3605 38.3823 25.2878 38.4626 24.9978 38.4599C23.6495 38.4453 22.2985 38.4535 20.9474 38.4535Z" fill="#96644D"/>
<path d="M20.962 30.511C20.0492 29.6146 19.1597 28.7465 18.2758 27.8729C17.542 27.1463 17.4926 26.1413 18.149 25.475C18.8082 24.8059 19.8385 24.8196 20.5826 25.5516C20.8921 25.8565 21.0702 25.8246 21.362 25.5297C22.0436 24.8396 23.1308 24.8342 23.7742 25.4731C24.4268 26.1212 24.4184 27.1016 23.7238 27.799C22.8259 28.6999 21.9084 29.5826 20.962 30.511Z" fill="#96644D"/>
<path d="M38.0979 20.7758C37.7623 21.1583 37.4546 21.2295 36.9846 20.9447C34.2415 19.2843 32.2322 17.0516 31.1767 14.0356C31.0564 13.6915 31.0769 13.5482 31.4797 13.4651C32.1287 13.3318 32.7758 13.163 33.3958 12.9366C33.7902 12.7924 33.8751 12.8973 33.9348 13.2533C34.2266 14.9904 34.8513 16.6097 35.7949 18.1095C36.4261 19.11 37.1926 19.999 38.0979 20.7758Z" fill="#96644D"/>
<path d="M3.83496 20.7747C5.76223 19.1152 7.00046 17.0386 7.68391 14.6342C7.82843 14.1249 7.9338 13.6046 8.02983 13.0842C8.06993 12.867 8.12867 12.815 8.35431 12.8816C9.09277 13.1016 9.8331 13.3207 10.5837 13.4932C10.8904 13.5635 10.8606 13.6831 10.7897 13.8994C10.1725 15.799 9.12167 17.4366 7.69044 18.8468C6.87832 19.6474 5.96923 20.3256 4.98461 20.9089C4.38414 21.264 4.38321 21.2612 3.83496 20.7747Z" fill="#96644D"/>
<path d="M4.98661 11.7051C5.83603 12.0145 6.63976 12.3203 7.45374 12.5951C7.65701 12.6635 7.68311 12.7658 7.65421 12.9301C7.15258 15.8045 5.95165 18.323 3.73533 20.3303C3.53952 20.5074 3.43603 20.4581 3.30642 20.2746C3.04255 19.9012 2.91482 19.5818 3.17962 19.0925C4.18568 17.2349 4.62111 15.2076 4.85607 13.1345C4.91015 12.6681 4.94279 12.1989 4.98661 11.7051Z" fill="#96644D"/>
<path d="M36.9558 11.7021C37.0668 13.6045 37.3437 15.4301 37.9386 17.2C38.1856 17.9358 38.4756 18.6523 38.8514 19.3351C38.9968 19.5989 38.7581 20.3109 38.484 20.4387C38.3022 20.5236 38.2388 20.3465 38.1493 20.2671C36.8057 19.0722 35.8341 17.6245 35.1525 15.9842C34.7488 15.012 34.4579 14.0088 34.2947 12.97C34.2658 12.7875 34.2397 12.6761 34.4766 12.5958C35.2915 12.321 36.0961 12.0143 36.9558 11.7021Z" fill="#96644D"/>
<path d="M3.98951 32.9052C4.10792 31.0805 4.18624 29.3252 4.12937 27.5653C4.07342 25.8236 3.84032 24.1039 3.51025 22.3887C3.79091 22.3568 3.84499 22.553 3.91958 22.71C5.0282 25.0277 5.61561 27.474 5.79557 30.0208C5.81142 30.248 5.81795 30.4753 5.84032 30.7017C5.94196 31.6912 5.58391 32.2909 4.63753 32.6889C4.45478 32.7647 4.26084 32.8149 3.98951 32.9052Z" fill="#96644D"/>
<path d="M38.4045 22.374C38.2749 23.2175 38.1313 24.05 38.0204 24.8861C37.6922 27.3653 37.7071 29.8509 37.9206 32.3365C37.9719 32.9316 37.9635 32.9481 37.3966 32.7299C37.1355 32.6295 36.894 32.4962 36.6814 32.3173C36.2656 31.9677 36.0325 31.5825 36.0633 30.9855C36.2096 28.1604 36.7234 25.4247 37.9523 22.8441C38.0455 22.6515 38.08 22.3905 38.4045 22.374Z" fill="#96644D"/>
<path d="M30.6078 13.8447C31.7304 17.1272 33.8843 19.5681 36.9584 21.3809C35.9971 21.5744 35.1561 21.4284 34.3393 21.139C32.1034 20.3467 30.6376 18.3111 30.6097 15.9844C30.6003 15.2715 30.6078 14.5585 30.6078 13.8447Z" fill="#96644D"/>
<path d="M37.421 11.0305C33.6327 12.6992 29.7045 13.6731 25.5684 14.0876C25.7884 13.6211 25.9721 13.1821 25.9525 12.6928C25.9432 12.46 26.1147 12.4454 26.3012 12.4345C28.1278 12.3277 29.9469 12.1414 31.7604 11.8986C33.5255 11.6622 35.2784 11.3655 37.021 11.0032C37.1339 10.9803 37.2485 10.9228 37.421 11.0305Z" fill="#96644D"/>
<path d="M16.3694 14.1003C12.2155 13.6394 8.27335 12.6937 4.46729 11.0114C4.816 10.8909 5.07987 11.0616 5.35493 11.0862C5.64584 11.1127 5.93115 11.1976 6.21927 11.2542C9.31111 11.8576 12.4319 12.2409 15.5778 12.4299C15.8333 12.4454 15.9824 12.4819 15.974 12.7841C15.9685 13.0068 16.0281 13.2359 16.0925 13.4532C16.1531 13.654 16.2566 13.8411 16.3694 14.1003Z" fill="#96644D"/>
<path d="M11.2726 13.8784C11.2456 15.2559 11.4824 16.6552 10.9211 18.0016C10.0437 20.1066 7.92249 21.5114 5.6176 21.4667C5.43484 21.463 5.24463 21.4867 5.03857 21.3471C8.02319 19.5753 10.1798 17.1627 11.2726 13.8784Z" fill="#96644D"/>
<path d="M2.7749 10.6616C3.33807 10.9254 3.89192 11.1847 4.44483 11.4466C4.55486 11.4996 4.58003 11.5973 4.57257 11.7141C4.41313 14.2079 3.97956 16.6378 2.7749 18.9007C2.7749 16.1732 2.7749 13.4448 2.7749 10.6616Z" fill="#96644D"/>
<path d="M39.1571 21.8364C39.2457 21.9423 39.201 22.0674 39.201 22.1806C39.2038 25.6721 39.2047 29.1627 39.1935 32.6542C39.1935 32.7856 39.3548 33.0923 39.0089 33.0376C38.7534 32.9974 38.3674 33.1307 38.3338 32.6341C38.0961 29.1563 38.0914 25.6922 38.8811 22.2664C38.9343 22.0336 38.9334 22.0327 39.1571 21.8364Z" fill="#96644D"/>
<path d="M39.0919 18.8909C38.6686 18.0876 38.3628 17.2451 38.1138 16.3779C37.6924 14.911 37.4714 13.4158 37.3772 11.8969C37.3576 11.5792 37.4667 11.4414 37.7511 11.3264C38.1642 11.1603 38.5595 10.9494 38.9548 10.744C39.1311 10.6527 39.2057 10.6646 39.2047 10.8764C39.1898 13.5345 39.1777 16.1926 39.1628 18.8507C39.1628 18.858 39.1413 18.8644 39.0919 18.8909Z" fill="#96644D"/>
<path d="M4.83936 10.5093C5.10602 10.5093 5.33446 10.5093 5.56383 10.5093C8.71348 10.5093 11.8631 10.5138 15.0128 10.502C15.3195 10.5011 15.4725 10.5403 15.4081 10.8844C15.3568 11.1574 15.4063 11.444 15.5153 11.6895C15.672 12.0455 15.4986 12.0145 15.2403 11.9981C11.7727 11.7763 8.34145 11.3025 4.94285 10.5951C4.91768 10.5896 4.8981 10.5595 4.83936 10.5093Z" fill="#96644D"/>
<path d="M36.3731 10.7201C33.0388 11.4011 29.7148 11.81 26.3125 12.0236C26.4831 11.5772 26.5475 11.1619 26.4962 10.7393C26.4608 10.449 26.6584 10.5111 26.8169 10.5102C27.8407 10.5083 28.8654 10.5093 29.8892 10.5093C31.8752 10.5093 33.8612 10.5083 35.8482 10.512C36.0207 10.512 36.2239 10.4454 36.3731 10.7201Z" fill="#96644D"/>
<path d="M2.76384 21.8325C3.03331 21.9055 3.03331 22.1164 3.06781 22.2807C3.67387 25.1196 3.86314 27.9885 3.69065 30.8822C3.65335 31.5038 3.62258 32.1254 3.56105 32.7443C3.51909 33.1624 3.12655 32.967 2.89904 33.041C2.66221 33.1186 2.72748 32.8913 2.72748 32.7772C2.72468 29.1624 2.72655 25.5477 2.72841 21.9329C2.72934 21.9074 2.74613 21.8818 2.76384 21.8325Z" fill="#96644D"/>
<path d="M4.67207 33.1646C4.67207 34.8542 4.66927 36.5401 4.6758 38.2252C4.67673 38.4087 4.6068 38.4735 4.43151 38.4534C4.41659 38.4516 4.40074 38.4525 4.38489 38.4534C3.25762 38.5109 3.25762 38.5109 3.25762 37.4073C3.25762 36.206 3.27347 35.0039 3.24736 33.8035C3.2399 33.4567 3.3751 33.359 3.68652 33.3289C4.00634 33.2969 4.32242 33.2248 4.67207 33.1646Z" fill="#96644D"/>
<path d="M37.3194 33.1606C37.5217 33.2054 37.7166 33.2528 37.9124 33.2894C38.6891 33.4354 38.69 33.4345 38.69 34.1866C38.69 35.492 38.6816 36.7982 38.6975 38.1035C38.7012 38.3847 38.6248 38.4586 38.3376 38.4604C37.2793 38.4659 37.2793 38.4778 37.2793 37.4326C37.2802 36.036 37.2821 34.6394 37.284 33.2419C37.2849 33.2291 37.2961 33.2154 37.3194 33.1606Z" fill="#96644D"/>
<path d="M37.5448 22.7356C36.3271 25.8784 36.3271 25.8784 35.6585 30.835C35.4161 30.7264 35.1718 30.6707 34.9051 30.6844C34.6515 30.6972 34.5117 30.5602 34.5359 30.2827C34.7681 27.6392 35.5671 25.1892 37.1131 22.9903C37.2082 22.8533 37.2846 22.6927 37.5448 22.7356Z" fill="#96644D"/>
<path d="M6.2593 30.8258C6.11384 28.0179 5.59822 25.2977 4.36279 22.7227C4.62853 22.7026 4.71151 22.8377 4.80848 22.9765C6.31897 25.1216 7.12456 27.5077 7.37631 30.0891C7.41641 30.5044 7.33529 30.7546 6.84671 30.6824C6.63692 30.6514 6.47375 30.7938 6.2593 30.8258Z" fill="#96644D"/>
<path d="M20.755 10.2794C20.0781 9.11925 19.9224 7.97001 20.6655 6.76601C21.0133 6.2028 21.4842 6.04032 22.1042 6.10148C22.6534 6.15534 23.1103 6.37624 23.4777 6.77514C23.5476 6.8509 23.7173 6.97048 23.487 7.03346C21.8282 7.49078 21.1103 8.69661 20.8026 10.2356C20.8007 10.2484 20.7811 10.2566 20.755 10.2794Z" fill="#96644D"/>
<path d="M20.4514 10.5638C19.2039 10.0098 18.4402 9.23661 18.223 7.97875C18.0262 6.84321 18.6705 6.39137 19.5964 6.13852C19.9106 6.05271 20.2398 6.07827 20.6062 6.17594C19.5162 7.5616 19.5339 8.99563 20.4514 10.5638Z" fill="#96644D"/>
<path d="M21.271 10.3283C21.3764 8.78195 22.3815 7.6382 23.836 7.33606C24.0374 7.29407 24.2248 7.29863 24.4169 7.40817C25.0482 7.77147 25.4062 8.30638 25.5246 9.00742C25.5526 9.17264 25.547 9.29404 25.3241 9.21554C23.7409 8.66511 22.4477 9.1772 21.271 10.3283Z" fill="#96644D"/>
<path d="M21.2642 15.7571C22.3672 14.4043 22.342 12.9794 21.5299 11.5034C22.9154 11.8722 23.9224 13.4988 23.6399 14.8589C23.6064 15.0196 23.5262 15.1328 23.4171 15.2432C22.8642 15.8055 22.0968 15.9972 21.2642 15.7571Z" fill="#96644D"/>
<path d="M18.3628 15.0251C20.057 14.555 20.8933 13.3948 21.1246 11.6304C21.6579 12.5916 21.9106 13.4843 21.5544 14.4701C21.4929 14.6408 21.4211 14.8097 21.3316 14.9676C20.6584 16.1598 19.1964 16.1999 18.3628 15.0251Z" fill="#96644D"/>
<path d="M20.7133 11.6074C20.5101 13.088 19.8751 14.1049 18.4849 14.5932C18.0205 14.7566 17.6411 14.6772 17.2737 14.4079C16.7376 14.0136 16.4411 13.4942 16.4131 12.7703C18.1054 13.3947 19.4676 12.8844 20.7133 11.6074Z" fill="#96644D"/>
<path d="M24.0654 14.6651C24.141 12.9472 23.2664 11.8071 21.7148 11.0695C23.1852 10.6204 24.8552 11.3352 25.4734 12.6341C25.5134 12.7181 25.5433 12.7957 25.5396 12.8915C25.5116 13.6619 24.8934 14.4223 24.0654 14.6651Z" fill="#96644D"/>
<path d="M20.2835 10.9374C18.7861 11.2386 17.6038 10.9538 16.6947 9.81459C16.3805 9.42025 16.3479 9.02865 16.511 8.58503C16.732 7.98439 17.1311 7.5572 17.8043 7.29248C17.7353 9.06152 18.6388 10.1925 20.2835 10.9374Z" fill="#96644D"/>
<path d="M21.6055 10.627C22.6041 9.50976 23.8488 9.16654 25.1243 9.54353C25.6866 9.70967 25.9915 10.0328 26.0689 10.5787C26.1006 10.8023 26.1323 11.0378 26.0931 11.256C26.0409 11.5426 26.053 11.9378 25.7425 12.0437C25.447 12.1451 25.363 11.7498 25.1906 11.5791C24.3551 10.753 23.3435 10.4554 22.1854 10.554C22.0157 10.5695 21.8479 10.5969 21.6055 10.627Z" fill="#96644D"/>
<path d="M16.2013 9.81543C17.1794 11.2695 18.578 11.6548 20.3039 11.3645C19.2615 12.5922 17.7939 12.9309 16.4652 12.3531C16.0848 12.1878 15.9953 11.8455 15.8927 11.5224C15.7277 11.0057 15.8507 10.3777 16.2013 9.81543Z" fill="#96644D"/>
<path d="M39.1494 20.2334C39.3807 20.9965 39.0823 21.4913 38.4389 21.8263C38.1536 21.975 37.8627 22.1156 37.5671 22.2462C37.4506 22.2973 37.2772 22.3922 37.2278 22.1868C37.1858 22.0134 37.0814 21.7761 37.3592 21.682C38.1313 21.4201 38.7093 20.9253 39.1494 20.2334Z" fill="#96644D"/>
<path d="M2.79074 20.25C3.22244 20.9291 3.7968 21.4111 4.55111 21.6722C4.82524 21.7671 4.77209 21.9542 4.71149 22.1514C4.62477 22.4335 4.44855 22.2746 4.31055 22.2199C4.06906 22.1231 3.82571 22.0245 3.60286 21.8931C2.99028 21.5334 2.48585 21.1071 2.79074 20.25Z" fill="#96644D"/>
</g>
<defs>
<clipPath id="clip0_160_1838">
<rect width="42" height="41" fill="white"/>
</clipPath>
</defs>
</svg>
