<svg width="14" height="15" viewBox="0 0 14 15" fill="none" xmlns="http://www.w3.org/2000/svg">
<g clip-path="url(#clip0_160_1596)">
<path d="M10.6329 2.48848C7.2798 2.46745 4.9361 4.31091 4.92227 6.79221C4.91536 7.78053 5.10894 8.67773 6.10449 9.11231C7.01017 9.51184 7.63239 9.07025 8.15091 8.33427C9.57511 6.30857 11.3796 5.98614 13.0734 7.73147C14.9193 9.62399 13.6818 11.3763 12.2438 12.8763C9.9761 15.2385 6.03536 15.6801 3.36672 13.9277C0.656592 12.1474 -0.670815 8.39735 0.331654 5.34128C1.36178 2.2081 4.72869 -0.224141 7.6877 0.0141767C9.07733 0.126326 10.0383 0.764177 10.6329 2.48848Z" fill="#783A1E"/>
</g>
<defs>
<clipPath id="clip0_160_1596">
<rect width="14" height="15" fill="white"/>
</clipPath>
</defs>
</svg>
