<svg width="73" height="60" viewBox="0 0 73 60" fill="none" xmlns="http://www.w3.org/2000/svg">
<g clip-path="url(#clip0_160_496)">
<path d="M40.2995 53.3358C31.4721 51.3532 23.063 48.1605 14.8382 44.4598C11.2975 42.8665 7.83197 41.1059 4.63808 38.8711C-0.107887 35.5487 -0.806323 34.381 0.734844 27.7289C1.61395 23.9348 3.75291 20.719 6.22896 17.7677C11.9826 10.907 19.1027 5.86637 27.199 2.12077C32.544 -0.351647 38.0611 -0.375898 43.7214 0.599002C51.4733 1.93282 59.0142 3.92991 66.0325 7.56153C71.8383 10.5663 72.4664 12.0213 71.061 18.4394C70.3068 21.8855 69.167 25.2128 67.969 28.5255C67.6416 29.4325 67.3857 29.5926 66.4727 29.1136C61.3108 26.4035 55.9901 26.1089 50.5493 28.2697C50.2534 28.3873 49.8448 28.7498 49.5781 28.3958C47.701 25.904 44.649 25.9173 42.0953 24.9848C36.7419 23.029 38.1691 22.8532 33.919 26.72C31.9692 28.494 30.051 30.3043 28.1569 32.1377C26.4412 33.8002 26.7746 35.5729 28.9863 36.446C32.2033 37.7143 35.4481 38.9123 38.682 40.1382C39.1524 40.3165 39.7393 40.2655 39.5126 41.1544C38.4649 45.2443 39.1027 49.2167 40.5166 53.1126C40.4438 53.1854 40.3711 53.2594 40.2995 53.3358ZM30.4268 22.4166C30.4123 21.2138 29.6569 20.5517 28.6492 20.194C26.3454 19.3755 24.0027 18.6662 21.7037 17.8344C20.7324 17.4827 19.9224 17.6549 19.2022 18.2721C16.3393 20.7251 13.4667 23.1708 10.6657 25.6942C9.09061 27.1129 9.45923 28.9548 11.4478 29.7745C13.7056 30.7057 16.0131 31.5145 18.2867 32.4106C19.5344 32.9029 20.5893 32.7089 21.5703 31.7837C24.227 29.2773 26.9056 26.7952 29.5817 24.3094C30.137 23.7917 30.4669 23.1902 30.4268 22.4166ZM60.4438 15.8506C60.3311 14.7278 59.7624 13.9675 58.6759 13.6146C56.5794 12.9332 54.4914 12.2226 52.3851 11.5715C51.2878 11.232 50.3104 11.4345 49.4338 12.2942C47.8974 13.8014 46.2702 15.214 44.7096 16.697C42.9538 18.3655 43.3503 20.2752 45.6445 21.0974C47.9435 21.9207 50.2789 22.6422 52.5804 23.457C53.8184 23.896 54.7909 23.6195 55.6033 22.6191C56.9977 20.9021 58.391 19.1852 59.7987 17.4803C60.1977 17.0001 60.4111 16.4654 60.4438 15.8506ZM34.5823 5.91366C33.7553 5.9367 33.1672 6.33442 32.6119 6.80974C30.9337 8.24542 29.241 9.6629 27.5846 11.1228C26.1768 12.3633 26.4181 14.3325 28.1545 15.0309C30.4135 15.9403 32.7392 16.6873 35.0516 17.4597C35.8179 17.7155 36.6146 17.6331 37.2439 17.0607C39.0991 15.3729 40.9931 13.7213 42.7513 11.9365C43.8354 10.8355 43.5747 9.02267 42.1766 8.45883C39.7042 7.4621 37.119 6.74669 34.5823 5.91366Z" fill="#96644D"/>
<path d="M43.2378 45.5657C43.2414 37.507 49.6425 31.1386 57.7146 31.1604C65.6787 31.1823 72.115 37.621 72.0859 45.5378C72.0568 53.5564 65.5465 60.0376 57.5582 60.0012C49.6268 59.9624 43.2342 53.5201 43.2378 45.5657ZM57.9425 37.6913C57.2199 38.7098 56.4972 39.7284 55.7745 40.7469C55.2931 40.7518 54.8129 40.7566 54.3315 40.7615C53.4524 39.7163 52.5721 38.6698 51.693 37.6246C51.1728 38.5946 50.6526 39.5647 50.1324 40.5347C49.7868 40.5651 49.4425 40.5942 49.0969 40.6245C49.0872 41.2198 49.0763 41.814 49.0666 42.4094C49.4122 42.4239 49.7565 42.4397 50.1021 42.4542C50.0524 46.332 50.0027 50.2098 49.9518 54.0875C51.2565 54.0875 52.5624 54.0875 53.8671 54.0875C53.912 53.2703 53.9568 52.453 54.0017 51.6345C54.6771 51.6576 55.3513 51.6794 56.0267 51.7024C56.0267 52.5052 56.0267 53.3079 56.0267 54.1106C57.3544 54.096 58.6822 54.0803 60.01 54.0657C60.0027 53.263 59.9954 52.4603 59.9869 51.6576C60.849 51.6648 61.7124 51.6721 62.5745 51.6806C62.6339 52.4761 62.6946 53.2703 62.754 54.0657C64.1945 54.0136 65.6338 53.9602 67.0743 53.9081C67.0816 52.7525 67.0889 51.5982 67.0974 50.4426C66.7494 50.4062 66.4002 50.3698 66.0522 50.3335C66.0497 47.8562 66.0461 45.3801 66.0437 42.9029C66.3044 42.8956 66.5663 42.8883 66.827 42.8823C66.85 42.3645 66.8718 41.8467 66.8949 41.3302C66.582 41.3302 66.2704 41.3302 65.9576 41.3302C65.3731 40.1625 64.7874 38.9948 64.203 37.8271C63.5434 38.8396 62.8837 39.8533 62.2241 40.8658C61.5584 40.8755 60.8927 40.8852 60.2282 40.8949C59.4667 39.8266 58.7052 38.7596 57.9425 37.6913Z" fill="#689F4E"/>
<path d="M40.5176 53.1114C40.6716 53.1623 40.8159 53.2497 40.6825 53.4133C40.6449 53.4594 40.4315 53.3636 40.2993 53.3345C40.3709 53.2594 40.4436 53.1854 40.5176 53.1114Z" fill="#040404"/>
<path d="M62.4908 46.5163C62.4908 47.4136 62.4435 48.3133 62.5042 49.2058C62.5696 50.1746 62.4593 50.6972 61.2152 50.6766C60.0415 50.6572 59.8293 50.2704 59.8705 49.2252C59.9469 47.3154 59.9517 45.3959 59.8669 43.4861C59.8232 42.4979 60.1773 42.276 61.077 42.3221C61.8858 42.3633 62.6351 42.219 62.5042 43.4667C62.3987 44.4719 62.4823 45.4978 62.4823 46.5139C62.486 46.5163 62.4884 46.5163 62.4908 46.5163Z" fill="#689F4E"/>
<path d="M56.0605 46.3405C56.0581 47.3542 56.0108 48.3715 56.0727 49.3816C56.1272 50.2825 55.8714 50.6354 54.8904 50.6184C53.9677 50.6026 53.81 50.2328 53.8258 49.4386C53.8658 47.4112 53.8973 45.3801 53.8185 43.3552C53.7797 42.3584 54.2805 42.3415 55.0105 42.3281C55.7295 42.3148 56.1309 42.4518 56.0787 43.2982C56.0157 44.3094 56.063 45.3268 56.0605 46.3405Z" fill="#689F4E"/>
</g>
<defs>
<clipPath id="clip0_160_496">
<rect width="72.0856" height="60" fill="white"/>
</clipPath>
</defs>
</svg>
