<svg width="61" height="60" viewBox="0 0 61 60" fill="none" xmlns="http://www.w3.org/2000/svg">
<g clip-path="url(#clip0_160_436)">
<path d="M36.5782 60C36.1005 59.267 36.207 58.393 36.005 57.5942C35.9345 57.3123 35.9173 57.0163 35.8672 56.7281C35.7795 56.2206 35.5132 55.8729 34.9885 55.757C32.8396 55.2793 30.8332 54.4586 28.9819 53.2604C28.5387 52.9722 28.097 53.0255 27.6741 53.3309C26.9458 53.8556 26.2065 54.3631 25.4892 54.9018C25.1853 55.1305 24.9723 55.1243 24.6794 54.8643C23.8462 54.125 23.0599 53.3434 22.3144 52.5133C22.0137 52.1797 22.0278 51.9448 22.2878 51.608C22.7999 50.9455 23.2651 50.2454 23.7632 49.5719C24.1312 49.0754 24.1673 48.5898 23.8274 48.0605C22.6809 46.2734 21.868 44.3469 21.4373 42.2638C21.3167 41.678 20.9517 41.3553 20.3644 41.2661C19.5359 41.1408 18.7089 40.9982 17.8803 40.8808C17.459 40.8212 17.246 40.6709 17.2209 40.1806C17.1677 39.1062 17.1599 38.038 17.2225 36.9636C17.2491 36.4968 17.4183 36.3136 17.8662 36.2556C18.6963 36.1475 19.5202 35.9815 20.3487 35.864C20.9737 35.7748 21.3214 35.4286 21.4483 34.8241C21.8774 32.7817 22.6652 30.8865 23.7976 29.137C24.1641 28.57 24.1469 28.0625 23.7397 27.5253C23.2338 26.8565 22.778 26.1501 22.2627 25.4908C22.0027 25.1571 22.045 24.9363 22.3097 24.6356C23.0333 23.8117 23.8149 23.0537 24.6246 22.316C24.9363 22.0325 25.1759 21.9824 25.5299 22.2611C26.1893 22.778 26.8925 23.2369 27.5645 23.7381C28.0813 24.1234 28.5763 24.1516 29.126 23.7976C30.8771 22.6699 32.7707 21.8805 34.8099 21.4342C35.5461 21.2728 35.7575 21.016 35.886 20.2485C36.0269 19.4027 36.1851 18.5585 36.3104 17.7112C36.359 17.3807 36.4968 17.2491 36.832 17.2209C38.002 17.1207 39.1688 17.1332 40.3404 17.2178C40.7727 17.2491 40.8416 17.5044 40.8933 17.8271C41.0217 18.6353 41.1486 19.445 41.2786 20.2532C41.3976 20.9987 41.6576 21.2854 42.3671 21.4389C44.3281 21.8617 46.1528 22.6151 47.8537 23.6739C48.7245 24.2158 48.9454 24.208 49.7974 23.6003C50.4318 23.1476 51.0739 22.7013 51.6957 22.2329C51.9714 22.0262 52.1734 21.9949 52.4569 22.2439C53.3231 23.0067 54.1406 23.8117 54.8971 24.6841C55.1321 24.9551 55.1509 25.1681 54.9379 25.4532C54.4147 26.158 53.9229 26.8847 53.3967 27.588C53.0192 28.0907 53.0035 28.57 53.3434 29.0963C54.4758 30.8458 55.2668 32.7394 55.7132 34.7786C55.8807 35.5492 56.1282 35.745 56.9427 35.8766C57.7117 36.0019 58.4792 36.1507 59.2513 36.2525C59.6241 36.301 59.8825 36.4451 60.0141 36.7991C60.0141 38.049 60.0141 39.2988 60.0141 40.5487C59.7885 40.7335 59.5442 40.8573 59.2435 40.898C58.451 41.0061 57.6647 41.1517 56.8738 41.2629C56.2379 41.3522 55.8541 41.6811 55.7194 42.3201C55.2871 44.3813 54.4837 46.2922 53.3387 48.0589C52.9957 48.5867 53.0255 49.0691 53.3982 49.5672C53.9104 50.2548 54.3897 50.9674 54.905 51.6534C55.1274 51.9495 55.1556 52.1672 54.8909 52.4679C54.1406 53.3184 53.3419 54.1172 52.4914 54.869C52.2032 55.1243 51.9808 55.1368 51.6754 54.9065C50.9596 54.3678 50.2203 53.8572 49.492 53.334C49.0472 53.0145 48.6008 52.9941 48.1341 53.2964C46.3344 54.4602 44.3892 55.2824 42.2888 55.7257C41.6952 55.851 41.3772 56.2065 41.2848 56.7907C41.1595 57.5801 41.0201 58.368 40.9136 59.1589C40.8604 59.5552 40.7821 59.9029 40.3247 60.0016C39.0796 60 37.8297 60 36.5782 60ZM53.5799 38.5674C53.5799 30.2866 46.8654 23.5674 38.5862 23.5627C30.3258 23.558 23.5815 30.3023 23.5799 38.569C23.5784 46.8419 30.307 53.5643 38.5846 53.5627C46.8685 53.5611 53.5799 46.8497 53.5799 38.5674Z" fill="#689F4E"/>
<path d="M25.7146 12.8683C34.0925 12.8683 42.472 12.873 50.8499 12.8574C51.3197 12.8558 51.4748 12.9419 51.4654 13.451C51.4309 15.462 51.4466 17.4747 51.456 19.4857C51.4576 19.8021 51.409 19.9932 51.0613 20.1404C50.3236 20.4553 49.73 21.0175 49.0816 21.4812C48.8404 21.6534 48.6696 21.6738 48.4128 21.5219C46.9295 20.6448 45.3523 19.9869 43.6827 19.5594C43.3976 19.4857 43.2802 19.351 43.2426 19.0456C43.1611 18.369 43.0437 17.694 42.9011 17.0267C42.6834 16.0118 41.8643 15.2506 40.8446 15.1269C39.3269 14.9436 37.8045 14.9389 36.2868 15.1316C35.2531 15.2616 34.4418 16.0651 34.2382 17.1129C34.1113 17.7629 33.986 18.416 33.9124 19.0738C33.8764 19.3918 33.7292 19.4936 33.4566 19.5641C31.8058 19.9869 30.2458 20.6385 28.7814 21.5062C28.4932 21.6769 28.3146 21.6519 28.0656 21.4592C27.5722 21.0771 27.0601 20.72 26.5416 20.3707C25.4891 19.6627 24.3959 19.7254 23.4169 20.5414C22.3801 21.406 21.4215 22.352 20.5601 23.392C19.73 24.3944 19.6767 25.4923 20.4097 26.5699C20.7606 27.0852 21.1271 27.5911 21.5014 28.0907C21.6549 28.2959 21.7097 28.4525 21.5578 28.7078C20.665 30.2052 19.9994 31.7996 19.5718 33.4912C19.5076 33.748 19.3885 33.8671 19.1051 33.9015C18.4864 33.9752 17.8724 34.0958 17.2584 34.207C15.996 34.4341 15.2364 35.2971 15.1189 36.5563C14.9936 37.9033 14.9921 39.244 15.1189 40.591C15.2333 41.808 15.9412 42.6569 17.1472 42.9091C17.7769 43.0406 18.4128 43.1487 19.0502 43.2301C19.3416 43.2677 19.5029 43.3601 19.5781 43.6577C20.0041 45.3493 20.6776 46.9406 21.5594 48.4442C21.6643 48.6227 21.7129 48.7574 21.5719 48.9658C21.0519 49.7395 20.3815 50.4145 20.0354 51.3026C19.9587 51.5015 19.7707 51.4326 19.6282 51.4326C14.14 51.4342 8.65188 51.4498 3.1653 51.4216C1.39387 51.4122 0.0233989 49.9901 0.0233989 48.2202C0.0108689 36.5814 0.0187002 24.9426 0.00147138 13.3022C-9.48771e-05 12.7775 0.280264 12.8668 0.579419 12.8668C8.95887 12.8683 17.3368 12.8683 25.7146 12.8683Z" fill="#96644D"/>
<path d="M25.7336 10.7116C17.3557 10.7116 8.97785 10.7069 0.599965 10.7241C0.106596 10.7257 -0.0218368 10.6051 0.001657 10.1196C0.0455121 9.24246 0.00322326 8.36222 0.0173195 7.48356C0.0439458 5.72779 1.36273 4.36202 3.11067 4.30406C4.08644 4.27117 5.06378 4.31033 6.03956 4.28684C6.38414 4.279 6.48751 4.39961 6.45305 4.72225C6.43269 4.9149 6.44679 5.11225 6.44992 5.30803C6.47498 7.11549 7.80629 8.51885 9.53387 8.55957C11.3554 8.60343 12.7666 7.28464 12.8778 5.43647C12.9452 4.29467 12.9452 4.29467 14.0948 4.29467C14.9735 4.29467 15.8521 4.30876 16.7308 4.28684C17.0613 4.279 17.1756 4.37298 17.1537 4.70816C17.1192 5.23442 17.1412 5.76381 17.2931 6.27441C17.7473 7.78898 19.2462 8.75066 20.8219 8.53921C22.3536 8.33403 23.5315 7.01212 23.5769 5.44586C23.6098 4.2931 23.6098 4.2931 24.786 4.2931C25.5676 4.2931 26.3507 4.33226 27.1292 4.28057C27.7275 4.23985 27.953 4.39961 27.8935 5.03081C27.7917 6.12562 28.1488 7.0826 29.0071 7.79367C30.0095 8.62535 31.156 8.81174 32.3479 8.29957C33.5649 7.77645 34.1929 6.79597 34.3026 5.47406C34.3339 5.09189 34.1193 4.56093 34.4107 4.36828C34.6988 4.1772 35.1985 4.2978 35.6057 4.29623C36.3481 4.29153 37.0921 4.33382 37.8314 4.28214C38.4171 4.24141 38.6881 4.38238 38.591 5.01828C38.5409 5.34249 38.591 5.67767 38.663 6.00658C39.0154 7.63705 40.4658 8.70054 42.1526 8.55018C43.7126 8.41078 44.9672 7.04657 45.0173 5.43333C45.0533 4.29467 45.0533 4.29467 46.1701 4.29467C46.8733 4.29467 47.5766 4.28057 48.2798 4.29937C50.045 4.34792 51.3857 5.65574 51.4452 7.41151C51.4781 8.38728 51.4452 9.36463 51.4593 10.3404C51.464 10.6114 51.3951 10.7461 51.1022 10.7132C50.9675 10.6975 50.8297 10.71 50.6918 10.71C42.3719 10.7116 34.0536 10.7116 25.7336 10.7116Z" fill="#96644D"/>
<path d="M42.8838 3.25781C42.8838 3.90154 42.8932 4.54683 42.8807 5.19056C42.8666 5.92983 42.45 6.40911 41.8297 6.42947C41.1923 6.44983 40.7365 5.95489 40.7286 5.18743C40.7161 3.86081 40.713 2.53263 40.7302 1.20602C40.7396 0.463612 41.1766 1.72947e-06 41.8047 0.00156798C42.4359 0.00313423 42.865 0.471444 42.8807 1.20915C42.8948 1.89047 42.8838 2.57492 42.8838 3.25781Z" fill="#689F4E"/>
<path d="M10.7227 3.24214C10.7227 3.92503 10.7384 4.60948 10.7196 5.2908C10.7008 5.97839 10.245 6.44043 9.64201 6.42947C9.039 6.4185 8.59262 5.94706 8.58479 5.26104C8.57069 3.89527 8.57069 2.52793 8.58479 1.16216C8.59106 0.469876 9.03117 0.0109639 9.64201 9.63337e-08C10.256 -0.00939742 10.6992 0.438551 10.718 1.1324C10.7368 1.83565 10.7227 2.5389 10.7227 3.24214Z" fill="#689F4E"/>
<path d="M21.4513 3.22022C21.4513 3.88431 21.4591 4.54683 21.4497 5.21093C21.4372 5.93767 21.0033 6.42321 20.3815 6.42947C19.7597 6.43574 19.3196 5.95803 19.3118 5.22346C19.2992 3.87648 19.2977 2.5295 19.3118 1.18409C19.3196 0.446386 19.7613 -0.0140927 20.3972 0.00156986C21.0299 0.0172324 21.4387 0.485542 21.4497 1.22951C21.4575 1.8936 21.4513 2.55613 21.4513 3.22022Z" fill="#689F4E"/>
<path d="M32.1473 3.18889C32.1473 3.89214 32.1583 4.59382 32.1442 5.29707C32.1301 5.97526 31.668 6.44357 31.065 6.42947C30.4761 6.41537 30.0282 5.96116 30.0219 5.3143C30.0078 3.90937 30.0062 2.50444 30.0219 1.09951C30.0297 0.457348 30.4855 0.0078338 31.0776 0.00156879C31.6712 -0.00469622 32.1238 0.436987 32.1426 1.08072C32.1614 1.7824 32.1473 2.48565 32.1473 3.18889Z" fill="#689F4E"/>
<path d="M38.5641 25.7147C45.6279 25.6944 51.423 31.4535 51.4512 38.522C51.4794 45.6155 45.7062 51.4216 38.6095 51.4357C31.5191 51.4514 25.7192 45.6563 25.7271 38.5643C25.7349 31.4785 31.4736 25.7351 38.5641 25.7147ZM38.7786 28.9365C37.7559 28.9443 37.0981 29.3437 36.6924 30.1222C36.1348 31.1919 35.5913 32.2695 35.0651 33.3549C34.9304 33.6321 34.769 33.7527 34.4589 33.7919C33.2607 33.9438 32.0673 34.1427 30.8706 34.3056C29.9481 34.4309 29.3153 34.9055 29.0444 35.7983C28.7781 36.6754 29.0726 37.3958 29.7273 38.0067C30.5683 38.7914 31.3844 39.6058 32.2333 40.3827C32.4823 40.6098 32.5465 40.8228 32.4854 41.1455C32.2724 42.2747 32.0907 43.4103 31.8871 44.5411C31.7274 45.4245 31.9373 46.1794 32.675 46.7197C33.4487 47.2852 34.2647 47.246 35.0964 46.809C36.1301 46.2655 37.1795 45.7549 38.207 45.2005C38.503 45.0407 38.716 45.0595 39.0026 45.2114C40.1006 45.7972 41.2079 46.3689 42.3262 46.9171C43.0921 47.293 43.8549 47.2194 44.5299 46.701C45.2034 46.1825 45.4618 45.4777 45.3068 44.6288C45.0969 43.4792 44.909 42.3248 44.6881 41.1768C44.6208 40.8275 44.7179 40.6035 44.9763 40.3655C45.8659 39.5447 46.7368 38.7052 47.6013 37.8579C48.1981 37.2721 48.3672 36.5438 48.1245 35.7591C47.8723 34.9478 47.2912 34.4591 46.4408 34.3276C45.1877 34.1365 43.9347 33.9438 42.6786 33.7825C42.3826 33.7449 42.2416 33.618 42.1195 33.369C41.5869 32.2867 41.0419 31.2107 40.4921 30.1363C40.0912 29.3547 39.4443 28.9553 38.7786 28.9365Z" fill="#689F4E"/>
<path d="M43.1422 44.881C41.8939 44.3845 40.7365 43.7047 39.5539 43.0798C38.8804 42.7242 38.3182 42.6898 37.6462 43.0876C36.4762 43.7768 35.2577 44.3845 33.9734 45.0721C34.2036 43.7376 34.3634 42.4815 34.6516 41.2551C34.8693 40.3279 34.686 39.6638 33.9436 39.0404C33.007 38.2542 32.1597 37.3598 31.187 36.4295C32.2677 36.2713 33.2404 36.1287 34.213 35.9862C36.6109 35.6338 36.1364 35.9486 37.1889 33.8671C37.6368 32.9837 38.0785 32.0988 38.5766 31.1089C38.8225 31.5866 39.0308 31.9844 39.2329 32.387C39.6448 33.2046 40.0802 34.0112 40.453 34.846C40.7427 35.4913 41.2079 35.7763 41.8923 35.8531C43.1313 35.9941 44.3655 36.1851 45.5997 36.3574C45.6936 36.37 45.7861 36.4028 45.7375 36.3104C45.0624 37.0779 44.3921 37.8516 43.7092 38.6113C43.4884 38.8572 43.2503 39.0968 42.9887 39.2973C42.4343 39.7233 42.3356 40.2621 42.4687 40.9121C42.7193 42.1338 42.937 43.3617 43.1657 44.5881C43.1845 44.6899 43.28 44.8105 43.1313 44.8966L43.1422 44.881Z" fill="#689F4E"/>
<path d="M43.1328 44.8966C43.1579 44.8904 43.1814 44.8857 43.2064 44.8794C43.2033 44.9013 43.1986 44.9248 43.1955 44.9467C43.1782 44.9248 43.1594 44.9029 43.1422 44.881L43.1328 44.8966Z" fill="#020202"/>
</g>
<defs>
<clipPath id="clip0_160_436">
<rect width="60.0172" height="60" fill="white"/>
</clipPath>
</defs>
</svg>
