<svg width="29" height="24" viewBox="0 0 29 24" fill="none" xmlns="http://www.w3.org/2000/svg">
<g clip-path="url(#clip0_160_761)">
<path d="M4.6163e-05 22.7837C0.128482 22.5367 0.121682 22.2552 0.195722 21.9936C0.710975 20.1834 1.75735 18.8232 3.43532 17.9915C3.46781 17.9754 3.49652 17.9515 3.53051 17.9284C1.42417 16.5067 1.34635 13.7864 2.80599 12.2285C4.25731 10.6798 6.67265 10.6906 8.10055 12.2639C9.53223 13.841 9.43251 16.5013 7.35336 17.9177C8.986 19.0055 8.986 19.0055 9.97118 20.2903C10.3066 19.7841 10.6738 19.314 11.1195 18.9116C11.56 18.5139 12.0503 18.1985 12.6124 17.9323C11.4731 17.143 10.8627 16.0767 10.8801 14.6873C10.8937 13.6371 11.3031 12.7493 12.0609 12.0377C13.5689 10.6221 15.9759 10.7975 17.2837 12.4039C18.5975 14.0172 18.4102 16.5629 16.3854 17.9277C17.5035 18.4485 18.3686 19.2455 19.0334 20.3134C19.6938 19.2425 20.546 18.4416 21.6603 17.9338C19.5411 16.4998 19.4769 13.7748 20.9328 12.2246C22.3856 10.6783 24.8017 10.6921 26.2273 12.2654C27.6492 13.8348 27.5631 16.4952 25.4575 17.9315C25.969 18.1808 26.4449 18.4677 26.865 18.8439C28.0217 19.8802 28.7175 21.1727 28.9426 22.726C28.9494 22.7706 28.9366 22.8245 28.9985 22.8406C28.9985 23.1291 28.9985 23.4176 28.9985 23.7061C28.8399 23.9377 28.6246 24 28.3488 24C19.115 23.9938 9.88203 23.9938 0.648268 24C0.373265 24 0.156435 23.9392 -0.00146484 23.7061C4.6163e-05 23.3984 4.6163e-05 23.0914 4.6163e-05 22.7837ZM14.4982 23.0714C15.8943 23.0714 17.2913 23.0714 18.6874 23.0714C19.0206 23.0714 19.0266 23.0699 18.9647 22.7275C18.7426 21.4989 18.1903 20.4495 17.2716 19.6179C16.3597 18.7916 15.3058 18.3347 14.063 18.4885C12.002 18.7432 10.327 20.7042 10.0188 22.8114C9.98629 23.0345 10.0377 23.0783 10.2522 23.0768C11.668 23.0668 13.0831 23.0714 14.4982 23.0714ZM28.073 23.0714C27.894 21.5781 27.2541 20.3649 26.1254 19.4386C25.147 18.6362 24.0349 18.2585 22.7754 18.5539C21.2977 18.9009 20.2959 19.8587 19.5955 21.1889C19.5351 21.3043 19.5525 21.4004 19.5918 21.5143C19.7361 21.9305 19.8532 22.3567 19.8834 22.7983C19.8977 23.0099 19.9688 23.0768 20.1879 23.076C22.7248 23.0668 25.2618 23.0699 27.7995 23.0699C27.8834 23.0714 27.9673 23.0714 28.073 23.0714ZM0.947447 23.0529C0.97389 23.0591 1.00109 23.0699 1.02829 23.0699C3.65064 23.0706 6.27224 23.0691 8.89459 23.076C9.07138 23.0768 9.0948 22.9929 9.10613 22.8575C9.14466 22.3967 9.25119 21.949 9.40833 21.5166C9.46046 21.3743 9.44459 21.2658 9.37811 21.1396C9.11444 20.6365 8.79562 20.1741 8.39142 19.7795C7.46518 18.8747 6.38027 18.337 5.07552 18.4816C2.94726 18.7178 1.04793 20.8488 0.947447 23.0529ZM8.1557 14.7819C8.15722 13.2402 6.93632 11.9969 5.4238 11.9985C3.94377 12 2.72439 13.2409 2.7191 14.7503C2.71381 16.2913 3.93471 17.5353 5.45025 17.5338C6.92952 17.5322 8.15419 16.2875 8.1557 14.7819ZM14.5133 11.9985C13.031 11.9877 11.7965 13.2186 11.7814 14.7227C11.7655 16.2675 12.9751 17.5245 14.4853 17.533C15.9706 17.5415 17.2044 16.3113 17.2172 14.8096C17.2308 13.2648 16.0228 12.0085 14.5133 11.9985ZM23.5604 17.533C25.0427 17.5376 26.2727 16.3005 26.2802 14.7965C26.2885 13.2532 25.0744 12.0031 23.5634 11.9977C22.0706 11.9923 20.8436 13.2402 20.8436 14.7634C20.8444 16.2905 22.0585 17.5284 23.5604 17.533Z" fill="#96644D"/>
<path d="M18.1306 0C19.5842 0 21.037 0 22.4906 0C22.9703 0 23.1093 0.143095 23.1093 0.636235C23.1093 3.44198 23.1086 6.24849 23.1116 9.05424C23.1116 9.30812 23.0897 9.53892 22.823 9.65201C22.5518 9.76664 22.3795 9.60431 22.2073 9.42736C21.6021 8.80728 20.9902 8.19259 20.3903 7.56789C20.2619 7.43403 20.1342 7.37864 19.9491 7.37941C17.8918 7.38633 15.8346 7.38402 13.7774 7.38325C13.275 7.38325 13.1405 7.24708 13.1405 6.73625C13.1405 4.69906 13.1397 2.66188 13.1405 0.624695C13.1405 0.14925 13.2833 0.000769329 13.7426 0.000769329C15.2053 0 16.6679 0 18.1306 0ZM22.2027 8.12335C22.2027 5.72689 22.1997 3.41198 22.2073 1.09629C22.208 0.855494 22.0599 0.925503 21.9466 0.925503C19.3983 0.923195 16.8492 0.927042 14.3009 0.91781C14.0864 0.917041 14.0403 0.971663 14.0418 1.18477C14.0516 2.85729 14.0516 4.52981 14.041 6.20233C14.0395 6.42236 14.0969 6.46621 14.3039 6.46544C16.2577 6.45698 18.2114 6.46621 20.1651 6.4539C20.4651 6.45237 20.6827 6.54545 20.8851 6.76471C21.2984 7.21016 21.7298 7.63713 22.2027 8.12335Z" fill="#689F4E"/>
<path d="M8.17434 9.48654C8.65862 8.99032 9.11343 8.53103 9.56069 8.06328C9.70952 7.90788 9.87347 7.84094 10.0873 7.84094C12.2767 7.84556 14.4669 7.84325 16.6564 7.84479C17.0137 7.84479 17.2185 8.01789 17.2162 8.3087C17.2147 8.5972 17.0084 8.76722 16.6503 8.76722C14.5833 8.76799 12.5162 8.77029 10.4492 8.76414C10.2482 8.76337 10.1016 8.81107 9.95582 8.96416C9.35141 9.59886 8.73039 10.2174 8.11843 10.8444C7.95676 11.0098 7.78828 11.1383 7.54501 11.0414C7.29267 10.9406 7.24658 10.7298 7.24658 10.4797C7.2496 7.644 7.24809 4.80902 7.24885 1.97327C7.24885 1.54091 7.40297 1.3855 7.82908 1.38473C9.10361 1.38396 10.3774 1.38396 11.6519 1.38473C12.0274 1.38473 12.2397 1.55937 12.2322 1.8571C12.2254 2.14406 12.0206 2.30716 11.658 2.30716C10.5632 2.30793 9.46852 2.311 8.37304 2.30408C8.20758 2.30331 8.15016 2.33178 8.15016 2.51949C8.15772 4.79748 8.1547 7.07546 8.15545 9.35345C8.15696 9.3796 8.16376 9.40576 8.17434 9.48654Z" fill="#689F4E"/>
</g>
<defs>
<clipPath id="clip0_160_761">
<rect width="29" height="24" fill="white"/>
</clipPath>
</defs>
</svg>
