<svg width="61" height="60" viewBox="0 0 61 60" fill="none" xmlns="http://www.w3.org/2000/svg">
<g clip-path="url(#clip0_160_482)">
<path d="M33.7489 8.87061C34.0948 8.9758 33.9868 9.27702 33.9868 9.51131C33.9925 13.2455 33.9925 16.9786 33.9879 20.7128C33.9879 20.9495 34.0822 21.2519 33.7236 21.3308C33.7317 17.177 33.7397 13.0232 33.7489 8.87061Z" fill="#272525"/>
<path d="M30.5 0C13.6549 0 0 13.4308 0 29.9994C0 46.5692 13.6549 60 30.5 60C47.3451 60 61 46.5692 61 29.9994C61 13.4308 47.3451 0 30.5 0ZM27.3018 52.8734C20.6708 52.553 15.2144 49.756 11.0979 44.3518C1.04808 31.1589 8.35475 11.4155 24.2908 8.60046C25.3355 8.41518 26.3916 8.33868 27.4489 8.26935C27.9223 8.23707 27.958 8.47017 27.9557 8.85985C27.9407 10.7043 27.9235 12.5499 27.9614 14.3943C27.9729 14.9453 27.7568 14.9919 27.3247 15.023C21.1064 15.4701 16.6256 18.6425 14.1376 24.563C10.0452 34.3038 16.7543 45.5137 26.9421 46.1281C27.9476 46.1891 27.9476 46.1891 27.9476 47.2242V49.53C27.9476 50.4277 27.912 51.3266 27.9614 52.2207C27.9924 52.7825 27.8051 52.8973 27.3018 52.8734ZM27.2305 43.7769C20.6904 43.4278 15.4592 37.8289 15.2397 30.9174C15.0259 24.1817 19.9882 18.2277 26.441 17.4794C27.9476 17.3049 27.9476 17.3049 27.9488 18.9043V30.5935C27.9488 34.7461 27.935 38.8987 27.9648 43.0513C27.9694 43.6753 27.7971 43.8068 27.2305 43.7769ZM37.4044 26.0655C36.2219 26.7254 35.8507 27.6111 35.9254 28.9989C36.3058 36.11 36.5977 43.227 36.916 50.3417C36.9356 50.7756 36.9551 51.2143 36.9229 51.647C36.8252 52.9499 35.9564 53.8034 34.7636 53.8022C33.5592 53.801 32.6984 52.9642 32.6398 51.6314C32.5985 50.6871 32.6502 49.7368 32.6927 48.7901C32.9915 41.9827 33.2914 35.174 33.6121 28.3678C33.6523 27.5083 33.3949 26.8712 32.68 26.4361C32.4456 26.2939 32.2215 26.1361 31.9905 25.989C30.4563 25.0148 29.7519 23.5816 29.8725 21.7301C30.1518 17.4352 30.4552 13.1439 30.7413 8.85028C30.7816 8.24305 31.0712 7.83903 31.6435 7.85576C32.2548 7.87489 32.5192 8.31119 32.518 8.95428C32.5088 12.9264 32.5157 16.8985 32.51 20.8706C32.5088 21.2543 32.5513 21.6033 32.9478 21.7468C33.3294 21.8866 33.5408 21.6249 33.7224 21.3308C34.0821 21.2507 33.9867 20.9483 33.9879 20.7116C33.9913 16.9786 33.9924 13.2443 33.9867 9.51131C33.9867 9.27702 34.0947 8.97579 33.7488 8.8706C33.7844 8.1534 34.1786 7.80078 34.8383 7.80675C35.4565 7.81153 35.8013 8.28728 35.8025 9.09533C35.8082 12.9132 35.8047 16.7311 35.8059 20.5491C35.8059 20.7798 35.7864 21.0164 35.83 21.2388C35.8955 21.5711 36.1001 21.7946 36.4495 21.7755C36.7586 21.7599 36.9494 21.5567 36.9953 21.2471C37.0321 20.9949 37.0298 20.7367 37.0298 20.4809C37.0321 16.7909 37.031 13.1009 37.031 9.4109C37.031 9.2304 37.0321 9.0511 37.0321 8.8718C37.0321 8.3076 37.2815 7.89999 37.8285 7.85935C38.4077 7.81632 38.7398 8.17253 38.7835 8.78574C38.9019 10.4724 39.0237 12.159 39.1352 13.8456C39.3064 16.4012 39.4454 18.9593 39.6443 21.5125C39.8017 23.5326 39.1237 25.1069 37.4044 26.0655ZM47.5255 29.6695C47.4095 29.7651 47.306 29.8858 47.1773 29.954C44.9191 31.1469 44.595 33.1503 44.8134 35.5422C45.2731 40.5638 45.5983 45.5986 45.9775 50.6285C46.0339 51.3756 46.0316 52.1144 45.665 52.7981C45.3087 53.4639 44.8237 53.9432 44.0446 53.9384C43.2493 53.9337 42.7069 53.4782 42.3346 52.7897C42.0748 52.3104 42.022 51.7737 42.0312 51.2286C42.2713 37.4511 42.5081 23.6725 42.7529 9.89501C42.7609 9.42165 42.6552 8.7702 43.1149 8.58014C43.5412 8.40442 43.8653 8.9746 44.1629 9.28897C45.8615 11.0808 46.6832 13.3495 47.3014 15.7139C48.0944 18.7465 48.3851 21.8508 48.407 24.9814C48.407 25.9293 48.392 26.8772 48.4104 27.8239C48.4265 28.6104 48.1001 29.1985 47.5255 29.6695Z" fill="#96644D"/>
</g>
<defs>
<clipPath id="clip0_160_482">
<rect width="61" height="60" fill="white"/>
</clipPath>
</defs>
</svg>
