<svg width="52" height="60" viewBox="0 0 52 60" fill="none" xmlns="http://www.w3.org/2000/svg">
<g clip-path="url(#clip0_160_447)">
<path d="M12.8828 8.39776C12.8697 9.46819 13.3151 9.87216 14.3968 9.84424C16.592 9.78839 18.791 9.82749 20.9862 9.82562C23.1832 9.82376 25.3803 9.79025 27.5774 9.83866C28.6516 9.86286 29.0895 9.47564 29.0652 8.38287C29.0147 6.07074 29.0259 3.75488 29.0614 1.44275C29.0764 0.49891 28.7807 -0.00558854 27.7514 -0.0018653C23.2282 0.0167509 18.7049 0.0204741 14.1816 -0.0018653C13.1224 -0.00745016 12.8716 0.543589 12.8791 1.45578C12.9034 3.76978 12.9109 6.08377 12.8828 8.39776Z" fill="#96644D"/>
<path d="M40.7487 30.162C40.365 30.7651 40.0244 31.4651 40.3819 32.1409C40.7131 32.7664 41.4692 32.7105 41.9876 32.7757C43.6326 32.7794 46.1646 30.6423 46.4379 29.1455C46.509 28.7527 46.3986 28.6038 46.0224 28.4772C44.6899 28.0285 41.4785 29.0171 40.7487 30.162Z" fill="#689F4E"/>
<path d="M26.3947 56.0422C23.8589 52.049 22.9195 47.6426 23.0729 42.9848C23.232 38.1818 26.2881 35.2814 31.1108 35.2032C33.0533 35.1716 34.9229 35.6091 36.989 36.0856C36.3583 34.0304 35.1381 32.731 33.4856 31.7574C32.9729 31.4539 32.0596 31.2175 32.6004 30.3984C33.0982 29.6463 33.7476 30.3016 34.281 30.5845C35.5648 31.264 36.5174 32.2972 37.3745 33.4477C37.6328 33.794 37.6889 34.6168 38.3121 34.319C38.7575 34.1049 39.2403 33.7605 38.9577 32.8204C38.3869 30.9271 39.1561 29.2237 40.8273 28.1589C41.6564 27.6302 41.924 27.1182 41.9184 26.18C41.8791 20.0068 41.8959 13.8356 41.8996 7.66242C41.8996 6.53987 41.7743 5.47874 40.7562 4.76016C40.4848 4.278 40.0263 4.03599 39.521 3.93918C36.727 3.39931 33.9011 3.78653 31.0921 3.71579C30.306 3.69531 30.5044 4.399 30.4801 4.86813C30.3865 6.64225 30.6916 8.43686 30.22 10.1942C29.6286 10.8141 28.9886 11.2963 28.0547 11.2944C23.3349 11.2814 18.6151 11.3205 13.8972 11.2758C12.3757 11.2609 11.5186 10.4083 11.513 8.83338C11.5093 7.74061 11.4232 6.63853 11.5336 5.55693C11.674 4.17747 11.3221 3.56314 9.77256 3.69345C8.03961 3.84052 6.28419 3.71765 4.53814 3.73068C1.21632 3.75116 0.0129846 4.96121 0.0092417 8.31027C-0.000115521 15.7046 -0.00572985 23.099 0.0092417 30.4933C0.0242133 38.3996 0.0616421 46.3059 0.0897138 54.2104C-0.0431587 54.5231 0.0578993 54.7819 0.273115 55.0164C0.546346 56.3084 1.32861 57.0903 2.63488 57.3435C3.27117 57.7977 4.00477 57.6264 4.69908 57.6264C11.79 57.6376 18.879 57.6395 25.9699 57.6208C26.4396 57.619 26.988 57.8666 27.4109 57.39C27.2481 56.7962 26.8195 56.4201 26.3947 56.0422ZM9.52928 34.1216C7.65409 34.157 6.07085 32.6193 6.03716 30.7298C6.00348 28.8197 7.49876 27.2448 9.38892 27.202C11.2566 27.161 12.8717 28.7155 12.9091 30.5901C12.9447 32.4555 11.3839 34.0863 9.52928 34.1216ZM12.9035 44.0217C12.8455 45.9392 11.3015 47.3931 9.37208 47.3466C7.43887 47.3 5.99599 45.7828 6.04091 43.843C6.08395 41.9441 7.66345 40.4325 9.55173 40.4846C11.4269 40.5349 12.9596 42.1508 12.9035 44.0217ZM19.5116 43.1207C19.9794 43.1486 20.4323 43.1393 20.8684 43.2138C21.2632 43.2808 21.6207 43.5209 21.5945 43.9621C21.5683 44.381 21.2614 44.6286 20.816 44.6509C20.4323 44.6696 20.0374 44.6323 19.6688 44.7124C18.8135 44.8985 17.7094 44.9842 17.6308 44.018C17.5316 42.793 18.8042 43.2845 19.5116 43.1207ZM27.8451 31.4148C26.3629 31.413 24.8826 31.4148 23.4004 31.4148C21.8546 31.413 20.3088 31.4092 18.763 31.4167C18.2221 31.4204 17.6457 31.3813 17.5877 30.7316C17.5297 30.0763 18.0443 29.9106 18.6208 29.9106C21.7124 29.9144 24.804 29.9106 27.8956 29.9125C28.444 29.9125 29.0054 30.0093 28.9811 30.6869C28.9567 31.3515 28.3878 31.4148 27.8451 31.4148ZM19.1354 16.6727C21.6506 16.6596 24.1658 16.6671 26.6811 16.6671C29.0672 16.6689 31.4532 16.6559 33.8393 16.6782C34.4363 16.6838 35.3346 16.4195 35.3795 17.3503C35.4244 18.2755 34.5561 18.1415 33.931 18.1433C28.9661 18.1508 23.9993 18.1508 19.0343 18.1433C18.4018 18.1433 17.5241 18.2197 17.5727 17.341C17.6214 16.4642 18.5216 16.6764 19.1354 16.6727ZM9.48623 13.9752C11.4082 13.9957 12.9241 15.5166 12.911 17.4136C12.8979 19.2827 11.3034 20.8483 9.43009 20.8334C7.53993 20.8166 6.02219 19.2659 6.02968 17.3577C6.03903 15.4384 7.5549 13.9547 9.48623 13.9752Z" fill="#96644D"/>
<path d="M51.1969 40.3227C50.5737 38.4313 49.1626 37.2324 47.308 36.9587C45.502 36.6925 43.5033 36.5622 41.7928 37.0611C39.2028 37.8169 36.8054 37.9621 34.3108 36.9476C33.7906 36.7353 33.1655 36.7149 32.5872 36.7111C27.2892 36.672 24.3622 38.0552 24.4558 44.4015C24.4577 44.5299 24.4633 44.6584 24.4708 44.7868C24.7608 49.0332 25.6591 53.0655 28.5898 56.3847C32.3757 60.6739 42.3431 61.292 46.5987 57.4552C49.8382 54.5343 51.2886 50.772 51.5805 46.5051C51.9641 44.4127 52.2018 42.3295 51.1969 40.3227ZM30.8543 40.291C29.5835 40.7583 28.6553 41.5569 28.0677 42.7707C28.0059 42.8973 27.7533 42.9327 27.626 42.9922C27.0346 42.8098 26.8475 42.4375 27.0178 41.9386C27.5324 40.4213 28.6085 39.5036 30.1656 39.1443C30.4875 39.0698 30.8243 39.1201 31.004 39.4459C31.1724 39.753 31.1593 40.1775 30.8543 40.291Z" fill="#689F4E"/>
<path d="M9.46006 28.7211C8.23987 28.7006 7.51375 29.4545 7.48381 30.6143C7.45387 31.7778 8.1725 32.4778 9.31595 32.6379C10.5829 32.6119 11.3596 31.9473 11.4344 30.8061C11.5168 29.5513 10.7645 28.7434 9.46006 28.7211Z" fill="#689F4E"/>
<path d="M7.48735 43.9715C7.5098 45.1443 8.264 45.8945 9.48418 45.8722C10.6894 45.8498 11.4529 45.107 11.4361 43.9268C11.4211 42.8973 10.9177 42.0707 9.34943 42.2085C8.2771 42.0242 7.46302 42.6292 7.48735 43.9715Z" fill="#689F4E"/>
<path d="M9.51258 19.3608C10.6991 19.3478 11.3185 18.5399 11.4926 17.3298C11.3054 16.2538 10.7103 15.4589 9.50697 15.4347C8.30925 15.4105 7.5326 16.1421 7.49142 17.3056C7.44838 18.5697 8.23626 19.3739 9.51258 19.3608Z" fill="#689F4E"/>
</g>
<defs>
<clipPath id="clip0_160_447">
<rect width="51.9101" height="60" fill="white"/>
</clipPath>
</defs>
</svg>
