<svg width="59" height="60" viewBox="0 0 59 60" fill="none" xmlns="http://www.w3.org/2000/svg">
<g clip-path="url(#clip0_160_399)">
<path d="M21.0344 0.152435C21.5708 0.0228299 22.1144 -0.014666 22.6638 0.00489708C23.9257 0.228242 24.9022 0.878715 25.5902 1.96039C25.6709 2.12342 25.7524 2.28644 25.8331 2.44947C25.8339 2.64184 25.9765 2.61005 26.0923 2.60923C26.5797 2.60597 27.0664 2.59945 27.5538 2.59456C28.0983 2.59456 28.642 2.59456 29.1865 2.59456C29.7294 2.59456 30.2714 2.59456 30.8143 2.59456C31.3588 2.59456 31.9025 2.59456 32.447 2.59456C32.9899 2.59456 33.532 2.59456 34.0748 2.59456C34.6193 2.59456 35.163 2.59456 35.7075 2.59456C36.2504 2.59456 36.7925 2.59456 37.3353 2.59456C37.8799 2.59456 38.4235 2.59456 38.9681 2.59456C39.5109 2.59619 40.053 2.59782 40.5959 2.59945C41.1632 2.6451 41.702 2.80486 42.2253 3.02006C42.4984 3.20835 42.7714 3.39746 43.0445 3.58576C43.3135 3.9167 43.5825 4.24764 43.8515 4.57858C43.9477 4.79704 44.0447 5.01631 44.1409 5.23476C44.3031 5.76052 44.3503 6.30177 44.3609 6.84872C44.3609 7.39159 44.3609 7.93365 44.3609 8.47653C44.3609 9.02104 44.3609 9.56473 44.3609 10.1092C44.3609 10.6521 44.3609 11.1942 44.3609 11.737C44.3609 12.2816 44.3609 12.8252 44.3609 13.3697C44.3609 13.9126 44.3609 14.4547 44.3609 14.9976C44.3609 15.5421 44.3609 16.0858 44.3609 16.6303C44.3609 17.1731 44.3609 17.7152 44.3609 18.2581C44.356 18.5157 44.3194 18.7773 44.352 19.03C44.4041 19.4319 44.299 19.6454 43.8556 19.5778C43.3127 19.5778 42.7706 19.5778 42.2277 19.5778C41.6832 19.5778 41.1396 19.5778 40.595 19.5778C40.0522 19.5778 39.5101 19.5778 38.9672 19.5778C38.4227 19.5778 37.879 19.5778 37.3345 19.5778C36.7917 19.5778 36.2496 19.5778 35.7067 19.5778C35.1622 19.5778 34.6185 19.5778 34.074 19.5778C33.5311 19.5778 32.9891 19.5778 32.4462 19.5778C32.081 19.5729 31.7167 19.5582 31.3523 19.5639C30.6081 19.5753 29.8712 19.6405 29.1792 19.9511C28.5784 20.1141 28.0413 20.4002 27.5546 20.7842C27.2172 20.9757 26.9343 21.2325 26.6792 21.521C25.7679 22.4299 25.1687 23.5051 24.9438 24.7791C24.7881 25.313 24.7669 25.8591 24.7987 26.4102C24.7987 26.9531 24.7987 27.4951 24.7987 28.038C24.7987 28.5825 24.7987 29.1262 24.7987 29.6707C24.7987 30.2136 24.7987 30.7556 24.7987 31.2985C24.7987 31.843 24.7987 32.3867 24.7987 32.9312C24.7987 33.4741 24.7987 34.0161 24.7987 34.559C24.7987 35.1035 24.7987 35.6472 24.7987 36.1917C24.7987 36.7346 24.7987 37.2767 24.7987 37.8195C24.7987 38.364 24.7987 38.9077 24.7987 39.4522C24.7987 39.9951 24.7987 40.5372 24.7987 41.0801C24.7987 41.6246 24.7987 42.1682 24.7987 42.7128C24.7987 43.2556 24.7987 43.7977 24.7987 44.3406C24.7987 44.8851 24.7987 45.4288 24.7987 45.9733C24.7987 46.5161 24.7987 47.0582 24.7987 47.6011C24.7987 48.1456 24.7987 48.6893 24.7987 49.2338C24.7987 49.7767 24.7987 50.3187 24.7987 50.8616C24.7987 51.4061 24.7987 51.9498 24.7987 52.4943C24.7987 53.0372 24.7987 53.5792 24.7987 54.1221C24.7987 54.6666 24.7987 55.2103 24.7987 55.7548C24.8639 56.2121 24.5003 56.0352 24.2965 56.0939C23.752 56.0939 23.2084 56.0939 22.6638 56.0939C22.121 56.0939 21.5789 56.0939 21.036 56.0939C20.4915 56.0939 19.9478 56.0939 19.4033 56.0939C18.8605 56.0939 18.3184 56.0939 17.7755 56.0939C17.231 56.0939 16.6873 56.0939 16.1428 56.0939C15.5999 56.0939 15.0579 56.0939 14.515 56.0939C13.9705 56.0939 13.4268 56.0939 12.8823 56.0939C12.3394 56.0939 11.7974 56.0939 11.2545 56.0939C10.71 56.0939 10.1663 56.0939 9.62179 56.0939C9.07891 56.0939 8.53685 56.0939 7.99397 56.0939C7.44947 56.0939 6.90578 56.0939 6.36127 56.0939C5.81839 56.0939 5.27633 56.0939 4.73346 56.0939C4.18977 56.058 3.642 56.1069 3.10076 56.0091C1.97669 55.7336 1.12733 55.0823 0.503755 54.1197C0.0872243 53.3143 -0.00243981 52.4552 0.00163584 51.5585C0.0203838 48.1105 0.008972 44.6625 0.008972 41.2154C0.0114174 29.793 0.0171233 18.3771 5.58017e-06 6.96121C-0.00162468 5.64233 0.353771 4.51011 1.31073 3.58657C1.36779 3.53767 1.42485 3.48876 1.48191 3.43903C1.98158 3.09668 2.51794 2.83258 3.10646 2.67852C3.64526 2.5807 4.19221 2.62961 4.73427 2.59456C5.27878 2.59456 5.82247 2.59456 6.36698 2.59456C6.90985 2.59456 7.45191 2.59456 7.99479 2.59456C8.53929 2.59456 9.08299 2.59456 9.62749 2.59456C10.1704 2.59456 10.7124 2.59456 11.2553 2.59456C11.7998 2.59456 12.3435 2.59456 12.888 2.59456C13.4309 2.59456 13.9729 2.59456 14.5158 2.59456C15.0603 2.59456 15.604 2.59456 16.1485 2.59456C16.6914 2.59456 17.2335 2.59456 17.7763 2.59456C18.4863 2.63858 18.4863 2.63858 18.7635 1.96039C18.977 1.68406 19.1906 1.40692 19.4033 1.13059C19.731 0.890127 20.0579 0.649664 20.3856 0.409201C20.5999 0.322797 20.8176 0.238024 21.0344 0.152435ZM4.00147 26.0955C3.94197 26.0809 3.91996 26.1037 3.93382 26.1624C3.93382 26.2439 3.93382 26.3246 3.93463 26.4061C3.93463 26.9506 3.93463 27.4943 3.93463 28.0388C3.93463 28.2287 3.93382 28.4178 3.93382 28.6078C3.91914 28.6673 3.94197 28.6901 4.00147 28.6762C4.24601 28.6762 4.48974 28.6754 4.73427 28.6754C5.27878 28.6754 5.82247 28.6754 6.36698 28.6754C6.90985 28.6754 7.45191 28.6754 7.99479 28.6754C8.53929 28.6754 9.08299 28.6754 9.62749 28.6754C10.1704 28.6754 10.7124 28.6754 11.2553 28.6754C11.7998 28.6754 12.3435 28.6754 12.888 28.6754C13.4309 28.6754 13.9729 28.6754 14.5158 28.6754C15.0603 28.6754 15.604 28.6754 16.1485 28.6754C16.6914 28.6754 17.2335 28.6754 17.7763 28.6754C18.3208 28.6754 18.8645 28.6754 19.409 28.6754C19.9519 28.6754 20.494 28.6754 21.0368 28.6754C21.2097 28.6803 21.3816 28.6901 21.5545 28.6901C22.2057 28.6917 22.2057 28.6909 22.165 28.0364C22.165 27.4943 22.165 26.9514 22.165 26.4094C22.2114 26.1991 22.2033 26.0491 21.9115 26.076C21.6221 26.1029 21.3287 26.0915 21.0368 26.0964C20.6309 26.0915 20.2242 26.0752 19.819 26.0849C19.6234 26.0898 19.5623 26.0303 19.5688 25.8347C19.5794 25.4834 19.5631 25.1312 19.5574 24.7791C19.5623 23.554 19.5688 22.3288 19.5712 21.1037C19.5712 20.9994 19.6267 20.8331 19.4082 20.8795C18.8653 20.8795 18.3233 20.8795 17.7804 20.8795C16.7631 20.8583 16.9742 20.7467 16.9783 21.5186C16.9783 22.0615 16.9783 22.6035 16.9783 23.1464C16.9783 23.6909 16.9783 24.2346 16.9783 24.7791C16.9734 24.9275 16.9636 25.0758 16.9636 25.225C16.962 26.0474 16.9628 26.0474 16.1502 26.0964C15.6056 26.0964 15.062 26.0964 14.5174 26.0955C14.3088 26.0866 14.3601 25.9293 14.3577 25.8078C14.3503 25.4646 14.3463 25.1215 14.3406 24.7791C14.3406 24.2346 14.3406 23.6909 14.3406 23.1464C14.3406 22.6035 14.3406 22.0615 14.3406 21.5186C14.3406 20.9741 14.3406 20.4304 14.3406 19.8859C14.3406 19.3699 14.3414 18.8547 14.3414 18.3388C14.3561 18.2793 14.3332 18.2564 14.2737 18.2703C13.8124 18.2703 13.351 18.2711 12.8896 18.2711C12.5823 18.2662 12.2742 18.2695 11.9669 18.2524C11.7851 18.2426 11.7379 18.3127 11.7427 18.4831C11.7566 18.9509 11.7566 19.4196 11.7615 19.8875C11.7615 20.4304 11.7615 20.9725 11.7615 21.5153C11.7615 22.0598 11.7615 22.6035 11.7615 23.148C11.7615 23.6909 11.7615 24.233 11.7615 24.7758C11.7566 25.0334 11.7199 25.2951 11.7525 25.5478C11.8047 25.9496 11.6995 26.1632 11.2561 26.0955C10.7132 26.0955 10.1712 26.0955 9.62831 26.0955C9.18651 26.1624 9.08054 25.9496 9.13189 25.5478C9.1645 25.2951 9.12863 25.0334 9.12293 24.7758C9.12293 24.233 9.12293 23.6909 9.12293 23.148C9.18569 22.156 9.18569 22.156 8.19368 22.1682C8.12765 22.1691 8.06163 22.178 7.99479 22.1837C7.53343 22.1837 7.07206 22.1829 6.6107 22.1829C6.5512 22.1682 6.52837 22.1911 6.54223 22.2506C6.54304 22.5489 6.54304 22.8472 6.54386 23.1456C6.54386 23.6901 6.54386 24.2338 6.54386 24.7783C6.53897 25.1215 6.53489 25.4646 6.52756 25.8078C6.52511 25.9301 6.57646 26.0858 6.36779 26.0955C5.82329 26.0955 5.27959 26.0955 4.73509 26.0955C4.48973 26.0955 4.24601 26.0955 4.00147 26.0955ZM7.95077 47.641C8.45697 48.0845 8.99658 48.4773 9.62586 48.7309C10.1386 49.0439 10.7084 49.2061 11.2855 49.3414C12.4723 49.6202 13.6599 49.6413 14.8435 49.3137C15.344 49.2436 15.8094 49.0708 16.2529 48.8344C16.8862 48.6061 17.434 48.232 17.9483 47.8114C19.0838 46.8829 19.9405 45.7532 20.388 44.3381C20.6285 43.8205 20.7418 43.2719 20.7842 42.7062C20.8991 42.1666 20.9056 41.6246 20.8225 41.0809C20.7964 40.4858 20.6929 39.9063 20.472 39.3512C20.1092 38.1179 19.4514 37.0655 18.5238 36.1795C18.3045 35.9293 18.0673 35.6994 17.7739 35.5355C17.3207 35.1394 16.812 34.837 16.2504 34.6234C16.151 34.5329 16.0377 34.4742 15.8999 34.4742C15.4606 34.2623 14.9976 34.1294 14.5134 34.0708C13.0307 33.7496 11.592 33.8841 10.1956 34.48C9.98126 34.5069 9.79948 34.6096 9.62423 34.7278C7.59048 35.7059 6.26998 37.2962 5.58364 39.4319C5.40594 39.9658 5.28938 40.5111 5.27226 41.076C5.1883 41.6229 5.19319 42.1674 5.31057 42.7087C5.35296 43.2744 5.46626 43.8221 5.70591 44.3398C5.81269 44.7848 6.00587 45.1907 6.26753 45.5657C6.31644 45.7206 6.39306 45.86 6.51044 45.9741C6.88295 46.6237 7.38263 47.1617 7.95077 47.641ZM22.6638 7.82035C22.1153 7.83991 21.5716 7.80323 21.036 7.67363C20.0416 7.30845 19.1987 6.73052 18.752 5.75155C18.5287 5.26248 18.2458 5.13206 17.7739 5.23069C17.231 5.23069 16.689 5.23069 16.1461 5.23069C15.6016 5.23069 15.0579 5.23069 14.5134 5.23069C13.9705 5.23069 13.4284 5.23069 12.8856 5.23069C12.5783 5.2258 12.2701 5.22906 11.9628 5.21194C11.7811 5.20216 11.7338 5.27226 11.7387 5.44262C11.7525 5.9105 11.7525 6.3792 11.7574 6.84709C11.7574 7.38996 11.7574 7.93202 11.7574 8.4749C11.7354 9.03245 11.6849 9.59407 11.9628 10.1141C12.1144 10.5616 12.3834 10.9187 12.7796 11.1795C13.2801 11.6107 13.8686 11.7607 14.5158 11.7224C15.0587 11.7224 15.6008 11.7224 16.1436 11.7224C16.6881 11.7224 17.2318 11.7224 17.7763 11.7224C18.3192 11.7224 18.8613 11.7224 19.4041 11.7224C19.9487 11.7224 20.4923 11.7224 21.0368 11.7224C21.5797 11.7224 22.1218 11.7224 22.6647 11.7224C23.2092 11.7224 23.7529 11.7224 24.2974 11.7224C24.8402 11.7224 25.3823 11.7224 25.9252 11.7224C26.4697 11.7224 27.0134 11.7224 27.5579 11.7224C28.1008 11.7224 28.6428 11.7224 29.1857 11.7224C29.7351 11.7305 30.291 11.8153 30.8184 11.5773C31.5854 11.3515 32.1047 10.8583 32.3908 10.1141C32.5522 9.86796 32.6011 9.58429 32.6043 9.3047C32.6174 8.01924 32.6117 6.73378 32.6182 5.44833C32.619 5.2853 32.5905 5.2046 32.3981 5.21112C31.8715 5.22906 31.3433 5.2258 30.8168 5.2315C30.2739 5.2315 29.7318 5.2315 29.1889 5.2315C28.6444 5.2315 28.1008 5.2315 27.5562 5.2315C27.0688 5.22661 26.5822 5.22009 26.0947 5.21683C25.9782 5.21602 25.8355 5.18504 25.8355 5.37741C25.5592 5.91947 25.2266 6.42078 24.7905 6.84953C24.6226 6.97751 24.4547 7.10467 24.2876 7.23264C23.7781 7.51875 23.2312 7.69645 22.6638 7.82035ZM20.895 3.82948C20.8551 4.00066 20.8697 4.1645 20.9643 4.31693C21.2308 5.07337 21.8919 5.38067 22.663 5.10679C23.3045 4.79867 23.598 4.22645 23.439 3.59391C23.2907 3.00457 22.7682 2.60271 22.1593 2.61086C21.5316 2.61901 21.0417 3.03799 20.9219 3.67053C20.9129 3.72351 20.904 3.7765 20.895 3.82948Z" fill="#96644D"/>
<path d="M27.6477 57.5367C27.6314 57.4772 27.6151 57.4177 27.5988 57.3582C27.435 56.8332 27.3902 56.292 27.3779 55.7458C27.3779 55.203 27.3779 54.6609 27.3779 54.118C27.3779 53.5735 27.3779 53.0298 27.3779 52.4853C27.3779 51.9425 27.3779 51.4004 27.3779 50.8575C27.3779 50.313 27.3779 49.7693 27.3779 49.2248C27.3779 48.6819 27.3779 48.1399 27.3779 47.597C27.3779 47.0525 27.3779 46.5088 27.3779 45.9643C27.3779 45.4214 27.3779 44.8794 27.3779 44.3365C27.3779 43.792 27.3779 43.2483 27.3779 42.7038C27.3779 42.1609 27.3779 41.6189 27.3779 41.076C27.3779 40.5315 27.3779 39.9878 27.3779 39.4433C27.3779 38.9004 27.3779 38.3583 27.3779 37.8155C27.3779 37.271 27.3779 36.7273 27.3779 36.1828C27.3779 35.6399 27.3779 35.0978 27.3779 34.5549C27.3779 34.0104 27.3779 33.4668 27.3779 32.9222C27.3779 32.3794 27.3779 31.8373 27.3779 31.2944C27.3779 30.7499 27.3779 30.2062 27.3779 29.6617C27.3779 29.1189 27.3779 28.5768 27.3779 28.0339C27.3779 27.4894 27.3779 26.9457 27.3779 26.4012C27.3885 25.8534 27.435 25.3098 27.6013 24.7832L27.5915 24.7587C27.8662 24.1563 28.2183 23.6078 28.6927 23.1415C28.8598 23.016 29.0278 22.8905 29.1949 22.7657C29.7002 22.469 30.2504 22.297 30.8186 22.1707C31.3615 22.1642 31.9043 22.1568 32.4472 22.1503C32.9901 22.1503 33.5322 22.1503 34.075 22.1503C34.6195 22.1503 35.1632 22.1503 35.7077 22.1503C36.2506 22.1503 36.7927 22.1503 37.3355 22.1503C37.88 22.1503 38.4237 22.1503 38.9682 22.1503C39.5111 22.1503 40.0532 22.1503 40.5961 22.1503C41.1406 22.1503 41.6843 22.1503 42.2288 22.1503C42.7716 22.1503 43.3137 22.1503 43.8566 22.1503C44.4011 22.1503 44.9448 22.1503 45.4893 22.1503C46.0322 22.1503 46.5742 22.1503 47.1171 22.1503C47.6616 22.1503 48.2053 22.1503 48.7498 22.1503C49.2927 22.1503 49.8347 22.1503 50.3776 22.1503C50.9221 22.1503 51.4658 22.1503 52.0103 22.1503C52.5532 22.1503 53.0952 22.1503 53.6381 22.1503C54.181 22.1568 54.7239 22.1634 55.2676 22.1699C55.8349 22.2954 56.3835 22.4723 56.8913 22.7625C57.0584 22.8888 57.2255 23.0152 57.3926 23.1415C57.8385 23.5939 58.202 24.1025 58.4531 24.6894C58.4629 24.7212 58.4726 24.7522 58.4832 24.784C58.6503 25.3106 58.696 25.8534 58.7074 26.402C58.7074 26.9465 58.7074 27.4902 58.7074 28.0347C58.7074 28.5776 58.7074 29.1197 58.7074 29.6625C58.7074 30.207 58.7074 30.7507 58.7074 31.2952C58.7074 31.8381 58.7074 32.3802 58.7074 32.9231C58.7074 33.4676 58.7074 34.0113 58.7074 34.5558C58.7074 35.0986 58.7074 35.6407 58.7074 36.1836C58.7074 36.7281 58.7074 37.2718 58.7074 37.8163C58.7074 38.3592 58.7074 38.9012 58.7074 39.4441C58.7074 39.9886 58.7074 40.5323 58.7074 41.0768C58.7074 41.6197 58.7074 42.1617 58.7074 42.7046C58.7074 43.2491 58.7074 43.7928 58.7074 44.3373C58.7074 44.8802 58.7074 45.4222 58.7074 45.9651C58.7074 46.5096 58.7074 47.0533 58.7074 47.5978C58.7074 48.1407 58.7074 48.6828 58.7074 49.2256C58.7074 49.7701 58.7074 50.3138 58.7074 50.8583C58.7074 51.4012 58.7074 51.9433 58.7074 52.4862C58.7074 53.0307 58.7074 53.5743 58.7074 54.1189C58.7074 54.6617 58.7074 55.2038 58.7074 55.7467C58.7343 57.0223 58.3145 58.1171 57.391 59.0088C57.2231 59.136 57.056 59.2623 56.888 59.3895C56.3818 59.6788 55.8341 59.8541 55.2684 59.9804C54.7255 59.987 54.1834 59.9935 53.6406 60C53.0961 60 52.5524 60 52.0079 60C51.465 60 50.9229 60 50.38 60C49.8355 60 49.2919 60 48.7473 60C48.2045 60 47.6624 60 47.1195 60C46.575 60 46.0313 60 45.4868 60C44.944 60 44.4019 60 43.859 60C43.3145 60 42.7708 60 42.2263 60C41.6834 60 41.1414 60 40.5985 60C40.054 60 39.5103 60 38.9658 60C38.4229 60 37.8809 60 37.338 60C36.7935 60 36.2498 60 35.7053 60C35.1624 60 34.6203 60 34.0775 60C33.533 60 32.9893 60 32.4448 60C31.9019 59.9935 31.3598 59.987 30.817 59.9796C30.2513 59.8533 29.7027 59.6788 29.1973 59.387C29.0294 59.2607 28.8623 59.1343 28.6944 59.008C28.2599 58.5792 27.9265 58.0779 27.6477 57.5367ZM42.2271 41.715C42.77 41.715 43.3121 41.715 43.8549 41.715C44.4867 41.7697 45.0793 41.7264 45.4396 41.0915C45.5251 40.9945 45.5814 40.8869 45.5716 40.7524C45.711 40.0848 45.6963 39.4131 45.5822 38.7472C45.5243 38.4113 45.2888 38.1709 45.0002 37.9989C44.644 37.7861 44.2503 37.7951 43.8558 37.8318C43.3129 37.8318 42.7708 37.8318 42.2279 37.8318C41.2482 37.7706 40.6686 38.0437 40.5072 38.7496C40.3572 39.4058 40.3703 40.0848 40.5113 40.7524C40.5048 40.8852 40.5577 40.9953 40.645 41.0906C41.0028 41.7289 41.597 41.768 42.2271 41.715ZM52.0079 54.7547C52.5524 54.7954 52.9876 54.6169 53.268 54.127C53.6039 53.6118 53.4457 53.0388 53.4588 52.4862C53.5216 51.433 52.9876 50.8388 52.0079 50.8722C51.4634 50.8722 50.9197 50.8722 50.3752 50.8722C49.8127 50.8763 49.2209 50.7222 48.7449 51.1803C48.2966 51.5113 48.2183 51.9767 48.2721 52.4894C48.2681 52.8252 48.2469 53.1627 48.2632 53.4977C48.2974 54.2126 48.8174 54.731 49.5291 54.7652C49.8103 54.7791 50.0931 54.7604 50.376 54.7563C50.9197 54.7547 51.4634 54.7547 52.0079 54.7547ZM34.075 41.715C34.6195 41.715 35.1632 41.715 35.7077 41.715C35.9767 41.7199 36.2457 41.7362 36.5139 41.7264C37.2687 41.6995 37.7961 41.173 37.823 40.4165C37.8344 40.0946 37.8157 39.7718 37.8108 39.449C37.8621 38.9371 37.7896 38.47 37.338 38.1399C36.862 37.6818 36.2694 37.8358 35.7077 37.8318C35.1632 37.8318 34.6195 37.8318 34.075 37.8318C33.0936 37.8016 32.5613 38.3942 32.6241 39.4465C32.638 39.9992 32.4757 40.573 32.8181 41.0874C33.0944 41.5805 33.5322 41.7525 34.075 41.715ZM52.0079 35.1948C52.5532 35.2372 52.9876 35.0546 53.2697 34.5672C53.6047 34.0512 53.4457 33.479 53.4588 32.9263C53.4588 32.3834 53.4588 31.8414 53.4588 31.2985C53.4588 30.754 53.4588 30.2103 53.4588 29.6658C53.4441 29.1123 53.608 28.5368 53.2632 28.0225C52.9836 27.5326 52.5475 27.3582 52.0046 27.3997C51.4617 27.3997 50.9197 27.3997 50.3768 27.3997C49.8323 27.3997 49.2886 27.3997 48.7441 27.3997C48.2012 27.3997 47.6592 27.3997 47.1163 27.3997C46.5718 27.3997 46.0281 27.3997 45.4836 27.3997C44.9407 27.3997 44.3986 27.3997 43.8558 27.3997C43.3113 27.3997 42.7676 27.3997 42.2231 27.3997C41.6802 27.3997 41.1381 27.3997 40.5952 27.3997C40.0507 27.3997 39.507 27.3997 38.9625 27.3997C38.4197 27.3997 37.8776 27.3997 37.3347 27.3997C36.7902 27.3997 36.2465 27.3997 35.702 27.3997C35.1591 27.3997 34.6171 27.3997 34.0742 27.3997C33.533 27.3606 33.0952 27.5318 32.8165 28.0233C32.4709 28.5377 32.6355 29.1123 32.6208 29.6666C32.6208 30.2111 32.6208 30.7548 32.6208 31.2993C32.6208 31.8422 32.6208 32.3843 32.6208 32.9271C32.6331 33.4798 32.4766 34.0528 32.8108 34.5688C33.1001 35.0424 33.5126 35.2666 34.0726 35.1965C34.6171 35.1965 35.1608 35.1965 35.7053 35.1965C36.2482 35.1965 36.7902 35.1965 37.3331 35.1965C37.8776 35.1965 38.4213 35.1965 38.9658 35.1965C39.5087 35.1965 40.0507 35.1965 40.5936 35.1965C41.1381 35.1965 41.6818 35.1965 42.2263 35.1965C42.7692 35.1965 43.3113 35.1965 43.8541 35.1965C44.3986 35.1965 44.9423 35.1965 45.4868 35.1965C46.0297 35.1965 46.5718 35.1965 47.1146 35.1965C47.6591 35.1965 48.2028 35.1965 48.7473 35.1965C49.2902 35.1965 49.8323 35.1965 50.3752 35.1965C50.9197 35.1948 51.4634 35.1948 52.0079 35.1948ZM43.8549 54.7555C44.4867 54.8101 45.0793 54.7669 45.4396 54.1319C45.5251 54.0349 45.5814 53.9273 45.5716 53.7928C45.711 53.1252 45.6963 52.4535 45.5822 51.7876C45.5243 51.4518 45.2888 51.2113 45.0002 51.0393C44.644 50.8265 44.2503 50.8355 43.8558 50.8722C43.3129 50.8722 42.7708 50.8722 42.2279 50.8722C41.2482 50.8111 40.6686 51.0841 40.5072 51.79C40.3572 52.4462 40.3703 53.1252 40.5113 53.7928C40.5048 53.9257 40.5577 54.0357 40.645 54.1311C41.0028 54.7693 41.597 54.8084 42.2279 54.7547C42.77 54.7547 43.3121 54.7555 43.8549 54.7555ZM52.0079 48.2344C52.5524 48.2752 52.9876 48.0967 53.268 47.6068C53.6039 47.0916 53.4457 46.5186 53.4588 45.9659C53.5216 44.9128 52.9876 44.3186 52.0079 44.352C51.4634 44.352 50.9197 44.352 50.3752 44.352C49.8127 44.3561 49.2209 44.202 48.7449 44.6601C48.2966 44.991 48.2183 45.4565 48.2721 45.9692C48.2681 46.305 48.2469 46.6425 48.2632 46.9775C48.2974 47.6924 48.8174 48.2108 49.5291 48.245C49.8103 48.2589 50.0931 48.2401 50.376 48.2361C50.9197 48.2353 51.4634 48.2353 52.0079 48.2344ZM43.8549 48.2353C44.4867 48.2899 45.0793 48.2467 45.4396 47.6117C45.5251 47.5147 45.5814 47.4071 45.5716 47.2726C45.711 46.605 45.6963 45.9333 45.5822 45.2674C45.5243 44.9315 45.2888 44.6911 45.0002 44.5191C44.644 44.3063 44.2503 44.3153 43.8558 44.352C43.3129 44.352 42.7708 44.352 42.2279 44.352C41.2482 44.2908 40.6686 44.5639 40.5072 45.2698C40.3572 45.926 40.3703 46.605 40.5113 47.2726C40.5048 47.4055 40.5577 47.5155 40.645 47.6109C41.0028 48.2491 41.597 48.2882 42.2279 48.2344C42.77 48.2353 43.3121 48.2353 43.8549 48.2353ZM34.075 48.2353C34.6195 48.2353 35.1632 48.2353 35.7077 48.2353C35.9767 48.2401 36.2457 48.2564 36.5139 48.2467C37.2687 48.2198 37.7961 47.6932 37.823 46.9368C37.8344 46.6148 37.8157 46.292 37.8108 45.9692C37.8621 45.4573 37.7896 44.9902 37.338 44.6601C36.862 44.202 36.2694 44.3561 35.7077 44.352C35.1632 44.352 34.6195 44.352 34.075 44.352C33.0936 44.3218 32.5613 44.9144 32.6241 45.9667C32.638 46.5194 32.4757 47.0933 32.8181 47.6076C33.0944 48.0999 33.5322 48.2727 34.075 48.2353ZM34.075 54.7555C34.6195 54.7555 35.1632 54.7555 35.7077 54.7555C35.9767 54.7604 36.2457 54.7767 36.5139 54.7669C37.2687 54.74 37.7961 54.2134 37.823 53.457C37.8344 53.135 37.8157 52.8122 37.8108 52.4894C37.8621 51.9775 37.7896 51.5104 37.338 51.1803C36.862 50.7222 36.2694 50.8763 35.7077 50.8722C35.1632 50.8722 34.6195 50.8722 34.075 50.8722C33.0936 50.842 32.5613 51.4346 32.6241 52.487C32.638 53.0396 32.4757 53.6135 32.8181 54.1278C33.0944 54.6202 33.5322 54.7921 34.075 54.7555ZM52.0079 41.715C52.5524 41.7558 52.9876 41.5773 53.268 41.0874C53.6039 40.5722 53.4457 39.9992 53.4588 39.4465C53.5216 38.3934 52.9876 37.7992 52.0079 37.8326C51.4634 37.8326 50.9197 37.8326 50.3752 37.8326C49.8127 37.8367 49.2209 37.6826 48.7449 38.1407C48.2966 38.4716 48.2183 38.9371 48.2721 39.4498C48.2681 39.7856 48.2469 40.1231 48.2632 40.4581C48.2974 41.173 48.8174 41.6914 49.5291 41.7256C49.8103 41.7395 50.0931 41.7207 50.376 41.7167C50.9197 41.715 51.4634 41.715 52.0079 41.715Z" fill="#689F4E"/>
<path d="M7.84972 41.0817C8.07307 39.8133 8.62573 38.7178 9.56557 37.8269C9.59002 37.8057 9.61366 37.7837 9.63812 37.7625C10.1337 37.3867 10.6611 37.0655 11.2358 36.8243C11.7738 36.6572 12.3223 36.5439 12.8856 36.5031C13.0951 36.5096 13.0445 36.6669 13.047 36.7884C13.0543 37.1316 13.0584 37.4747 13.0633 37.8171C13.0633 38.36 13.0633 38.902 13.0633 39.4449C13.0633 39.9894 13.0633 40.5331 13.0633 41.0776C13.0633 41.2675 13.0625 41.4566 13.0625 41.6466C13.0478 41.7061 13.0706 41.7289 13.1301 41.715C13.5915 41.715 14.0529 41.7142 14.5142 41.7142C15.0587 41.7142 15.6024 41.7142 16.1469 41.7142C16.6898 41.7142 17.2319 41.7142 17.7747 41.7142C18.3086 41.7468 18.3078 41.7468 18.2345 42.3052C18.2165 42.4389 18.2051 42.5734 18.1904 42.7079C17.9003 43.9917 17.2449 45.0489 16.226 45.8812C16.1975 45.9032 16.1689 45.926 16.1404 45.948C15.6293 46.2855 15.0799 46.5463 14.5077 46.759C13.9713 46.8634 13.4342 46.9539 12.8856 46.9547C12.3688 46.9196 11.8659 46.8088 11.3646 46.6857C9.80603 46.0629 8.67789 45.0139 8.11953 43.4032C8.04046 43.1741 7.9777 42.9394 7.9076 42.707C7.83424 42.1666 7.82608 41.6254 7.84972 41.0817Z" fill="#689F4E"/>
</g>
<defs>
<clipPath id="clip0_160_399">
<rect width="58.7056" height="60" fill="white"/>
</clipPath>
</defs>
</svg>
