<svg width="48" height="60" viewBox="0 0 48 60" fill="none" xmlns="http://www.w3.org/2000/svg">
<g clip-path="url(#clip0_160_469)">
<path d="M30.2604 7.46278C35.8588 7.46278 41.4554 7.46944 47.0538 7.4528C47.5594 7.45114 47.7573 7.51601 47.754 8.10811C47.729 15.862 47.7323 23.6158 47.7506 31.3696C47.7523 31.9002 47.5993 32.005 47.0953 32.005C35.8787 31.99 24.6637 31.99 13.4471 32.005C12.9515 32.005 12.7918 31.9185 12.7935 31.378C12.8134 23.6042 12.8118 15.8287 12.7951 8.05488C12.7935 7.56258 12.9265 7.45114 13.4055 7.4528C19.0238 7.46944 24.6421 7.46278 30.2604 7.46278ZM30.2255 28.02C32.2147 28.02 34.2055 28.015 36.1947 28.0233C36.7086 28.0249 37.181 27.98 37.2375 27.3347C37.2791 26.8541 36.9415 26.6262 36.2363 26.6179C36.1748 26.6179 36.1116 26.6096 36.05 26.6195C35.6941 26.6711 35.5793 26.5181 35.596 26.1671C35.6226 25.6299 35.6226 25.0894 35.596 24.5505C35.5793 24.2029 35.6841 24.0033 35.9985 23.817C37.6301 22.8524 38.4234 21.3788 38.2687 19.5094C38.1107 17.5917 37.0696 16.2412 35.24 15.5626C34.9373 15.4511 34.7843 15.3131 34.7095 14.9838C34.2222 12.8649 32.4292 11.4345 30.2854 11.4245C28.1681 11.4146 26.3735 12.8 25.8513 14.8906C25.7565 15.2715 25.5918 15.4478 25.2193 15.5892C23.5793 16.2162 22.5714 17.4287 22.302 19.1551C22.0375 20.8516 22.5215 22.4083 23.9552 23.3763C24.8284 23.9667 25.033 24.6004 24.9215 25.5069C24.9165 25.5484 24.9215 25.59 24.9215 25.6316C24.9215 26.5364 24.9215 26.543 24.0134 26.6179C23.7207 26.6412 23.5028 26.7476 23.3631 27.0137C23.2317 27.2649 23.275 27.4994 23.423 27.7156C23.6242 28.01 23.9353 28.0216 24.2546 28.0216C26.2471 28.0183 28.2363 28.02 30.2255 28.02Z" fill="#96644D"/>
<path d="M30.3018 33.3805C35.9001 33.3805 41.4968 33.3871 47.0951 33.3688C47.5991 33.3672 47.7521 33.4753 47.7504 34.0042C47.7288 38.8557 47.7321 43.7073 47.7471 48.5588C47.7488 49.0229 47.664 49.1859 47.15 49.1842C35.8918 49.1676 24.6336 49.1676 13.3754 49.1825C12.9197 49.1825 12.7933 49.0861 12.7949 48.6121C12.8149 43.7189 12.8149 38.8258 12.7949 33.9326C12.7933 33.4453 12.9396 33.3672 13.3837 33.3688C19.0236 33.3854 24.6619 33.3805 30.3018 33.3805ZM30.2868 38.4948C26.992 38.4948 23.6989 38.4948 20.4041 38.4965C20.1978 38.4965 19.9833 38.4865 19.7887 38.538C19.4561 38.6262 19.2615 38.8574 19.2698 39.2183C19.2781 39.5759 19.466 39.8037 19.812 39.8753C19.9916 39.9118 20.1829 39.9118 20.3675 39.9118C26.9771 39.9135 33.5866 39.9135 40.1945 39.9118C40.3791 39.9118 40.5687 39.9052 40.75 39.8686C41.076 39.8021 41.2507 39.5626 41.2723 39.2532C41.2972 38.9106 41.1209 38.6462 40.7816 38.5497C40.587 38.4948 40.3741 38.4965 40.1679 38.4965C36.8764 38.4948 33.5816 38.4948 30.2868 38.4948ZM30.2502 44.0649C31.1617 44.0649 32.0731 44.0649 32.9845 44.0649C35.4494 44.0649 37.9159 44.0632 40.3808 44.0665C40.8831 44.0665 41.269 43.8836 41.269 43.343C41.269 42.8341 40.8964 42.6462 40.4207 42.6495C40.3176 42.6495 40.2128 42.6495 40.1097 42.6495C33.5417 42.6495 26.9737 42.6495 20.4057 42.6511C20.2195 42.6511 20.0315 42.6511 19.8486 42.6778C19.496 42.7293 19.2981 42.9489 19.2714 43.3031C19.2432 43.694 19.4577 43.9335 19.8103 44.0333C19.985 44.0832 20.1796 44.0649 20.3658 44.0649C23.6606 44.0665 26.9554 44.0649 30.2502 44.0649Z" fill="#96644D"/>
<path d="M47.356 50.5663C47.178 51.2732 47.0084 51.9318 46.8487 52.5921C46.7988 52.8017 46.709 52.9214 46.4712 52.8915C46.3282 52.8732 46.1818 52.8881 46.0354 52.8881C35.9132 52.8881 25.7926 52.8881 15.6704 52.8881C15.4625 52.8881 15.2546 52.8832 15.0483 52.8948C14.6292 52.9197 14.3947 53.1543 14.388 53.5684C14.3814 53.9825 14.6159 54.2237 15.025 54.2719C15.2296 54.2952 15.4392 54.2819 15.6471 54.2819C25.7477 54.2819 35.8483 54.2869 45.9489 54.2703C46.4911 54.2686 46.7273 54.375 46.5726 54.9389C46.5676 54.9588 46.571 54.9805 46.571 55.0004C46.5677 55.4079 46.729 55.99 46.5244 56.1829C46.23 56.4624 45.6595 56.2744 45.2088 56.2761C33.1173 56.2811 21.0242 56.2794 8.93273 56.2794C8.07618 56.2794 7.71027 56.494 7.71693 56.9946C7.72192 57.4919 8.05955 57.6782 8.95268 57.6782C21.3352 57.6782 33.7178 57.6815 46.1003 57.6665C46.6292 57.6665 46.8704 57.7763 46.9369 58.3418C47.0017 58.8873 47.2146 59.4162 47.376 60C47.1681 60 46.9868 60 46.8055 60C32.8679 60 18.9302 60.0017 4.9926 59.9983C2.70903 59.9983 0.872851 58.711 0.249151 56.6952C-0.67559 53.7114 1.45663 50.7227 4.61672 50.5713C4.76142 50.5647 4.90778 50.5663 5.05248 50.5663C18.9701 50.5663 32.8862 50.5663 46.8038 50.5663C46.9635 50.5663 47.1298 50.5663 47.356 50.5663Z" fill="#689F4E"/>
<path d="M30.2268 6.03742C24.6268 6.03742 19.0268 6.0291 13.4268 6.05072C12.8945 6.05239 12.7831 5.90769 12.7947 5.40208C12.8297 3.78544 12.8164 2.16715 12.8014 0.548853C12.7981 0.184612 12.8347 0.00997576 13.2854 0.011639C24.6101 0.0266078 35.9349 0.0249446 47.2596 0.0149654C47.6388 0.0149654 47.7536 0.108105 47.7486 0.497294C47.727 2.15551 47.7186 3.81538 47.7519 5.47526C47.7619 5.96424 47.5989 6.04906 47.1515 6.0474C41.5099 6.03243 35.8683 6.03742 30.2268 6.03742Z" fill="#96644D"/>
<path d="M11.4163 24.5871C11.4163 32.5688 11.4113 40.5505 11.4279 48.5322C11.4296 49.0329 11.3348 49.2275 10.7959 49.1859C10.1373 49.1343 9.46869 49.1576 8.80674 49.1809C8.46744 49.1925 8.29114 49.1094 8.34936 48.7401C8.36266 48.6586 8.35102 48.5738 8.35102 48.4923C8.35102 32.5705 8.35435 16.6487 8.33938 0.726823C8.33938 0.181293 8.44083 -0.0498923 9.03626 0.0116462C9.59011 0.0698583 10.1573 0.0598791 10.7128 0.0133094C11.2616 -0.031597 11.4329 0.116428 11.4313 0.705201C11.4063 7.35967 11.4146 14.0141 11.4146 20.6703C11.4146 21.9742 11.4146 23.2815 11.4163 24.5871Z" fill="#96644D"/>
<path d="M0.0216589 35.8836C0.0216589 33.6516 0.0216589 31.5825 0.0216589 29.5135C0.0216589 26.4848 0.0116797 23.4578 0.0249853 20.4291C0.0349645 18.0191 1.43871 16.1813 3.67571 15.6474C4.6753 15.4079 5.69983 15.5509 6.71272 15.5193C6.90399 15.5127 6.96719 15.6108 6.95721 15.7855C6.95222 15.8886 6.95721 15.9933 6.95721 16.0965C6.95721 21.758 6.95056 27.4212 6.97052 33.0827C6.97218 33.5834 6.82914 33.6931 6.35347 33.6865C5.05284 33.6665 3.74224 33.5884 2.49151 34.1123C1.57842 34.4948 0.8017 35.0553 0.0216589 35.8836Z" fill="#96644D"/>
<path d="M0.0131914 9.08108C0.0547714 7.31808 -0.0816111 5.74303 0.0863722 4.17962C0.325873 1.93763 2.12213 0.216212 4.36579 0.0449027C5.10758 -0.0116462 5.85934 0.0365866 6.60446 0.0166282C6.86891 0.00997542 6.96371 0.0798299 6.96205 0.360911C6.95041 2.4133 6.95041 4.46736 6.96205 6.52141C6.96371 6.80249 6.86891 6.88066 6.60446 6.86403C6.2951 6.84407 5.98076 6.87733 5.6714 6.85738C3.50758 6.71268 1.61818 7.29812 0.0131914 9.08108Z" fill="#96644D"/>
<path d="M0.00972185 51.3913C0.0629443 49.6183 -0.0867438 48.025 0.0912187 46.4416C0.344025 44.2029 2.21014 42.4765 4.47043 42.3534C5.1723 42.3152 5.8775 42.3534 6.58103 42.3302C6.88207 42.3202 6.96357 42.4166 6.9619 42.7127C6.95026 44.7418 6.95026 46.7709 6.9619 48.8C6.96357 49.0994 6.87542 49.1826 6.5777 49.1809C5.70951 49.1742 4.83301 49.136 3.97147 49.2291C2.438 49.3921 1.1723 50.1422 0.00972185 51.3913Z" fill="#96644D"/>
<path d="M0.0648744 16.2844C0.0648744 14.9223 -0.0249385 13.6981 0.0848328 12.4923C0.302712 10.099 2.18878 8.36924 4.58213 8.25781C5.24408 8.22787 5.9077 8.26113 6.56966 8.24118C6.85739 8.23286 6.9655 8.3077 6.96383 8.61706C6.95053 10.3152 6.9472 12.0133 6.9655 13.7114C6.96882 14.0657 6.83078 14.109 6.5314 14.104C5.76633 14.094 4.99627 14.0724 4.23452 14.1356C2.60126 14.2703 1.23743 14.9888 0.0648744 16.2844Z" fill="#96644D"/>
<path d="M0.0130379 43.1501C0.054618 41.7164 -0.0634694 40.4557 0.0845556 39.2017C0.360647 36.8765 2.29329 35.1468 4.64006 35.1002C5.26044 35.0886 5.88248 35.1152 6.50285 35.0902C6.83549 35.0769 6.96855 35.1451 6.96356 35.5193C6.94194 37.1759 6.94027 38.8324 6.96522 40.489C6.97187 40.8965 6.8305 40.9597 6.46792 40.9564C5.57811 40.948 4.68331 40.8732 3.80015 41.0112C2.34152 41.2374 1.12905 41.9476 0.0130379 43.1501Z" fill="#96644D"/>
<path d="M33.3207 15.2898C32.1814 15.4428 31.2433 15.9385 30.5714 16.8965C30.292 17.2973 30.2504 17.6832 30.6762 17.9759C31.0637 18.2437 31.4313 18.1189 31.6974 17.7464C32.4225 16.7335 33.4121 16.499 34.5531 16.8183C35.8022 17.1659 36.5805 18.0058 36.8184 19.2765C37.1094 20.8299 36.3693 22.1805 34.909 22.7875C34.3901 23.0037 34.1772 23.3148 34.2005 23.8703C34.2321 24.657 34.1972 25.4453 34.2138 26.2337C34.2205 26.5264 34.1356 26.6162 33.8329 26.6279C32.6288 26.6761 32.6288 26.6894 32.6288 25.4919C32.6288 25.0977 32.6304 24.7035 32.6238 24.311C32.6171 23.862 32.3643 23.5942 31.9369 23.5909C31.5094 23.5875 31.245 23.8603 31.2333 24.2994C31.2167 24.9214 31.2101 25.5435 31.2333 26.1655C31.2467 26.5048 31.1635 26.6245 30.7943 26.6312C29.314 26.6545 29.314 26.6694 29.314 25.2125C29.314 24.9231 29.3257 24.632 29.309 24.3426C29.2824 23.8852 29.0429 23.5775 28.5739 23.5925C28.1398 23.6058 27.9069 23.9085 27.8953 24.3376C27.8787 24.938 27.8687 25.5401 27.897 26.1405C27.9153 26.5198 27.8005 26.6328 27.413 26.6312C26.3469 26.6262 26.3469 26.6462 26.3469 25.6116C26.3469 25.0511 26.3236 24.4906 26.3535 23.9335C26.3868 23.3297 26.1456 23.0037 25.5735 22.7659C24.3776 22.2703 23.7207 21.3106 23.6575 20.0233C23.5943 18.736 24.1797 17.7547 25.2874 17.0894C25.625 16.8865 25.8412 16.8083 26.0358 17.3222C26.4034 18.2936 27.1352 18.9538 28.1148 19.3331C28.5406 19.4977 28.8766 19.3813 29.0579 19.0037C29.2408 18.6229 29.1311 18.252 28.7169 18.0707C27.6026 17.5867 26.9772 16.7617 27.1469 15.541C27.3298 14.2187 28.1198 13.3239 29.4238 12.948C31.1652 12.4474 32.8749 13.4753 33.3207 15.2898Z" fill="#689F4E"/>
</g>
<defs>
<clipPath id="clip0_160_469">
<rect width="47.7538" height="60" fill="white"/>
</clipPath>
</defs>
</svg>
