<svg width="52" height="60" viewBox="0 0 52 60" fill="none" xmlns="http://www.w3.org/2000/svg">
<g clip-path="url(#clip0_160_545)">
<path d="M6.19998 28.6937C6.19998 23.2436 6.1908 17.7928 6.20786 12.3427C6.21113 11.244 7.09139 10.3696 8.18877 10.3552C10.3002 10.3283 12.4123 10.3545 14.5238 10.3368C14.8491 10.3342 14.9704 10.4838 15.0911 10.735C15.5359 11.6651 16.0271 12.5742 16.4404 13.5174C16.7631 14.2547 17.2603 14.5263 18.0579 14.4974C19.4354 14.4469 20.8161 14.5033 22.1942 14.4725C22.6389 14.4626 22.7668 14.565 22.7629 15.028C22.7386 17.8505 22.7485 20.673 22.7518 23.4955C22.755 26.764 24.9517 28.96 28.2203 28.9653C29.8365 28.9679 31.4527 28.9784 33.0682 28.9574C33.5084 28.9515 33.5753 29.0374 33.3929 29.4487C32.655 31.118 31.9578 32.8051 31.2251 34.4771C30.9889 35.0156 30.8978 35.518 31.3864 35.947C31.8804 36.3806 32.3749 36.2022 32.8695 35.9037C33.5976 35.4642 34.3388 35.0458 35.1653 34.5656C35.1653 36.5819 35.1653 38.4901 35.1653 40.3982C35.1653 41.3309 35.1653 41.3309 34.2404 41.5224C31.1824 42.1567 29.3813 45.2625 30.1946 48.5048C30.783 50.8504 32.2044 52.5132 34.3886 53.5122C34.9613 53.7739 35.2361 54.0691 35.1856 54.7519C35.1088 55.7804 35.1751 56.8187 35.1626 57.8531C35.1475 59.1302 34.283 59.9954 32.9974 59.9967C24.7871 60.002 16.5775 60.002 8.36718 59.9967C7.0809 59.9961 6.20458 59.1289 6.20195 57.8538C6.19277 54.2337 6.21179 50.6143 6.18752 46.9942C6.18293 46.2851 6.91429 46.4799 7.16748 46.0706C7.28883 45.8739 7.50398 46.23 7.6391 46.3632C9.26187 47.9702 10.8735 49.5891 12.491 51.2013C13.1955 51.9032 13.675 51.9124 14.3624 51.2315C15.2814 50.3224 16.1964 49.4093 17.1048 48.4891C17.7581 47.8272 17.7529 47.3327 17.0852 46.6623C15.4578 45.029 13.8344 43.3918 12.1873 41.7782C11.8016 41.4004 11.8351 41.266 12.3316 41.0633C14.7566 40.0741 17.1698 39.0568 19.581 38.0348C19.8807 37.9076 20.1267 37.9122 20.4304 38.0309C21.8131 38.5734 23.3172 38.1345 24.1732 36.9689C25.0619 35.7588 25.0311 34.1989 24.0918 33.0183C23.9849 32.8838 23.8695 32.7546 23.7475 32.6332C20.1057 28.9915 16.4725 25.3419 12.817 21.7153C11.0499 19.962 8.26026 20.5477 7.43576 22.8113C7.14977 23.5958 7.16355 24.3731 7.49151 25.1379C7.58925 25.3655 7.62598 25.5531 7.51578 25.803C7.09533 26.7613 6.70768 27.7347 6.30756 28.7022C6.27148 28.7003 6.23606 28.697 6.19998 28.6937Z" fill="#96644D"/>
<path d="M34.2529 32.6719C34.8938 31.1849 35.4881 29.8377 36.0548 28.4786C36.4359 27.5642 35.9734 26.9024 34.9633 26.8991C32.7017 26.8912 30.4394 26.8991 28.1777 26.8958C26.1161 26.8925 24.822 25.6108 24.8213 23.563C24.8187 16.8214 24.8187 10.079 24.8213 3.33739C24.822 1.2876 26.1148 0.00263059 28.1738 0.00197466C34.9161 6.86353e-06 41.6591 -0.000649068 48.4014 0.00197466C50.4164 0.00263059 51.7158 1.29613 51.7171 3.30918C51.721 10.0725 51.721 16.8358 51.7171 23.5998C51.7158 25.6063 50.4118 26.8899 48.3889 26.8958C47.2686 26.8991 46.1476 26.9207 45.0286 26.8866C44.4409 26.8683 43.9456 27.0322 43.4484 27.3254C40.5978 29.0046 37.7359 30.6661 34.8774 32.3328C34.7121 32.4273 34.5435 32.5139 34.2529 32.6719ZM43.882 10.3322C44.0289 9.66253 44.2047 9.02103 44.3025 8.36707C44.4008 7.70917 44.4579 7.04012 44.4671 6.37435C44.4933 4.54102 43.1795 3.13798 41.4446 3.10519C39.6939 3.07239 38.3381 4.39934 38.2705 6.22939C38.2469 6.86958 38.1426 7.51764 37.7169 7.98072C37.0347 8.72324 36.5218 9.90195 35.1325 9.31423C35.0958 9.29849 35.0473 9.31095 35.004 9.31095C33.0441 9.31095 31.0841 9.30571 29.1236 9.31358C28.3174 9.31686 27.9271 9.69861 27.9258 10.4962C27.9193 13.8343 27.9199 17.1729 27.9252 20.511C27.9265 21.3453 28.3122 21.7199 29.1609 21.7225C31.0992 21.7284 33.0382 21.7185 34.9764 21.7284C35.5307 21.731 35.9649 21.548 36.1348 21.0023C36.2398 20.6645 36.3696 20.7799 36.569 20.8783C37.2847 21.2332 38.0324 21.5034 38.8287 21.6018C40.8464 21.851 42.8765 21.7796 44.8928 21.6812C46.976 21.5795 48.5673 19.7619 48.608 17.6649C48.6296 16.5669 48.6296 15.4675 48.6067 14.3702C48.5693 12.5926 47.3755 11.0439 45.6832 10.5225C45.0994 10.3427 44.4966 10.3454 43.882 10.3322Z" fill="#689F4E"/>
<path d="M32.0493 46.9201C32.1077 45.4318 32.738 44.337 34.063 43.7493C35.3893 43.161 36.6271 43.4109 37.7139 44.3711C37.9396 44.5706 38.1449 44.7929 38.36 45.0035C39.0501 45.6784 39.5604 45.6876 40.2367 45.01C40.8158 44.4302 41.3786 43.8385 42.1992 43.5919C44.6078 42.8671 46.8773 44.8782 46.5106 47.4324C46.2522 49.2316 45.3326 50.5999 43.7164 51.4519C42.3678 52.1623 40.9923 52.8215 39.6358 53.5175C39.4003 53.6381 39.2141 53.6368 38.9805 53.5175C37.6044 52.8163 36.2027 52.1636 34.8456 51.4283C33.0542 50.4562 32.1589 48.8971 32.0493 46.9201Z" fill="#96644D"/>
<path d="M9.17793 27.2015C12.169 30.1925 15.0846 33.1167 18.0146 36.0264C18.3374 36.3465 18.1648 36.4022 17.8762 36.521C15.913 37.3291 13.9511 38.1404 11.9971 38.9709C11.7098 39.0929 11.5406 39.0568 11.3261 38.8403C9.78335 37.2805 8.2288 35.7319 6.67424 34.1832C6.51682 34.0258 6.37382 33.8939 6.48336 33.6335C7.37346 31.5221 8.25438 29.408 9.17793 27.2015Z" fill="#689F4E"/>
<path d="M21.6823 36.2074C21.2047 36.1982 20.9227 36.0198 20.6708 35.768C17.033 32.1282 13.3926 28.4917 9.75808 24.8493C9.17692 24.2669 9.15265 23.5781 9.66166 23.0881C10.1536 22.6146 10.8181 22.6415 11.3782 23.2003C15.0364 26.8493 18.6879 30.5054 22.3408 34.1603C22.7239 34.5433 22.8754 34.9848 22.6425 35.5082C22.4372 35.97 22.062 36.174 21.6823 36.2074Z" fill="#689F4E"/>
<path d="M5.18031 35.6354C5.30034 35.7502 5.39414 35.8355 5.484 35.9247C6.85228 37.2917 8.21268 38.6672 9.59473 40.021C9.86563 40.286 9.83873 40.4277 9.58292 40.6763C8.55114 41.6805 7.53182 42.6985 6.52825 43.7309C6.27571 43.9907 6.13403 44.0018 5.87297 43.7355C4.51913 42.3541 3.14758 40.9898 1.77209 39.6301C1.55629 39.4169 1.45921 39.2857 1.73273 39.0207C2.79731 37.9889 3.83565 36.9296 4.8858 35.8827C4.97238 35.7961 5.07339 35.7246 5.18031 35.6354Z" fill="#689F4E"/>
<path d="M10.293 42.9196C10.4635 42.9058 10.5291 43.037 10.615 43.1229C12.0174 44.5194 13.4139 45.9224 14.8196 47.3163C15.0052 47.5006 15.0629 47.6292 14.8399 47.8345C14.4444 48.1985 14.0659 48.5816 13.6992 48.9745C13.5057 49.1818 13.3772 49.1706 13.1804 48.9719C11.7728 47.5498 10.3546 46.1382 8.9398 44.7234C8.81648 44.6001 8.67677 44.4938 8.87355 44.3049C9.30712 43.8871 9.72757 43.4555 10.1546 43.0304C10.1992 42.9865 10.2523 42.9517 10.293 42.9196Z" fill="#689F4E"/>
<path d="M17.1846 10.3454C18.989 10.3454 20.7063 10.3493 22.4228 10.3408C22.6701 10.3395 22.7869 10.409 22.7501 10.6655C22.7469 10.6865 22.7488 10.7088 22.7501 10.7297C22.8354 12.4142 22.8354 12.4142 21.1405 12.4142C20.3016 12.4142 19.462 12.4017 18.623 12.4207C18.3246 12.428 18.1573 12.3414 18.032 12.06C17.79 11.5136 17.5047 10.9862 17.1846 10.3454Z" fill="#96644D"/>
<path d="M2.02831 45.5131C1.03523 45.5242 0.291405 44.951 0.054614 44.0956C-0.15266 43.3485 0.259265 42.3141 0.883055 41.9435C1.0759 41.8287 1.15395 41.9383 1.25759 42.0412C2.00076 42.7831 2.74 43.5289 3.4871 44.2668C3.63928 44.417 3.66158 44.518 3.50022 44.6866C3.05616 45.1484 2.57339 45.5144 2.02831 45.5131Z" fill="#689F4E"/>
<path d="M36.2057 15.0805C36.2057 14.1111 35.9531 13.0452 36.2765 12.2003C36.6006 11.3542 37.6809 10.9416 38.4076 10.3126C39.6113 9.27028 40.2521 7.96236 40.3328 6.37566C40.3722 5.60428 40.7631 5.1635 41.3915 5.17662C42.0212 5.18908 42.4101 5.66069 42.4016 6.41567C42.3839 7.89545 42.0336 9.30636 41.5436 10.6943C41.1363 11.8487 41.5581 12.4109 42.7919 12.4135C43.3521 12.4148 43.9122 12.4024 44.4717 12.4161C45.6373 12.445 46.5143 13.3003 46.5386 14.4594C46.5609 15.5141 46.5602 16.5701 46.5379 17.6255C46.5163 18.6501 45.7705 19.5802 44.7761 19.6163C42.9283 19.6832 41.0733 19.7573 39.2276 19.5618C38.8058 19.5172 38.3814 19.3926 37.9839 19.2398C36.3336 18.6055 36.1991 18.3943 36.1991 16.6318C36.1991 16.1149 36.1991 15.5981 36.1991 15.0812C36.2017 15.0805 36.2037 15.0805 36.2057 15.0805Z" fill="#689F4E"/>
<path d="M29.9923 15.4531C29.9923 14.2468 30.0067 13.0399 29.9837 11.8336C29.9765 11.4683 30.0795 11.3633 30.4455 11.3712C31.5226 11.3955 32.6003 11.3955 33.6773 11.3712C34.044 11.3627 34.141 11.4689 34.1391 11.8336C34.1233 14.2894 34.1233 16.7459 34.1391 19.2017C34.1417 19.5664 34.044 19.672 33.6773 19.6641C32.6003 19.6399 31.5226 19.6399 30.4455 19.6641C30.0789 19.6727 29.9772 19.5671 29.9837 19.2017C30.006 17.9522 29.9923 16.7026 29.9923 15.4531Z" fill="#689F4E"/>
</g>
<defs>
<clipPath id="clip0_160_545">
<rect width="51.7189" height="60" fill="white"/>
</clipPath>
</defs>
</svg>
