<svg width="48" height="45" viewBox="0 0 48 45" fill="none" xmlns="http://www.w3.org/2000/svg">
<g clip-path="url(#clip0_160_1875)">
<path d="M23.6851 23.6962C17.8092 23.6962 11.9332 23.6913 6.05731 23.7058C5.60954 23.7068 5.44395 23.6381 5.46061 23.145C5.58994 19.3286 6.78531 15.8709 9.12804 12.8474C12.3026 8.74869 16.5266 6.40006 21.7304 5.79381C22.0047 5.7619 22.284 5.7532 22.5554 5.70389C22.7641 5.66618 23.0972 5.85086 23.1609 5.58012C23.2432 5.22913 23.1962 4.84334 23.1658 4.47591C23.154 4.33474 22.9542 4.35505 22.8385 4.30477C21.8989 3.9006 21.4002 3.08549 21.4531 2.02769C21.4942 1.19518 22.1213 0.396517 22.9522 0.120947C23.8713 -0.183629 24.8344 0.09194 25.4664 0.841295C26.3894 1.93584 25.9612 3.67338 24.6296 4.25836C24.465 4.33087 24.2024 4.31444 24.1936 4.5755C24.1828 4.92842 24.1877 5.28231 24.2191 5.6333C24.2279 5.73096 24.3847 5.70002 24.4788 5.70389C27.1409 5.81025 29.6718 6.44357 32.0262 7.66381C36.2424 9.84903 39.1965 13.1549 40.8573 17.5688C41.5324 19.3634 41.8371 21.2296 41.9429 23.1344C41.9655 23.5356 41.9057 23.7097 41.4128 23.7078C35.5016 23.6894 29.5934 23.6962 23.6851 23.6962ZM17.5035 8.75836C16.6559 9.07163 15.9113 9.52898 15.1882 10.0163C12.7563 11.6552 10.9054 13.8076 9.51899 16.3573C8.85467 17.5785 8.36085 18.8684 7.9601 20.1959C7.84645 20.573 7.90524 20.748 8.34615 20.7616C8.78413 20.7751 9.22896 20.8148 9.65322 20.9173C10.15 21.0381 10.2284 20.8186 10.2823 20.4038C10.6379 17.6752 11.6373 15.1873 13.2129 12.9209C14.3593 11.2704 15.8162 9.92832 17.5035 8.75836Z" fill="#96644D"/>
<path d="M0 25.2443C0.237114 25.136 0.435036 25.1804 0.62512 25.1804C16.26 25.1775 31.8948 25.1775 47.5297 25.1814C47.6825 25.1814 47.904 25.0867 47.9794 25.2452C48.0666 25.428 47.856 25.5546 47.7423 25.6794C46.9879 26.5041 45.9747 26.655 44.9322 26.6792C43.8231 26.7043 42.7129 26.6966 41.6028 26.6782C41.3 26.6734 41.1854 26.7584 41.1256 27.0601C40.9983 27.7089 40.7719 28.3268 40.3751 28.8769C40.0106 29.3836 39.5344 29.6717 38.9034 29.6998C38.6261 29.7114 38.3489 29.7162 38.0716 29.7162C28.5409 29.7172 19.0093 29.7172 9.4787 29.7172C7.43089 29.7172 6.746 29.1999 6.30019 27.2216C6.20221 26.7874 6.04544 26.6646 5.60452 26.6724C4.54535 26.6917 3.48127 26.7584 2.42699 26.6318C1.4462 26.5138 0.556533 26.1976 0 25.2443Z" fill="#96644D"/>
<path d="M22.6159 30.8569C23.7584 30.8569 24.9009 30.8559 26.0433 30.8569C26.7968 30.8578 27.2113 31.1711 27.3004 31.7996C27.3739 32.3198 27.0075 32.7569 26.3324 32.9425C25.0145 33.3061 23.6967 33.6658 22.3788 34.0274C22.2691 34.0573 22.1593 34.0893 22.0506 34.1241C21.6724 34.2459 21.4852 34.4992 21.547 34.8918C21.6097 35.2921 21.8948 35.4536 22.2759 35.4603C23.2215 35.4777 24.1738 35.4246 25.1125 35.5116C27.6159 35.7427 29.8989 35.0697 32.1358 34.0506C33.6868 33.3438 35.2869 32.7423 36.8673 32.0974C37.5385 31.8238 38.1175 31.9814 38.3987 32.4997C38.6956 33.0469 38.5389 33.5758 37.9314 33.9858C35.3192 35.7456 32.7002 37.4957 30.089 39.2564C29.1209 39.9091 28.0558 40.2668 26.8899 40.3123C24.9048 40.3906 22.9187 40.4225 20.9346 40.5202C19.1141 40.6101 17.2867 40.5792 15.4731 40.7745C14.8774 40.8383 14.2934 41.0181 13.7094 41.1651C13.4126 41.2396 13.2627 41.2396 13.1813 40.8634C12.6591 38.4578 12.1065 36.0589 11.5499 33.6609C11.4804 33.3592 11.5205 33.2219 11.8449 33.1098C13.5654 32.5103 15.2713 31.8712 16.9899 31.2668C17.7757 30.9903 18.5948 30.8559 19.4335 30.8569C20.4946 30.8578 21.5558 30.8578 22.6159 30.8569Z" fill="#96644D"/>
<path d="M3.6036 39.0518C3.6036 37.2011 3.60752 35.3504 3.5987 33.4998C3.59772 33.2136 3.60164 33.0511 3.98769 33.0241C5.56029 32.9119 7.12994 32.7601 8.69764 32.5957C8.98081 32.5657 9.02392 32.6914 9.07193 32.8906C9.63042 35.187 10.1919 37.4825 10.7523 39.7779C10.9806 40.7149 11.2011 41.6537 11.4362 42.5897C11.4979 42.8363 11.5077 42.9948 11.1922 43.0761C8.76623 43.6987 6.34316 44.3301 3.924 44.9751C3.55461 45.0737 3.60262 44.8648 3.60262 44.6531C3.6036 42.786 3.6036 40.9189 3.6036 39.0518Z" fill="white"/>
</g>
<defs>
<clipPath id="clip0_160_1875">
<rect width="48" height="45" fill="white"/>
</clipPath>
</defs>
</svg>
