<svg width="585" height="66" viewBox="0 0 585 66" fill="none" xmlns="http://www.w3.org/2000/svg">
<g clip-path="url(#clip0_160_301)">
<path d="M13.4062 14.5203C17.5567 12.4282 22.1046 11.0892 26.7476 10.6528C31.1616 10.2378 36.6424 10.426 39.6182 14.2294C40.1149 14.8668 40.076 15.5813 39.2295 15.8979C38.4002 16.2059 37.2427 15.9535 36.6381 15.3075C35.9427 14.5631 35.5151 14.332 34.6168 13.9855C34.5995 13.9812 34.5866 13.9727 34.5693 13.9684C34.5563 13.9684 34.5304 13.9598 34.4915 13.947C34.362 13.9128 34.2367 13.8743 34.1072 13.84C33.8826 13.7759 33.6537 13.7245 33.4204 13.6775C33.3384 13.6604 32.7467 13.5705 32.8806 13.5791C32.6819 13.5577 32.4832 13.5363 32.2845 13.5192C31.736 13.4764 31.1918 13.4507 30.639 13.455C30.4317 13.455 30.2244 13.4593 30.0214 13.4636C30.0559 13.4636 29.4772 13.4978 29.3994 13.5021C27.1838 13.6604 24.8731 14.0625 22.908 14.6058C18.481 15.8294 14.4082 17.8616 10.7932 20.6809C9.03967 22.0499 7.35958 23.573 6.05524 25.3741C5.43762 26.2298 4.8416 27.1752 4.57382 28.202C4.52199 28.3945 4.47448 28.5999 4.48744 28.7838C4.54359 28.7753 4.68612 28.7667 4.69907 28.7625C9.93802 28.0138 15.0906 26.6747 20.3598 26.1142C25.6246 25.5538 31.3905 25.7634 36.068 28.4929C38.072 29.6609 39.7219 31.4449 40.5381 33.6097C41.3501 35.7744 41.4106 38.1103 40.9787 40.3692C40.1408 44.763 37.5364 48.7802 34.3101 51.8349C30.7902 55.1676 25.8319 57.8928 20.8176 57.465C18.2478 57.2468 15.7471 56.3141 13.8251 54.5815C12.0241 52.9557 11.1171 50.5856 11.0437 48.2069C10.8752 43.0217 13.4019 38.2943 15.7946 33.8492C16.2826 32.9465 17.9195 33.2032 18.6494 33.4899C19.4873 33.8193 20.2216 34.6407 19.7465 35.5263C19.1634 36.6173 18.5803 37.7125 18.0318 38.8205C16.965 40.9768 16.0624 43.2442 15.6218 45.6143C15.2158 47.7877 15.1424 50.2605 16.3733 52.1985C16.5893 52.5365 16.9089 52.8959 17.289 53.2338C17.2976 53.2424 17.3062 53.2509 17.3149 53.2552C17.4142 53.3322 17.5135 53.405 17.6172 53.4734C17.7295 53.5504 17.8461 53.6232 17.9584 53.6959C17.9627 53.7002 18.0016 53.7215 18.0405 53.7472C18.1182 53.7857 18.3385 53.897 18.3687 53.9141C18.494 53.9697 18.6192 54.0253 18.7488 54.0766C18.8438 54.1151 18.9388 54.1451 19.0338 54.1836C19.0382 54.1836 19.0425 54.1836 19.0511 54.1879C19.2843 54.2349 19.5176 54.3077 19.7551 54.3547C19.8501 54.3718 19.9451 54.389 20.0402 54.4061C20.0747 54.4061 20.1179 54.4103 20.1741 54.4146C22.191 54.5259 24.2598 53.9526 26.2379 52.8531C30.0257 50.7482 33.0706 47.531 35.0141 43.6891C36.7288 40.3008 37.7697 35.4407 35.2862 32.1893C34.7334 31.4663 34.1676 31.0684 33.3168 30.5165C33.2693 30.4866 33.239 30.4652 33.2174 30.4523C33.2088 30.4481 33.1915 30.4395 33.1656 30.4267C33.0404 30.3625 32.9108 30.2983 32.7812 30.2384C32.5523 30.1315 32.3234 30.0331 32.0902 29.9432C31.857 29.8491 31.6237 29.7678 31.3905 29.6865C31.3775 29.6823 31.3646 29.6823 31.3473 29.678C31.2437 29.6523 31.14 29.6181 31.0363 29.5882C28.838 28.9892 26.4625 28.8309 24.2166 28.9464C18.9518 29.2159 13.8338 30.5978 8.65096 31.4406C5.8868 31.8898 2.32362 32.3861 0.483728 29.7165C-0.298011 28.5828 -0.021595 27.2779 0.505323 26.11C0.99337 25.0233 1.59371 24.0179 2.33658 23.0853C5.23031 19.4445 9.26858 16.6038 13.4062 14.5203Z" fill="#3D3D3D"/>
<path d="M46.71 28.3475C46.0924 26.9314 46.2004 25.25 46.1356 23.7313C46.0924 22.6959 47.1333 22.328 48.0359 22.3708C48.5845 22.3965 49.2021 22.5804 49.6642 22.8885C49.9493 23.081 50.4589 23.543 50.4589 23.9452C50.4589 24.7195 50.4675 25.4982 50.4503 26.2725C50.433 27.0127 50.4805 27.8426 50.1782 28.5314C49.6426 29.755 47.224 29.5368 46.71 28.3475ZM50.9254 45.3405C50.9124 46.7866 51.1327 48.5064 50.3855 49.8027C50.1004 50.3033 49.2669 50.3289 48.7831 50.2647C48.1828 50.1877 47.522 49.8925 47.2024 49.3492C46.4163 48.0101 46.4725 46.2218 46.3904 44.7159C46.3127 43.2827 46.2867 41.8409 46.2608 40.4035C46.209 37.413 46.1356 34.3584 46.3904 31.3764C46.4725 30.3924 48.0273 30.2812 48.7227 30.3796C49.4785 30.4866 50.9729 31.0385 50.9988 32.0182C51.0765 34.9744 50.934 37.9478 50.921 40.904C50.9124 42.3843 50.9383 43.8645 50.9254 45.3405Z" fill="#3D3D3D"/>
<path d="M82.7005 48.8615C81.6941 48.8444 80.2991 48.2412 80.0831 47.1588C79.5001 44.2795 79.4742 41.3404 79.3748 38.4141C79.323 36.9766 79.2539 35.5349 79.0898 34.1059C79.0811 34.0375 79.0725 33.9648 79.0639 33.892C78.7831 34.2685 78.524 34.6621 78.2735 35.0643C77.6472 36.0782 77.0771 37.1264 76.5545 38.2002C75.4964 40.3778 74.6887 42.6795 74.0495 45.0111C73.7299 46.1748 73.5485 47.3812 73.1943 48.5321C72.9741 49.2423 72.6631 49.8284 71.9202 50.1065C70.9225 50.4787 69.6571 50.1963 68.8062 49.6273C67.5278 48.7759 67.558 47.0176 67.3853 45.6528C67.2168 44.3223 67.0657 42.9875 66.9404 41.6484C66.7029 39.1243 66.6726 36.583 66.3185 34.0674C66.2753 33.7466 66.2235 33.4214 66.163 33.1006C65.7829 33.5968 65.4504 34.1188 65.1394 34.6878C64.0078 36.7499 63.2304 38.9831 62.6257 41.2463C62.0081 43.5608 61.451 45.8924 61.0061 48.2497C60.9716 48.4337 60.8765 48.5791 60.7513 48.6904C60.3583 49.8241 58.3499 49.4048 57.6157 48.7203C56.5014 47.6764 56.3373 45.7897 56.13 44.3608C55.914 42.8634 55.7672 41.3575 55.6894 39.8473C55.5339 36.7456 55.5685 33.6097 55.9572 30.5251C56.0954 29.4213 57.8403 29.4213 58.6004 29.571C59.5808 29.7678 60.6433 30.4951 60.5526 31.5775C60.4446 32.938 60.3496 34.3027 60.2935 35.6632C60.8636 34.2257 61.5589 32.8396 62.4443 31.6032C63.3038 30.401 64.4829 29.3229 66.0593 29.3571C67.7092 29.3913 69.2468 30.3411 69.8817 31.8684C70.8189 34.1316 71.0176 36.6258 71.2508 39.0558C72.201 36.737 73.3239 34.4054 74.788 32.369C75.5525 31.308 76.5459 30.2598 77.8157 29.8149C79.4871 29.233 81.543 29.8063 82.5925 31.2267C83.3569 32.262 83.4908 33.6182 83.6463 34.8503C83.8234 36.2408 83.9141 37.6397 83.9962 39.0387C84.1603 41.8324 84.2726 44.6261 84.7433 47.3898C84.9507 48.5278 83.5556 48.8743 82.7005 48.8615ZM80.3596 32.5872C80.3682 32.5872 80.3768 32.5829 80.3898 32.5829C80.4071 32.6 80.5453 32.3861 80.3596 32.5872Z" fill="#3D3D3D"/>
<path d="M109.405 37.9221C109.34 40.2965 108.433 42.6838 106.843 44.4806C106.027 45.4047 105.086 46.2218 103.919 46.6753C102.46 47.2401 100.637 47.1117 99.3413 46.2047C98.6718 45.7384 98.2356 45.1523 97.9765 44.5063C97.6439 46.6069 97.4064 48.7246 97.1732 50.8166C96.914 53.1526 96.7024 55.4927 96.5339 57.8372C96.3698 60.1432 96.1409 62.4833 96.1539 64.7936C96.1582 65.2128 95.9552 65.4952 95.6572 65.662C95.3289 65.9359 94.7632 66.0171 94.4004 66.0043C93.6618 65.9701 93.014 65.6364 92.5777 65.0503C91.7787 63.985 91.4807 62.3892 91.2043 61.11C90.9408 59.895 90.7594 58.6501 90.6126 57.4137C90.0468 52.6905 89.7315 47.9374 89.6019 43.1843C89.4724 38.397 89.4205 33.5327 89.8913 28.7625C89.9907 27.7742 91.5282 27.6587 92.2452 27.7571C92.7635 27.8298 93.2429 27.9967 93.6834 28.2705C93.9857 28.4587 94.5472 28.9892 94.5429 29.4042C94.4954 32.0995 94.3442 34.7905 94.3097 37.4857C94.2924 38.9446 94.2924 40.4035 94.3053 41.8581C94.5688 40.412 94.8754 38.9703 95.2685 37.5585C95.9379 35.1327 96.9226 32.5658 98.823 30.8246C101.03 28.801 104.675 28.771 106.874 30.8331C108.731 32.5786 109.474 35.4621 109.405 37.9221ZM104.3 34.3199C104.438 34.2557 104.589 34.2129 104.749 34.1872C104.705 34.0461 104.658 33.9091 104.606 33.7765C104.451 33.3658 104.252 32.9637 104.027 32.5872C103.945 32.446 103.803 32.2021 103.66 32.0567C103.729 32.0353 103.842 31.9326 103.639 32.031C103.574 31.9668 103.509 31.9283 103.453 31.9369C103.457 31.9369 103.617 32.0524 103.621 32.0267C103.621 32.031 103.621 32.031 103.621 32.0353C103.544 32.0695 103.539 32.0096 103.38 32.0567C103.047 32.1551 102.71 32.3348 102.403 32.5658C100.9 33.7081 100.106 35.8001 99.5572 37.5242C99.4709 37.7895 99.3931 38.059 99.3111 38.3285C100.568 36.5873 102.352 35.2226 104.3 34.3199ZM105.064 38.1018C104.084 38.8975 103.241 39.8473 102.615 40.9853C102.179 41.7768 101.898 42.7265 101.985 43.6335C103.738 42.3415 104.775 40.2666 105.064 38.1018ZM102.205 44.4293C102.209 44.425 102.2 44.4207 102.192 44.4164C102.196 44.425 102.2 44.4336 102.205 44.4293Z" fill="#3D3D3D"/>
<path d="M119.118 22.3751C118.349 25.0789 117.654 27.7956 116.773 30.4652C117.058 34.4268 117.364 38.4013 118.051 42.3158C118.358 44.0528 118.686 45.8411 119.308 47.501C119.528 48.0872 119.917 48.9128 120.306 49.5375C120.509 49.8669 120.612 50.0038 120.725 50.1364C120.859 50.2904 120.988 50.4444 121.135 50.5942C121.144 50.6027 121.632 51.052 121.329 50.8038C122.029 51.3814 122.664 52.3354 121.683 53.037C120.781 53.6831 119.252 53.4649 118.388 52.8488C114.622 50.1492 113.667 45.456 113.011 41.165C112.29 36.4376 112.035 31.6246 111.802 26.8501C111.594 22.5462 111.555 18.1995 111.923 13.9042C112.164 11.0507 112.57 8.16286 113.426 5.42052C114.134 3.15307 115.261 0.385064 117.965 0.0428067C120.267 -0.25239 122.159 1.21504 122.565 3.40976C122.914 5.30929 122.625 7.38422 122.34 9.27519C121.981 11.641 121.407 13.9769 120.807 16.2915C120.275 18.3236 119.697 20.3515 119.118 22.3751ZM118.461 4.65472C118.461 4.47931 118.461 4.30819 118.457 4.13278C118.457 4.1285 118.457 4.12422 118.457 4.11994C118.289 4.44081 118.129 4.84296 117.952 5.36063C117.542 6.54997 117.274 7.78637 117.058 9.0185C116.665 11.256 116.44 13.5149 116.337 15.7866C116.444 15.3802 116.552 14.9738 116.656 14.5631C117.209 12.394 117.706 10.2078 118.081 8.00456C118.241 7.06763 118.371 6.12643 118.436 5.18094C118.444 5.02693 118.453 4.87291 118.461 4.71889C118.461 4.6975 118.461 4.68039 118.466 4.66756C118.461 4.66328 118.461 4.659 118.461 4.65472ZM118.077 2.34021C118.086 2.34876 118.094 2.35304 118.103 2.3616C118.073 2.31026 118.047 2.2632 118.047 2.25892C118.034 2.27176 118.051 2.3017 118.077 2.34021ZM118.107 2.37016C118.099 2.3616 118.09 2.35304 118.077 2.34021C118.09 2.35732 118.107 2.37871 118.125 2.39582C118.12 2.39155 118.116 2.37871 118.107 2.37016Z" fill="#3D3D3D"/>
<path d="M139.789 41.9907C138.705 43.8132 137.569 45.6485 136.006 47.1074C134.459 48.5492 132.399 49.2979 130.287 49.3278C128.18 49.3535 125.938 48.5235 124.573 46.8892C123.424 45.5159 122.928 43.7961 122.824 42.0377C122.599 38.2472 123.476 33.9819 125.877 30.9358C127.229 29.2202 129.156 27.9154 131.427 28.0223C133.643 28.125 135.863 29.4298 136.481 31.6246C136.969 33.3615 136.001 35.0899 134.658 36.1509C133.012 37.4472 130.788 37.6953 128.763 37.7724C128.551 37.7809 128.322 37.751 128.093 37.6868C127.588 39.659 127.406 41.7597 127.73 43.7191C127.83 44.3351 127.968 44.8442 128.218 45.3362C128.296 45.4817 128.374 45.6272 128.465 45.7641C128.473 45.7769 128.551 45.871 128.577 45.9052C128.629 45.9651 128.685 46.0208 128.741 46.0764C128.767 46.0978 128.866 46.1833 128.892 46.2004C128.97 46.2518 129.341 46.4443 129.173 46.3758C129.22 46.3972 129.268 46.4186 129.32 46.44C129.341 46.44 129.553 46.4999 129.622 46.517C129.657 46.5256 129.678 46.5299 129.691 46.5341C129.717 46.5341 129.752 46.5341 129.786 46.5341C130.119 46.5384 130.119 46.5598 130.33 46.5127C130.559 46.4614 130.758 46.4272 131.034 46.3288C133.682 45.3876 135.219 42.9019 136.615 40.6516C137.388 39.4195 140.653 40.5404 139.789 41.9907ZM129.026 34.9573C129.981 34.8289 130.922 34.5723 131.626 33.8877C132.412 33.1219 132.784 31.8641 132.101 31.0342C132.058 31.0513 132.01 31.0727 131.967 31.0898C131.691 31.2823 131.211 31.6545 130.909 32.001C130.127 32.8909 129.501 33.8877 129.026 34.9573ZM132.019 30.9572C132.028 30.9614 132.032 30.9614 132.041 30.9614C132.041 30.9614 132.041 30.9572 132.036 30.9572C132.028 30.9572 132.023 30.9572 132.019 30.9572ZM132.08 30.9657C132.084 30.97 132.088 30.9743 132.093 30.9786C132.105 30.9828 132.123 30.9828 132.136 30.9871C132.123 30.9786 132.101 30.97 132.08 30.9657ZM132.166 31.0042C132.153 31.0042 132.14 31.0085 132.131 31.0085C132.136 31.0085 132.136 31.0128 132.14 31.0171C132.149 31.0171 132.157 31.0171 132.166 31.0171C132.162 31.0213 132.153 31.0213 132.149 31.0256C132.201 31.0556 132.205 31.0299 132.166 31.0042Z" fill="#3D3D3D"/>
<path d="M149.217 46.4272C148.461 47.8133 147.684 49.1824 146.902 50.5557C146.522 51.2274 146.142 52.113 145.52 52.5964C144.717 53.221 143.494 53.0242 142.7 52.5151C142.259 52.2327 141.914 51.7236 142.13 51.2102C142.155 51.1546 142.186 51.1033 142.22 51.052C142.229 51.022 142.242 50.9878 142.255 50.9493C142.298 50.7824 142.358 50.6241 142.428 50.4658C142.518 50.2263 142.618 49.9867 142.721 49.7514C142.976 49.161 143.261 48.5791 143.538 47.993C144.06 46.8893 144.63 45.8026 145.226 44.7373C145.732 43.8346 147.36 44.0785 148.107 44.3737C148.945 44.7031 149.701 45.5373 149.217 46.4272Z" fill="#3D3D3D"/>
<path d="M181.601 41.9907C180.517 43.8132 179.381 45.6485 177.818 47.1074C176.271 48.5492 174.211 49.2979 172.099 49.3278C169.992 49.3535 167.75 48.5235 166.385 46.8892C165.236 45.5159 164.74 43.7961 164.636 42.0377C164.411 38.2472 165.288 33.9819 167.69 30.9358C169.041 29.2202 170.968 27.9154 173.239 28.0223C175.455 28.125 177.675 29.4298 178.293 31.6246C178.781 33.3615 177.813 35.0899 176.47 36.1509C174.824 37.4472 172.6 37.6953 170.575 37.7724C170.363 37.7809 170.134 37.751 169.905 37.6868C169.4 39.659 169.218 41.7597 169.542 43.7191C169.642 44.3351 169.78 44.8442 170.03 45.3362C170.108 45.4817 170.186 45.6272 170.277 45.7641C170.285 45.7769 170.363 45.871 170.389 45.9052C170.441 45.9651 170.497 46.0208 170.553 46.0764C170.579 46.0978 170.678 46.1833 170.704 46.2004C170.782 46.2518 171.153 46.4443 170.985 46.3758C171.032 46.3972 171.08 46.4186 171.132 46.44C171.153 46.44 171.365 46.4999 171.434 46.517C171.469 46.5256 171.49 46.5299 171.503 46.5341C171.529 46.5341 171.564 46.5341 171.598 46.5341C171.931 46.5384 171.931 46.5598 172.142 46.5127C172.371 46.4614 172.57 46.4272 172.846 46.3288C175.494 45.3876 177.031 42.9019 178.427 40.6516C179.2 39.4195 182.465 40.5404 181.601 41.9907ZM170.838 34.9573C171.793 34.8289 172.734 34.5723 173.438 33.8877C174.224 33.1219 174.596 31.8641 173.913 31.0342C173.87 31.0513 173.822 31.0727 173.779 31.0898C173.503 31.2823 173.023 31.6545 172.721 32.001C171.939 32.8909 171.313 33.8877 170.838 34.9573ZM173.831 30.9572C173.84 30.9614 173.844 30.9614 173.853 30.9614C173.853 30.9614 173.853 30.9572 173.848 30.9572C173.84 30.9572 173.835 30.9572 173.831 30.9572ZM173.892 30.9657C173.896 30.97 173.9 30.9743 173.905 30.9786C173.917 30.9828 173.935 30.9828 173.948 30.9871C173.935 30.9786 173.913 30.97 173.892 30.9657ZM173.978 31.0042C173.965 31.0042 173.952 31.0085 173.943 31.0085C173.948 31.0085 173.948 31.0128 173.952 31.0171C173.961 31.0171 173.969 31.0171 173.978 31.0171C173.974 31.0213 173.965 31.0213 173.961 31.0256C174.013 31.0556 174.017 31.0299 173.978 31.0042Z" fill="#3D3D3D"/>
<path d="M196.618 33.3016C196.787 34.3284 195.551 34.6065 194.778 34.6193C193.906 34.6322 192.636 34.7904 191.651 35.0685C191.327 35.1584 191.008 35.2611 190.693 35.3723C190.731 37.1777 190.813 38.9831 190.883 40.7842C190.965 42.7779 191.068 44.7672 191.237 46.7566C191.323 47.7834 191.444 48.8059 191.556 49.8326C191.66 50.761 191.837 51.6723 191.815 52.6049C191.777 54.3162 188.965 53.8713 188.347 52.7461C187.086 50.4487 186.741 47.5481 186.482 44.9812C186.227 42.4613 186.123 39.9371 186.019 37.4087C186.006 37.1092 185.993 36.8055 185.985 36.506C185.652 36.3691 185.35 36.1809 185.112 35.9327C184.668 35.4664 184.495 34.6279 185.164 34.2428C185.406 34.1059 185.648 33.9733 185.894 33.845C185.812 30.4138 185.89 26.957 186.585 23.6072C187.008 21.575 187.699 19.2563 189.004 17.5963C190.528 15.6497 193.059 14.901 195.379 15.9535C200.263 18.1739 198.108 24.035 196.186 27.5603C195.374 29.0491 194.45 30.478 193.414 31.8256C193.699 31.8085 193.988 31.7957 194.273 31.7914C195.132 31.7658 196.467 32.3604 196.618 33.3016ZM192.878 24.9377C193.621 23.419 194.385 21.498 194.213 19.7825C194.174 19.3803 194.096 19.0038 193.889 18.653C193.858 18.6744 193.845 18.683 193.837 18.6873C193.832 18.7001 193.802 18.7343 193.716 18.8284C192.632 20.0221 192.126 21.7291 191.716 23.2436C191.254 24.9463 190.995 26.6918 190.852 28.4459C191.604 27.3207 192.286 26.1485 192.878 24.9377Z" fill="#3D3D3D"/>
<path d="M210.175 33.3016C210.344 34.3284 209.109 34.6065 208.335 34.6193C207.463 34.6322 206.193 34.7904 205.209 35.0685C204.885 35.1584 204.565 35.2611 204.25 35.3723C204.289 37.1777 204.371 38.9831 204.44 40.7842C204.522 42.7779 204.625 44.7672 204.794 46.7566C204.88 47.7834 205.001 48.8059 205.113 49.8326C205.217 50.761 205.394 51.6723 205.373 52.6049C205.334 54.3162 202.522 53.8713 201.904 52.7461C200.643 50.4487 200.298 47.5481 200.039 44.9812C199.784 42.4613 199.68 39.9371 199.577 37.4087C199.564 37.1092 199.551 36.8055 199.542 36.506C199.209 36.3691 198.907 36.1809 198.67 35.9327C198.225 35.4664 198.052 34.6279 198.721 34.2428C198.963 34.1059 199.205 33.9733 199.451 33.845C199.369 30.4138 199.447 26.957 200.142 23.6072C200.566 21.575 201.257 19.2563 202.561 17.5963C204.086 15.6497 206.617 14.901 208.936 15.9535C213.821 18.1739 211.665 24.035 209.743 27.5603C208.931 29.0491 208.007 30.478 206.971 31.8256C207.256 31.8085 207.545 31.7957 207.83 31.7914C208.685 31.7658 210.02 32.3604 210.175 33.3016ZM206.435 24.9377C207.178 23.419 207.942 21.498 207.77 19.7825C207.731 19.3803 207.653 19.0038 207.446 18.653C207.416 18.6744 207.403 18.683 207.394 18.6873C207.39 18.7001 207.359 18.7343 207.273 18.8284C206.189 20.0221 205.684 21.7291 205.273 23.2436C204.811 24.9463 204.552 26.6918 204.409 28.4459C205.157 27.3207 205.839 26.1485 206.435 24.9377Z" fill="#3D3D3D"/>
<path d="M212.97 28.3475C212.352 26.9314 212.46 25.25 212.395 23.7313C212.352 22.6959 213.393 22.328 214.296 22.3708C214.844 22.3965 215.462 22.5804 215.924 22.8885C216.209 23.081 216.719 23.543 216.719 23.9452C216.719 24.7195 216.727 25.4982 216.71 26.2725C216.693 27.0127 216.74 27.8426 216.438 28.5314C215.907 29.755 213.488 29.5368 212.97 28.3475ZM217.189 45.3405C217.176 46.7866 217.397 48.5064 216.65 49.8027C216.365 50.3033 215.531 50.3289 215.047 50.2647C214.447 50.1877 213.786 49.8925 213.466 49.3492C212.68 48.0101 212.737 46.2218 212.654 44.7159C212.577 43.2827 212.551 41.8409 212.525 40.4035C212.473 37.413 212.4 34.3584 212.654 31.3764C212.737 30.3924 214.291 30.2812 214.987 30.3796C215.743 30.4866 217.237 31.0385 217.263 32.0182C217.341 34.9744 217.198 37.9478 217.185 40.904C217.176 42.3843 217.202 43.8645 217.189 45.3405Z" fill="#3D3D3D"/>
<path d="M237.904 42.3287C236.332 45.1694 234.042 48.301 230.713 49.1995C227.167 50.1578 223.383 48.6262 221.941 45.1993C220.744 42.3672 220.679 39.1029 221.509 36.1638C222.325 33.2802 224.022 30.0117 226.981 28.8309C228.493 28.2277 230.345 28.2876 231.814 28.9678C233.507 29.7464 234.228 31.1625 234.453 32.9251C234.569 33.8236 233.529 34.1359 232.812 34.1017C231.948 34.0632 230.972 33.6139 230.717 32.7412C230.57 32.2278 230.41 31.7101 230.104 31.2695C230.022 31.2909 229.948 31.3123 229.978 31.2994C229.905 31.3251 229.836 31.3508 229.767 31.385C229.771 31.3935 229.603 31.4962 229.598 31.5005C229.482 31.5775 229.365 31.6631 229.261 31.7529C228.855 32.1037 228.54 32.5572 228.251 33.0064C227.024 34.9231 226.203 37.028 225.88 39.2826C225.599 41.2548 225.746 43.6335 226.614 45.3534C226.886 45.8881 226.968 46.0165 227.37 46.4101C227.136 46.1833 227.542 46.4956 227.564 46.5427C227.577 46.547 227.59 46.5555 227.603 46.5598C227.685 46.5812 227.849 46.624 227.879 46.6283C227.897 46.6325 227.914 46.6368 227.927 46.6368C227.966 46.6368 228.022 46.6325 228.091 46.6325C228.069 46.6325 228.315 46.624 228.32 46.6283C228.441 46.6154 228.765 46.5641 228.933 46.5256C229.33 46.44 229.836 46.2561 230.242 46.0593C232.349 45.0282 233.632 42.9618 234.746 40.9981C235.459 39.7489 238.72 40.857 237.904 42.3287ZM229.996 31.1754C230.009 31.1796 230.03 31.1839 230.052 31.1882C229.961 31.0727 229.957 31.1326 229.996 31.1754ZM230.056 31.1882C230.039 31.1839 230.022 31.1796 230 31.1754C230.017 31.1967 230.043 31.2096 230.073 31.2096C230.065 31.201 230.06 31.1967 230.056 31.1882ZM230.073 31.1925C230.086 31.1968 230.099 31.1967 230.112 31.201C230.138 31.1925 230.121 31.1968 230.073 31.1925Z" fill="#3D3D3D"/>
<path d="M242.214 28.3475C241.596 26.9314 241.704 25.25 241.639 23.7313C241.596 22.6959 242.637 22.328 243.54 22.3708C244.088 22.3965 244.706 22.5804 245.168 22.8885C245.453 23.081 245.963 23.543 245.963 23.9452C245.963 24.7195 245.971 25.4982 245.954 26.2725C245.937 27.0127 245.984 27.8426 245.682 28.5314C245.151 29.755 242.732 29.5368 242.214 28.3475ZM246.434 45.3405C246.421 46.7866 246.641 48.5064 245.894 49.8027C245.609 50.3033 244.775 50.3289 244.291 50.2647C243.691 50.1877 243.03 49.8925 242.711 49.3492C241.925 48.0101 241.981 46.2218 241.899 44.7159C241.821 43.2827 241.795 41.8409 241.769 40.4035C241.717 37.413 241.644 34.3584 241.899 31.3764C241.981 30.3924 243.536 30.2812 244.231 30.3796C244.987 30.4866 246.481 31.0385 246.507 32.0182C246.585 34.9744 246.442 37.9478 246.429 40.904C246.421 42.3843 246.447 43.8645 246.434 45.3405Z" fill="#3D3D3D"/>
<path d="M267.199 41.9907C266.115 43.8132 264.979 45.6485 263.416 47.1074C261.87 48.5492 259.809 49.2979 257.697 49.3278C255.59 49.3535 253.348 48.5235 251.983 46.8892C250.834 45.5159 250.338 43.7961 250.234 42.0377C250.01 38.2472 250.886 33.9819 253.288 30.9358C254.639 29.2202 256.566 27.9154 258.838 28.0223C261.053 28.125 263.273 29.4298 263.891 31.6246C264.379 33.3615 263.411 35.0899 262.068 36.1509C260.423 37.4472 258.198 37.6953 256.173 37.7724C255.961 37.7809 255.732 37.751 255.503 37.6868C254.998 39.659 254.817 41.7597 255.14 43.7191C255.24 44.3351 255.378 44.8442 255.629 45.3362C255.706 45.4817 255.784 45.6272 255.875 45.7641C255.883 45.7769 255.961 45.871 255.987 45.9052C256.039 45.9651 256.095 46.0208 256.151 46.0764C256.177 46.0978 256.276 46.1833 256.302 46.2004C256.38 46.2518 256.751 46.4443 256.583 46.3758C256.631 46.3972 256.678 46.4186 256.73 46.44C256.751 46.44 256.963 46.4999 257.032 46.517C257.067 46.5256 257.088 46.5299 257.101 46.5341C257.127 46.5341 257.162 46.5341 257.196 46.5341C257.529 46.5384 257.529 46.5598 257.741 46.5127C257.969 46.4614 258.168 46.4272 258.445 46.3288C261.092 45.3876 262.63 42.9019 264.025 40.6516C264.793 39.4195 268.059 40.5404 267.199 41.9907ZM256.432 34.9573C257.386 34.8289 258.328 34.5723 259.032 33.8877C259.818 33.1219 260.189 31.8641 259.507 31.0342C259.464 31.0513 259.416 31.0727 259.373 31.0898C259.097 31.2823 258.617 31.6545 258.315 32.001C257.538 32.8909 256.907 33.8877 256.432 34.9573ZM259.425 30.9572C259.434 30.9614 259.438 30.9614 259.447 30.9614C259.447 30.9614 259.447 30.9572 259.442 30.9572C259.438 30.9572 259.434 30.9572 259.425 30.9572ZM259.485 30.9657C259.49 30.97 259.494 30.9743 259.498 30.9786C259.511 30.9828 259.529 30.9828 259.542 30.9871C259.529 30.9786 259.511 30.97 259.485 30.9657ZM259.576 31.0042C259.563 31.0042 259.55 31.0085 259.542 31.0085C259.546 31.0085 259.546 31.0128 259.55 31.0171C259.559 31.0171 259.567 31.0171 259.576 31.0171C259.572 31.0213 259.563 31.0213 259.559 31.0256C259.611 31.0556 259.611 31.0299 259.576 31.0042Z" fill="#3D3D3D"/>
<path d="M289.485 48.639C289.515 50.9578 285.006 50.3631 284.782 48.408C284.263 43.9201 284.419 39.3681 283.952 34.876C283.857 33.9434 283.715 33.015 283.499 32.1037C283.486 32.0395 283.469 31.9797 283.456 31.9155C283.292 32.1037 283.145 32.3091 283.002 32.5059C282.557 33.1348 282.199 33.815 281.858 34.5038C280.225 37.8451 279.12 41.473 278.234 45.071C278.031 45.8967 277.919 46.8593 277.331 47.5224C276.351 48.639 274.528 48.4636 273.332 47.8262C271.501 46.8464 271.229 44.1341 271.043 42.2773C270.672 38.5553 271.168 34.8204 271.06 31.0898C271.008 29.2587 273.98 29.9004 274.628 30.9443C275.375 32.1465 275.375 33.6353 275.427 35.0044C275.466 36.0268 275.487 37.0536 275.513 38.0761C275.634 37.7381 275.759 37.3959 275.889 37.0579C276.403 35.7188 276.977 34.4054 277.612 33.1177C278.174 31.9754 278.791 30.8331 279.694 29.9133C280.821 28.771 282.264 28.0908 283.905 28.3175C285.551 28.5485 286.872 29.524 287.477 31.0598C288.539 33.7637 288.626 36.7798 288.855 39.6334C289.109 42.6238 289.446 45.64 289.485 48.639Z" fill="#3D3D3D"/>
<path d="M304.352 51.1375C301.618 52.5536 297.834 51.9889 296.227 49.1781C295.182 47.347 295.031 44.9598 294.88 42.9105C294.699 40.4719 294.716 38.0205 294.811 35.5776C294.88 33.768 294.958 31.9583 295.057 30.1486C294.867 30.1443 294.673 30.14 294.483 30.1315C293.722 30.0973 292.738 29.7122 292.461 28.9421C292.189 28.1934 292.902 27.7271 293.567 27.6287C294.115 27.5474 294.664 27.5004 295.217 27.4662C295.273 26.5592 295.325 25.6522 295.381 24.7495C295.454 23.5473 295.42 22.2296 295.951 21.1344C296.266 20.4884 297.463 20.5141 298.037 20.6467C298.802 20.8221 299.432 21.2542 299.696 21.99C299.942 22.6746 299.864 23.4404 299.868 24.1591C299.873 24.8351 299.864 25.5067 299.851 26.1827C299.847 26.5249 299.842 26.8672 299.838 27.2095C300.184 27.2095 300.529 27.218 300.87 27.2522C301.665 27.3335 302.663 27.6587 302.961 28.4801C303.25 29.2844 302.494 29.6951 301.821 29.8406C301.164 29.9817 300.477 30.0202 299.791 30.0374C299.786 30.1486 299.786 30.2641 299.782 30.3753C299.713 32.9979 299.622 35.6204 299.609 38.2472C299.596 40.9511 299.734 43.6421 300.166 46.3117C300.244 46.7994 300.326 47.2828 300.46 47.762C300.555 48.1085 300.654 48.3652 300.888 48.7503C300.909 48.7503 300.927 48.746 300.944 48.7417C301.259 48.7032 301.57 48.639 301.885 48.6048C302.758 48.5021 303.79 48.7588 304.412 49.4091C304.844 49.8626 305.06 50.7696 304.352 51.1375ZM301.108 49.0241C301.125 48.9513 301.065 48.9 300.974 48.8658C301.039 48.9428 301.108 49.0326 301.108 49.0241Z" fill="#3D3D3D"/>
<path d="M313.793 46.4272C313.037 47.8133 312.259 49.1824 311.478 50.5557C311.098 51.2274 310.718 52.113 310.096 52.5964C309.292 53.221 308.07 53.0242 307.275 52.5151C306.835 52.2327 306.489 51.7236 306.705 51.2102C306.731 51.1546 306.761 51.1033 306.796 51.052C306.805 51.022 306.818 50.9878 306.83 50.9493C306.874 50.7824 306.934 50.6241 307.003 50.4658C307.094 50.2263 307.193 49.9867 307.297 49.7514C307.552 49.161 307.837 48.5791 308.113 47.993C308.636 46.8893 309.206 45.8026 309.802 44.7373C310.307 43.8346 311.936 44.0785 312.683 44.3737C313.521 44.7031 314.281 45.5373 313.793 46.4272Z" fill="#3D3D3D"/>
<path d="M345.917 48.0059C345.554 50.2904 344.915 52.5108 343.948 54.6157C342.903 56.8917 341.382 58.787 338.726 59.1549C337.677 59.3004 336.208 58.8811 335.673 57.8928C335.133 56.8917 336.07 56.1986 336.981 56.0361C336.554 56.1131 337.331 55.8863 337.214 55.9633C337.443 55.8478 337.668 55.6853 337.858 55.527C338.182 55.2532 338.527 54.7783 338.795 54.3419C339.383 53.3921 339.797 52.3397 340.16 51.2873C340.981 48.9086 341.43 46.4144 341.637 43.9159C341.84 41.4474 341.806 38.9532 341.646 36.4846C341.598 35.7445 341.533 35.0001 341.434 34.2642C341.209 35.1541 341.006 36.0483 340.791 36.9424C340.229 39.2655 339.538 41.5629 338.255 43.6121C337.512 44.7972 336.502 45.7769 335.042 45.9523C333.349 46.1577 331.539 45.4689 330.429 44.1854C328.766 42.2602 328.214 39.4067 327.98 36.9552C327.739 34.4354 327.678 31.8984 327.484 29.3743C327.315 27.2095 331.306 27.9453 331.742 29.5839C332.412 32.0995 332.386 34.7434 332.74 37.3061C332.917 38.581 333.137 39.873 333.574 41.088C333.673 41.3661 333.785 41.6399 333.915 41.9094C334.066 41.6955 334.208 41.4773 334.342 41.2506C334.852 40.3992 335.228 39.4965 335.552 38.5596C336.247 36.536 336.67 34.4397 337.284 32.3947C337.59 31.3765 337.944 30.3711 338.389 29.3999C338.64 28.848 338.864 28.2833 339.352 27.8897C339.94 27.4106 340.696 27.2694 341.443 27.3207C342.44 27.3892 343.416 27.8598 344.025 28.6512C344.375 29.109 344.552 29.6096 344.751 30.1443C345.187 31.3251 345.533 32.5187 345.762 33.7551C346.194 36.0611 346.34 38.4269 346.371 40.7671C346.397 43.1843 346.297 45.6143 345.917 48.0059ZM334.537 42.9362C334.563 42.9619 334.58 42.9832 334.593 42.9918C334.601 42.9961 334.606 43.0004 334.614 43.0046C334.636 43.0175 334.597 42.9619 334.537 42.9362Z" fill="#3D3D3D"/>
<path d="M366.8 41.9907C365.716 43.8132 364.58 45.6485 363.016 47.1074C361.47 48.5492 359.41 49.2979 357.298 49.3278C355.19 49.3535 352.949 48.5235 351.584 46.8892C350.435 45.5159 349.938 43.7961 349.835 42.0377C349.61 38.2472 350.487 33.9819 352.888 30.9358C354.24 29.2202 356.166 27.9154 358.438 28.0223C360.654 28.125 362.874 29.4298 363.491 31.6246C363.979 33.3615 363.012 35.0899 361.669 36.1509C360.023 37.4472 357.799 37.6953 355.773 37.7724C355.562 37.7809 355.333 37.751 355.104 37.6868C354.599 39.659 354.417 41.7597 354.741 43.7191C354.84 44.3351 354.979 44.8442 355.229 45.3362C355.307 45.4817 355.385 45.6272 355.475 45.7641C355.484 45.7769 355.562 45.871 355.588 45.9052C355.639 45.9651 355.696 46.0208 355.752 46.0764C355.778 46.0978 355.877 46.1833 355.903 46.2004C355.981 46.2518 356.352 46.4443 356.184 46.3758C356.231 46.3972 356.279 46.4186 356.33 46.44C356.352 46.44 356.564 46.4999 356.633 46.517C356.667 46.5256 356.689 46.5299 356.702 46.5341C356.728 46.5341 356.762 46.5341 356.797 46.5341C357.129 46.5384 357.129 46.5598 357.341 46.5127C357.57 46.4614 357.769 46.4272 358.045 46.3288C360.693 45.3876 362.23 42.9019 363.625 40.6516C364.394 39.4195 367.664 40.5404 366.8 41.9907ZM356.037 34.9573C356.991 34.8289 357.933 34.5723 358.637 33.8877C359.423 33.1219 359.794 31.8641 359.112 31.0342C359.069 31.0513 359.021 31.0727 358.978 31.0898C358.702 31.2823 358.222 31.6545 357.92 32.001C357.138 32.8909 356.512 33.8877 356.037 34.9573ZM359.03 30.9572C359.039 30.9614 359.043 30.9614 359.051 30.9614C359.051 30.9614 359.051 30.9572 359.047 30.9572C359.038 30.9572 359.034 30.9572 359.03 30.9572ZM359.086 30.9657C359.09 30.97 359.095 30.9743 359.099 30.9786C359.112 30.9828 359.129 30.9828 359.142 30.9871C359.129 30.9786 359.112 30.97 359.086 30.9657ZM359.177 31.0042C359.164 31.0042 359.151 31.0085 359.142 31.0085C359.146 31.0085 359.146 31.0128 359.151 31.0171C359.159 31.0171 359.168 31.0171 359.177 31.0171C359.172 31.0213 359.164 31.0213 359.159 31.0256C359.211 31.0556 359.216 31.0299 359.177 31.0042Z" fill="#3D3D3D"/>
<path d="M380.828 51.1375C378.094 52.5536 374.311 51.9889 372.704 49.1781C371.659 47.347 371.508 44.9598 371.357 42.9105C371.175 40.4719 371.192 38.0205 371.287 35.5776C371.357 33.768 371.434 31.9583 371.534 30.1486C371.344 30.1443 371.149 30.14 370.959 30.1315C370.199 30.0973 369.214 29.7122 368.938 28.9421C368.666 28.1934 369.378 27.7271 370.044 27.6287C370.592 27.5474 371.141 27.5004 371.693 27.4662C371.75 26.5592 371.801 25.6522 371.858 24.7495C371.931 23.5473 371.896 22.2296 372.428 21.1344C372.743 20.4884 373.939 20.5141 374.514 20.6467C375.278 20.8221 375.909 21.2542 376.172 21.99C376.418 22.6746 376.341 23.4404 376.345 24.1591C376.349 24.8351 376.341 25.5067 376.328 26.1827C376.323 26.5249 376.319 26.8672 376.315 27.2095C376.66 27.2095 377.006 27.218 377.347 27.2522C378.142 27.3335 379.139 27.6587 379.437 28.4801C379.727 29.2844 378.971 29.6951 378.297 29.8406C377.641 29.9817 376.954 30.0202 376.267 30.0374C376.263 30.1486 376.263 30.2641 376.259 30.3753C376.189 32.9979 376.099 35.6204 376.086 38.2472C376.073 40.9511 376.211 43.6421 376.643 46.3117C376.721 46.7994 376.803 47.2828 376.937 47.762C377.032 48.1085 377.131 48.3652 377.364 48.7503C377.382 48.7503 377.403 48.746 377.42 48.7417C377.736 48.7032 378.047 48.639 378.362 48.6048C379.234 48.5021 380.267 48.7588 380.889 49.4091C381.32 49.8626 381.536 50.7696 380.828 51.1375ZM377.589 49.0241C377.606 48.9513 377.546 48.9 377.455 48.8658C377.515 48.9428 377.585 49.0326 377.589 49.0241Z" fill="#3D3D3D"/>
<path d="M406.928 46.2047C406.638 43.518 406.807 40.7971 406.88 38.1018C406.91 37.075 406.928 36.044 406.915 35.0172C406.703 35.4365 406.496 35.8557 406.297 36.2793C405.511 37.935 404.807 39.6291 404.025 41.2848C402.643 44.2154 400.544 48.8273 396.458 47.6508C394.476 47.0818 393.353 45.5459 393.172 43.5523C393.02 41.8666 393.284 40.1639 393.815 38.5639C394.813 35.5691 396.584 32.9166 399.002 30.8631C400.246 29.8064 401.775 29.0234 403.425 28.8994C404.384 28.8309 405.373 28.9422 406.263 29.2844C406.643 29.1218 407.066 29.032 407.537 29.0448C408.854 29.0748 410.102 29.7807 410.659 30.9786C411.07 31.8599 411.143 32.8824 411.251 33.8322C411.713 38.0162 411.432 42.2474 411.752 46.44C411.933 48.8059 407.144 48.2069 406.928 46.2047ZM397.046 44.4036C396.895 44.4036 396.713 44.5106 396.476 44.8229C396.592 44.6689 396.89 44.5491 397.041 44.4122C397.041 44.4079 397.041 44.4036 397.046 44.4036ZM403.611 32.2535C403.136 32.5444 402.699 32.9038 402.289 33.2974C400.946 34.5937 399.806 36.198 399.007 37.8751C398.246 39.4708 397.672 41.3661 397.702 43.1415C397.707 43.2998 397.715 43.4624 397.724 43.625C398.925 42.0805 399.78 40.2324 400.609 38.4783C401.43 36.7456 402.19 34.983 403.071 33.2803C403.244 32.9594 403.421 32.6086 403.611 32.2535Z" fill="#3D3D3D"/>
<path d="M426.834 33.3016C427.002 34.3284 425.767 34.6065 424.994 34.6193C424.122 34.6322 422.852 34.7904 421.867 35.0685C421.543 35.1584 421.224 35.2611 420.908 35.3723C420.947 37.1777 421.029 38.9831 421.098 40.7842C421.18 42.7779 421.284 44.7672 421.453 46.7566C421.539 47.7834 421.66 48.8059 421.772 49.8326C421.876 50.761 422.053 51.6723 422.031 52.6049C421.992 54.3162 419.181 53.8713 418.563 52.7461C417.302 50.4487 416.956 47.5481 416.697 44.9812C416.443 42.4613 416.339 39.9371 416.235 37.4087C416.222 37.1092 416.209 36.8055 416.201 36.506C415.868 36.3691 415.566 36.1809 415.328 35.9327C414.883 35.4664 414.711 34.6279 415.38 34.2428C415.622 34.1059 415.864 33.9733 416.11 33.845C416.028 30.4138 416.106 26.957 416.801 23.6072C417.224 21.575 417.915 19.2563 419.22 17.5963C420.744 15.6497 423.275 14.901 425.595 15.9535C430.479 18.1739 428.324 24.035 426.402 27.5603C425.59 29.0491 424.666 30.478 423.629 31.8256C423.914 31.8085 424.204 31.7957 424.489 31.7914C425.344 31.7658 426.683 32.3604 426.834 33.3016ZM423.094 24.9377C423.837 23.419 424.601 21.498 424.428 19.7825C424.389 19.3803 424.312 19.0038 424.104 18.653C424.074 18.6744 424.061 18.683 424.053 18.6873C424.048 18.7001 424.018 18.7343 423.932 18.8284C422.848 20.0221 422.342 21.7291 421.932 23.2436C421.47 24.9463 421.211 26.6918 421.068 28.4459C421.82 27.3207 422.502 26.1485 423.094 24.9377Z" fill="#3D3D3D"/>
<path d="M440.387 33.3016C440.555 34.3284 439.32 34.6065 438.547 34.6193C437.674 34.6322 436.405 34.7904 435.42 35.0685C435.096 35.1584 434.776 35.2611 434.461 35.3723C434.5 37.1777 434.582 38.9831 434.651 40.7842C434.733 42.7779 434.837 44.7672 435.005 46.7566C435.092 47.7834 435.213 48.8059 435.325 49.8326C435.429 50.761 435.606 51.6723 435.584 52.6049C435.545 54.3162 432.734 53.8713 432.116 52.7461C430.855 50.4487 430.509 47.5481 430.25 44.9812C429.995 42.4613 429.892 39.9371 429.788 37.4087C429.775 37.1092 429.762 36.8055 429.753 36.506C429.421 36.3691 429.119 36.1809 428.881 35.9327C428.436 35.4664 428.263 34.6279 428.933 34.2428C429.175 34.1059 429.417 33.9733 429.663 33.845C429.581 30.4138 429.658 26.957 430.354 23.6072C430.777 21.575 431.468 19.2563 432.772 17.5963C434.297 15.6497 436.828 14.901 439.147 15.9535C444.032 18.1739 441.877 24.035 439.955 27.5603C439.143 29.0491 438.219 30.478 437.182 31.8256C437.467 31.8085 437.756 31.7957 438.042 31.7914C438.897 31.7658 440.236 32.3604 440.387 33.3016ZM436.647 24.9377C437.389 23.419 438.154 21.498 437.981 19.7825C437.942 19.3803 437.864 19.0038 437.657 18.653C437.627 18.6744 437.614 18.683 437.605 18.6873C437.601 18.7001 437.571 18.7343 437.484 18.8284C436.4 20.0221 435.895 21.7291 435.485 23.2436C435.023 24.9463 434.763 26.6918 434.621 28.4459C435.372 27.3207 436.055 26.1485 436.647 24.9377Z" fill="#3D3D3D"/>
<path d="M456.121 47.1031C454.627 48.9086 452.428 50.0679 450.04 49.9995C447.6 49.931 445.337 48.5492 444.006 46.5641C442.832 44.81 442.538 42.5768 442.547 40.519C442.555 39.1756 442.676 37.8408 442.944 36.5402C441.912 34.9188 442.27 32.7583 443.346 31.1582C444.572 29.3229 446.632 28.1036 448.857 27.9624C453.651 27.6544 457.594 31.1668 458.548 35.6846C459.33 39.3596 458.579 44.1298 456.121 47.1031ZM454.303 35.5947C454.065 34.2001 453.517 32.8225 452.506 31.7957C452.031 31.3123 451.591 31.0256 450.973 30.8117C451.163 30.8887 450.17 30.6791 450.515 30.709C450.075 30.6705 450.135 30.6705 449.707 30.7347C449.241 30.8032 448.619 31.1155 448.114 31.4877C447.604 31.8641 447.189 32.3262 446.835 32.8524C446.762 32.9594 446.693 33.0749 446.619 33.1947C447.427 33.4728 448.524 34.2086 448.226 35.0942C447.621 36.9167 447.198 38.8248 447.177 40.75C447.155 42.4099 447.306 44.241 448.17 45.6999C448.386 46.0593 448.459 46.132 448.787 46.47C448.839 46.5213 448.87 46.5598 448.891 46.5855C448.921 46.6026 448.96 46.624 449.016 46.6582C449.09 46.701 449.159 46.7481 449.228 46.7951C449.185 46.7566 449.31 46.7994 449.384 46.8336C449.47 46.8251 449.707 46.8465 449.483 46.8678C449.841 46.8379 449.772 46.8208 449.669 46.8465C450.986 46.5341 451.945 45.4261 452.636 44.3608C454.229 41.9008 454.791 38.4398 454.303 35.5947ZM449.418 46.8636C449.414 46.8636 449.414 46.8636 449.409 46.8593C449.405 46.8593 449.401 46.8593 449.396 46.855C449.401 46.8593 449.409 46.8593 449.418 46.8636Z" fill="#3D3D3D"/>
<path d="M475.038 34.3883C474.066 34.3412 473.09 33.8535 472.762 32.9123C472.555 33.3786 472.395 33.8664 472.231 34.3455C471.738 35.8001 471.315 37.2718 470.974 38.7649C470.667 40.0954 470.412 41.4388 470.188 42.7822C469.968 44.0956 469.851 45.4347 469.574 46.7352C469.449 47.3256 469.276 47.916 469.035 48.4722C468.594 49.4818 467.475 49.7257 466.452 49.5845C464.383 49.2979 463.584 47.6679 463.247 45.8325C462.75 43.1116 462.798 40.258 462.789 37.5071C462.785 36.0654 462.828 34.6236 462.85 33.1818C462.871 31.7486 462.781 30.2042 463.074 28.7967C463.243 27.9795 464.357 27.8854 465.014 27.9667C465.808 28.0651 466.685 28.51 466.905 29.3272C467.324 30.8887 467.272 32.6086 467.333 34.2129C467.346 34.5509 467.355 34.8846 467.367 35.2226C467.467 34.8889 467.575 34.5509 467.683 34.2172C468.335 32.2492 469.173 29.5796 471.363 28.8266C474.166 27.864 476.632 30.4908 476.826 33.1048C476.9 34.0845 475.863 34.4268 475.038 34.3883Z" fill="#3D3D3D"/>
<path d="M502.849 52.8916C501.916 53.559 500.456 53.2809 499.553 52.7033C498.296 51.8947 497.303 50.8209 496.53 49.5588C495.074 47.1887 494.461 44.2196 493.943 41.5286C493.895 41.2719 493.848 41.011 493.8 40.7543C493.407 41.4816 492.984 42.1918 492.53 42.8891C491.088 45.1052 489.127 47.1759 486.575 48.1042C483.478 49.2337 479.478 48.4037 478.165 45.118C477.181 42.6495 477.613 39.6933 478.468 37.2419C479.383 34.6108 480.951 32.0524 483.227 30.371C485.737 28.5186 489.347 28.1549 491.96 30.0459C492.142 30.1785 492.31 30.3197 492.474 30.4694C491.891 24.7538 491.52 18.9782 492.068 13.2496C492.25 11.3587 492.53 9.45914 493.062 7.63234C493.524 6.04513 494.202 4.15843 495.744 3.29851C497.346 2.40009 499.627 2.72095 500.823 4.1456C501.652 5.13387 501.851 6.46439 501.89 7.70935C502.006 11.1661 501.315 14.6315 500.607 17.9985C500.002 20.852 499.285 23.6756 498.655 26.5249C498.266 28.2918 497.834 30.063 497.333 31.8128C497.562 33.7209 497.821 35.6204 498.093 37.5157C498.491 40.2537 498.987 42.9918 499.752 45.6571C500.058 46.7267 500.369 47.578 500.892 48.5748C501.035 48.8487 501.19 49.1225 501.358 49.3834C501.393 49.439 501.669 49.8112 501.635 49.7727C501.795 49.9653 501.967 50.1578 502.145 50.3375C502.24 50.4359 502.335 50.5257 502.434 50.6198C502.447 50.6327 502.49 50.6669 502.529 50.6968C503.242 51.253 503.79 52.2199 502.849 52.8916ZM491.433 35.3509C491.356 34.645 491.174 33.9519 490.786 33.3487C490.522 32.9423 490.319 32.6856 489.974 32.339C489.909 32.2749 489.844 32.215 489.779 32.1508C489.749 32.1294 489.663 32.0609 489.645 32.0481C489.55 31.9882 489.46 31.924 489.36 31.8641C489.352 31.8641 489.343 31.8599 489.33 31.8599C489.283 31.8385 489.231 31.8214 489.183 31.8C489.067 31.7743 488.924 31.7572 489.131 31.7914C489.399 31.8342 488.734 31.8256 488.851 31.7914C488.535 31.8342 488.224 31.924 487.935 32.0652C485.953 33.0407 484.558 35.1926 483.698 37.1435C482.808 39.1671 482.23 41.6185 482.584 43.7704C482.627 44.0442 482.692 44.3137 482.765 44.579C482.782 44.6346 482.8 44.6902 482.817 44.7458C482.83 44.7715 482.882 44.887 482.895 44.9041C482.934 44.9683 483.145 45.3063 483.137 45.3234C483.15 45.3362 483.163 45.3448 483.171 45.3576C483.236 45.3491 483.305 45.3362 483.37 45.3234C483.327 45.332 483.551 45.2849 483.573 45.2806C483.707 45.2421 483.841 45.1993 483.974 45.148C484.234 45.0539 484.501 44.9512 484.748 44.8229C486.462 43.9287 487.961 41.9736 489.049 40.1981C489.995 38.6622 490.773 37.0279 491.433 35.3509ZM489.213 31.8128C489.239 31.8214 489.265 31.8256 489.287 31.8342C489.27 31.8256 489.244 31.8171 489.213 31.8128ZM496.97 13.4336C497.23 11.9405 497.463 10.4389 497.584 8.92864C497.61 8.59494 497.631 8.26552 497.648 7.93182C497.648 7.88904 497.653 7.84198 497.653 7.79919C497.653 7.77352 497.653 7.74358 497.653 7.72646C497.653 7.6024 497.653 7.47405 497.648 7.34998C497.558 7.60667 497.476 7.86337 497.398 8.12434C496.612 10.8496 496.374 13.7587 496.348 16.638C496.573 15.5727 496.785 14.5032 496.97 13.4336Z" fill="#3D3D3D"/>
<path d="M517.17 46.2047C516.881 43.518 517.049 40.7971 517.122 38.1018C517.153 37.075 517.17 36.044 517.157 35.0172C516.945 35.4365 516.738 35.8557 516.539 36.2793C515.753 37.935 515.049 39.6291 514.268 41.2848C512.885 44.2154 510.786 48.8273 506.701 47.6508C504.718 47.0818 503.595 45.5459 503.414 43.5523C503.263 41.8666 503.526 40.1639 504.057 38.5639C505.055 35.5691 506.826 32.9166 509.245 30.8631C510.488 29.8064 512.017 29.0234 513.667 28.8994C514.626 28.8309 515.615 28.9422 516.505 29.2844C516.885 29.1218 517.308 29.032 517.779 29.0448C519.096 29.0748 520.344 29.7807 520.901 30.9786C521.312 31.8599 521.385 32.8824 521.493 33.8322C521.955 38.0162 521.675 42.2474 521.994 46.44C522.171 48.8059 517.386 48.2069 517.17 46.2047ZM507.284 44.4036C507.133 44.4036 506.951 44.5106 506.714 44.8229C506.83 44.6689 507.128 44.5491 507.279 44.4122C507.279 44.4079 507.284 44.4036 507.284 44.4036ZM513.849 32.2535C513.373 32.5444 512.937 32.9038 512.527 33.2974C511.184 34.5937 510.044 36.198 509.245 37.8751C508.484 39.4708 507.91 41.3661 507.94 43.1415C507.945 43.2998 507.953 43.4624 507.962 43.625C509.162 42.0805 510.018 40.2324 510.847 38.4783C511.667 36.7456 512.428 34.983 513.309 33.2803C513.481 32.9594 513.659 32.6086 513.849 32.2535Z" fill="#3D3D3D"/>
<path d="M544.868 39.5949C544.682 42.4528 543.862 45.6058 541.853 47.7663C539.525 50.269 535.492 51.4841 532.386 49.576C531.514 49.0412 530.849 48.2626 530.464 47.3727C530.395 47.4454 530.309 47.5053 530.218 47.5524C530.196 47.6764 530.175 47.8005 530.149 47.9331C530.028 48.5535 529.186 48.7289 528.655 48.7032C527.981 48.6733 527.208 48.3567 526.853 47.762C525.968 46.2817 525.864 44.3181 525.649 42.6367C525.433 40.9511 525.286 39.2441 525.165 37.5499C524.927 34.1188 524.845 30.6663 524.914 27.2266C524.975 24.1506 525.147 21.0745 525.489 18.0156C525.804 15.162 526.27 12.2871 527.264 9.57896C528.175 7.08904 529.497 4.4836 531.734 2.90922C534.377 1.0482 538.286 1.60009 539.923 4.49216C541.236 6.80667 540.946 9.89127 540.415 12.3769C539.836 15.0893 538.834 17.7375 537.768 20.2916C536.709 22.8329 535.496 25.3185 534.114 27.7015C532.835 29.909 531.453 32.2193 529.687 34.0888C529.713 34.9316 529.743 35.7787 529.782 36.6215C530.296 35.552 530.866 34.5081 531.505 33.5113C532.455 32.0225 533.626 30.4652 535.163 29.5283C537.487 28.1122 540.471 28.5614 542.415 30.4609C544.795 32.7968 545.067 36.4718 544.868 39.5949ZM529.661 27.2138C529.959 26.7474 530.244 26.2768 530.52 25.7934C531.889 23.4019 533.086 20.9205 534.096 18.3621C535.047 15.962 535.941 13.4807 536.416 10.9394C536.649 9.69019 536.761 8.42812 536.632 7.16177C536.58 6.67405 536.498 6.13927 536.325 5.69006C536.252 5.50182 536.144 5.28791 536.04 5.10395C536.005 5.04405 535.971 4.98416 535.932 4.92426C535.928 4.91998 535.915 4.90715 535.902 4.88576C535.88 4.89431 535.863 4.90287 535.85 4.91143C535.6 5.04833 535.358 5.24085 535.142 5.42909C534.33 6.12644 533.708 7.09759 533.185 8.01741C531.959 10.1693 531.306 12.6678 530.844 15.0765C530.075 19.0509 529.76 23.1452 529.661 27.2138ZM540.381 36.1381C540.381 36.1039 540.376 36.0654 540.376 36.0312C540.299 34.7562 540.091 33.4942 539.517 32.3433C539.301 31.9155 539.033 31.4535 538.701 31.2524C538.731 31.2781 538.701 31.2866 538.649 31.2652H538.644C538.554 31.2994 538.467 31.338 538.381 31.3722C538.523 31.3166 538.23 31.4449 538.143 31.5005C538.014 31.5818 537.884 31.6716 537.763 31.7615C537.616 31.8727 537.474 31.9882 537.336 32.108C537.275 32.1594 537.215 32.215 537.159 32.2706C537.15 32.2792 537.141 32.2877 537.128 32.3048C536.887 32.553 536.653 32.8097 536.429 33.0749C535.289 34.4354 534.386 35.9884 533.6 37.5713C532.995 38.7949 532.429 40.0869 531.954 41.4131C532.477 40.7928 533.064 40.2281 533.691 39.7019C535.582 38.1146 537.979 36.8183 540.381 36.1381ZM540.234 39.5692C538.977 40.1939 537.785 40.9169 536.697 41.8923C536.221 42.3158 535.587 43.0346 535.129 43.7063C534.921 44.01 534.736 44.3266 534.572 44.6518C534.567 44.6603 534.563 44.6689 534.559 44.6774C534.554 44.6903 534.55 44.7031 534.541 44.7245C534.515 44.7887 534.489 44.8528 534.464 44.9213C534.412 45.0625 534.364 45.2036 534.321 45.3491C534.252 45.5972 534.239 45.8539 534.183 46.0978C534.183 46.1021 534.183 46.1021 534.179 46.1063C534.179 46.1149 534.183 46.1192 534.183 46.1277C534.217 46.3416 534.226 46.5556 534.287 46.7695C534.343 46.962 534.42 47.1288 534.533 47.3C534.537 47.3042 534.718 47.5438 534.731 47.5695C534.736 47.5738 534.74 47.578 534.744 47.5823C534.744 47.5823 534.744 47.5823 534.749 47.5823C534.813 47.5652 535.124 47.5524 535.181 47.5395C535.885 47.3727 536.735 46.7994 537.297 46.2432C538.014 45.5288 538.67 44.532 539.063 43.6849C539.642 42.4185 540.026 41.0024 540.234 39.5692ZM534.783 47.608C534.775 47.608 534.77 47.6037 534.766 47.6037C534.835 47.6722 534.861 47.6593 534.783 47.608ZM534.848 47.6166C534.822 47.6123 534.805 47.6123 534.787 47.608C535.142 47.8048 534.904 47.6251 534.848 47.6166ZM538.627 31.2609C538.623 31.2609 538.623 31.2567 538.618 31.2567C538.605 31.2609 538.61 31.2609 538.627 31.2609ZM538.683 31.2524C538.688 31.2524 538.692 31.2524 538.696 31.2524C538.692 31.2524 538.692 31.2524 538.683 31.2524C538.688 31.2524 538.688 31.2524 538.683 31.2524ZM538.696 31.2524C538.809 31.2396 538.96 31.2182 538.739 31.2481C538.722 31.2481 538.709 31.2524 538.696 31.2524Z" fill="#3D3D3D"/>
<path d="M554.987 22.3751C554.218 25.0789 553.523 27.7956 552.642 30.4652C552.927 34.4268 553.234 38.4013 553.92 42.3158C554.227 44.0528 554.555 45.8411 555.177 47.501C555.397 48.0872 555.786 48.9128 556.175 49.5375C556.378 49.8669 556.481 50.0038 556.594 50.1364C556.728 50.2904 556.857 50.4444 557.004 50.5942C557.013 50.6027 557.501 51.052 557.198 50.8038C557.898 51.3814 558.533 52.3354 557.553 53.037C556.65 53.6831 555.121 53.4649 554.257 52.8488C550.491 50.1492 549.536 45.456 548.88 41.165C548.159 36.4376 547.904 31.6246 547.671 26.8501C547.463 22.5462 547.424 18.1995 547.792 13.9042C548.033 11.0507 548.44 8.16286 549.295 5.42052C550.003 3.15307 551.13 0.385064 553.834 0.0428067C556.136 -0.25239 558.028 1.21504 558.434 3.40976C558.783 5.30929 558.494 7.38422 558.209 9.27519C557.851 11.641 557.276 13.9769 556.676 16.2915C556.14 18.3236 555.562 20.3515 554.987 22.3751ZM554.331 4.65472C554.331 4.47931 554.331 4.30819 554.326 4.13278C554.326 4.1285 554.326 4.12422 554.326 4.11994C554.158 4.44081 553.998 4.84296 553.821 5.36063C553.411 6.54997 553.143 7.78637 552.927 9.0185C552.534 11.256 552.309 13.5149 552.206 15.7866C552.314 15.3802 552.422 14.9738 552.525 14.5631C553.078 12.394 553.575 10.2078 553.951 8.00456C554.11 7.06763 554.24 6.12643 554.305 5.18094C554.313 5.02693 554.322 4.87291 554.331 4.71889C554.331 4.6975 554.331 4.68039 554.335 4.66756C554.331 4.66328 554.331 4.659 554.331 4.65472ZM553.942 2.34021C553.951 2.34876 553.959 2.35304 553.968 2.3616C553.938 2.31026 553.912 2.2632 553.912 2.25892C553.903 2.27176 553.916 2.3017 553.942 2.34021ZM553.976 2.37016C553.968 2.3616 553.959 2.35304 553.946 2.34021C553.959 2.35732 553.976 2.37871 553.994 2.39582C553.985 2.39155 553.981 2.37871 553.976 2.37016Z" fill="#3D3D3D"/>
<path d="M575.658 41.9907C574.574 43.8132 573.438 45.6485 571.875 47.1074C570.328 48.5492 568.268 49.2979 566.156 49.3278C564.049 49.3535 561.807 48.5235 560.442 46.8892C559.293 45.5159 558.797 43.7961 558.693 42.0377C558.469 38.2472 559.345 33.9819 561.747 30.9358C563.099 29.2202 565.025 27.9154 567.297 28.0223C569.512 28.125 571.732 29.4298 572.35 31.6246C572.838 33.3615 571.87 35.0899 570.527 36.1509C568.882 37.4472 566.657 37.6953 564.632 37.7724C564.42 37.7809 564.191 37.751 563.962 37.6868C563.457 39.659 563.276 41.7597 563.6 43.7191C563.699 44.3351 563.837 44.8442 564.088 45.3362C564.165 45.4817 564.243 45.6272 564.334 45.7641C564.342 45.7769 564.42 45.871 564.446 45.9052C564.498 45.9651 564.554 46.0208 564.61 46.0764C564.636 46.0978 564.735 46.1833 564.761 46.2004C564.839 46.2518 565.21 46.4443 565.042 46.3758C565.09 46.3972 565.137 46.4186 565.189 46.44C565.21 46.44 565.422 46.4999 565.491 46.517C565.526 46.5256 565.547 46.5299 565.56 46.5341C565.586 46.5341 565.621 46.5341 565.655 46.5341C565.988 46.5384 565.988 46.5598 566.2 46.5127C566.428 46.4614 566.627 46.4272 566.904 46.3288C569.551 45.3876 571.089 42.9019 572.484 40.6516C573.252 39.4195 576.518 40.5404 575.658 41.9907ZM564.891 34.9573C565.845 34.8289 566.787 34.5723 567.491 33.8877C568.277 33.1219 568.648 31.8641 567.966 31.0342C567.923 31.0513 567.875 31.0727 567.832 31.0898C567.556 31.2823 567.076 31.6545 566.774 32.001C565.997 32.8909 565.366 33.8877 564.891 34.9573ZM567.884 30.9572C567.893 30.9614 567.897 30.9614 567.906 30.9614C567.906 30.9614 567.906 30.9572 567.901 30.9572C567.897 30.9572 567.893 30.9572 567.884 30.9572ZM567.944 30.9657C567.949 30.97 567.953 30.9743 567.957 30.9786C567.97 30.9828 567.988 30.9828 568.001 30.9871C567.988 30.9786 567.97 30.97 567.944 30.9657ZM568.035 31.0042C568.022 31.0042 568.009 31.0085 568.001 31.0085C568.005 31.0085 568.005 31.0128 568.009 31.0171C568.018 31.0171 568.026 31.0171 568.035 31.0171C568.031 31.0213 568.022 31.0213 568.018 31.0256C568.07 31.0556 568.07 31.0299 568.035 31.0042Z" fill="#3D3D3D"/>
</g>
<defs>
<clipPath id="clip0_160_301">
<rect width="585" height="66" fill="white"/>
</clipPath>
</defs>
</svg>
