<svg width="70" height="166" viewBox="0 0 70 166" fill="none" xmlns="http://www.w3.org/2000/svg">
<g clip-path="url(#clip0_160_799)">
<path d="M69.9007 44.6359C69.2441 69.3039 66.339 93.4131 54.9277 115.916C44.5013 136.482 27.1406 148.118 6.46692 155.981C3.79068 156.999 1.38307 156.829 0.31854 153.856C-0.656445 151.131 0.607057 149.146 3.2634 147.908C11.6503 143.996 19.8879 139.765 27.4291 134.387C41.2878 124.498 48.65 110.088 53.6443 94.391C61.5039 69.6931 62.0809 44.1868 61.1059 18.5709C60.9069 13.4217 60.7378 8.28254 60.6483 3.1334C60.6284 2.07563 60.0314 0.469019 61.4243 0.0798399C63.1653 -0.39915 63.3842 1.44696 63.9214 2.54464C67.115 9.07088 67.8214 16.2258 68.677 23.251C69.5326 30.3261 70.2688 37.451 69.9007 44.6359Z" fill="#FFF5E7"/>
<path d="M63.2447 138.538C63.5929 144.795 60.1605 148.497 56.3402 151.67C46.6898 159.673 35.0198 163.136 23.0613 165.79C20.3354 166.399 17.8282 165.82 17.3209 162.717C16.7936 159.464 18.9823 158.236 21.9272 157.538C31.6969 155.213 41.4567 152.838 50.4007 147.998C54.8976 145.553 59.0264 142.619 63.2447 138.538Z" fill="#FFF5E7"/>
</g>
<defs>
<clipPath id="clip0_160_799">
<rect width="70" height="166" fill="white"/>
</clipPath>
</defs>
</svg>
