<svg width="59" height="60" viewBox="0 0 59 60" fill="none" xmlns="http://www.w3.org/2000/svg">
<g clip-path="url(#clip0_160_522)">
<path d="M32.2312 51.2067C30.6544 51.2067 29.075 51.2707 27.5034 51.1897C25.583 51.0917 23.8572 51.5058 22.3889 52.7743C21.848 53.242 21.4744 53.2107 20.927 52.7025C17.4625 49.4849 13.9639 46.3051 10.4576 43.1345C10.05 42.7661 10.0108 42.5675 10.4236 42.1677C15.09 37.6581 20.5312 35.7939 26.9652 37.2622C27.4276 37.3681 27.8901 37.4099 28.363 37.4086C32.3632 37.4033 36.362 37.4046 40.3622 37.4059C42.2277 37.4059 42.5021 37.6293 42.9031 39.4596C43.0769 40.2513 43.201 41.0273 42.6667 41.7602C42.2813 42.2879 41.8019 42.5897 41.1539 42.6838C36.8467 43.3082 32.5408 43.9431 28.235 44.578C28.0037 44.612 27.7699 44.659 27.5504 44.7374C27.0435 44.9203 26.8998 45.3371 26.9704 45.8165C27.0409 46.2999 27.3989 46.5298 27.8574 46.586C28.039 46.6082 28.2297 46.5572 28.4152 46.5298C32.7681 45.891 37.121 45.2521 41.4739 44.612C43.6452 44.2932 45.1371 42.4264 44.9881 40.216C44.9411 39.5079 44.7765 38.8195 44.5636 38.1467C44.463 37.8266 44.5348 37.6398 44.7896 37.4255C47.7355 34.9369 50.6631 32.4247 53.6143 29.9399C54.7547 28.9797 56.5171 29.0764 57.6275 30.1045C58.8032 31.194 59.0671 32.9629 58.1017 34.1948C57.0448 35.5443 55.873 36.805 54.7404 38.0944C52.2399 40.9384 49.7251 43.7694 47.2312 46.6186C44.5649 49.6625 41.2336 51.225 37.1733 51.2067C35.5246 51.2001 33.8773 51.2067 32.2312 51.2067Z" fill="#96644D"/>
<path d="M14.7464 59.9935C13.5236 59.9935 12.3008 59.983 11.078 60C10.724 60.0052 10.4654 59.9007 10.2015 59.659C7.11837 56.8294 4.02353 54.0128 0.931296 51.1923C-0.274504 50.0923 -0.304551 49.3686 0.805883 48.1562C2.06002 46.7871 3.30762 45.4115 4.5696 44.0476C5.49061 43.0535 6.22872 43.0064 7.23464 43.9209C11.598 47.8937 15.9535 51.8755 20.3051 55.8613C21.1725 56.6569 21.2039 57.4212 20.4514 58.3252C19.0653 59.9922 19.0653 59.9922 16.9333 59.9922C16.2043 59.9935 15.4754 59.9935 14.7464 59.9935Z" fill="#96644D"/>
<path d="M42.3258 25.344C42.3258 22.031 42.3245 18.7167 42.3272 15.4037C42.3285 13.8046 42.9412 13.2011 44.5598 13.1972C45.5709 13.1946 46.5821 13.1802 47.5919 13.2024C48.8095 13.2298 49.4849 13.8856 49.4875 15.094C49.5006 20.0296 49.4914 24.9638 49.4979 29.8994C49.4979 30.1816 49.4183 30.3815 49.1988 30.567C47.102 32.3463 45.0144 34.1347 42.9216 35.9179C42.8001 36.0212 42.6786 36.1949 42.5022 36.1244C42.2475 36.0225 42.3285 35.7664 42.3272 35.5665C42.3245 32.1581 42.3258 28.7511 42.3258 25.344Z" fill="#689F4E"/>
<path d="M47.0852 0C46.5209 2.81266 45.9865 5.45941 45.4614 8.10878C45.3738 8.55165 45.1988 8.44713 44.9584 8.23289C44.5547 7.87232 44.1066 7.55617 43.7422 7.16164C43.345 6.73053 43.0916 6.8455 42.731 7.21259C40.5114 9.47526 38.0045 11.3708 35.265 12.9594C31.8213 14.9556 28.1595 16.3952 24.2678 17.2431C22.6818 17.5893 21.0958 17.9342 19.5073 18.2621C18.8619 18.3953 18.2832 18.2464 17.873 17.6938C17.4837 17.1699 17.4745 16.5964 17.758 16.0294C18.0376 15.4703 18.5784 15.2887 19.1402 15.1607C20.8607 14.7714 22.5838 14.3964 24.3017 13.9941C30.4993 12.5414 35.832 9.51838 40.4265 5.13935C40.8341 4.75135 40.8668 4.53971 40.4082 4.19352C39.8726 3.78854 39.3919 3.3104 38.7988 2.78523C41.5892 1.84724 44.2712 0.945828 47.0852 0Z" fill="#689F4E"/>
<path d="M37.4399 28.2325C37.4399 30.2992 37.4255 32.3672 37.4516 34.4339C37.4581 34.9186 37.338 35.0727 36.8337 35.0649C34.8597 35.0348 32.8858 35.0388 30.9131 35.0623C30.448 35.0675 30.2665 34.9839 30.2691 34.4613C30.2913 30.3279 30.2769 26.1932 30.2847 22.0598C30.2874 20.7926 30.9784 20.1171 32.26 20.1054C33.3404 20.0962 34.4221 20.0923 35.5025 20.1067C36.7344 20.1224 37.4281 20.8069 37.4359 22.0323C37.449 24.099 37.4399 26.1657 37.4399 28.2325Z" fill="#689F4E"/>
<path d="M18.2152 30.0954C18.2152 28.6858 18.206 27.2749 18.2178 25.8653C18.2282 24.5667 18.9311 23.8691 20.2323 23.8561C21.3139 23.8456 22.3956 23.8404 23.476 23.8587C24.6492 23.8783 25.3677 24.585 25.3755 25.7621C25.3925 28.5578 25.3742 31.3547 25.3912 34.1517C25.3938 34.5841 25.2423 34.6638 24.8517 34.6142C22.7797 34.3542 20.7222 34.4104 18.7025 34.9957C18.2309 35.1328 18.206 34.899 18.2087 34.5371C18.2204 33.057 18.2139 31.5768 18.2152 30.0954Z" fill="#689F4E"/>
</g>
<defs>
<clipPath id="clip0_160_522">
<rect width="58.6897" height="60" fill="white"/>
</clipPath>
</defs>
</svg>
