<svg width="61" height="60" viewBox="0 0 61 60" fill="none" xmlns="http://www.w3.org/2000/svg">
<g clip-path="url(#clip0_160_503)">
<path d="M59.882 42.4508C58.281 34.1873 53.8899 27.7228 46.9761 22.9508C46.7239 22.7767 46.4655 22.7012 46.153 22.7012C42.3657 22.711 38.5794 22.7128 34.7921 22.6995C34.373 22.6977 34.024 22.7936 33.683 23.0342C26.4886 28.1224 21.9963 34.9172 20.7372 43.7038C20.3243 46.5861 20.6723 49.4286 21.8161 52.1369C23.2848 55.6169 25.8573 58.0447 29.1375 59.7975C29.3932 59.9343 29.6445 60 29.9367 59.9991C33.4131 59.992 36.8895 59.9947 40.3651 59.9947C43.8709 59.9947 47.3766 59.9947 50.8824 59.9947C51.0724 59.9947 51.2589 60.0053 51.4427 59.9103C54.4947 58.3226 56.9917 56.1541 58.5598 53.0382C60.2559 49.671 60.5871 46.088 59.882 42.4508ZM40.3997 48.9375C34.8179 48.9429 30.2981 44.4381 30.2874 38.858C30.2759 33.286 34.7895 28.7608 40.3722 28.7457C45.9541 28.7306 50.5121 33.2567 50.5067 38.8065C50.4996 44.4319 46.01 48.9322 40.3997 48.9375Z" fill="#689F4E"/>
<path d="M0.447542 52.041C7.03192 52.0277 13.6163 52.0313 20.1998 52.0313C20.3294 52.0313 20.4591 52.0313 20.6083 52.0313C20.5941 51.9407 20.5941 51.8803 20.5745 51.827C20.0915 50.5164 19.7851 49.1622 19.6714 47.7734C19.6368 47.348 19.4725 47.3001 19.1102 47.3019C15.0415 47.3134 10.9728 47.309 6.90317 47.309C6.17857 47.309 6.04271 47.1767 6.04271 46.4672C6.04271 38.9362 6.04271 31.4052 6.04271 23.8743C6.04271 23.1266 6.15726 23.0156 6.92448 23.0156C14.5744 23.0147 22.2235 23.0147 29.8735 23.0138C30.614 23.0138 30.6975 23.0884 30.7703 23.8849C31.5313 23.274 32.2541 22.7092 33.0347 22.2306C33.3144 22.0592 33.2602 21.9447 33.1066 21.7333C32.3607 20.7042 31.6175 19.6723 30.8946 18.6263C30.7135 18.3652 30.5208 18.2818 30.2065 18.2826C22.4233 18.2924 14.641 18.2906 6.85877 18.2906C6.18479 18.2906 6.0436 18.1539 6.0436 17.4977C6.04271 13.5328 6.04271 9.56711 6.0436 5.60227C6.0436 4.9061 6.16525 4.78799 6.87475 4.78799C11.55 4.78799 16.2261 4.78799 20.9013 4.78799C26.5533 4.78799 32.2053 4.78799 37.8573 4.78799C38.5037 4.78799 38.6272 4.9132 38.6281 5.56675C38.629 6.33575 38.6352 7.10563 38.6236 7.87462C38.6192 8.13213 38.66 8.19784 38.9415 8.11615C39.8215 7.85952 40.7113 7.8391 41.6143 8.05133C42.8185 8.33459 43.8014 8.96062 44.6139 9.89477C44.7116 9.74559 44.6681 9.61151 44.6681 9.4863C44.6708 6.46806 44.6637 3.44981 44.6788 0.431559C44.6805 0.0772544 44.5811 0.00177596 44.2401 0.00177596C29.6364 0.00976779 15.0326 0.00976779 0.428895 0C0.0719265 0 0 0.100342 0 0.438663C0.00887981 17.4835 0.00887981 34.5274 0 51.5722C0 51.9274 0.0630467 52.0419 0.447542 52.041Z" fill="#96644D"/>
<path d="M7.62681 17.2561C14.8754 17.241 22.1249 17.2446 29.3735 17.2446C29.5173 17.2446 29.6621 17.2446 29.8965 17.2446C29.0396 16.044 28.2422 14.9279 27.4466 13.8099C27.1073 13.333 27.1251 13.1448 27.5549 12.747C27.9705 12.3625 28.4384 12.0526 28.9526 11.8199C30.8449 10.9621 32.7469 11.098 34.6428 11.8022C34.9313 11.9096 35.0539 11.9052 35.1835 11.5819C35.6346 10.4613 36.3397 9.5236 37.3546 8.84518C37.542 8.71997 37.5917 8.57967 37.5882 8.36922C37.5775 7.67393 37.5615 6.97775 37.5926 6.28335C37.6086 5.91751 37.5127 5.81983 37.1371 5.82072C27.2698 5.83226 17.4017 5.83226 7.53446 5.82072C7.16329 5.82072 7.07893 5.91218 7.07982 6.27803C7.09491 9.75447 7.09847 13.2309 7.07715 16.7074C7.07627 17.1531 7.18282 17.257 7.62681 17.2561Z" fill="#96644D"/>
<path d="M39.1351 9.14976C37.3813 9.65857 36.44 10.971 35.9001 12.6298C35.7252 13.1688 35.5041 13.2727 34.9811 13.0604C34.5442 12.8828 34.1064 12.6981 33.6553 12.5676C31.9326 12.0686 30.2712 12.1352 28.7181 13.143C28.466 13.3073 28.4384 13.4227 28.6249 13.6811C30.3529 16.0787 32.0783 18.4789 33.769 20.9022C34.1553 21.4554 34.5238 21.8754 35.1454 21.6623C35.4677 21.6623 35.6773 21.6419 35.8815 21.6667C36.234 21.7094 36.2527 21.5842 36.1692 21.2751C35.8033 19.9219 35.4659 18.5606 35.1187 17.202C35.0965 17.1158 35.0823 17.0279 35.0548 16.9445C34.9393 16.591 35.0281 16.306 35.3958 16.2083C35.7643 16.1106 35.965 16.3238 36.0555 16.6798C36.4533 18.2382 36.8618 19.7949 37.2596 21.3533C37.3067 21.5362 37.3307 21.6756 37.5837 21.6685C38.2639 21.6499 38.9441 21.6561 39.6243 21.6667C39.817 21.6694 39.8854 21.6126 39.8774 21.4172C39.865 21.0922 39.8694 20.7663 39.8756 20.4413C39.8818 20.1181 40.0275 19.8934 40.372 19.8819C40.7396 19.8704 40.9048 20.0959 40.9172 20.4396C40.9288 20.7495 40.9341 21.0611 40.9155 21.371C40.9012 21.6046 40.9776 21.6738 41.212 21.6676C41.862 21.6516 42.5138 21.649 43.1638 21.6685C43.4151 21.6765 43.4826 21.5708 43.5332 21.3533C43.6877 20.6926 43.8671 20.0373 44.0358 19.3793C44.2711 18.4647 44.5056 17.5492 44.7435 16.6354C44.8306 16.3007 45.0463 16.1098 45.3935 16.2065C45.7301 16.3007 45.8491 16.5564 45.7461 16.9018C45.7168 17.0004 45.6963 17.1025 45.6706 17.2029C45.319 18.5757 44.9735 19.9503 44.6095 21.3195C44.5393 21.5842 44.5517 21.6881 44.8652 21.6694C45.3074 21.6437 45.7532 21.6508 46.1954 21.6676C46.4005 21.6756 46.5124 21.5939 46.6252 21.4368C48.4837 18.8234 50.3449 16.2128 52.2141 13.6074C52.3527 13.4138 52.3269 13.3259 52.1422 13.199C51.4993 12.7559 50.796 12.469 50.027 12.3429C48.5397 12.0996 47.1553 12.4655 45.8082 13.0569C45.2888 13.2851 45.0579 13.1741 44.8909 12.6315C44.653 11.8617 44.3102 11.1415 43.7712 10.5377C42.5156 9.12934 40.9607 8.61963 39.1351 9.14976Z" fill="#689F4E"/>
<path d="M20.6501 53.0711C13.9627 53.0817 7.27623 53.0782 0.588843 53.0782C0.484949 53.0782 0.380167 53.0888 0.278049 53.0773C0.0631577 53.0524 -0.000776959 53.1403 0.00277497 53.3526C0.0143187 54.0035 0.0231985 54.6552 0.000111022 55.3052C-0.00965677 55.5956 0.0995649 55.648 0.357967 55.6436C1.20066 55.6294 2.04424 55.6374 2.88783 55.6374C9.42514 55.6374 15.9625 55.6374 22.5992 55.6374C22.0735 54.8994 21.6242 54.2077 21.2832 53.4574C21.1465 53.1528 20.9742 53.0702 20.6501 53.0711Z" fill="#96644D"/>
<path d="M13.5772 24.0536C12.5427 24.0741 11.5082 24.0616 10.4737 24.0607C9.48364 24.0607 8.49355 24.0723 7.50345 24.0536C7.19532 24.0483 7.07278 24.0954 7.07988 24.4506C7.10474 25.7799 7.09764 27.1101 7.08343 28.4403C7.07988 28.7342 7.1376 28.8443 7.46438 28.8416C9.48897 28.8256 11.5136 28.8274 13.5382 28.8398C13.8374 28.8416 13.944 28.7812 13.9395 28.4571C13.9209 27.1127 13.9236 25.7674 13.9378 24.423C13.9413 24.1424 13.8774 24.0483 13.5772 24.0536Z" fill="#96644D"/>
<path d="M21.4565 24.0554C20.4362 24.0705 19.415 24.0616 18.3947 24.0616C17.3594 24.0616 16.324 24.0696 15.2886 24.0554C15.0399 24.0519 14.9671 24.1176 14.9698 24.3715C14.9831 25.747 14.984 27.1234 14.9707 28.4989C14.968 28.7768 15.0515 28.8425 15.3214 28.8416C17.378 28.8301 19.4337 28.8301 21.4902 28.8425C21.77 28.8443 21.8383 28.7608 21.8357 28.4918C21.8232 27.1305 21.8197 25.7701 21.8374 24.4088C21.841 24.0971 21.73 24.051 21.4565 24.0554Z" fill="#96644D"/>
<path d="M7.43422 34.6419C8.45362 34.6268 9.47391 34.6357 10.4933 34.6366C11.5278 34.6375 12.5623 34.6322 13.5968 34.641C13.8206 34.6428 13.9405 34.6233 13.9378 34.3409C13.9227 32.9521 13.9245 31.5624 13.9369 30.1736C13.9396 29.9143 13.8543 29.8539 13.6083 29.8548C11.5394 29.8637 9.47036 29.8637 7.40136 29.8539C7.13941 29.853 7.08435 29.9427 7.08613 30.1843C7.09589 31.5589 7.09945 32.9335 7.08257 34.3072C7.07991 34.5931 7.17315 34.6455 7.43422 34.6419Z" fill="#96644D"/>
<path d="M13.9405 36.0503C13.9458 35.7164 13.8233 35.6729 13.5365 35.6773C12.5322 35.6933 11.5279 35.6835 10.5227 35.6835C9.50327 35.6835 8.48387 35.6906 7.46446 35.6791C7.20429 35.6764 7.07819 35.7048 7.08263 36.0263C7.10394 37.3849 7.10217 38.7444 7.08352 40.103C7.07908 40.4129 7.19008 40.4617 7.46269 40.46C9.4864 40.4502 11.5101 40.4493 13.5347 40.4609C13.8268 40.4626 13.945 40.4129 13.9405 40.0826C13.9201 38.7391 13.9192 37.3947 13.9405 36.0503Z" fill="#96644D"/>
<path d="M7.45981 46.2656C8.4801 46.254 9.50039 46.2611 10.5207 46.2603C11.5268 46.2603 12.532 46.2496 13.5372 46.2665C13.8293 46.2718 13.9438 46.2212 13.9385 45.8917C13.9181 44.5465 13.919 43.2003 13.9385 41.855C13.943 41.5273 13.8311 41.4723 13.5345 41.474C11.5081 41.4865 9.48263 41.4856 7.45626 41.474C7.17299 41.4723 7.07887 41.5371 7.08242 41.8372C7.09929 43.1976 7.10107 44.5589 7.08064 45.9184C7.07709 46.2354 7.19786 46.2691 7.45981 46.2656Z" fill="#96644D"/>
<path d="M26.1696 28.609C26.6154 28.0575 27.0718 27.5141 27.5407 26.9831C28.1676 26.2736 28.8282 25.5961 29.5377 24.97C29.8023 24.7365 29.7366 24.4443 29.6922 24.1895C29.6461 23.9187 29.3708 24.0714 29.2065 24.0687C28.2457 24.0536 27.2849 24.0616 26.3241 24.0616C25.2745 24.0616 24.2249 24.0705 23.1762 24.0554C22.9205 24.0519 22.8521 24.1264 22.8539 24.376C22.8645 25.7506 22.8663 27.1252 22.8521 28.4998C22.8494 28.7759 22.9329 28.8478 23.2038 28.8416C24.0314 28.8239 24.8589 28.8283 25.6865 28.8407C25.9032 28.8434 26.0364 28.7741 26.1696 28.609Z" fill="#96644D"/>
<path d="M15.2389 46.2656C16.5993 46.2558 17.9597 46.2567 19.3192 46.2647C19.5154 46.2656 19.5661 46.2017 19.5661 46.0134C19.5669 44.5917 19.6833 43.179 19.9648 41.7839C20.0109 41.5531 19.9656 41.4696 19.709 41.4758C18.9702 41.4927 18.2305 41.482 17.4917 41.4811C16.7529 41.4803 16.0132 41.4891 15.2744 41.4758C15.0418 41.4714 14.9699 41.5415 14.9716 41.7742C14.9805 43.179 14.9796 44.5829 14.9708 45.9877C14.969 46.1937 15.0169 46.2665 15.2389 46.2656Z" fill="#96644D"/>
<path d="M16.1096 57.709C14.5441 57.7072 12.9786 57.7081 11.4122 57.709C9.84581 57.7099 8.28118 57.7081 6.71478 57.7099C6.23794 57.7108 5.99374 57.891 5.99463 58.2302C5.99641 58.5721 6.24238 58.7524 6.71834 58.7533C9.84936 58.7542 12.9813 58.7542 16.1123 58.7524C16.5829 58.7524 16.836 58.5641 16.836 58.2267C16.836 57.891 16.5856 57.709 16.1096 57.709Z" fill="#96644D"/>
<path d="M22.9179 33.5755C23.6043 32.279 24.3617 31.0873 25.2293 29.8522C24.4887 29.8522 23.8405 29.8664 23.1941 29.8459C22.9152 29.8371 22.8424 29.9276 22.846 30.1958C22.8593 31.1566 22.8477 32.1174 22.8531 33.0782C22.8531 33.2238 22.8104 33.3828 22.9179 33.5755Z" fill="#96644D"/>
<path d="M18.7844 57.6726C18.4487 57.6371 18.1681 57.8618 18.1317 58.169C18.0953 58.4727 18.3262 58.7595 18.6379 58.7808C18.9895 58.8057 19.2159 58.6299 19.2532 58.2871C19.2905 57.9426 19.0969 57.7357 18.7844 57.6726Z" fill="#96644D"/>
<path d="M21.8141 35.5095C21.8141 33.8543 21.8141 32.1991 21.8141 30.5439C21.8665 29.8513 21.8665 29.8513 21.1801 29.8513C19.2576 29.8513 17.3343 29.8628 15.4118 29.8415C15.0317 29.8371 14.9563 29.9507 14.958 30.3103C14.9722 33.5497 14.9714 36.7882 14.9589 40.0275C14.958 40.3641 15.0273 40.4804 15.3905 40.4733C16.6772 40.4493 17.9639 40.4635 19.2505 40.4635C20.2779 40.4635 20.2788 40.4635 20.5053 39.4619C20.5079 39.4486 20.5035 39.4326 20.5017 39.4175C20.8676 38.2533 21.276 37.1052 21.7369 35.9748C21.8603 35.8363 21.8488 35.6746 21.8141 35.5095ZM20.0382 35.7723C19.5667 35.7741 19.0951 35.7732 18.6236 35.7732C18.1672 35.7732 17.7099 35.7732 17.2535 35.7723C16.9063 35.7714 16.6816 35.6169 16.6798 35.2511C16.6781 34.8781 16.9223 34.7307 17.257 34.7281C18.185 34.721 19.1138 34.7201 20.0417 34.7298C20.3863 34.7334 20.61 34.9207 20.5967 35.2768C20.5843 35.608 20.3676 35.7714 20.0382 35.7723Z" fill="#96644D"/>
<path d="M40.3906 29.7705C35.3966 29.7776 31.3358 33.8445 31.335 38.8403C31.3341 43.8387 35.3904 47.9084 40.3808 47.9137C45.3793 47.919 49.4542 43.8601 49.4578 38.8723C49.4613 33.8436 45.3961 29.7634 40.3906 29.7705ZM41.4082 42.8913C41.0193 42.9623 40.8417 43.0777 40.9172 43.4924C40.9536 43.6931 40.9331 43.9062 40.9172 44.1122C40.8941 44.4186 40.7218 44.6219 40.4128 44.6273C40.0842 44.6326 39.8986 44.4319 39.8773 44.1007C39.8667 43.9382 39.8756 43.7757 39.8756 43.6123C39.8747 43.6123 39.8747 43.6123 39.8738 43.6123C39.8738 43.4942 39.8614 43.3743 39.8765 43.258C39.9049 43.0333 39.817 42.9783 39.5923 42.9419C38.3988 42.7483 37.5784 41.8639 37.5411 40.7876C37.5286 40.4271 37.6423 40.1563 38.0303 40.1323C38.3953 40.1092 38.532 40.3552 38.5818 40.6917C38.7052 41.5318 39.1412 41.9065 39.9821 41.9163C40.3222 41.9207 40.6632 41.9278 41.0024 41.9109C41.6666 41.8781 42.1692 41.3781 42.2136 40.7246C42.2571 40.0817 41.8158 39.4947 41.1596 39.3988C40.768 39.342 40.364 39.3642 39.9653 39.3607C38.6555 39.3509 37.6538 38.5002 37.5491 37.3023C37.4363 36.0103 38.2328 34.9829 39.5514 34.7636C39.8116 34.7201 39.9049 34.649 39.8791 34.3835C39.8534 34.1198 39.8649 33.8507 39.8773 33.5852C39.8924 33.2753 40.0709 33.0755 40.3764 33.0675C40.7041 33.0587 40.8967 33.2593 40.9163 33.5897C40.9314 33.8552 40.942 34.1242 40.9154 34.388C40.8879 34.6579 40.99 34.721 41.2466 34.7627C42.4036 34.9518 43.2161 35.846 43.2499 36.9089C43.2605 37.2455 43.17 37.5145 42.8041 37.5563C42.4152 37.6016 42.2651 37.3609 42.2127 36.9995C42.0929 36.1684 41.64 35.7848 40.8062 35.7759C40.4954 35.7723 40.1846 35.7688 39.8747 35.7785C39.1359 35.7998 38.5951 36.322 38.5764 37.0217C38.5578 37.7321 39.1048 38.2995 39.8578 38.3324C40.2272 38.3484 40.5975 38.3315 40.9669 38.3368C42.1444 38.3563 43.1282 39.2319 43.2392 40.3543C43.3627 41.6001 42.6123 42.671 41.4082 42.8913Z" fill="#689F4E"/>
</g>
<defs>
<clipPath id="clip0_160_503">
<rect width="60.23" height="60" fill="white"/>
</clipPath>
</defs>
</svg>
