<svg width="51" height="60" viewBox="0 0 51 60" fill="none" xmlns="http://www.w3.org/2000/svg">
<g clip-path="url(#clip0_160_456)">
<path d="M10.3051 25.4011C8.49353 26.9094 6.91418 28.5348 6.16096 30.7983C5.81554 31.8375 5.60349 32.8948 5.60541 33.9925C5.60829 35.3032 5.62076 36.6149 5.59677 37.9255C5.59006 38.2998 5.6908 38.4725 6.05446 38.6126C8.07135 39.3926 9.18534 41.4546 8.78522 43.5982C8.41965 45.5565 6.6033 47.1109 4.62959 47.1551C2.43039 47.205 0.592935 45.7964 0.111261 43.6931C-0.372331 41.5822 0.787715 39.3696 2.81899 38.6126C3.21815 38.4638 3.29683 38.2623 3.29299 37.8833C3.27956 36.4604 3.25365 35.0365 3.3093 33.6154C3.44172 30.2648 4.76104 27.4362 7.17612 25.1161C7.77582 24.5404 8.37839 23.9676 9.00303 23.4197C9.23331 23.2172 9.2573 23.0474 9.16615 22.7672C7.39393 17.3249 8.06751 12.1906 11.2646 7.45155C15.1218 1.73383 22.2759 -1.08616 28.933 0.387642C35.853 1.91902 41.0976 7.34408 42.2817 14.1691C42.7892 17.0965 42.5782 19.9607 41.6081 22.7663C41.5121 23.0445 41.5381 23.2153 41.7693 23.4178C42.3834 23.9541 42.9735 24.5174 43.5626 25.0806C46.1303 27.535 47.4438 30.5392 47.487 34.0913C47.5024 35.3857 47.5024 36.6811 47.4822 37.9764C47.4764 38.3189 47.582 38.4715 47.9082 38.5934C49.8963 39.3399 51.0353 41.3414 50.7081 43.459C50.4001 45.4443 48.6087 47.0639 46.6206 47.1531C44.4454 47.251 42.5868 45.9 42.0447 43.8275C41.4747 41.6484 42.6271 39.3965 44.761 38.5905C45.0997 38.4629 45.1803 38.3055 45.1755 37.9754C45.1592 36.6964 45.1717 35.4174 45.1679 34.1384C45.1602 31.3107 44.1316 28.909 42.1339 26.92C41.6139 26.4018 41.0631 25.9144 40.5037 25.3915C40.1621 25.9278 39.8445 26.4537 39.501 26.9622C38.9896 27.7183 38.4168 28.4264 37.771 29.0731C37.5676 29.2775 37.4764 29.4838 37.4764 29.7831C37.487 35.0585 37.487 40.3349 37.4764 45.6102C37.4755 45.9422 37.5657 46.0958 37.8871 46.2272C39.7562 46.9929 40.7436 49.0482 40.2082 50.995C39.69 52.8804 37.8459 54.1595 35.9691 53.9359C33.8716 53.6855 32.3488 52.037 32.3153 49.9818C32.2884 48.3372 33.2796 46.8499 34.8512 46.2013C35.0594 46.1149 35.188 46.0497 35.188 45.7782C35.1784 40.9825 35.1813 36.186 35.1813 31.3951C35.0585 31.3232 34.9942 31.4239 34.9242 31.4709C32.4937 33.0858 29.8205 34.0155 26.9199 34.2823C26.6004 34.3111 26.5361 34.4118 26.5371 34.7073C26.5448 40.1113 26.5467 45.5143 26.5333 50.9182C26.5323 51.2339 26.6733 51.3059 26.919 51.3999C28.909 52.1599 30.0959 54.1614 29.7802 56.1965C29.4521 58.3113 27.7067 59.8906 25.5814 59.9971C23.4695 60.1027 21.5102 58.5982 21.065 56.5275C20.6006 54.3667 21.7165 52.2376 23.7689 51.445C24.146 51.2992 24.2487 51.1226 24.2477 50.7331C24.2333 45.4251 24.2343 40.118 24.2477 34.81C24.2487 34.432 24.1719 34.3101 23.7699 34.2737C20.9345 34.0146 18.3227 33.0954 15.9422 31.5275C15.8626 31.4748 15.781 31.4239 15.6985 31.374C15.6879 31.3673 15.6697 31.3731 15.5987 31.3731C15.5987 31.5045 15.5987 31.6388 15.5987 31.7732C15.5987 36.3932 15.6016 41.0132 15.592 45.6342C15.591 45.9403 15.6543 46.0938 15.9719 46.2224C17.7873 46.9584 18.7737 48.8687 18.3698 50.7897C17.9831 52.6252 16.3135 53.9685 14.4348 53.9561C12.5407 53.9426 10.8808 52.5926 10.5171 50.7686C10.1295 48.8246 11.1082 46.9603 12.937 46.2157C13.2249 46.0986 13.3026 45.9624 13.3016 45.664C13.292 40.356 13.2949 35.0489 13.2949 29.7409C13.2949 29.5509 13.3016 29.3792 13.1414 29.217C12.0178 28.0848 11.0804 26.8154 10.3051 25.4011ZM25.3636 19.9443C25.3646 19.9328 25.3646 19.9213 25.3655 19.9098C25.5411 19.9098 25.7177 19.9175 25.8923 19.9088C26.8077 19.8618 26.8077 19.8609 26.9535 18.9436C26.9833 18.7546 27.012 18.5646 27.0322 18.3746C27.0543 18.1702 27.1569 18.0791 27.344 17.961C28.2172 17.4074 28.9551 17.5456 29.6248 18.2892C29.6459 18.3122 29.6756 18.3276 29.6977 18.3506C29.8493 18.5089 29.9827 18.4801 30.1506 18.3506C30.6697 17.9467 31.1303 17.487 31.5716 16.9987C31.8979 16.6388 32.0073 16.3376 31.6081 15.9643C31.4354 15.8031 31.3308 15.5719 31.1658 15.4001C30.9451 15.1689 31.0142 14.9722 31.0842 14.6834C31.303 13.7785 31.848 13.413 32.7374 13.4609C32.8152 13.4648 32.8948 13.4178 32.9725 13.4197C33.199 13.4264 33.2604 13.3036 33.2892 13.1002C33.3985 12.3354 33.3899 11.5736 33.3007 10.8079C33.2671 10.5229 33.1328 10.4414 32.8708 10.4193C32.5052 10.3896 32.1435 10.3205 31.7808 10.2677C31.6388 10.2476 31.5227 10.2245 31.444 10.0595C30.8769 8.87162 30.8722 8.87354 31.6609 7.80848C31.6992 7.75763 31.7328 7.70102 31.7779 7.65688C31.966 7.47553 31.9267 7.31721 31.7741 7.12339C31.3567 6.59374 30.8817 6.1255 30.378 5.67933C30.0681 5.40491 29.8205 5.33487 29.4981 5.65343C29.2726 5.87603 28.9934 6.04299 28.7411 6.23873C28.6106 6.33947 28.506 6.36538 28.3179 6.31645C27.3613 6.06889 26.8144 5.53637 26.9065 4.49146C26.9094 4.46076 26.895 4.42813 26.894 4.39647C26.8892 4.14508 26.7568 4.03857 26.5112 4.01267C25.8414 3.94166 25.1746 3.94166 24.502 3.98004C24.0452 4.00595 23.8505 4.18538 23.8466 4.63731C23.8447 4.90693 23.7689 5.17463 23.7497 5.44521C23.7305 5.72155 23.5511 5.79735 23.341 5.94128C22.4899 6.52562 21.823 6.24256 21.1907 5.60161C21.1571 5.56803 21.1101 5.54788 21.0775 5.5143C20.9249 5.35502 20.7935 5.38572 20.6265 5.5143C20.1045 5.91537 19.6421 6.37402 19.2036 6.86337C18.8869 7.21646 18.7564 7.51871 19.1681 7.89964C19.3868 8.10209 19.5375 8.37939 19.7207 8.62023C19.8004 8.72481 19.8426 8.81021 19.7889 8.96277C19.3312 10.2476 19.3369 10.2639 17.9457 10.4107C17.5954 10.4481 17.488 10.593 17.4563 10.9077C17.3939 11.5304 17.4208 12.1512 17.4304 12.7749C17.4381 13.2719 17.652 13.4792 18.1385 13.484C18.4235 13.4869 18.7075 13.5569 18.9934 13.5886C19.1431 13.6049 19.2525 13.6385 19.3293 13.7997C19.9021 14.9933 19.9059 14.9914 19.1124 16.0516C19.074 16.1025 19.0395 16.1581 18.9934 16.2023C18.8063 16.3836 18.8457 16.5448 18.9982 16.7367C19.4175 17.2644 19.8935 17.7317 20.3943 18.1808C20.7311 18.483 20.9883 18.5041 21.3145 18.1817C21.54 17.9591 21.824 17.7979 22.0754 17.6012C22.1838 17.5158 22.274 17.4832 22.4189 17.536C23.6806 17.9889 23.6893 17.985 23.8581 19.3322C23.8984 19.6575 23.9733 19.8647 24.3638 19.8561C24.6958 19.8474 25.0297 19.9117 25.3636 19.9443ZM22.962 20.3301C22.7115 20.0441 22.487 19.7553 22.2299 19.4982C21.5649 18.8342 21.5601 18.84 20.8155 19.3974C20.3742 19.7285 19.502 19.3648 19.4233 18.8179C19.2909 17.8987 19.2909 17.8987 18.3429 17.892C18.2786 17.892 18.2153 17.891 18.151 17.892C17.249 17.8987 17.249 17.8987 17.1214 18.8092C17.0428 19.3686 16.1715 19.7381 15.7234 19.4022C14.975 18.8409 14.975 18.8409 14.3101 19.4934C14.2755 19.527 14.2419 19.5605 14.2084 19.5951C13.5367 20.2754 13.5367 20.2754 14.1047 21.042C14.4175 21.4642 14.0472 22.346 13.5281 22.416C12.6021 22.5408 12.6021 22.5408 12.5782 23.4763C12.5753 23.5723 12.5724 23.6692 12.583 23.7632C12.6991 24.762 12.4419 24.5596 13.4772 24.716C14.0625 24.8043 14.43 25.6611 14.074 26.1428C13.5444 26.8595 13.5444 26.8595 14.1681 27.5158C14.2007 27.5504 14.2333 27.5859 14.2679 27.6195C14.9625 28.3007 14.9625 28.3007 15.7522 27.725C16.1447 27.4391 17.036 27.8037 17.1138 28.2825C17.2711 29.2497 17.2711 29.2497 18.2383 29.2583C18.2863 29.2583 18.3343 29.2583 18.3822 29.2573C19.2938 29.2324 19.2938 29.2324 19.4223 28.34C19.501 27.7941 20.3732 27.4199 20.8107 27.7442C21.563 28.3026 21.563 28.3026 22.25 27.6291C22.273 27.607 22.2951 27.584 22.3172 27.5609C22.9984 26.871 22.9984 26.871 22.4323 26.1102C22.0994 25.663 22.4812 24.7899 23.0416 24.7189C23.9416 24.6047 23.9416 24.6047 23.9531 23.6778C23.9541 23.6135 23.9541 23.5502 23.9531 23.4859C23.9435 22.5408 23.9435 22.5408 23.0109 22.416C22.4822 22.345 22.1042 21.4748 22.4179 21.0497C22.5887 20.8213 22.7633 20.5939 22.962 20.3301ZM29.2918 18.9014C29.194 18.9657 29.1115 19.0127 29.0366 19.0693C28.6653 19.3514 28.3486 19.6862 28.0454 20.0393C27.8526 20.2639 27.8219 20.4433 28.0483 20.6438C28.5329 21.0727 28.5828 21.5458 28.2498 22.1023C28.1404 22.2856 28.055 22.3863 27.8353 22.416C26.8134 22.5542 26.8144 22.5619 26.8192 23.6058C26.8192 23.6701 26.8201 23.7334 26.8221 23.7977C26.8461 24.6143 26.847 24.6143 27.6597 24.7141C28.3227 24.7947 28.6893 25.64 28.2911 26.1706C27.7797 26.8519 27.7797 26.8528 28.3765 27.4803C28.4091 27.5149 28.4427 27.5494 28.4772 27.583C29.1921 28.3036 29.1921 28.3036 29.9904 27.7212C30.379 27.4372 31.2771 27.8094 31.3452 28.2825C31.4853 29.2545 31.4853 29.2545 32.4784 29.2593C32.558 29.2593 32.6386 29.2593 32.7182 29.2516C33.6528 29.1623 33.5098 29.3773 33.6471 28.3851C33.7324 27.7701 34.596 27.4036 35.095 27.7759C35.7887 28.293 35.7887 28.293 36.4344 27.6876C36.469 27.655 36.5045 27.6223 36.5381 27.5878C37.2395 26.8835 37.2395 26.8835 36.6705 26.1015C36.3567 25.6707 36.7271 24.7927 37.2529 24.7217C38.1702 24.597 38.1702 24.597 38.199 23.6615C38.2009 23.6135 38.2009 23.5655 38.2009 23.5176C38.1865 22.5427 38.1865 22.5427 37.2385 22.4141C36.728 22.345 36.3625 21.4537 36.6733 21.0353C37.2404 20.2725 37.2404 20.2725 36.5601 19.5874C36.515 19.5423 36.4699 19.4972 36.4239 19.4521C35.7916 18.8409 35.7916 18.8409 35.0806 19.3763C34.6018 19.7361 33.7305 19.384 33.649 18.7977C33.5233 17.8968 33.5233 17.8968 32.6098 17.89C32.5455 17.89 32.4822 17.89 32.4179 17.89C31.4805 17.8977 31.4805 17.8977 31.3481 18.8294C31.2703 19.3754 30.3943 19.7227 29.9462 19.3859C29.7294 19.2257 29.5116 19.0645 29.2918 18.9014ZM25.3761 57.4362C26.4181 57.441 27.273 56.5918 27.273 55.5536C27.273 54.5366 26.4383 53.6883 25.4212 53.673C24.3811 53.6576 23.5156 54.4953 23.5002 55.5335C23.4849 56.565 24.3389 57.4314 25.3761 57.4362ZM46.3625 44.5999C47.4045 44.5884 48.2383 43.7267 48.2162 42.6837C48.1951 41.6638 47.3508 40.8357 46.3327 40.8377C45.2916 40.8396 44.453 41.6897 44.4588 42.7365C44.4646 43.7843 45.3099 44.6114 46.3625 44.5999ZM6.31449 42.7135C6.31065 41.6686 5.45956 40.8261 4.4185 40.8377C3.38415 40.8482 2.54458 41.7127 2.55705 42.7547C2.56856 43.7718 3.41101 44.5989 4.43481 44.6008C5.48451 44.6018 6.31832 43.7642 6.31449 42.7135Z" fill="#96644D"/>
<path d="M25.3684 16.2119C22.9879 16.2023 21.0881 14.2852 21.0967 11.9027C21.1053 9.54327 23.0579 7.6233 25.4279 7.64344C27.7749 7.66263 29.6824 9.59317 29.6747 11.9382C29.6661 14.3207 27.7509 16.2215 25.3684 16.2119Z" fill="#689F4E"/>
<path d="M18.2507 26.6292C16.5668 26.6244 15.2139 25.261 15.2158 23.5703C15.2177 21.8835 16.5716 20.521 18.2565 20.5114C19.9414 20.5009 21.3461 21.9142 21.3269 23.6001C21.3077 25.284 19.9356 26.635 18.2507 26.6292Z" fill="#689F4E"/>
<path d="M35.5566 23.5751C35.5537 25.2677 34.2017 26.6264 32.5178 26.6292C30.8339 26.6321 29.4618 25.2783 29.4455 23.5962C29.4291 21.9094 30.8396 20.4941 32.5197 20.5114C34.2113 20.5296 35.5594 21.8893 35.5566 23.5751Z" fill="#689F4E"/>
</g>
<defs>
<clipPath id="clip0_160_456">
<rect width="50.7618" height="60" fill="white"/>
</clipPath>
</defs>
</svg>
