<svg width="28" height="34" viewBox="0 0 28 34" fill="none" xmlns="http://www.w3.org/2000/svg">
<g clip-path="url(#clip0_160_729)">
<path d="M20.7262 34C20.5983 33.7641 20.3396 33.8 20.14 33.742C17.2159 32.88 15.2977 29.9931 15.8495 26.8579C16.4357 23.5296 19.2938 21.4234 22.5371 21.7531C25.1819 22.022 27.312 24.0607 27.8611 26.8524C27.8817 26.9586 27.8432 27.0869 28.0001 27.1172C28.0001 27.6676 28.0001 28.2179 28.0001 28.7696C27.7799 28.9627 27.8033 29.2496 27.729 29.4965C27.2474 31.1186 26.2965 32.3614 24.8255 33.2165C24.1801 33.5917 23.455 33.7158 22.7834 34.0014C22.0982 34 21.4129 34 20.7262 34ZM21.8546 25.0483C20.8927 25.0483 20.8927 25.0483 20.8927 25.9972C20.8927 26.0662 20.8817 26.1365 20.8941 26.2027C21.0069 26.7889 20.7538 26.9558 20.1923 26.8993C19.8456 26.8648 19.3708 26.7296 19.1685 27.0841C18.9167 27.5241 18.9993 28.08 19.119 28.5545C19.2208 28.9545 19.6639 28.7834 19.9611 28.7903C20.89 28.811 20.89 28.8 20.8914 29.7379C20.8927 30.6552 20.9313 30.6938 21.8684 30.6924C22.7876 30.6924 22.7876 30.6924 22.7889 29.7862C22.7903 28.8027 22.7903 28.811 23.8113 28.7917C24.0893 28.7862 24.4664 28.9255 24.6026 28.5669C24.776 28.1145 24.7787 27.6055 24.6053 27.1614C24.4512 26.7655 24.0191 26.8952 23.6889 26.891C22.7889 26.8786 22.7876 26.8855 22.7876 25.9986C22.7903 25.0483 22.7903 25.0483 21.8546 25.0483Z" fill="#689F4E"/>
<path d="M24.8432 0C25.6785 0.38069 25.9991 1.00828 25.995 1.94759C25.9647 8.11724 25.9799 14.2869 25.9799 20.4552C25.9799 20.6372 25.9799 20.8193 25.9799 21.0524C25.2918 20.8469 24.9286 20.5834 24.9354 19.7545C24.9822 13.8607 24.9451 7.96552 24.9795 2.07172C24.9836 1.34207 24.7689 1.21931 24.1002 1.22069C16.6901 1.24552 9.28141 1.24414 1.87135 1.22069C1.26313 1.21931 1.11177 1.37517 1.11314 1.98069C1.13378 11.2717 1.13241 20.56 1.11589 29.8483C1.11452 30.4097 1.24937 30.5807 1.82732 30.5766C5.69266 30.5503 9.55663 30.5628 13.422 30.5628C14.5159 30.5628 14.5159 30.5628 14.904 31.6593C10.4401 31.6593 5.98301 31.6648 1.52734 31.6552C0.77188 31.6538 0.299892 31.2069 0.134766 30.4262C0.134766 20.6952 0.134766 10.9641 0.134766 1.2331C0.173295 0.526897 0.714085 0.271724 1.23561 0C9.10528 0 16.9736 0 24.8432 0Z" fill="#96644D"/>
<path d="M0.134854 1.23315C0.134854 10.9642 0.134854 20.6952 0.134854 30.4263C0.0894437 30.4249 0.0454099 30.4221 0 30.4207C0 20.6938 0 10.9669 0 1.23867C0.0454099 1.23729 0.0894437 1.23591 0.134854 1.23315Z" fill="#96644D"/>
<path d="M14.2943 25.4662C14.3163 26.16 14.1154 26.4648 13.3352 26.4497C10.4785 26.3931 7.61906 26.429 4.76099 26.4262C3.95462 26.4262 3.84316 26.3145 3.84316 25.5214C3.84178 20.4303 3.85004 15.3393 3.83352 10.2497C3.83077 9.60828 4.0303 9.34897 4.69769 9.35035C10.2542 9.3669 15.8107 9.3669 21.3672 9.35035C21.9947 9.34897 22.2245 9.58897 22.2218 10.1972C22.2094 13.2924 22.208 16.389 22.2259 19.4841C22.2286 19.8897 22.0993 19.9738 21.7236 19.9752C21.3438 19.9766 21.2159 19.8828 21.2255 19.4841C21.253 18.3614 21.2131 17.2359 21.2461 16.1131C21.2599 15.651 21.1567 15.4841 20.6544 15.4869C15.5562 15.5062 10.4565 15.5021 5.35682 15.491C4.95363 15.4897 4.80502 15.5724 4.80777 16.0166C4.82841 18.9752 4.82841 21.9324 4.80777 24.891C4.80502 25.3517 4.944 25.4607 5.38572 25.4579C8.24379 25.4386 11.1019 25.4483 13.9599 25.4483C14.0714 25.4469 14.1828 25.4593 14.2943 25.4662ZM12.9705 14.5035C15.5328 14.5035 18.0936 14.4938 20.6558 14.5131C21.0893 14.5159 21.264 14.4303 21.2461 13.9503C21.2076 12.92 21.2131 11.8855 21.2448 10.8538C21.2585 10.4124 21.0934 10.3283 20.6916 10.3297C15.5906 10.3421 10.4909 10.3421 5.38984 10.3283C4.95776 10.3269 4.78988 10.4166 4.80777 10.8883C4.84493 11.8966 4.84768 12.9076 4.8064 13.9159C4.78576 14.4166 4.96051 14.5172 5.42425 14.5131C7.9383 14.4924 10.4537 14.5035 12.9705 14.5035Z" fill="#96644D"/>
<path d="M12.7174 20.0882C14.6136 20.0882 16.5112 20.0868 18.4074 20.0896C18.589 20.0896 18.7734 20.0965 18.9495 20.131C19.0238 20.1462 19.1215 20.2317 19.1422 20.3034C19.1807 20.4427 19.0569 20.4731 18.9468 20.5227C18.289 20.8234 17.6574 21.0924 16.8827 21.0799C13.6613 21.0317 10.4386 21.0593 7.21727 21.0593C7.05765 21.0593 6.89665 21.0648 6.73703 21.0579C6.39439 21.0427 6.15908 20.8896 6.17835 20.5172C6.19624 20.1668 6.4398 20.0841 6.75354 20.0855C8.10207 20.091 9.44923 20.0882 10.7978 20.0882C11.4376 20.0882 12.0775 20.0882 12.7174 20.0882Z" fill="#96644D"/>
<path d="M11.5245 18.0317C10.0191 18.0317 8.5123 18.0303 7.00689 18.0331C6.63398 18.0331 6.21016 18.0648 6.18264 17.5558C6.15236 17.0096 6.59132 17.0565 6.96011 17.0565C10.0397 17.0565 13.1207 17.0579 16.2003 17.0552C16.5746 17.0552 17.015 17.0289 16.9984 17.5448C16.9833 18.0276 16.5622 18.0358 16.1783 18.0345C14.6275 18.0276 13.0767 18.0317 11.5245 18.0317Z" fill="#96644D"/>
<path d="M7.38801 5.5407C7.38801 5.12829 7.39214 4.71588 7.38664 4.30346C7.38251 4.04415 7.34535 3.81795 7.74991 3.82346C8.11732 3.8276 8.14759 3.99036 8.14347 4.28277C8.13108 5.17795 8.14484 6.07174 8.13383 6.96691C8.13246 7.12415 8.24117 7.38622 7.95908 7.40415C7.71001 7.41933 7.41553 7.52967 7.24765 7.17381C6.99721 6.64553 6.70411 6.13657 6.31882 5.63312C6.31882 6.05243 6.3257 6.47036 6.31606 6.88967C6.31056 7.13657 6.4344 7.43864 5.95278 7.43312C5.52896 7.4276 5.53309 7.21105 5.53584 6.91312C5.54272 6.06484 5.52896 5.21519 5.54547 4.36691C5.5496 4.17657 5.39135 3.8676 5.78078 3.84139C6.07801 3.8207 6.35459 3.79726 6.51559 4.16691C6.72888 4.65795 7.00822 5.11864 7.25866 5.59312C7.3027 5.57519 7.34535 5.55864 7.38801 5.5407Z" fill="#96644D"/>
<path d="M11.6678 5.7904C11.6499 4.34488 12.4205 3.56419 13.4429 3.80971C13.9782 3.93798 14.2644 4.29109 14.402 4.77109C14.5479 5.27867 14.585 5.79591 14.435 6.32695C14.2355 7.03316 13.8282 7.41936 13.1677 7.43867C12.4411 7.46074 11.9925 7.11867 11.793 6.38074C11.727 6.14074 11.6884 5.89247 11.6678 5.7904ZM13.725 5.59454C13.6314 5.1835 13.6589 4.58764 13.1099 4.59867C12.5416 4.60971 12.4893 5.18626 12.5113 5.65385C12.5306 6.07454 12.5086 6.62212 13.1264 6.60005C13.7415 6.5766 13.6108 5.99592 13.725 5.59454Z" fill="#96644D"/>
<path d="M20.8859 7.41793C19.7631 7.41793 19.7631 7.41793 19.7631 6.27172C19.7631 5.60689 19.7741 4.94206 19.7576 4.27724C19.7507 3.98206 19.7851 3.80689 20.1525 3.83034C20.6534 3.86206 21.1584 3.84965 21.6607 3.8331C21.9207 3.82482 22.0184 3.89655 22.0226 4.17517C22.0267 4.47448 21.9414 4.58896 21.6373 4.55999C21.3882 4.53655 21.135 4.56137 20.8832 4.55448C20.6864 4.54896 20.5983 4.6262 20.5915 4.83172C20.5832 5.0593 20.6561 5.17793 20.8983 5.16689C21.0579 5.15999 21.2203 5.1531 21.3772 5.16965C21.6139 5.19586 21.9441 5.02896 21.9524 5.5131C21.9606 6.03448 21.607 5.87586 21.3428 5.89655C21.1832 5.90896 21.0222 5.90758 20.8625 5.89793C20.586 5.87999 20.5942 6.05931 20.5915 6.25379C20.5901 6.45655 20.6038 6.61793 20.8722 6.60413C21.1226 6.59172 21.3744 6.60275 21.6263 6.60137C21.8712 6.60137 22.1189 6.53379 22.1051 6.95448C22.0927 7.30896 22.0047 7.45655 21.64 7.41931C21.391 7.39724 21.1378 7.41793 20.8859 7.41793Z" fill="#96644D"/>
<path d="M16.5968 5.64C16.605 4.22344 17.3412 3.52275 18.3623 3.82069C18.7035 3.92 18.9265 4.12137 19.0489 4.42758C19.1053 4.56827 19.3406 4.79172 19.093 4.88689C18.8976 4.96275 18.61 5.24 18.3898 4.85931C18.2687 4.65103 18.0939 4.5062 17.8311 4.61793C17.6013 4.71586 17.4788 4.92 17.4541 5.14896C17.4224 5.44275 17.4238 5.74344 17.4444 6.03862C17.4623 6.29931 17.5697 6.53931 17.8559 6.60275C18.1421 6.6662 18.332 6.53655 18.4214 6.24965C18.5205 5.92689 18.7228 6.02482 18.9498 6.10896C19.2416 6.21655 19.2498 6.36275 19.1329 6.6262C18.9361 7.07448 18.676 7.40413 18.1462 7.43724C17.5793 7.4731 17.1183 7.33379 16.8404 6.78069C16.6408 6.38069 16.5651 5.96551 16.5968 5.64Z" fill="#96644D"/>
<path d="M11.5106 3.89929C11.2051 4.95308 10.8817 5.99308 10.612 7.0455C10.5295 7.36964 10.3863 7.42619 10.0974 7.42481C9.80427 7.42343 9.57997 7.4055 9.48778 7.05791C9.24146 6.13791 8.96625 5.22619 8.71581 4.30757C8.67315 4.15032 8.4461 3.87446 8.82727 3.85377C9.0667 3.84136 9.4176 3.64963 9.51392 4.14481C9.64602 4.82757 9.85106 5.49653 10.0685 6.34343C10.2515 5.62205 10.4455 5.08826 10.5102 4.53929C10.5845 3.91032 10.8556 3.69653 11.5106 3.89929Z" fill="#96644D"/>
<path d="M4.80777 5.57652C4.80777 6.01238 4.80089 6.44825 4.81052 6.88273C4.8174 7.19445 4.85042 7.43445 4.37706 7.43583C3.91883 7.43721 3.98213 7.19032 3.98213 6.91859C3.98213 6.04825 3.99452 5.17652 3.97663 4.30618C3.96975 3.9779 4.02204 3.82756 4.41146 3.82342C4.8463 3.81928 4.8174 4.05101 4.81052 4.3379C4.80089 4.75032 4.80777 5.16411 4.80777 5.57652Z" fill="#96644D"/>
<path d="M15.939 5.62763C15.939 6.08556 15.9225 6.54487 15.9446 7.00143C15.9611 7.32556 15.8606 7.43453 15.5249 7.43039C15.1932 7.42625 15.0942 7.32005 15.101 6.99453C15.1189 6.07867 15.123 5.16281 15.0997 4.24694C15.09 3.9035 15.2097 3.83177 15.5276 3.82763C15.8592 3.8235 15.9638 3.92694 15.9459 4.25522C15.9198 4.71039 15.939 5.1697 15.939 5.62763Z" fill="#96644D"/>
<path d="M11.5616 12.8482C10.0094 12.8482 8.45723 12.8496 6.90504 12.8469C6.56377 12.8455 6.16334 12.8855 6.1771 12.3696C6.19086 11.891 6.57066 11.8703 6.92017 11.8703C10.0246 11.8662 13.1289 11.8676 16.2333 11.8689C16.6214 11.8689 17.0273 11.9213 17.0012 12.4179C16.9764 12.891 16.5595 12.8496 16.2168 12.8496C14.666 12.8482 13.1138 12.8482 11.5616 12.8482Z" fill="#96644D"/>
</g>
<defs>
<clipPath id="clip0_160_729">
<rect width="28" height="34" fill="white"/>
</clipPath>
</defs>
</svg>
