<svg width="75" height="53" viewBox="0 0 75 53" fill="none" xmlns="http://www.w3.org/2000/svg">
<g clip-path="url(#clip0_160_485)">
<path d="M74.769 36.0959C74.2314 32.2753 72.2511 29.2904 68.9744 27.1827C66.736 25.7252 64.2824 25.0407 61.6051 25.1589C58.5746 25.1507 55.5441 25.1412 52.5137 25.1329C51.781 25.1306 51.7798 25.1306 52.1176 24.5088C53.9504 21.135 54.5379 17.5544 53.8957 13.7787C52.3709 4.79699 43.6767 -1.32163 34.6756 0.244669C24.4685 2.02139 18.3635 12.3318 21.7413 22.0748C22.1017 23.1127 22.6012 24.0856 23.1459 25.1306C22.8093 25.1306 22.5548 25.1306 22.3015 25.1306C19.0331 25.1341 15.7588 25.0254 12.4964 25.166C7.27031 25.3906 3.51906 27.9854 1.19981 32.6216C0.0925107 34.8357 -0.0502127 37.2248 0.0116341 39.6469C0.0960788 42.9947 1.23787 45.9204 3.56069 48.3449C6.19632 51.0969 9.4635 52.3854 13.2885 52.3807C27.8724 52.3653 42.4576 52.3748 57.0416 52.3736C58.8244 52.3736 60.612 52.4422 62.3913 52.3488C67.7411 52.071 71.5649 49.4609 73.8437 44.6638C75.1389 41.932 75.1781 39.0003 74.769 36.0959ZM22.4953 20.0557C20.5579 11.4618 25.9433 3.2898 34.6589 1.55564C42.8192 -0.067409 51.1102 5.54527 52.5755 13.7066C53.3819 18.1998 52.4244 22.2911 49.6425 25.9415C49.5961 26.0018 49.5343 26.0491 49.4784 26.1034C49.3012 26.4935 48.8873 26.7146 48.7339 27.1212C49.2667 27.1721 49.3618 27.4936 49.3714 27.8683C49.363 27.4936 49.2667 27.1721 48.7339 27.1212L48.7291 27.126C47.893 27.7619 47.1936 28.5634 46.2909 29.119C46.1268 29.2195 45.9591 29.3164 45.7926 29.4145C42.5896 31.5093 39.0727 32.2173 35.2988 31.7173C32.6584 31.3674 30.2868 30.3496 28.1591 28.762C27.9557 28.6107 27.7749 28.4298 27.5846 28.262C26.9543 27.788 26.3655 27.2714 25.9171 26.6153C24.1593 24.7476 23.0531 22.5311 22.4953 20.0557ZM73.5511 39.4673C73.274 45.3506 69.2694 49.9136 63.4415 50.9787C62.7993 51.0957 62.1487 51.1525 61.4922 51.1525C45.4833 51.1489 29.4757 51.1513 13.4669 51.1477C6.80646 51.1454 1.45552 45.7549 1.38773 39.1209C1.34848 35.3275 2.53308 32.0991 5.33998 29.5044C6.95275 28.0137 8.85335 27.0125 11.018 26.6248C12.2038 26.412 13.4193 26.2666 14.6384 26.3233C16.5402 26.3351 18.442 26.347 20.345 26.36C20.3842 26.3422 20.4247 26.3245 20.4639 26.3068C20.5436 26.328 20.6245 26.3493 20.7042 26.3706C20.9801 26.3718 21.2572 26.3718 21.5331 26.373C21.8115 26.3718 22.091 26.3694 22.3693 26.3682C22.7249 26.3694 23.0805 26.3718 23.4361 26.373C24.1426 26.1803 24.3055 26.7725 24.6041 27.1697C26.3025 29.0658 28.2507 30.6191 30.5937 31.6866C36.5786 34.4149 43.9015 33.2742 48.7148 28.8235C48.7422 28.7987 48.7553 28.7597 48.7755 28.7266C48.8528 28.6805 48.9313 28.6332 49.0086 28.5871C49.1287 28.4358 49.2489 28.2856 49.3678 28.1343C49.9078 27.6449 50.4204 27.1295 50.82 26.516C50.9021 26.3907 51.0115 26.341 51.1649 26.3434C51.8714 26.3564 52.5791 26.3611 53.2855 26.3694C53.8005 26.354 54.3155 26.3399 54.8305 26.3245C57.032 26.3316 59.2347 26.3375 61.4362 26.347C61.6908 26.3481 61.9453 26.373 62.1998 26.386C62.2795 26.3718 62.3592 26.3588 62.4377 26.3446C62.4496 26.3706 62.4543 26.3978 62.452 26.4262C62.5281 26.412 62.6042 26.3978 62.6803 26.3836C64.3561 26.594 65.9332 27.1165 67.4342 27.8754C69.0422 28.9074 70.4695 30.1226 71.5387 31.7291C73.1063 34.0827 73.6819 36.6834 73.5511 39.4673Z" fill="#96644D"/>
<path d="M51.8547 37.0581C51.3754 36.0368 50.8616 35.032 50.3133 33.9232C49.7293 35.0485 49.1929 36.0675 48.6743 37.096C48.5578 37.3276 48.4293 37.4388 48.151 37.4719C46.9807 37.6114 45.8139 37.7887 44.5425 37.9672C45.4119 38.8455 46.2195 39.6718 47.039 40.4851C47.2483 40.6931 47.3399 40.8704 47.2697 41.1991C47.0223 42.3375 46.8344 43.4888 46.6084 44.7182C47.3696 44.3482 48.0951 44.1 48.7005 43.6803C49.7507 42.951 50.6843 43.0455 51.6941 43.7418C52.2757 44.1425 52.9513 44.4097 53.6792 44.7868C53.5019 43.6614 53.3771 42.6673 53.1808 41.6873C53.0702 41.1305 53.1915 40.7534 53.6233 40.361C54.3845 39.6682 55.0743 38.8975 55.826 38.1244C54.7341 37.9423 53.6696 37.7378 52.5957 37.6007C52.2032 37.5499 52.0129 37.3962 51.8547 37.0581Z" fill="#689F4E"/>
<path d="M64.6371 37.1078C64.1376 36.0675 63.6202 35.0355 63.0731 33.9255C62.7698 34.5048 62.5153 35.0308 62.2251 35.5379C61.8576 36.1787 61.6506 36.9104 61.132 37.466C60.5326 37.5464 59.932 37.6267 59.3325 37.7071C58.8175 37.7473 58.3037 37.7911 57.8018 37.927C57.6591 37.9164 57.5152 37.8927 57.332 38.0062C57.4962 38.1551 57.6436 38.2887 57.7911 38.4235C57.8637 38.498 57.9362 38.5713 58.0088 38.6457C58.4369 39.1611 58.9151 39.6292 59.4217 40.0678C59.5514 40.2711 59.7215 40.4354 59.9201 40.5714C59.9712 40.6317 60.0236 40.6931 60.0747 40.7534C59.8463 42.0455 59.6168 43.3387 59.373 44.7159C60.4874 44.1733 61.5079 43.6733 62.5307 43.1815C62.7175 43.0917 62.8982 42.9309 63.1349 43.0515C63.2206 43.0988 63.3062 43.1472 63.3918 43.1945C63.6428 43.2938 63.8236 43.5976 64.1578 43.4522C64.1578 43.4522 64.1911 43.4498 64.1911 43.4487C64.0793 43.7324 64.3314 43.6673 64.4563 43.7229C64.7858 43.9664 65.1438 44.1556 65.5303 44.2915L65.5577 44.3246L65.6017 44.3211C65.8324 44.4948 66.075 44.6426 66.4223 44.7313C66.3355 44.4014 66.4057 44.1 66.2451 43.8305C66.2344 43.7123 66.2249 43.5952 66.2142 43.477C66.238 43.3092 66.2023 43.1531 66.1214 43.0054C66.1357 42.7595 66.1226 42.5195 66.006 42.2949C65.9918 42.1436 65.9763 41.9911 65.962 41.8398C65.7265 41.153 65.962 40.6411 66.5341 40.2274C66.772 40.056 66.9599 39.8184 67.174 39.6139C67.6604 39.1505 68.1493 38.6883 68.7249 38.1421C67.4678 37.9376 66.3819 37.739 65.2889 37.596C64.9392 37.5487 64.7763 37.3962 64.6371 37.1078Z" fill="#689F4E"/>
<path d="M26.5216 37.4506C26.3776 37.1633 26.2337 36.8761 26.0898 36.59L26.091 36.5888C25.6747 35.7164 25.2584 34.8452 24.7994 33.8818C24.2748 34.9398 23.7991 35.8997 23.3222 36.8595C23.1485 37.3525 22.762 37.4813 22.2767 37.5345C21.2229 37.648 20.1727 37.8076 19.1213 37.9483C19.0785 38.0026 19.0345 38.0582 18.9917 38.1126C19.7814 38.849 20.5581 39.6009 21.368 40.316C21.7391 40.6435 21.8259 40.9698 21.7165 41.4497C21.4798 42.497 21.311 43.5586 21.0945 44.7206C22.2208 44.1733 23.2496 43.6863 24.263 43.1709C24.5567 43.0207 24.7815 43.0136 25.0777 43.1756C26.0767 43.7229 27.0948 44.2359 28.1653 44.7915C27.994 43.6685 27.8691 42.6141 27.6574 41.5774C27.5563 41.0856 27.6776 40.7818 28.0273 40.4473C28.8016 39.7061 29.5306 38.9176 30.2799 38.148C30.1634 38.0417 29.9957 38.07 29.8434 38.0417C28.7397 37.8289 27.611 37.7509 26.5216 37.4506Z" fill="#689F4E"/>
<path d="M40.0863 37.6776C39.7318 37.5286 39.2573 37.6043 39.0955 37.1031C39.0016 36.8134 38.8517 36.5392 38.7161 36.2637C38.3427 35.5048 37.9644 34.7483 37.547 33.9102C37.183 34.6431 36.8702 35.272 36.5586 35.8997L36.5432 35.9529L36.5836 35.9895L36.5729 36.0084C36.2434 36.2271 36.1816 36.6137 36.0175 36.9293C35.8426 37.2662 35.6595 37.4671 35.2349 37.5002C34.5093 37.5558 33.7898 37.7024 33.0678 37.8111C32.6694 37.8537 32.2722 37.8963 31.7417 37.9542C32.2995 38.4979 32.7598 38.946 33.2201 39.394L33.2498 39.4259C33.4508 39.6505 33.6328 39.8952 33.8968 40.056C34.3238 40.4756 34.7329 40.9012 34.4749 41.5774C34.3464 41.718 34.3785 41.8906 34.3797 42.0573C34.3619 42.1306 34.3452 42.2039 34.3274 42.2772C34.2334 42.4297 34.2465 42.5987 34.2524 42.7666C34.1644 42.8647 34.143 42.9805 34.1632 43.1058C34.1549 43.1898 34.1478 43.2737 34.1395 43.3576C34.0074 43.5763 34.0051 43.8198 34.0062 44.0633C33.8873 44.2489 33.8623 44.444 33.9289 44.7005C34.5676 44.3719 35.1718 44.0622 35.776 43.7513L35.801 43.7335C35.8961 43.7205 35.9972 43.7182 36.0448 43.6106C36.5919 43.4995 36.9999 43.0325 37.585 43.0172L37.6088 43.0314C37.968 43.211 38.2535 43.5609 38.7137 43.5089C38.7137 43.5089 38.7387 43.5349 38.7387 43.5338C38.6816 43.7359 38.8469 43.7016 38.9504 43.7312C39.1229 43.8269 39.2953 43.9239 39.469 44.0196C39.6724 44.1177 39.8746 44.217 40.0779 44.3151C40.2492 44.4759 40.4585 44.5681 40.6774 44.6402C40.7142 44.6544 40.7511 44.6686 40.7868 44.684C40.9367 44.6674 40.9414 44.6012 40.813 44.3518C40.8356 43.9711 40.7464 43.6047 40.6548 43.2406C40.6726 43.1106 40.6798 42.9829 40.5834 42.8753C40.5691 42.7607 40.5561 42.646 40.5418 42.5313C40.5525 42.3646 40.5715 42.1956 40.455 42.0514C40.4443 41.9745 40.4336 41.8977 40.424 41.8221C40.2599 41.166 40.4133 40.6447 40.9973 40.2357C41.215 40.0832 41.4933 39.9129 41.529 39.5843C42.0261 39.1351 42.6113 38.7734 42.9931 38.1859C42.2557 37.927 41.5028 37.9861 40.7951 37.7922C40.5763 37.6527 40.3277 37.6858 40.0863 37.6776ZM34.6485 39.8633C34.677 39.8822 34.6985 39.9141 34.7056 39.9614C34.7151 40.0477 34.6866 40.1139 34.5974 40.1352C34.6866 40.1151 34.7151 40.0477 34.7056 39.9614C34.6985 39.9141 34.677 39.8834 34.6485 39.8633ZM33.0583 38.0535C33.0583 38.0795 33.0595 38.1043 33.0607 38.1291C33.0583 38.1043 33.0583 38.0795 33.0583 38.0535ZM33.1225 38.3951C33.1416 38.4329 33.1654 38.4672 33.1963 38.4979C33.1666 38.4684 33.1416 38.4341 33.1225 38.3951Z" fill="#689F4E"/>
<path d="M14.718 37.6622C14.3766 37.5452 13.9496 37.6894 13.6904 37.3288C13.1623 36.22 12.6354 35.1112 12.0455 33.8735C11.5507 34.8771 11.1225 35.746 10.6932 36.6148C10.4553 37.2709 9.9748 37.518 9.28497 37.5723C8.30374 37.648 7.32966 37.8206 6.32227 37.9565C6.85272 38.4991 7.33203 38.9885 7.81016 39.4779C7.91006 39.5796 8.00878 39.6801 8.10869 39.7817L8.13366 39.8077C8.24903 39.9401 8.34418 40.1033 8.48453 40.1978C9.0245 40.5619 9.07445 41.0265 8.93173 41.6246C8.69385 42.6188 8.53686 43.6331 8.32991 44.7253C9.24215 44.2832 10.0937 43.9499 10.8573 43.4758C11.6268 42.9971 12.2596 43.0467 13.0005 43.5231C13.7284 43.9912 14.5384 44.334 15.4328 44.7939C15.2282 43.6283 15.0498 42.607 14.8714 41.5868C14.7406 41.0277 14.9963 40.6494 15.4185 40.3078C15.7622 40.0288 16.0524 39.6836 16.3664 39.3668C16.2891 39.3254 16.2178 39.2793 16.1535 39.2297C16.0893 39.18 16.031 39.1268 15.9787 39.0713C16.031 39.128 16.0893 39.18 16.1535 39.2297C16.2178 39.2793 16.2891 39.3254 16.3664 39.3668C16.7779 38.9862 17.1895 38.6055 17.7068 38.1268C16.879 38.0109 16.1738 37.9116 15.4685 37.8123C15.2175 37.7638 14.957 37.7438 14.718 37.6622Z" fill="#689F4E"/>
<path d="M33.5826 23.8515C33.993 23.7853 34.2962 23.9568 34.5805 24.2369C34.9992 24.6483 35.507 24.9344 36.1065 24.9367C38.5423 24.945 40.9769 24.9296 43.4127 24.9237C43.6101 24.9415 43.8064 24.9592 44.0038 24.9769C44.52 24.9509 45.0374 24.9249 45.5536 24.8989C45.6107 24.8717 45.6677 24.8457 45.7248 24.8185C45.9877 24.6637 46.2493 24.51 46.5122 24.3551C46.5181 24.3185 46.5205 24.2807 46.5181 24.2428C46.8904 23.9414 46.8856 23.5241 46.8452 23.1115C46.7786 22.433 46.2707 22.089 45.6701 21.7663C46.7608 21.6504 47.3281 21.2213 47.4875 20.4471C47.6385 19.713 47.321 19.1798 46.3825 18.6573C47.1961 18.4528 47.8371 18.0982 47.8681 17.1891C47.8954 16.3889 47.4922 15.8522 46.7429 15.5247C46.957 15.4112 47.1461 15.3096 47.3352 15.2091C47.6944 15.0448 47.9751 14.8107 48.0595 14.4017C48.2189 14.2315 48.2094 14.0258 48.1868 13.8166C48.2831 13.6475 48.2023 13.4939 48.1464 13.3366C48.1416 13.1475 48.0631 12.9926 47.9251 12.865C47.8681 12.6817 47.742 12.5588 47.579 12.4666C47.1913 12.0304 46.6835 11.8401 46.1185 11.8282C45.098 11.8058 44.0764 11.8164 43.0559 11.8141C42.8573 11.8129 42.6587 11.8117 42.4612 11.8105C42.1044 11.8093 41.7476 11.8082 41.3908 11.807C41.273 11.7975 41.1553 11.781 41.0376 11.7786C40.1824 11.7585 40.1408 11.7195 40.1194 10.8636C40.1015 10.1165 40.1027 9.36709 40.0706 8.61999C40.0004 6.98631 38.8551 5.57959 37.3351 5.23441C36.6988 5.09019 36.4954 5.22614 36.4645 5.86921C36.3967 7.2842 36.3776 8.70274 36.2837 10.1154C36.1588 11.9926 35.2953 13.0446 33.4922 13.5388C33.2032 13.618 33.1747 13.7374 33.1747 13.9702C33.1782 17.1395 33.183 20.3099 33.1699 23.4792C33.1699 23.8114 33.2912 23.8988 33.5826 23.8515Z" fill="#96644D"/>
<path d="M27.7037 24.0241C27.7144 24.6424 28.02 24.9415 28.6599 24.9509C29.408 24.9627 30.1573 24.932 30.9042 24.958C32.7882 25.023 32.9107 24.8481 32.7929 22.9106C32.7929 20.3903 32.7929 17.87 32.7929 15.3498C32.8025 14.6452 32.8322 13.9395 32.8179 13.235C32.8025 12.4914 32.6716 12.4229 31.7511 12.2384C30.6866 12.2266 29.6221 12.1888 28.5576 12.2124C28.0438 12.2243 27.7072 12.534 27.7084 13.0789C27.7108 16.3558 27.7215 19.6326 27.7298 22.9106C27.7191 23.2829 27.6977 23.653 27.7037 24.0241ZM30.9471 22.9815C31.5013 23.5938 31.0386 24.4556 30.3845 24.4627C30.0396 24.4662 29.7791 24.3409 29.6043 24.0454C29.3569 23.6269 29.5032 23.2676 29.7755 22.9271C30.1763 22.7167 30.5688 22.6978 30.9471 22.9815Z" fill="#96644D"/>
<path d="M30.3748 24.1022C30.6734 24.0832 30.8292 23.8953 30.8268 23.5773C30.803 23.2829 30.6306 23.1222 30.3273 23.1281C30.0252 23.1352 29.8468 23.2995 29.8491 23.6092C29.8491 23.9497 30.0466 24.1222 30.3748 24.1022Z" fill="#689F4E"/>
</g>
<defs>
<clipPath id="clip0_160_485">
<rect width="75" height="52.3973" fill="white"/>
</clipPath>
</defs>
</svg>
