<svg width="52" height="60" viewBox="0 0 52 60" fill="none" xmlns="http://www.w3.org/2000/svg">
<g clip-path="url(#clip0_160_557)">
<path d="M46.1732 48.4131H46.0942V47.4796C46.084 47.4557 46.0732 47.4318 46.0616 47.4079V43.7698C46.0724 43.7575 46.0833 43.748 46.0942 43.7393V41.1455C46.0594 41.0173 46.0492 40.8549 46.0521 40.6614C46.0906 38.0821 46.0688 35.5021 46.0688 32.9221V32.1162C46.0043 32.0945 45.9405 32.0734 45.876 32.0517C45.8057 32.159 45.7485 32.2778 45.663 32.3706C43.2772 34.9876 40.8965 37.6089 38.494 40.2107C38.078 40.6614 37.7591 41.2253 37.1641 41.4956C36.3234 42.4298 35.4828 43.3639 34.6428 44.2981V47.2108C34.2884 47.184 34.1108 46.9774 33.9058 46.8368C30.459 44.4764 27.01 42.1189 23.5777 39.736C23.1631 39.4482 22.8928 39.4678 22.4877 39.7483C17.677 43.074 12.851 46.3781 8.03089 49.6901C6.91988 50.4539 6.94452 50.4416 6.15385 49.3175C5.85454 48.8921 5.90019 48.6943 6.32488 48.4102C7.97363 47.3064 9.58977 46.1534 11.2363 45.046C11.6277 44.7829 11.6205 44.6213 11.3139 44.2865C7.67939 40.3237 4.05939 36.345 0.432143 32.3735C0.335755 32.2677 0.261108 32.0981 0.0676062 32.1459C0.0429655 32.1648 0.00672926 32.18 0.00672926 32.1945C0.00383036 40.4527 -0.0121136 48.711 0.015426 56.9692C0.0212238 58.747 1.03004 59.7521 2.80634 59.9536C3.16871 59.9949 3.53687 59.9913 3.90213 59.9913C14.536 59.9949 25.1699 59.9971 35.8038 59.9971C38.1555 59.9971 40.5073 60.0138 42.8576 59.9717C45.0064 59.9333 46.0558 58.8267 46.0674 56.6837C46.0782 54.6457 46.0848 52.6078 46.0935 50.5692C46.0804 49.9423 46.0674 49.3146 46.0536 48.6878C46.1065 48.5957 46.1456 48.5044 46.1732 48.4131ZM40.1717 48.9088C40.2188 48.8262 40.2609 48.7392 40.2949 48.6479C40.2601 48.7399 40.2188 48.8262 40.1717 48.9088Z" fill="#96644D"/>
<path d="M34.6923 41.397C34.6887 41.3985 34.6858 41.3999 34.6821 41.4007C34.6821 41.4021 34.6821 41.4028 34.6821 41.4043C34.6821 41.405 34.6923 41.397 34.6923 41.397Z" fill="#96644D"/>
<path d="M13.182 42.974C13.477 43.2951 13.6784 43.2799 14.0227 43.0494C16.8426 41.1601 19.6835 39.3019 22.4969 37.4038C22.9129 37.1233 23.1897 37.1306 23.5941 37.398C26.3184 39.1953 29.0593 40.9666 31.7922 42.7501C32.7358 43.3661 32.7104 43.3494 33.5272 42.5262C33.9041 42.1457 34.1229 41.5934 34.6817 41.4007C34.6781 41.1253 34.9209 41.0137 35.0701 40.852C38.5351 37.1197 41.9985 33.3859 45.4866 29.6753C45.9606 29.1709 45.9976 28.8832 45.4366 28.4056C43.7668 26.9837 42.1522 25.498 40.5143 24.0384C39.2931 22.9506 38.0698 21.8657 36.7993 20.7366C36.666 21.1134 36.5855 21.4091 36.4594 21.6852C35.934 22.839 34.9093 23.4826 33.7098 23.3594C31.6328 23.1456 29.5572 22.9165 27.4852 22.6564C26.1154 22.4846 24.7631 22.2346 23.41 22.7955C22.9977 22.9666 22.7636 23.0956 22.8339 23.5992C23.1933 26.1858 24.0804 28.4962 26.1408 30.2341C27.4033 31.2987 27.3402 32.5771 25.9763 33.5265C24.824 34.3288 23.4398 34.5984 22.1686 35.1296C21.3924 35.4543 20.5865 35.4412 19.7842 35.2499C18.3725 34.9136 17.3028 34.0722 16.444 32.9344C14.7547 30.695 13.9473 28.136 13.7712 25.3676C13.735 24.8008 13.5603 24.5921 12.9878 24.4566C11.4064 24.0819 9.88305 23.5224 8.65319 22.3955C8.37272 22.1382 8.20893 22.1708 7.93499 22.3897C5.44845 24.379 2.95685 26.3641 0.444226 28.3223C0.0137396 28.6578 0.128971 28.8303 0.431181 29.1557C4.69112 33.7534 8.9409 38.3597 13.182 42.974Z" fill="#96644D"/>
<path d="M8.71577 20.0415C9.08828 21.2134 9.29628 21.3707 10.5109 21.162C10.8755 21.0996 11.0762 21.1685 11.311 21.4337C12.3162 22.5665 13.6011 23.0637 15.097 22.9129C15.6144 22.8607 15.7159 22.9622 15.6731 23.4673C15.5304 25.1516 15.7246 26.8069 16.2638 28.4128C16.816 30.058 17.4893 31.6408 18.809 32.8438C19.6396 33.6012 20.5629 33.9345 21.6833 33.4714C22.3073 33.2134 22.9726 33.0547 23.6118 32.8322C25.1649 32.2909 25.2475 31.9973 24.1155 30.7718C22.0935 28.5839 20.9433 26.0684 21.1122 23.0368C21.1122 22.5404 21.1078 22.0432 21.1144 21.5468C21.1173 21.3156 21.11 21.1011 21.4202 21.0018C22.5087 20.6561 23.5451 20.2727 24.7641 20.496C27.3557 20.9706 29.9698 21.3258 32.5817 21.6794C34.3681 21.9215 35.0327 21.0946 34.4819 19.3806C32.76 14.0162 31.0315 8.65467 29.2965 3.29387C28.7283 1.53786 27.6833 1.27406 26.3679 2.54668C24.3401 4.50924 22.3174 6.47614 20.302 8.45102C19.957 8.78874 19.5772 9.01051 19.112 9.15618C16.8465 9.86423 14.5839 10.5817 12.335 11.3398C10.6298 11.9152 9.59776 13.1219 9.32889 14.9112C9.25134 15.4258 9.05929 15.72 8.58895 15.9577C7.70333 16.4049 7.62723 16.6897 7.94032 17.6594C8.19759 18.4544 8.46284 19.2465 8.71577 20.0415Z" fill="#689F4E"/>
<path d="M48.5603 0.618914C47.7558 -0.0674004 46.8086 -0.197126 46.3897 0.302209C45.9484 0.829085 46.2151 1.63063 47.0427 2.3713C49.2756 4.36864 50.1279 6.81459 49.4111 9.76132C49.293 10.2476 49.2125 10.7361 49.43 11.2173C49.709 11.834 50.3808 12.0123 50.9127 11.6014C51.2497 11.3405 51.4664 10.9984 51.5962 10.5824C51.8621 9.72654 51.9266 8.84527 51.9897 7.97415C51.8984 5.02017 50.8164 2.54378 48.5603 0.618914Z" fill="#689F4E"/>
<path d="M34.2473 14.235C34.3988 14.7264 34.5655 14.7829 35.0061 14.5583C36.6766 13.7038 37.5694 11.8543 37.1556 10.0287C36.7309 8.15676 35.1249 6.85515 33.1269 6.83124C33.0812 6.83631 32.9515 6.84791 32.8218 6.86313C31.9086 6.96894 31.9108 6.96821 32.1898 7.82991C32.8812 9.9635 33.5849 12.0927 34.2473 14.235Z" fill="#96644D"/>
<path d="M42.1273 4.42878C42.241 4.53604 42.3671 4.62953 42.4838 4.73389C43.0723 5.26222 43.5484 5.87389 43.8862 6.59281C44.5326 7.96979 44.6609 9.38301 44.2579 10.8571C44.0398 11.6572 44.3116 12.3102 44.8443 12.4341C45.3791 12.5588 45.8995 12.1138 46.1241 11.3209C46.3162 10.6411 46.4336 9.94829 46.3952 9.21849C46.4553 8.20025 46.2205 7.21028 45.8465 6.26017C45.3204 4.9245 44.4928 3.7932 43.3325 2.9344C42.6918 2.46116 41.9983 2.45826 41.7265 2.91991C41.3641 3.53085 41.6808 4.00917 42.1273 4.42878Z" fill="#689F4E"/>
<path d="M38.2867 6.48701C38.536 6.7153 38.7903 6.94576 38.9998 7.20956C40.0492 8.52639 40.3304 10.0048 39.8847 11.626C39.7455 12.1333 39.8071 12.6334 40.3507 12.7914C40.9029 12.9516 41.2022 12.5276 41.3609 12.0457C41.5501 11.4724 41.6233 10.8774 41.6421 10.1802C41.5856 8.2923 40.8544 6.62688 39.3245 5.34049C38.9034 4.9861 38.3809 4.67954 37.9373 5.16439C37.4735 5.66952 37.8779 6.11378 38.2867 6.48701Z" fill="#689F4E"/>
</g>
<defs>
<clipPath id="clip0_160_557">
<rect width="51.9903" height="60" fill="white"/>
</clipPath>
</defs>
</svg>
