<svg width="39" height="18" viewBox="0 0 39 18" fill="none" xmlns="http://www.w3.org/2000/svg">
<g clip-path="url(#clip0_160_1772)">
<path d="M0.00092212 9.7753C-0.0154171 8.13712 0.427375 6.65451 1.73533 5.52234C2.98691 4.43792 4.45253 4.05668 6.11259 4.60659C8.2808 5.32517 7.53655 5.30207 9.71947 4.59966C11.6597 3.97581 13.6572 4.44947 14.8565 5.78883C15.0501 6.00525 15.0861 6.11461 14.7977 6.31255C12.2529 8.06241 12.4481 11.4944 15.1808 12.9877C15.5289 13.178 15.5787 13.3266 15.4366 13.6678C14.9186 14.9132 14.1866 16.0277 13.252 17.0281C12.413 17.9262 11.4024 18.1988 10.2015 17.7567C10.0111 17.6866 9.81914 17.6227 9.63042 17.5496C8.69337 17.1883 7.75141 17.1729 6.80374 17.5087C6.57418 17.5896 6.34053 17.6612 6.11831 17.7575C4.92228 18.2743 3.94602 17.9269 3.12171 17.0628C1.14875 14.9902 0.0956894 12.5641 0.00092212 9.7753Z" fill="#374151"/>
<path d="M30.9784 6.02986C32.6106 6.02986 34.2438 6.03602 35.876 6.02447C36.1579 6.02216 36.2469 6.09301 36.2461 6.36643C36.2355 8.60998 36.2437 10.8543 36.2379 13.0978C36.2355 13.9551 35.7396 14.4095 34.8148 14.4295C34.0959 14.4449 34.0959 14.4449 34.0959 15.1227C34.0959 15.6872 34.1008 16.251 34.0942 16.8155C34.0861 17.4817 33.6024 17.9523 32.935 17.9562C32.2643 17.96 31.7643 17.501 31.7496 16.8356C31.7341 16.1563 31.7316 15.4762 31.752 14.7969C31.7602 14.5173 31.6916 14.3918 31.3721 14.4295C30.9857 14.4749 30.4833 14.2716 30.2374 14.5134C30.0127 14.7345 30.1818 15.1981 30.1737 15.5547C30.1639 15.9776 30.1794 16.4012 30.1688 16.824C30.1524 17.491 29.6655 17.9546 28.9948 17.9562C28.3273 17.9577 27.8282 17.4902 27.8159 16.8279C27.8037 16.1355 27.8012 15.4431 27.8175 14.7507C27.8233 14.4973 27.7416 14.4041 27.4728 14.4287C27.2841 14.4464 27.0913 14.4387 26.9017 14.4264C26.2098 14.3817 25.6886 13.9089 25.6845 13.255C25.6698 10.9344 25.682 8.61306 25.6714 6.29249C25.6698 6.00829 25.8389 6.02832 26.0382 6.02832C27.686 6.03063 29.3322 6.02986 30.9784 6.02986Z" fill="#374151"/>
<path d="M30.9683 5.6456C29.3499 5.6456 27.7307 5.63097 26.1131 5.65562C25.6981 5.66178 25.6409 5.52314 25.6883 5.19042C25.8941 3.75018 26.6613 2.64727 27.9562 1.88633C28.3205 1.67222 28.3271 1.4997 28.122 1.20087C27.9341 0.927449 27.7805 0.632468 27.6228 0.341338C27.5885 0.277413 27.4627 0.188071 27.6024 0.119525C27.7143 0.0640716 27.796 0.121835 27.8581 0.231202C28.055 0.575475 28.2805 0.905884 28.461 1.25709C28.5656 1.45965 28.6661 1.5074 28.894 1.4273C30.26 0.945934 31.6333 0.942853 33.0017 1.42114C33.2272 1.4997 33.3342 1.43808 33.429 1.23706C33.585 0.905884 33.7704 0.588568 33.9894 0.286655C34.0752 0.168047 34.1593 0.0478977 34.29 0.121835C34.4608 0.218879 34.2565 0.30822 34.2149 0.387549C34.0376 0.725661 33.8464 1.05915 33.6422 1.38417C33.509 1.59674 33.5621 1.67761 33.7933 1.80315C35.2173 2.57565 36.0424 3.73092 36.2303 5.28285C36.2654 5.57398 36.1788 5.65639 35.8651 5.65331C34.232 5.6379 32.6006 5.6456 30.9683 5.6456ZM33.3481 3.00156C33.0891 3.04315 32.9208 3.17331 32.9331 3.43286C32.9445 3.68856 33.1128 3.83336 33.3799 3.82874C33.6553 3.82335 33.8007 3.65082 33.7966 3.40436C33.7917 3.14866 33.6136 3.02389 33.3481 3.00156ZM29.0002 3.39589C28.9528 3.16253 28.8123 3.00156 28.5411 3.0108C28.2731 3.02004 28.1122 3.17254 28.1228 3.43055C28.1334 3.68394 28.296 3.83567 28.5664 3.82874C28.8368 3.82103 28.9675 3.65159 29.0002 3.39589Z" fill="#374151"/>
<path d="M38.9991 9.27536C38.9991 10.0178 39.0024 10.7611 38.9983 11.5035C38.9942 12.1743 38.5277 12.6565 37.8717 12.6765C37.1985 12.6973 36.6601 12.2206 36.6528 11.5443C36.6373 10.0209 36.6365 8.49671 36.6512 6.97328C36.6577 6.28705 37.1781 5.80876 37.848 5.818C38.5236 5.82724 38.9942 6.31169 38.9983 7.00871C39.0024 7.76426 38.9991 8.51981 38.9991 9.27536Z" fill="#374151"/>
<path d="M22.9176 9.23061C22.9176 8.48815 22.9143 7.74569 22.9192 7.00323C22.9233 6.3116 23.4037 5.82408 24.076 5.81791C24.7606 5.81252 25.2614 6.31237 25.2639 7.01786C25.268 8.50278 25.2688 9.9877 25.2639 11.4734C25.2614 12.182 24.7655 12.6787 24.0801 12.6772C23.3947 12.6756 22.9217 12.182 22.9184 11.4588C22.9151 10.7155 22.9176 9.97306 22.9176 9.23061Z" fill="#374151"/>
<path d="M7.76578 3.65235C7.83277 1.99799 9.30412 0.373667 11.0336 0.0447979C11.59 -0.0607174 11.6586 -0.00757463 11.6284 0.508449C11.5336 2.14432 10.2183 3.72859 8.67914 4.05823C8.5468 4.08673 8.412 4.10675 8.27638 4.11677C7.77395 4.15297 7.74699 4.12601 7.76578 3.65235Z" fill="#374151"/>
<path d="M33.3482 3.00146C33.6129 3.0238 33.7918 3.14857 33.7967 3.40427C33.8008 3.65073 33.6554 3.82325 33.38 3.82864C33.1129 3.83403 32.9446 3.68847 32.9332 3.43277C32.9217 3.17322 33.0892 3.04228 33.3482 3.00146Z" fill="#F4F4F4"/>
<path d="M29.0005 3.39572C28.9678 3.6522 28.8371 3.82087 28.5667 3.82857C28.2962 3.8355 28.1337 3.68377 28.1231 3.43038C28.1124 3.17314 28.2742 3.01987 28.5413 3.01063C28.8126 3.00139 28.9531 3.16236 29.0005 3.39572Z" fill="#F4F4F4"/>
</g>
<defs>
<clipPath id="clip0_160_1772">
<rect width="39" height="18" fill="white"/>
</clipPath>
</defs>
</svg>
