<svg width="57" height="60" viewBox="0 0 57 60" fill="none" xmlns="http://www.w3.org/2000/svg">
<g clip-path="url(#clip0_160_374)">
<path d="M16.4913 0.00630517C16.6867 0.00472888 16.8837 0.00157629 17.0792 0C19.6498 0.00945775 22.2188 0.0204918 24.7894 0.0299496C25.7244 0.0331021 26.6594 0.0535939 27.5945 0.0204918C28.0245 0.00472888 28.1464 0.113493 28.1433 0.562736C28.1214 3.88083 28.1339 7.19735 28.1308 10.5154C28.1292 11.9026 28.4545 13.1526 29.5412 14.1062C30.1166 14.6122 30.7874 14.9511 31.5348 14.9858C32.9514 15.0504 34.3712 15.0299 35.791 15.0441C36.0677 15.1245 36.3429 15.1135 36.6197 15.0426C38.4913 15.1308 40.3614 15.0993 42.2315 15.0189C42.3081 15.0189 42.3847 15.0189 42.4613 15.0189C42.5786 15.0189 42.6959 15.0205 42.8147 15.0205C43.0086 15.0205 43.2041 15.0189 43.3979 15.0189C43.4761 15.0236 43.5559 15.0299 43.634 15.0347L43.6778 15.0489C43.6903 16.6346 43.7013 18.2219 43.7154 19.8077C43.7185 20.1009 43.7326 20.3941 43.7419 20.6873C43.6841 21.0404 43.6966 21.3934 43.7419 21.7481C43.7435 21.8663 43.7451 21.983 43.7451 22.1012C43.695 22.18 43.6935 22.2604 43.7466 22.3392C43.6856 24.0684 43.6982 25.7992 43.7404 27.5284C43.6903 27.9224 43.6872 28.3149 43.7451 28.7074C43.7451 28.8241 43.7466 28.9423 43.7466 29.059C43.695 29.1378 43.695 29.2166 43.7466 29.2954C43.7357 30.8465 43.695 32.3975 43.7279 33.947C43.7388 34.4798 43.5653 34.6327 43.0743 34.691C39.9283 35.0662 37.2232 36.4013 35.017 38.6806C31.7302 42.0775 30.5356 46.1649 31.2846 50.8307C31.577 52.6466 32.29 54.3127 33.347 55.9915C32.4902 55.9915 31.7443 55.9915 31 55.9915C30.9203 55.9931 30.8406 55.9946 30.7592 55.9946C28.0511 55.9852 25.3413 55.9678 22.6331 55.9694C18.2081 55.9694 13.7831 55.982 9.35804 55.9899C9.20012 55.9899 9.04219 55.9915 8.88427 55.9915C6.6655 55.982 4.44673 55.982 2.22796 55.9631C0.845724 55.9505 0.199951 55.3452 0.0623526 53.9628C0.0373348 53.709 0.0326439 53.4537 0.0326439 53.1999C0.0310803 46.0356 0.0310803 38.8729 0.0295167 31.7087C0.0295167 31.4549 0.00762611 31.2011 -0.00488281 30.9473C0.0451529 30.7913 0.0498437 30.6337 0.00293526 30.476C0.0467165 28.4316 0.0639163 26.3871 -0.000191967 24.3427C0.0670435 23.9108 0.0545346 23.4789 0.00137165 23.0454C0.012317 20.4429 0.0295167 17.8405 0.0326439 15.2396C0.0342076 13.7137 0.0154442 12.1879 0.00449888 10.662C0.0514073 10.506 0.0529709 10.3484 0.00606249 10.1907C0.0482801 7.98865 0.0576618 5.78657 0.00449888 3.58449C0.00449888 3.54666 0.00449888 3.50725 0.00449888 3.46942C0.00293526 3.31179 0.00137165 3.15416 -0.000191967 2.99653C0.0107533 2.64344 0.020135 2.29193 0.0310803 1.93884C0.204642 0.807062 0.851978 0.165511 1.98716 0.0331021C2.37807 0.0315258 2.76897 0.0299496 3.15987 0.0299496C7.60367 0.0520176 12.0475 0.0851198 16.4913 0.00630517ZM13.5689 24.0968C13.7627 24.0984 13.9582 24.1015 14.1521 24.1031C14.2694 24.1031 14.3866 24.1031 14.5039 24.1031C14.6399 24.111 14.776 24.1252 14.9104 24.1252C21.032 24.1267 27.1535 24.1267 33.2735 24.1252C34.501 24.1252 35.73 24.1362 36.9574 24.1204C37.6048 24.1125 38.0426 23.6617 38.0441 23.0596C38.0457 22.4653 37.5922 22.0035 36.9637 21.9861C36.5743 21.9751 36.185 21.9956 35.7956 22.0019C35.755 22.0019 35.7143 22.0019 35.6753 22.0019C33.6097 22.0019 31.5442 22.0003 29.4771 22.0003C29.1253 22.0003 28.7735 22.0003 28.4216 22.0003C26.4734 22.0003 24.5235 22.0003 22.5753 22.0003C22.3798 22.0003 22.1844 22.0019 21.9874 22.0019C19.9218 22.0019 17.8563 22.0003 15.7892 22.0003C15.3592 22.0003 14.9292 22.0003 14.5008 22.0003C12.4352 22.0003 10.3697 22.0019 8.3026 22.0019C8.22442 22.0035 8.14468 22.0035 8.0665 22.005C6.9016 21.9972 5.73515 21.9751 4.57025 21.9893C3.98234 21.9972 3.52576 22.4842 3.51325 23.0359C3.50074 23.6066 3.97295 24.1188 4.58745 24.1188C7.34567 24.122 10.1055 24.1062 12.8637 24.0968C13.1013 24.1488 13.3359 24.1425 13.5689 24.0968ZM5.61319 32.1075C5.92591 32.1075 6.23863 32.1075 6.55136 32.1075C8.49962 32.1075 10.4494 32.1059 12.3977 32.1059C12.7104 32.1059 13.0232 32.1059 13.3359 32.1059C15.5578 32.1059 17.7797 32.1075 20.0016 32.1091C20.1579 32.1091 20.3159 32.1091 20.4722 32.1091C22.5768 32.1091 24.6815 32.1091 26.7861 32.1091C26.9815 32.1091 27.177 32.1091 27.374 32.1091C29.5177 32.1091 31.6614 32.1075 33.8052 32.1075C33.9631 32.1075 34.121 32.1075 34.2774 32.1075C35.1921 32.1122 36.1084 32.1422 37.0231 32.1138C37.6423 32.0949 38.0723 31.5779 38.0441 30.9836C38.016 30.4114 37.5766 29.9937 36.9605 29.989C36.26 29.9842 35.5595 30.0047 34.859 30.0158C34.7809 30.0142 34.7027 30.0142 34.6245 30.0126C32.4417 30.0126 30.2573 30.0126 28.0745 30.0126C27.8791 30.0126 27.6836 30.011 27.4882 30.011C25.3835 30.0126 23.2773 30.0126 21.1727 30.0142C21.0945 30.0158 21.0164 30.0158 20.9382 30.0173C18.6381 30.0158 16.338 30.0158 14.0379 30.0142C13.9598 30.0142 13.8816 30.0142 13.8034 30.0142C11.5815 30.0142 9.35804 30.0142 7.13615 30.0142C6.94069 30.0142 6.74524 30.0126 6.55136 30.0126C5.89307 30.0047 5.23636 29.9827 4.57807 29.9937C3.99484 30.0031 3.53514 30.465 3.51794 31.0167C3.50074 31.5605 3.94325 32.0697 4.5124 32.117C4.87672 32.139 5.24574 32.1107 5.61319 32.1075ZM6.07758 38.006C5.57253 37.9918 5.06748 37.954 4.56556 37.9697C4.0011 37.9871 3.55391 38.4363 3.51951 38.9628C3.48511 39.483 3.87914 39.9795 4.43266 40.0867C4.62185 40.1229 4.82043 40.1214 5.01432 40.1214C11.8317 40.1229 18.6475 40.1229 25.4648 40.1182C25.6775 40.1182 25.8964 40.1103 26.1012 40.0599C26.6344 39.9259 26.9581 39.4577 26.9128 38.9265C26.869 38.4221 26.4358 37.9729 25.8995 37.9713C24.2061 37.965 22.5143 37.9886 20.8209 38.0013C20.5457 37.9398 20.2721 37.9256 19.9984 38.006C17.9736 37.9287 15.9487 37.9414 13.9254 37.9997C13.8425 37.9508 13.7627 37.9571 13.683 38.006C13.5689 38.0044 13.4563 38.0028 13.3421 37.9997C13.0654 37.9287 12.7886 37.9335 12.5119 37.9965C10.7997 37.9398 9.08754 37.9319 7.37538 37.9997C7.25498 37.9429 7.13458 37.9414 7.01418 38.0028C6.85939 37.9461 6.70459 37.9445 6.54979 37.9965C6.3903 37.9335 6.23238 37.9398 6.07758 38.006ZM25.6165 45.941C23.5119 45.9426 21.4073 45.9426 19.3026 45.9442C19.1072 45.9426 18.9117 45.9426 18.7147 45.941C16.9212 45.941 15.1293 45.9426 13.3359 45.9426C12.945 45.9426 12.5541 45.9426 12.1632 45.9426C10.254 45.9426 8.34326 45.9426 6.43408 45.9426C6.04318 45.9426 5.65228 45.9426 5.26137 45.9426C5.18476 45.9426 5.10657 45.9426 5.02996 45.9426C4.95178 45.9426 4.87203 45.9426 4.79385 45.9426C4.01048 45.9615 3.52263 46.3682 3.51638 47.0066C3.51169 47.6387 4.01204 48.0753 4.78134 48.1053C4.85952 48.1084 4.9377 48.1053 5.01589 48.1053C11.1155 48.1053 17.2152 48.1069 23.3164 48.1053C24.1733 48.1053 25.0302 48.1006 25.8886 48.088C26.6829 48.0769 27.2677 47.0791 26.7017 46.436C26.4562 46.0088 26.0715 45.8969 25.6165 45.941ZM5.69293 16.9294C6.02598 17.2809 6.44034 17.4858 6.9016 17.604C7.44418 17.6892 7.50672 18.0438 7.49109 18.5262C7.47232 19.1252 7.85072 19.5129 8.38548 19.5712C8.85143 19.6217 9.43466 19.2891 9.38775 18.8115C9.29394 17.8373 9.92095 17.634 10.5824 17.3865C10.673 17.3534 10.7559 17.2998 10.8419 17.2525C12.8261 16.1381 13.5782 12.7948 11.6331 11.2279C11.1109 10.8071 10.5354 10.4808 9.90375 10.2837C9.53317 10.1671 9.43622 9.96532 9.45812 9.59962C9.4847 9.13146 9.45342 8.65857 9.44561 8.18884C9.44561 8.05013 9.44561 7.90983 9.44561 7.77112C9.44404 7.59615 9.44404 7.42118 9.44248 7.24622C9.44248 6.97037 9.44248 6.69294 9.44248 6.41709C9.50815 6.28153 9.40182 6.10971 9.52535 5.98834C9.5535 5.99149 9.57539 5.98833 9.59102 5.99622C10.3994 6.42812 10.6902 7.15637 10.7669 8.02648C10.8247 8.69483 11.2438 9.0826 11.8098 9.05107C12.3477 9.02112 12.7198 8.6239 12.7511 8.0454C12.8449 6.35876 11.6081 4.4814 10.021 3.99432C9.59415 3.86349 9.42997 3.72005 9.4503 3.25347C9.48157 2.52207 9.04063 2.05706 8.4402 2.07755C7.86479 2.09805 7.46763 2.55202 7.48483 3.25347C7.49421 3.66015 7.39883 3.843 6.9704 3.97383C4.86734 4.61696 3.58674 7.35025 4.44517 9.29697C4.92363 10.3846 5.87431 10.93 6.90473 11.3209C7.37225 11.4975 7.50203 11.7276 7.4864 12.2021C7.45669 13.181 7.48952 14.163 7.49578 15.1434C7.49265 15.3058 7.48952 15.4697 7.48483 15.6321C6.73117 15.413 6.28398 14.825 6.19485 13.9549C6.16983 13.7027 6.16201 13.4347 6.0682 13.2062C5.88213 12.7585 5.50842 12.5646 5.03308 12.634C4.58433 12.6986 4.24815 12.9571 4.21688 13.4237C4.12306 14.8329 4.51553 16.0545 5.69293 16.9294Z" fill="#96644D"/>
<path d="M40.8228 59.3364C40.7384 59.2229 40.6055 59.2386 40.4882 59.2134C38.0568 58.1321 36.1132 56.5022 34.7435 54.1772C32.0697 49.6406 32.9422 43.4946 36.7699 39.8881C38.4039 38.3496 40.3193 37.3897 42.463 36.8443C42.8148 36.7954 43.1667 36.7465 43.5169 36.6977C45.5324 36.5211 47.4775 36.8317 49.3601 37.5662C49.4086 37.6639 49.4977 37.6781 49.5931 37.6813C50.8784 38.3339 52.0433 39.1598 53.0894 40.1545C53.1957 40.2743 53.3004 40.3941 53.4068 40.5154C54.284 41.5495 54.9751 42.7002 55.5427 43.9297C55.5536 44.0558 55.5521 44.1866 55.6693 44.2733C56.301 46.1538 56.5074 48.0801 56.2635 50.0536C56.1509 50.2774 56.1384 50.517 56.1478 50.7613C55.6881 52.4968 55.0142 54.133 53.8774 55.5407C51.6899 58.2487 48.8864 59.7667 45.4058 59.9827C43.8328 60.0772 42.3145 59.8171 40.8228 59.3364ZM51.2412 48.2724C49.8167 46.8805 47.5526 47.1879 46.5566 48.9092C46.014 49.8471 46.0672 50.8685 46.186 51.8852C46.3361 53.1636 47.071 54.0101 48.2625 54.3916C49.4884 54.784 50.6079 54.4767 51.4257 53.482C52.4921 52.1847 52.3545 50.6936 51.8963 49.1945C51.7415 48.8414 51.5695 48.4994 51.2412 48.2724ZM43.2964 44.1488C43.2542 43.7405 43.0838 43.3922 42.818 43.0864C41.6359 41.4344 39.3202 41.3603 38.0552 42.9366C37.2624 43.9234 37.2875 45.0772 37.4094 46.2437C37.533 47.4259 38.1834 48.2487 39.2342 48.709C40.2771 49.1646 41.3044 49.0243 42.2097 48.326C43.409 47.4007 43.606 46.1885 43.2964 44.1488ZM44.9242 49.4641C45.3166 48.8997 45.6763 48.3134 45.9796 47.6955C46.2298 47.4165 46.408 47.0933 46.5534 46.7481C47.537 45.1293 48.5283 43.5167 49.4977 41.89C49.8073 41.3714 49.6744 40.8228 49.2397 40.5438C48.78 40.2506 48.2531 40.3956 47.8966 40.9442C47.6089 41.3856 47.3509 41.8474 47.0804 42.2998C45.5402 44.8834 44.0016 47.4653 42.463 50.0489C42.2926 50.2333 42.1706 50.4477 42.0815 50.6825C41.9986 50.8212 41.9173 50.9584 41.8345 51.0971C41.6421 51.3067 41.5045 51.5511 41.4045 51.8175C41.0182 52.4448 40.6086 53.0596 40.2521 53.7043C39.9597 54.2355 40.1129 54.7557 40.5742 55.0252C41.0057 55.2774 41.5342 55.1497 41.8298 54.6611C42.8258 53.0139 43.803 51.3525 44.7866 49.6974C44.8335 49.6201 44.8788 49.5413 44.9242 49.4641Z" fill="#689F4E"/>
<path d="M30.2577 0.986757C30.3109 0.974147 30.3641 0.95996 30.4172 0.94735C32.8752 3.43632 35.3285 5.93159 37.7959 8.41267C39.2423 9.86917 40.7089 11.3036 42.1678 12.7475C42.1506 12.8137 42.1318 12.8799 42.1146 12.9461C40.9841 12.9461 39.8536 12.9461 38.7247 12.9461C38.2932 12.9461 37.8632 12.9461 37.4316 12.9461C35.8477 12.9319 34.2637 12.9177 32.6782 12.9035C32.1951 12.8988 31.7103 12.9035 31.2506 12.7175C31.1662 12.6639 31.0818 12.6103 30.9973 12.5583C30.4688 12.0571 30.2687 11.4376 30.2718 10.7141C30.2765 9.71626 30.3281 8.7169 30.2218 7.72068C30.2687 7.63871 30.2687 7.55674 30.2202 7.47478C30.2202 7.39911 30.2202 7.32345 30.2202 7.24779C30.2859 7.05391 30.2859 6.85845 30.2312 6.66299C30.2405 4.76986 30.2484 2.87831 30.2577 0.986757Z" fill="#96644D"/>
<path d="M7.49737 9.24811C7.47861 9.27648 7.47079 9.30801 7.47548 9.34269C7.16745 9.32062 6.95479 9.07945 6.67491 8.99275C5.80554 8.05486 6.19175 6.51797 7.49893 5.97415C7.49893 6.75599 7.49893 7.50788 7.49893 8.25978C7.5005 8.3244 7.5005 8.38903 7.50206 8.45524C7.50206 8.58607 7.50206 8.7169 7.50206 8.84773C7.5005 8.98014 7.49893 9.11413 7.49737 9.24811Z" fill="#96644D"/>
<path d="M9.45361 14.9054C9.45361 14.0527 9.45361 13.1999 9.45361 12.325C10.4434 12.6624 10.7686 13.0233 10.7592 13.7279C10.7483 14.6753 10.3042 15.3405 9.4927 15.6116C9.48019 15.4146 9.46612 15.2207 9.45361 15.0284C9.45518 14.9874 9.45518 14.9464 9.45361 14.9054Z" fill="#96644D"/>
<path d="M39.4889 46.6456C39.0761 45.9537 39.1637 45.2033 39.3138 44.4782C39.4232 43.9502 40.0096 43.6239 40.5319 43.6854C41.0494 43.7453 41.495 44.2024 41.5388 44.7431C41.5638 45.0552 41.5529 45.3704 41.5482 45.6841C41.5294 46.8805 40.7445 47.3707 39.6859 46.8521C39.6187 46.7828 39.5546 46.7134 39.4889 46.6456Z" fill="#689F4E"/>
<path d="M50.0156 49.6028C50.4847 50.2948 50.3518 51.0766 50.2532 51.8143C50.1704 52.4369 49.5574 52.7033 48.7318 52.6166C48.4316 52.4038 48.1596 52.1658 48.0251 51.8064C48.011 51.477 47.9829 51.146 47.9844 50.8165C47.9876 49.4247 48.81 48.9344 50.0124 49.5996L50.0156 49.6028Z" fill="#689F4E"/>
</g>
<defs>
<clipPath id="clip0_160_374">
<rect width="56.3636" height="60" fill="white"/>
</clipPath>
</defs>
</svg>
