<svg width="36" height="37" viewBox="0 0 36 37" fill="none" xmlns="http://www.w3.org/2000/svg">
<path d="M29.4409 9.15083H25.2923L25.2739 3.64575H29.4134L29.4409 9.15083Z" fill="#FD755F"/>
<path d="M30.5033 2.14345H24.1659L24.1567 0.421387H30.5033V2.14345Z" fill="#FD755F"/>
<path d="M29.9996 3.81979H24.6879L24.6787 2.19849H29.9904L29.9996 3.81979Z" fill="#FD755F"/>
<path d="M0.537865 14.198L0.519531 10.3233L17.8742 2.61987L35.1921 10.3233L35.2013 14.198H0.537865Z" fill="#FD755F"/>
<path d="M3.37695 33.3145H13.6798L13.6982 36.5479H3.39529L3.37695 33.3145Z" fill="#976063"/>
<path d="M32.7471 33.3145L32.7563 36.5479H22.4534L22.4351 33.3145H32.7471Z" fill="#976063"/>
<path d="M17.8925 5.82568L3.25781 12.1735L3.36773 33.3145H32.7378L32.6462 12.1735L17.8925 5.82568ZM11.5642 24.5576H5.62062L5.58398 16.6893H11.5276L11.5642 24.5576ZM30.4116 24.5576H24.4772L24.4405 16.6893H30.375L30.4116 24.5576Z" fill="white"/>
<path d="M22.4348 33.3145L22.4532 36.5479H13.698L13.6797 33.3145H22.4348Z" fill="#976063"/>
<path d="M22.3616 17.5779L22.4348 33.3145H13.6797L13.6064 17.5779H22.3616Z" fill="#FD755F"/>
<path d="M16.18 26.3165H14.5132V25.6936H16.18V26.3165Z" fill="white"/>
</svg>
