<svg width="129" height="127" viewBox="0 0 129 127" fill="none" xmlns="http://www.w3.org/2000/svg">
<path d="M127.508 63.4069C126.088 146.45 2.58185 146.441 1.18066 63.4069C2.60017 -19.6366 126.106 -19.6275 127.508 63.4069Z" fill="#A3BD8C"/>
<path d="M127.508 63.4069C126.088 146.45 2.58185 146.441 1.18066 63.4069C2.60017 -19.6366 126.106 -19.6275 127.508 63.4069Z" fill="#FD755F"/>
<path d="M119.357 63.4069C118.121 135.733 10.5587 135.724 9.33154 63.4069C10.5679 -8.91951 118.13 -8.91035 119.357 63.4069Z" fill="white"/>
<path d="M119.357 63.4069C118.121 135.733 10.5587 135.724 9.33154 63.4069C10.5679 -8.91951 118.13 -8.91035 119.357 63.4069Z" fill="white"/>
<path d="M96.7915 71.4494L66.35 61.6483L50.4515 23.9096C50.0943 23.0577 49.2701 22.5081 48.3451 22.5081C46.7516 22.4807 45.5886 24.2119 46.2388 25.6775L61.2398 61.2819L20.0741 49.1084C19.4788 48.9252 18.8103 49.2916 18.6454 49.8962C18.4806 50.4916 18.8286 51.1236 19.4238 51.2976L62.3845 64.0024L62.586 64.4787L62.3662 65.1474L62.9432 65.3306L63.1538 65.8435L63.7491 65.5962L95.3812 75.782C98.1927 76.7438 99.6214 72.3196 96.7915 71.4494Z" fill="#5E3B3B"/>
<path d="M57.9516 25.888V27.5367H63.9777V25.888H62.027V16.8838H60.5342L57.2373 19.7417C58.2172 21.5645 58.9316 20.6668 60.0855 19.6409V25.888H57.9516Z" fill="#5E3B3B"/>
<path d="M71.2494 25.659C71.2494 25.659 67.8517 25.659 67.8151 25.659C77.6326 18.0654 66.2582 12.9542 64.8662 20.2363C67.696 21.2531 66.304 17.9555 69.024 18.6517C72.5499 21.5462 64.1244 24.5506 64.7105 27.5367H72.037C72.0004 26.8864 72.2843 25.6498 71.2494 25.659Z" fill="#5E3B3B"/>
<path d="M67.1371 103.426C66.377 102.703 65.2414 102.437 64.2157 102.611L67.2928 98.7182C66.8716 98.7823 65.2781 98.59 64.9209 98.8465C64.6736 98.7732 62.2009 102.364 62.0086 102.547C55.9368 110.974 72.0642 111.826 67.1371 103.426ZM62.6222 105.936C62.5581 103.683 66.3312 103.637 66.1755 105.964C66.2763 108.272 62.4207 108.318 62.6222 105.936Z" fill="#5E3B3B"/>
<path d="M110.281 63.5075C110.07 63.2419 109.796 63.022 109.466 62.848C114.146 58.2222 103.98 55.0071 103.742 61.1351C104.392 61.2267 105.537 61.6389 105.739 60.6771C107.607 56.9215 110.986 62.6373 106.371 62.1885V63.7915C109.777 63.1228 109.613 67.5195 106.453 66.6585C105.033 65.8616 105.565 64.1487 103.403 65.3944C104.072 70.8262 113.276 68.4264 110.281 63.5075Z" fill="#5E3B3B"/>
<path d="M24.1034 58.6986C18.8283 54.1828 14.5973 64.9548 21.8322 64.2861L18.6635 68.4356C19.3412 68.344 21.0171 68.7287 21.4384 67.9959C23.041 65.4861 26.8874 61.6664 24.1034 58.6986ZM19.9822 60.4024C20.8065 58.4696 23.9294 59.7062 23.0685 61.7122C22.2168 63.6816 19.0664 62.4908 19.9822 60.4024Z" fill="#5E3B3B"/>
<path d="M38.7847 15.4879L36.9526 16.5459L40.5106 22.7094L42.3426 21.6515L38.7847 15.4879Z" fill="#976063"/>
<path d="M88.1709 103.859L86.3389 104.917L89.8968 111.081L91.7288 110.023L88.1709 103.859Z" fill="#976063"/>
<path d="M17.1273 34.7704L16.0513 36.6345L22.4674 40.3397L23.5435 38.4756L17.1273 34.7704Z" fill="#976063"/>
<path d="M17.1273 34.7704L16.0513 36.6345L22.4674 40.3397L23.5435 38.4756L17.1273 34.7704Z" fill="#976063"/>
<path d="M106.207 86.2172L105.131 88.0813L111.547 91.7865L112.624 89.9223L106.207 86.2172Z" fill="#976063"/>
<path d="M22.4801 86.2064L16.064 89.9124L17.1403 91.7765L23.5564 88.0706L22.4801 86.2064Z" fill="#976063"/>
<path d="M22.4801 86.2064L16.064 89.9124L17.1403 91.7765L23.5564 88.0706L22.4801 86.2064Z" fill="#976063"/>
<path d="M111.559 34.7697L105.143 38.4756L106.219 40.3397L112.635 36.6338L111.559 34.7697Z" fill="#976063"/>
<path d="M40.5115 103.853L36.9536 110.016L38.7857 111.074L42.3436 104.911L40.5115 103.853Z" fill="#976063"/>
<path d="M40.5115 103.853L36.9536 110.016L38.7857 111.074L42.3436 104.911L40.5115 103.853Z" fill="#976063"/>
<path d="M89.8958 15.4766L86.3379 21.6401L88.1699 22.6981L91.7279 16.5346L89.8958 15.4766Z" fill="#976063"/>
<path d="M70.0499 63.4068C70.1598 70.808 58.5291 70.808 58.639 63.4068C58.5291 56.0057 70.1598 56.0057 70.0499 63.4068Z" fill="#F75D59"/>
<path d="M64.3444 118.43C37.9233 118.43 9.19429 101.21 8.55322 63.4251C9.19429 25.604 37.9233 8.39258 64.3444 8.39258C64.3444 8.39258 64.3444 8.39258 64.3535 8.39258C90.7747 8.39258 119.494 25.604 120.136 63.3977V63.4251C119.485 101.219 90.7655 118.43 64.3444 118.43ZM64.3535 9.94059C38.6742 9.94059 10.742 26.6757 10.1101 63.416C10.7328 100.129 38.6559 116.864 64.3444 116.873C90.0237 116.873 117.947 100.147 118.588 63.4068C117.956 26.6757 90.0329 9.94975 64.3535 9.94059Z" fill="#976063"/>
<path d="M120.383 35.1029C115.501 24.9995 107.744 16.6091 97.936 10.82L98.7236 9.48267C108.798 15.4183 116.765 24.0469 121.784 34.425L120.383 35.1029Z" fill="#976063"/>
<path d="M2.05996 78.2093C1.04341 73.5286 0.484767 68.5548 0.402344 63.4161C0.851091 37.0265 13.1871 21.931 23.4533 13.9161C38.8664 1.88002 60.0949 -2.51673 80.2519 2.16397L79.9039 3.67535C60.2048 -0.895427 39.4525 3.39139 24.4149 15.1435C14.4142 22.9569 2.39881 37.6677 1.95922 63.4253C2.04164 68.4265 2.59113 73.2996 3.58936 77.8887L2.05996 78.2093Z" fill="#976063"/>
<path d="M64.399 126.482C45.3409 126.482 26.8416 118.742 14.936 104.736L16.1174 103.729C32.5104 123.019 61.7614 130.109 87.2484 120.986C111.865 112.174 126.262 91.1796 126.738 63.3977L128.295 63.4252C128.039 78.31 123.954 91.1888 116.151 101.732C109.182 111.139 99.3738 118.302 87.7796 122.451C80.1692 125.172 72.2383 126.482 64.399 126.482Z" fill="#976063"/>
</svg>
