<svg width="130" height="267" viewBox="0 0 130 267" fill="none" xmlns="http://www.w3.org/2000/svg">
<path d="M104.809 257.312L106.302 239.936H93.5537L94.323 257.312H104.809Z" fill="#FFB486"/>
<path d="M106.256 240.211L105.413 249.993C100.926 250.277 96.5941 249.728 93.9657 249.279L93.5078 239.176L106.256 240.211Z" fill="#FCA377"/>
<path d="M83.4706 245.624C95.5227 247.511 106.723 248.308 115.24 245.624C115.24 245.624 122.447 164.834 109.672 90.6023L84.1208 90.7122C84.1208 90.7214 74.2942 179.929 83.4706 245.624Z" fill="#BB8A5C"/>
<path d="M82.4907 16.7187C77.6186 15.537 74.5964 13.4211 73.5066 10.4167C71.9131 6.03823 75.0269 1.60486 75.384 1.11938L76.3456 1.82469C76.2174 1.99872 73.2227 6.14815 74.6239 10.0136C75.5672 12.615 78.3055 14.4836 82.7655 15.5645L82.4907 16.7187Z" fill="#5E3B3B"/>
<path d="M30.1795 257.312L35.656 239.936H22.9171L19.0249 257.312H30.1795Z" fill="#FFB486"/>
<path d="M35.6835 239.78L32.6613 249.334C26.9284 250.36 22.505 249.389 20.939 248.949L23.1094 239.24H27.661L35.6835 239.78Z" fill="#FCA377"/>
<path d="M97.583 39.2429C97.583 39.2429 131.972 45.5449 128.876 79.5739C127.585 93.7167 116.897 103.49 116.897 103.49L112.969 91.5367L99.2131 96.1624L97.583 39.2429Z" fill="#A3BD8C"/>
<path d="M78.4795 42.5313L80.8972 24.0283H91.832L94.4054 42.5313H78.4795Z" fill="#FFB587"/>
<path d="M84.0659 31.1729C90.9802 29.231 99.1401 19.6864 96.0905 8.65792C93.6727 -0.0897694 78.7358 2.32844 74.7429 9.83038C68.5703 21.4817 68.1857 35.6429 84.0659 31.1729Z" fill="#FFB587"/>
<path d="M20.9846 61.0433C20.3161 60.567 18.1365 59.1106 17.7793 58.3686C17.4496 57.6816 16.1766 53.752 15.3616 54.1001C14.5099 54.4665 15.9568 56.9855 15.2425 57.1595C14.8029 57.2694 11.8906 52.3689 11.1122 53.1658C10.5993 53.6879 12.7698 56.4084 12.4035 56.5824C12.0646 56.7382 10.0957 52.8269 9.29892 53.5597C8.46553 54.3291 12.028 57.6267 11.6251 57.9564C11.4236 58.1213 8.32816 53.7704 7.69625 54.3841C6.8537 55.2085 10.3521 58.2312 9.99491 58.6434C9.82091 58.8449 8.77689 57.5534 8.0534 56.8664C7.65044 56.4817 7.28413 56.7473 7.40318 57.1045C8.62121 60.796 14.4732 64.2126 14.8579 64.7439C15.4257 65.5408 16.0026 66.3194 16.5796 67.0614L20.9846 61.0433Z" fill="#FFBA8C"/>
<path d="M13.228 244.855C24.8588 246.504 35.7387 246.879 45.1898 244.855C84.3957 172.116 100.798 89.9429 100.798 89.9429H70.512C31.3886 157.35 13.228 244.855 13.228 244.855Z" fill="#BB8A5C"/>
<path d="M38.4587 68.8111L21.2597 59.5596L14.9956 67.7119C14.9956 67.7119 25.1336 94.1381 45.0067 91.9122C60.9052 90.1352 70.4937 60.329 70.4937 60.329L38.4587 68.8111Z" fill="#A3BD8C"/>
<path d="M117.246 112.082C89.8997 124.53 50.1444 113.63 50.1444 113.63L51.3533 109.6L51.5364 108.977L61.876 74.5358L34.6855 74.2061C34.6855 74.2061 52.901 48.6408 63.5061 42.4213C66.281 40.8 69.9901 39.5726 74.1936 38.8031C74.5233 38.7482 74.853 38.684 75.1918 38.6382C82.0238 37.5207 90.0188 37.6032 97.2903 39.142C97.5468 39.197 97.8032 39.252 98.0505 39.3069C102.135 40.2321 105.972 41.6244 109.223 43.5388C109.223 43.5388 107.273 54.5215 110.002 61.9868C116.22 78.9509 117.154 99.2034 117.246 107.841C117.255 108.088 117.255 108.317 117.255 108.537C117.292 110.791 117.246 112.082 117.246 112.082Z" fill="#A3BD8C"/>
<path d="M93.3428 117.734C92.9398 117.761 92.5369 117.798 92.1248 117.826C91.8317 117.844 91.5387 117.862 91.2456 117.881C69.9713 119.071 50.144 113.63 50.144 113.63L51.362 109.6L51.5452 108.986L59.5769 82.1204C60.9323 80.7372 67.7459 69.6263 68.8083 65.1379C68.8083 65.1379 69.257 76.6336 65.6487 86.0591C63.3683 92.013 60.804 100.852 63.8445 106.458C67.7642 113.74 92.9948 117.633 93.3428 117.734Z" fill="#89A371"/>
<path d="M47.4427 57.5741L36.082 71.5342L37.0054 72.2859L48.3661 58.3258L47.4427 57.5741Z" fill="#5E3B3B"/>
<path d="M78.4246 32.2904C75.0087 32.2904 73.1496 30.5317 73.0488 30.431L73.8822 29.5791C74.0012 29.6982 76.9318 32.4645 82.4999 30.2569L82.9396 31.3653C81.2178 32.0431 79.7159 32.2904 78.4246 32.2904Z" fill="#5E3B3B"/>
<path d="M93.8468 38.3636C85.7786 42.1557 79.084 38.0155 79.084 38.0155L79.2763 36.5408L93.5538 36.3484L93.8468 38.3636Z" fill="#FFB587"/>
<path d="M85.2197 114.894C69.4952 114.894 56.1884 111.597 51.1973 110.177L51.527 109.032C56.4724 110.433 69.6509 113.694 85.2197 113.694C97.1435 113.694 107.849 111.78 117.053 107.988L117.502 109.087C108.152 112.943 97.29 114.894 85.2197 114.894Z" fill="#5E3B3B"/>
<path d="M118.189 112.082H116.998C116.998 111.789 116.916 82.5233 109.782 62.0785L110.908 61.6846C118.106 82.3218 118.189 111.789 118.189 112.082Z" fill="#5E3B3B"/>
<path d="M88.1227 43.1358C82.4172 43.1358 77.014 40.3879 74.8984 39.1696L75.4937 38.1345C78.6533 39.9573 89.5331 45.3708 96.9054 38.7116L97.7021 39.591C94.7899 42.2198 91.4105 43.1358 88.1227 43.1358Z" fill="#5E3B3B"/>
<path d="M0.598864 266.619H33.7512L31.4891 253.593C24.4466 256.781 21.2412 254.775 19.1074 254.079C19.1074 254.079 17.4498 255.581 15.4716 256.332C10.2332 258.329 0.97435 261.269 0.745397 263.715C0.745397 263.715 0.745388 263.724 0.73623 263.742C0.479803 265.016 0.562232 266.225 0.598864 266.619Z" fill="#5E3B3B"/>
<path d="M9.72011 260.766L9.26221 260.702C9.308 259.502 9.46369 258.247 9.69264 257.157L10.5901 257.349C10.3703 258.384 10.2238 259.593 10.178 260.738L9.72011 260.766Z" fill="#FDFFFE"/>
<path d="M12.5682 260.088H11.6523C11.6523 260.069 11.6798 258.228 12.1378 256.231L13.0261 256.433C12.5956 258.302 12.5682 260.069 12.5682 260.088Z" fill="#FDFFFE"/>
<path d="M74.8162 266.619H107.969L105.706 253.593C98.6638 256.781 95.4585 254.775 93.3247 254.079C93.3247 254.079 91.6671 255.581 89.6889 256.332C84.4505 258.329 75.1916 261.269 74.9627 263.715C74.9627 263.715 74.9627 263.724 74.9535 263.742C74.6971 265.016 74.7795 266.225 74.8162 266.619Z" fill="#5E3B3B"/>
<path d="M83.9374 260.766L83.4795 260.683C83.5344 259.465 83.681 258.238 83.91 257.157L84.8074 257.349C84.5876 258.375 84.4411 259.575 84.3953 260.729L83.9374 260.766Z" fill="#FDFFFE"/>
<path d="M86.7767 260.088H85.8608C85.8608 260.069 85.8883 258.228 86.3462 256.231L87.2346 256.433C86.8133 258.302 86.7767 260.069 86.7767 260.088Z" fill="#FDFFFE"/>
<path d="M71.0231 65.8997L65.0146 72.6418L65.9034 73.4342L71.9119 66.6921L71.0231 65.8997Z" fill="#5E3B3B"/>
<path d="M114.755 109.609H113.564C113.564 102.867 112.694 93.3686 112.685 93.2679L113.866 93.158C113.876 93.2496 114.755 102.822 114.755 109.609Z" fill="#5E3B3B"/>
<path d="M42.6805 92.9747C23.9338 92.9747 14.2171 68.2888 14.1255 68.0415L15.2336 67.611C15.3252 67.8492 24.7397 91.7839 42.6805 91.7839C43.4406 91.7839 44.219 91.7381 44.9883 91.6557C60.5388 89.9153 69.8709 61.4556 70.2647 60.2373L71.4003 60.6037C70.9973 61.8403 61.4363 91.0145 45.1257 92.8373C44.3106 92.9289 43.4864 92.9747 42.6805 92.9747Z" fill="#5E3B3B"/>
<path d="M116.586 59.0922C109.407 63.379 92.3633 62.344 86.2457 48.0912C81.7399 37.5848 83.947 25.6953 85.0093 22.3794L83.1502 16.4988C83.1502 16.4988 73.7998 12.4135 76.1443 1.6323C76.1443 1.6323 77.1791 2.44753 80.3387 2.19105C82.097 2.03534 86.7494 0.313269 91.3376 1.29338C91.3467 1.29338 91.365 1.29339 91.3742 1.30255C95.5228 1.84298 104.177 4.71001 105.056 18.4407C105.789 29.7623 115.213 30.9714 119.673 35.5239C128.62 44.6105 124.701 54.2466 116.586 59.0922Z" fill="#5E3B3B"/>
<path d="M87.3535 19.3385C87.3535 21.0422 85.9797 22.4162 84.2763 22.4162C82.5729 22.4162 81.1992 21.0422 81.1992 19.3385C81.1992 17.6347 82.5729 16.2607 84.2763 16.2607C85.9797 16.2607 87.3535 17.6439 87.3535 19.3385Z" fill="#FFB587"/>
<path d="M127.274 41.4229C126.55 38.4918 124.719 35.7346 121.825 33.2248C120.469 32.0432 118.72 31.1639 116.87 30.2387C112.163 27.8755 107.291 25.4298 106.146 17.5248C104.214 4.10557 95.3943 2.20948 91.6853 2.01713L91.5937 2.00797C88.251 1.5683 84.9816 2.57588 82.8202 3.23539C82.0784 3.46439 81.4374 3.65675 80.9794 3.73919L80.7871 2.56672C81.1626 2.50261 81.8037 2.31024 82.4722 2.09956C84.7343 1.40341 88.1594 0.359185 91.7586 0.826339C95.7606 1.03702 105.276 3.06136 107.337 17.3508C108.39 24.642 112.978 26.9412 117.41 29.1762C119.324 30.138 121.138 31.0539 122.612 32.3272C125.689 35.0019 127.649 37.9696 128.428 41.139L127.274 41.4229Z" fill="#5E3B3B"/>
<path d="M109.535 246.87C101.988 247.932 92.995 247.136 83.4797 245.633C79.8989 219.995 79.4044 191.16 79.8897 165.045C79.9081 165.347 87.7199 140.167 87.7199 140.167C87.7199 140.167 84.3131 159.833 85.4853 171.676C86.6942 183.905 91.1634 187.514 92.8851 201.29C93.8925 209.342 89.8721 215.406 91.3374 223.842C92.8759 232.718 99.6804 238.214 106.329 244.186C107.282 245.056 108.481 245.926 109.535 246.87Z" fill="#9B6C49"/>
<path d="M80.0639 166.721L78.9375 166.327C82.1245 157.158 85.1833 147.733 88.0223 138.298L89.1579 138.646C86.3189 148.09 83.2509 157.543 80.0639 166.721Z" fill="#FDFFFE"/>
<path d="M47.0123 241.429C46.417 242.574 45.8126 243.719 45.1898 244.855C35.7478 246.879 24.8588 246.494 13.228 244.855C13.228 244.855 21.4978 204.991 38.9074 158.349C39.7133 166.895 37.6161 175.798 35.1068 184.143C31.8007 195.117 27.7619 206.292 28.7785 217.714C29.5111 225.985 33.7788 234.806 41.032 239.249C42.7629 240.321 44.8693 240.916 47.0123 241.429Z" fill="#9B6C49"/>
<path d="M37.2589 165.658L36.1416 165.255C43.2574 145.461 50.4924 127.746 57.077 114.033L58.1485 114.546C51.5822 128.222 44.3656 145.9 37.2589 165.658Z" fill="#FDFFFE"/>
</svg>
