<svg width="393" height="137" viewBox="0 0 393 137" fill="none" xmlns="http://www.w3.org/2000/svg">
<path d="M330.772 59.7766C299.093 48.2549 265.088 50.5734 231.273 51.8086C229.862 51.8592 229.019 52.3756 229.208 53.4083C229.339 54.1676 230.182 54.5726 231.214 54.5928C232.901 54.6333 234.602 54.5625 236.288 54.5524C260.276 54.4309 284.235 54.603 307.525 59.321C318.574 61.5585 328.824 64.9402 336.165 71.4705C342.402 77.0188 342.111 81.5546 335.555 86.87C330.873 90.6667 325.015 93.2586 318.618 95.3645C297.843 102.239 276.021 107.21 253.894 111.26C198.155 121.445 142.081 130.436 83.725 126.842C64.3602 125.647 45.4897 122.843 28.4074 115.968C5.34993 106.674 4.33226 94.8684 25.4853 83.6706C39.2529 76.3809 54.547 71.0959 70.7425 66.9853C79.5526 65.0616 88.3627 63.1279 97.1728 61.2042C130.945 56.2634 164.877 52.0516 200.975 50.7759C186.859 45.8148 127.339 48.5181 96.9984 54.441C89.0169 55.4129 81.1809 56.7595 73.7228 59.0477C49.4877 64.0694 27.6951 72.2096 9.75498 84.6729C-4.15802 94.3419 -2.92228 107.544 11.7612 116.748C15.9192 119.35 20.5859 121.415 25.6016 123.126C49.604 131.307 75.0894 135.367 101.68 136.258C141.849 137.614 181.363 134.131 220.427 127.976C256.496 122.296 291.94 115.219 324.855 103.079C333.083 100.042 340.338 96.1744 345.92 90.94C353.524 83.8022 353.364 75.6114 345.63 68.5243C341.588 64.8389 336.616 61.9129 330.772 59.7766Z" fill="#DEC7A8"/>
<path d="M372.601 5.25603C372.564 2.74584 371.787 0.908383 369.798 0.305937C367.412 -0.416998 365.191 0.0348366 363.97 2.81613C360.214 11.3407 356.403 19.8352 352.74 28.41C351.833 30.5286 349.604 33.4103 351.833 35.057C353.637 36.3824 355.996 33.8923 357.689 32.1552C357.911 31.9243 358.124 31.6833 358.327 31.4423C364.22 24.1025 368.179 15.4876 372.129 6.86255C372.398 6.27015 372.499 5.60746 372.601 5.25603Z" fill="#DEC7A8"/>
<path d="M390.853 28.1693C391.565 27.4263 391.815 26.1611 392.12 25.4984C392.083 23.4602 391.649 22.0745 390.326 21.2412C388.679 20.207 386.829 20.4078 385.552 21.6026C378.716 28.0187 371.732 34.264 365.571 41.4733C364.905 42.2464 363.906 43.3609 364.498 44.5257C365.303 46.1322 366.625 45.1683 367.745 44.7968C376.921 41.6841 384.063 35.1878 390.853 28.1693Z" fill="#DEC7A8"/>
<path d="M388.429 59.1749C381.408 58.9741 374.396 58.9038 366.93 63.151C374.645 68.2015 381.953 66.9364 389.141 65.9825C390.769 65.7616 391.398 63.9242 391.13 62.0164C390.89 60.3095 390.011 59.215 388.429 59.1749Z" fill="#DEC7A8"/>
</svg>
