<svg width="57" height="60" viewBox="0 0 57 60" fill="none" xmlns="http://www.w3.org/2000/svg">
<g clip-path="url(#clip0_160_410)">
<path d="M36.2909 29.5442C39.3566 27.0904 41.8263 27.8474 43.2078 31.4525C46.6205 28.863 49.3267 30.6576 50.071 33.6666C50.8564 32.9917 51.6544 32.4208 52.6826 32.2946C54.799 32.036 56.7514 33.6445 56.7798 35.8682C56.8302 40.1167 56.8996 44.3747 56.7451 48.6169C56.5369 54.3258 51.7395 59.2872 45.854 59.7887C42.7346 60.0536 39.5616 60.1262 36.4328 59.6657C33.0264 59.161 30.2161 57.5083 28.0114 54.8904C24.87 51.1591 21.7663 47.3963 18.6754 43.6209C17.2371 41.8641 17.3538 39.6499 18.8741 38.2463C20.4322 36.8112 22.5833 36.8838 24.2423 38.4671C25.3052 39.4827 26.3208 40.5425 27.368 41.5739C27.655 41.8578 27.8947 42.3466 28.3741 42.1921C28.986 41.9934 28.7463 41.3941 28.7463 40.9652C28.7589 33.3039 28.7684 25.6427 28.7463 17.9814C28.74 16.2719 29.2384 14.8715 30.8091 14.042C33.3734 12.6889 36.1899 14.5025 36.2309 17.5714C36.2814 21.2427 36.2436 24.9172 36.2467 28.5917C36.2499 28.8472 36.2688 29.0995 36.2909 29.5442Z" fill="#96644D"/>
<path d="M24.3811 0.0031509C30.9984 0.0031509 37.6156 -0.00315725 44.2297 0.00630498C46.9896 0.00945906 48.4404 1.39725 48.4594 4.13184C48.4909 8.54439 48.4909 12.9569 48.4625 17.3695C48.4436 20.1419 47.0495 21.5392 44.2865 21.5234C43.0028 21.5171 41.2901 22.1258 40.5521 21.2427C39.9244 20.492 40.3628 18.8393 40.3439 17.5871C40.2871 13.2818 37.3444 9.91641 33.2693 9.49377C29.2983 9.08374 25.6396 11.7048 24.7596 15.6442C24.4032 17.2465 24.5893 18.8929 24.6145 20.5141C24.6303 21.4162 24.3433 21.6717 23.457 21.6685C16.947 21.637 10.4338 21.6811 3.92378 21.6338C1.42575 21.6117 0.0284989 20.1482 0.0158826 17.6818C-0.00619596 13.1115 -0.00935004 8.54124 0.0190367 3.97413C0.031653 1.43195 1.47937 0.0157672 4.05625 0.00945906C10.8312 -0.00631133 17.6062 0.0031509 24.3811 0.0031509ZM12.7552 15.783C13.3292 15.8366 13.7771 15.5938 14.1525 15.19C16.1206 13.0768 18.1077 10.9793 20.0474 8.84087C20.776 8.03974 20.8486 7.05882 20.06 6.29238C19.2053 5.46286 18.2275 5.62372 17.4169 6.45955C16.5401 7.36477 15.7137 8.3173 14.8495 9.23513C14.2029 9.92272 13.6131 10.992 12.853 11.1402C12.1875 11.2695 11.6639 10.0047 11.0236 9.41492C10.9479 9.34237 10.8754 9.26352 10.7902 9.20359C9.93545 8.61063 9.08701 8.65163 8.36788 9.37707C7.69291 10.0552 7.60144 10.9352 8.20387 11.6606C9.27625 12.9475 10.4527 14.1492 11.6103 15.3667C11.9036 15.6821 12.3136 15.8208 12.7552 15.783Z" fill="#689F4E"/>
</g>
<defs>
<clipPath id="clip0_160_410">
<rect width="56.8396" height="60" fill="white"/>
</clipPath>
</defs>
</svg>
