<svg width="26" height="25" viewBox="0 0 26 25" fill="none" xmlns="http://www.w3.org/2000/svg">
<path d="M25.8013 12.5C25.8013 5.5963 20.0477 0 12.95 0C5.85223 0 0.0986328 5.5963 0.0986328 12.5C0.0986328 18.7389 4.79747 23.9111 10.9414 24.8481V16.113H7.67807V12.5H10.9414V9.7463C10.9414 6.61296 12.8605 4.88333 15.7963 4.88333C17.2033 4.88333 18.6731 5.12778 18.6731 5.12778V8.2037H17.0529C15.4555 8.2037 14.9586 9.16667 14.9586 10.1556V12.5H18.5227L17.9534 16.113H14.9586V24.8481C21.1025 23.9111 25.8013 18.7389 25.8013 12.5Z" fill="#FFF5E7"/>
<path d="M17.9536 16.1129L18.5229 12.5H14.9587V10.1555C14.9587 9.16663 15.4557 8.20367 17.053 8.20367H18.6733V5.12775C18.6733 5.12775 17.2035 4.8833 15.7965 4.8833C12.8606 4.8833 10.9415 6.61293 10.9415 9.74626V12.5H7.67822V16.1129H10.9415V24.8481C11.5965 24.9481 12.2666 25 12.9501 25C13.6336 25 14.3038 24.9481 14.9587 24.8481V16.1129H17.9536Z" fill="#96644D"/>
</svg>
