<svg width="1148" height="91" viewBox="0 0 1148 91" fill="none" xmlns="http://www.w3.org/2000/svg">
<path d="M44.9468 27.2704C46.5951 31.5059 47.3329 36.0433 47.864 40.5696C48.4108 45.23 48.6803 49.9212 48.8713 54.6124C48.9289 56.027 48.9786 57.4444 49.0257 58.8591C49.5594 58.8842 50.0931 58.9066 50.6269 58.9346C51.7205 58.9905 53.4055 59.6754 53.6096 61.0257C53.8136 62.3845 52.2595 62.8905 51.2679 62.8346C50.5562 62.7926 49.8472 62.7563 49.1356 62.7199C49.3161 69.7539 49.3763 76.7963 49.3632 83.8303C49.3606 85.3931 48.0471 85.8712 46.752 85.8488C46.0116 85.8348 45.1273 85.5245 44.5177 85.08C44.1147 84.7865 43.4319 84.1155 43.424 83.5172C43.3141 76.5056 43.2801 69.4911 43.1781 62.4795C42.3068 62.4543 41.433 62.432 40.5591 62.4124C34.4159 62.2866 28.2648 62.3509 22.1242 62.6473C22.0012 62.6528 21.8756 62.6612 21.7526 62.6668C21.3288 65.6303 21.0148 68.6105 20.7977 71.6019C20.4837 75.9101 20.3764 80.263 20.9233 84.5544C21.2451 87.0845 16.4702 86.4191 16.1013 84.2972C15.1986 79.1 15.3556 73.7099 15.7559 68.4623C15.8946 66.6395 16.0777 64.8223 16.3001 63.0107C12.0014 63.3294 7.71058 63.7432 3.41189 64.1402C2.27377 64.2464 0.756274 63.8718 0.164974 62.6892C-0.394929 61.5737 0.570512 60.6959 1.5595 60.5589C5.14654 60.0612 8.76498 59.7537 12.3703 59.4685C13.8591 59.3511 15.3478 59.2449 16.8391 59.147C17.1504 57.1565 17.5115 55.1743 17.9249 53.2062C18.8485 48.7917 20.0468 44.4416 21.4805 40.1866C22.841 36.1523 24.3507 32.093 26.4359 28.4166C28.4061 24.9416 31.3809 20.6418 35.4415 20.0826C40.0254 19.4564 43.322 23.0992 44.9468 27.2704ZM43.1101 58.6466C43.0708 56.67 43.029 54.6963 42.9714 52.7197C42.8432 48.3276 42.6286 43.9384 42.1603 39.5715C41.7208 35.473 41.1739 31.2179 39.6408 27.399C39.3189 26.5966 38.9553 25.7998 38.4765 25.0897C38.4791 25.0981 38.2698 24.8158 38.2436 24.7822C38.1102 24.6173 37.9663 24.4691 37.8302 24.3097C37.8067 24.2818 37.702 24.1867 37.6628 24.1504C37.5843 24.0917 37.5058 24.033 37.4247 23.9742C37.6392 24.1308 37.5555 24.0777 37.4221 23.9994C37.4038 23.9994 37.3724 23.9966 37.3383 23.991C37.2625 24.005 37.184 24.019 37.1369 24.0385C36.4514 24.3125 35.8653 24.7934 35.3002 25.3302C32.6629 27.8407 30.7974 31.3913 29.3296 34.7769C26.0383 42.3728 23.8274 50.6229 22.3675 58.8311C22.3675 58.8367 22.3649 58.8423 22.3649 58.8507C29.2721 58.5376 36.195 58.4677 43.1101 58.6466Z" fill="#3D3D3D"/>
<path d="M69.6033 35.4702C68.6562 39.0515 67.8059 42.658 66.7227 46.1945C67.0733 51.4477 67.4474 56.712 68.2951 61.9036C68.6693 64.2073 69.0748 66.5752 69.8388 68.7755C70.1083 69.5499 70.5871 70.6486 71.0632 71.4761C71.3144 71.9122 71.4374 72.094 71.5787 72.2701C71.7435 72.4742 71.9031 72.6811 72.081 72.874C72.0915 72.8851 72.6932 73.4834 72.3191 73.1507C73.1799 73.914 73.9569 75.1804 72.756 76.1086C71.6441 76.9669 69.7655 76.6761 68.7059 75.857C64.0775 72.2785 62.9054 66.0608 62.0996 60.3688C61.2126 54.1036 60.8986 47.721 60.6135 41.3971C60.357 35.6911 60.3126 29.9347 60.76 24.237C61.0582 20.4573 61.5553 16.6243 62.6071 12.9927C63.4758 9.98733 64.8624 6.31937 68.1852 5.86367C71.0161 5.47506 73.3395 7.41808 73.8366 10.3256C74.2683 12.8445 73.9098 15.5899 73.5593 18.0977C73.1171 21.2345 72.4107 24.3321 71.6729 27.399C71.024 30.0996 70.3123 32.7863 69.6033 35.4702ZM68.7948 11.9835C68.7948 11.7514 68.7948 11.5222 68.787 11.2901C68.787 11.2845 68.787 11.279 68.787 11.2762C68.5803 11.7011 68.3815 12.2379 68.1643 12.9172C67.662 14.4912 67.3297 16.1295 67.0628 17.7678C66.5788 20.7312 66.3067 23.7282 66.1759 26.7392C66.3093 26.1996 66.4427 25.6601 66.5709 25.1177C67.2512 22.2437 67.8608 19.3474 68.3213 16.423C68.5175 15.1818 68.6797 13.9349 68.7582 12.6768C68.7713 12.4727 68.7791 12.2686 68.7896 12.0673C68.7896 12.0394 68.7922 12.017 68.7922 11.9974C68.7948 11.9947 68.7948 11.9919 68.7948 11.9835ZM68.3213 8.91378C68.3317 8.92217 68.3422 8.93056 68.3527 8.93894C68.3134 8.86905 68.282 8.80755 68.2846 8.80475C68.269 8.82432 68.2899 8.86626 68.3213 8.91378ZM68.3605 8.95572C68.3474 8.94454 68.337 8.93056 68.3239 8.91937C68.3396 8.94454 68.3605 8.9697 68.3815 8.99486C68.3762 8.98088 68.3684 8.9697 68.3605 8.95572Z" fill="#3D3D3D"/>
<path d="M85.095 35.4702C84.1479 39.0515 83.2975 42.658 82.2144 46.1945C82.565 51.4477 82.9391 56.712 83.7868 61.9036C84.161 64.2073 84.5665 66.5752 85.3305 68.7755C85.6 69.5499 86.0787 70.6486 86.5549 71.4761C86.8061 71.9122 86.9291 72.094 87.0704 72.2701C87.2352 72.4742 87.3948 72.6811 87.5727 72.874C87.5832 72.8851 88.1849 73.4834 87.8108 73.1507C88.6716 73.914 89.4486 75.1804 88.2477 76.1086C87.1358 76.9669 85.2572 76.6761 84.1976 75.857C79.5692 72.2785 78.3971 66.0608 77.5913 60.3688C76.7043 54.1036 76.3903 47.721 76.1052 41.3971C75.8488 35.6911 75.8043 29.9347 76.2517 24.237C76.5499 20.4573 77.047 16.6243 78.0988 12.9927C78.9675 9.98733 80.3541 6.31937 83.6769 5.86367C86.5078 5.47506 88.8312 7.41808 89.3283 10.3256C89.76 12.8445 89.4015 15.5899 89.0509 18.0977C88.6088 21.2345 87.9024 24.3321 87.1645 27.399C86.5157 30.0996 85.804 32.7863 85.095 35.4702ZM84.2865 11.9835C84.2865 11.7514 84.2865 11.5222 84.2787 11.2901C84.2787 11.2845 84.2787 11.279 84.2787 11.2762C84.072 11.7011 83.8732 12.2379 83.656 12.9172C83.1537 14.4912 82.8214 16.1295 82.5545 17.7678C82.0705 20.7312 81.7984 23.7282 81.6676 26.7392C81.801 26.1996 81.9344 25.6601 82.0626 25.1177C82.7429 22.2437 83.3525 19.3474 83.813 16.423C84.0092 15.1818 84.1714 13.9349 84.2499 12.6768C84.263 12.4727 84.2708 12.2686 84.2813 12.0673C84.2813 12.0394 84.2839 12.017 84.2839 11.9974C84.2865 11.9947 84.2865 11.9919 84.2865 11.9835ZM83.813 8.91378C83.8234 8.92217 83.8339 8.93056 83.8444 8.93894C83.8051 8.86905 83.7737 8.80755 83.7763 8.80475C83.7633 8.82432 83.7816 8.86626 83.813 8.91378ZM83.8522 8.95572C83.8391 8.94454 83.8287 8.93056 83.8156 8.91937C83.8313 8.94454 83.8522 8.9697 83.8731 8.99486C83.8679 8.98088 83.8601 8.9697 83.8522 8.95572Z" fill="#3D3D3D"/>
<path d="M162.919 54.344C162.152 62.8765 160.399 71.8144 156.571 79.4187C154.771 82.9972 152.197 86.7267 148.102 87.1572C143.688 87.6241 139.416 84.8144 137.699 80.4782C136.13 76.5083 136.3 71.9765 137.15 67.8361C138.021 63.595 139.591 59.5133 141.315 55.5965C144.656 47.9949 149.102 40.9637 153.897 34.3323C154.572 33.3986 156.161 33.4181 157.367 33.9437C156.927 28.1734 156.069 22.4058 154.667 16.8731C154.169 14.9106 153.565 12.9899 152.77 11.1419C152.526 10.5744 152.215 9.87829 151.906 9.37227C151.417 9.80001 150.742 10.3871 150.632 10.5157C150.046 11.2062 149.525 11.9527 149.049 12.7327C148.12 14.2564 147.362 15.8974 146.647 17.5469C143.503 24.8157 141.37 32.5263 138.688 39.988C137.331 43.765 135.826 47.4945 134.039 51.0646C132.461 54.221 130.554 57.984 127.074 59.0156C122.472 60.3771 118.723 56.916 116.784 52.7784C115.076 49.1328 114.325 44.9784 113.692 40.9889C112.297 32.2048 111.868 23.2362 111.834 14.3402C111.829 13.1297 112.878 12.6936 113.898 12.7467C114.804 12.7914 116.457 13.4009 116.528 14.5891C116.664 16.8731 116.852 19.1489 117.012 21.4301C117.634 30.4072 118.31 39.6218 120.693 48.2997C121.203 50.156 121.886 51.9537 122.888 53.5752C123.103 53.9218 123.27 54.1651 123.527 54.4726C123.67 54.6459 123.82 54.8109 123.974 54.9702C124.005 55.0038 124.024 55.0233 124.039 55.0401C124.06 55.0569 124.084 55.0737 124.11 55.096C124.531 54.8975 125.07 54.5089 125.476 54.084C126.054 53.4745 126.546 52.756 126.991 52.0319C128.003 50.3769 128.88 48.6128 129.712 46.8515C133.181 39.5016 135.486 31.6009 138.259 23.9407C139.677 20.0267 141.171 16.082 143.055 12.3916C144.84 8.897 147.846 4.45741 152.071 5.09483C156.584 5.77419 158.235 11.1028 159.462 15.0951C160.734 19.2271 161.487 23.5493 162.105 27.8407C163.363 36.5885 163.711 45.5179 162.919 54.344ZM123.882 55.1492C123.895 55.152 123.909 55.152 123.922 55.1547C123.906 55.152 123.895 55.152 123.882 55.1492ZM157.717 41.864C157.699 40.564 157.66 39.2612 157.602 37.9556C156.833 39.071 156.066 40.1893 155.313 41.316C150.943 47.8607 146.92 54.8053 144.253 62.3565C142.901 66.1894 141.666 70.3634 141.784 74.5066C141.833 76.3127 142.058 78.2193 142.767 79.8772C143.105 80.6656 143.476 81.303 144.015 81.8985C144.51 82.4436 144.79 82.5834 145.279 82.8462C145.347 82.8742 145.399 82.8937 145.439 82.9105C145.47 82.9189 145.501 82.9273 145.533 82.9357C145.609 82.9525 145.664 82.9636 145.706 82.972C145.834 82.972 146.059 82.972 146.033 82.9832C146.111 82.972 146.19 82.9608 146.268 82.9441C146.077 82.9692 146.925 82.6869 146.875 82.712C147.003 82.6449 147.469 82.3178 147.704 82.1249C148.971 81.0877 149.913 79.469 150.737 77.9733C152.636 74.5178 153.856 70.6989 154.845 66.8492C156.922 58.736 157.835 50.2679 157.717 41.864ZM151.38 8.6957C151.325 8.63699 151.281 8.58947 151.281 8.59226C151.263 8.61742 151.315 8.65936 151.38 8.6957Z" fill="#3D3D3D"/>
<path d="M186.673 68.2414C184.839 70.6346 182.133 72.1722 179.203 72.0827C176.205 71.9933 173.423 70.1621 171.788 67.5285C170.347 65.2053 169.983 62.2419 169.993 59.516C170.001 57.7352 170.15 55.9683 170.485 54.2405C169.219 52.0934 169.658 49.2306 170.977 47.1059C172.484 44.6764 175.017 43.0605 177.746 42.8704C183.635 42.4622 188.483 47.1199 189.655 53.1055C190.613 57.984 189.695 64.3023 186.673 68.2414ZM184.441 52.9881C184.148 51.1401 183.476 49.3145 182.235 47.953C181.649 47.31 181.108 46.9326 180.352 46.6474C180.587 46.7508 179.365 46.4713 179.786 46.5104C179.247 46.4601 179.318 46.4573 178.797 46.5412C178.224 46.6334 177.461 47.0472 176.84 47.542C176.212 48.0425 175.702 48.6547 175.268 49.3509C175.179 49.4934 175.09 49.6444 175.004 49.8038C175.995 50.17 177.343 51.1457 176.979 52.3199C176.233 54.7354 175.718 57.2627 175.689 59.8152C175.663 62.0126 175.849 64.4449 176.908 66.3739C177.17 66.852 177.267 66.9442 177.667 67.3971C177.73 67.467 177.769 67.5146 177.793 67.5481C177.827 67.5677 177.877 67.5984 177.947 67.646C178.036 67.7047 178.12 67.7662 178.206 67.8249C178.151 67.7746 178.306 67.8305 178.395 67.8752C178.502 67.864 178.792 67.8948 178.515 67.9199C178.957 67.8808 178.871 67.8556 178.74 67.8892C180.359 67.4754 181.534 66.0077 182.387 64.593C184.349 61.3472 185.04 56.7623 184.441 52.9881ZM178.436 67.9255C178.434 67.9255 178.429 67.9227 178.426 67.9227C178.421 67.9227 178.415 67.9199 178.41 67.9199C178.418 67.9227 178.426 67.9227 178.436 67.9255Z" fill="#3D3D3D"/>
<path d="M212.172 69.2563C211.889 67.2154 211.74 65.1578 211.664 63.0945C210.961 65.0012 210.079 66.8212 208.841 68.2834C207.512 69.8574 205.733 70.9281 203.687 70.724C201.366 70.4948 199.477 69.164 198.14 67.1707C196.157 64.21 195.82 60.3575 195.663 56.8294C195.479 52.7812 195.597 48.6547 196.175 44.6513C196.34 43.5078 197.876 43.3848 198.682 43.4938C199.524 43.6085 201.068 44.2599 201.128 45.3921C201.34 49.4179 201.105 53.4522 201.372 57.4808C201.563 60.4023 201.806 63.6453 203.378 66.1419C203.438 66.2397 203.488 66.3096 203.538 66.3739C203.556 66.3599 203.574 66.3459 203.593 66.332C204.629 65.4625 205.335 64.0171 205.921 62.7842C207.321 59.8515 208.119 56.4855 208.899 53.3152C209.323 51.5986 209.699 49.8681 210.037 48.1291C210.343 46.5496 210.691 45.0427 211.429 43.6197C211.85 42.8089 213.135 42.753 213.859 42.862C214.629 42.9766 215.926 43.4547 216.253 44.3577C216.965 46.3203 216.96 48.4814 217.036 50.5614C217.112 52.6386 217.143 54.7158 217.182 56.793C217.266 61.0649 217.415 65.3171 217.936 69.5554C218.31 72.5692 212.528 71.8339 212.172 69.2563Z" fill="#3D3D3D"/>
<path d="M239.89 51.3917C238.694 51.333 237.496 50.6816 237.093 49.4375C236.839 50.0526 236.64 50.7012 236.439 51.3358C235.832 53.2621 235.316 55.2135 234.892 57.1956C234.516 58.9597 234.202 60.7378 233.927 62.5214C233.658 64.2604 233.514 66.0356 233.173 67.7606C233.019 68.5462 232.807 69.3234 232.512 70.0615C231.973 71.4006 230.594 71.7249 229.341 71.5348C226.8 71.1518 225.816 68.9935 225.406 66.5612C224.796 62.9576 224.853 59.175 224.846 55.5238C224.84 53.6143 224.89 51.7021 224.919 49.7926C224.948 47.8915 224.835 45.8478 225.196 43.9803C225.405 42.8984 226.774 42.7698 227.58 42.8788C228.553 43.013 229.634 43.5973 229.906 44.6848C230.418 46.7509 230.358 49.035 230.429 51.1597C230.445 51.6042 230.458 52.0487 230.471 52.496C230.596 52.0515 230.722 51.607 230.858 51.1653C231.661 48.5569 232.689 45.0203 235.379 44.0222C238.822 42.7474 241.855 46.2281 242.093 49.6919C242.176 50.9864 240.905 51.4421 239.89 51.3917Z" fill="#3D3D3D"/>
<path d="M337.805 26.1549C336.837 36.5801 334.916 47.0276 331.871 56.9887C330.374 61.8868 328.681 66.9079 326.209 71.3531C325.066 73.4107 323.658 75.4683 321.879 76.9529C319.671 78.798 316.79 79.0748 314.195 78.0823C309.778 76.3937 307.463 71.3223 305.757 67.0085C303.959 62.4627 302.717 57.6988 301.599 52.9182C300.561 48.4674 299.634 43.9691 298.342 39.5882C298.292 39.6693 298.243 39.7476 298.193 39.8315C296.947 41.9282 295.849 44.1201 294.833 46.351C292.91 50.5782 291.301 54.9562 289.483 59.2337C288.489 61.5709 287.455 63.8885 286.288 66.1335C285.265 68.0988 284.203 70.2124 282.741 71.8507C280.713 74.1208 277.879 74.8281 275.114 73.5924C272.66 72.4965 271.184 69.8881 270.143 67.4083C268.17 62.7171 267.239 57.4891 266.543 52.4289C265.813 47.1283 265.467 41.7857 265.122 36.4459C264.777 31.12 264.541 25.7551 263.921 20.46C263.638 18.0501 268.128 18.7043 268.487 20.7032C268.934 23.1858 269.334 25.6824 269.672 28.1873C270.339 33.1721 270.595 38.2211 271.077 43.2282C271.556 48.2158 272.131 53.2005 273.159 58.0986C273.646 60.4218 274.198 62.759 274.978 64.9956C275.375 66.1363 275.852 67.2517 276.412 68.3113C276.629 68.7223 276.851 69.1416 277.113 69.5247C277.11 69.5163 277.118 69.5247 277.136 69.547C277.215 69.4827 277.291 69.4156 277.364 69.3457C277.877 68.8481 278.497 67.8668 278.955 67.1259C280.137 65.2305 281.192 63.2511 282.17 61.2298C286.1 53.0887 288.714 44.1676 293.593 36.5661C295.129 34.173 297.845 32.817 300.482 34.1366C302.902 35.3499 303.342 38.0646 304.051 40.5528C305.309 44.9784 306.262 49.4962 307.334 53.9777C308.378 58.339 309.524 62.692 311.246 66.81C312.065 68.7642 313.051 70.9896 314.2 72.5971C314.422 72.9075 314.888 73.4191 315.218 73.7965C315.265 73.8496 315.299 73.8888 315.327 73.9223C315.505 74.0761 315.699 74.2019 315.882 74.3473C315.919 74.3752 315.948 74.4004 315.971 74.4199C316.002 74.4311 316.042 74.4423 316.089 74.4619C316.115 74.4591 316.144 74.4563 316.178 74.4507C316.159 74.4563 316.144 74.4619 316.125 74.4675C317.622 74.0174 318.967 71.9653 319.909 70.4864C320.479 69.5918 321.002 68.6608 321.484 67.7047C321.081 67.3608 320.764 66.9163 320.612 66.3767C319.898 63.827 319.228 61.2633 318.661 58.6717C316.382 48.308 315.272 37.5781 316.387 26.9572C316.931 21.7684 318.025 16.6327 319.775 11.7542C320.612 9.42257 321.567 7.09934 322.852 5.00815C324.184 2.84427 325.926 0.652437 328.417 0.12964C331.238 -0.463049 333.935 1.02986 335.471 3.51804C336.646 5.42191 337.117 7.9017 337.509 10.1103C338.448 15.3942 338.297 20.8374 337.805 26.1549ZM316.021 74.4535C316.042 74.4591 316.057 74.4619 316.073 74.4647C316.05 74.4591 316.031 74.4535 316.021 74.4535ZM316.052 74.4982C316.065 74.4954 316.076 74.4898 316.086 74.487C316.073 74.4898 316.063 74.4954 316.052 74.4982ZM316.191 74.5038H316.188C316.445 74.5989 316.324 74.5513 316.191 74.5038ZM331.094 6.54579C330.911 5.85245 330.706 5.17309 330.296 4.47976C330.165 4.5832 330.037 4.69223 329.916 4.80686C329.589 5.11998 329.307 5.48621 329.027 5.84686C328.375 6.69675 327.802 7.61375 327.292 8.56708C325.086 12.6852 323.781 17.4602 322.873 22.0787C321.944 26.8035 321.502 31.6456 321.526 36.4738C321.565 44.5087 322.774 52.4513 324.532 60.2457C325.633 57.1117 326.594 53.9162 327.436 50.6956C328.718 45.7947 329.725 40.8155 330.531 35.8028C331.319 30.9076 332.028 25.9704 332.308 21.008C332.582 16.1714 332.336 11.2258 331.094 6.54579ZM329.861 3.90664C329.893 3.929 329.916 3.94857 329.94 3.96535C329.937 3.96255 329.937 3.95976 329.935 3.95696C329.914 3.94578 329.89 3.929 329.861 3.90664Z" fill="#783A1E"/>
<path d="M361.088 61.4702C359.759 63.8857 358.361 66.3208 356.436 68.2526C354.534 70.1621 352.006 71.1574 349.411 71.1937C346.821 71.2301 344.068 70.1285 342.391 67.9619C340.981 66.1419 340.371 63.8606 340.243 61.529C339.966 56.5051 341.046 50.8494 343.992 46.8151C345.651 44.545 348.019 42.8117 350.808 42.9543C353.532 43.0913 356.258 44.819 357.014 47.7293C357.613 50.0302 356.425 52.3255 354.772 53.7317C352.752 55.4511 350.015 55.781 347.53 55.8788C347.273 55.89 346.991 55.8481 346.708 55.7642C346.088 58.381 345.866 61.1599 346.263 63.7571C346.389 64.5707 346.554 65.2472 346.863 65.8986C346.957 66.0943 347.056 66.2844 347.166 66.469C347.177 66.4885 347.273 66.6143 347.307 66.6563C347.373 66.7346 347.441 66.81 347.511 66.8855C347.545 66.9163 347.663 67.0253 347.695 67.0505C347.789 67.1176 348.247 67.3748 348.037 67.2825C348.097 67.3105 348.155 67.3384 348.215 67.3636C348.244 67.3636 348.503 67.4447 348.587 67.4642C348.629 67.4726 348.655 67.481 348.673 67.4866C348.707 67.4866 348.746 67.4866 348.791 67.4866C349.199 67.495 349.202 67.5201 349.461 67.4586C349.743 67.3915 349.984 67.344 350.327 67.2126C353.581 65.9657 355.468 62.6696 357.184 59.6866C358.131 58.0595 362.145 59.5468 361.088 61.4702ZM347.859 52.1494C349.034 51.9788 350.191 51.6377 351.051 50.7319C352.019 49.7171 352.475 48.0509 351.637 46.9521C351.582 46.9773 351.528 46.9997 351.47 47.0248C351.13 47.282 350.541 47.7741 350.167 48.2326C349.215 49.404 348.443 50.7319 347.859 52.1494ZM351.538 46.8459C351.546 46.8487 351.554 46.8515 351.564 46.8543C351.562 46.8515 351.562 46.8515 351.559 46.8487C351.551 46.8487 351.546 46.8459 351.538 46.8459ZM351.611 46.8543C351.617 46.8599 351.622 46.8655 351.63 46.8711C351.63 46.8711 351.632 46.8711 351.632 46.8739C351.651 46.8795 351.669 46.8822 351.687 46.8822C351.664 46.8711 351.64 46.8627 351.611 46.8543ZM351.719 46.9046C351.703 46.9074 351.687 46.9102 351.674 46.9102C351.677 46.913 351.682 46.9158 351.685 46.9186C351.695 46.9186 351.703 46.9186 351.716 46.9158C351.708 46.9186 351.703 46.9214 351.695 46.9242C351.76 46.9717 351.766 46.941 351.719 46.9046Z" fill="#783A1E"/>
<path d="M395.977 75.9185C394.829 76.8047 393.036 76.4357 391.927 75.6669C390.383 74.5989 389.164 73.1703 388.212 71.4957C386.425 68.3533 385.669 64.4197 385.033 60.8496C384.973 60.5085 384.915 60.1675 384.86 59.8236C384.376 60.7853 383.858 61.7303 383.301 62.6528C381.527 65.5911 379.117 68.3337 375.983 69.5638C372.176 71.0595 367.263 69.9636 365.653 65.6079C364.442 62.3341 364.976 58.4174 366.022 55.1687C367.145 51.6825 369.073 48.2913 371.873 46.0631C374.957 43.6085 379.395 43.1248 382.602 45.6298C382.825 45.8031 383.034 45.9932 383.235 46.1889C382.519 38.6126 382.063 30.9607 382.736 23.3676C382.958 20.8626 383.303 18.3437 383.958 15.9226C384.525 13.8174 385.36 11.3181 387.252 10.1774C389.222 8.98646 392.021 9.41421 393.494 11.3013C394.515 12.6097 394.755 14.3766 394.808 16.0288C394.952 20.611 394.104 25.2044 393.23 29.6663C392.49 33.4461 391.603 37.1923 390.831 40.9638C390.352 43.3038 389.826 45.6522 389.209 47.9726C389.491 50.4999 389.808 53.0216 390.145 55.5322C390.632 59.1638 391.244 62.7926 392.183 66.3236C392.56 67.741 392.942 68.8705 393.583 70.1929C393.761 70.5591 393.949 70.917 394.156 71.2636C394.201 71.3391 394.541 71.8284 394.496 71.7836C394.695 72.0408 394.904 72.2924 395.122 72.5301C395.237 72.6587 395.357 72.7817 395.477 72.9019C395.496 72.9187 395.545 72.9634 395.593 73.0025C396.456 73.7434 397.134 75.0238 395.977 75.9185ZM381.951 52.6666C381.854 51.73 381.632 50.813 381.155 50.0163C380.834 49.4795 380.585 49.1384 380.161 48.6799C380.085 48.596 380.004 48.5122 379.921 48.4311C379.881 48.4003 379.779 48.3137 379.756 48.2969C379.638 48.2186 379.525 48.1319 379.408 48.0537C379.397 48.0509 379.387 48.0481 379.374 48.0481C379.314 48.0201 379.251 47.995 379.191 47.967C379.047 47.9334 378.874 47.9139 379.128 47.9558C379.455 48.0117 378.641 48.0005 378.782 47.9586C378.395 48.0145 378.013 48.1347 377.657 48.3221C375.219 49.6137 373.505 52.4653 372.451 55.0513C371.357 57.7352 370.648 60.9838 371.08 63.8326C371.135 64.1933 371.211 64.5511 371.302 64.9034C371.321 64.9761 371.341 65.0516 371.365 65.127C371.383 65.1606 371.446 65.3116 371.459 65.3367C371.506 65.4234 371.768 65.8679 371.755 65.8931C371.768 65.907 371.784 65.9238 371.799 65.9406C371.88 65.9294 371.962 65.9126 372.043 65.8987C371.99 65.907 372.265 65.8483 372.291 65.84C372.456 65.7868 372.621 65.7281 372.786 65.6666C373.107 65.5436 373.432 65.4038 373.733 65.2333C375.839 64.0479 377.678 61.4591 379.018 59.1051C380.18 57.0586 381.135 54.892 381.951 52.6666ZM379.219 47.9754C379.253 47.9866 379.282 47.995 379.308 48.0033C379.287 47.995 379.256 47.9838 379.219 47.9754ZM388.748 23.622C389.067 21.6454 389.35 19.6493 389.504 17.6504C389.538 17.2086 389.562 16.7697 389.58 16.328C389.583 16.2693 389.583 16.2106 389.585 16.1519C389.585 16.1183 389.585 16.0792 389.585 16.054C389.585 15.8863 389.585 15.7213 389.58 15.5536C389.468 15.8919 389.366 16.2357 389.274 16.5824C388.309 20.1945 388.018 24.0525 387.987 27.8659C388.264 26.4512 388.521 25.0394 388.748 23.622Z" fill="#783A1E"/>
<path d="M428.776 75.9185C427.627 76.8047 425.835 76.4357 424.726 75.6669C423.182 74.5989 421.963 73.1703 421.011 71.4957C419.224 68.3533 418.468 64.4197 417.832 60.8496C417.772 60.5085 417.714 60.1675 417.659 59.8236C417.175 60.7853 416.657 61.7303 416.1 62.6528C414.326 65.5911 411.916 68.3337 408.782 69.5638C404.975 71.0595 400.061 69.9636 398.452 65.6079C397.241 62.3341 397.775 58.4174 398.821 55.1687C399.944 51.6825 401.872 48.2913 404.671 46.0631C407.756 43.6085 412.193 43.1248 415.401 45.6298C415.623 45.8031 415.833 45.9932 416.034 46.1889C415.317 38.6126 414.862 30.9607 415.535 23.3676C415.757 20.8626 416.102 18.3437 416.756 15.9226C417.324 13.8174 418.159 11.3181 420.05 10.1774C422.021 8.98646 424.82 9.41421 426.293 11.3013C427.313 12.6097 427.554 14.3766 427.606 16.0288C427.75 20.611 426.903 25.2044 426.029 29.6663C425.288 33.4461 424.401 37.1923 423.63 40.9638C423.151 43.3038 422.625 45.6522 422.007 47.9726C422.29 50.4999 422.607 53.0216 422.944 55.5322C423.431 59.1638 424.043 62.7926 424.982 66.3236C425.359 67.741 425.741 68.8705 426.382 70.1929C426.56 70.5591 426.748 70.917 426.955 71.2636C426.999 71.3391 427.34 71.8284 427.295 71.7836C427.494 72.0408 427.703 72.2924 427.92 72.5301C428.036 72.6587 428.156 72.7817 428.276 72.9019C428.295 72.9187 428.344 72.9634 428.391 73.0025C429.255 73.7434 429.932 75.0238 428.776 75.9185ZM414.75 52.6666C414.653 51.73 414.43 50.813 413.954 50.0163C413.632 49.4795 413.384 49.1384 412.96 48.6799C412.884 48.596 412.803 48.5122 412.719 48.4311C412.68 48.4003 412.578 48.3137 412.554 48.2969C412.437 48.2186 412.324 48.1319 412.207 48.0537C412.196 48.0509 412.186 48.0481 412.173 48.0481C412.112 48.0201 412.05 47.995 411.989 47.967C411.845 47.9334 411.673 47.9139 411.927 47.9558C412.254 48.0117 411.44 48.0005 411.581 47.9586C411.194 48.0145 410.812 48.1347 410.456 48.3221C408.018 49.6137 406.304 52.4653 405.25 55.0513C404.156 57.7352 403.447 60.9838 403.879 63.8326C403.934 64.1933 404.009 64.5511 404.101 64.9034C404.119 64.9761 404.14 65.0516 404.164 65.127C404.182 65.1606 404.245 65.3116 404.258 65.3367C404.305 65.4234 404.567 65.8679 404.554 65.8931C404.567 65.907 404.582 65.9238 404.598 65.9406C404.679 65.9294 404.76 65.9126 404.841 65.8987C404.789 65.907 405.064 65.8483 405.09 65.84C405.255 65.7868 405.42 65.7281 405.584 65.6666C405.906 65.5436 406.231 65.4038 406.532 65.2333C408.638 64.0479 410.477 61.4591 411.817 59.1051C412.978 57.0586 413.933 54.892 414.75 52.6666ZM412.018 47.9754C412.052 47.9866 412.081 47.995 412.107 48.0033C412.086 47.995 412.055 47.9838 412.018 47.9754ZM421.55 23.622C421.869 21.6454 422.151 19.6493 422.306 17.6504C422.34 17.2086 422.363 16.7697 422.382 16.328C422.384 16.2693 422.384 16.2106 422.387 16.1519C422.387 16.1183 422.387 16.0792 422.387 16.054C422.387 15.8863 422.387 15.7213 422.382 15.5536C422.269 15.8919 422.167 16.2357 422.075 16.5824C421.11 20.1945 420.82 24.0525 420.788 27.8659C421.063 26.4512 421.319 25.0394 421.55 23.622Z" fill="#783A1E"/>
<path d="M432.931 43.3848C432.174 41.5061 432.305 39.2779 432.227 37.265C432.172 35.8895 433.451 35.4059 434.563 35.4618C435.241 35.4953 436 35.7414 436.562 36.1495C436.913 36.4067 437.541 37.0162 437.541 37.5474C437.541 38.5762 437.551 39.605 437.528 40.631C437.504 41.6095 437.564 42.7111 437.195 43.6252C436.533 45.2551 433.566 44.9644 432.931 43.3848ZM438.114 65.9126C438.101 67.8277 438.367 70.1062 437.452 71.8255C437.098 72.4853 436.075 72.5217 435.479 72.4406C434.741 72.3399 433.927 71.9458 433.538 71.2273C432.57 69.452 432.64 67.0812 432.538 65.0851C432.444 63.184 432.41 61.2745 432.379 59.3707C432.313 55.4064 432.224 51.361 432.536 47.4078C432.638 46.105 434.545 45.9569 435.4 46.0855C436.332 46.2253 438.166 46.9577 438.197 48.2549C438.292 52.1717 438.119 56.1137 438.103 60.0305C438.095 61.9902 438.127 63.95 438.114 65.9126Z" fill="#783A1E"/>
<path d="M467.797 70.2795C467.836 73.352 462.297 72.5636 462.017 69.972C461.379 64.0227 461.572 57.9924 460.997 52.0375C460.876 50.8046 460.706 49.5745 460.439 48.364C460.421 48.2801 460.403 48.1962 460.384 48.1152C460.186 48.3668 460.002 48.6352 459.83 48.8952C459.283 49.7283 458.841 50.6313 458.425 51.5455C456.415 55.9711 455.06 60.7797 453.974 65.5492C453.726 66.6423 453.585 67.9227 452.868 68.8006C451.661 70.2795 449.424 70.0475 447.957 69.2004C445.707 67.9032 445.372 64.3079 445.141 61.8421C444.684 56.9076 445.296 51.9565 445.165 47.0164C445.1 44.587 448.749 45.4425 449.55 46.8263C450.468 48.4171 450.468 50.3909 450.531 52.2081C450.578 53.564 450.604 54.9227 450.638 56.2814C450.79 55.8313 450.942 55.3812 451.102 54.9339C451.735 53.1586 452.441 51.4169 453.221 49.7087C453.914 48.1906 454.668 46.6782 455.78 45.462C457.164 43.9468 458.935 43.0437 460.952 43.3485C462.972 43.6532 464.599 44.9448 465.34 46.9801C466.643 50.5614 466.75 54.562 467.035 58.3474C467.331 62.309 467.747 66.304 467.797 70.2795Z" fill="#783A1E"/>
<path d="M503.117 85.9243C502.136 85.9858 500.828 85.5301 500.336 84.5376C499.554 82.9664 498.581 82.1669 497.361 81.6609C494.892 85.8544 491.022 89.0583 486.456 90.1262C483.662 90.7776 479.792 90.5652 477.762 88.1077C476.143 86.1452 476.219 83.3522 477.686 81.317C479.183 79.2426 481.619 78.0125 483.942 77.3834C486.467 76.7013 489.096 76.5922 491.687 76.8494C492.092 76.8886 492.513 76.9361 492.942 76.9892C494.51 73.4275 495.179 69.4185 495.467 65.4569C495.823 60.5896 495.849 55.247 494.243 50.6089C494.156 50.3629 494.067 50.1141 493.965 49.8709C493.824 50.1057 493.698 50.3517 493.578 50.5894C492.618 52.5128 491.872 54.5565 491.048 56.547C489.316 60.7406 487.351 65.1662 483.96 68.138C481.611 70.1985 478.176 70.3047 475.74 68.3309C473.474 66.4941 473.058 63.6928 473.5 60.8496C474.248 56.027 477.205 51.8111 480.538 48.6212C482.281 46.9522 484.321 45.5459 486.564 44.7827C488.152 44.2431 489.852 44.0558 491.438 44.7352C491.875 44.9225 492.301 45.1713 492.673 45.4816C495.404 44.9924 497.796 47.022 498.918 49.6081C501.155 54.7606 501.419 60.461 501.257 66.0496C501.134 70.2628 500.501 74.5122 498.95 78.3871C501.686 79.4578 504.038 81.2499 504.886 84.3335C505.187 85.4211 503.829 85.8796 503.117 85.9243ZM489.091 48.5066C489.081 48.5122 489.068 48.5177 489.057 48.5233C487.082 49.5829 485.402 51.2631 483.929 52.9965C482.472 54.7102 481.095 56.6644 480.256 58.8143C479.497 60.7546 478.78 63.2819 479.426 65.2976C480.214 64.7776 480.889 64.006 481.491 63.2791C484.465 59.6866 486.171 55.1184 488.039 50.8186C488.364 50.0666 488.693 49.2614 489.091 48.5066ZM479.764 65.9322C479.777 65.949 479.79 65.963 479.803 65.9797C479.97 66.2146 479.826 65.9713 479.764 65.9322ZM490.991 80.4894C490.077 80.4475 489.285 80.4671 488.39 80.5845C486.417 80.8417 483.976 81.5938 482.631 83.4333C482.069 84.2021 481.802 85.0772 482.04 85.983C482.053 86.0249 482.09 86.1508 482.121 86.257C482.132 86.257 482.137 86.2598 482.147 86.2598C482.194 86.2598 482.882 86.2598 482.754 86.2738C483.086 86.2458 483.775 86.12 484.099 86.0082C484.669 85.8153 485.216 85.5804 485.766 85.3288C486.213 85.1247 487.171 84.4901 487.82 83.9729C489.041 82.9972 490.067 81.8314 490.991 80.4894ZM493.421 48.8281C493.395 48.7889 493.371 48.7582 493.356 48.7442C493.348 48.7498 493.343 48.7526 493.335 48.7554C493.34 48.7833 493.371 48.8057 493.421 48.8281ZM494.682 49.0238C494.672 49.0266 494.661 49.0322 494.648 49.0378C494.648 49.0378 494.646 49.0405 494.643 49.0433C494.653 49.0405 494.667 49.035 494.68 49.0322C494.68 49.0266 494.68 49.0266 494.682 49.0238Z" fill="#783A1E"/>
<path d="M523.63 36.6388C525.171 33.8655 527.751 31.942 530.315 30.3568C531.591 29.5685 532.902 28.8388 534.242 28.1706C534.362 27.5052 534.488 26.8398 534.621 26.1773C534.925 24.6899 536.895 24.6508 537.957 24.8773C538.533 25.0003 539.239 25.3386 539.755 25.8334C545.142 23.9239 551.178 22.6267 556.792 23.7674C559.419 24.3013 562.213 25.579 563.885 27.8994C565.667 30.3736 565.646 33.3147 564.456 36.0741C563.302 38.7468 561.366 40.9134 559.343 42.8676C557.313 44.8302 555.06 46.5104 552.766 48.0984C552.7 48.1459 552.632 48.1907 552.567 48.2354C555.149 48.2689 557.787 48.5345 560.348 49.0937C561.944 47.9334 563.556 46.8012 565.18 45.6913C566.384 44.8694 568.03 45.1601 569.181 45.9401C570.094 46.558 570.751 48.0844 569.613 48.8616C568.54 49.5941 567.472 50.335 566.407 51.0898C570.717 53.0803 574.364 56.7623 574.84 61.9819C575.298 67.0085 573.087 71.6997 569.879 75.2391C563.456 82.3206 554.097 86.011 544.906 85.4239C543.404 85.3288 541.625 85.08 539.948 84.5488C538.925 85.5916 536.23 84.7753 535.856 83.2404C535.746 82.7931 535.644 82.343 535.55 81.8901C534.634 80.8082 534.09 79.4159 534.166 77.621C534.195 76.9277 534.326 76.2456 534.522 75.5774C534.318 73.9587 534.142 72.34 533.962 70.7324C532.601 58.5823 531.916 46.0855 533.384 33.8934C533.334 33.9242 533.282 33.9549 533.232 33.9885C531.272 35.2381 529.449 36.6472 528.219 38.7384C527.097 40.6478 522.371 38.9005 523.63 36.6388ZM539.917 30.4687C539.399 33.611 539.006 36.7758 538.755 39.9573C538.48 43.438 538.363 46.9326 538.363 50.4244C538.907 50.2371 539.454 50.0582 540.006 49.8932C543.171 48.3528 546.188 46.4461 549.1 44.4192C551.149 42.9934 553.153 41.481 554.977 39.7392C556.646 38.1485 558.375 36.2055 559.307 34.0024C559.717 33.0323 560.01 31.8973 559.872 30.8293C559.746 29.8564 559.458 29.4175 558.925 28.8024C558.851 28.7325 558.802 28.685 558.773 28.6543C558.668 28.5704 558.561 28.4865 558.451 28.4054C558.428 28.3887 558.027 28.1426 558.027 28.1343C557.855 28.0448 557.679 27.9609 557.504 27.8854C557.444 27.8603 556.85 27.6506 557.085 27.7205C555.958 27.3766 555.212 27.29 554.019 27.2508C549.354 27.111 544.317 28.6067 539.917 30.4687ZM541.921 54.3887C540.783 54.9059 539.626 55.3868 538.452 55.8173C538.514 57.7548 538.606 59.6922 538.721 61.624C538.847 63.732 538.998 65.8372 539.166 67.9423C540.011 66.947 540.9 65.9937 541.798 65.0544C546.107 60.5505 550.749 56.4631 555.599 52.6694C555.594 52.6694 555.586 52.6694 555.578 52.6666C553.399 52.496 551.698 52.51 549.801 52.6945C546.994 52.9657 544.456 53.5277 541.921 54.3887ZM566.536 56.2479C566.515 56.2395 566.164 55.9264 566.143 55.9124C565.971 55.7782 565.798 55.6524 565.62 55.5266C565.429 55.3952 565.235 55.2694 565.042 55.1464C564.982 55.1128 564.783 55.001 564.712 54.9619C564.286 54.741 563.849 54.5397 563.404 54.3552C563.242 54.2881 563.079 54.2238 562.917 54.1595C562.854 54.1343 562.496 54.0169 562.428 53.9889C556.695 58.2804 551.206 62.952 546.264 68.2359C544.778 69.8238 543.336 71.4733 542.117 73.3073C541.353 74.4535 540.401 75.9157 540.034 77.417C540.116 78.3144 540.189 79.2118 540.244 80.1092C540.307 80.1819 540.372 80.2518 540.435 80.3273C540.44 80.3301 540.443 80.3329 540.445 80.3385C540.503 80.3804 540.558 80.4223 540.615 80.4643C540.647 80.4839 540.67 80.5006 540.694 80.5146C540.864 80.5845 541.037 80.6684 541.204 80.7439C541.217 80.7494 541.225 80.755 541.238 80.7578C541.269 80.7634 541.309 80.7718 541.356 80.783C541.51 80.8193 541.662 80.8641 541.814 80.9004C541.937 80.9284 542.653 81.0458 542.455 81.0262C542.544 81.0374 542.635 81.0514 542.724 81.0598C543.266 81.1241 543.81 81.1688 544.354 81.1996C544.807 81.2247 545.262 81.2359 545.715 81.2387C545.895 81.2387 546.078 81.2387 546.259 81.2359C546.28 81.2359 546.761 81.2163 546.8 81.2163C550.686 80.9759 553.927 80.0645 557.499 78.2054C560.665 76.5559 564.013 73.8189 566.258 70.6234C568.469 67.481 569.843 63.2511 568.576 59.4238C568.398 58.8842 568.139 58.3586 567.862 57.8722C567.58 57.3829 567.658 57.492 567.313 57.0698C567.064 56.7819 566.805 56.5107 566.536 56.2479Z" fill="#783A1E"/>
<path d="M599.416 69.2563C599.133 67.2154 598.984 65.1578 598.908 63.0945C598.204 65.0012 597.322 66.8212 596.085 68.2834C594.756 69.8574 592.977 70.9281 590.931 70.724C588.61 70.4948 586.721 69.164 585.384 67.1707C583.401 64.21 583.063 60.3575 582.906 56.8294C582.723 52.7812 582.841 48.6547 583.419 44.6513C583.584 43.5078 585.12 43.3848 585.926 43.4938C586.768 43.6085 588.312 44.2599 588.372 45.3921C588.584 49.4179 588.348 53.4522 588.615 57.4808C588.806 60.4023 589.049 63.6453 590.622 66.1419C590.682 66.2397 590.732 66.3096 590.782 66.3739C590.8 66.3599 590.818 66.3459 590.836 66.332C591.873 65.4625 592.579 64.0171 593.165 62.7842C594.565 59.8515 595.363 56.4855 596.142 53.3152C596.566 51.5986 596.943 49.8681 597.281 48.1291C597.587 46.5496 597.935 45.0427 598.672 43.6197C599.094 42.8089 600.378 42.753 601.103 42.862C601.872 42.9766 603.17 43.4547 603.497 44.3577C604.209 46.3203 604.204 48.4814 604.279 50.5614C604.355 52.6386 604.387 54.7158 604.426 56.793C604.51 61.0649 604.659 65.3171 605.179 69.5554C605.554 72.5692 599.771 71.8339 599.416 69.2563Z" fill="#783A1E"/>
<path d="M628.128 63.609C628.557 65.6107 627.382 67.4642 625.888 68.5546C622.837 70.7771 618.243 70.6262 615.255 68.3505C613.806 67.2462 612.678 65.6973 612.272 63.8214C611.917 62.1748 612.176 60.0221 613.819 59.3371C614.75 58.9485 615.967 59.2616 616.715 59.927C617.288 60.4358 617.524 61.1823 617.089 61.7778C616.985 62.3621 617.118 63.089 617.233 63.609C617.359 64.1765 617.756 64.9453 617.981 65.2305C618.091 65.3702 618.212 65.5044 618.335 65.6302C618.379 65.6722 618.471 65.7589 618.494 65.7728C618.581 65.8343 618.989 66.058 618.868 66.0105C618.978 66.058 619.085 66.1083 619.195 66.1558C618.672 65.9238 619.271 66.1447 619.415 66.1894C619.423 66.1894 619.428 66.1894 619.436 66.1894C619.473 66.1922 619.721 66.1978 619.844 66.2034C619.941 66.195 620.069 66.1838 620.101 66.181C620.687 66.0999 620.995 66.0105 621.485 65.6834C621.948 65.373 622.395 64.9844 622.649 64.4505C623.264 63.1616 621.89 61.775 621.092 60.9782C618.999 58.8814 615.815 57.3186 613.706 54.85C612.571 53.5192 611.467 51.7691 611.435 49.9072C611.404 48.0201 612.542 46.4042 613.963 45.3837C617.374 42.9347 622.128 43.5917 625.145 46.4098C625.995 47.2037 625.705 48.364 624.828 48.884C623.79 49.5018 622.246 49.2167 621.299 48.5149C621.15 48.3975 620.995 48.2885 620.836 48.1878C620.998 48.2689 620.998 48.2689 620.831 48.185C620.663 48.0984 620.49 48.0229 620.315 47.9586C620.124 47.8831 620.14 47.8915 620.36 47.9838C620.273 47.967 620.211 47.953 620.163 47.9418C620.051 47.9306 619.886 47.9111 619.849 47.9083C619.818 47.9083 619.795 47.9083 619.774 47.9083C619.664 47.9194 619.556 47.9334 619.447 47.953C619.371 47.967 619.337 47.967 619.324 47.9642C619.282 47.981 619.235 48.0005 619.169 48.0257C618.761 48.1794 618.641 48.2158 618.28 48.4758C617.725 48.8728 617.189 49.4124 617.008 50.1448C616.801 50.9863 617.283 51.839 617.701 52.5156C618.45 53.7177 619.551 54.5593 620.744 55.4567C622.215 56.561 623.706 57.6094 625.059 58.8786C626.369 60.1031 627.73 61.7498 628.128 63.609Z" fill="#783A1E"/>
<path d="M634.878 43.3848C634.122 41.5061 634.253 39.2779 634.174 37.265C634.119 35.8895 635.399 35.4059 636.511 35.4618C637.188 35.4953 637.947 35.7414 638.509 36.1495C638.86 36.4067 639.488 37.0162 639.488 37.5474C639.488 38.5762 639.498 39.605 639.475 40.631C639.451 41.6095 639.512 42.7111 639.143 43.6252C638.483 45.2551 635.514 44.9644 634.878 43.3848ZM640.061 65.9126C640.048 67.8277 640.315 70.1062 639.399 71.8255C639.046 72.4853 638.023 72.5217 637.426 72.4406C636.688 72.3399 635.875 71.9458 635.485 71.2273C634.517 69.452 634.588 67.0812 634.485 65.0851C634.391 63.184 634.357 61.2745 634.326 59.3707C634.26 55.4064 634.172 51.361 634.483 47.4078C634.585 46.105 636.492 45.9569 637.348 46.0855C638.279 46.2253 640.113 46.9577 640.145 48.2549C640.239 52.1717 640.066 56.1137 640.05 60.0305C640.043 61.9902 640.074 63.95 640.061 65.9126Z" fill="#783A1E"/>
<path d="M669.743 70.2795C669.783 73.352 664.244 72.5636 663.964 69.972C663.325 64.0227 663.519 57.9924 662.943 52.0375C662.823 50.8046 662.653 49.5745 662.386 48.364C662.368 48.2801 662.35 48.1962 662.331 48.1152C662.132 48.3668 661.949 48.6352 661.777 48.8952C661.23 49.7283 660.788 50.6313 660.372 51.5455C658.362 55.9711 657.007 60.7797 655.921 65.5492C655.673 66.6423 655.531 67.9227 654.814 68.8006C653.608 70.2795 651.371 70.0475 649.903 69.2004C647.653 67.9032 647.318 64.3079 647.088 61.8421C646.63 56.9076 647.243 51.9565 647.112 47.0164C647.046 44.587 650.696 45.4425 651.497 46.8263C652.415 48.4171 652.415 50.3909 652.478 52.2081C652.525 53.564 652.551 54.9227 652.585 56.2814C652.737 55.8313 652.889 55.3812 653.048 54.9339C653.682 53.1586 654.388 51.4169 655.168 49.7087C655.861 48.1906 656.614 46.6782 657.726 45.462C659.11 43.9468 660.882 43.0437 662.899 43.3485C664.919 43.6532 666.546 44.9448 667.287 46.9801C668.59 50.5614 668.697 54.562 668.982 58.3474C669.278 62.309 669.694 66.304 669.743 70.2795Z" fill="#783A1E"/>
<path d="M696.001 61.4702C694.672 63.8857 693.275 66.3208 691.349 68.2526C689.447 70.1621 686.92 71.1574 684.324 71.1937C681.734 71.2301 678.982 70.1285 677.305 67.9619C675.895 66.1419 675.285 63.8606 675.157 61.529C674.879 56.5051 675.96 50.8494 678.906 46.8151C680.565 44.545 682.933 42.8117 685.722 42.9543C688.445 43.0913 691.172 44.819 691.928 47.7293C692.527 50.0302 691.339 52.3255 689.685 53.7317C687.666 55.4511 684.929 55.781 682.443 55.8788C682.187 55.89 681.904 55.8481 681.622 55.7642C681.002 58.381 680.779 61.1599 681.177 63.7571C681.303 64.5707 681.467 65.2472 681.776 65.8986C681.87 66.0943 681.97 66.2844 682.08 66.469C682.09 66.4885 682.187 66.6143 682.221 66.6563C682.286 66.7346 682.354 66.81 682.425 66.8855C682.459 66.9163 682.577 67.0253 682.608 67.0505C682.702 67.1176 683.16 67.3748 682.951 67.2825C683.011 67.3105 683.069 67.3384 683.129 67.3636C683.158 67.3636 683.417 67.4447 683.5 67.4642C683.542 67.4726 683.568 67.481 683.587 67.4866C683.621 67.4866 683.66 67.4866 683.704 67.4866C684.113 67.495 684.115 67.5201 684.374 67.4586C684.657 67.3915 684.897 67.344 685.24 67.2126C688.495 65.9657 690.381 62.6696 692.098 59.6866C693.047 58.0595 697.058 59.5468 696.001 61.4702ZM682.773 52.1494C683.948 51.9788 685.104 51.6377 685.965 50.7319C686.933 49.7171 687.388 48.0509 686.551 46.9521C686.496 46.9773 686.441 46.9997 686.384 47.0248C686.043 47.282 685.455 47.7741 685.081 48.2326C684.128 49.404 683.359 50.7319 682.773 52.1494ZM686.452 46.8459C686.459 46.8487 686.467 46.8515 686.478 46.8543C686.475 46.8515 686.475 46.8515 686.472 46.8487C686.465 46.8487 686.459 46.8459 686.452 46.8459ZM686.525 46.8543C686.53 46.8599 686.535 46.8655 686.543 46.8711C686.543 46.8711 686.546 46.8711 686.546 46.8739C686.564 46.8795 686.582 46.8822 686.601 46.8822C686.577 46.8711 686.554 46.8627 686.525 46.8543ZM686.632 46.9046C686.616 46.9074 686.601 46.9102 686.588 46.9102C686.59 46.913 686.595 46.9158 686.598 46.9186C686.609 46.9186 686.616 46.9186 686.63 46.9158C686.622 46.9186 686.616 46.9214 686.609 46.9242C686.677 46.9717 686.679 46.941 686.632 46.9046Z" fill="#783A1E"/>
<path d="M717.898 63.609C718.327 65.6107 717.152 67.4642 715.658 68.5546C712.607 70.7771 708.013 70.6262 705.025 68.3505C703.576 67.2462 702.448 65.6973 702.042 63.8214C701.687 62.1748 701.946 60.0221 703.589 59.3371C704.52 58.9485 705.737 59.2616 706.485 59.927C707.058 60.4358 707.293 61.1823 706.859 61.7778C706.755 62.3621 706.888 63.089 707.003 63.609C707.129 64.1765 707.526 64.9453 707.751 65.2305C707.861 65.3702 707.982 65.5044 708.105 65.6302C708.149 65.6722 708.241 65.7589 708.264 65.7728C708.351 65.8343 708.759 66.058 708.638 66.0105C708.748 66.058 708.855 66.1083 708.965 66.1558C708.442 65.9238 709.041 66.1447 709.185 66.1894C709.193 66.1894 709.198 66.1894 709.206 66.1894C709.243 66.1922 709.491 66.1978 709.614 66.2034C709.711 66.195 709.839 66.1838 709.871 66.181C710.457 66.0999 710.765 66.0105 711.255 65.6834C711.718 65.373 712.165 64.9844 712.419 64.4505C713.034 63.1616 711.66 61.775 710.862 60.9782C708.769 58.8814 705.585 57.3186 703.476 54.85C702.341 53.5192 701.237 51.7691 701.205 49.9072C701.174 48.0201 702.312 46.4042 703.733 45.3837C707.144 42.9347 711.898 43.5917 714.915 46.4098C715.765 47.2037 715.475 48.364 714.598 48.884C713.56 49.5018 712.016 49.2167 711.069 48.5149C710.92 48.3975 710.765 48.2885 710.606 48.1878C710.768 48.2689 710.768 48.2689 710.601 48.185C710.433 48.0984 710.26 48.0229 710.085 47.9586C709.894 47.8831 709.91 47.8915 710.13 47.9838C710.043 47.967 709.98 47.953 709.933 47.9418C709.821 47.9306 709.656 47.9111 709.619 47.9083C709.588 47.9083 709.564 47.9083 709.544 47.9083C709.434 47.9194 709.326 47.9334 709.217 47.953C709.141 47.967 709.107 47.967 709.094 47.9642C709.052 47.981 709.005 48.0005 708.939 48.0257C708.531 48.1794 708.411 48.2158 708.05 48.4758C707.495 48.8728 706.959 49.4124 706.778 50.1448C706.571 50.9863 707.053 51.839 707.471 52.5156C708.22 53.7177 709.321 54.5593 710.514 55.4567C711.985 56.561 713.476 57.6094 714.829 58.8786C716.139 60.1031 717.5 61.7498 717.898 63.609Z" fill="#783A1E"/>
<path d="M740.304 63.609C740.733 65.6107 739.559 67.4642 738.065 68.5546C735.014 70.7771 730.42 70.6262 727.432 68.3505C725.982 67.2462 724.855 65.6973 724.449 63.8214C724.093 62.1748 724.352 60.0221 725.996 59.3371C726.927 58.9485 728.143 59.2616 728.892 59.927C729.465 60.4358 729.7 61.1823 729.266 61.7778C729.161 62.3621 729.295 63.089 729.41 63.609C729.535 64.1765 729.933 64.9453 730.158 65.2305C730.268 65.3702 730.388 65.5044 730.511 65.6302C730.556 65.6722 730.647 65.7589 730.671 65.7728C730.757 65.8343 731.165 66.058 731.045 66.0105C731.155 66.058 731.262 66.1083 731.372 66.1558C730.849 65.9238 731.448 66.1447 731.592 66.1894C731.6 66.1894 731.605 66.1894 731.613 66.1894C731.649 66.1922 731.898 66.1978 732.021 66.2034C732.118 66.195 732.246 66.1838 732.277 66.181C732.863 66.0999 733.172 66.0105 733.661 65.6834C734.125 65.373 734.572 64.9844 734.826 64.4505C735.441 63.1616 734.067 61.775 733.269 60.9782C731.176 58.8814 727.992 57.3186 725.883 54.85C724.747 53.5192 723.643 51.7691 723.612 49.9072C723.581 48.0201 724.719 46.4042 726.139 45.3837C729.551 42.9347 734.305 43.5917 737.322 46.4098C738.172 47.2037 737.882 48.364 737.005 48.884C735.966 49.5018 734.423 49.2167 733.476 48.5149C733.327 48.3975 733.172 48.2885 733.013 48.1878C733.175 48.2689 733.175 48.2689 733.007 48.185C732.84 48.0984 732.667 48.0229 732.492 47.9586C732.301 47.8831 732.317 47.8915 732.536 47.9838C732.45 47.967 732.387 47.953 732.34 47.9418C732.228 47.9306 732.063 47.9111 732.026 47.9083C731.995 47.9083 731.971 47.9083 731.95 47.9083C731.84 47.9194 731.733 47.9334 731.623 47.953C731.547 47.967 731.513 47.967 731.5 47.9642C731.458 47.981 731.411 48.0005 731.346 48.0257C730.938 48.1794 730.817 48.2158 730.456 48.4758C729.902 48.8728 729.365 49.4124 729.185 50.1448C728.978 50.9863 729.46 51.839 729.878 52.5156C730.626 53.7177 731.728 54.5593 732.921 55.4567C734.391 56.561 735.883 57.6094 737.235 58.8786C738.544 60.1031 739.904 61.7498 740.304 63.609Z" fill="#783A1E"/>
<path d="M779.903 68.2414C778.069 70.6346 775.364 72.1722 772.434 72.0827C769.435 71.9933 766.654 70.1621 765.019 67.5285C763.577 65.2053 763.213 62.2419 763.224 59.516C763.232 57.7352 763.381 55.9683 763.716 54.2405C762.449 52.0934 762.889 49.2306 764.208 47.1059C765.715 44.6764 768.247 43.0605 770.976 42.8704C776.866 42.4622 781.714 47.1199 782.886 53.1055C783.841 57.984 782.923 64.3023 779.903 68.2414ZM777.669 52.9881C777.376 51.1401 776.703 49.3145 775.463 47.953C774.877 47.31 774.336 46.9326 773.579 46.6474C773.815 46.7508 772.593 46.4713 773.014 46.5104C772.475 46.4601 772.546 46.4573 772.025 46.5412C771.452 46.6334 770.688 47.0472 770.068 47.542C769.44 48.0425 768.93 48.6547 768.496 49.3509C768.407 49.4934 768.318 49.6444 768.232 49.8038C769.223 50.17 770.571 51.1457 770.207 52.3199C769.461 54.7354 768.946 57.2627 768.917 59.8152C768.891 62.0126 769.077 64.4449 770.136 66.3739C770.398 66.852 770.495 66.9442 770.895 67.3971C770.958 67.467 770.997 67.5146 771.021 67.5481C771.055 67.5677 771.104 67.5984 771.175 67.646C771.264 67.7047 771.348 67.7662 771.434 67.8249C771.379 67.7746 771.533 67.8305 771.622 67.8752C771.73 67.864 772.02 67.8948 771.743 67.9199C772.185 67.8808 772.099 67.8556 771.968 67.8892C773.587 67.4754 774.762 66.0077 775.615 64.593C777.577 61.3472 778.271 56.7623 777.669 52.9881ZM771.664 67.9255C771.662 67.9255 771.656 67.9227 771.654 67.9227C771.649 67.9227 771.643 67.9199 771.638 67.9199C771.646 67.9227 771.656 67.9227 771.664 67.9255Z" fill="#263238"/>
<path d="M811.642 70.2795C811.682 73.352 806.143 72.5636 805.863 69.972C805.224 64.0227 805.418 57.9924 804.842 52.0375C804.722 50.8046 804.552 49.5745 804.285 48.364C804.267 48.2801 804.248 48.1962 804.23 48.1152C804.031 48.3668 803.848 48.6352 803.675 48.8952C803.129 49.7283 802.686 50.6313 802.27 51.5455C800.261 55.9711 798.906 60.7797 797.82 65.5492C797.571 66.6423 797.43 67.9227 796.713 68.8006C795.507 70.2795 793.27 70.0475 791.802 69.2004C789.552 67.9032 789.217 64.3079 788.987 61.8421C788.529 56.9076 789.142 51.9565 789.011 47.0164C788.945 44.587 792.595 45.4425 793.396 46.8263C794.314 48.4171 794.314 50.3909 794.377 52.2081C794.424 53.564 794.45 54.9227 794.484 56.2814C794.636 55.8313 794.788 55.3812 794.947 54.9339C795.58 53.1586 796.287 51.4169 797.067 49.7087C797.76 48.1906 798.513 46.6782 799.625 45.462C801.009 43.9468 802.781 43.0437 804.798 43.3485C806.818 43.6532 808.445 44.9448 809.186 46.9801C810.488 50.5614 810.596 54.562 810.881 58.3474C811.177 62.309 811.593 66.304 811.642 70.2795Z" fill="#263238"/>
<path d="M851.759 68.2414C849.925 70.6346 847.22 72.1722 844.289 72.0827C841.291 71.9933 838.51 70.1621 836.875 67.5285C835.433 65.2053 835.069 62.2419 835.08 59.516C835.088 57.7352 835.237 55.9683 835.572 54.2405C834.305 52.0934 834.745 49.2306 836.064 47.1059C837.571 44.6764 840.103 43.0605 842.832 42.8704C848.722 42.4622 853.57 47.1199 854.742 53.1055C855.699 57.984 854.778 64.3023 851.759 68.2414ZM849.527 52.9881C849.234 51.1401 848.562 49.3145 847.322 47.953C846.736 47.31 846.194 46.9326 845.438 46.6474C845.674 46.7508 844.452 46.4713 844.873 46.5104C844.334 46.4601 844.405 46.4573 843.884 46.5412C843.311 46.6334 842.547 47.0472 841.927 47.542C841.299 48.0425 840.789 48.6547 840.354 49.3509C840.265 49.4934 840.176 49.6444 840.09 49.8038C841.082 50.17 842.429 51.1457 842.066 52.3199C841.32 54.7354 840.804 57.2627 840.776 59.8152C840.75 62.0126 840.935 64.4449 841.995 66.3739C842.257 66.852 842.353 66.9442 842.754 67.3971C842.816 67.467 842.856 67.5146 842.879 67.5481C842.913 67.5677 842.963 67.5984 843.034 67.646C843.123 67.7047 843.206 67.7662 843.293 67.8249C843.238 67.7746 843.392 67.8305 843.481 67.8752C843.588 67.864 843.879 67.8948 843.601 67.9199C844.044 67.8808 843.957 67.8556 843.826 67.8892C845.446 67.4754 846.621 66.0077 847.474 64.593C849.436 61.3472 850.127 56.7623 849.527 52.9881ZM843.523 67.9255C843.52 67.9255 843.515 67.9227 843.512 67.9227C843.507 67.9227 843.502 67.9199 843.497 67.9199C843.505 67.9227 843.512 67.9227 843.523 67.9255Z" fill="#263238"/>
<path d="M883.501 70.2795C883.54 73.352 878.001 72.5636 877.721 69.972C877.083 64.0227 877.276 57.9924 876.701 52.0375C876.58 50.8046 876.41 49.5745 876.143 48.364C876.125 48.2801 876.107 48.1962 876.089 48.1152C875.89 48.3668 875.707 48.6352 875.534 48.8952C874.987 49.7283 874.545 50.6313 874.129 51.5455C872.12 55.9711 870.764 60.7797 869.678 65.5492C869.43 66.6423 869.289 67.9227 868.572 68.8006C867.366 70.2795 865.129 70.0475 863.661 69.2004C861.411 67.9032 861.076 64.3079 860.846 61.8421C860.388 56.9076 861 51.9565 860.869 47.0164C860.804 44.587 864.454 45.4425 865.254 46.8263C866.173 48.4171 866.173 50.3909 866.235 52.2081C866.282 53.564 866.309 54.9227 866.343 56.2814C866.494 55.8313 866.646 55.3812 866.806 54.9339C867.439 53.1586 868.145 51.4169 868.925 49.7087C869.618 48.1906 870.372 46.6782 871.484 45.462C872.868 43.9468 874.639 43.0437 876.656 43.3485C878.676 43.6532 880.303 44.9448 881.044 46.9801C882.347 50.5614 882.454 54.562 882.739 58.3474C883.032 62.309 883.448 66.304 883.501 70.2795Z" fill="#263238"/>
<path d="M909.756 61.4702C908.427 63.8857 907.03 66.3208 905.104 68.2526C903.202 70.1621 900.675 71.1574 898.079 71.1937C895.489 71.2301 892.737 70.1285 891.06 67.9619C889.649 66.1419 889.04 63.8606 888.912 61.529C888.634 56.5051 889.715 50.8494 892.661 46.8151C894.32 44.545 896.687 42.8117 899.476 42.9543C902.2 43.0913 904.926 44.819 905.683 47.7293C906.282 50.0302 905.094 52.3255 903.44 53.7317C901.42 55.4511 898.684 55.781 896.198 55.8788C895.942 55.89 895.659 55.8481 895.377 55.7642C894.757 58.381 894.534 61.1599 894.932 63.7571C895.057 64.5707 895.222 65.2472 895.531 65.8986C895.625 66.0943 895.725 66.2844 895.834 66.469C895.845 66.4885 895.942 66.6143 895.976 66.6563C896.041 66.7346 896.109 66.81 896.18 66.8855C896.214 66.9163 896.332 67.0253 896.363 67.0505C896.457 67.1176 896.915 67.3748 896.706 67.2825C896.766 67.3105 896.823 67.3384 896.884 67.3636C896.912 67.3636 897.171 67.4447 897.255 67.4642C897.297 67.4726 897.323 67.481 897.342 67.4866C897.376 67.4866 897.415 67.4866 897.459 67.4866C897.867 67.495 897.87 67.5201 898.129 67.4586C898.412 67.3915 898.652 67.344 898.995 67.2126C902.25 65.9657 904.136 62.6696 905.853 59.6866C906.802 58.0595 910.816 59.5468 909.756 61.4702ZM896.53 52.1494C897.705 51.9788 898.862 51.6377 899.722 50.7319C900.69 49.7171 901.146 48.0509 900.309 46.9521C900.254 46.9773 900.199 46.9997 900.141 47.0248C899.801 47.282 899.212 47.7741 898.838 48.2326C897.886 49.404 897.114 50.7319 896.53 52.1494ZM900.206 46.8459C900.214 46.8487 900.222 46.8515 900.233 46.8543C900.23 46.8515 900.23 46.8515 900.227 46.8487C900.22 46.8487 900.214 46.8459 900.206 46.8459ZM900.28 46.8543C900.285 46.8599 900.29 46.8655 900.298 46.8711C900.298 46.8711 900.301 46.8711 900.301 46.8739C900.319 46.8795 900.337 46.8822 900.356 46.8822C900.332 46.8711 900.308 46.8627 900.28 46.8543ZM900.39 46.9046C900.374 46.9074 900.358 46.9102 900.345 46.9102C900.348 46.913 900.353 46.9158 900.356 46.9186C900.366 46.9186 900.374 46.9186 900.387 46.9158C900.379 46.9186 900.374 46.9214 900.366 46.9242C900.431 46.9717 900.434 46.941 900.39 46.9046Z" fill="#263238"/>
<path d="M962.829 53.6563C958.79 57.2935 954.386 60.4163 949.7 62.9995C949.75 66.4494 949.85 69.9021 950.02 73.3464C950.224 77.4365 950.402 81.7643 951.401 85.737C951.663 86.777 950.404 87.2131 949.703 87.2551C948.834 87.3082 947.424 86.8944 947.037 85.9271C945.226 81.3841 944.92 76.3462 944.601 71.4677C944.447 69.0997 944.324 66.7234 944.232 64.347C943.709 64.1262 943.241 63.8131 942.913 63.444C941.966 62.3733 942.393 61.2326 943.518 60.6399C943.714 60.5365 943.908 60.4303 944.104 60.3268C943.832 48.8868 944.274 37.3964 945.404 26.0263C944.567 26.3115 943.735 26.6246 942.908 26.974C941.723 27.4745 940.556 28.028 939.439 28.6822C939.062 28.9031 936.626 30.2562 936.658 30.4659C936.833 31.71 935.444 32.1461 934.544 32.0986C933.424 32.0427 932.184 31.422 931.849 30.2087C931.313 28.2768 933.557 27.0048 934.821 26.208C936.383 25.2211 938.018 24.3573 939.695 23.6192C941.702 22.7385 943.782 22.0452 945.894 21.5001C945.99 20.6613 946.09 19.8226 946.194 18.9867C946.378 17.5106 948.52 17.5078 949.47 17.7119C950.621 17.9579 951.995 18.9168 951.896 20.3091C957.905 19.4061 964.465 19.2215 970.058 21.7992C972.968 23.1411 975.534 25.3805 976.529 28.6906C977.505 31.9448 976.484 35.4506 975.124 38.3917C972.332 44.4137 967.591 49.3676 962.829 53.6563ZM969.852 36.4767C971.042 34.145 971.997 31.19 971.244 28.5424C971.094 28.014 970.778 27.385 970.521 27.0188C970.443 26.9069 970.192 26.6162 970.032 26.4457C969.943 26.3506 969.852 26.2583 969.76 26.1689C969.734 26.1437 969.718 26.1269 969.703 26.1102C969.687 26.099 969.671 26.085 969.65 26.0654C968.63 25.2295 968.127 24.9975 966.819 24.5194C966.804 24.5138 966.79 24.5082 966.78 24.5054C966.749 24.497 966.704 24.4859 966.644 24.4719C966.49 24.4299 966.338 24.3824 966.186 24.3405C965.83 24.2426 965.469 24.1532 965.111 24.0721C964.75 23.991 964.389 23.9211 964.025 23.8624C963.886 23.8401 963.653 23.8093 963.326 23.773C961.856 23.6108 960.375 23.5745 958.897 23.6192C956.508 23.6891 953.915 24.0106 951.451 24.4663C951.084 27.9637 950.765 31.4667 950.506 34.9754C949.962 42.3085 949.685 49.664 949.666 57.0223C952.934 54.8808 956.076 52.4625 958.983 49.8233C963.162 46.0184 967.204 41.6655 969.852 36.4767Z" fill="#783A1E"/>
<path d="M987.855 35.4702C986.908 39.0515 986.057 42.658 984.974 46.1945C985.325 51.4477 985.699 56.712 986.546 61.9036C986.923 64.2073 987.326 66.5752 988.09 68.7755C988.36 69.5499 988.838 70.6486 989.315 71.4761C989.566 71.9122 989.689 72.094 989.83 72.2701C989.995 72.4742 990.154 72.6811 990.332 72.874C990.343 72.8851 990.945 73.4834 990.571 73.1507C991.431 73.914 992.208 75.1804 991.007 76.1086C989.895 76.9669 988.017 76.6761 986.957 75.857C982.329 72.2785 981.157 66.0608 980.351 60.3688C979.464 54.1036 979.15 47.721 978.865 41.3971C978.608 35.6911 978.561 29.9347 979.011 24.237C979.31 20.4573 979.807 16.6243 980.859 12.9927C981.727 9.98733 983.114 6.31937 986.437 5.86367C989.268 5.47506 991.591 7.41808 992.088 10.3256C992.52 12.8445 992.161 15.5899 991.808 18.0977C991.366 21.2345 990.659 24.3321 989.922 27.399C989.275 30.0996 988.564 32.7863 987.855 35.4702ZM987.049 11.9835C987.049 11.7514 987.049 11.5222 987.041 11.2901C987.041 11.2845 987.041 11.279 987.041 11.2762C986.834 11.7011 986.635 12.2379 986.418 12.9172C985.916 14.4912 985.584 16.1295 985.317 17.7678C984.833 20.7312 984.561 23.7282 984.43 26.7392C984.563 26.1996 984.697 25.6601 984.825 25.1177C985.505 22.2437 986.115 19.3474 986.575 16.423C986.772 15.1818 986.934 13.9349 987.012 12.6768C987.025 12.4727 987.033 12.2686 987.044 12.0673C987.044 12.0394 987.046 12.017 987.046 11.9974C987.049 11.9947 987.049 11.9919 987.049 11.9835ZM986.575 8.91378C986.586 8.92217 986.596 8.93056 986.607 8.93894C986.567 8.86905 986.536 8.80755 986.539 8.80475C986.523 8.82432 986.544 8.86626 986.575 8.91378ZM986.615 8.95572C986.601 8.94454 986.591 8.93056 986.578 8.91937C986.594 8.94454 986.615 8.9697 986.635 8.99486C986.628 8.98088 986.622 8.9697 986.615 8.95572Z" fill="#783A1E"/>
<path d="M1009.72 67.0505C1009.36 63.4887 1009.57 59.8823 1009.66 56.3094C1009.7 54.9479 1009.72 53.5836 1009.7 52.2193C1009.44 52.7728 1009.19 53.3291 1008.95 53.8911C1007.98 56.0857 1007.12 58.3307 1006.15 60.5281C1004.45 64.4141 1001.88 70.5227 996.858 68.9655C994.422 68.2107 993.04 66.1754 992.82 63.5307C992.635 61.2997 992.959 59.0408 993.613 56.9188C994.838 52.9489 997.017 49.4319 999.987 46.7145C1001.51 45.3167 1003.39 44.2767 1005.42 44.1145C1006.6 44.0222 1007.81 44.1732 1008.91 44.6233C1009.37 44.4081 1009.89 44.2906 1010.47 44.3046C1012.09 44.3465 1013.62 45.2803 1014.31 46.8683C1014.81 48.0341 1014.91 49.39 1015.03 50.6509C1015.6 56.1947 1015.26 61.8001 1015.65 67.3636C1015.87 70.5032 1009.98 69.7064 1009.72 67.0505ZM997.577 64.6657C997.391 64.6657 997.169 64.8083 996.876 65.2193C997.02 65.018 997.386 64.8558 997.569 64.6741C997.572 64.6713 997.574 64.6685 997.577 64.6657ZM1005.64 48.5653C1005.06 48.9539 1004.52 49.4291 1004.02 49.9491C1002.37 51.6657 1000.97 53.7932 999.989 56.0158C999.055 58.1322 998.351 60.6399 998.388 62.9967C998.391 63.2092 998.401 63.4244 998.417 63.6397C999.89 61.5905 1000.94 59.1442 1001.96 56.8182C1002.97 54.5229 1003.91 52.1885 1004.99 49.9324C1005.19 49.4962 1005.41 49.0321 1005.64 48.5653Z" fill="#783A1E"/>
<path d="M1033.97 73.5896C1030.61 75.4655 1025.96 74.7191 1023.99 70.9952C1022.7 68.5685 1022.52 65.4038 1022.33 62.6892C1022.11 59.4573 1022.13 56.2059 1022.24 52.9713C1022.33 50.5726 1022.43 48.1711 1022.55 45.7724C1022.31 45.7696 1022.08 45.764 1021.84 45.75C1020.91 45.7025 1019.7 45.1936 1019.36 44.1732C1019.02 43.1807 1019.89 42.5601 1020.71 42.4315C1021.38 42.3252 1022.06 42.2609 1022.74 42.2134C1022.81 41.0113 1022.87 39.8119 1022.94 38.6098C1023.03 37.0162 1022.99 35.2717 1023.64 33.8151C1024.03 32.9568 1025.5 32.9932 1026.2 33.1665C1027.14 33.3986 1027.91 33.9717 1028.24 34.9502C1028.54 35.856 1028.45 36.8736 1028.45 37.8242C1028.45 38.7188 1028.44 39.6134 1028.43 40.5052C1028.42 40.9581 1028.42 41.4138 1028.41 41.8668C1028.84 41.864 1029.26 41.8779 1029.68 41.9255C1030.66 42.0317 1031.88 42.4622 1032.25 43.5526C1032.61 44.6177 1031.67 45.1629 1030.84 45.353C1030.04 45.5375 1029.2 45.5934 1028.35 45.6158C1028.35 45.7668 1028.35 45.9149 1028.34 46.0659C1028.26 49.5438 1028.14 53.0216 1028.13 56.4995C1028.11 60.0808 1028.28 63.6481 1028.81 67.1875C1028.91 67.8333 1029.01 68.4763 1029.17 69.1081C1029.29 69.5694 1029.41 69.9105 1029.7 70.4165C1029.72 70.4137 1029.75 70.4109 1029.77 70.4081C1030.16 70.355 1030.54 70.2739 1030.93 70.2236C1032 70.0894 1033.27 70.4249 1034.03 71.286C1034.58 71.901 1034.84 73.106 1033.97 73.5896ZM1029.99 70.7883C1030.01 70.6933 1029.93 70.6262 1029.83 70.5814C1029.9 70.6821 1029.99 70.8023 1029.99 70.7883Z" fill="#783A1E"/>
<path d="M1049.87 49.9519C1050.07 51.3106 1048.56 51.6825 1047.61 51.6964C1046.54 51.7104 1044.98 51.9229 1043.77 52.2919C1043.37 52.4121 1042.98 52.5463 1042.59 52.6945C1042.64 55.0876 1042.74 57.4836 1042.83 59.8683C1042.93 62.513 1043.05 65.1466 1043.26 67.7829C1043.37 69.1472 1043.52 70.5032 1043.65 71.8619C1043.78 73.0892 1044 74.2969 1043.97 75.5354C1043.93 77.8 1040.47 77.2129 1039.71 75.72C1038.16 72.6754 1037.74 68.8313 1037.42 65.4262C1037.11 62.0881 1036.98 58.7388 1036.85 55.3896C1036.84 54.9898 1036.82 54.59 1036.81 54.1902C1036.4 54.0113 1036.03 53.7569 1035.74 53.4298C1035.19 52.8147 1034.98 51.702 1035.8 51.1932C1036.1 51.0087 1036.4 50.8354 1036.7 50.6676C1036.6 46.119 1036.69 41.5424 1037.55 37.0973C1038.07 34.4022 1038.92 31.3325 1040.52 29.1267C1042.39 26.5491 1045.5 25.551 1048.35 26.9489C1054.35 29.8927 1051.7 37.6564 1049.34 42.3308C1048.35 44.3046 1047.21 46.1973 1045.94 47.9838C1046.29 47.9614 1046.64 47.9446 1046.99 47.939C1048.04 47.9167 1049.68 48.7022 1049.87 49.9519ZM1045.27 38.867C1046.19 36.854 1047.13 34.3099 1046.91 32.0314C1046.86 31.4975 1046.77 30.9998 1046.52 30.5357C1046.48 30.5637 1046.46 30.5777 1046.45 30.5833C1046.44 30.6 1046.41 30.6476 1046.3 30.7734C1044.97 32.3558 1044.35 34.6175 1043.84 36.622C1043.27 38.8781 1042.96 41.1902 1042.78 43.5162C1043.71 42.0261 1044.55 40.4717 1045.27 38.867Z" fill="#783A1E"/>
<path d="M1070.21 68.2414C1068.38 70.6346 1065.67 72.1722 1062.74 72.0827C1059.74 71.9933 1056.96 70.1621 1055.33 67.5285C1053.88 65.2053 1053.52 62.2419 1053.53 59.516C1053.54 57.7352 1053.69 55.9683 1054.02 54.2405C1052.76 52.0934 1053.2 49.2306 1054.51 47.1059C1056.02 44.6764 1058.55 43.0605 1061.28 42.8704C1067.17 42.4622 1072.02 47.1199 1073.19 53.1055C1074.15 57.984 1073.23 64.3023 1070.21 68.2414ZM1067.98 52.9881C1067.68 51.1401 1067.01 49.3145 1065.77 47.953C1065.18 47.31 1064.64 46.9326 1063.89 46.6474C1064.12 46.7508 1062.9 46.4713 1063.32 46.5104C1062.78 46.4601 1062.85 46.4573 1062.33 46.5412C1061.76 46.6334 1061 47.0472 1060.38 47.542C1059.75 48.0425 1059.24 48.6547 1058.8 49.3509C1058.71 49.4934 1058.63 49.6444 1058.54 49.8038C1059.53 50.17 1060.88 51.1457 1060.51 52.3199C1059.77 54.7354 1059.25 57.2627 1059.22 59.8152C1059.2 62.0126 1059.38 64.4449 1060.44 66.3739C1060.71 66.852 1060.8 66.9442 1061.2 67.3971C1061.26 67.467 1061.3 67.5146 1061.33 67.5481C1061.36 67.5677 1061.41 67.5984 1061.48 67.646C1061.57 67.7047 1061.65 67.7662 1061.74 67.8249C1061.69 67.7746 1061.84 67.8305 1061.93 67.8752C1062.04 67.864 1062.33 67.8948 1062.05 67.9199C1062.49 67.8808 1062.41 67.8556 1062.27 67.8892C1063.89 67.4754 1065.07 66.0077 1065.92 64.593C1067.88 61.3472 1068.58 56.7623 1067.98 52.9881ZM1061.97 67.9255C1061.97 67.9255 1061.96 67.9227 1061.96 67.9227C1061.96 67.9227 1061.95 67.9199 1061.95 67.9199C1061.95 67.9227 1061.96 67.9227 1061.97 67.9255Z" fill="#783A1E"/>
<path d="M1094.46 51.3917C1093.27 51.333 1092.07 50.6816 1091.66 49.4375C1091.41 50.0526 1091.21 50.7012 1091.01 51.3358C1090.4 53.2621 1089.89 55.2135 1089.46 57.1956C1089.09 58.9597 1088.77 60.7378 1088.5 62.5214C1088.23 64.2604 1088.09 66.0356 1087.75 67.7606C1087.59 68.5462 1087.38 69.3234 1087.08 70.0615C1086.54 71.4006 1085.17 71.7249 1083.91 71.5348C1081.37 71.1518 1080.39 68.9935 1079.98 66.5612C1079.37 62.9576 1079.43 59.175 1079.42 55.5238C1079.41 53.6143 1079.46 51.7021 1079.49 49.7926C1079.52 47.8915 1079.41 45.8478 1079.77 43.9803C1079.98 42.8984 1081.35 42.7698 1082.15 42.8788C1083.12 43.013 1084.21 43.5973 1084.48 44.6848C1084.99 46.7509 1084.93 49.035 1085 51.1597C1085.02 51.6042 1085.03 52.0487 1085.04 52.496C1085.17 52.0515 1085.29 51.607 1085.43 51.1653C1086.23 48.5569 1087.26 45.0203 1089.95 44.0222C1093.39 42.7474 1096.43 46.2281 1096.66 49.6919C1096.75 50.9864 1095.47 51.4421 1094.46 51.3917Z" fill="#783A1E"/>
<path d="M1133.51 70.5759C1132.27 70.5535 1130.56 69.7539 1130.29 68.3197C1129.58 64.5036 1129.54 60.6064 1129.42 56.7315C1129.36 54.8248 1129.27 52.9154 1129.07 51.0199C1129.06 50.9304 1129.05 50.8326 1129.04 50.7347C1128.69 51.2352 1128.37 51.7552 1128.07 52.2863C1127.3 53.6311 1126.6 55.0233 1125.96 56.4436C1124.66 59.3287 1123.67 62.3816 1122.88 65.4681C1122.49 67.0113 1122.27 68.6105 1121.83 70.1369C1121.56 71.0791 1121.18 71.8535 1120.27 72.2225C1119.04 72.7174 1117.49 72.3427 1116.44 71.5907C1114.87 70.464 1114.91 68.1296 1114.69 66.3236C1114.48 64.5567 1114.3 62.7898 1114.15 61.0173C1113.86 57.6737 1113.82 54.302 1113.38 50.9724C1113.33 50.5474 1113.27 50.1169 1113.19 49.6919C1112.73 50.3461 1112.32 51.0423 1111.93 51.7943C1110.54 54.5257 1109.59 57.4892 1108.85 60.4862C1108.08 63.5558 1107.4 66.6451 1106.86 69.7679C1106.82 70.0139 1106.7 70.204 1106.54 70.3494C1106.06 71.8535 1103.59 71.2971 1102.69 70.3913C1101.32 69.0103 1101.12 66.5053 1100.87 64.6098C1100.6 62.6221 1100.42 60.6287 1100.32 58.6242C1100.13 54.5145 1100.18 50.3545 1100.65 46.27C1100.82 44.805 1102.97 44.805 1103.9 45.0035C1105.11 45.2607 1106.41 46.228 1106.3 47.6622C1106.17 49.4683 1106.05 51.2715 1105.99 53.0775C1106.69 51.1737 1107.54 49.3313 1108.63 47.6958C1109.68 46.105 1111.13 44.6736 1113.07 44.7184C1115.1 44.7659 1116.99 46.024 1117.77 48.0481C1118.92 51.0506 1119.17 54.3552 1119.45 57.5758C1120.62 54.5061 1122 51.4113 1123.8 48.7134C1124.73 47.31 1125.96 45.9149 1127.52 45.3306C1129.57 44.559 1132.1 45.3222 1133.39 47.201C1134.33 48.5709 1134.49 50.3685 1134.68 52.0068C1134.9 53.8491 1135.02 55.7055 1135.11 57.559C1135.32 61.2606 1135.45 64.9649 1136.03 68.63C1136.27 70.1341 1134.56 70.5954 1133.51 70.5759ZM1130.63 49.0042C1130.64 49.0014 1130.66 49.0014 1130.67 48.9958C1130.69 49.021 1130.86 48.7386 1130.63 49.0042Z" fill="#783A1E"/>
<path d="M1147.98 69.2171C1147.87 69.9944 1147.7 70.7464 1147.67 71.5376C1147.64 72.0492 1147.08 72.3819 1146.7 72.5524C1146.14 72.8068 1145.46 72.7481 1144.88 72.6223C1143.85 72.4043 1142.71 71.5683 1142.81 70.341C1142.9 69.4045 1143.13 68.5014 1143.58 67.6851C1144.1 66.7709 1145.55 66.8939 1146.34 67.1679C1147.15 67.4531 1148.14 68.1632 1147.98 69.2171Z" fill="#783A1E"/>
</svg>
