<svg width="100" height="51" viewBox="0 0 100 51" fill="none" xmlns="http://www.w3.org/2000/svg">
<path d="M81.7714 35.001H0.575684V50.7193H81.7714V35.001Z" fill="#FFC76C"/>
<path d="M98.8696 17.6245H17.6738V33.3429H98.8696V17.6245Z" fill="#FFC76C"/>
<path d="M81.8266 0.303223H0.630859V16.0216H81.8266V0.303223Z" fill="#FFC76C"/>
<path d="M74.1335 0.303223H72.4209V16.0216H74.1335V0.303223Z" fill="#976063"/>
<path d="M65.589 0.303223H63.8765V16.0216H65.589V0.303223Z" fill="#976063"/>
<path d="M39.9372 0.303223H38.2246V16.0216H39.9372V0.303223Z" fill="#976063"/>
<path d="M22.839 0.303223H21.1265V16.0216H22.839V0.303223Z" fill="#976063"/>
<path d="M91.1769 17.6245H89.4644V33.3429H91.1769V17.6245Z" fill="#976063"/>
<path d="M82.6325 17.6245H80.9199V33.3429H82.6325V17.6245Z" fill="#976063"/>
<path d="M56.9806 17.6245H55.2681V33.3429H56.9806V17.6245Z" fill="#976063"/>
<path d="M48.4357 17.6245H46.7231V33.3429H48.4357V17.6245Z" fill="#976063"/>
<path d="M39.8825 35.001H38.1699V50.7193H39.8825V35.001Z" fill="#976063"/>
<path d="M22.7839 35.001H21.0713V50.7193H22.7839V35.001Z" fill="#976063"/>
<path d="M14.2394 35.001H12.5269V50.7193H14.2394V35.001Z" fill="#976063"/>
<path d="M81.3869 15.9299H0.621582V17.6428H81.3869V15.9299Z" fill="#976063"/>
<path d="M98.8698 33.416H17.729V35.1289H98.8698V33.416Z" fill="#976063"/>
<path d="M23.9106 23.1113C27.0793 24.7234 29.2498 27.1874 30.7426 30.2743C32.2262 27.1874 34.415 24.7051 37.5837 23.093C34.415 21.4808 32.2354 19.0168 30.7426 15.9299C29.259 19.0168 27.0793 21.4991 23.9106 23.1113Z" fill="#FFF9EE"/>
<path d="M51.3574 43.4648C53.1707 44.39 54.4162 45.8006 55.2679 47.5685C56.1196 45.8006 57.3743 44.3808 59.1876 43.4557C57.3743 42.5305 56.1196 41.1199 55.2679 39.3521C54.4162 41.1199 53.1707 42.5488 51.3574 43.4648Z" fill="#FFF9EE"/>
<path d="M68.5107 8.82201C70.324 9.74715 71.5695 11.1578 72.4213 12.9256C73.273 11.1578 74.5276 9.73801 76.3409 8.81286C74.5276 7.88772 73.273 6.47709 72.4213 4.70923C71.5695 6.48625 70.324 7.90602 68.5107 8.82201Z" fill="#FFF9EE"/>
<path d="M99.7306 17.6245H98.0181V35.129H99.7306V17.6245Z" fill="#976063"/>
</svg>
