<svg width="229" height="421" viewBox="0 0 229 421" fill="none" xmlns="http://www.w3.org/2000/svg">
<path d="M228.697 40.3156V70.0028C228.697 71.2119 227.708 72.2103 226.49 72.2103H226.307V408.671C226.307 414.973 221.032 420.084 214.53 420.084H14.6723C8.17001 420.084 2.89495 414.982 2.89495 408.671V151.37H2.61105C1.40218 151.37 0.413086 150.372 0.413086 149.162V119.484C0.413086 118.275 1.40218 117.286 2.61105 117.286H2.89495V107.018H2.61105C1.40218 107.018 0.413086 106.029 0.413086 104.81V75.1323C0.413086 73.914 1.40218 72.9248 2.61105 72.9248H2.89495V11.8192C2.89495 5.51722 8.17001 0.406006 14.6723 0.406006H214.53C221.032 0.406006 226.307 5.50806 226.307 11.8192V38.1172H226.49C227.708 38.1172 228.697 39.1157 228.697 40.3156Z" fill="#FDFFFE"/>
</svg>
