<svg width="88" height="89" viewBox="0 0 88 89" fill="none" xmlns="http://www.w3.org/2000/svg">
<path d="M45.9961 86.3407C69.0829 85.2264 86.8952 65.6039 85.7811 42.5126C84.667 19.4214 65.0483 1.60553 41.9615 2.71986C18.8747 3.8342 1.06235 23.4567 2.17647 46.548C3.29059 69.6392 22.9093 87.455 45.9961 86.3407Z" fill="#FFC76C"/>
<path d="M65.2698 65.8533C77.0291 54.0918 77.0291 35.0225 65.2698 23.2609C53.5105 11.4993 34.4449 11.4993 22.6856 23.2609C10.9264 35.0225 10.9264 54.0918 22.6856 65.8533C34.4449 77.6149 53.5105 77.6149 65.2698 65.8533Z" fill="#FFE9AB"/>
<path d="M23.7637 82.1833C7.74621 73.5639 -1.57674 55.2258 2.04987 36.4389C4.22034 25.2364 10.6127 15.5452 20.0639 9.16078C29.515 2.76718 40.8894 0.449736 52.0898 2.61147C57.0993 3.58241 61.834 5.40523 66.1474 8.02496L65.2591 9.49055C61.1105 6.96242 56.5681 5.22202 51.7601 4.28771C41.0084 2.20842 30.092 4.44345 21.0163 10.5714C11.9406 16.7085 5.80471 26.0058 3.72582 36.7595C-0.569331 58.9539 13.992 80.5071 36.1913 84.8031C46.3751 86.7725 56.8336 84.8397 65.6346 79.3621L66.5413 80.8185C57.374 86.5251 46.4758 88.5403 35.8707 86.4885C31.5298 85.6549 27.4728 84.1802 23.7637 82.1833Z" fill="#976063"/>
<path d="M77.8422 70.6053L76.4868 69.5611C80.3973 64.4773 83.0074 58.6883 84.2346 52.3405C86.46 40.8265 83.6393 28.8821 76.4868 19.5665L77.8422 18.5222C85.2878 28.2225 88.2275 40.6616 85.9105 52.6611C84.6375 59.2745 81.9267 65.3109 77.8422 70.6053Z" fill="#976063"/>
<path d="M37.0796 63.4697C34.4787 62.4713 32.6379 60.9965 31.5481 59.0271C30.4583 57.0578 30.1744 54.7495 30.6872 52.1115L31.2092 49.391L38.4533 50.7924L37.8489 53.9251C37.3818 56.3341 38.4716 57.7906 41.1183 58.3035C43.765 58.8165 45.331 57.8272 45.8073 55.3449C46.1003 53.806 45.908 52.3313 45.2212 50.9023C44.5343 49.4826 43.0965 47.6964 40.9077 45.5621C38.206 42.8691 36.4019 40.4967 35.4952 38.4449C34.5886 36.3931 34.3596 34.2222 34.8084 31.9322C35.3029 29.3675 36.3927 27.3889 38.087 26.0058C39.7721 24.6135 41.9975 23.9173 44.7358 23.9173L45.4318 20.3083L51.6959 21.5174L50.9999 25.1264C53.6008 26.1157 55.4324 27.5904 56.5039 29.5323C57.5754 31.4742 57.8502 33.7734 57.3373 36.4114L57.1084 37.593L49.8643 36.1916L50.1757 34.5978C50.6519 32.1521 49.6079 30.6865 47.0528 30.1918C44.4977 29.6972 42.9957 30.6315 42.5378 32.9948C42.2631 34.4146 42.4737 35.816 43.1697 37.1992C43.8657 38.5823 45.3036 40.3593 47.4832 42.5394C50.1849 45.269 51.9798 47.6689 52.8773 49.7482C53.7748 51.8275 53.9946 54.0442 53.5367 56.4074C53.0147 59.0913 51.8883 61.1523 50.1391 62.5904C48.3899 64.0285 46.1278 64.7246 43.3437 64.6788L42.547 68.8191L36.2828 67.61L37.0796 63.4697Z" fill="#FFC76C"/>
<path d="M27.5732 12.7973C29.5697 15.6735 30.3024 18.8336 30.1558 22.2045C32.8941 20.2168 35.9438 19.081 39.4422 19.1634C37.4457 16.2872 36.7039 13.1271 36.8504 9.74707C34.1213 11.7439 31.0716 12.8797 27.5732 12.7973Z" fill="#FFF9EE"/>
<path d="M45.2393 73.0877C46.4023 74.7548 46.8236 76.5959 46.7412 78.5561C48.3347 77.402 50.1022 76.7425 52.1353 76.7883C50.9722 75.1212 50.5418 73.28 50.6334 71.3198C49.049 72.474 47.2724 73.1335 45.2393 73.0877Z" fill="#FFF9EE"/>
</svg>
