<svg width="137" height="37" viewBox="0 0 137 37" fill="none" xmlns="http://www.w3.org/2000/svg">
<path d="M11.9629 35.9935H125.249C130.899 35.9935 135.524 31.3678 135.524 25.7161V11.6099C135.524 5.95826 130.899 1.33252 125.249 1.33252H11.9629C6.31236 1.33252 1.68751 5.95826 1.68751 11.6099V25.7161C1.67836 31.3678 6.3032 35.9935 11.9629 35.9935Z" fill="#96644D"/>
<path d="M125.249 36.9094H29.5464V35.0775H125.249C130.414 35.0775 134.608 30.8731 134.608 25.7161V11.6099H136.44V25.7161C136.44 31.8899 131.421 36.9094 125.249 36.9094Z" fill="#DEC7A8"/>
<path d="M11.9627 36.9095C5.79013 36.9095 0.771484 31.8899 0.771484 25.7161V11.6099C0.771484 5.43612 5.79013 0.416504 11.9627 0.416504H81.3445V2.24848H11.9627C6.79752 2.24848 2.60311 6.45287 2.60311 11.6099V25.7161C2.60311 30.8823 6.80668 35.0775 11.9627 35.0775V36.9095Z" fill="#DEC7A8"/>
<path d="M125.248 0.416504H98.9097V2.24848H125.248V0.416504Z" fill="#DEC7A8"/>
<path d="M46.04 9.42065H52.2859C54.3922 9.42065 55.9766 9.80536 57.0298 10.5839C58.0829 11.3625 58.6141 12.4984 58.6141 13.9914V15.8142C58.6141 17.3073 58.0829 18.4431 57.0298 19.2217C55.9766 20.0003 54.3922 20.385 52.2859 20.385H50.2802V27.9145H46.04V9.42065ZM52.295 17.7378C52.991 17.7378 53.5131 17.6096 53.8611 17.3439C54.2091 17.0783 54.3831 16.6295 54.3831 15.9974V13.8082C54.3831 13.1762 54.2091 12.7274 53.8611 12.4617C53.5131 12.1961 52.991 12.0678 52.295 12.0678H50.2894V17.747H52.295V17.7378Z" fill="#FDFFFE"/>
<path d="M65.1713 9.42065H70.9134L75.3093 27.9053H71.0691L70.2998 24.2322V24.2871H65.4826L64.7134 27.9053H60.7754L65.1713 9.42065ZM69.7961 21.7773L67.9096 12.6358H67.8363L65.9864 21.7773H69.7961Z" fill="#FDFFFE"/>
<path d="M81.7931 20.037L76.6646 9.42065H81.1795L84.0735 16.2081H84.1467L87.0407 9.42065H91.171L86.0424 20.037V27.9053H81.8022V20.037H81.7931Z" fill="#FDFFFE"/>
</svg>
