<svg width="17" height="35" viewBox="0 0 17 35" fill="none" xmlns="http://www.w3.org/2000/svg">
<path d="M6.10194 31.6825C4.16958 31.3344 2.70428 30.5467 1.68773 29.3193C0.67118 28.0827 0.16748 26.5072 0.16748 24.5928V22.6142H5.35097V24.8951C5.35097 26.6446 6.29426 27.5148 8.18999 27.5148C10.0857 27.5148 11.029 26.608 11.029 24.8035C11.029 23.686 10.6993 22.6784 10.0308 21.7715C9.36224 20.8647 8.13505 19.8113 6.34006 18.6114C4.11464 17.0908 2.54861 15.6711 1.65112 14.352C0.753623 13.033 0.304874 11.5399 0.304874 9.88201C0.304874 8.02255 0.799399 6.4837 1.77932 5.28376C2.75923 4.08381 4.19705 3.2869 6.09278 2.92051V0.300781H10.5803V2.92051C12.5126 3.26858 13.9687 4.04717 14.967 5.26543C15.9652 6.4837 16.4598 8.05004 16.4598 9.97361V10.8346H11.2763V9.67133C11.2763 7.89432 10.3605 7.00581 8.538 7.00581C6.70638 7.00581 5.79974 7.86684 5.79974 9.5889C5.79974 10.624 6.12943 11.5766 6.79797 12.4468C7.46651 13.3261 8.69369 14.3795 10.4887 15.6069C12.7141 17.155 14.2801 18.5931 15.1776 19.9304C16.0751 21.2677 16.5239 22.7883 16.5239 24.5103C16.5239 26.4614 16.0202 28.0552 15.0036 29.301C13.9871 30.5467 12.5218 31.3436 10.5894 31.6917V34.7053H6.10194V31.6825Z" fill="white"/>
</svg>
