<svg width="220" height="21" viewBox="0 0 220 21" fill="none" xmlns="http://www.w3.org/2000/svg">
<path d="M13.4906 2.41747V12.7245C13.4906 13.6178 13.4519 14.3799 13.3744 15.0045C13.297 15.6292 13.1162 16.2664 12.8387 16.9098C12.3739 17.9904 11.6122 18.8337 10.5536 19.4397C9.4886 20.0456 8.19764 20.3454 6.66784 20.3454C5.29296 20.3454 4.144 20.1331 3.22096 19.7145C2.30437 19.296 1.56207 18.6151 0.994044 17.6719C0.697122 17.1721 0.458293 16.5912 0.271103 15.9415C0.0903676 15.2919 0 14.6672 0 14.08C0 13.4554 0.180735 12.9744 0.542206 12.6433C0.903676 12.3122 1.36197 12.1498 1.92999 12.1498C2.4722 12.1498 2.88531 12.2997 3.16287 12.6058C3.44043 12.9119 3.65343 13.3866 3.8019 14.03C3.95681 14.7172 4.11818 15.2669 4.2731 15.6792C4.42801 16.0915 4.69266 16.4413 5.06059 16.7411C5.42851 17.0347 5.95781 17.1846 6.64202 17.1846C8.46228 17.1846 9.37242 15.8916 9.37242 13.3054V2.41747C9.37242 1.61164 9.55315 1.00572 9.92108 0.605928C10.289 0.199894 10.786 0 11.4121 0C12.0512 0 12.5546 0.199894 12.929 0.605928C13.3034 1.01196 13.4906 1.61164 13.4906 2.41747Z" fill="white"/>
<path d="M17.9897 11.8749V2.41747C17.9897 1.61164 18.1769 1.00572 18.5513 0.605928C18.9257 0.206141 19.4163 0 20.023 0C20.662 0 21.1655 0.199894 21.5399 0.605928C21.9143 1.01196 22.1015 1.61164 22.1015 2.41747V12.0936C22.1015 13.193 22.2306 14.1113 22.4823 14.8546C22.734 15.5917 23.1859 16.1664 23.8378 16.5724C24.4833 16.9785 25.3934 17.1846 26.5553 17.1846C28.1626 17.1846 29.2986 16.7723 29.9699 15.9415C30.6348 15.117 30.9704 13.8614 30.9704 12.1748V2.41747C30.9704 1.6054 31.1576 0.999469 31.5255 0.599681C31.8935 0.199894 32.384 0 33.0037 0C33.6233 0 34.1268 0.199894 34.5077 0.599681C34.8885 0.999469 35.0821 1.6054 35.0821 2.41747V11.8812C35.0821 13.4179 34.9272 14.7047 34.6174 15.7354C34.3076 16.7661 33.7266 17.6656 32.8617 18.4464C32.1194 19.1086 31.2609 19.5896 30.2797 19.8957C29.2986 20.2018 28.1561 20.3517 26.8393 20.3517C25.2773 20.3517 23.9282 20.1893 22.8051 19.8644C21.6755 19.5396 20.7589 19.0336 20.0424 18.3465C19.3324 17.6594 18.8095 16.7848 18.4739 15.7167C18.1511 14.6422 17.9897 13.3617 17.9897 11.8749Z" fill="white"/>
<path d="M54.9889 14.105C54.9889 15.2981 54.6726 16.3663 54.04 17.3096C53.4074 18.259 52.4779 19.0024 51.258 19.5396C50.038 20.0768 48.5921 20.3454 46.9203 20.3454C44.9129 20.3454 43.2604 19.9769 41.9566 19.246C41.0335 18.7213 40.2783 18.0154 39.7038 17.1346C39.1293 16.2539 38.8389 15.3981 38.8389 14.5673C38.8389 14.0863 39.0131 13.6677 39.3553 13.3242C39.7038 12.9806 40.1427 12.8057 40.6785 12.8057C41.111 12.8057 41.4789 12.9369 41.7823 13.2055C42.0857 13.4741 42.3374 13.8739 42.5504 14.3986C42.8086 15.0233 43.0861 15.548 43.3895 15.9665C43.6929 16.385 44.1125 16.7349 44.6611 17.0097C45.2033 17.2846 45.9263 17.422 46.8106 17.422C48.0305 17.422 49.0246 17.1471 49.7863 16.5974C50.5479 16.0477 50.9288 15.3606 50.9288 14.536C50.9288 13.8801 50.7222 13.3554 50.3091 12.9431C49.896 12.5371 49.3667 12.2248 48.7148 12.0124C48.0628 11.8 47.1914 11.5689 46.1006 11.3252C44.6418 10.9942 43.4153 10.6069 42.4342 10.1634C41.4531 9.71984 40.6656 9.12015 40.0846 8.35181C39.5102 7.58972 39.2197 6.63398 39.2197 5.49708C39.2197 4.4164 39.5231 3.45441 40.1363 2.61111C40.7495 1.76781 41.6274 1.1244 42.7828 0.674642C43.9382 0.224881 45.2937 0 46.8622 0C48.108 0 49.1924 0.14992 50.1025 0.449761C51.0127 0.749602 51.7679 1.14939 52.3682 1.64288C52.9685 2.13637 53.4074 2.66109 53.685 3.20455C53.9625 3.74801 54.0981 4.28522 54.0981 4.8037C54.0981 5.27845 53.9238 5.70322 53.5752 6.08427C53.2267 6.46531 52.7942 6.65272 52.2778 6.65272C51.8066 6.65272 51.4452 6.54028 51.1999 6.30915C50.9546 6.07802 50.6899 5.70947 50.4059 5.19099C50.038 4.44764 49.5926 3.8667 49.0762 3.45441C48.5598 3.03589 47.7272 2.82975 46.5782 2.82975C45.5132 2.82975 44.6547 3.05463 44.0027 3.50439C43.3508 3.95415 43.0281 4.49761 43.0281 5.13477C43.0281 5.52831 43.1378 5.86563 43.3637 6.15298C43.5832 6.44033 43.893 6.68395 44.2803 6.89009C44.6676 7.09623 45.0613 7.25864 45.4615 7.37108C45.8617 7.48977 46.5137 7.65843 47.4302 7.88331C48.5792 8.14567 49.612 8.42677 50.5415 8.74535C51.471 9.05769 52.2585 9.43874 52.9104 9.8885C53.5623 10.3383 54.0723 10.9005 54.4337 11.5876C54.8017 12.2747 54.9889 13.1118 54.9889 14.105Z" fill="white"/>
<path d="M71.6811 3.62316H67.1885V17.9156C67.1885 18.7401 67.0013 19.3523 66.6205 19.7458C66.2396 20.1456 65.7491 20.3455 65.1488 20.3455C64.5356 20.3455 64.0385 20.1456 63.6577 19.7396C63.2769 19.3398 63.0832 18.7276 63.0832 17.9156V3.62316H58.5907C57.8871 3.62316 57.3642 3.47324 57.0221 3.1734C56.68 2.87355 56.5122 2.48001 56.5122 1.98653C56.5122 1.4743 56.6929 1.07451 57.048 0.780917C57.403 0.487323 57.9194 0.337402 58.5971 0.337402H71.6875C72.3975 0.337402 72.9268 0.487323 73.2754 0.79341C73.624 1.0995 73.7982 1.49304 73.7982 1.98653C73.7982 2.48001 73.624 2.87355 73.2689 3.1734C72.9139 3.47324 72.3846 3.62316 71.6811 3.62316Z" fill="white"/>
<path d="M97.7262 16.9098L94.4407 5.11603L91.11 16.9098C90.8518 17.803 90.6453 18.4464 90.4904 18.8337C90.3354 19.221 90.0708 19.5709 89.6964 19.8832C89.3156 20.1893 88.8121 20.3454 88.186 20.3454C87.676 20.3454 87.2565 20.2517 86.9273 20.0706C86.5981 19.8894 86.3334 19.6271 86.1333 19.2898C85.9268 18.9524 85.7654 18.5589 85.6363 18.0966C85.5072 17.6344 85.391 17.2096 85.2878 16.8161L81.9054 3.56685C81.6989 2.79851 81.6021 2.21133 81.6021 1.81154C81.6021 1.29931 81.7892 0.874535 82.1572 0.524721C82.5251 0.174907 82.9769 0 83.5256 0C84.2743 0 84.7778 0.231127 85.036 0.699628C85.2942 1.16813 85.5201 1.84277 85.7138 2.72355L88.3732 14.2112L91.3553 3.46066C91.5748 2.6361 91.7749 2.01143 91.9491 1.58041C92.1234 1.14939 92.4074 0.780835 92.8076 0.468501C93.2078 0.156167 93.7436 0 94.4278 0C95.1185 0 95.6607 0.162414 96.0415 0.487241C96.4223 0.812069 96.6934 1.16813 96.8419 1.55542C96.9904 1.94272 97.1905 2.57363 97.4358 3.46066L100.444 14.2112L103.103 2.72355C103.232 2.12387 103.355 1.65537 103.471 1.3118C103.587 0.974482 103.787 0.668395 104.065 0.399788C104.349 0.13118 104.756 0 105.291 0C105.827 0 106.285 0.174907 106.66 0.518475C107.034 0.862042 107.221 1.29306 107.221 1.81154C107.221 2.18009 107.118 2.76728 106.918 3.56685L103.536 16.8161C103.303 17.7093 103.11 18.3652 102.961 18.7838C102.813 19.2023 102.548 19.5646 102.187 19.8769C101.819 20.1893 101.309 20.3454 100.644 20.3454C100.018 20.3454 99.5078 20.1955 99.1334 19.8894C98.7525 19.5833 98.4879 19.246 98.3459 18.865C98.2039 18.4839 97.9909 17.8343 97.7262 16.9098Z" fill="white"/>
<path d="M123.365 3.41067H114.089V8.23935H122.629C123.255 8.23935 123.726 8.37678 124.036 8.65163C124.346 8.92649 124.501 9.28255 124.501 9.73231C124.501 10.1821 124.346 10.5444 124.043 10.8255C123.739 11.1066 123.268 11.2503 122.629 11.2503H114.089V16.8473H123.688C124.333 16.8473 124.824 16.991 125.153 17.2845C125.482 17.5781 125.644 17.9592 125.644 18.4464C125.644 18.9149 125.482 19.2897 125.153 19.5833C124.824 19.8769 124.34 20.0206 123.688 20.0206H112.495C111.598 20.0206 110.952 19.8269 110.559 19.4459C110.165 19.0586 109.971 18.4402 109.971 17.5781V2.77975C109.971 2.20506 110.055 1.73656 110.236 1.37425C110.41 1.01194 110.688 0.749582 111.062 0.580922C111.436 0.418508 111.914 0.331055 112.495 0.331055H123.365C124.023 0.331055 124.507 0.474728 124.83 0.755829C125.153 1.03693 125.308 1.40548 125.308 1.86149C125.308 2.32999 125.147 2.69855 124.83 2.97965C124.514 3.26075 124.023 3.41067 123.365 3.41067Z" fill="white"/>
<path d="M131.466 0.337402H136.83C138.224 0.337402 139.425 0.462336 140.419 0.712203C141.419 0.96207 142.323 1.43057 143.136 2.12395C145.253 3.87927 146.312 6.5466 146.312 10.1197C146.312 11.3003 146.202 12.381 145.996 13.3555C145.783 14.33 145.453 15.2107 145.008 15.9916C144.563 16.7724 143.995 17.472 143.304 18.0905C142.755 18.5652 142.161 18.9463 141.516 19.2336C140.87 19.521 140.173 19.7209 139.431 19.8395C138.689 19.9582 137.85 20.0144 136.914 20.0144H131.55C130.801 20.0144 130.233 19.902 129.858 19.6834C129.478 19.4647 129.232 19.1587 129.116 18.7589C129 18.3591 128.942 17.8468 128.942 17.2097V2.77985C128.942 1.91781 129.142 1.29939 129.536 0.912097C129.936 0.531049 130.581 0.337402 131.466 0.337402ZM133.06 3.49198V16.8474H136.178C136.862 16.8474 137.398 16.8286 137.785 16.7912C138.172 16.7537 138.573 16.6662 138.992 16.5226C139.405 16.3789 139.767 16.179 140.076 15.9166C141.451 14.7922 142.142 12.8495 142.142 10.0947C142.142 8.152 141.839 6.69652 141.232 5.73454C140.625 4.7663 139.883 4.15412 138.992 3.89176C138.101 3.6294 137.03 3.49822 135.778 3.49822H133.06V3.49198Z" fill="white"/>
<path d="M152.489 0.337402H157.853C159.247 0.337402 160.447 0.462336 161.442 0.712203C162.442 0.96207 163.346 1.43057 164.159 2.12395C166.276 3.87927 167.335 6.5466 167.335 10.1197C167.335 11.3003 167.225 12.381 167.019 13.3555C166.805 14.33 166.476 15.2107 166.031 15.9916C165.586 16.7724 165.018 17.472 164.327 18.0905C163.778 18.5652 163.184 18.9463 162.539 19.2336C161.893 19.521 161.196 19.7209 160.454 19.8395C159.712 19.9582 158.873 20.0144 157.937 20.0144H152.573C151.824 20.0144 151.256 19.902 150.881 19.6834C150.501 19.4647 150.255 19.1587 150.139 18.7589C150.023 18.3591 149.965 17.8468 149.965 17.2097V2.77985C149.965 1.91781 150.165 1.29939 150.559 0.912097C150.959 0.531049 151.604 0.337402 152.489 0.337402ZM154.083 3.49198V16.8474H157.201C157.885 16.8474 158.421 16.8286 158.808 16.7912C159.195 16.7537 159.595 16.6662 160.015 16.5226C160.428 16.3789 160.79 16.179 161.099 15.9166C162.474 14.7922 163.165 12.8495 163.165 10.0947C163.165 8.152 162.862 6.69652 162.255 5.73454C161.648 4.7663 160.906 4.15412 160.015 3.89176C159.124 3.6294 158.053 3.49822 156.801 3.49822H154.083V3.49198Z" fill="white"/>
<path d="M171.13 17.9155V2.41747C171.13 1.61164 171.318 1.00572 171.698 0.605928C172.079 0.206141 172.57 0 173.17 0C173.79 0 174.293 0.199894 174.674 0.599681C175.055 0.999469 175.249 1.6054 175.249 2.41747V17.9155C175.249 18.7276 175.055 19.3397 174.674 19.7395C174.293 20.1393 173.79 20.3454 173.17 20.3454C172.576 20.3454 172.092 20.1393 171.705 19.7333C171.318 19.3272 171.13 18.7213 171.13 17.9155Z" fill="white"/>
<path d="M185.221 2.38623L193.141 13.9801V2.28004C193.141 1.51794 193.309 0.949496 193.645 0.568448C193.981 0.1874 194.432 0 195.007 0C195.601 0 196.065 0.1874 196.408 0.568448C196.75 0.949496 196.917 1.51794 196.917 2.28004V17.7531C196.917 19.4772 196.175 20.3454 194.697 20.3454C194.329 20.3454 193.993 20.2955 193.697 20.1893C193.4 20.0831 193.122 19.9207 192.864 19.702C192.606 19.4772 192.367 19.2148 192.141 18.915C191.921 18.6151 191.696 18.309 191.476 17.9967L183.75 6.53403V18.0654C183.75 18.815 183.569 19.3835 183.207 19.7707C182.846 20.158 182.381 20.3454 181.82 20.3454C181.239 20.3454 180.768 20.1518 180.419 19.7645C180.07 19.3772 179.89 18.8088 179.89 18.0654V2.88597C179.89 2.24256 179.961 1.73658 180.109 1.36802C180.283 0.968236 180.574 0.637161 180.981 0.381048C181.407 0.124934 181.845 0 182.323 0C182.691 0 183.007 0.0562201 183.272 0.174907C183.537 0.293594 183.769 0.449761 183.963 0.643408C184.163 0.843302 184.363 1.09317 184.576 1.4055C184.782 1.72408 184.995 2.04891 185.221 2.38623Z" fill="white"/>
<path d="M220 12.0124V15.7854C220 16.2851 219.948 16.6849 219.845 16.9847C219.742 17.2846 219.555 17.5532 219.283 17.7968C219.012 18.0404 218.664 18.2715 218.238 18.4964C217.005 19.1398 215.824 19.6083 214.688 19.9082C213.552 20.208 212.312 20.3517 210.97 20.3517C209.408 20.3517 207.981 20.1206 206.697 19.6521C205.412 19.1898 204.315 18.5089 203.411 17.6281C202.507 16.7411 201.81 15.6667 201.326 14.4048C200.842 13.143 200.597 11.7313 200.597 10.1758C200.597 8.64541 200.836 7.24615 201.307 5.97807C201.778 4.71 202.469 3.62932 203.385 2.74229C204.302 1.85526 205.412 1.18062 206.729 0.712122C208.039 0.237374 209.53 0 211.196 0C212.564 0 213.777 0.174907 214.83 0.530968C215.882 0.887029 216.74 1.33054 217.392 1.86776C218.051 2.40497 218.541 2.97342 218.877 3.5731C219.212 4.17278 219.374 4.70375 219.374 5.17225C219.374 5.67199 219.18 6.10301 218.799 6.45282C218.418 6.80888 217.954 6.98379 217.418 6.98379C217.121 6.98379 216.837 6.91508 216.566 6.7839C216.295 6.65272 216.062 6.45907 215.882 6.22169C215.372 5.45335 214.946 4.87241 214.591 4.47887C214.242 4.08533 213.765 3.75426 213.171 3.48565C212.577 3.21704 211.815 3.08586 210.892 3.08586C209.937 3.08586 209.091 3.24203 208.342 3.56061C207.594 3.87919 206.955 4.34144 206.419 4.94112C205.89 5.54705 205.483 6.28416 205.199 7.16494C204.915 8.03948 204.773 9.01396 204.773 10.0759C204.773 12.3872 205.322 14.1612 206.419 15.4043C207.516 16.6474 209.04 17.2721 211.002 17.2721C211.951 17.2721 212.848 17.1534 213.687 16.9098C214.526 16.6661 215.372 16.3226 216.23 15.8791V12.687H213.042C212.273 12.687 211.693 12.5746 211.299 12.3497C210.905 12.1248 210.711 11.7438 210.711 11.2065C210.711 10.7693 210.873 10.407 211.202 10.1196C211.531 9.83228 211.977 9.6886 212.538 9.6886H217.211C217.786 9.6886 218.27 9.73858 218.67 9.83852C219.07 9.93847 219.387 10.1571 219.632 10.4944C219.877 10.8193 220 11.3315 220 12.0124Z" fill="white"/>
</svg>
