<svg width="220" height="20" viewBox="0 0 220 20" fill="none" xmlns="http://www.w3.org/2000/svg">
<path d="M13.4906 2.6217V12.6092C13.4906 13.4748 13.4519 14.2133 13.3744 14.8186C13.297 15.4239 13.1162 16.0413 12.8387 16.6648C12.3739 17.7119 11.6122 18.5291 10.5536 19.1163C9.4886 19.7034 8.19764 19.9939 6.66784 19.9939C5.29296 19.9939 4.144 19.7881 3.22096 19.3826C2.30437 18.977 1.56207 18.3173 0.994044 17.4032C0.697122 16.919 0.458293 16.3561 0.271103 15.7265C0.0903676 15.097 0 14.4917 0 13.9227C0 13.3174 0.180735 12.8514 0.542206 12.5305C0.903676 12.2097 1.36197 12.0524 1.92999 12.0524C2.4722 12.0524 2.88531 12.1976 3.16287 12.4942C3.44043 12.7908 3.65343 13.2509 3.8019 13.8743C3.95681 14.5402 4.11818 15.0728 4.2731 15.4723C4.42801 15.8718 4.69266 16.2108 5.06059 16.5013C5.42851 16.7858 5.95781 16.9311 6.64202 16.9311C8.46228 16.9311 9.37242 15.6781 9.37242 13.1722V2.6217C9.37242 1.84086 9.55315 1.25372 9.92108 0.86632C10.289 0.472872 10.786 0.279175 11.4121 0.279175C12.0512 0.279175 12.5546 0.472872 12.929 0.86632C13.3034 1.25977 13.4906 1.84086 13.4906 2.6217Z" fill="#374151"/>
<path d="M17.9897 11.786V2.6217C17.9897 1.84086 18.1769 1.25372 18.5513 0.86632C18.9257 0.478925 19.4163 0.279175 20.023 0.279175C20.662 0.279175 21.1655 0.472872 21.5399 0.86632C21.9143 1.25977 22.1015 1.84086 22.1015 2.6217V11.9979C22.1015 13.0632 22.2306 13.953 22.4823 14.6733C22.734 15.3876 23.1859 15.9445 23.8378 16.3379C24.4833 16.7314 25.3934 16.9311 26.5553 16.9311C28.1626 16.9311 29.2986 16.5316 29.9699 15.7265C30.6348 14.9275 30.9704 13.7109 30.9704 12.0766V2.6217C30.9704 1.83481 31.1576 1.24766 31.5255 0.860267C31.8935 0.472872 32.384 0.279175 33.0037 0.279175C33.6233 0.279175 34.1268 0.472872 34.5077 0.860267C34.8885 1.24766 35.0821 1.83481 35.0821 2.6217V11.7921C35.0821 13.2811 34.9272 14.528 34.6174 15.5268C34.3076 16.5256 33.7266 17.3972 32.8617 18.1538C32.1194 18.7954 31.2609 19.2615 30.2797 19.5581C29.2986 19.8547 28.1561 20 26.8393 20C25.2773 20 23.9282 19.8426 22.8051 19.5279C21.6755 19.2131 20.7589 18.7228 20.0424 18.057C19.3324 17.3911 18.8095 16.5437 18.4739 15.5086C18.1511 14.4675 17.9897 13.2266 17.9897 11.786Z" fill="#374151"/>
<path d="M54.9889 13.947C54.9889 15.1031 54.6726 16.1382 54.04 17.0522C53.4074 17.9722 52.4779 18.6925 51.258 19.2131C50.038 19.7337 48.5921 19.9939 46.9203 19.9939C44.9129 19.9939 43.2604 19.6368 41.9566 18.9286C41.0335 18.4202 40.2783 17.7362 39.7038 16.8827C39.1293 16.0292 38.8389 15.1999 38.8389 14.3949C38.8389 13.9288 39.0131 13.5232 39.3553 13.1903C39.7038 12.8574 40.1427 12.6879 40.6785 12.6879C41.111 12.6879 41.4789 12.815 41.7823 13.0753C42.0857 13.3356 42.3374 13.723 42.5504 14.2314C42.8086 14.8368 43.0861 15.3452 43.3895 15.7508C43.6929 16.1563 44.1125 16.4953 44.6611 16.7616C45.2033 17.028 45.9263 17.1611 46.8106 17.1611C48.0305 17.1611 49.0246 16.8948 49.7863 16.3621C50.5479 15.8294 50.9288 15.1636 50.9288 14.3646C50.9288 13.729 50.7222 13.2206 50.3091 12.8211C49.896 12.4276 49.3667 12.125 48.7148 11.9192C48.0628 11.7134 47.1914 11.4894 46.1006 11.2533C44.6418 10.9325 43.4153 10.5572 42.4342 10.1275C41.4531 9.69771 40.6656 9.11662 40.0846 8.3721C39.5102 7.63363 39.2197 6.70751 39.2197 5.60586C39.2197 4.55868 39.5231 3.62651 40.1363 2.80935C40.7495 1.99219 41.6274 1.36872 42.7828 0.932904C43.9382 0.497084 45.2937 0.279175 46.8622 0.279175C48.108 0.279175 49.1924 0.424448 50.1025 0.714994C51.0127 1.00554 51.7679 1.39294 52.3682 1.87113C52.9685 2.34932 53.4074 2.85777 53.685 3.38439C53.9625 3.911 54.0981 4.43156 54.0981 4.93397C54.0981 5.394 53.9238 5.80561 53.5752 6.17484C53.2267 6.54408 52.7942 6.72567 52.2778 6.72567C51.8066 6.72567 51.4452 6.61671 51.1999 6.39275C50.9546 6.16879 50.6899 5.81166 50.4059 5.30926C50.038 4.58894 49.5926 4.02601 49.0762 3.62651C48.5598 3.22096 47.7272 3.0212 46.5782 3.0212C45.5132 3.0212 44.6547 3.23911 44.0027 3.67493C43.3508 4.11075 43.0281 4.63737 43.0281 5.25478C43.0281 5.63612 43.1378 5.96299 43.3637 6.24143C43.5832 6.51987 43.893 6.75593 44.2803 6.95568C44.6676 7.15544 45.0613 7.31281 45.4615 7.42177C45.8617 7.53678 46.5137 7.70021 47.4302 7.91812C48.5792 8.17235 49.612 8.44473 50.5415 8.75344C51.471 9.05609 52.2585 9.42533 52.9104 9.86115C53.5623 10.297 54.0723 10.8417 54.4337 11.5076C54.8017 12.1734 54.9889 12.9845 54.9889 13.947Z" fill="#374151"/>
<path d="M71.6811 3.78992H67.1885V17.6393C67.1885 18.4383 67.0013 19.0315 66.6205 19.4128C66.2396 19.8002 65.7491 19.9939 65.1488 19.9939C64.5356 19.9939 64.0385 19.8002 63.6577 19.4068C63.2769 19.0194 63.0832 18.4262 63.0832 17.6393V3.78992H58.5907C57.8871 3.78992 57.3642 3.64465 57.0221 3.3541C56.68 3.06356 56.5122 2.68221 56.5122 2.20402C56.5122 1.70767 56.6929 1.32028 57.048 1.03578C57.403 0.751291 57.9194 0.606018 58.5971 0.606018H71.6875C72.3975 0.606018 72.9268 0.751291 73.2754 1.04789C73.624 1.34449 73.7982 1.72583 73.7982 2.20402C73.7982 2.68221 73.624 3.06356 73.2689 3.3541C72.9139 3.64465 72.3846 3.78992 71.6811 3.78992Z" fill="#374151"/>
<path d="M97.7262 16.6648L94.4407 5.23662L91.11 16.6648C90.8518 17.5304 90.6453 18.1538 90.4904 18.5291C90.3354 18.9044 90.0708 19.2434 89.6964 19.546C89.3156 19.8426 88.8121 19.9939 88.186 19.9939C87.676 19.9939 87.2565 19.9032 86.9273 19.7276C86.5981 19.5521 86.3334 19.2978 86.1333 18.971C85.9268 18.6441 85.7654 18.2628 85.6363 17.8148C85.5072 17.3669 85.391 16.9553 85.2878 16.574L81.9054 3.73546C81.6989 2.99094 81.6021 2.42195 81.6021 2.03456C81.6021 1.53821 81.7892 1.1266 82.1572 0.787631C82.5251 0.44866 82.9769 0.279175 83.5256 0.279175C84.2743 0.279175 84.7778 0.503138 85.036 0.957116C85.2942 1.41109 85.5201 2.06482 85.7138 2.9183L88.3732 14.0499L91.3553 3.63256C91.5748 2.83356 91.7749 2.22826 91.9491 1.8106C92.1234 1.39294 92.4074 1.03581 92.8076 0.733153C93.2078 0.430501 93.7436 0.279175 94.4278 0.279175C95.1185 0.279175 95.6607 0.436554 96.0415 0.751312C96.4223 1.06607 96.6934 1.41109 96.8419 1.78638C96.9904 2.16167 97.1905 2.77303 97.4358 3.63256L100.444 14.0499L103.103 2.9183C103.232 2.33721 103.355 1.88323 103.471 1.55031C103.587 1.22345 103.787 0.926851 104.065 0.66657C104.349 0.406289 104.756 0.279175 105.291 0.279175C105.827 0.279175 106.285 0.44866 106.66 0.781578C107.034 1.1145 107.221 1.53216 107.221 2.03456C107.221 2.39169 107.118 2.96067 106.918 3.73546L103.536 16.574C103.303 17.4396 103.11 18.0751 102.961 18.4807C102.813 18.8862 102.548 19.2373 102.187 19.54C101.819 19.8426 101.309 19.9939 100.644 19.9939C100.018 19.9939 99.5078 19.8487 99.1334 19.5521C98.7525 19.2555 98.4879 18.9286 98.3459 18.5594C98.2039 18.1901 97.9909 17.5606 97.7262 16.6648Z" fill="#96644D"/>
<path d="M123.365 3.58419H114.089V8.26319H122.629C123.255 8.26319 123.726 8.39636 124.036 8.66269C124.346 8.92903 124.501 9.27405 124.501 9.70987C124.501 10.1457 124.346 10.4968 124.043 10.7692C123.739 11.0415 123.268 11.1808 122.629 11.1808H114.089V16.6043H123.688C124.333 16.6043 124.824 16.7435 125.153 17.028C125.482 17.3125 125.644 17.6817 125.644 18.1539C125.644 18.6078 125.482 18.971 125.153 19.2555C124.824 19.54 124.34 19.6792 123.688 19.6792H112.495C111.598 19.6792 110.952 19.4916 110.559 19.1224C110.165 18.7471 109.971 18.1478 109.971 17.3125V2.97283C109.971 2.41595 110.055 1.96197 110.236 1.6109C110.41 1.25982 110.688 1.00559 111.062 0.842158C111.436 0.684779 111.914 0.600037 112.495 0.600037H123.365C124.023 0.600037 124.507 0.739257 124.83 1.01164C125.153 1.28403 125.308 1.64116 125.308 2.08303C125.308 2.53701 125.147 2.89414 124.83 3.16653C124.514 3.43892 124.023 3.58419 123.365 3.58419Z" fill="#96644D"/>
<path d="M131.466 0.606018H136.83C138.224 0.606018 139.425 0.727079 140.419 0.969201C141.419 1.21132 142.323 1.6653 143.136 2.33719C145.253 4.0381 146.312 6.62275 146.312 10.0851C146.312 11.2291 146.202 12.2763 145.996 13.2206C145.783 14.1648 145.453 15.0183 145.008 15.775C144.563 16.5316 143.995 17.2095 143.304 17.8088C142.755 18.2688 142.161 18.638 141.516 18.9165C140.87 19.1949 140.173 19.3886 139.431 19.5036C138.689 19.6186 137.85 19.6731 136.914 19.6731H131.55C130.801 19.6731 130.233 19.5642 129.858 19.3523C129.478 19.1404 129.232 18.8438 129.116 18.4565C129 18.0691 128.942 17.5727 128.942 16.9553V2.97276C128.942 2.13744 129.142 1.53819 129.536 1.1629C129.936 0.793662 130.581 0.606018 131.466 0.606018ZM133.06 3.66281V16.6042H136.178C136.862 16.6042 137.398 16.5861 137.785 16.5497C138.172 16.5134 138.573 16.4287 138.992 16.2895C139.405 16.1502 139.767 15.9565 140.076 15.7023C141.451 14.6128 142.142 12.7303 142.142 10.0609C142.142 8.17838 141.839 6.76802 141.232 5.83585C140.625 4.89763 139.883 4.30443 138.992 4.0502C138.101 3.79597 137.03 3.66886 135.778 3.66886H133.06V3.66281Z" fill="#96644D"/>
<path d="M152.489 0.606018H157.853C159.247 0.606018 160.447 0.727079 161.442 0.969201C162.442 1.21132 163.346 1.6653 164.159 2.33719C166.276 4.0381 167.335 6.62275 167.335 10.0851C167.335 11.2291 167.225 12.2763 167.019 13.2206C166.805 14.1648 166.476 15.0183 166.031 15.775C165.586 16.5316 165.018 17.2095 164.327 17.8088C163.778 18.2688 163.184 18.638 162.539 18.9165C161.893 19.1949 161.196 19.3886 160.454 19.5036C159.712 19.6186 158.873 19.6731 157.937 19.6731H152.573C151.824 19.6731 151.256 19.5642 150.881 19.3523C150.501 19.1404 150.255 18.8438 150.139 18.4565C150.023 18.0691 149.965 17.5727 149.965 16.9553V2.97276C149.965 2.13744 150.165 1.53819 150.559 1.1629C150.959 0.793662 151.604 0.606018 152.489 0.606018ZM154.083 3.66281V16.6042H157.201C157.885 16.6042 158.421 16.5861 158.808 16.5497C159.195 16.5134 159.595 16.4287 160.015 16.2895C160.428 16.1502 160.79 15.9565 161.099 15.7023C162.474 14.6128 163.165 12.7303 163.165 10.0609C163.165 8.17838 162.862 6.76802 162.255 5.83585C161.648 4.89763 160.906 4.30443 160.015 4.0502C159.124 3.79597 158.053 3.66886 156.801 3.66886H154.083V3.66281Z" fill="#96644D"/>
<path d="M171.13 17.6393V2.6217C171.13 1.84086 171.318 1.25372 171.698 0.86632C172.079 0.478925 172.57 0.279175 173.17 0.279175C173.79 0.279175 174.293 0.472872 174.674 0.860267C175.055 1.24766 175.249 1.83481 175.249 2.6217V17.6393C175.249 18.4262 175.055 19.0194 174.674 19.4068C174.293 19.7942 173.79 19.9939 173.17 19.9939C172.576 19.9939 172.092 19.7942 171.705 19.4007C171.318 19.0073 171.13 18.4202 171.13 17.6393Z" fill="#96644D"/>
<path d="M185.221 2.59144L193.141 13.8259V2.48854C193.141 1.75006 193.309 1.19924 193.645 0.830002C193.981 0.460766 194.432 0.279175 195.007 0.279175C195.601 0.279175 196.065 0.460766 196.408 0.830002C196.75 1.19924 196.917 1.75006 196.917 2.48854V17.4819C196.917 19.1526 196.175 19.9939 194.697 19.9939C194.329 19.9939 193.993 19.9455 193.697 19.8426C193.4 19.7397 193.122 19.5823 192.864 19.3705C192.606 19.1526 192.367 18.8983 192.141 18.6078C191.921 18.3173 191.696 18.0207 191.476 17.718L183.75 6.61066V17.7846C183.75 18.511 183.569 19.0618 183.207 19.4371C182.846 19.8124 182.381 19.9939 181.82 19.9939C181.239 19.9939 180.768 19.8063 180.419 19.431C180.07 19.0557 179.89 18.5049 179.89 17.7846V3.07568C179.89 2.45222 179.961 1.96192 180.109 1.60479C180.283 1.2174 180.574 0.896586 180.981 0.648411C181.407 0.400236 181.845 0.279175 182.323 0.279175C182.691 0.279175 183.007 0.333652 183.272 0.44866C183.537 0.563668 183.769 0.714994 183.963 0.902638C184.163 1.09634 184.363 1.33846 184.576 1.64111C184.782 1.94982 184.995 2.26457 185.221 2.59144Z" fill="#96644D"/>
<path d="M220 11.9192V15.5752C220 16.0595 219.948 16.4469 219.845 16.7374C219.742 17.028 219.555 17.2882 219.283 17.5243C219.012 17.7604 218.664 17.9843 218.238 18.2022C217.005 18.8257 215.824 19.2797 214.688 19.5702C213.552 19.8608 212.312 20 210.97 20C209.408 20 207.981 19.776 206.697 19.3221C205.412 18.8741 204.315 18.2143 203.411 17.3609C202.507 16.5013 201.81 15.4602 201.326 14.2375C200.842 13.0148 200.597 11.6468 200.597 10.1396C200.597 8.65659 200.836 7.30071 201.307 6.07194C201.778 4.84317 202.469 3.79599 203.385 2.93646C204.302 2.07693 205.412 1.4232 206.729 0.969222C208.039 0.509191 209.53 0.279175 211.196 0.279175C212.564 0.279175 213.777 0.44866 214.83 0.793684C215.882 1.13871 216.74 1.56847 217.392 2.08904C218.051 2.6096 218.541 3.16042 218.877 3.74152C219.212 4.32261 219.374 4.83712 219.374 5.2911C219.374 5.77534 219.18 6.193 218.799 6.53197C218.418 6.877 217.954 7.04648 217.418 7.04648C217.121 7.04648 216.837 6.9799 216.566 6.85278C216.295 6.72567 216.062 6.53802 215.882 6.30801C215.372 5.56348 214.946 5.00055 214.591 4.61921C214.242 4.23787 213.765 3.91706 213.171 3.65677C212.577 3.39649 211.815 3.26938 210.892 3.26938C209.937 3.26938 209.091 3.42071 208.342 3.72941C207.594 4.03812 206.955 4.48604 206.419 5.06713C205.89 5.65428 205.483 6.36854 205.199 7.22202C204.915 8.06945 204.773 9.01372 204.773 10.0427C204.773 12.2824 205.322 14.0014 206.419 15.206C207.516 16.4105 209.04 17.0158 211.002 17.0158C211.951 17.0158 212.848 16.9008 213.687 16.6648C214.526 16.4287 215.372 16.0958 216.23 15.666V12.5729H213.042C212.273 12.5729 211.693 12.464 211.299 12.246C210.905 12.0281 210.711 11.6589 210.711 11.1383C210.711 10.7146 210.873 10.3636 211.202 10.0851C211.531 9.80667 211.977 9.66745 212.538 9.66745H217.211C217.786 9.66745 218.27 9.71587 218.67 9.81272C219.07 9.90957 219.387 10.1214 219.632 10.4483C219.877 10.7631 220 11.2594 220 11.9192Z" fill="#96644D"/>
</svg>
