<svg width="26" height="25" viewBox="0 0 26 25" fill="none" xmlns="http://www.w3.org/2000/svg">
<path d="M12.8513 25C19.949 25 25.7027 19.4036 25.7027 12.5C25.7027 5.59644 19.949 0 12.8513 0C5.75375 0 0 5.59644 0 12.5C0 19.4036 5.75375 25 12.8513 25Z" fill="#FFF5E7"/>
<path d="M10.2545 19.6999C16.5317 19.6999 19.9644 14.6425 19.9644 10.2555C19.9644 10.111 19.9606 9.96842 19.9549 9.82583C20.6212 9.35731 21.2 8.77213 21.657 8.10731C21.0458 8.37213 20.3871 8.54991 19.6978 8.62953C20.4023 8.21842 20.943 7.56842 21.1981 6.79435C20.5394 7.17398 19.8083 7.45176 19.0315 7.59991C18.4089 6.95546 17.5217 6.55176 16.5412 6.55176C14.6563 6.55176 13.1275 8.03879 13.1275 9.87028C13.1275 10.1314 13.1579 10.3832 13.217 10.6277C10.3801 10.4888 7.86509 9.16842 6.18394 7.15916C5.89074 7.64991 5.72129 8.22028 5.72129 8.82768C5.72129 9.97953 6.32293 10.9962 7.24061 11.5906C6.68086 11.574 6.15538 11.424 5.69464 11.1758C5.69464 11.1888 5.69464 11.2036 5.69464 11.2184C5.69464 12.8258 6.87125 14.1684 8.43245 14.4721C8.14496 14.5481 7.84414 14.5888 7.53381 14.5888C7.31486 14.5888 7.09972 14.5684 6.89219 14.5295C7.32628 15.8481 8.58667 16.8073 10.0793 16.8351C8.91033 17.7258 7.44052 18.2555 5.84124 18.2555C5.56517 18.2555 5.29482 18.2406 5.02637 18.2092C6.53426 19.1499 8.32774 19.6999 10.2545 19.6999Z" fill="#96644D"/>
</svg>
