<svg width="231" height="223" viewBox="0 0 231 223" fill="none" xmlns="http://www.w3.org/2000/svg">
<path d="M4.81981 222.315H2.98819V153.213C1.57784 152.92 0.506348 151.655 0.506348 150.153V120.475C0.506348 118.973 1.56868 117.718 2.98819 117.425V108.861C1.57784 108.567 0.506348 107.303 0.506348 105.801V76.1323C0.506348 74.6301 1.56868 73.366 2.98819 73.0729V12.8192C2.98819 6.02256 8.68454 0.48999 15.6813 0.48999H215.539C222.535 0.48999 228.232 6.02256 228.232 12.8192V38.2928C229.606 38.6226 230.631 39.8591 230.631 41.3247V71.0027C230.631 72.4775 229.606 73.7141 228.232 74.0438V201.027H226.4V72.2943H227.499C228.213 72.2943 228.79 71.7172 228.79 71.0027V41.3247C228.79 40.6194 228.213 40.0423 227.499 40.0423H226.4V12.8192C226.4 7.03014 221.528 2.32197 215.539 2.32197H15.6722C9.68277 2.32197 4.81067 7.03014 4.81067 12.8192V74.8407H3.61096C2.90578 74.8407 2.3288 75.4178 2.3288 76.1323V105.801C2.3288 106.516 2.90578 107.093 3.61096 107.093H4.81067V119.193H3.61096C2.90578 119.193 2.3288 119.77 2.3288 120.475V150.153C2.3288 150.859 2.91494 151.445 3.61096 151.445H4.81067V222.315H4.81981Z" fill="#976063"/>
</svg>
