<svg width="26" height="25" viewBox="0 0 26 25" fill="none" xmlns="http://www.w3.org/2000/svg">
<path d="M13.0501 25C20.1477 25 25.9014 19.4036 25.9014 12.5C25.9014 5.59644 20.1477 0 13.0501 0C5.95248 0 0.19873 5.59644 0.19873 12.5C0.19873 19.4036 5.95248 25 13.0501 25Z" fill="#FFF5E7"/>
<path d="M13.05 6.04791C15.211 6.04791 15.4661 6.05532 16.319 6.09421C17.1073 6.12939 17.5356 6.25717 17.8212 6.36458C18.1982 6.50717 18.4685 6.67754 18.7522 6.95347C19.0359 7.22939 19.2111 7.49051 19.3577 7.85902C19.4681 8.1368 19.5995 8.55347 19.6356 9.32014C19.6737 10.1498 19.6832 10.3998 19.6832 12.4998C19.6832 14.5998 19.6756 14.8498 19.6356 15.6794C19.5995 16.4461 19.4681 16.8627 19.3577 17.1405C19.2111 17.5072 19.0359 17.7701 18.7522 18.0461C18.4685 18.322 18.2001 18.4924 17.8212 18.6349C17.5356 18.7424 17.1073 18.8701 16.319 18.9053C15.4661 18.9424 15.211 18.9516 13.05 18.9516C10.8891 18.9516 10.634 18.9442 9.78103 18.9053C8.99282 18.8701 8.56444 18.7424 8.27885 18.6349C7.90188 18.4924 7.63153 18.322 7.34785 18.0461C7.06416 17.7701 6.889 17.509 6.7424 17.1405C6.63197 16.8627 6.50061 16.4461 6.46443 15.6794C6.42635 14.8498 6.41683 14.5998 6.41683 12.4998C6.41683 10.3998 6.42445 10.1498 6.46443 9.32014C6.50061 8.55347 6.63197 8.1368 6.7424 7.85902C6.889 7.49236 7.06416 7.22939 7.34785 6.95347C7.63153 6.67754 7.89997 6.50717 8.27885 6.36458C8.56444 6.25717 8.99282 6.12939 9.78103 6.09421C10.634 6.05532 10.8891 6.04791 13.05 6.04791ZM13.05 4.62939C10.8529 4.62939 10.5769 4.63865 9.7144 4.67754C8.85383 4.71643 8.26552 4.84791 7.74957 5.04421C7.21838 5.24606 6.76715 5.51458 6.31593 5.95162C5.86661 6.38865 5.58864 6.82754 5.38302 7.34606C5.18311 7.84606 5.04602 8.41828 5.00604 9.25717C4.96606 10.0961 4.95654 10.3646 4.95654 12.5016C4.95654 14.6387 4.96606 14.9072 5.00604 15.7461C5.04602 16.5831 5.1812 17.1553 5.38302 17.6572C5.59054 18.1738 5.86661 18.6127 6.31593 19.0516C6.76525 19.4887 7.21647 19.759 7.74957 19.959C8.26362 20.1535 8.85193 20.2868 9.7144 20.3257C10.5769 20.3646 10.8529 20.3738 13.05 20.3738C15.2471 20.3738 15.5232 20.3646 16.3857 20.3257C17.2462 20.2868 17.8345 20.1553 18.3505 19.959C18.8817 19.7572 19.3329 19.4887 19.7841 19.0516C20.2335 18.6146 20.5114 18.1757 20.7171 17.6572C20.917 17.1572 21.054 16.5849 21.094 15.7461C21.134 14.9072 21.1435 14.6387 21.1435 12.5016C21.1435 10.3646 21.134 10.0961 21.094 9.25717C21.054 8.42014 20.9189 7.84791 20.7171 7.34606C20.5095 6.82939 20.2335 6.39051 19.7841 5.95162C19.3348 5.51458 18.8836 5.24421 18.3505 5.04421C17.8364 4.84976 17.2481 4.71643 16.3857 4.67754C15.5232 4.63865 15.2471 4.62939 13.05 4.62939Z" fill="#96644D"/>
<path d="M13.0498 8.45898C10.7556 8.45898 8.89551 10.2682 8.89551 12.4997C8.89551 14.7312 10.7556 16.5405 13.0498 16.5405C15.344 16.5405 17.2041 14.7312 17.2041 12.4997C17.2041 10.2682 15.344 8.45898 13.0498 8.45898ZM13.0498 15.1238C11.561 15.1238 10.352 13.9497 10.352 12.4997C10.352 11.0497 11.5591 9.87565 13.0498 9.87565C14.5406 9.87565 15.7477 11.0497 15.7477 12.4997C15.7477 13.9497 14.5387 15.1238 13.0498 15.1238Z" fill="#96644D"/>
<path d="M17.3699 9.2424C17.9062 9.2424 18.3409 8.81956 18.3409 8.29796C18.3409 7.77636 17.9062 7.35352 17.3699 7.35352C16.8337 7.35352 16.3989 7.77636 16.3989 8.29796C16.3989 8.81956 16.8337 9.2424 17.3699 9.2424Z" fill="#96644D"/>
</svg>
