<svg width="26" height="25" viewBox="0 0 26 25" fill="none" xmlns="http://www.w3.org/2000/svg">
<path d="M13.1487 25C20.2463 25 26.0001 19.4036 26.0001 12.5C26.0001 5.59644 20.2463 0 13.1487 0C6.05111 0 0.297363 5.59644 0.297363 12.5C0.297363 19.4036 6.05111 25 13.1487 25Z" fill="#FFF5E7"/>
<path d="M14.1444 10.7944C14.3557 10.5629 14.529 10.3296 14.746 10.1315C15.4124 9.52035 16.2006 9.21294 17.1221 9.22035C17.6285 9.22405 18.1274 9.25923 18.6148 9.39627C19.7304 9.70923 20.3778 10.4574 20.6881 11.5166C20.9204 12.3111 20.9623 13.1278 20.9642 13.9463C20.968 15.6722 20.9585 17.4 20.9623 19.1259C20.9623 19.287 20.9166 19.3296 20.7528 19.3296C19.839 19.3222 18.9232 19.3222 18.0093 19.3296C17.8475 19.3315 17.8132 19.2833 17.8132 19.1352C17.8189 17.4926 17.8189 15.85 17.8132 14.2055C17.8113 13.7944 17.7847 13.3815 17.6666 12.9815C17.4477 12.2444 16.9051 11.8685 16.1111 11.9092C15.0259 11.9648 14.4623 12.487 14.3234 13.5592C14.291 13.8148 14.2739 14.0722 14.2758 14.3296C14.2777 15.9278 14.2739 17.5259 14.2796 19.124C14.2796 19.2833 14.2396 19.3296 14.072 19.3296C13.1505 19.3222 12.2291 19.3222 11.3076 19.3296C11.1591 19.3315 11.1172 19.2926 11.1172 19.1463C11.121 15.9833 11.121 12.8185 11.1172 9.65553C11.1172 9.49812 11.1705 9.46294 11.3228 9.46294C12.1967 9.46849 13.0725 9.47035 13.9464 9.46294C14.1082 9.46109 14.1482 9.51294 14.1463 9.66109C14.1387 10.0389 14.1444 10.4166 14.1444 10.7944Z" fill="#96644D"/>
<path d="M9.13318 14.4094C9.13318 15.9742 9.13128 17.539 9.13699 19.1039C9.13699 19.2779 9.0932 19.3298 8.90852 19.3279C7.99465 19.3187 7.08078 19.3205 6.165 19.3261C6.0184 19.3279 5.97461 19.2909 5.97461 19.1446C5.97842 15.9761 5.97842 12.8076 5.97461 9.63719C5.97461 9.50571 6.00697 9.45941 6.14977 9.45941C7.07697 9.46496 8.00416 9.46682 8.93137 9.45756C9.11033 9.45571 9.13318 9.52237 9.13318 9.67237C9.13128 11.2539 9.13318 12.8316 9.13318 14.4094Z" fill="#96644D"/>
<path d="M9.38456 6.32223C9.38647 7.30556 8.56589 8.10556 7.55682 8.10556C6.56108 8.10556 5.73478 7.30556 5.73097 6.33704C5.72716 5.35927 6.55347 4.55371 7.56063 4.55371C8.56018 4.55741 9.38456 5.35556 9.38456 6.32223Z" fill="#96644D"/>
</svg>
