<svg width="33" height="33" viewBox="0 0 33 33" fill="none" xmlns="http://www.w3.org/2000/svg">
<path d="M2.12357 16.8996C1.0246 16.0202 0.475098 14.7562 0.475098 13.1166V5.12916C0.475098 3.48954 1.0246 2.22547 2.12357 1.34612C3.22255 0.466776 4.83437 0.0270996 6.95905 0.0270996C9.08373 0.0270996 10.6956 0.466776 11.7945 1.34612C12.8935 2.22547 13.443 3.48954 13.443 5.12916V13.1166C13.443 14.7562 12.8935 16.0202 11.7945 16.8996C10.6956 17.7789 9.08373 18.2186 6.95905 18.2186C4.83437 18.2186 3.22255 17.7789 2.12357 16.8996ZM9.15699 13.3364V4.89099C9.15699 3.55365 8.42434 2.88499 6.94988 2.88499C5.48459 2.88499 4.74278 3.55365 4.74278 4.89099V13.3364C4.74278 14.6737 5.47543 15.3424 6.94988 15.3424C8.42434 15.3424 9.15699 14.6737 9.15699 13.3364ZM22.4912 0.466784H26.7772L10.201 32.4073H5.91501L22.4912 0.466784ZM20.9068 31.5462C19.8079 30.6669 19.2584 29.4028 19.2584 27.7632V19.7758C19.2584 18.1362 19.8079 16.8721 20.9068 15.9928C22.0058 15.1134 23.6176 14.6738 25.7423 14.6738C27.8578 14.6738 29.4788 15.1134 30.5778 15.9928C31.6768 16.8721 32.2263 18.1362 32.2263 19.7758V27.7632C32.2263 29.4028 31.6768 30.6669 30.5778 31.5462C29.4788 32.4256 27.867 32.8653 25.7423 32.8653C23.6176 32.8653 22.0058 32.4256 20.9068 31.5462ZM27.9403 27.9831V19.5376C27.9403 18.2003 27.2076 17.5316 25.7423 17.5316C24.277 17.5316 23.5444 18.2003 23.5444 19.5376V27.9831C23.5444 29.3204 24.277 29.9891 25.7423 29.9891C27.2076 29.9982 27.9403 29.3296 27.9403 27.9831Z" fill="#FD755F"/>
</svg>
