<svg width="188" height="181" viewBox="0 0 188 181" fill="none" xmlns="http://www.w3.org/2000/svg">
<path d="M187.487 72.2802C188.175 59.8936 184.579 48.1867 179.447 37.8137C174.896 28.6118 169.342 18.2411 162.192 11.6335C144.081 -5.1157 115.407 -1.72568 97.7934 16.1717C90.4473 23.6335 86.9805 33.3748 82.5427 43.2746C79.2643 50.5937 75.4589 58.079 69.3651 62.574C54.7681 73.3432 30.5994 65.414 16.566 75.1178C2.53267 84.8216 -2.96337 107.041 1.62319 121.008C6.20976 134.975 22.603 142.734 25.0305 152.647C27.4555 162.562 29.8517 191.271 57.57 176.94C85.2884 162.609 92.6596 135.964 104.8 134.076C116.941 132.188 144.744 130.955 163.246 116.881C175.316 107.701 184.987 93.0349 187.141 76.0861C187.302 74.8097 187.419 73.5391 187.487 72.2802Z" fill="#FFF8EE"/>
</svg>
