<svg width="1677" height="623" viewBox="0 0 1677 623" fill="none" xmlns="http://www.w3.org/2000/svg">
<path d="M1677 311.319C1677 267.52 1666.95 225.833 1648.81 188.026V185.813C1595.4 76.8519 1474.58 0.656514 1333.9 0.00795775C1332.68 0.0119366 1331.47 0.0238732 1330.27 0.0358099C1329.72 0.0397887 1329.16 0.0477465 1328.6 0.0596831C1327.75 0.0477465 1326.89 0.0397887 1326.03 0.031831C1323.29 0.0119366 1320.51 0 1317.69 0C1226.9 0 1169.85 21.9872 1121.46 49.6165C1041.35 95.3616 984.969 156.565 838.5 159.071C692.031 156.565 635.654 95.3577 555.545 49.6165C507.156 21.9872 450.108 0 359.31 0C356.494 0 353.717 0.0119366 350.971 0.031831C350.114 0.0397887 349.252 0.0477465 348.404 0.0596831C347.848 0.0477465 347.288 0.0397887 346.733 0.0358099C345.534 0.0238732 344.325 0.0119366 343.108 0.00795775C202.419 0.656514 81.602 76.8519 28.1929 185.813V188.026C10.0536 225.833 0 267.52 0 311.319V311.681C0 355.48 10.0536 397.167 28.1929 434.974V437.187C81.602 546.148 202.419 622.343 343.103 622.992C344.321 622.984 345.529 622.976 346.729 622.964C347.271 622.956 347.817 622.948 348.359 622.944C349.225 622.952 350.092 622.964 350.967 622.968H351.02C353.744 622.988 356.511 623 359.306 623C450.104 623 507.152 601.013 555.541 573.383C635.65 527.638 692.027 466.435 838.496 463.929C984.964 466.435 1041.34 527.642 1121.45 573.383C1169.84 601.013 1226.89 623 1317.69 623C1320.48 623 1323.25 622.988 1325.97 622.968H1326.02C1326.9 622.96 1327.77 622.952 1328.63 622.944C1329.17 622.952 1329.72 622.96 1330.26 622.964C1331.46 622.976 1332.67 622.984 1333.89 622.992C1474.57 622.343 1595.39 546.148 1648.8 437.187V434.974C1666.94 397.167 1676.99 355.48 1676.99 311.681V311.319H1677Z" fill="url(#paint0_linear_203_19943)" fill-opacity="0.5"/>
<defs>
<linearGradient id="paint0_linear_203_19943" x1="838.5" y1="0" x2="839.042" y2="342" gradientUnits="userSpaceOnUse">
<stop stop-color="#DEC7A8"/>
<stop offset="1" stop-color="#FFF8EE" stop-opacity="0"/>
</linearGradient>
</defs>
</svg>
