<svg width="35" height="52" viewBox="0 0 35 52" fill="none" xmlns="http://www.w3.org/2000/svg">
<path d="M11.9609 31.5618C13.3108 30.984 14.6561 30.3967 15.9295 29.6503C16.2003 29.5265 16.4955 29.4426 16.6859 29.1823C17.17 29.0733 17.5287 28.7252 17.9456 28.4876C18.0786 28.4116 17.9876 28.3402 17.9318 28.2775C17.4874 27.7742 17.1456 27.1948 16.7662 26.6428C16.4527 26.0085 16.1597 25.3641 15.9043 24.7024C15.7169 23.9183 15.4462 23.2041 14.8741 22.5894C14.1452 21.8062 13.7032 20.8105 13.2542 19.8359C13.2252 19.7371 13.2015 19.6368 13.167 19.5403C12.6309 18.0248 12.5131 16.4811 12.8718 14.906C13.0386 14.6417 13.2068 14.3752 13.5563 14.3548C13.7101 14.3462 13.7024 14.2387 13.7032 14.136C13.7177 12.7695 13.7315 11.4021 13.7452 10.0356C13.6879 9.72197 13.7345 9.41777 13.7651 9.10181C13.9005 7.69605 14.273 6.36869 14.8863 5.10876C15.3888 4.20713 16.0121 3.40429 16.7593 2.70259C18.1398 1.53988 19.7429 0.90403 21.4881 0.605316C23.0973 0.381868 24.7057 0.399117 26.3126 0.634325C28.0395 0.980865 29.6288 1.63082 30.9687 2.83587C31.6616 3.50229 32.2238 4.27377 32.7033 5.11033C32.8647 5.49137 33.0383 5.86692 33.1866 6.25344C33.6509 7.4679 33.823 8.73802 33.8444 10.0348C33.8574 11.4014 33.8704 12.7679 33.8841 14.1345C33.8849 14.2372 33.8742 14.3462 34.0287 14.3548C34.379 14.3744 34.5465 14.6417 34.7155 14.9044C34.7805 15.2345 34.8577 15.5606 34.8883 15.8993C35.0054 17.1922 34.818 18.4388 34.3927 19.6548C33.8451 20.9939 33.1438 22.2327 32.1442 23.2762C32.0685 23.3546 32.0379 23.4479 32.0096 23.5491C31.9025 23.9348 31.7909 24.3198 31.6807 24.7055C31.4658 25.2175 31.2501 25.7294 31.0352 26.2414C30.6085 26.947 30.1985 27.6652 29.6448 28.2791C29.5217 28.4155 29.5951 28.472 29.7029 28.537C30.1496 28.806 30.5756 29.1117 31.0521 29.3265C31.2846 29.5022 31.5431 29.6284 31.813 29.7327C32.7308 30.2925 33.7136 30.7166 34.6872 31.1557C34.9335 31.267 34.9794 31.3337 34.8019 31.5806C34.1534 32.4854 33.5744 33.4356 33.1713 34.487C32.4387 36.0527 32.0195 37.7023 31.9079 39.435C31.7358 41.0728 31.7985 42.6965 32.1748 44.3022C32.5021 46.0624 33.1178 47.7104 34.0226 49.2439C34.2665 49.8124 34.6574 50.2906 35 50.8724C33.6501 50.9994 32.3476 51.1217 31.0452 51.244C29.4674 51.3326 27.8888 51.4212 26.311 51.5098C24.7049 51.5113 23.0988 51.5137 21.492 51.5153C19.9126 51.4314 18.3341 51.3475 16.7548 51.2644C15.6917 51.1648 14.6286 51.066 13.5655 50.9664C13.021 50.9155 12.4772 50.8637 11.9326 50.8128C11.6198 50.7697 11.3063 50.7273 10.9935 50.6842C9.7277 50.5117 8.46195 50.3384 7.19696 50.166C5.87919 49.908 4.56143 49.6509 3.24443 49.3913C2.95916 49.3349 2.67541 49.269 2.39091 49.2071C2.30984 49.1405 2.23794 49.1859 2.16529 49.2251C2.16529 49.1295 2.10793 49.0997 2.02686 49.0722C1.82265 49.0033 1.61845 48.9319 1.42189 48.8433C0.280802 48.3313 -0.101601 47.6986 0.0222974 46.4285C0.09113 45.7197 0.230325 45.018 0.338163 44.3124C0.709094 42.6448 1.1871 41.0117 1.85401 39.4405C2.0521 39.0469 2.24942 38.6533 2.4475 38.259C3.27502 36.8069 4.2708 35.5094 5.66887 34.5827C6.15376 34.3122 6.63865 34.0417 7.12353 33.7712C8.73575 33.0342 10.3487 32.298 11.9609 31.5618Z" fill="#96644D"/>
</svg>
