<svg width="37" height="29" viewBox="0 0 37 29" fill="none" xmlns="http://www.w3.org/2000/svg">
<path d="M5.0605 6.65948C5.61713 6.03225 6.17451 5.40501 6.73114 4.77778C7.52925 4.07726 8.33495 3.38699 9.21887 2.80152C9.87649 2.36576 10.5804 2.01747 11.257 1.61796C11.3892 1.6093 11.5061 1.56123 11.6064 1.46982C11.945 1.33587 12.2837 1.20112 12.6232 1.06874C13.7888 0.61486 15.0023 0.354825 16.2234 0.127886C17.2273 0.0459354 18.2319 -0.0431068 19.2396 0.0230839C19.8297 0.0616951 20.4174 0.12631 21.006 0.179105C22.6356 0.439139 24.1961 0.945025 25.708 1.61954C25.7202 1.66367 25.7475 1.68258 25.7916 1.67312C27.4592 2.4942 28.9658 3.56192 30.3296 4.85027C30.849 5.42708 31.3684 6.00467 31.8871 6.58147C33.0254 8.06761 33.9359 9.69086 34.6102 11.4559C34.7849 11.9823 34.9595 12.5079 35.1342 13.0343C35.3932 14.154 35.586 15.2855 35.725 16.4273C35.7265 17.25 35.7303 18.0734 35.7273 18.8961C35.7265 19.0096 35.7409 19.0923 35.8435 19.1561C36.6241 19.647 36.9628 20.3956 37 21.3168C36.9491 22.966 36.9795 24.6161 36.9841 26.2653C36.8177 27.4244 36.0948 28.0674 35.0978 28.4567C34.753 28.5339 34.4105 28.6277 34.062 28.6844C32.8128 28.8893 31.9592 28.3275 31.6251 27.0825C31.5545 26.8185 31.5256 26.5427 31.477 26.2724C31.4748 24.6169 31.4732 22.9613 31.471 21.3065C31.5006 21.0079 31.5127 20.7061 31.5628 20.4106C31.755 19.272 32.4619 18.5486 33.4567 18.5068C33.7104 18.4958 33.7415 18.4044 33.743 18.1908C33.7476 17.6014 33.7195 17.0144 33.6595 16.4289C33.6413 16.2343 33.6306 16.0389 33.6041 15.845C33.3983 14.3234 33.0398 12.8475 32.3875 11.4599C31.9152 10.2685 31.2788 9.17946 30.4959 8.18108C30.0676 7.55857 29.574 6.99753 29.025 6.48928C28.0674 5.50666 26.9937 4.68874 25.7992 4.04338C25.7035 3.98428 25.6101 3.91809 25.5106 3.86608C24.0609 3.10095 22.5475 2.53675 20.927 2.31375C19.3543 2.01353 17.7809 2.00408 16.2067 2.29878C14.4836 2.53439 12.8669 3.10253 11.3444 3.96773C10.0914 4.6257 8.97131 5.47357 7.96969 6.49322C7.48368 6.95025 7.03565 7.44353 6.64533 7.99275C5.8047 9.04708 5.11366 10.196 4.60564 11.4607C3.88347 13.0351 3.48175 14.6985 3.33519 16.4313C3.26913 17.0294 3.2509 17.6298 3.25622 18.2318C3.25774 18.4075 3.28128 18.4997 3.50454 18.5068C4.37706 18.5368 4.95647 19.0174 5.28072 19.8472C5.46373 20.3152 5.49943 20.8101 5.52676 21.3065C5.52373 22.9629 5.52069 24.6192 5.51765 26.2756C5.48955 26.4694 5.46905 26.664 5.4326 26.8563C5.18352 28.1817 4.33682 28.8452 3.05878 28.6994C2.71022 28.6592 2.36774 28.5639 2.02299 28.4945C1.57875 28.3164 1.14135 28.1297 0.779883 27.7909C0.319699 27.3598 0.0880881 26.8169 0.0167064 26.1889C0.0205033 25.4947 0.0334126 24.7997 0.0265782 24.1055C0.0167062 23.1496 0.066066 22.1938 0 21.2388C0.0584722 20.3507 0.402471 19.6329 1.1535 19.1609C1.25449 19.097 1.27044 19.0119 1.26968 18.8992C1.26816 18.0774 1.27272 17.2555 1.275 16.4336C1.43523 15.0728 1.67975 13.7301 2.05868 12.4149C2.16955 12.0966 2.27966 11.7782 2.39053 11.4599C3.06713 9.73105 3.95105 8.1275 5.0605 6.65948Z" fill="#96644D"/>
</svg>
