<svg width="9" height="59" viewBox="0 0 9 59" fill="none" xmlns="http://www.w3.org/2000/svg">
<path d="M2.43959 41.9871C1.93397 41.6559 1.04728 40.8735 1.04728 40.1898C1.01797 33.6841 0.930062 27.1785 0.710227 20.6799C0.600309 17.4658 0.424398 14.2588 0.299824 11.0447C0.233874 9.40246 0.145911 7.76724 0.0872881 6.12496C0.0359931 4.6448 -0.139829 3.02367 0.226564 1.57171C0.548989 0.317095 2.2417 0.154982 3.31889 0.288901C4.60127 0.443966 5.97157 1.12766 6.33796 2.39637C6.75565 3.83424 6.83626 5.42013 6.98282 6.90029C7.14403 8.54256 7.29058 10.1919 7.42981 11.8342C7.69361 14.9636 7.84753 18.1143 8.01607 21.2508C8.35315 27.6789 8.57296 34.1141 8.62425 40.5493C8.63891 42.3466 6.93157 42.8893 5.29013 42.8682C4.34484 42.8541 3.21634 42.4946 2.43959 41.9871ZM8.99798 56.0698C9.12988 59.3191 2.76936 58.4028 2.27106 55.7456C2.08787 54.7659 1.97796 53.7861 1.912 52.7923C1.84605 51.8337 1.64816 50.6496 2.05119 49.7686C3.03312 47.6188 6.70435 48.3448 7.7962 50.0575C8.83675 51.6857 8.9247 54.202 8.99798 56.0698Z" fill="#783A1E"/>
</svg>
