<svg width="9" height="68" viewBox="0 0 9 68" fill="none" xmlns="http://www.w3.org/2000/svg">
<path d="M2.43959 49.2826C1.93397 48.8991 1.04728 47.9934 1.04728 47.2019C1.01797 39.6703 0.930062 32.1388 0.710227 24.6154C0.600309 20.8945 0.424398 17.1818 0.299824 13.4609C0.233874 11.5596 0.145911 9.66654 0.0872881 7.76529C0.0359931 6.05172 -0.139829 4.17496 0.226564 2.49403C0.548989 1.04157 2.2417 0.853896 3.31889 1.00893C4.60127 1.18845 5.97157 1.97996 6.33796 3.44873C6.75565 5.11334 6.83626 6.94931 6.98282 8.66288C7.14403 10.5641 7.29058 12.4735 7.42981 14.3748C7.69361 17.9978 7.84753 21.6452 8.01607 25.2764C8.35315 32.7181 8.57296 40.1681 8.62425 47.618C8.63891 49.6988 6.93157 50.3271 5.29013 50.3026C4.34484 50.2863 3.21634 49.8702 2.43959 49.2826ZM8.99798 65.5861C9.12988 69.3477 2.76936 68.287 2.27106 65.2107C2.08787 64.0765 1.97796 62.9423 1.912 61.7917C1.84605 60.682 1.64816 59.3111 2.05119 58.2911C3.03312 55.8024 6.70435 56.6428 7.7962 58.6257C8.83675 60.5106 8.9247 63.4237 8.99798 65.5861Z" fill="#3D3D3D"/>
</svg>
