<svg width="29" height="29" viewBox="0 0 29 29" fill="none" xmlns="http://www.w3.org/2000/svg">
<path d="M28.9148 12.7383C29.0879 14.3667 28.9932 15.9821 28.6673 17.5859C28.2452 19.282 27.5701 20.8713 26.6164 22.3422C26.5582 22.3568 26.5411 22.3937 26.5574 22.449C25.2646 24.2542 23.6723 25.7405 21.7525 26.8786C21.6105 26.9347 21.4654 26.9847 21.3645 27.1076C19.9305 27.7924 18.4468 28.3295 16.8708 28.5962C15.2381 28.839 13.607 28.826 11.9766 28.5747C11.889 28.5516 11.8028 28.524 11.7144 28.5071C9.7519 28.1282 7.94385 27.3858 6.29489 26.2646C4.76465 25.224 3.5029 23.9207 2.43514 22.4252C2.41496 22.3983 2.39401 22.3714 2.37384 22.3452C1.43722 20.8674 0.74815 19.2851 0.332999 17.5875C0.00630911 16.009 -0.0759455 14.4174 0.0683876 12.8128C0.281783 11.1252 0.766772 9.51672 1.50008 7.98049C1.78719 7.47405 2.07353 6.96761 2.36064 6.46117C2.39944 6.42889 2.44833 6.40353 2.47549 6.36357C3.26622 5.2016 4.22689 4.19333 5.2993 3.28497C5.93017 2.79621 6.59131 2.35125 7.27108 1.93165C7.82125 1.6596 8.36444 1.37602 8.93168 1.13779C9.91563 0.724337 10.9477 0.476882 11.9821 0.234037C13.0685 0.104929 14.1572 -0.00342904 15.2529 0.0680412C15.7914 0.103392 16.3284 0.164872 16.8661 0.214825C18.5205 0.522992 20.0942 1.0571 21.5787 1.84711C22.3097 2.28977 23.0236 2.75855 23.6963 3.28497C24.7556 4.16874 25.6829 5.17317 26.4852 6.29057C26.8236 6.85464 27.1627 7.41872 27.501 7.9828C28.2126 9.4975 28.7154 11.0737 28.9148 12.7383ZM16.132 8.00585C16.3819 7.26732 16.1569 6.53033 15.5415 6.07077C14.9456 5.62581 14.0951 5.61736 13.4906 6.04926C12.852 6.50651 12.6192 7.23735 12.8683 8.00662C13.1267 8.72824 13.7568 9.18012 14.5025 9.18012C15.249 9.18012 15.8899 8.71825 16.132 8.00585ZM16.2337 12.8228C16.2376 12.4009 16.2539 11.9782 16.243 11.5563C16.2329 11.1767 16.018 10.9746 15.6253 10.9699C14.8757 10.9623 14.1253 10.9615 13.3757 10.9692C12.9808 10.9738 12.7681 11.1759 12.7596 11.5563C12.7503 11.9782 12.7658 12.4009 12.7705 12.8228C12.7713 14.4082 12.7713 15.9928 12.772 17.5783C12.7736 19.169 12.7751 20.7606 12.7767 22.3514C12.7441 22.8724 12.9334 23.0868 13.4479 23.0907C14.1277 23.0961 14.8067 23.093 15.4864 23.0915C16.056 23.0899 16.1933 22.9501 16.2259 22.3506C16.2275 20.7598 16.2298 19.169 16.2314 17.5783C16.2321 15.9944 16.2329 14.409 16.2337 12.8228Z" fill="#689F4E"/>
</svg>
