<svg width="76" height="83" viewBox="0 0 76 83" fill="none" xmlns="http://www.w3.org/2000/svg">
<path d="M67.2862 82.2612C67.6742 82.6542 68.3074 82.6584 68.7004 82.2704L75.1059 75.9482C75.4989 75.5603 75.5031 74.9271 75.1151 74.534C74.7272 74.141 74.094 74.1368 73.7009 74.5248L68.0072 80.1445L62.3875 74.4508C61.9995 74.0577 61.3664 74.0536 60.9733 74.4415C60.5802 74.8295 60.5761 75.4626 60.964 75.8557L67.2862 82.2612ZM0.802197 1.98027C1.43302 2.10757 2.08242 2.24935 2.74884 2.40596L3.20638 0.458993C2.52001 0.297698 1.84996 0.151388 1.1978 0.0197887L0.802197 1.98027ZM6.61101 3.42913C7.84876 3.7926 9.12709 4.20102 10.4381 4.65597L11.0938 2.76649C9.75268 2.30111 8.44362 1.88283 7.17452 1.51015L6.61101 3.42913ZM14.1967 6.05607C15.415 6.54091 16.6533 7.06385 17.906 7.62599L18.7248 5.8013C17.4457 5.2273 16.181 4.69317 14.9362 4.1978L14.1967 6.05607ZM21.5286 9.34437C22.7075 9.93426 23.894 10.5585 25.0837 11.2178L26.0532 9.46853C24.8385 8.7953 23.6271 8.15801 22.4235 7.55578L21.5286 9.34437ZM28.5598 13.2421C29.6891 13.9325 30.8173 14.6551 31.9408 15.4107L33.0569 13.7511C31.909 12.979 30.7564 12.2408 29.603 11.5357L28.5598 13.2421ZM35.2203 17.7231C36.2868 18.5113 37.3456 19.3305 38.3932 20.1813L39.6541 18.6288C38.5822 17.7583 37.4994 16.9205 36.409 16.1146L35.2203 17.7231ZM41.4487 22.7838C42.4389 23.6684 43.4156 24.5833 44.3758 25.5288L45.7791 24.1038C44.7953 23.135 43.7949 22.198 42.7812 21.2923L41.4487 22.7838ZM47.1634 28.414C48.0616 29.3916 48.9415 30.3987 49.8005 31.4359L51.3408 30.1603C50.4596 29.0962 49.5571 28.0632 48.6362 27.0609L47.1634 28.414ZM52.2733 34.5866C53.0634 35.6501 53.8314 36.7423 54.5747 37.8637L56.2418 36.7589C55.4784 35.607 54.6898 34.4855 53.8786 33.3938L52.2733 34.5866ZM56.695 41.2602C57.3647 42.4012 58.009 43.5702 58.6258 44.7674L60.4038 43.8515C59.77 42.6213 59.1079 41.4202 58.4198 40.2478L56.695 41.2602ZM60.3604 48.3759C60.8997 49.582 61.4115 50.8149 61.8937 52.0748L63.7616 51.36C63.2662 50.0655 62.7404 48.7988 62.1862 47.5594L60.3604 48.3759ZM63.2229 55.8532C63.627 57.1098 64.0023 58.3918 64.347 59.6994L66.2809 59.1897C65.9271 57.8476 65.5418 56.5314 65.1268 55.2409L63.2229 55.8532ZM65.2672 63.6026C65.5368 64.8954 65.7771 66.2118 65.9866 67.5522L67.9626 67.2434C67.7479 65.8698 67.5016 64.5202 67.2251 63.1943L65.2672 63.6026ZM66.5081 71.5246C66.6479 72.8333 66.7589 74.1637 66.8398 75.516L68.8362 75.3966C68.7535 74.0134 68.6399 72.652 68.4968 71.3122L66.5081 71.5246ZM66.9893 79.5224C66.9995 80.1938 67.0024 80.8704 66.998 81.5522L68.9979 81.5652C69.0025 80.869 68.9995 80.178 68.9891 79.492L66.9893 79.5224Z" fill="#783A1E"/>
</svg>
