<svg width="36" height="46" viewBox="0 0 36 46" fill="none" xmlns="http://www.w3.org/2000/svg">
<path d="M0.5 5.67259H4.81627C4.81627 5.67259 7.38789 5.53132 9.01404 7.52211L18.4385 19.584H11.8252C11.8252 19.584 8.89461 19.7141 7.70744 17.6941L0.5 5.67259Z" fill="url(#paint0_linear_1405_7215)"/>
<path d="M15.3488 30.5194L19.2295 37.0327C19.2295 37.0327 20.6559 40.3296 25.3679 40.3296H35.2667L21.249 23.1213L15.3488 24.489C15.3488 24.4886 13.7258 26.6597 15.3488 30.5194Z" fill="url(#paint1_linear_1405_7215)"/>
<path d="M23.3574 25.7122L21.0856 22.9176L15.3605 24.4887C15.3605 24.4887 13.7375 26.6598 15.3605 30.5195L15.5987 30.9313C15.5797 30.676 15.4036 26.6932 23.3574 25.7122Z" fill="url(#paint2_linear_1405_7215)"/>
<path d="M15.5812 30.9208C15.5812 30.9208 13.7878 26.2398 19.6396 23.9976C19.6396 23.9976 23.808 22.4836 26.5963 23.3811C26.5963 23.3811 26.4033 19.9614 19.5564 20.1855C19.5564 20.1855 15.9408 20.1576 13.0968 21.1668C13.0968 21.1668 10.0875 21.9795 12.3236 25.483L15.5812 30.9208Z" fill="url(#paint3_linear_1405_7215)"/>
<defs>
<linearGradient id="paint0_linear_1405_7215" x1="9.46927" y1="5.67037" x2="9.46927" y2="19.5856" gradientUnits="userSpaceOnUse">
<stop offset="0.033" stop-color="#19AADE"/>
<stop offset="0.951" stop-color="#134E8E"/>
</linearGradient>
<linearGradient id="paint1_linear_1405_7215" x1="24.9471" y1="23.1213" x2="24.9471" y2="40.3296" gradientUnits="userSpaceOnUse">
<stop offset="0.132" stop-color="#E02527"/>
<stop offset="0.742" stop-color="#A1141C"/>
</linearGradient>
<linearGradient id="paint2_linear_1405_7215" x1="14.6395" y1="26.9246" x2="23.3574" y2="26.9246" gradientUnits="userSpaceOnUse">
<stop offset="0.005" stop-color="#71251D"/>
<stop offset="0.742" stop-color="#C73127"/>
</linearGradient>
<linearGradient id="paint3_linear_1405_7215" x1="11.4976" y1="25.5478" x2="26.5966" y2="25.5478" gradientUnits="userSpaceOnUse">
<stop offset="0.148" stop-color="#E8EBEE"/>
<stop offset="0.742" stop-color="#95A5AF"/>
</linearGradient>
</defs>
</svg>
