<svg width="66" height="66" viewBox="0 0 66 66" fill="none" xmlns="http://www.w3.org/2000/svg">
<rect x="0.198242" width="65.387" height="65.387" rx="16" fill="#36DA76"/>
<path d="M41.3595 45.4382C41.3047 44.2648 41.2319 43.0976 41.1738 41.933C40.9856 38.2898 41.001 34.5932 40.8042 30.932C40.6073 27.2982 40.7241 23.662 40.6202 20.0283C40.5993 19.2732 40.633 17.7817 39.8516 17.3512C38.1706 16.4264 37.1727 18.949 36.745 19.976C35.9741 21.8401 35.5287 23.8007 34.9781 25.732C34.5088 27.3851 33.9743 29.0328 33.7932 30.7444C33.659 32.0287 33.6713 33.4664 34.3422 34.6236C34.6792 35.2052 35.2617 35.601 35.925 35.7683C36.6134 35.9445 37.4006 35.7139 38.0538 36.0248C38.2222 36.1061 38.3706 36.2752 38.4382 36.4459C38.6499 36.9962 38.4496 37.831 38.3834 38.3987C38.1737 40.2274 37.952 42.0743 37.8527 43.9118C37.794 45.023 37.7291 46.4462 38.4013 47.4144C38.8134 48.0023 39.6484 48.5513 40.4019 48.2591C41.528 47.8281 41.4063 46.372 41.3595 45.4382Z" fill="white"/>
<path d="M27.033 18.1624C26.7093 18.2921 26.8321 19.4492 26.8176 19.8047C26.7964 20.4434 26.84 21.2886 26.7631 22.1163C26.7626 22.1237 26.7615 22.1289 26.7604 22.134C26.7538 22.1915 26.7484 22.2536 26.7389 22.3191C26.7288 22.3824 26.7181 22.4434 26.7103 22.506C26.6414 22.9096 26.51 23.3875 26.2618 23.6167C25.9799 23.8787 25.3484 23.8236 25.129 23.514C24.7702 23.0099 24.7971 21.8845 24.7753 21.8513C24.7607 21.3189 24.6832 19.7086 24.5668 18.6469C24.5572 18.5669 24.5417 18.0857 24.1023 18.0343C23.8974 18.012 23.6818 18.1866 23.612 18.5055C23.4056 19.4468 23.2124 21.2411 23.2002 21.5233C23.1977 21.5506 23.1965 21.5825 23.1964 21.6092C23.1964 21.6092 23.1953 21.6143 23.1959 21.6166C23.1946 21.6751 23.1248 23.0809 22.7691 23.5659C22.5832 23.8202 22.1004 24.0201 21.6207 23.7511C21.4297 23.6428 21.2987 23.434 21.2064 23.2104C20.7048 21.649 21.1551 19.929 21.2192 19.1094C21.2382 18.8789 21.4469 18.1092 20.9812 18.1349C20.28 18.173 19.3744 21.1607 19.2125 21.8455C18.8155 23.5493 18.7553 25.3699 19.4458 27.0134C19.8294 27.9236 20.5797 28.6686 21.5101 29.0298C21.9212 29.188 22.3782 29.3028 22.862 29.3694C22.688 33.2428 22.4903 37.2848 22.3103 39.5342C22.1719 41.227 22.0084 42.9385 22.0304 44.6383C22.0434 45.6539 22.0327 46.8649 22.6994 47.7164C23.3967 48.6061 24.8676 48.1968 25.2648 47.1456C25.7103 45.9605 25.5807 44.5796 25.429 42.4037C25.2767 40.2256 25.1053 37.2543 25.0108 35.6557C24.8725 33.3017 24.8242 31.2447 24.8109 29.3679C26.0496 29.1909 27.2048 28.6594 27.8514 27.682C28.1351 27.2545 28.3218 26.7768 28.4494 26.2853C28.645 25.5408 28.7404 24.7253 28.6981 23.9574C28.6552 23.2504 28.0741 17.7453 27.033 18.1624Z" fill="white"/>
</svg>
