<svg width="25" height="25" viewBox="0 0 25 25" fill="none" xmlns="http://www.w3.org/2000/svg">
<g clip-path="url(#clip0_1003_25239)">
<path d="M12.8732 22.6186C10.2499 22.6186 7.73396 21.5765 5.87898 19.7215C4.02401 17.8665 2.98189 15.3507 2.98189 12.7273C2.98189 10.104 4.02401 7.58809 5.87898 5.73311C7.73396 3.87813 10.2499 2.83602 12.8732 2.83602C15.4965 2.83602 18.0124 3.87813 19.8674 5.73311C21.7224 7.58809 22.7645 10.104 22.7645 12.7273C22.7645 15.3507 21.7224 17.8665 19.8674 19.7215C18.0124 21.5765 15.4965 22.6186 12.8732 22.6186ZM12.8732 24.0317C15.8713 24.0317 18.7466 22.8407 20.8666 20.7207C22.9865 18.6007 24.1775 15.7254 24.1775 12.7273C24.1775 9.72922 22.9865 6.85391 20.8666 4.73394C18.7466 2.61396 15.8713 1.42297 12.8732 1.42297C9.87509 1.42297 6.99979 2.61396 4.87981 4.73394C2.75984 6.85391 1.56885 9.72922 1.56885 12.7273C1.56885 15.7254 2.75984 18.6007 4.87981 20.7207C6.99979 22.8407 9.87509 24.0317 12.8732 24.0317Z" fill="#1262AF"/>
<path d="M10.3499 7.92721C10.4832 7.85857 10.6329 7.82803 10.7824 7.83896C10.9319 7.84989 11.0756 7.90186 11.1975 7.98915L16.9021 12.0639C17.0078 12.1393 17.0939 12.2388 17.1533 12.3542C17.2127 12.4696 17.2437 12.5975 17.2437 12.7273C17.2437 12.8571 17.2127 12.985 17.1533 13.1004C17.0939 13.2157 17.0078 13.3153 16.9021 13.3907L11.1975 17.4654C11.0756 17.5526 10.932 17.6046 10.7826 17.6155C10.6331 17.6264 10.4835 17.5959 10.3503 17.5274C10.217 17.4588 10.1053 17.3548 10.0273 17.2269C9.94928 17.0989 9.90808 16.9519 9.9082 16.8021V8.65252C9.90805 8.5027 9.94919 8.35574 10.0271 8.22778C10.105 8.09983 10.2167 7.99583 10.3499 7.92721Z" fill="#1262AF"/>
</g>
<defs>
<clipPath id="clip0_1003_25239">
<rect width="24" height="24" fill="white" transform="translate(0.873047 0.727295)"/>
</clipPath>
</defs>
</svg>
