<svg width="24" height="24" viewBox="0 0 24 24" fill="none" xmlns="http://www.w3.org/2000/svg">
<path fill-rule="evenodd" clip-rule="evenodd" d="M7.42864 5.14286C7.27709 5.14286 7.13174 5.20306 7.02458 5.31022C6.91742 5.41739 6.85721 5.56273 6.85721 5.71429V8C6.85721 8.15155 6.91742 8.2969 7.02458 8.40406C7.13174 8.51122 7.27709 8.57143 7.42864 8.57143C7.58019 8.57143 7.72554 8.51122 7.8327 8.40406C7.93987 8.2969 8.00007 8.15155 8.00007 8V5.71429C8.00007 5.56273 7.93987 5.41739 7.8327 5.31022C7.72554 5.20306 7.58019 5.14286 7.42864 5.14286ZM7.42864 4C7.8833 4 8.31933 4.18061 8.64082 4.5021C8.96232 4.82359 9.14293 5.25963 9.14293 5.71429V8C9.14293 8.45466 8.96232 8.89069 8.64082 9.21218C8.31933 9.53367 7.8833 9.71428 7.42864 9.71428C6.97398 9.71428 6.53795 9.53367 6.21646 9.21218C5.89497 8.89069 5.71436 8.45466 5.71436 8V5.71429C5.71436 5.25963 5.89497 4.82359 6.21646 4.5021C6.53795 4.18061 6.97398 4 7.42864 4Z" fill="#303030"/>
<path fill-rule="evenodd" clip-rule="evenodd" d="M8 6.85713C8 6.54154 8.25584 6.28571 8.57143 6.28571H21.1429C21.4585 6.28571 21.7143 6.54154 21.7143 6.85713C21.7143 7.17273 21.4585 7.42856 21.1429 7.42856H8.57143C8.25584 7.42856 8 7.17273 8 6.85713Z" fill="#303030"/>
<path fill-rule="evenodd" clip-rule="evenodd" d="M2.28564 6.85713C2.28564 6.54154 2.54148 6.28571 2.85707 6.28571H6.28565C6.60124 6.28571 6.85707 6.54154 6.85707 6.85713C6.85707 7.17273 6.60124 7.42856 6.28565 7.42856H2.85707C2.54148 7.42856 2.28564 7.17273 2.28564 6.85713Z" fill="#303030"/>
<path fill-rule="evenodd" clip-rule="evenodd" d="M7.42864 16.5714C7.27709 16.5714 7.13174 16.6316 7.02458 16.7388C6.91742 16.846 6.85721 16.9913 6.85721 17.1429V19.4286C6.85721 19.5801 6.91742 19.7255 7.02458 19.8327C7.13174 19.9398 7.27709 20 7.42864 20C7.58019 20 7.72554 19.9398 7.8327 19.8327C7.93987 19.7255 8.00007 19.5801 8.00007 19.4286V17.1429C8.00007 16.9913 7.93987 16.846 7.8327 16.7388C7.72554 16.6316 7.58019 16.5714 7.42864 16.5714ZM6.21646 15.9307C6.53795 15.6092 6.97398 15.4286 7.42864 15.4286C7.8833 15.4286 8.31933 15.6092 8.64082 15.9307C8.96232 16.2522 9.14293 16.6882 9.14293 17.1429V19.4286C9.14293 19.8832 8.96232 20.3193 8.64082 20.6408C8.31933 20.9623 7.8833 21.1429 7.42864 21.1429C6.97399 21.1429 6.53795 20.9623 6.21646 20.6408C5.89497 20.3193 5.71436 19.8832 5.71436 19.4286V17.1429C5.71436 16.6882 5.89497 16.2522 6.21646 15.9307Z" fill="#303030"/>
<path fill-rule="evenodd" clip-rule="evenodd" d="M8 18.2857C8 17.9701 8.25584 17.7143 8.57143 17.7143H21.1429C21.4585 17.7143 21.7143 17.9701 21.7143 18.2857C21.7143 18.6013 21.4585 18.8572 21.1429 18.8572H8.57143C8.25584 18.8572 8 18.6013 8 18.2857Z" fill="#303030"/>
<path fill-rule="evenodd" clip-rule="evenodd" d="M2.28564 18.2857C2.28564 17.9701 2.54148 17.7143 2.85707 17.7143H6.28565C6.60124 17.7143 6.85707 17.9701 6.85707 18.2857C6.85707 18.6013 6.60124 18.8572 6.28565 18.8572H2.85707C2.54148 18.8572 2.28564 18.6013 2.28564 18.2857Z" fill="#303030"/>
<path fill-rule="evenodd" clip-rule="evenodd" d="M16.5712 10.8572C16.4197 10.8572 16.2743 10.9174 16.1672 11.0245C16.06 11.1317 15.9998 11.277 15.9998 11.4286V13.7143C15.9998 13.8658 16.06 14.0112 16.1672 14.1184C16.2743 14.2255 16.4197 14.2857 16.5712 14.2857C16.7228 14.2857 16.8681 14.2255 16.9753 14.1184C17.0824 14.0112 17.1426 13.8658 17.1426 13.7143V11.4286C17.1426 11.277 17.0824 11.1317 16.9753 11.0245C16.8681 10.9174 16.7228 10.8572 16.5712 10.8572ZM16.5712 9.71429C17.0259 9.71429 17.4619 9.89491 17.7834 10.2164C18.1049 10.5379 18.2855 10.9739 18.2855 11.4286V13.7143C18.2855 14.169 18.1049 14.605 17.7834 14.9265C17.4619 15.248 17.0259 15.4286 16.5712 15.4286C16.1166 15.4286 15.6805 15.248 15.359 14.9265C15.0375 14.605 14.8569 14.169 14.8569 13.7143V11.4286C14.8569 10.9739 15.0375 10.5379 15.359 10.2164C15.6805 9.89491 16.1166 9.71429 16.5712 9.71429Z" fill="#303030"/>
<path fill-rule="evenodd" clip-rule="evenodd" d="M2.28564 12.5714C2.28564 12.2558 2.54148 12 2.85707 12H15.4285C15.7441 12 15.9999 12.2558 15.9999 12.5714C15.9999 12.887 15.7441 13.1429 15.4285 13.1429H2.85707C2.54148 13.1429 2.28564 12.887 2.28564 12.5714Z" fill="#303030"/>
<path fill-rule="evenodd" clip-rule="evenodd" d="M17.1426 12.5714C17.1426 12.2558 17.3984 12 17.714 12H21.1426C21.4582 12 21.714 12.2558 21.714 12.5714C21.714 12.887 21.4582 13.1429 21.1426 13.1429H17.714C17.3984 13.1429 17.1426 12.887 17.1426 12.5714Z" fill="#303030"/>
</svg>
