<svg width="119" height="25" viewBox="0 0 119 25" fill="none" xmlns="http://www.w3.org/2000/svg">
<line x1="5.49219" y1="12.7886" x2="109.044" y2="12.7886" stroke="#CCCCCC" stroke-dasharray="3 3"/>
<path d="M58.0725 22.707H56.7071C56.5699 22.707 56.4349 22.6755 56.3144 22.6155C56.1939 22.5555 56.0919 22.4688 56.0175 22.3634C55.9432 22.258 55.899 22.1373 55.8889 22.0123C55.8787 21.8872 55.9031 21.7619 55.9597 21.6477L59.2661 14.9797L54.3014 14.8789L52.4907 16.8837C52.1455 17.2803 51.8701 17.457 51.1673 17.457H50.2482C50.1026 17.4613 49.9581 17.4335 49.8268 17.3759C49.6956 17.3183 49.5815 17.2326 49.4941 17.1261C49.3721 16.9756 49.252 16.7206 49.369 16.3569L50.3856 13.0287C50.3933 13.0039 50.4025 12.9791 50.4128 12.9547C50.4133 12.9524 50.4133 12.95 50.4128 12.9477C50.4022 12.9233 50.3931 12.8984 50.3856 12.8731L49.368 9.52391C49.2577 9.16719 49.3782 8.91781 49.4993 8.77109C49.5806 8.67252 49.686 8.59276 49.8072 8.53821C49.9283 8.48367 50.0618 8.45586 50.1969 8.45703H51.1673C51.6921 8.45703 52.2014 8.67219 52.501 9.01953L54.2742 10.9906L59.2661 10.9231L55.9607 4.26688C55.9041 4.15271 55.8796 4.02739 55.8896 3.90236C55.8996 3.77733 55.9437 3.65659 56.018 3.55117C56.0922 3.44575 56.1942 3.35901 56.3145 3.2989C56.4349 3.23878 56.5699 3.20719 56.7071 3.20703H58.0874C58.2799 3.21057 58.4692 3.2537 58.641 3.33323C58.8128 3.41276 58.9628 3.52663 59.0799 3.66641L65.4942 10.7914L68.4574 10.7202C68.6744 10.7094 69.2755 10.7056 69.4145 10.7056C72.249 10.707 73.9417 11.548 73.9417 12.957C73.9417 13.4005 73.7478 14.2227 72.4506 14.7458C71.6848 15.0552 70.663 15.2117 69.4135 15.2117C69.2761 15.2117 68.6764 15.208 68.4564 15.1972L65.4937 15.125L59.0635 22.25C58.9463 22.3892 58.7964 22.5025 58.6249 22.5816C58.4534 22.6607 58.2646 22.7036 58.0725 22.707Z" fill="#1262AE"/>
<circle cx="5.75098" cy="13.2886" r="4" fill="white" stroke="#1262AE" stroke-width="2"/>
<circle cx="113.102" cy="12.8716" r="4" fill="white" stroke="#1262AE" stroke-width="2"/>
</svg>
