<svg width="108" height="16" viewBox="0 0 108 16" fill="none" xmlns="http://www.w3.org/2000/svg">
<path d="M5.27029 8.03266L102.278 8.17057" stroke="#CACACA" stroke-width="0.836813" stroke-linecap="square" stroke-dasharray="1.67 4.18"/>
<path d="M51.1156 15.6044H52.7683L56.9003 9.24466L61.4455 9.24466C62.1314 9.24466 62.6851 8.71204 62.6851 8.0522C62.6851 7.39237 62.1314 6.85975 61.4455 6.85975L56.9003 6.85975L52.7683 0.5L51.1156 0.5L53.1815 6.85978L48.6364 6.85978L47.3968 5.26983H46.1572L46.9836 8.05224L46.1572 10.8346H47.3968L48.6364 9.24466H53.1816L51.1156 15.6044Z" fill="#1262AE"/>
<circle cx="5.3667" cy="8" r="3.66319" fill="white" stroke="#1262AE" stroke-width="1.67363"/>
<path d="M107.139 8.68406C107.139 10.5024 105.597 12.0313 103.626 12.0313C101.655 12.0313 100.114 10.5024 100.114 8.68406C100.114 6.8657 101.655 5.33681 103.626 5.33681C105.597 5.33681 107.139 6.8657 107.139 8.68406Z" fill="white" stroke="#1262AE" stroke-width="1.67363"/>
</svg>
