<svg width="66" height="66" viewBox="0 0 66 66" fill="none" xmlns="http://www.w3.org/2000/svg">
<rect x="0.125977" width="65.387" height="65.387" rx="16" fill="#F9668D"/>
<path d="M31.6752 28.1561H33.9654V27.0217C33.9654 26.7208 34.086 26.4323 34.3008 26.2196C34.5155 26.0068 34.8068 25.8873 35.1105 25.8873H38.5459C38.8496 25.8873 39.1408 26.0068 39.3556 26.2196C39.5703 26.4323 39.691 26.7208 39.691 27.0217V28.1561H44.2714V23.6186C44.2714 22.4151 43.7888 21.261 42.9298 20.4101C42.0708 19.5591 40.9058 19.0811 39.691 19.0811H25.9496C24.7348 19.0811 23.5697 19.5591 22.7107 20.4101C21.8517 21.261 21.3691 22.4151 21.3691 23.6186V28.1561H25.9496V27.0217C25.9496 26.7208 26.0702 26.4323 26.285 26.2196C26.4997 26.0068 26.791 25.8873 27.0947 25.8873H30.5301C30.8338 25.8873 31.125 26.0068 31.3398 26.2196C31.5545 26.4323 31.6752 26.7208 31.6752 27.0217V28.1561Z" fill="white"/>
<path d="M22.5144 30.4248C20.9959 30.4248 19.5397 31.0224 18.466 32.0861C17.3923 33.1497 16.7891 34.5924 16.7891 36.0967V45.1717C16.7891 45.4726 16.9097 45.7611 17.1244 45.9738C17.3392 46.1866 17.6304 46.3061 17.9341 46.3061C18.2378 46.3061 18.5291 46.1866 18.7438 45.9738C18.9586 45.7611 19.0792 45.4726 19.0792 45.1717V39.4998H46.5608V45.1717C46.5608 45.4726 46.6814 45.7611 46.8961 45.9738C47.1109 46.1866 47.4021 46.3061 47.7058 46.3061C48.0095 46.3061 48.3008 46.1866 48.5155 45.9738C48.7303 45.7611 48.8509 45.4726 48.8509 45.1717V36.0967C48.8509 34.5924 48.2477 33.1497 47.174 32.0861C46.1003 31.0224 44.644 30.4248 43.1256 30.4248H22.5144Z" fill="white"/>
</svg>
