<svg width="36" height="46" viewBox="0 0 36 46" fill="none" xmlns="http://www.w3.org/2000/svg">
<path fill-rule="evenodd" clip-rule="evenodd" d="M35.0003 25.9754C35.1779 24.992 35.2671 23.9953 35.2668 22.9966C35.2668 22.3817 35.2328 21.8029 35.1673 21.2507C35.1533 21.131 33.1708 25.1057 29.999 27.6234C32.2055 25.6901 35.0837 20.646 35.0431 20.4273C35.0082 20.2375 34.9688 20.0485 34.9249 19.8605C34.5457 18.2335 33.8618 16.7873 32.9298 15.2151C32.641 18.5516 31.6317 22.1061 28.9836 25.1798C31.7319 21.9544 32.6881 14.6083 32.0332 13.5966C29.3972 9.55464 23.8466 6.01697 17.9042 6.01697L17.8624 6.12364V6.02444C11.9198 6.02444 6.36962 9.5619 3.73362 13.6036C3.07854 14.6153 4.03474 21.9615 6.783 25.1868C4.13511 22.1132 3.12565 18.5587 2.83706 15.2221C1.90442 16.7945 1.22091 18.2404 0.841696 19.8676C0.79781 20.0556 0.7584 20.2445 0.723498 20.4343C0.682967 20.653 3.56131 25.6971 5.76781 27.6304C2.59578 25.1125 0.613364 21.1378 0.599147 21.2578C0.531661 21.8374 0.498573 22.4203 0.500047 23.0037C0.500047 24.0199 0.591295 25.0152 0.766364 25.9825C0.928276 26.8771 4.61491 29.3402 4.7104 29.4176C2.03259 28.3945 0.927003 26.7854 1.02759 27.1741C2.92852 34.5352 9.74474 39.9831 17.8624 39.9831V39.9754L17.9042 39.9758C26.0219 39.9758 32.8381 34.5283 34.7388 27.1668C34.8396 26.7781 33.7342 28.3873 31.0562 29.4104C31.1515 29.3332 34.8381 26.8703 35.0003 25.9754ZM23.5168 26.6291C23.3415 26.7036 23.1641 26.7677 22.9825 26.8159C21.3179 27.2594 19.0036 27.0965 17.9216 25.7141C16.8271 24.3158 17.1301 22.0476 17.981 20.6159C18.8402 19.1705 20.13 18.0963 21.2761 16.8798C21.8252 16.2995 22.3847 15.7285 22.9543 15.1673C23.3239 14.8015 24.3327 14.0174 24.3119 13.4945C24.3024 13.2469 23.8423 12.8107 23.7144 12.5764C23.5278 12.235 23.4113 11.893 23.2117 11.5678C22.7699 10.8498 22.1767 10.5209 21.378 10.3669C20.3796 10.1745 19.6634 10.2602 18.8364 10.8019C18.2142 11.2094 17.5666 11.9694 16.8067 12.0495C15.606 12.1761 10.3775 13.0238 10.1299 13.177C10.7748 13.1303 18.6586 13.2795 19.5518 13.4945C20.602 13.7473 20.5544 14.5749 19.8414 15.2259C17.5991 17.2727 14.2959 18.4908 12.8877 21.3072C12.229 22.6239 11.8065 23.5154 11.8048 25.0555C11.8042 25.6901 11.8549 26.9923 12.6566 28.6093C12.6195 28.5855 11.3895 27.1668 11.3401 25.9667C8.37305 24.0264 6.86406 21.1247 6.86406 17.3486C6.86406 11.363 11.7798 6.51046 17.8435 6.51046C23.9073 6.51046 28.8228 11.3628 28.8228 17.3486C28.8232 21.2847 27.1026 24.9258 23.5168 26.6291Z" fill="#B4282E"/>
<path fill-rule="evenodd" clip-rule="evenodd" d="M18.3187 29.9171L16.8863 33.766C16.0607 35.9842 12.5559 35.5181 12.4326 35.5181C12.1446 35.5181 11.9244 35.487 11.7041 35.2834L12.2287 34.7123C12.3537 34.8063 12.5493 34.8611 12.7492 34.8611C12.9126 34.8611 14.7134 35.2434 15.2503 33.766L16.6826 29.9171H18.3187ZM28.4337 34.7437L28.192 35.393H23.2639L25.302 29.9171H26.9557L25.1589 34.7437H28.4337ZM21.0869 29.9308L16.7208 35.4063H17.5688L18.674 33.92H20.6517L20.3222 35.4063H22.0641L23.4021 29.9308H21.0869ZM19.2495 33.1434L21.502 30.4477L20.8815 33.1434H19.2495Z" fill="white"/>
</svg>
