<svg width="27" height="24" viewBox="0 0 27 24" fill="none" xmlns="http://www.w3.org/2000/svg">
<path d="M23.7502 0.0537109H2.86287C1.42295 0.0537109 0.251953 1.21378 0.251953 2.64027V20.7462C0.251953 22.1727 1.42295 23.3327 2.86287 23.3327H23.7502C25.1901 23.3327 26.3611 22.1727 26.3611 20.7462V2.64027C26.3611 1.21378 25.1901 0.0537109 23.7502 0.0537109ZM23.7515 7.81339C23.7502 7.81339 23.7502 7.81339 23.7515 7.81339H23.1444L19.6628 2.64027H23.7502L23.7515 7.81339ZM17.8756 15.5731L10.6956 19.4529V11.6932L17.8756 15.5731ZM16.6172 7.81339L13.1355 2.64027H16.5245L20.0061 7.81339H16.6172ZM13.4788 7.81339H10.0899L6.60822 2.64027H9.99719L13.4788 7.81339ZM2.86287 2.64027H3.4699L6.95156 7.81339H2.86287V2.64027Z" fill="white"/>
</svg>
