<svg width="36" height="46" viewBox="0 0 36 46" fill="none" xmlns="http://www.w3.org/2000/svg">
<path d="M11.3822 42.1249H8.03702L14.7958 31.9451C14.7958 31.9451 15.8057 29.8368 14.4855 27.6081L5.06526 12.7199C5.06526 12.7199 4.23947 11.3395 5.06526 10.0143L7.85293 6.03369L18.909 23.2711C18.909 23.2711 21.7597 26.8803 18.6617 31.3528L11.3822 42.1249Z" fill="#FCB130"/>
<path d="M19.4612 39.0026L23.5691 33.0292C23.5691 33.0292 24.7683 30.5646 27.8663 30.5646H32.2266L35.2668 35.1375C35.2668 35.1375 32.8683 34.9016 31.7953 36.533L27.314 42.9832C27.314 42.9832 25.8518 46 21.9438 46H0.831111L8.86277 34.234C8.86277 34.234 9.99888 32.8536 8.41043 30.5646L1.26241 19.6017C1.26241 19.6017 -0.494349 17.9804 1.32553 15.2045L3.41365 12.1877L13.3441 27.5528C13.3441 27.5528 15.1008 29.6611 13.3441 32.191L5.88574 43.2894H21.6124C21.6124 43.2894 23.385 43.6006 24.9103 41.4321L28.8183 35.6947C28.8183 35.6947 29.7072 33.7621 31.6691 32.974H28.508C28.508 32.974 26.8564 33.0343 25.5993 34.9066L22.1279 40.0316C22.1279 40.0316 20.8655 42.2001 18.0779 42.2001H12.5814L19.214 32.3767C19.214 32.3767 22.8274 27.844 20.287 23.6827L9.29407 6.32977C9.29407 6.32977 8.46829 4.8289 9.4203 3.43343L11.8188 0L24.337 19.2403C24.337 19.2403 26.1726 22.1216 26.1726 24.3503C26.1726 26.579 24.7104 29.1039 23.9004 30.3839L18.3882 38.586C18.3882 38.586 17.7675 39.3741 18.2041 39.6702C18.6512 39.9664 19.0877 39.4343 19.4612 39.0026Z" fill="#FCB130"/>
</svg>
