<svg width="130" height="30" viewBox="0 0 130 30" fill="none" xmlns="http://www.w3.org/2000/svg">
<path d="M15.0001 0.600098C7.0471 0.600098 0.600098 7.0471 0.600098 15.0001C0.600098 22.9531 7.0471 29.4001 15.0001 29.4001C22.9531 29.4001 29.4001 22.9531 29.4001 15.0001C29.4001 7.0471 22.9531 0.600098 15.0001 0.600098ZM18.4111 10.5511H16.2466C15.9901 10.5511 15.7051 10.8886 15.7051 11.3371V12.9001H18.4126L18.0031 15.1291H15.7051V21.8206H13.1506V15.1291H10.8331V12.9001H13.1506V11.5891C13.1506 9.7081 14.4556 8.1796 16.2466 8.1796H18.4111V10.5511Z" fill="white"/>
<path d="M115 0.600098C107.047 0.600098 100.6 7.0471 100.6 15.0001C100.6 22.9531 107.047 29.4001 115 29.4001C122.953 29.4001 129.4 22.9531 129.4 15.0001C129.4 7.0471 122.953 0.600098 115 0.600098ZM120.858 12.3961C120.864 12.5191 120.865 12.6421 120.865 12.7621C120.865 16.5121 118.014 20.8336 112.797 20.8336C111.255 20.8362 109.746 20.3934 108.45 19.5586C108.67 19.5856 108.897 19.5961 109.126 19.5961C110.455 19.5961 111.678 19.1446 112.648 18.3826C112.057 18.371 111.484 18.1751 111.009 17.8224C110.534 17.4696 110.181 16.9775 109.999 16.4146C110.424 16.4954 110.861 16.4784 111.279 16.3651C110.637 16.2353 110.059 15.8875 109.645 15.3806C109.23 14.8737 109.003 14.239 109.003 13.5841V13.5496C109.386 13.7611 109.824 13.8901 110.289 13.9051C109.687 13.5045 109.261 12.8891 109.098 12.1848C108.935 11.4805 109.047 10.7405 109.411 10.1161C110.124 10.9921 111.012 11.7087 112.019 12.2196C113.026 12.7304 114.129 13.0241 115.257 13.0816C115.113 12.4731 115.175 11.8342 115.432 11.2644C115.689 10.6945 116.128 10.2256 116.679 9.93049C117.23 9.6354 117.863 9.53068 118.48 9.63261C119.097 9.73453 119.663 10.0374 120.09 10.4941C120.724 10.3685 121.333 10.1357 121.89 9.8056C121.678 10.4628 121.235 11.0209 120.643 11.3761C121.205 11.3084 121.754 11.1572 122.272 10.9276C121.892 11.4974 121.413 11.9948 120.858 12.3961Z" fill="white"/>
<path d="M69.5001 15.0001C69.5001 16.1936 69.026 17.3382 68.1821 18.1821C67.3382 19.026 66.1936 19.5001 65.0001 19.5001C63.8066 19.5001 62.662 19.026 61.8181 18.1821C60.9742 17.3382 60.5001 16.1936 60.5001 15.0001C60.5001 14.7436 60.5271 14.4931 60.5736 14.2501H59.0001V20.2456C59.0001 20.6626 59.3376 21.0001 59.7546 21.0001H70.2471C70.4469 20.9997 70.6385 20.92 70.7796 20.7786C70.9208 20.6371 71.0001 20.4454 71.0001 20.2456V14.2501H69.4266C69.4731 14.4931 69.5001 14.7436 69.5001 15.0001ZM65.0001 18.0001C65.3942 18 65.7844 17.9223 66.1484 17.7714C66.5124 17.6205 66.8432 17.3994 67.1217 17.1207C67.4003 16.842 67.6213 16.5111 67.772 16.147C67.9227 15.7829 68.0002 15.3927 68.0001 14.9986C68 14.6045 67.9223 14.2143 67.7714 13.8503C67.6205 13.4863 67.3994 13.1555 67.1207 12.877C66.842 12.5984 66.5111 12.3774 66.147 12.2267C65.7829 12.076 65.3927 11.9985 64.9986 11.9986C64.2028 11.9988 63.4396 12.3151 62.877 12.878C62.3144 13.4409 61.9984 14.2043 61.9986 15.0001C61.9988 15.7959 62.3151 16.5591 62.878 17.1217C63.4409 17.6843 64.2043 18.0003 65.0001 18.0001ZM68.6001 11.8501H70.3986C70.5181 11.8501 70.6327 11.8027 70.7173 11.7184C70.802 11.634 70.8497 11.5196 70.8501 11.4001V9.6016C70.8501 9.48185 70.8025 9.36701 70.7179 9.28234C70.6332 9.19767 70.5183 9.1501 70.3986 9.1501H68.6001C68.4804 9.1501 68.3655 9.19767 68.2808 9.28234C68.1962 9.36701 68.1486 9.48185 68.1486 9.6016V11.4001C68.1501 11.6476 68.3526 11.8501 68.6001 11.8501ZM65.0001 0.600098C61.181 0.600098 57.5183 2.11724 54.8178 4.81776C52.1172 7.51828 50.6001 11.181 50.6001 15.0001C50.6001 18.8192 52.1172 22.4819 54.8178 25.1824C57.5183 27.883 61.181 29.4001 65.0001 29.4001C66.8911 29.4001 68.7637 29.0276 70.5107 28.304C72.2578 27.5803 73.8453 26.5196 75.1824 25.1824C76.5196 23.8453 77.5803 22.2578 78.304 20.5107C79.0276 18.7637 79.4001 16.8911 79.4001 15.0001C79.4001 13.1091 79.0276 11.2365 78.304 9.48946C77.5803 7.74237 76.5196 6.15492 75.1824 4.81776C73.8453 3.4806 72.2578 2.4199 70.5107 1.69623C68.7637 0.972565 66.8911 0.600098 65.0001 0.600098ZM72.5001 20.8336C72.5001 21.7501 71.7501 22.5001 70.8336 22.5001H59.1666C58.2501 22.5001 57.5001 21.7501 57.5001 20.8336V9.1666C57.5001 8.2501 58.2501 7.5001 59.1666 7.5001H70.8336C71.7501 7.5001 72.5001 8.2501 72.5001 9.1666V20.8336Z" fill="white"/>
</svg>
