<svg width="29" height="27" viewBox="0 0 29 27" fill="none" xmlns="http://www.w3.org/2000/svg">
<path d="M25.1756 4.76458C24.8605 3.90417 23.9779 3.29167 22.9378 3.29167H18.998V1.83333C18.998 1.03125 18.2889 0.375 17.4221 0.375H11.1184C10.2516 0.375 9.54247 1.03125 9.54247 1.83333V3.29167H5.60265C4.56254 3.29167 3.69578 3.90417 3.36484 4.76458L0.260266 13.0333C0.149951 13.3396 0.0869141 13.6604 0.0869141 13.9958V24.4375C0.0869141 25.6479 1.14278 26.625 2.4508 26.625C3.75882 26.625 4.81469 25.6479 4.81469 24.4375V23.7083H23.7258V24.4375C23.7258 25.6333 24.7817 26.625 26.0897 26.625C27.3819 26.625 28.4536 25.6479 28.4536 24.4375V13.9958C28.4536 13.675 28.3905 13.3396 28.2802 13.0333L25.1756 4.76458ZM5.60265 19.3333C4.29464 19.3333 3.23877 18.3563 3.23877 17.1458C3.23877 15.9354 4.29464 14.9583 5.60265 14.9583C6.91067 14.9583 7.96654 15.9354 7.96654 17.1458C7.96654 18.3563 6.91067 19.3333 5.60265 19.3333ZM22.9378 19.3333C21.6298 19.3333 20.5739 18.3563 20.5739 17.1458C20.5739 15.9354 21.6298 14.9583 22.9378 14.9583C24.2459 14.9583 25.3017 15.9354 25.3017 17.1458C25.3017 18.3563 24.2459 19.3333 22.9378 19.3333ZM3.23877 12.0417L5.60265 5.47917H22.9378L25.3017 12.0417H3.23877Z" fill="white"/>
</svg>
