<svg width="32" height="32" viewBox="0 0 32 32" fill="none" xmlns="http://www.w3.org/2000/svg">
<path d="M21.4613 1.0427C20.8025 0.390368 19.9091 0.0239258 18.9776 0.0239258C18.046 0.0239258 17.1526 0.390368 16.4938 1.0427L1.06626 16.3277C0.739982 16.651 0.481161 17.0347 0.304578 17.457C0.127995 17.8794 0.0371094 18.332 0.0371094 18.7891C0.0371094 19.2462 0.127995 19.6989 0.304578 20.1212C0.481161 20.5435 0.739982 20.9273 1.06626 21.2505L2.89651 23.0621C3.69295 23.8527 4.81265 23.7119 5.48884 23.3128C5.86185 23.0933 6.298 23.0033 6.72843 23.0568C7.15886 23.1102 7.55904 23.3042 7.86579 23.6081C8.17253 23.912 8.36836 24.3085 8.42235 24.7349C8.47634 25.1613 8.38542 25.5934 8.16394 25.9629C7.7626 26.6328 7.61893 27.742 8.41693 28.531L10.2487 30.3442C10.575 30.6674 10.9624 30.9238 11.3887 31.0988C11.815 31.2737 12.2719 31.3637 12.7333 31.3637C13.1947 31.3637 13.6517 31.2737 14.078 31.0988C14.5043 30.9238 14.8916 30.6674 15.2179 30.3442L30.6438 15.0622C30.9701 14.739 31.2289 14.3553 31.4055 13.9329C31.5821 13.5106 31.673 13.058 31.673 12.6009C31.673 12.1437 31.5821 11.6911 31.4055 11.2688C31.2289 10.8464 30.9701 10.4627 30.6438 10.1395L28.8151 8.3263C28.0187 7.53729 26.8974 7.67653 26.2212 8.07567C25.8482 8.29509 25.4121 8.38516 24.9817 8.33167C24.5512 8.27819 24.151 8.08418 23.8443 7.7803C23.5376 7.47642 23.3417 7.07997 23.2877 6.65356C23.2337 6.22715 23.3247 5.79507 23.5461 5.42555C23.949 4.75566 24.0912 3.64642 23.2932 2.85741L21.4629 1.0427H21.4613Z" fill="white"/>
</svg>
