<svg width="28" height="32" viewBox="0 0 28 32" fill="none" xmlns="http://www.w3.org/2000/svg">
<path d="M0.46875 23.6668C0.46875 25.1335 1.12487 26.4502 2.15112 27.3668V29.5002C2.15112 30.8835 3.2783 32.0002 4.67466 32.0002C6.07103 32.0002 7.19821 30.8835 7.19821 29.5002V28.6668H20.6571V29.5002C20.6571 30.8668 21.7843 32.0002 23.1807 32.0002C24.5602 32.0002 25.7042 30.8835 25.7042 29.5002V27.3668C26.7305 26.4502 27.3866 25.1335 27.3866 23.6668V7.00016C27.3866 1.16683 21.3637 0.333496 13.9277 0.333496C6.49162 0.333496 0.46875 1.16683 0.46875 7.00016V23.6668ZM6.35703 25.3335C4.96067 25.3335 3.83348 24.2168 3.83348 22.8335C3.83348 21.4502 4.96067 20.3335 6.35703 20.3335C7.75339 20.3335 8.88058 21.4502 8.88058 22.8335C8.88058 24.2168 7.75339 25.3335 6.35703 25.3335ZM21.4983 25.3335C20.102 25.3335 18.9748 24.2168 18.9748 22.8335C18.9748 21.4502 20.102 20.3335 21.4983 20.3335C22.8947 20.3335 24.0219 21.4502 24.0219 22.8335C24.0219 24.2168 22.8947 25.3335 21.4983 25.3335ZM24.0219 15.3335H3.83348V7.00016H24.0219V15.3335Z" fill="white"/>
</svg>
