<svg width="36" height="46" viewBox="0 0 36 46" fill="none" xmlns="http://www.w3.org/2000/svg">
<path fill-rule="evenodd" clip-rule="evenodd" d="M17.884 8.0842C9.2755 8.0842 2.23053 15.2875 2.23053 24.2577C2.23053 33.2272 9.27613 40.4299 17.884 40.4299C26.4911 40.4299 33.536 33.2273 33.536 24.2577C33.536 15.2875 26.4903 8.0842 17.884 8.0842ZM0.676758 24.2577C0.676758 14.5245 8.3415 6.5647 17.884 6.5647C27.4244 6.5647 35.0898 14.5245 35.0898 24.2577C35.0898 33.9903 27.4251 41.9494 17.884 41.9494C8.34229 41.9494 0.676758 33.9904 0.676758 24.2577Z" fill="#CF4037"/>
<path fill-rule="evenodd" clip-rule="evenodd" d="M22.8444 20.545C22.0874 15.2975 17.664 12.7065 14.9009 11.1543C12.3366 9.71468 10.0407 9.06049 9.98531 9.22924C12.9018 11.5745 14.7745 15.2281 14.7745 19.3331C14.7745 26.0646 9.73534 31.5836 3.3335 32.0989L3.73828 32.7239C11.9339 31.4475 33.8664 27.3758 33.8664 27.3758L33.9246 26.8973L20.6181 26.4417C22.0867 24.8896 23.0922 22.2547 22.8444 20.545Z" fill="#CF4037"/>
</svg>
