<svg width="16" height="17" viewBox="0 0 16 17" fill="none" xmlns="http://www.w3.org/2000/svg">
<path d="M15.4744 6.36135L10.6806 5.63138L8.53756 1.07943C8.47903 0.954801 8.38274 0.85391 8.26379 0.792584C7.96547 0.638281 7.60295 0.766867 7.4538 1.07943L5.31081 5.63138L0.516931 6.36135C0.384765 6.38113 0.263926 6.44641 0.17141 6.54533C0.059562 6.66578 -0.00207107 6.82782 5.31422e-05 6.99586C0.00217735 7.16389 0.0678851 7.32417 0.182738 7.44147L3.65117 10.9845L2.83174 15.9875C2.81252 16.1039 2.82481 16.2236 2.86722 16.333C2.90962 16.4424 2.98045 16.5372 3.07165 16.6066C3.16286 16.6761 3.27081 16.7173 3.38325 16.7257C3.49569 16.7341 3.60813 16.7093 3.70781 16.6542L7.99568 14.2921L12.2835 16.6542C12.4006 16.7195 12.5366 16.7412 12.6668 16.7175C12.9954 16.6581 13.2163 16.3317 13.1596 15.9875L12.3402 10.9845L15.8086 7.44147C15.903 7.34454 15.9653 7.21793 15.9842 7.07945C16.0352 6.73326 15.8048 6.41279 15.4744 6.36135Z" fill="#FDBF00"/>
</svg>
