<svg width="59" height="59" viewBox="0 0 59 59" fill="none" xmlns="http://www.w3.org/2000/svg">
<path fill-rule="evenodd" clip-rule="evenodd" d="M52.3333 15.4167C47.5007 15.4167 43.5833 11.4991 43.5833 6.66667C43.5833 5.09199 43.9993 3.61446 44.7273 2.33798C43.8715 2.16068 42.9702 2.02648 42.0185 1.92338C38.6874 1.56247 34.4886 1.56247 29.1318 1.5625H28.8682C23.5114 1.56247 19.3126 1.56247 15.9814 1.92338C12.5819 2.2917 9.82747 3.05677 7.4757 4.76544C6.05193 5.79986 4.79986 7.05193 3.76544 8.4757C2.05677 10.8275 1.2917 13.5819 0.92338 16.9814C0.562471 20.3126 0.562471 24.5114 0.562501 29.8679V30.1318C0.562471 35.4886 0.562471 39.6874 0.92338 43.0185C1.2917 46.4182 2.05677 49.1724 3.76544 51.5244C4.79986 52.948 6.05193 54.2002 7.4757 55.2344C9.82747 56.9433 12.5819 57.7083 15.9814 58.0767C19.3126 58.4375 23.5114 58.4375 28.8679 58.4375H29.1321C34.4886 58.4375 38.6874 58.4375 42.0185 58.0767C45.4182 57.7083 48.1724 56.9433 50.5244 55.2344C51.948 54.2002 53.2002 52.948 54.2344 51.5244C55.9433 49.1724 56.7083 46.4182 57.0767 43.0185C57.4375 39.6874 57.4375 35.4886 57.4375 30.1321V29.8679C57.4375 24.5114 57.4375 20.3126 57.0767 16.9814C56.9735 16.0297 56.8393 15.1286 56.662 14.2727C55.3856 15.0007 53.908 15.4167 52.3333 15.4167ZM44.5467 19.7027C45.6314 20.2348 46.0794 21.5454 45.5474 22.63L41.2879 31.3131C38.3053 37.3932 29.5396 37.0963 26.9753 30.8283C25.8404 28.0537 21.9601 27.9222 20.6399 30.6137L16.3806 39.2966C15.8485 40.3813 14.5379 40.8293 13.4533 40.2973C12.3686 39.7653 11.9207 38.4545 12.4527 37.3698L16.712 28.6869C19.6945 22.6067 28.4604 22.9037 31.0247 29.1717C32.1596 31.9463 36.04 32.0778 37.36 29.3863L41.6192 20.7033C42.1515 19.6186 43.462 19.1706 44.5467 19.7027Z" fill="#8E81E0"/>
<path d="M46.5 6.66659C46.5 9.88825 49.1116 12.4999 52.3333 12.4999C55.5551 12.4999 58.1667 9.88825 58.1667 6.66659C58.1667 3.44492 55.5551 0.833252 52.3333 0.833252C49.1116 0.833252 46.5 3.44492 46.5 6.66659Z" fill="#8E81E0"/>
</svg>
